<?xml version="1.0" encoding="UTF-8"?>
<!DOCTYPE svg PUBLIC "-//W3C//DTD SVG 1.1//EN" "http://www.w3.org/Graphics/SVG/1.1/DTD/svg11.dtd">
<svg version="1.1" id="Layer_1" xmlns="http://www.w3.org/2000/svg" xmlns:xlink="http://www.w3.org/1999/xlink" x="0px" y="0px" width="16px" height="16px" viewBox="0 0 16 16" enable-background="new 0 0 16 16" xml:space="preserve">
  <g id="icon">
    <path d="M14.6,1H1.4C0.627,1,0,1.627,0,2.4v1.6h16V2.4C16,1.627,15.373,1,14.6,1zM11,3H9V2h2V3zM14,3h-2V2h2V3z" fill="#3E79B4"/>
    <path d="M1,4v11h14V4H1zM4.667,13.099c0.319,0,0.674,-0.061,0.904,-0.155l0.11,-0.045l0.181,0.845l-0.069,0.032c-0.211,0.099,-0.672,0.214,-1.274,0.214c-1.53,0,-2.519,-0.968,-2.519,-2.467c0,-1.505,1.06,-2.516,2.639,-2.516c0.565,0,0.986,0.111,1.192,0.215l0.07,0.035l-0.232,0.847l-0.105,-0.044c-0.182,-0.077,-0.485,-0.169,-0.889,-0.169c-0.964,0,-1.563,0.61,-1.563,1.592C3.111,12.479,3.707,13.099,4.667,13.099zM7.058,13.33c-0.353,0,-0.619,-0.269,-0.619,-0.625c0,-0.366,0.266,-0.632,0.633,-0.632c0.369,0,0.626,0.26,0.626,0.632C7.698,13.067,7.429,13.33,7.058,13.33zM7.058,11.038c-0.353,0,-0.619,-0.269,-0.619,-0.625c0,-0.366,0.266,-0.632,0.633,-0.632c0.369,0,0.626,0.26,0.626,0.632C7.698,10.775,7.429,11.038,7.058,11.038zM9.789,14L8.077,9h0.812l1.712,5H9.789zM14,11.802l-3.007,1.634v-0.814l2.096,-1.134l-2.096,-1.134v-0.814L14,11.173V11.802z" fill-rule="evenodd" fill="#58595B"/>
    <path d="M9.789,14L8.077,9h0.812l1.712,5H9.789zM4.519,13.989c-1.53,0,-2.519,-0.968,-2.519,-2.467c0,-1.505,1.06,-2.516,2.639,-2.516c0.565,0,0.986,0.111,1.192,0.215l0.07,0.035l-0.232,0.847l-0.105,-0.044c-0.182,-0.077,-0.485,-0.169,-0.889,-0.169c-0.964,0,-1.563,0.61,-1.563,1.592c0,0.998,0.596,1.617,1.555,1.617c0.319,0,0.674,-0.061,0.904,-0.155l0.11,-0.045l0.181,0.845l-0.069,0.032C5.582,13.874,5.122,13.989,4.519,13.989zM10.993,12.621l2.096,-1.134l-2.096,-1.134v-0.814L14,11.173v0.628l-3.007,1.634V12.621zM7.058,13.33c-0.353,0,-0.619,-0.269,-0.619,-0.625c0,-0.366,0.266,-0.632,0.633,-0.632c0.369,0,0.626,0.26,0.626,0.632C7.698,13.067,7.429,13.33,7.058,13.33zM7.058,11.038c-0.353,0,-0.619,-0.269,-0.619,-0.625c0,-0.366,0.266,-0.632,0.633,-0.632c0.369,0,0.626,0.26,0.626,0.632C7.698,10.775,7.429,11.038,7.058,11.038z" fill="#FFFFFF"/>
    <path d="M15,4l0.001,11H1V4H0v11c0,0.551,0.449,1,1,1h14c0.551,0,1,-0.449,1,-1V4H15z" fill="#797979"/>
    <path d="M14,3h-2V2h2V3zM11,2H9v1h2V2z" fill="#FFFFFF"/>
  </g>
</svg>
