<?xml version="1.0" encoding="UTF-8"?>
<!DOCTYPE svg PUBLIC "-//W3C//DTD SVG 1.1//EN" "http://www.w3.org/Graphics/SVG/1.1/DTD/svg11.dtd">
<svg version="1.1" id="Layer_1" xmlns="http://www.w3.org/2000/svg" xmlns:xlink="http://www.w3.org/1999/xlink" x="0px" y="0px" width="32px" height="32px" viewBox="0 0 32 32" enable-background="new 0 0 32 32" xml:space="preserve">
  <g id="icon">
    <path d="M15,6.7413v11.4726c0,0.4094,-0.3433,0.7861,-0.7669,0.7861H3.8182c-0.4235,0,-0.7669,-0.3767,-0.7669,-0.7861V6.7413c0,-0.4094,0.3433,-0.7413,0.7669,-0.7413h10.4149C14.6567,6,15,6.3319,15,6.7413z" fill="#EAB765"/>
    <path d="M16,1c2.7,0,2.3667,1.027,4.4951,1.027c1.4815,0,4.031,-0.0173,5.5727,-0.0127c0.7215,0.0021,0.9231,0.4215,0.9231,1.1298c0,0.5672,0,1.223,0,1.8105C26.9909,5.6512,26.5907,6,25.9,6c-1.3382,0,-4.3803,0,-6.3545,0c-1.4788,0,-1.9788,-1.0309,-3.8182,-1.0309c-4.3864,0,-7.6136,0,-12.4091,0c-0.2784,0,-1.1824,0.0027,-1.4474,-0.0691c-0.7186,-0.1948,-1.04,-1.3387,-0.6105,-1.9337C2.0908,1.8159,2.9973,1,4.6818,1C6.6031,1,14.25,1,16,1z" fill="#797979"/>
    <path d="M16,24c2.7,0,2.3667,-1.027,4.4951,-1.027c1.4815,0,4.031,0.0173,5.5727,0.0127c0.7215,-0.0021,0.9231,-0.4215,0.9231,-1.1298c0,-0.5672,0,-1.223,0,-1.8105c0,-0.6966,-0.4002,-1.0455,-1.0909,-1.0455c-1.3382,0,-4.3803,0,-6.3545,0c-1.4788,0,-1.9788,1.0309,-3.8182,1.0309c-4.3864,0,-7.6136,0,-12.4091,0c-0.2784,0,-1.1824,-0.0027,-1.4474,0.0691c-0.7186,0.1948,-1.04,1.3387,-0.6105,1.9337C2.0908,23.1841,2.9973,24,4.6818,24C6.6031,24,14.25,24,16,24z" fill="#797979"/>
    <path d="M26.9091,27.5398L26.9091,27.5398c0,0.273,-0.3053,0.4943,-0.6818,0.4943H17.7c-0.3766,0,-0.6818,-0.2213,-0.6818,-0.4943l0,0c0,-0.273,-0.3053,-0.4943,-0.6818,-0.4943H13.7c-0.3766,0,-0.6818,0.2213,-0.6818,0.4943v2.9659c0,0.273,0.3053,0.4943,0.6818,0.4943h2.6364c0.3766,0,0.6818,-0.2213,0.6818,-0.4943l0,0c0,-0.273,0.3053,-0.4943,0.6818,-0.4943h8.5273c0.3766,0,0.6818,0.2213,0.6818,0.4943l0,0c0,0.273,0.3053,0.4943,0.6818,0.4943h2.7273c0.3766,0,0.6818,-0.2213,0.6818,-0.4943v-2.9659c0,-0.273,-0.3053,-0.4943,-0.6818,-0.4943h-2.7273C27.2144,27.0455,26.9091,27.2668,26.9091,27.5398z" fill="#797979"/>
    <path d="M24,9.4739l-4,3.0319v-1.9524l4,-3.0319V9.4739zM20,7v2.182L22.9572,7H20zM23.3998,18H24v-0.4549L23.3998,18zM24,10.8454l-4,3.0319v1.9524l4,-3.0319V10.8454zM20,24v1.6449c0,0.08,0.0703,0.1548,0.1006,0.2225L22.5326,24H20zM23.4244,26.9l0.5756,-0.521v-1.9524L20.9155,26.9H23.4244zM21.5537,18L24,16.1217v-1.9524l-4,3.032V18H21.5537z" fill="#797979"/>
  </g>
</svg>
