<?xml version="1.0" encoding="UTF-8"?>
<!DOCTYPE svg PUBLIC "-//W3C//DTD SVG 1.1//EN" "http://www.w3.org/Graphics/SVG/1.1/DTD/svg11.dtd">
<svg version="1.1" id="Layer_1" xmlns="http://www.w3.org/2000/svg" xmlns:xlink="http://www.w3.org/1999/xlink" x="0px" y="0px" width="32px" height="32px" viewBox="0 0 32 32" enable-background="new 0 0 32 32" xml:space="preserve">
  <g id="icon">
    <path d="M29,2.6109c0,0,0,20.6783,0,21.5603c0,1.4909,-1.2234,3.7259,-5.0611,3.5056c-6.374,-0.3659,-5.8934,-6.0619,-1.5582,-6.9399c2.2233,-0.4503,3.4521,-0.0405,3.9606,0.2582c0.292,0.1716,0.6587,0.2382,0.6587,-0.6407c0,-3.7357,0,-12.8033,0,-12.8033L13,9.6862c0,0,0,16.5936,0,17.1077s0.1157,2.9049,-4.6994,3.2337c-6.335,0.4327,-7.567,-6.4002,-0.3288,-7.1251c0.5467,-0.0548,1.8368,0.1597,2.2591,0.4225c0.5651,0.3516,0.8055,0.0435,0.7806,-0.6965c0,-3.1284,-0.011,-14.4478,-0.0018,-17.3222c0.001,-0.3241,0.2355,-0.5986,0.5533,-0.6488l16.6809,-2.6983C28.6411,1.8964,29,2.2058,29,2.6109z" fill-rule="evenodd" fill="#4EA17E"/>
  </g>
</svg>
