<?xml version="1.0" encoding="UTF-8"?>
<!DOCTYPE svg PUBLIC "-//W3C//DTD SVG 1.1//EN" "http://www.w3.org/Graphics/SVG/1.1/DTD/svg11.dtd">
<svg version="1.1" id="Layer_1" xmlns="http://www.w3.org/2000/svg" xmlns:xlink="http://www.w3.org/1999/xlink" x="0px" y="0px" width="16px" height="16px" viewBox="0 0 16 16" enable-background="new 0 0 16 16" xml:space="preserve">
  <g id="icon">
    <path d="M2.5405,16c-1.691,0,-2.4241,-0.9724,-2.4721,-1.9331c-0.0482,-0.9641,0.5922,-2.0258,2.5784,-2.2247c0.0364,-0.0036,0.862,-0.0054,1.1141,0.1514c0.0395,0.0246,0.2436,-0.0585,0.2391,-0.1936c-0.0001,-0.4853,-0.0034,-8.6271,0,-9.7c0.0008,-0.2699,0.2592,-0.6129,0.5249,-0.6549L15.3012,0.0254c0.0276,-0.0043,0.0563,-0.0066,0.0846,-0.0066c0.2998,0,0.5438,0.2454,0.6142,0.5471v12.1427c-0.0705,0.8604,-1.1091,2.0522,-3.0592,2.0522c-0.0936,0,-0.1896,-0.0028,-0.2854,-0.0083c-1.906,-0.1094,-2.6508,-1.0689,-2.7123,-1.9304c-0.0608,-0.8518,0.5601,-1.8522,1.8643,-2.1164c0.3576,-0.0724,0.6957,-0.1091,1.0049,-0.1091c0.6636,0,0.9491,0.1683,1.1198,0.2686c0.0108,0.0063,0.0202,0.0113,0.0281,0.0151c0.0082,-0.0313,0.0398,-0.1798,0.0398,-0.1798V3.7998L6,4.8585v9.2299c0,0.0169,-0.1356,1.6942,-3.1744,1.9007c-0.1055,0.0072,-0.2111,0.0108,-0.3139,0.0108C2.5116,16,2.5406,16,2.5405,16z" fill-rule="evenodd" fill="#4EA17E"/>
  </g>
</svg>
