<?xml version="1.0" encoding="UTF-8"?>
<!DOCTYPE svg PUBLIC "-//W3C//DTD SVG 1.1//EN" "http://www.w3.org/Graphics/SVG/1.1/DTD/svg11.dtd">
<svg version="1.1" id="Layer_1" xmlns="http://www.w3.org/2000/svg" xmlns:xlink="http://www.w3.org/1999/xlink" x="0px" y="0px" width="32px" height="32px" viewBox="0 0 32 32" enable-background="new 0 0 32 32" xml:space="preserve">
  <g id="icon">
    <path d="M30.5,8.8c0,0.312,0,20.8,0,20.8c0,0.641,-0.265,0.9,-0.9,0.9H8.4c-0.635,0,-0.9,-0.259,-0.9,-0.9v-1.6v-1v-2.066c0.318,-0.574,0.5,-1.233,0.5,-1.934v-2c0,-0.403,-0.06,-0.792,-0.171,-1.159c0.202,0.101,0.43,0.159,0.671,0.159h0.5v5.4c0,0.827,0.673,1.5,1.5,1.5s1.5,-0.673,1.5,-1.5v-2.4c0,2.206,1.794,4,4,4s4,-1.794,4,-4v-2c0,-0.403,-0.06,-0.792,-0.171,-1.159c0.202,0.101,0.43,0.159,0.671,0.159h0.5v5.4c0,0.827,0.673,1.5,1.5,1.5s1.5,-0.673,1.5,-1.5v-6.9c0,-0.827,-0.673,-1.5,-1.5,-1.5h-2c-0.781,0,-1.425,0.6,-1.494,1.364C18.272,17.528,17.197,17,16,17c-2.206,0,-4,1.794,-4,4v-2.5c0,-0.827,-0.673,-1.5,-1.5,-1.5H8.5c-0.384,0,-0.734,0.146,-1,0.384V17v-2V2.4c0,-0.641,0.265,-0.9,0.9,-0.9c0,0,14.663,0,14.9,0s0.55,0.05,0.9,0.4c0.299,0.299,4.417,4.417,5.9,5.9C30.353,8.053,30.5,8.35,30.5,8.8zM17,23v-2c0,-0.551,-0.449,-1,-1,-1s-1,0.449,-1,1v2c0,0.551,0.449,1,1,1S17,23.551,17,23z" fill-rule="evenodd" fill="#FFFFFF"/>
    <path d="M30.454,7.446l-5.9,-5.9C24.186,1.179,23.776,1,23.3,1H8.4c-0.916,0,-1.4,0.484,-1.4,1.4v14.6h1V2.4c0,-0.363,0.037,-0.4,0.4,-0.4h14.6v5.7c0,0.717,0.583,1.3,1.3,1.3h5.7v20.6c0,0.363,-0.037,0.4,-0.4,0.4H8.4c-0.363,0,-0.4,-0.037,-0.4,-0.4v-2.6H7v2.6c0,0.916,0.484,1.4,1.4,1.4h21.2c0.916,0,1.4,-0.484,1.4,-1.4V8.8C31,8.249,30.826,7.819,30.454,7.446zM24.3,8c-0.165,0,-0.3,-0.135,-0.3,-0.3V2.407L29.593,8H24.3z" fill="#6D6E71"/>
    <path d="M8.5,18.5h2v6.9M6.5,23v-2c0,-1.381,-1.119,-2.5,-2.5,-2.5h0c-1.381,0,-2.5,1.119,-2.5,2.5v2c0,1.381,1.119,2.5,2.5,2.5h0C5.381,25.5,6.5,24.381,6.5,23zM22.5,25.4v-6.9h-2M18.5,23v-2c0,-1.381,-1.119,-2.5,-2.5,-2.5h0c-1.381,0,-2.5,1.119,-2.5,2.5v2c0,1.381,1.119,2.5,2.5,2.5h0C17.381,25.5,18.5,24.381,18.5,23z" fill="none" stroke="#3E79B4" stroke-width="1" stroke-linecap="round" stroke-miterlimit="1" stroke-linejoin="round"/>
  </g>
</svg>
