<?xml version="1.0" encoding="UTF-8"?>
<!DOCTYPE svg PUBLIC "-//W3C//DTD SVG 1.1//EN" "http://www.w3.org/Graphics/SVG/1.1/DTD/svg11.dtd">
<svg version="1.1" id="Layer_1" xmlns="http://www.w3.org/2000/svg" xmlns:xlink="http://www.w3.org/1999/xlink" x="0px" y="0px" width="16px" height="16px" viewBox="0 0 16 16" enable-background="new 0 0 16 16" xml:space="preserve">
  <g id="icon">
    <path d="M14.8,15.5H1.2c-0.385,0,-0.7,-0.315,-0.7,-0.7V4.5h15v10.3C15.5,15.185,15.185,15.5,14.8,15.5z" fill-rule="evenodd" fill="#FFFFFF" stroke="#797979" stroke-width="1" stroke-miterlimit="1"/>
    <path d="M14.7,1h-0.7v2h-3V1H5v2H2V1h-0.7C0.5832,1,0,1.5832,0,2.3v2.7h16V2.3C16,1.5832,15.4168,1,14.7,1z" fill="#CD4C32"/>
    <g>
      <rect x="3" width="1" height="3" fill="#797979"/>
      <rect x="12" width="1" height="3" fill="#797979"/>
    </g>
    <g>
      <path d="M7.5269,12.8H4.5304l0.3455,-0.3339c1.5293,-1.4735,2.6118,-2.6348,2.6118,-4.1087c0,-1.1501,-0.7499,-2.3128,-2.4253,-2.3128c-0.7948,0,-1.5932,0.287,-2.1905,0.7893c-0.0494,0.0416,-0.0652,0.1103,-0.0386,0.1691l0.321,0.7104c0.0185,0.0411,0.0552,0.071,0.0991,0.081c0.0439,0.01,0.09,-0.001,0.1246,-0.0298c0.2675,-0.223,0.8168,-0.5971,1.4895,-0.5971c1.0935,0,1.3231,0.7132,1.3231,1.3116c0,1.0773,-0.874,2.0271,-2.7303,3.7939l-0.8037,0.768c-0.028,0.0271,-0.0565,0.0645,-0.0565,0.1034v0.619c0,0.0796,0.0902,0.2365,0.1698,0.2365h4.7571c0.0796,0,0.1731,-0.1569,0.1731,-0.2365v-0.8368C7.7,12.8471,7.6065,12.8,7.5269,12.8z" fill="#5B5C5C"/>
      <path d="M12.0079,9.7092c0.7163,-0.3753,1.1193,-0.9959,1.1193,-1.7459c0,-0.9561,-0.7038,-1.9209,-2.2762,-1.9209c-0.8317,0,-1.6259,0.3013,-2.044,0.6c-0.0531,0.0379,-0.0741,0.1068,-0.0512,0.1679l0.2751,0.7336c0.0157,0.042,0.0501,0.0742,0.093,0.0873c0.0429,0.013,0.0893,0.0054,0.1258,-0.0206c0.301,-0.215,0.8499,-0.466,1.4064,-0.466c0.7388,0,1.1626,0.3866,1.1626,1.0089c0,0.8193,-0.9078,1.1465,-1.5179,1.1465H9.739C9.6594,9.3,9.5,9.3051,9.5,9.3847v0.7565c0,0.0796,0.1594,0.2588,0.239,0.2588h0.5617c0.8541,0,1.7707,0.2967,1.7816,1.2913c0.0061,0.3334,-0.118,0.6259,-0.3403,0.8523c-0.2715,0.2764,-0.6754,0.4023,-1.2006,0.4023c-0.8228,0,-1.5018,-0.4003,-1.5765,-0.4451c-0.037,-0.0223,-0.0821,-0.0303,-0.1227,-0.0157c-0.0407,0.0145,-0.0727,0.0447,-0.0872,0.0853l-0.2751,0.7671c-0.0225,0.0627,0.001,0.1322,0.0566,0.1687c0.3712,0.2436,1.1219,0.5278,2.0163,0.5278c0.8713,0,1.6047,-0.2447,2.1209,-0.7075c0.4772,-0.4278,0.74,-1.0217,0.74,-1.6737C13.4037,10.7391,12.8637,10.0093,12.0079,9.7092z" fill="#5B5C5C"/>
    </g>
  </g>
</svg>
