<?xml version="1.0" encoding="UTF-8"?>
<!DOCTYPE svg PUBLIC "-//W3C//DTD SVG 1.1//EN" "http://www.w3.org/Graphics/SVG/1.1/DTD/svg11.dtd">
<svg version="1.1" id="Layer_1" xmlns="http://www.w3.org/2000/svg" xmlns:xlink="http://www.w3.org/1999/xlink" x="0px" y="0px" width="32px" height="32px" viewBox="0 0 32 32" enable-background="new 0 0 32 32" xml:space="preserve">
  <g id="icon">
    <path d="M29.2,29.5H2.8c-0.693,0,-1.3,-0.6,-1.3,-1.3V7.5h29v20.7C30.5,28.9,29.893,29.5,29.2,29.5z" fill-rule="evenodd" fill="#FFFFFF" stroke="#797979" stroke-width="1" stroke-miterlimit="1"/>
    <path d="M29.66,3H26v3h-4V3H11v3H7V3H2.3c-0.7168,0,-1.3,0.5832,-1.3,1.3v3.7h30V4.3C31,3.5953,30.3863,3,29.66,3z" fill="#CD4C32"/>
    <g>
      <rect x="8" y="1" width="2" height="4" fill="#797979"/>
      <rect x="23" y="1" width="2" height="4" fill="#797979"/>
    </g>
    <g>
      <path d="M15.0176,23.8H9.3507l0.6533,-0.6137c2.8921,-2.7866,4.9394,-4.974,4.9394,-7.7615c0,-2.1751,-1.4182,-4.3695,-4.5866,-4.3695c-1.5031,0,-3.013,0.5449,-4.1426,1.4949c-0.0935,0.0786,-0.1233,0.2097,-0.073,0.321l0.607,1.3441c0.035,0.0776,0.1044,0.1345,0.1874,0.1536c0.083,0.019,0.1702,-0.0017,0.2357,-0.0563c0.506,-0.4217,1.5448,-1.1291,2.817,-1.1291c2.0681,0,2.5021,1.3489,2.5021,2.4805c0,2.0374,-1.6529,3.8337,-5.1634,7.175l-1.52,1.4525c-0.0529,0.0513,-0.1069,0.1219,-0.1069,0.1956v1.1706c0,0.1506,0.1705,0.3425,0.3211,0.3425h8.9964c0.1506,0,0.2824,-0.1919,0.2824,-0.3425V24.075C15.3,23.9244,15.1682,23.8,15.0176,23.8z" fill="#5B5C5C"/>
      <path d="M23.4919,17.9902c1.3546,-0.7097,2.1167,-1.8834,2.1167,-3.3019c0,-1.8082,-1.3311,-3.6327,-4.3048,-3.6327c-1.5729,0,-3.0748,0.5699,-3.8655,1.1347c-0.1004,0.0717,-0.1402,0.202,-0.0968,0.3176l0.5203,1.3874c0.0298,0.0794,0.0947,0.1404,0.1758,0.1651c0.0811,0.0246,0.1689,0.0102,0.238,-0.039c0.5692,-0.4065,1.6073,-0.8814,2.6597,-0.8814c1.3973,0,2.1986,0.7231,2.1986,1.8999c0,1.5495,-1.7167,2.16,-2.8707,2.16h-1.0622c-0.1506,0,-0.3011,0.0258,-0.3011,0.1764v1.4308c0,0.1506,0.1505,0.2928,0.3011,0.2928h1.0622c1.6153,0,3.3486,0.6594,3.3693,2.5404c0.0115,0.6306,-0.2231,1.2328,-0.6436,1.6609c-0.5134,0.5228,-1.2773,0.7853,-2.2705,0.7853c-1.556,0,-2.8401,-0.7448,-2.9814,-0.8295c-0.07,-0.0421,-0.1553,-0.0511,-0.232,-0.0236c-0.0769,0.0274,-0.1374,0.0876,-0.1649,0.1645l-0.5202,1.4523c-0.0425,0.1186,0.0018,0.2508,0.1071,0.3199c0.702,0.4606,2.1218,0.9985,3.8132,0.9985c1.6478,0,3.0347,-0.4626,4.0109,-1.3378c0.9025,-0.8091,1.3995,-1.9321,1.3995,-3.1651C26.1316,19.9377,25.1105,18.5577,23.4919,17.9902z" fill="#5B5C5C"/>
    </g>
  </g>
</svg>
