<?xml version="1.0" encoding="UTF-8"?>
<!DOCTYPE svg PUBLIC "-//W3C//DTD SVG 1.1//EN" "http://www.w3.org/Graphics/SVG/1.1/DTD/svg11.dtd">
<svg version="1.1" id="Layer_1" xmlns="http://www.w3.org/2000/svg" xmlns:xlink="http://www.w3.org/1999/xlink" x="0px" y="0px" width="16px" height="16px" viewBox="0 0 16 16" enable-background="new 0 0 16 16" xml:space="preserve">
  <g id="icon">
    <path d="M14.694,1.5H1.353C0.902,1.5,0.5,1.801,0.5,2.252v11.334c0,0.451,0.402,0.914,0.853,0.914H4.1v-0.462c0,-0.175,0.081,-0.238,-0.093,-0.238h-0.051c-0.175,0,-0.455,-0.219,-0.455,-0.394v-1.635c0,-0.175,0.281,-0.272,0.455,-0.272h2.263c0.175,0,0.282,0.097,0.282,0.272v1.635c0,0.175,-0.107,0.394,-0.282,0.394h-0.051c-0.175,0,-0.267,0.064,-0.267,0.238V14.5h4.1v-0.462c0,-0.175,0.054,-0.238,-0.12,-0.238h-0.051c-0.175,0,-0.328,-0.219,-0.328,-0.394v-1.635c0,-0.175,0.154,-0.272,0.328,-0.272h2.363c0.175,0,0.309,0.097,0.309,0.272v1.635c0,0.175,-0.135,0.394,-0.309,0.394h-0.051c-0.175,0,-0.24,0.064,-0.24,0.238V14.5h2.794c0.451,0,0.806,-0.463,0.806,-0.914V2.252C15.5,1.801,15.144,1.5,14.694,1.5z" fill="#FFFFFF" stroke="#797979" stroke-width="1" stroke-linecap="round" stroke-miterlimit="1" stroke-linejoin="round"/>
    <path d="M8.967,8.654c-0.174,-0.875,-0.483,-0.889,-2.175,-1.485c-0.247,-0.092,-0.317,-0.225,-0.298,-0.415c0.477,-0.568,0.765,-1.488,0.765,-2.131c0,-0.996,-0.341,-1.626,-1.737,-1.626c-0.006,0,0.002,0,0,0c-1.396,0,-1.709,0.631,-1.709,1.626c0,0.643,0.286,1.561,0.764,2.129c0.018,0.19,-0.052,0.324,-0.299,0.416c-1.692,0.595,-2.001,0.61,-2.175,1.485c-0.052,0.352,-0.061,0.499,0.078,0.889c0.157,0.439,2.372,0.381,3.341,0.381c0.004,0,-0.007,0,0,0c0.97,0,3.211,0.058,3.367,-0.381C9.028,9.153,9.019,9.006,8.967,8.654z" fill-rule="evenodd" fill="#3E79B4"/>
    <line x1="10.5" y1="4.5" x2="13.5" y2="4.5" fill="none" stroke="#B4B4B5" stroke-width="1" stroke-linecap="round" stroke-miterlimit="1"/>
    <line x1="10.5" y1="6.5" x2="13.5" y2="6.5" fill="none" stroke="#B4B4B5" stroke-width="1" stroke-linecap="round" stroke-miterlimit="1"/>
    <line x1="10.5" y1="8.5" x2="13.5" y2="8.5" fill="none" stroke="#B4B4B5" stroke-width="1" stroke-linecap="round" stroke-miterlimit="1"/>
  </g>
</svg>
