<?xml version="1.0" encoding="UTF-8"?>
<!DOCTYPE svg PUBLIC "-//W3C//DTD SVG 1.1//EN" "http://www.w3.org/Graphics/SVG/1.1/DTD/svg11.dtd">
<svg version="1.1" id="Layer_1" xmlns="http://www.w3.org/2000/svg" xmlns:xlink="http://www.w3.org/1999/xlink" x="0px" y="0px" width="32px" height="32px" viewBox="0 0 32 32" enable-background="new 0 0 32 32" xml:space="preserve">
  <g id="icon">
    <path d="M29.003,4.5H3.174C2.301,4.5,1.5,5.082,1.5,5.955V25.77c0,0.873,0.801,1.73,1.674,1.73H8.5v-0.854c0,-0.338,0.15,-0.446,-0.188,-0.446h-0.099c-0.338,0,-0.713,-0.44,-0.713,-0.777V24c0,-0.338,0.375,-0.5,0.713,-0.5h4.768c0.338,0,0.519,0.162,0.519,0.5v1.422c0,0.338,-0.181,0.777,-0.519,0.777h-0.099c-0.338,0,-0.382,0.108,-0.382,0.446V27.5h7v-0.854c0,-0.338,0.133,-0.446,-0.205,-0.446h-0.099c-0.338,0,-0.696,-0.44,-0.696,-0.777V24c0,-0.338,0.358,-0.5,0.696,-0.5h4.768c0.338,0,0.536,0.162,0.536,0.5v1.422c0,0.338,-0.198,0.777,-0.536,0.777h-0.099c-0.338,0,-0.365,0.108,-0.365,0.446V27.5h5.503c0.873,0,1.497,-0.857,1.497,-1.73V5.955C30.5,5.082,29.876,4.5,29.003,4.5z" fill="#FFFFFF" stroke="#797979" stroke-width="1" stroke-linecap="round" stroke-miterlimit="1" stroke-linejoin="round"/>
    <path d="M17.912,18.438c-0.351,-1.767,-0.976,-1.796,-4.393,-2.999c-0.499,-0.187,-0.64,-0.455,-0.602,-0.839c0.964,-1.148,1.545,-3.006,1.545,-4.304c0,-2.011,-0.689,-3.285,-3.509,-3.285c-0.012,0,0.004,0,0,0C8.132,7.012,7.5,8.285,7.5,10.296c0,1.298,0.578,3.152,1.542,4.3c0.037,0.383,-0.105,0.654,-0.604,0.841c-3.417,1.203,-4.042,1.233,-4.394,3c-0.106,0.71,-0.123,1.008,0.158,1.795c0.317,0.886,4.791,0.77,6.749,0.77c0.008,0,-0.013,0,0,0c1.958,0,6.485,0.116,6.802,-0.769C18.035,19.446,18.018,19.148,17.912,18.438z" fill-rule="evenodd" fill="#3E79B4"/>
    <line x1="20.5" y1="9.5" x2="27.5" y2="9.5" fill="none" stroke="#B4B4B5" stroke-width="1" stroke-linecap="round" stroke-miterlimit="1"/>
    <line x1="20.5" y1="11.5" x2="27.5" y2="11.5" fill="none" stroke="#B4B4B5" stroke-width="1" stroke-linecap="round" stroke-miterlimit="1"/>
    <line x1="20.5" y1="13.5" x2="27.5" y2="13.5" fill="none" stroke="#B4B4B5" stroke-width="1" stroke-linecap="round" stroke-miterlimit="1"/>
    <line x1="20.5" y1="15.5" x2="27.5" y2="15.5" fill="none" stroke="#B4B4B5" stroke-width="1" stroke-linecap="round" stroke-miterlimit="1"/>
    <line x1="20.5" y1="17.5" x2="27.5" y2="17.5" fill="none" stroke="#B4B4B5" stroke-width="1" stroke-linecap="round" stroke-miterlimit="1"/>
  </g>
</svg>
