<?xml version="1.0" encoding="UTF-8"?>
<!DOCTYPE svg PUBLIC "-//W3C//DTD SVG 1.1//EN" "http://www.w3.org/Graphics/SVG/1.1/DTD/svg11.dtd">
<svg version="1.1" id="Layer_1" xmlns="http://www.w3.org/2000/svg" xmlns:xlink="http://www.w3.org/1999/xlink" x="0px" y="0px" width="32px" height="32px" viewBox="0 0 32 32" enable-background="new 0 0 32 32" xml:space="preserve">
  <g id="icon">
    <g>
      <path d="M30.1,8.8c-1.4835,-1.4835,-6.601,-6.601,-6.9002,-6.9002C22.8496,1.5496,22.5375,1.5,22.3,1.5S8.4,1.5,8.4,1.5c-0.6351,0,-0.9,0.2594,-0.9,0.9v5.8748c0.1584,-0.0435,0.3196,-0.0715,0.4806,-0.0849c0.2717,-0.0225,1.222,-0.0372,2.0429,0.7166c0.7343,0.6742,1.1374,1.6923,1.1982,3.0258c0.0612,1.3634,-0.0801,2.7933,-0.4093,4.1609c0.3032,0.4517,0.9137,1.2474,2.1555,2.3875c0.6549,-0.1454,1.7339,-0.3554,2.6759,-0.4334c2.6375,-0.2182,4.4687,0.7859,4.6651,2.5581l0.0024,0.0253c0.0888,1.0728,-0.3573,1.9244,-1.2561,2.3979c-0.6312,0.3326,-1.3155,0.3892,-1.6831,0.4196c-1.2477,0.1032,-3.3285,-0.3804,-5.1257,-1.6632c-0.868,0.2433,-2.4629,0.7176,-3.7626,1.3173c-0.2387,0.5321,-0.5697,1.2071,-0.9838,1.9051V29.6c0,0.6406,0.2649,0.9,0.9,0.9h21.2c0.6351,0,0.9,-0.2594,0.9,-0.9c0,0,0,-19.4875,0,-19.8C30.5,9.35,30.3527,9.0527,30.1,8.8z" fill-rule="evenodd" fill="#FFFFFF"/>
      <path d="M30.4535,8.4464l-6.9001,-6.9002C23.1858,1.1787,22.7758,1,22.3,1H8.4c-0.9159,0,-1.4,0.4841,-1.4,1.4v6.0733c0.309,-0.1644,0.6452,-0.2556,0.9806,-0.2833c0.0056,-0.0005,0.0132,-0.0008,0.0194,-0.0013V2.4c0,-0.3626,0.0374,-0.4,0.4,-0.4h13.6v6.7c0,0.7168,0.5832,1.3,1.3,1.3h6.7v19.6c0,0.3626,-0.0374,0.4,-0.4,0.4H8.4c-0.3626,0,-0.4,-0.0374,-0.4,-0.4v-5.495c-0.2766,0.5343,-0.6117,1.1189,-1,1.6894V29.6c0,0.9159,0.4841,1.4,1.4,1.4h21.2c0.9159,0,1.4,-0.4841,1.4,-1.4V9.8C31,9.2494,30.8264,8.8192,30.4535,8.4464zM23.3,9c-0.1654,0,-0.3,-0.1346,-0.3,-0.3V2.4071L29.5929,9H23.3z" fill="#6D6E71"/>
    </g>
    <g>
      <path d="M12.2464,21.785c-0.2092,0.0586,-0.4613,0.131,-0.7406,0.215h1.0568C12.4564,21.9308,12.3508,21.8596,12.2464,21.785z" fill="#B4B4B5"/>
      <path d="M10.5,6h9c0.2761,0,0.5,-0.2239,0.5,-0.5s-0.2239,-0.5,-0.5,-0.5h-9c-0.2761,0,-0.5,0.2239,-0.5,0.5S10.2239,6,10.5,6z" fill="#B4B4B5"/>
      <path d="M19.5,9h-9c-0.1086,0,-0.2084,0.0355,-0.2904,0.0944c0.2389,0.2598,0.437,0.5617,0.5923,0.9056H19.5c0.2761,0,0.5,-0.2239,0.5,-0.5S19.7761,9,19.5,9z" fill="#B4B4B5"/>
      <path d="M11.1644,14H27.5c0.2761,0,0.5,-0.2239,0.5,-0.5s-0.2239,-0.5,-0.5,-0.5H11.2283C11.2182,13.332,11.197,13.6659,11.1644,14z" fill="#B4B4B5"/>
      <path d="M10.5,8h9c0.2761,0,0.5,-0.2239,0.5,-0.5s-0.2239,-0.5,-0.5,-0.5h-9c-0.2761,0,-0.5,0.2239,-0.5,0.5S10.2239,8,10.5,8z" fill="#B4B4B5"/>
      <path d="M20,11.5c0,-0.2761,-0.2239,-0.5,-0.5,-0.5h-8.3864c0.0569,0.2912,0.0931,0.602,0.1082,0.9324c0.001,0.0224,0.0009,0.0452,0.0018,0.0676H19.5C19.7761,12,20,11.7761,20,11.5z" fill="#B4B4B5"/>
      <path d="M27.5,15H11.0326c-0.0552,0.3357,-0.1221,0.6694,-0.1994,1H27.5c0.2761,0,0.5,-0.2239,0.5,-0.5S27.7761,15,27.5,15z" fill="#B4B4B5"/>
      <path d="M27.5,21h-7.1801c-0.013,0.3671,-0.0949,0.7025,-0.2405,1H27.5c0.2761,0,0.5,-0.2239,0.5,-0.5S27.7761,21,27.5,21z" fill="#B4B4B5"/>
      <path d="M27.5,19h-8.0142c0.31,0.2805,0.5415,0.6158,0.6819,1H27.5c0.2761,0,0.5,-0.2239,0.5,-0.5S27.7761,19,27.5,19z" fill="#B4B4B5"/>
      <path d="M27.5,17H11.5135c0.2482,0.2874,0.559,0.6209,0.947,1H27.5c0.2761,0,0.5,-0.2239,0.5,-0.5S27.7761,17,27.5,17z" fill="#B4B4B5"/>
      <path d="M27.5,27H10.5c-0.2761,0,-0.5,0.2239,-0.5,0.5s0.2239,0.5,0.5,0.5h17c0.2761,0,0.5,-0.2239,0.5,-0.5S27.7761,27,27.5,27z" fill="#B4B4B5"/>
      <path d="M27.5,23h-8.3947c-0.0169,0.0094,-0.0329,0.0195,-0.0501,0.0286c-0.6312,0.3326,-1.3155,0.3892,-1.6831,0.4196c-0.719,0.0595,-1.715,-0.0773,-2.7736,-0.4482H10.5c-0.2761,0,-0.5,0.2239,-0.5,0.5s0.2239,0.5,0.5,0.5h17c0.2761,0,0.5,-0.2239,0.5,-0.5S27.7761,23,27.5,23z" fill="#B4B4B5"/>
      <path d="M27.5,25H10.5c-0.2761,0,-0.5,0.2239,-0.5,0.5s0.2239,0.5,0.5,0.5h17c0.2761,0,0.5,-0.2239,0.5,-0.5S27.7761,25,27.5,25z" fill="#B4B4B5"/>
    </g>
    <path d="M2.8836,27.8935c-1.0866,0.0899,-1.8087,-0.4226,-1.8844,-1.3375c-0.0535,-0.6464,0.3064,-2.3782,4.7793,-4.5136c0.304,-0.7002,1.2894,-3.083,2.1566,-6.4257c-0.1638,-0.2772,-1.208,-2.1075,-1.3628,-3.9777c-0.1791,-2.1643,0.9779,-2.4953,1.4836,-2.5371c0.178,-0.0147,0.8014,-0.0238,1.3485,0.4786c0.5499,0.5049,0.8537,1.3102,0.9031,2.3936c0.0629,1.4022,-0.1028,2.8795,-0.4793,4.2752l0.0015,0.0025c0.2182,0.3616,0.8796,1.4576,2.8815,3.2297c0.4627,-0.1195,1.8752,-0.4284,3.0079,-0.5221c1.5938,-0.1319,3.5139,0.2465,3.6801,1.7469c0.1361,1.6448,-1.4904,1.7794,-2.1027,1.8301c-0.9741,0.0806,-3.0654,-0.3212,-4.8594,-1.7533l-0.0344,0.0094c-0.7361,0.2014,-2.9672,0.8117,-4.6207,1.6311C7.2375,23.6977,5.3383,27.6904,2.8836,27.8935zM4.9433,23.7988c-2.6262,1.4974,-2.7725,2.5146,-2.7775,2.5586l-0.0007,0.0057l-0.0013,0.0055c-0.0287,0.1175,-0.0095,0.1476,-0.0093,0.1479c0.1311,0.1379,0.2141,0.1535,0.3102,0.1716c0.0179,0.0034,0.0357,0.0067,0.0534,0.0106c0.2569,-0.0297,0.6177,-0.3051,1.0183,-0.7779C4.134,25.2153,4.6359,24.3676,4.9433,23.7988zM13.9823,20.3845c1.0286,0.5522,2.0927,0.868,2.7631,0.8125c0.4607,-0.0381,0.6886,-0.2468,0.6591,-0.6034c-0.0135,-0.1627,-0.3464,-0.5603,-1.7071,-0.4477c-0.6755,0.0559,-1.2356,0.1543,-1.6855,0.2334C14.0019,20.3811,13.992,20.3828,13.9823,20.3845zM9.4384,17.7872c-0.2274,0.8966,-0.597,2.1332,-0.954,3.0332c0.4578,-0.1794,1.4498,-0.5512,2.8469,-0.9813C10.8671,19.4109,10.0723,18.6572,9.4384,17.7872zM7.8395,10.4287c-0.245,0.5631,0.0443,2.0699,0.4772,3.2868c0.2371,-1.3287,0.3556,-2.8946,-0.027,-3.3604c-0.0704,-0.0581,-0.1296,-0.0771,-0.2157,-0.07C7.9923,10.2919,7.938,10.3146,7.8395,10.4287z" fill="#CD4C32"/>
  </g>
</svg>
