<?xml version="1.0" encoding="utf-8"?>
<!-- Generator: Adobe Illustrator 19.0.0, SVG Export Plug-In . SVG Version: 6.00 Build 0)  -->
<svg version="1.1" id="Layer_1" xmlns="http://www.w3.org/2000/svg" xmlns:xlink="http://www.w3.org/1999/xlink" x="0px" y="0px"
	 viewBox="-289 412.9 16 16" style="enable-background:new -289 412.9 16 16;" xml:space="preserve">
<style type="text/css">
	.st0{fill:#FFFFFF;stroke:#6D6E71;stroke-miterlimit:1;}
	.st1{fill:#6D6E71;}
	.st2{fill:#E57F54;}
	.st3{fill:#F9A24C;}
</style>
<g id="icon">
	<path class="st0" d="M-276.1,428.4h-10.8c-0.3,0-0.6-0.3-0.6-0.6V414c0-0.3,0.3-0.6,0.6-0.6c0,0,6.5,0,7,0s0.7,0.1,0.9,0.3
		c0.2,0.2,2.7,2.7,3,3c0.3,0.3,0.4,0.6,0.4,1c0,0.5,0,10,0,10C-275.5,428.1-275.8,428.4-276.1,428.4z"/>
	<path class="st1" d="M-275.8,417.9h-3.2c-0.1,0-0.1,0-0.2,0c-0.4-0.1-0.8-0.5-0.8-1v-3h1v3c0,0,0,0,0,0h3.2V417.9z"/>
	<path class="st2" d="M-281.5,417.7c0.2,0,0.4,0.1,0.5,0.1c-1.2,3.5-1.2,3.8-1.2,3.8s-0.2,0-3.9-0.3c0-0.2,0-0.3,0.1-0.5
		C-285.7,418.7-283.6,417.3-281.5,417.7z"/>
	<path class="st3" d="M-278.3,425.4c0.7-0.9,1-2,0.8-3.2c-0.3-1.4-1.2-2.6-2.5-3c-0.5,1.7-1.2,3.8-1.2,3.8s-1.6-0.1-3.9-0.3
		c0,1,0.4,2.1,1.1,2.9c1.5,1.6,4,1.6,5.5,0C-278.4,425.5-278.4,425.4-278.3,425.4z"/>
</g>
</svg>
