<?xml version="1.0" encoding="UTF-8"?>
<!DOCTYPE svg PUBLIC "-//W3C//DTD SVG 1.1//EN" "http://www.w3.org/Graphics/SVG/1.1/DTD/svg11.dtd">
<svg version="1.1" id="Layer_1" xmlns="http://www.w3.org/2000/svg" xmlns:xlink="http://www.w3.org/1999/xlink" x="0px" y="0px" width="16px" height="16px" viewBox="0 0 16 16" enable-background="new 0 0 16 16" xml:space="preserve">
  <g id="icon">
    <path d="M13.9,15.5H3.1c-0.3314,0,-0.6,-0.2686,-0.6,-0.6V1.1c0,-0.3314,0.2686,-0.6,0.6,-0.6c0,0,6.55,0,7.0167,0s0.7328,0.1495,0.9248,0.3414s2.717,2.717,3.0336,3.0336c0.3166,0.3166,0.425,0.575,0.425,1.0416S14.5,14.9,14.5,14.9C14.5,15.2314,14.2314,15.5,13.9,15.5z" fill-rule="evenodd" fill="#FFFFFF"/>
    <path d="M14.4286,3.5215L11.395,0.4878C11.0667,0.1596,10.6485,0,10.1167,0H3.1c-0.6065,0,-1.1,0.4935,-1.1,1.1v13.8c0,0.6065,0.4935,1.1,1.1,1.1h10.8c0.6065,0,1.1,-0.4935,1.1,-1.1V4.9167C15,4.3239,14.8398,3.9327,14.4286,3.5215zM11,1.5071L13.4929,4h-2.4475c-0.0157,-0.0091,-0.0337,-0.0232,-0.0454,-0.0354V1.5071zM13.9,15H3.1c-0.0551,0,-0.1,-0.0449,-0.1,-0.1V1.1c0,-0.0551,0.0449,-0.1,0.1,-0.1h6.9v3c0,0.473,0.399,0.8674,0.7976,0.9725c0.0513,0.0178,0.1065,0.0275,0.1639,0.0275H14v9.9C14,14.9551,13.9551,15,13.9,15z" fill="#6D6E71"/>
    <path d="M8.5,4H4.5c-0.2761,0,-0.5,-0.2239,-0.5,-0.5s0.2239,-0.5,0.5,-0.5h4c0.2761,0,0.5,0.2239,0.5,0.5S8.7761,4,8.5,4zM9,5.5c0,-0.2761,-0.2239,-0.5,-0.5,-0.5H4.5c-0.2761,0,-0.5,0.2239,-0.5,0.5s0.2239,0.5,0.5,0.5h4C8.7761,6,9,5.7761,9,5.5zM13,7.5c0,-0.2761,-0.2239,-0.5,-0.5,-0.5H4.5c-0.2761,0,-0.5,0.2239,-0.5,0.5s0.2239,0.5,0.5,0.5h8C12.7761,8,13,7.7761,13,7.5zM13,9.5c0,-0.2761,-0.2239,-0.5,-0.5,-0.5h-2c-0.2761,0,-0.5,0.2239,-0.5,0.5s0.2239,0.5,0.5,0.5h2C12.7761,10,13,9.7761,13,9.5zM13,11.5c0,-0.2761,-0.2239,-0.5,-0.5,-0.5h-2c-0.2761,0,-0.5,0.2239,-0.5,0.5s0.2239,0.5,0.5,0.5h2C12.7761,12,13,11.7761,13,11.5zM13,13.5c0,-0.2761,-0.2239,-0.5,-0.5,-0.5h-2c-0.2761,0,-0.5,0.2239,-0.5,0.5s0.2239,0.5,0.5,0.5h2C12.7761,14,13,13.7761,13,13.5z" fill="#B4B4B5"/>
    <path d="M8.7083,9H4.2917C4.1306,9,4,9.1306,4,9.2917v4.4167c0,0.1611,0.1306,0.2917,0.2917,0.2917h4.4167c0.1611,0,0.2917,-0.1306,0.2917,-0.2917V9.2917C9,9.1306,8.8694,9,8.7083,9z" fill="#C2D3E6"/>
    <path d="M15.0833,7H7.9167C7.4104,7,7,7.4104,7,7.9167v7.1667c0,0.5063,0.4104,0.9167,0.9167,0.9167h7.1667c0.5063,0,0.9167,-0.4104,0.9167,-0.9167V7.9167C16,7.4104,15.5896,7,15.0833,7zM14.9948,8.6124l-1.4523,5.9818c-0.0181,0.0744,-0.0802,0.1263,-0.1513,0.1263h-0.7466c-0.0707,0,-0.1326,-0.0514,-0.151,-0.1253l-0.9903,-3.9789l-0.9998,3.9793c-0.0185,0.0737,-0.0804,0.1249,-0.1509,0.1249h-0.7418c-0.071,0,-0.1332,-0.0518,-0.1513,-0.1262L8.0052,8.6124C7.9791,8.5051,8.0539,8.4,8.1565,8.4h0.6479c0.1032,0,0.1949,0.0399,0.2652,0.1155c0.0644,0.0693,0.1076,0.1609,0.1285,0.2724l0.8629,3.546l0.917,-3.5835c0.024,-0.0894,0.0714,-0.1687,0.1412,-0.2375c0.076,-0.0749,0.1677,-0.1129,0.2725,-0.1129h0.2631c0.1071,0,0.1986,0.0337,0.2719,0.1001c0.0704,0.0637,0.1192,0.1494,0.1453,0.2546l0.9167,3.5954l0.7984,-3.5909c0.0202,-0.0964,0.0669,-0.181,0.1382,-0.2499c0.0751,-0.0725,0.1665,-0.1093,0.2717,-0.1093h0.6465C14.946,8.4,15.0208,8.505,14.9948,8.6124z" fill="#3E79B4"/>
    <path d="M12.4936,14.5951l-0.9903,-3.9789l-0.9998,3.9793c-0.0185,0.0737,-0.0803,0.1249,-0.1509,0.1249h-0.7418c-0.071,0,-0.1332,-0.0518,-0.1512,-0.1262L8.0052,8.6124C7.9791,8.5051,8.0539,8.4,8.1565,8.4h0.6479c0.1032,0,0.1949,0.0399,0.2652,0.1155c0.0644,0.0693,0.1076,0.1609,0.1285,0.2724l0.8629,3.546l0.917,-3.5835c0.024,-0.0894,0.0714,-0.1687,0.1412,-0.2375c0.076,-0.0749,0.1677,-0.1129,0.2725,-0.1129h0.2631c0.1071,0,0.1986,0.0337,0.2719,0.1001c0.0704,0.0637,0.1192,0.1494,0.1453,0.2546l0.9167,3.5954l0.7984,-3.5909c0.0202,-0.0964,0.0669,-0.181,0.1382,-0.2499c0.0751,-0.0725,0.1665,-0.1093,0.2717,-0.1093h0.6465c0.1025,0,0.1773,0.105,0.1513,0.2124l-1.4523,5.9817c-0.0181,0.0744,-0.0802,0.1263,-0.1513,0.1263h-0.7466C12.5739,14.7204,12.512,14.6691,12.4936,14.5951z" fill="#FFFFFF"/>
  </g>
</svg>
