<?xml version="1.0" encoding="utf-8"?>
<!-- Generator: Adobe Illustrator 19.0.0, SVG Export Plug-In . SVG Version: 6.00 Build 0)  -->
<svg version="1.1" id="Layer_1" xmlns="http://www.w3.org/2000/svg" xmlns:xlink="http://www.w3.org/1999/xlink" x="0px" y="0px"
	 viewBox="-281 404.9 32 32" style="enable-background:new -281 404.9 32 32;" xml:space="preserve">
<style type="text/css">
	.st0{fill:#FFFFFF;}
	.st1{fill:#6D6E71;}
	.st2{fill:#4EA17E;}
	.st3{opacity:0.5;fill:#59C1A7;enable-background:new    ;}
</style>
<g id="icon">
	<path class="st0" d="M-253.9,412.7c-1.5-1.5-5.6-5.6-5.9-5.9c-0.4-0.4-0.7-0.4-0.9-0.4c-0.2,0-14.9,0-14.9,0
		c-0.6,0-0.9,0.3-0.9,0.9v12.6v13v1.6c0,0.6,0.3,0.9,0.9,0.9h21.2c0.6,0,0.9-0.3,0.9-0.9c0,0,0-20.5,0-20.8
		C-253.5,413.2-253.6,412.9-253.9,412.7z"/>
	<path class="st1" d="M-253.5,412.3l-5.9-5.9c-0.4-0.4-0.8-0.5-1.3-0.5h-14.9c-0.9,0-1.4,0.5-1.4,1.4v27.2c0,0.9,0.5,1.4,1.4,1.4
		h21.2c0.9,0,1.4-0.5,1.4-1.4v-20.8C-253,413.1-253.2,412.7-253.5,412.3z M-260,407.3l5.6,5.6h-5.3c-0.2,0-0.3-0.1-0.3-0.3V407.3z
		 M-254,434.5c0,0.4,0,0.4-0.4,0.4h-21.2c-0.4,0-0.4,0-0.4-0.4v-27.2c0-0.4,0-0.4,0.4-0.4h14.6v5.7c0,0.7,0.6,1.3,1.3,1.3h5.7V434.5
		z"/>
	<path class="st2" d="M-261.5,415.9h-1.5h-11v0.7v0.3v8v0.5v6.5h18v-16H-261.5z M-257,430.9h-16v-5.5v-0.5v-8h10h1.5h4.5V430.9z"/>
	<path class="st3" d="M-257,419.9v-1h-5v-2h-1v2h-5v-2h-1v2h-4v1h4v2h-4v1h4v2h-4v1h4v2h-4v1h4v2h1v-2h5v2h1v-2h5v-1h-5v-2h5v-1h-5
		v-2h5v-1h-5v-2H-257z M-268,419.9h5v2h-5V419.9z M-263,427.9h-5v-2h5V427.9z M-263,424.9h-5v-2h5V424.9z"/>
</g>
</svg>
