<?xml version="1.0" encoding="UTF-8"?>
<!DOCTYPE svg PUBLIC "-//W3C//DTD SVG 1.1//EN" "http://www.w3.org/Graphics/SVG/1.1/DTD/svg11.dtd">
<svg version="1.1" id="Layer_1" xmlns="http://www.w3.org/2000/svg" xmlns:xlink="http://www.w3.org/1999/xlink" x="0px" y="0px" width="16px" height="16px" viewBox="0 0 16 16" enable-background="new 0 0 16 16" xml:space="preserve">
  <g id="icon">
    <path d="M15.075,3.875c-0.3166,-0.3166,-2.8417,-2.8417,-3.0336,-3.0336S11.5833,0.5,11.1167,0.5S4.1,0.5,4.1,0.5c-0.3314,0,-0.6,0.2686,-0.6,0.6v0.6732c0.2765,-0.1521,0.5809,-0.2405,0.8899,-0.2661C4.4475,1.5023,4.5063,1.5,4.5654,1.5c0.3431,0,1.007,0.0812,1.5993,0.6251c0.5861,0.5382,0.9063,1.3166,0.9519,2.3135c0.0346,0.7715,-0.031,1.5786,-0.1904,2.3604c0.1914,0.2452,0.4378,0.515,0.7313,0.8007c0.3681,-0.0727,0.8567,-0.1561,1.318,-0.1943c0.1518,-0.0126,0.3054,-0.0189,0.4563,-0.0189c2.12,0,3.0009,1.1337,3.1185,2.1948l0.0027,0.0274c0.0782,0.9423,-0.3362,1.7247,-1.137,2.1465c-0.509,0.2681,-1.0339,0.3116,-1.2862,0.3324c-0.0811,0.0067,-0.1679,0.0102,-0.2575,0.0102c-0.7633,0,-1.9077,-0.2524,-2.994,-0.9375c-0.6196,0.1829,-1.1489,0.3668,-1.5813,0.5496c-0.3931,0.8288,-0.994,1.8658,-1.797,2.6125V14.9c0,0.3314,0.2686,0.6,0.6,0.6h10.8c0.3314,0,0.6,-0.2686,0.6,-0.6c0,0,0,-9.5167,0,-9.9833S15.3917,4.1917,15.075,3.875z" fill-rule="evenodd" fill="#FFFFFF"/>
    <path d="M15.4286,3.5215L12.395,0.4878C12.0667,0.1596,11.6485,0,11.1167,0H4.1c-0.6065,0,-1.1,0.4935,-1.1,1.1v1.0551c0.2822,-0.2914,0.63,-0.4839,1,-0.5809V1.1c0,-0.0551,0.0449,-0.1,0.1,-0.1h6.9v3c0,0.473,0.399,0.8674,0.7976,0.9725c0.0513,0.0178,0.1065,0.0275,0.1639,0.0275H15v9.9c0,0.0551,-0.0449,0.1,-0.1,0.1H4.1c-0.0551,0,-0.1,-0.0449,-0.1,-0.1v-1.1067c-0.298,0.355,-0.6315,0.678,-1,0.9335V14.9c0,0.6065,0.4935,1.1,1.1,1.1h10.8c0.6065,0,1.1,-0.4935,1.1,-1.1V4.9167C16,4.3239,15.8398,3.9327,15.4286,3.5215zM12.0454,4c-0.0157,-0.0091,-0.0337,-0.0232,-0.0454,-0.0354V1.5071L14.4929,4H12.0454z" fill="#6D6E71"/>
    <path d="M7.0544,6c0.0402,-0.3341,0.0639,-0.6688,0.0695,-1H9.5c0.2761,0,0.5,0.2239,0.5,0.5s-0.2239,0.5,-0.5,0.5H7.0544zM7.6574,7.5997c0.3681,-0.0727,0.8567,-0.1561,1.318,-0.1943c0.1518,-0.0126,0.3054,-0.0189,0.4563,-0.0189c0.9851,0,1.7023,0.245,2.2,0.6135H13.5c0.2761,0,0.5,-0.2239,0.5,-0.5s-0.2239,-0.5,-0.5,-0.5H7.091C7.2525,7.1891,7.442,7.39,7.6574,7.5997zM8.9666,12c-0.6387,-0.1279,-1.3756,-0.3902,-2.0883,-0.8396c-0.6196,0.1829,-1.1489,0.3668,-1.5813,0.5496c-0.0296,0.0625,-0.0609,0.1265,-0.0929,0.1912C5.2872,11.9625,5.3888,12,5.5,12H8.9666zM13.5,11h-1.2573c-0.1938,0.3107,-0.4723,0.5684,-0.8268,0.7552c-0.2309,0.1216,-0.4649,0.1967,-0.6754,0.2448H13.5c0.2761,0,0.5,-0.2239,0.5,-0.5S13.7761,11,13.5,11zM13.5,9h-1.0938c0.0753,0.1913,0.1226,0.3875,0.144,0.5813l0.0027,0.0274c0.0111,0.134,0.0112,0.2643,0.0027,0.3913H13.5c0.2761,0,0.5,-0.2239,0.5,-0.5S13.7761,9,13.5,9zM13.5,13H5.5c-0.2761,0,-0.5,0.2239,-0.5,0.5s0.2239,0.5,0.5,0.5h8c0.2761,0,0.5,-0.2239,0.5,-0.5S13.7761,13,13.5,13zM7.076,4H9.5c0.2761,0,0.5,-0.2239,0.5,-0.5s-0.2239,-0.5,-0.5,-0.5H6.7949C6.9312,3.2975,7.025,3.6314,7.076,4z" fill="#B4B4B5"/>
    <path d="M1.2567,14.3036c-0.7111,0,-1.2051,-0.4157,-1.2583,-1.059c-0.045,-0.5442,0.2779,-1.6428,2.9218,-2.9268c0.2045,-0.4816,0.7331,-1.8002,1.2079,-3.6023c-0.199,-0.3562,-0.7089,-1.3567,-0.795,-2.3966c-0.1312,-1.586,0.839,-1.7904,1.1394,-1.8152C4.4952,2.5018,4.5267,2.5,4.5654,2.5c0.1977,0,0.5803,0.047,0.923,0.3617c0.3845,0.3532,0.5962,0.899,0.6292,1.6225c0.0371,0.8281,-0.0546,1.699,-0.2656,2.5267c0.1671,0.265,0.5622,0.8271,1.5043,1.6761c0.3521,-0.0826,1.0788,-0.2334,1.7017,-0.285c0.1245,-0.0103,0.2503,-0.0155,0.3739,-0.0155c1.2398,0,2.034,0.4878,2.1246,1.3049c0.0449,0.5414,-0.165,0.9466,-0.6065,1.1791c-0.3286,0.1731,-0.7021,0.204,-0.9027,0.2206c-0.0545,0.0045,-0.1134,0.0068,-0.1749,0.0068c-0.6806,0,-1.8111,-0.2714,-2.8154,-1.0283c-0.4999,0.1378,-1.632,0.4615,-2.5133,0.8826c-0.4537,1.0357,-1.5867,3.2175,-3.1206,3.3444C1.3668,14.3013,1.3108,14.3036,1.2567,14.3036zM1.5381,12.7132c-0.0229,0.0241,-0.044,0.0472,-0.0636,0.0695C1.4949,12.7613,1.5161,12.7382,1.5381,12.7132zM9.0843,9.6612c0.1938,0.0535,0.3704,0.0825,0.5151,0.0825c0.0251,0,0.0493,-0.0009,0.0724,-0.0028c0.0571,-0.0047,0.0931,-0.0142,0.1149,-0.0225c-0.0646,-0.0292,-0.1982,-0.0685,-0.4499,-0.0685c-0.0763,0,-0.1593,0.0037,-0.2468,0.0109C9.0882,9.6609,9.0863,9.6611,9.0843,9.6612zM5.4461,8.5699c-0.0689,0.2401,-0.1486,0.5009,-0.2334,0.7543c0.2016,-0.0719,0.4411,-0.1543,0.715,-0.2434C5.7737,8.9288,5.6083,8.7566,5.4461,8.5699z" fill="#CD4C32"/>
  </g>
</svg>
