<?xml version="1.0" encoding="UTF-8"?>
<!DOCTYPE svg PUBLIC "-//W3C//DTD SVG 1.1//EN" "http://www.w3.org/Graphics/SVG/1.1/DTD/svg11.dtd">
<svg version="1.1" id="Layer_1" xmlns="http://www.w3.org/2000/svg" xmlns:xlink="http://www.w3.org/1999/xlink" x="0px" y="0px" width="32px" height="32px" viewBox="0 0 32 32" enable-background="new 0 0 32 32" xml:space="preserve">
  <g id="icon">
    <g>
      <path d="M26.6,30.5H5.4c-0.6351,0,-0.9,-0.2594,-0.9,-0.9V2.4c0,-0.6407,0.2649,-0.9,0.9,-0.9c0,0,13.6626,0,13.9,0c0.2375,0,0.5495,0.0496,0.8997,0.3998C20.499,2.199,25.6164,7.3164,27.1,8.8c0.2527,0.2527,0.4,0.55,0.4,1c0,0.3125,0,19.8,0,19.8C27.5,30.2406,27.2351,30.5,26.6,30.5z" fill-rule="evenodd" fill="#FFFFFF"/>
      <path d="M27.4535,8.4464l-6.9001,-6.9002C20.1858,1.1787,19.7758,1,19.3,1H5.4c-0.9159,0,-1.4,0.4841,-1.4,1.4v27.2c0,0.9159,0.4841,1.4,1.4,1.4h21.2c0.9159,0,1.4,-0.4841,1.4,-1.4V9.8C28,9.2494,27.8264,8.8192,27.4535,8.4464zM20,2.4071L26.5929,9H20.3c-0.1654,0,-0.3,-0.1346,-0.3,-0.3V2.4071zM26.6,30H5.4c-0.3626,0,-0.4,-0.0374,-0.4,-0.4V2.4c0,-0.3626,0.0374,-0.4,0.4,-0.4h13.6v6.7c0,0.7168,0.5832,1.3,1.3,1.3h6.7v19.6C27,29.9626,26.9626,30,26.6,30z" fill="#6D6E71"/>
    </g>
    <path d="M16.5,6H7.5c-0.2761,0,-0.5,-0.2239,-0.5,-0.5s0.2239,-0.5,0.5,-0.5h9c0.2761,0,0.5,0.2239,0.5,0.5S16.7761,6,16.5,6zM16.5,8H7.5c-0.2761,0,-0.5,-0.2239,-0.5,-0.5s0.2239,-0.5,0.5,-0.5h9c0.2761,0,0.5,0.2239,0.5,0.5S16.7761,8,16.5,8zM16.5,10H7.5c-0.2761,0,-0.5,-0.2239,-0.5,-0.5s0.2239,-0.5,0.5,-0.5h9c0.2761,0,0.5,0.2239,0.5,0.5S16.7761,10,16.5,10zM16.5,12H7.5c-0.2761,0,-0.5,-0.2239,-0.5,-0.5s0.2239,-0.5,0.5,-0.5h9c0.2761,0,0.5,0.2239,0.5,0.5S16.7761,12,16.5,12zM24.5,14H7.5c-0.2761,0,-0.5,-0.2239,-0.5,-0.5s0.2239,-0.5,0.5,-0.5h17c0.2761,0,0.5,0.2239,0.5,0.5S24.7761,14,24.5,14zM24.5,16H7.5c-0.2761,0,-0.5,-0.2239,-0.5,-0.5s0.2239,-0.5,0.5,-0.5h17c0.2761,0,0.5,0.2239,0.5,0.5S24.7761,16,24.5,16zM24.5,18H7.5c-0.2761,0,-0.5,-0.2239,-0.5,-0.5s0.2239,-0.5,0.5,-0.5h17c0.2761,0,0.5,0.2239,0.5,0.5S24.7761,18,24.5,18zM24.5,20h-5c-0.2761,0,-0.5,-0.2239,-0.5,-0.5s0.2239,-0.5,0.5,-0.5h5c0.2761,0,0.5,0.2239,0.5,0.5S24.7761,20,24.5,20zM24.5,22h-5c-0.2761,0,-0.5,-0.2239,-0.5,-0.5s0.2239,-0.5,0.5,-0.5h5c0.2761,0,0.5,0.2239,0.5,0.5S24.7761,22,24.5,22zM24.5,24h-5c-0.2761,0,-0.5,-0.2239,-0.5,-0.5s0.2239,-0.5,0.5,-0.5h5c0.2761,0,0.5,0.2239,0.5,0.5S24.7761,24,24.5,24zM24.5,26h-5c-0.2761,0,-0.5,-0.2239,-0.5,-0.5s0.2239,-0.5,0.5,-0.5h5c0.2761,0,0.5,0.2239,0.5,0.5S24.7761,26,24.5,26zM24.5,28h-5c-0.2761,0,-0.5,-0.2239,-0.5,-0.5s0.2239,-0.5,0.5,-0.5h5c0.2761,0,0.5,0.2239,0.5,0.5S24.7761,28,24.5,28z" fill="#B4B4B5"/>
    <path d="M17.5,19H7.5c-0.2761,0,-0.5,0.2239,-0.5,0.5v8c0,0.2761,0.2239,0.5,0.5,0.5h10c0.2761,0,0.5,-0.2239,0.5,-0.5v-8C18,19.2239,17.7761,19,17.5,19z" fill="#C2D3E6"/>
    <path d="M29.9167,17H18.0833C17.485,17,17,17.485,17,18.0833v11.8333c0,0.5983,0.485,1.0833,1.0833,1.0833h11.8333c0.5983,0,1.0833,-0.485,1.0833,-1.0833V18.0833C31,17.485,30.515,17,29.9167,17zM29.5917,19.3367l-2.3172,9.4835c-0.0288,0.118,-0.128,0.2002,-0.2413,0.2002h-1.1913c-0.1128,0,-0.2116,-0.0814,-0.2409,-0.1986l-1.58,-6.3082l-1.5952,6.3088c-0.0296,0.1169,-0.1282,0.198,-0.2408,0.198h-1.1836c-0.1134,0,-0.2125,-0.0822,-0.2413,-0.2001l-2.3203,-9.4835c-0.0417,-0.1702,0.0777,-0.3368,0.2413,-0.3368h1.0337c0.1646,0,0.3109,0.0633,0.4231,0.1831c0.1027,0.1098,0.1717,0.2551,0.2051,0.4319l1.3768,5.6218l1.4631,-5.6813c0.0383,-0.1417,0.1139,-0.2675,0.2253,-0.3765c0.1212,-0.1187,0.2675,-0.179,0.4347,-0.179h0.4198c0.1709,0,0.3168,0.0534,0.4338,0.1587c0.1123,0.101,0.1902,0.2369,0.2318,0.4036l1.4626,5.7001l1.2738,-5.693c0.0323,-0.1528,0.1067,-0.2869,0.2205,-0.3962c0.1199,-0.115,0.2657,-0.1733,0.4336,-0.1733h1.0314C29.5139,19,29.6333,19.1665,29.5917,19.3367z" fill="#3E79B4"/>
    <path d="M25.6009,28.8218l-1.58,-6.3082l-1.5952,6.3088c-0.0296,0.1169,-0.1282,0.198,-0.2408,0.198h-1.1836c-0.1134,0,-0.2125,-0.0822,-0.2413,-0.2001l-2.3203,-9.4835c-0.0416,-0.1702,0.0777,-0.3368,0.2413,-0.3368h1.0337c0.1646,0,0.3109,0.0633,0.4231,0.1831c0.1027,0.1098,0.1717,0.2551,0.2051,0.4319l1.3768,5.6218l1.4631,-5.6813c0.0383,-0.1417,0.1139,-0.2675,0.2253,-0.3765c0.1212,-0.1187,0.2675,-0.179,0.4347,-0.179h0.4198c0.1708,0,0.3168,0.0534,0.4338,0.1587c0.1123,0.101,0.1902,0.2369,0.2318,0.4036l1.4626,5.7001l1.2738,-5.693c0.0323,-0.1528,0.1067,-0.2869,0.2205,-0.3962c0.1199,-0.115,0.2657,-0.1733,0.4336,-0.1733h1.0314c0.1636,0,0.2829,0.1665,0.2413,0.3367l-2.3172,9.4835c-0.0288,0.118,-0.128,0.2002,-0.2413,0.2002h-1.1913C25.7291,29.0204,25.6303,28.939,25.6009,28.8218z" fill="#FFFFFF"/>
  </g>
</svg>
