<?xml version="1.0" encoding="UTF-8"?>
<!DOCTYPE svg PUBLIC "-//W3C//DTD SVG 1.1//EN" "http://www.w3.org/Graphics/SVG/1.1/DTD/svg11.dtd">
<svg version="1.1" id="Layer_1" xmlns="http://www.w3.org/2000/svg" xmlns:xlink="http://www.w3.org/1999/xlink" x="0px" y="0px" width="16px" height="16px" viewBox="0 0 16 16" enable-background="new 0 0 16 16" xml:space="preserve">
  <g id="icon">
    <path d="M13.9,15.5H3.1c-0.3314,0,-0.6,-0.2686,-0.6,-0.6V1.1c0,-0.3314,0.2686,-0.6,0.6,-0.6c0,0,6.55,0,7.0167,0s0.7328,0.1495,0.9248,0.3414s2.717,2.717,3.0336,3.0336c0.3166,0.3166,0.425,0.575,0.425,1.0416S14.5,14.9,14.5,14.9C14.5,15.2314,14.2314,15.5,13.9,15.5z" fill-rule="evenodd" fill="#FFFFFF"/>
    <path d="M14.4286,3.5215L11.395,0.4878C11.0667,0.1596,10.6485,0,10.1167,0H3.1c-0.6065,0,-1.1,0.4935,-1.1,1.1v13.8c0,0.6065,0.4935,1.1,1.1,1.1h10.8c0.6065,0,1.1,-0.4935,1.1,-1.1V4.9167C15,4.3239,14.8398,3.9327,14.4286,3.5215zM11,1.5071L13.4929,4h-2.4475c-0.0157,-0.0091,-0.0337,-0.0232,-0.0454,-0.0354V1.5071zM13.9,15H3.1c-0.0551,0,-0.1,-0.0449,-0.1,-0.1V1.1c0,-0.0551,0.0449,-0.1,0.1,-0.1h6.9v3c0,0.473,0.399,0.8674,0.7976,0.9725c0.0513,0.0178,0.1065,0.0275,0.1639,0.0275H14v9.9C14,14.9551,13.9551,15,13.9,15z" fill="#6D6E71"/>
    <path d="M13,7.5c0,-0.2761,-0.2239,-0.5,-0.5,-0.5h-2c-0.2761,0,-0.5,0.2239,-0.5,0.5s0.2239,0.5,0.5,0.5h2C12.7761,8,13,7.7761,13,7.5zM13,9.5c0,-0.2761,-0.2239,-0.5,-0.5,-0.5H4.5c-0.2761,0,-0.5,0.2239,-0.5,0.5s0.2239,0.5,0.5,0.5h8C12.7761,10,13,9.7761,13,9.5zM13,11.5c0,-0.2761,-0.2239,-0.5,-0.5,-0.5H4.5c-0.2761,0,-0.5,0.2239,-0.5,0.5s0.2239,0.5,0.5,0.5h8C12.7761,12,13,11.7761,13,11.5zM13,13.5c0,-0.2761,-0.2239,-0.5,-0.5,-0.5H4.5c-0.2761,0,-0.5,0.2239,-0.5,0.5s0.2239,0.5,0.5,0.5h8C12.7761,14,13,13.7761,13,13.5z" fill="#B4B4B5"/>
    <path d="M8.6054,8c-0.0996,0,-0.1844,-0.0287,-0.2522,-0.0852c-0.0628,-0.0523,-0.1086,-0.12,-0.1361,-0.201l-0.4437,-1.2462h-2.187l-0.4444,1.2481c-0.0243,0.0705,-0.0692,0.1352,-0.1332,0.1912C4.9382,7.9687,4.8526,8,4.7545,8H3.96l2.2312,-6h0.9777L9.4,8H8.6054zM7.466,5.6048l-0.7347,-2.058c-0.017,-0.0451,-0.0342,-0.0941,-0.0513,-0.1468c-0.0173,0.0552,-0.0344,0.1069,-0.0512,0.1545l-0.7311,2.0503H7.466z" fill="#3E79B4"/>
  </g>
</svg>
