<?xml version="1.0" encoding="UTF-8"?>
<!DOCTYPE svg PUBLIC "-//W3C//DTD SVG 1.1//EN" "http://www.w3.org/Graphics/SVG/1.1/DTD/svg11.dtd">
<svg version="1.1" id="Layer_1" xmlns="http://www.w3.org/2000/svg" xmlns:xlink="http://www.w3.org/1999/xlink" x="0px" y="0px" width="16px" height="16px" viewBox="0 0 16 16" enable-background="new 0 0 16 16" xml:space="preserve">
  <g id="icon">
    <path d="M13.9,15.5H3.1c-0.331,0,-0.6,-0.269,-0.6,-0.6V1.1c0,-0.331,0.269,-0.6,0.6,-0.6c0,0,6.55,0,7.017,0s0.733,0.149,0.925,0.341s2.717,2.717,3.034,3.034c0.317,0.317,0.425,0.575,0.425,1.042s0,9.983,0,9.983C14.5,15.231,14.231,15.5,13.9,15.5z" fill-rule="evenodd" fill="#FFFFFF"/>
    <path d="M14.429,3.521L11.395,0.488C11.067,0.16,10.649,0,10.117,0H3.1c-0.607,0,-1.1,0.493,-1.1,1.1v13.8c0,0.607,0.493,1.1,1.1,1.1h10.8c0.607,0,1.1,-0.493,1.1,-1.1V4.917C15,4.324,14.84,3.933,14.429,3.521zM11,1.507L13.493,4h-2.448c-0.016,-0.009,-0.034,-0.023,-0.045,-0.035V1.507zM13.9,15H3.1c-0.055,0,-0.1,-0.045,-0.1,-0.1V1.1c0,-0.055,0.045,-0.1,0.1,-0.1h6.9v3c0,0.473,0.399,0.867,0.798,0.972c0.051,0.018,0.106,0.027,0.164,0.027H14v9.9C14,14.955,13.955,15,13.9,15z" fill="#6D6E71"/>
    <path d="M5,6H4v1v3v0.2v2.8h9V6H5zM12,12H5v-1.8v-0.2V7h7V12z" fill="#529FBF"/>
    <polygon points="12,9 12,8 9,8 9,7 8,7 8,8 5,8 5,9 8,9 8,10 5,10 5,11 8,11 8,12 9,12 9,11 12,11 12,10 9,10 9,9" fill="#529FBF" stroke-linejoin="miter" opacity="0.5"/>
    <path d="M15.0833,7H7.9167C7.4104,7,7,7.4104,7,7.9167v7.1667c0,0.5063,0.4104,0.9167,0.9167,0.9167h7.1667c0.5063,0,0.9167,-0.4104,0.9167,-0.9167V7.9167C16,7.4104,15.5896,7,15.0833,7zM14.9411,14.3845c0.1012,0.1249,0.0156,0.3155,-0.1418,0.3155h-1.7388c-0.0547,0,-0.1066,-0.0251,-0.1418,-0.0685l-1.3126,-1.6198L10.375,14.627c-0.0351,0.0461,-0.0887,0.073,-0.1453,0.073H8.4792c-0.1548,0,-0.2413,-0.1851,-0.1453,-0.311l2.1269,-2.7908L8.0438,8.6155C7.9425,8.4906,8.0282,8.3,8.1856,8.3h1.7388c0.0547,0,0.1066,0.0251,0.1418,0.0685l1.4717,1.8162l1.3807,-1.8117c0.0351,-0.0461,0.0887,-0.073,0.1453,-0.073h1.7505c0.1548,0,0.2413,0.1851,0.1453,0.311l-2.2765,2.9871L14.9411,14.3845z" fill="#4EA17E"/>
    <path d="M12.6833,11.5982l2.2765,-2.9871c0.0959,-0.1259,0.0094,-0.311,-0.1453,-0.311h-1.7505c-0.0567,0,-0.1102,0.0269,-0.1453,0.073l-1.3807,1.8117l-1.4717,-1.8162C10.031,8.3251,9.9791,8.3,9.9244,8.3H8.1856c-0.1574,0,-0.243,0.1906,-0.1418,0.3155l2.4169,2.9827L8.3338,14.389c-0.0959,0.1259,-0.0094,0.311,0.1453,0.311h1.7505c0.0567,0,0.1102,-0.0269,0.1453,-0.073l1.2311,-1.6154l1.3126,1.6198c0.0352,0.0434,0.0871,0.0685,0.1418,0.0685h1.7388c0.1574,0,0.243,-0.1906,0.1418,-0.3155L12.6833,11.5982z" fill="#FFFFFF"/>
  </g>
</svg>
