<?xml version="1.0" encoding="UTF-8"?>
<!DOCTYPE svg PUBLIC "-//W3C//DTD SVG 1.1//EN" "http://www.w3.org/Graphics/SVG/1.1/DTD/svg11.dtd">
<svg version="1.1" id="Layer_1" xmlns="http://www.w3.org/2000/svg" xmlns:xlink="http://www.w3.org/1999/xlink" x="0px" y="0px" width="32px" height="32px" viewBox="0 0 32 32" enable-background="new 0 0 32 32" xml:space="preserve">
  <g id="icon">
    <g>
      <path d="M26.6,30.5H5.4c-0.6351,0,-0.9,-0.2594,-0.9,-0.9V2.4c0,-0.6407,0.2649,-0.9,0.9,-0.9c0,0,13.6626,0,13.9,0c0.2375,0,0.5495,0.0496,0.8997,0.3998C20.499,2.199,25.6164,7.3164,27.1,8.8c0.2527,0.2527,0.4,0.55,0.4,1c0,0.3125,0,19.8,0,19.8C27.5,30.2406,27.2351,30.5,26.6,30.5z" fill-rule="evenodd" fill="#FFFFFF"/>
      <path d="M27.4535,8.4464l-6.9001,-6.9002C20.1858,1.1787,19.7758,1,19.3,1H5.4c-0.9159,0,-1.4,0.4841,-1.4,1.4v27.2c0,0.9159,0.4841,1.4,1.4,1.4h21.2c0.9159,0,1.4,-0.4841,1.4,-1.4V9.8C28,9.2494,27.8264,8.8192,27.4535,8.4464zM20,2.4071L26.5929,9H20.3c-0.1654,0,-0.3,-0.1346,-0.3,-0.3V2.4071zM26.6,30H5.4c-0.3626,0,-0.4,-0.0374,-0.4,-0.4V2.4c0,-0.3626,0.0374,-0.4,0.4,-0.4h13.6v6.7c0,0.7168,0.5832,1.3,1.3,1.3h6.7v19.6C27,29.9626,26.9626,30,26.6,30z" fill="#6D6E71"/>
    </g>
    <path d="M17.5,5h-2c-0.2761,0,-0.5,-0.2239,-0.5,-0.5s0.2239,-0.5,0.5,-0.5h2c0.2761,0,0.5,0.2239,0.5,0.5S17.7761,5,17.5,5zM17.5,7h-2c-0.2761,0,-0.5,-0.2239,-0.5,-0.5s0.2239,-0.5,0.5,-0.5h2c0.2761,0,0.5,0.2239,0.5,0.5S17.7761,7,17.5,7zM17.5,9h-2c-0.2761,0,-0.5,-0.2239,-0.5,-0.5s0.2239,-0.5,0.5,-0.5h2c0.2761,0,0.5,0.2239,0.5,0.5S17.7761,9,17.5,9zM17.5,11h-1c-0.2761,0,-0.5,-0.2239,-0.5,-0.5s0.2239,-0.5,0.5,-0.5h1c0.2761,0,0.5,0.2239,0.5,0.5S17.7761,11,17.5,11zM24.5,13h-8c-0.2761,0,-0.5,-0.2239,-0.5,-0.5s0.2239,-0.5,0.5,-0.5h8c0.2761,0,0.5,0.2239,0.5,0.5S24.7761,13,24.5,13zM24.5,15H7.5c-0.2761,0,-0.5,-0.2239,-0.5,-0.5s0.2239,-0.5,0.5,-0.5h17c0.2761,0,0.5,0.2239,0.5,0.5S24.7761,15,24.5,15zM24.5,17H7.5c-0.2761,0,-0.5,-0.2239,-0.5,-0.5s0.2239,-0.5,0.5,-0.5h17c0.2761,0,0.5,0.2239,0.5,0.5S24.7761,17,24.5,17zM24.5,19H7.5c-0.2761,0,-0.5,-0.2239,-0.5,-0.5s0.2239,-0.5,0.5,-0.5h17c0.2761,0,0.5,0.2239,0.5,0.5S24.7761,19,24.5,19zM24.5,21H7.5c-0.2761,0,-0.5,-0.2239,-0.5,-0.5s0.2239,-0.5,0.5,-0.5h17c0.2761,0,0.5,0.2239,0.5,0.5S24.7761,21,24.5,21zM24.5,23H7.5c-0.2761,0,-0.5,-0.2239,-0.5,-0.5s0.2239,-0.5,0.5,-0.5h17c0.2761,0,0.5,0.2239,0.5,0.5S24.7761,23,24.5,23zM24.5,25H7.5c-0.2761,0,-0.5,-0.2239,-0.5,-0.5s0.2239,-0.5,0.5,-0.5h17c0.2761,0,0.5,0.2239,0.5,0.5S24.7761,25,24.5,25zM24.5,27H7.5c-0.2761,0,-0.5,-0.2239,-0.5,-0.5s0.2239,-0.5,0.5,-0.5h17c0.2761,0,0.5,0.2239,0.5,0.5S24.7761,27,24.5,27z" fill="#B4B4B5"/>
    <path d="M15.1,13.0243h-0.9716c-0.1106,0,-0.2014,-0.0292,-0.2725,-0.088c-0.0711,-0.0586,-0.1224,-0.134,-0.154,-0.2262l-0.7524,-2.0927H9.1993l-0.7524,2.0927c-0.0277,0.0796,-0.0791,0.1519,-0.154,0.2168c-0.0751,0.065,-0.1659,0.0974,-0.2725,0.0974h-0.9716L10.4375,4h1.2737L15.1,13.0243zM12.6058,9.6622l-1.2619,-3.5004c-0.0909,-0.2388,-0.1817,-0.5405,-0.2725,-0.905c-0.0435,0.1802,-0.0879,0.3478,-0.1333,0.5028c-0.0454,0.1551,-0.0899,0.2933,-0.1333,0.4148l-1.256,3.4878H12.6058z" fill="#3E79B4"/>
  </g>
</svg>
