<?xml version="1.0" encoding="utf-8"?>
<!-- Generator: Adobe Illustrator 19.0.0, SVG Export Plug-In . SVG Version: 6.00 Build 0)  -->
<svg version="1.1" id="Layer_1" xmlns="http://www.w3.org/2000/svg" xmlns:xlink="http://www.w3.org/1999/xlink" x="0px" y="0px"
	 viewBox="-289 412.9 16 16" style="enable-background:new -289 412.9 16 16;" xml:space="preserve">
<style type="text/css">
	.st0{fill:#FFFFFF;}
	.st1{fill:#6D6E71;}
	.st2{fill:#4EA17E;}
	.st3{opacity:0.5;fill:#59C1A7;enable-background:new    ;}
</style>
<g id="icon">
	<path class="st0" d="M-275.1,428.4h-10.8c-0.3,0-0.6-0.3-0.6-0.6V414c0-0.3,0.3-0.6,0.6-0.6c0,0,6.5,0,7,0s0.7,0.1,0.9,0.3
		c0.2,0.2,2.7,2.7,3,3c0.3,0.3,0.4,0.6,0.4,1c0,0.5,0,10,0,10C-274.5,428.1-274.8,428.4-275.1,428.4z"/>
	<path class="st1" d="M-274.6,416.4l-3-3c-0.3-0.3-0.7-0.5-1.3-0.5h-7c-0.6,0-1.1,0.5-1.1,1.1v13.8c0,0.6,0.5,1.1,1.1,1.1h10.8
		c0.6,0,1.1-0.5,1.1-1.1v-10C-274,417.2-274.2,416.8-274.6,416.4z M-278,414.4l2.5,2.5h-2.4c0,0,0,0,0,0V414.4z M-275.1,427.9h-10.8
		c-0.1,0-0.1,0-0.1-0.1V414c0-0.1,0-0.1,0.1-0.1h6.9v3c0,0.5,0.4,0.9,0.8,1c0.1,0,0.1,0,0.2,0h3v9.9
		C-275,427.8-275,427.9-275.1,427.9z"/>
	<path class="st2" d="M-284,418.9h-1v1v3v0.2v2.8h9v-7H-284z M-277,424.9h-7v-1.8v-0.2v-3h7V424.9z"/>
	<polygon class="st3" points="-277,421.9 -277,420.9 -280,420.9 -280,419.9 -281,419.9 -281,420.9 -284,420.9 -284,421.9 
		-281,421.9 -281,422.9 -284,422.9 -284,423.9 -281,423.9 -281,424.9 -280,424.9 -280,423.9 -277,423.9 -277,422.9 -280,422.9 
		-280,421.9 	"/>
</g>
</svg>
