<?xml version="1.0" encoding="UTF-8"?>
<!DOCTYPE svg PUBLIC "-//W3C//DTD SVG 1.1//EN" "http://www.w3.org/Graphics/SVG/1.1/DTD/svg11.dtd">
<svg version="1.1" id="Layer_1" xmlns="http://www.w3.org/2000/svg" xmlns:xlink="http://www.w3.org/1999/xlink" x="0px" y="0px" width="32px" height="32px" viewBox="0 0 32 32" enable-background="new 0 0 32 32" xml:space="preserve">
  <g id="icon">
    <path d="M27.1,7.8c-1.484,-1.484,-5.601,-5.601,-5.9,-5.9c-0.35,-0.35,-0.662,-0.4,-0.9,-0.4S5.4,1.5,5.4,1.5c-0.635,0,-0.9,0.259,-0.9,0.9v12.6v13v1.6c0,0.641,0.265,0.9,0.9,0.9h21.2c0.635,0,0.9,-0.259,0.9,-0.9c0,0,0,-20.488,0,-20.8C27.5,8.35,27.353,8.053,27.1,7.8z" fill-rule="evenodd" fill="#FFFFFF"/>
    <path d="M27.454,7.446l-5.9,-5.9C21.186,1.179,20.776,1,20.3,1H5.4c-0.916,0,-1.4,0.484,-1.4,1.4v27.2c0,0.916,0.484,1.4,1.4,1.4h21.2c0.916,0,1.4,-0.484,1.4,-1.4V8.8C28,8.249,27.826,7.819,27.454,7.446zM21,2.407L26.593,8H21.3c-0.165,0,-0.3,-0.135,-0.3,-0.3V2.407zM27,29.6c0,0.363,-0.037,0.4,-0.4,0.4H5.4c-0.363,0,-0.4,-0.037,-0.4,-0.4V2.4c0,-0.363,0.037,-0.4,0.4,-0.4h14.6v5.7c0,0.717,0.583,1.3,1.3,1.3h5.7V29.6z" fill="#6D6E71"/>
    <path d="M19.5,11h-1.5H7v0.7v0.3v8v0.5v6.5h18V11H19.5zM24,26H8v-5.5v-0.5v-8h10h1.5h4.5V26z" fill="#529FBF"/>
    <path d="M24,15v-1h-5v-2h-1v2h-5v-2h-1v2H8v1h4v2H8v1h4v2H8v1h4v2H8v1h4v2h1v-2h5v2h1v-2h5v-1h-5v-2h5v-1h-5v-2h5v-1h-5v-2H24zM13,15h5v2h-5V15zM18,23h-5v-2h5V23zM18,20h-5v-2h5V20z" fill="#529FBF" opacity="0.5"/>
    <path d="M29.9167,17H18.0833C17.485,17,17,17.485,17,18.0833v11.8333c0,0.5983,0.485,1.0833,1.0833,1.0833h11.8333c0.5983,0,1.0833,-0.485,1.0833,-1.0833V18.0833C31,17.485,30.515,17,29.9167,17z" fill="#4EA17E"/>
    <path d="M26.5398,29c-0.0297,0,-0.0576,-0.013,-0.0767,-0.0357l-2.2839,-2.9189l-2.1461,2.9166c-0.0191,0.0242,-0.0477,0.0381,-0.0785,0.0381h-2.8354c-0.0566,0,-0.0818,-0.0395,-0.09,-0.0564c-0.0083,-0.0169,-0.0235,-0.0611,0.0115,-0.1055l3.5459,-4.6886l-4.0196,-4.9852c-0.037,-0.044,-0.0221,-0.0892,-0.014,-0.1065c0.0081,-0.0174,0.0331,-0.0578,0.0906,-0.0578h2.8164c0.0296,0,0.0576,0.013,0.0766,0.0357l2.5416,3.2257l2.3885,-3.2234c0.019,-0.0242,0.0477,-0.038,0.0784,-0.038h2.8354c0.0565,0,0.0818,0.0395,0.09,0.0564c0.0082,0.017,0.0235,0.0612,-0.0115,0.1056l-3.7883,4.9952l3.762,4.6784c0.037,0.044,0.0222,0.0893,0.0141,0.1066c-0.0081,0.0173,-0.0331,0.0577,-0.0906,0.0577H26.5398z" fill="#FFFFFF"/>
  </g>
</svg>
