<?xml version="1.0" encoding="utf-8"?>
<!-- Generator: Adobe Illustrator 19.0.0, SVG Export Plug-In . SVG Version: 6.00 Build 0)  -->
<svg version="1.1" id="Layer_1" xmlns="http://www.w3.org/2000/svg" xmlns:xlink="http://www.w3.org/1999/xlink" x="0px" y="0px"
	 viewBox="-281 404.9 32 32" style="enable-background:new -281 404.9 32 32;" xml:space="preserve">
<style type="text/css">
	.st0{fill:#FFFFFF;stroke:#6D6E71;stroke-miterlimit:1;}
	.st1{fill:none;stroke:#6D6E71;stroke-miterlimit:1;}
	.st2{fill:#E57F54;}
	.st3{fill:#F9A24C;}
</style>
<g id="icon">
	<path class="st0" d="M-254.4,435.4h-21.2c-0.6,0-0.9-0.3-0.9-0.9v-27.2c0-0.6,0.3-0.9,0.9-0.9c0,0,14.7,0,14.9,0
		c0.2,0,0.5,0,0.9,0.4c0.3,0.3,4.4,4.4,5.9,5.9c0.3,0.3,0.4,0.5,0.4,1c0,0.3,0,20.8,0,20.8C-253.5,435.1-253.8,435.4-254.4,435.4z"
		/>
	<path class="st1" d="M-260.5,406.7v5.9c0,0.4,0.4,0.8,0.8,0.8h5.9"/>
	<path class="st2" d="M-264.4,415c0.3,0.1,0.7,0.2,1,0.3c-2.2,6.6-2.2,7-2.2,7s-0.3,0-7.3-0.5c0-0.3,0.1-0.6,0.1-0.9
		C-272.1,416.9-268.3,414.3-264.4,415z"/>
	<path class="st3" d="M-258.7,428.9c1.3-1.6,1.9-3.7,1.5-5.9c-0.5-2.7-2.3-4.8-4.6-5.6c-0.9,3.1-2.3,7.1-2.3,7.1s-2.9-0.2-7.2-0.6
		c0,1.9,0.7,3.9,2.1,5.4c2.8,2.9,7.4,2.9,10.2,0C-258.9,429.2-258.8,429.1-258.7,428.9z"/>
</g>
</svg>
