<?xml version="1.0" encoding="UTF-8"?>
<!DOCTYPE svg PUBLIC "-//W3C//DTD SVG 1.1//EN" "http://www.w3.org/Graphics/SVG/1.1/DTD/svg11.dtd">
<svg version="1.1" id="Layer_1" xmlns="http://www.w3.org/2000/svg" xmlns:xlink="http://www.w3.org/1999/xlink" x="0px" y="0px" width="32px" height="32px" viewBox="0 0 32 32" enable-background="new 0 0 32 32" xml:space="preserve">
  <g id="icon">
    <path d="M26.6,30.5H5.4c-0.6351,0,-0.9,-0.2594,-0.9,-0.9V2.4c0,-0.6407,0.2649,-0.9,0.9,-0.9c0,0,14.6625,0,14.9,0s0.5495,0.0496,0.8998,0.3998C21.499,2.199,25.6164,6.3164,27.1,7.8c0.2527,0.2527,0.4,0.55,0.4,1c0,0.3125,0,20.8,0,20.8C27.5,30.2406,27.2351,30.5,26.6,30.5z" fill-rule="evenodd" fill="#FFFFFF" stroke="#6D6E71" stroke-width="1" stroke-miterlimit="1"/>
    <path d="M20.5,1.8v5.9c0,0.4418,0.3582,0.8,0.8,0.8h5.9" fill-rule="evenodd" fill="none" stroke="#6D6E71" stroke-width="1" stroke-miterlimit="1"/>
    <path d="M8,7.5h8.5M8,10.5h8.5M8,13.5h15.5M18.5,16.5h5M18.5,19.5h5M18.5,22.5h5M18.5,25.5h5" fill="none" stroke="#3E79B4" stroke-width="1" stroke-linecap="round" stroke-miterlimit="1"/>
    <path d="M16.2,26H8.3c-0.44,0,-0.8,-0.36,-0.8,-0.8v-8.4c0,-0.44,0.36,-0.8,0.8,-0.8h7.9c0.44,0,0.8,0.36,0.8,0.8v8.4C17,25.64,16.64,26,16.2,26z" fill="#A4D6F3"/>
  </g>
</svg>
