<?xml version="1.0" encoding="utf-8"?>
<!-- Generator: Adobe Illustrator 19.0.0, SVG Export Plug-In . SVG Version: 6.00 Build 0)  -->
<svg version="1.1" id="Layer_1" xmlns="http://www.w3.org/2000/svg" xmlns:xlink="http://www.w3.org/1999/xlink" x="0px" y="0px"
	 viewBox="-281 404.9 32 32" style="enable-background:new -281 404.9 32 32;" xml:space="preserve">
<style type="text/css">
	.st0{fill:#89BE50;}
	.st1{fill:#FFFFFF;}
	.st2{fill:#DCE7F0;}
</style>
<g id="icon">
	<path class="st0" d="M-273,406.9c0,8.3,0,16.7,0,25c6.4,0,13.6,0,20,0c0-8.4,0-16.7,0-25C-259.4,406.9-266.7,406.9-273,406.9z
		 M-257,416.1c0,0.4-0.4,0.8-0.8,0.8h-10.4c-0.4,0-0.8-0.4-0.8-0.8v-4.4c0-0.4,0.4-0.8,0.8-0.8h10.4c0.4,0,0.8,0.4,0.8,0.8V416.1z"
		/>
	<path class="st0" d="M-254,433.9c0,0.4,0,0.6,0,1c-0.2,0-0.5,0-0.7,0c-6.5,0-14,0-20.5,0c-1.2,0-1.8-0.6-1.8-1.7
		c0-7.8,0-15.7,0-23.5c0-1.7,1.2-2.8,2.9-2.8c0,8.3,0,16.7,0,25c-0.5,0.2-1,0.3-1.4,0.5c-0.2,0.1-0.4,0.4-0.4,0.6
		c0,0.3,0.2,0.6,0.5,0.7c0.3,0.1,0.6,0.2,1,0.2c6.2,0,13.4,0,19.6,0C-254.6,433.9-254.3,433.9-254,433.9z"/>
	<path class="st1" d="M-257.8,416.9h-10.4c-0.4,0-0.8-0.4-0.8-0.8v-4.4c0-0.4,0.4-0.8,0.8-0.8h10.4c0.4,0,0.8,0.4,0.8,0.8v4.4
		C-257,416.5-257.4,416.9-257.8,416.9z"/>
	<rect x="-268" y="411.9" class="st2" width="10" height="4"/>
</g>
</svg>
