<?xml version="1.0" encoding="UTF-8"?>
<!DOCTYPE svg PUBLIC "-//W3C//DTD SVG 1.1//EN" "http://www.w3.org/Graphics/SVG/1.1/DTD/svg11.dtd">
<svg version="1.1" id="Layer_1" xmlns="http://www.w3.org/2000/svg" xmlns:xlink="http://www.w3.org/1999/xlink" x="0px" y="0px" width="16px" height="16px" viewBox="0 0 16 16" enable-background="new 0 0 16 16" xml:space="preserve">
  <g id="icon">
    <path d="M12.9,15.5H2.1c-0.3314,0,-0.6,-0.2686,-0.6,-0.6V1.1c0,-0.3314,0.2686,-0.6,0.6,-0.6c0,0,6.55,0,7.0167,0s0.7328,0.1495,0.9248,0.3414s2.717,2.717,3.0336,3.0336c0.3166,0.3166,0.425,0.575,0.425,1.0416S13.5,14.9,13.5,14.9C13.5,15.2314,13.2314,15.5,12.9,15.5z" fill-rule="evenodd" fill="#FFFFFF"/>
    <path d="M13.4286,3.5215L10.395,0.4878C10.0667,0.1596,9.6485,0,9.1167,0H2.1c-0.6065,0,-1.1,0.4935,-1.1,1.1v13.8c0,0.6065,0.4935,1.1,1.1,1.1h10.8c0.6065,0,1.1,-0.4935,1.1,-1.1V4.9167C14,4.3239,13.8398,3.9327,13.4286,3.5215zM10,1.5071L12.4929,4h-2.4475c-0.0157,-0.0091,-0.0337,-0.0232,-0.0454,-0.0354V1.5071zM12.9,15H2.1c-0.0551,0,-0.1,-0.0449,-0.1,-0.1V1.1c0,-0.0551,0.0449,-0.1,0.1,-0.1h6.9v3c0,0.473,0.399,0.8674,0.7976,0.9725C9.8489,4.9903,9.9041,5,9.9614,5H13v9.9C13,14.9551,12.9551,15,12.9,15z" fill="#6D6E71"/>
  </g>
</svg>
