<?xml version="1.0" encoding="UTF-8"?>
<!DOCTYPE svg PUBLIC "-//W3C//DTD SVG 1.1//EN" "http://www.w3.org/Graphics/SVG/1.1/DTD/svg11.dtd">
<svg version="1.1" id="Layer_1" xmlns="http://www.w3.org/2000/svg" xmlns:xlink="http://www.w3.org/1999/xlink" x="0px" y="0px" width="32px" height="32px" viewBox="0 0 32 32" enable-background="new 0 0 32 32" xml:space="preserve">
  <g id="icon">
    <path d="M26.6,30.5H5.4c-0.6351,0,-0.9,-0.2594,-0.9,-0.9V2.4c0,-0.6407,0.2649,-0.9,0.9,-0.9c0,0,15.6626,0,15.9,0c0.2375,0,0.5495,0.0496,0.8997,0.3998C22.499,2.199,25.6164,5.3164,27.1,6.8c0.2527,0.2527,0.4,0.55,0.4,1c0,0.3125,0,21.8,0,21.8C27.5,30.2406,27.2351,30.5,26.6,30.5z" fill-rule="evenodd" fill="#FFFFFF"/>
    <path d="M27.4535,6.4464l-4.9001,-4.9002C22.1858,1.1787,21.7758,1,21.3,1H5.4c-0.9159,0,-1.4,0.4841,-1.4,1.4v27.2c0,0.9159,0.4841,1.4,1.4,1.4h21.2c0.9159,0,1.4,-0.4841,1.4,-1.4V7.8C28,7.2494,27.8264,6.8192,27.4535,6.4464zM22,2.4071L26.5929,7H22.3c-0.1654,0,-0.3,-0.1346,-0.3,-0.3V2.4071zM26.6,30H5.4c-0.3626,0,-0.4,-0.0374,-0.4,-0.4V2.4c0,-0.3626,0.0374,-0.4,0.4,-0.4h15.6v4.7c0,0.7168,0.5832,1.3,1.3,1.3h4.7v21.6C27,29.9626,26.9626,30,26.6,30z" fill="#6D6E71"/>
  </g>
</svg>
