<?xml version="1.0" encoding="UTF-8"?>
<!DOCTYPE svg PUBLIC "-//W3C//DTD SVG 1.1//EN" "http://www.w3.org/Graphics/SVG/1.1/DTD/svg11.dtd">
<svg version="1.1" id="Layer_1" xmlns="http://www.w3.org/2000/svg" xmlns:xlink="http://www.w3.org/1999/xlink" x="0px" y="0px" width="16px" height="16px" viewBox="0 0 16 16" enable-background="new 0 0 16 16" xml:space="preserve">
  <g id="icon">
    <path d="M15.8252,15.19c-0.2863,-0.0141,-0.5297,-0.0531,-0.7343,-0.1159c-0.1911,-0.0586,-0.3691,-0.1671,-0.5344,-0.3226c-0.1724,-0.1619,-0.343,-0.3964,-0.5096,-0.6971c-0.1723,-0.3104,-0.3634,-0.73,-0.5695,-1.2477L8.3541,0.0988C8.3243,0.0246,8.2531,0,8.1736,0h-0.3799c-0.079,0,-0.1502,0.024,-0.1803,0.0974L2.4358,12.681c-0.228,0.5481,-0.4424,1.0011,-0.637,1.358c-0.1885,0.3456,-0.3716,0.6019,-0.5444,0.7677c-0.1096,0.1052,-0.3885,0.2566,-1.0948,0.3877C0.0672,15.2117,0,15.2914,0,15.3861v0.4176C0,15.9121,0.0874,16,0.1951,16h4.6351c0.1078,0,0.1698,-0.0879,0.1698,-0.1963v-0.4176c0,-0.1022,-0.0652,-0.1873,-0.1664,-0.1956c-0.349,-0.0289,-0.628,-0.0708,-0.8416,-0.1246c-0.2003,-0.0504,-0.3507,-0.1126,-0.4536,-0.1851c-0.0904,-0.0634,-0.1474,-0.1284,-0.1728,-0.1933c-0.0306,-0.0778,-0.0453,-0.1656,-0.0453,-0.2608c0,-0.2734,0.1194,-0.7022,0.3541,-1.2618L4.6231,11h5.4391l0.8396,1.9474c0.1419,0.3542,0.2512,0.6646,0.3249,0.9164c0.0695,0.2373,0.1016,0.432,0.0952,0.5838c0,0.1007,-0.0175,0.1897,-0.0534,0.2702c-0.0329,0.0736,-0.0922,0.1428,-0.1763,0.2048c-0.0922,0.0681,-0.2256,0.1261,-0.3965,0.172c-0.1811,0.0489,-0.374,0.081,-0.6487,0.0952c-0.1037,0.0054,-0.147,0.0917,-0.147,0.1962v0.4176c0,0.1084,0.0112,0.1963,0.119,0.1963h5.8075c0.1078,0,0.1736,-0.0879,0.1736,-0.1963v-0.4176C16,15.2814,15.9291,15.1951,15.8252,15.19zM9.5995,9.7H5.1222l2.2675,-5.5072L9.5995,9.7z" fill="#58595B"/>
  </g>
</svg>
