<?xml version="1.0" encoding="UTF-8"?>
<!DOCTYPE svg PUBLIC "-//W3C//DTD SVG 1.1//EN" "http://www.w3.org/Graphics/SVG/1.1/DTD/svg11.dtd">
<svg version="1.1" id="Layer_1" xmlns="http://www.w3.org/2000/svg" xmlns:xlink="http://www.w3.org/1999/xlink" x="0px" y="0px" width="32px" height="32px" viewBox="0 0 32 32" enable-background="new 0 0 32 32" xml:space="preserve">
  <g id="icon">
    <path d="M17.5,10H3.5c-0.2761,0,-0.5,-0.2239,-0.5,-0.5v0c0,-0.2761,0.2239,-0.5,0.5,-0.5h14c0.2761,0,0.5,0.2239,0.5,0.5v0C18,9.7761,17.7761,10,17.5,10zM14,11.5L14,11.5c0,-0.2761,-0.2239,-0.5,-0.5,-0.5H3.5c-0.2761,0,-0.5,0.2239,-0.5,0.5v0c0,0.2761,0.2239,0.5,0.5,0.5h10C13.7761,12,14,11.7761,14,11.5z" fill="#797979"/>
    <path d="M19.5,18H7.5c-0.2761,0,-0.5,-0.2239,-0.5,-0.5l0,0c0,-0.2761,0.2239,-0.5,0.5,-0.5h12c0.2761,0,0.5,0.2239,0.5,0.5l0,0C20,17.7761,19.7761,18,19.5,18zM25,19.5L25,19.5c0,-0.2761,-0.2239,-0.5,-0.5,-0.5H7.5c-0.2761,0,-0.5,0.2239,-0.5,0.5l0,0c0,0.2761,0.2239,0.5,0.5,0.5h17C24.7761,20,25,19.7761,25,19.5zM12,21.5L12,21.5c0,-0.2761,-0.2239,-0.5,-0.5,-0.5H7.5c-0.2761,0,-0.5,0.2239,-0.5,0.5l0,0c0,0.2761,0.2239,0.5,0.5,0.5h4C11.7761,22,12,21.7761,12,21.5zM23,21.5L23,21.5c0,-0.2761,-0.2239,-0.5,-0.5,-0.5h-8c-0.2761,0,-0.5,0.2239,-0.5,0.5l0,0c0,0.2761,0.2239,0.5,0.5,0.5h8C22.7761,22,23,21.7761,23,21.5z" fill="#58595B"/>
    <path d="M30.4,6H1.6c-0.3314,0,-0.6,0.2686,-0.6,0.6v18.8c0,0.3314,0.2686,0.6,0.6,0.6h28.8c0.3314,0,0.6,-0.2686,0.6,-0.6V6.6C31,6.2686,30.7314,6,30.4,6zM20,17.5c0,0.2761,-0.2239,0.5,-0.5,0.5H7.5c-0.2761,0,-0.5,-0.2239,-0.5,-0.5s0.2239,-0.5,0.5,-0.5h12C19.7761,17,20,17.2239,20,17.5zM3.5,9h14c0.2761,0,0.5,0.2239,0.5,0.5s-0.2239,0.5,-0.5,0.5H3.5c-0.2761,0,-0.5,-0.2239,-0.5,-0.5S3.2239,9,3.5,9zM3,11.5c0,-0.2761,0.2239,-0.5,0.5,-0.5h10c0.2761,0,0.5,0.2239,0.5,0.5s-0.2239,0.5,-0.5,0.5H3.5C3.2239,12,3,11.7761,3,11.5zM11.5,22H7.5c-0.2761,0,-0.5,-0.2239,-0.5,-0.5s0.2239,-0.5,0.5,-0.5h4c0.2761,0,0.5,0.2239,0.5,0.5S11.7761,22,11.5,22zM22.5,22h-8c-0.2761,0,-0.5,-0.2239,-0.5,-0.5s0.2239,-0.5,0.5,-0.5h8c0.2761,0,0.5,0.2239,0.5,0.5S22.7761,22,22.5,22zM24.5,20H7.5c-0.2761,0,-0.5,-0.2239,-0.5,-0.5s0.2239,-0.5,0.5,-0.5h17c0.2761,0,0.5,0.2239,0.5,0.5S24.7761,20,24.5,20zM29,12.4c0,0.3314,-0.2686,0.6,-0.6,0.6h-3.8c-0.3314,0,-0.6,-0.2686,-0.6,-0.6V8.6c0,-0.3314,0.2686,-0.6,0.6,-0.6h3.8c0.3314,0,0.6,0.2686,0.6,0.6V12.4z" fill="#EAB765"/>
    <path d="M24.6,13h3.8c0.3314,0,0.6,-0.2686,0.6,-0.6V8.6c0,-0.3314,-0.2686,-0.6,-0.6,-0.6h-3.8c-0.3314,0,-0.6,0.2686,-0.6,0.6v3.8C24,12.7314,24.2686,13,24.6,13z" fill="#CD4C32"/>
  </g>
</svg>
