<?xml version="1.0" encoding="UTF-8"?>
<!DOCTYPE svg PUBLIC "-//W3C//DTD SVG 1.1//EN" "http://www.w3.org/Graphics/SVG/1.1/DTD/svg11.dtd">
<svg version="1.1" id="Layer_1" xmlns="http://www.w3.org/2000/svg" xmlns:xlink="http://www.w3.org/1999/xlink" x="0px" y="0px" width="16px" height="16px" viewBox="0 0 16 16" enable-background="new 0 0 16 16" xml:space="preserve">
  <g id="icon">
    <path d="M15.4,3H0.6c-0.3314,0,-0.6,0.2686,-0.6,0.6v9.8c0,0.3314,0.2686,0.6,0.6,0.6h14.8c0.3314,0,0.6,-0.2686,0.6,-0.6V3.6C16,3.2686,15.7314,3,15.4,3zM11,9.5c0,0.2761,-0.2239,0.5,-0.5,0.5H3.5c-0.2761,0,-0.5,-0.2239,-0.5,-0.5s0.2239,-0.5,0.5,-0.5h7C10.7761,9,11,9.2239,11,9.5zM1.5,4h6c0.2761,0,0.5,0.2239,0.5,0.5s-0.2239,0.5,-0.5,0.5H1.5c-0.2761,0,-0.5,-0.2239,-0.5,-0.5S1.2239,4,1.5,4zM1,6.5c0,-0.2761,0.2239,-0.5,0.5,-0.5h4c0.2761,0,0.5,0.2239,0.5,0.5s-0.2239,0.5,-0.5,0.5H1.5C1.2239,7,1,6.7761,1,6.5zM5.5,12H3.5c-0.2761,0,-0.5,-0.2239,-0.5,-0.5s0.2239,-0.5,0.5,-0.5h2c0.2761,0,0.5,0.2239,0.5,0.5S5.7761,12,5.5,12zM12.5,12H7.5c-0.2761,0,-0.5,-0.2239,-0.5,-0.5s0.2239,-0.5,0.5,-0.5h5c0.2761,0,0.5,0.2239,0.5,0.5S12.7761,12,12.5,12zM14,6.4c0,0.3314,-0.2686,0.6,-0.6,0.6h-1.8c-0.3314,0,-0.6,-0.2686,-0.6,-0.6V4.6c0,-0.3314,0.2686,-0.6,0.6,-0.6h1.8c0.3314,0,0.6,0.2686,0.6,0.6V6.4z" fill="#EAB765"/>
    <path d="M7.5,5H1.5c-0.2761,0,-0.5,-0.2239,-0.5,-0.5v0c0,-0.2761,0.2239,-0.5,0.5,-0.5h6c0.2761,0,0.5,0.2239,0.5,0.5v0C8,4.7761,7.7761,5,7.5,5zM6,6.5L6,6.5c0,-0.2761,-0.2239,-0.5,-0.5,-0.5H1.5c-0.2761,0,-0.5,0.2239,-0.5,0.5v0c0,0.2761,0.2239,0.5,0.5,0.5h4C5.7761,7,6,6.7761,6,6.5z" fill="#797979"/>
    <path d="M10.5,10H3.5c-0.2761,0,-0.5,-0.2239,-0.5,-0.5v0c0,-0.2761,0.2239,-0.5,0.5,-0.5h7c0.2761,0,0.5,0.2239,0.5,0.5v0C11,9.7761,10.7761,10,10.5,10zM6,11.5L6,11.5c0,-0.2761,-0.2239,-0.5,-0.5,-0.5H3.5c-0.2761,0,-0.5,0.2239,-0.5,0.5v0c0,0.2761,0.2239,0.5,0.5,0.5h2C5.7761,12,6,11.7761,6,11.5zM13,11.5L13,11.5c0,-0.2761,-0.2239,-0.5,-0.5,-0.5H7.5c-0.2761,0,-0.5,0.2239,-0.5,0.5v0c0,0.2761,0.2239,0.5,0.5,0.5h5C12.7761,12,13,11.7761,13,11.5z" fill="#58595B"/>
    <path d="M11.6,7h1.8c0.3314,0,0.6,-0.2686,0.6,-0.6V4.6c0,-0.3314,-0.2686,-0.6,-0.6,-0.6h-1.8c-0.3314,0,-0.6,0.2686,-0.6,0.6v1.8C11,6.7314,11.2686,7,11.6,7z" fill="#CD4C32"/>
  </g>
</svg>
