<?xml version="1.0" encoding="UTF-8"?>
<!DOCTYPE svg PUBLIC "-//W3C//DTD SVG 1.1//EN" "http://www.w3.org/Graphics/SVG/1.1/DTD/svg11.dtd">
<svg version="1.1" id="Layer_1" xmlns="http://www.w3.org/2000/svg" xmlns:xlink="http://www.w3.org/1999/xlink" x="0px" y="0px" width="16px" height="16px" viewBox="0 0 16 16" enable-background="new 0 0 16 16" xml:space="preserve">
  <g id="icon">
    <path d="M3.799,12.37c0,0.069,-0.316,1.63,-1.719,2.647c-0.162,0.163,-0.234,0.154,-0.434,0.033c-1.331,-0.87,-1.618,-2.516,-1.638,-2.608c-0.036,-0.167,0.046,-0.345,0.22,-0.418c0.042,-0.018,0.089,-0.024,0.135,-0.024h3.076C3.837,12,3.799,12.073,3.799,12.37zM4.389,0.599c1.048,0.937,1.458,2.095,1.461,2.112c0.034,0.169,0.175,0.289,0.338,0.289h9.42c0.042,0,0.085,-0.006,0.125,-0.022c0.164,-0.068,0.246,-0.239,0.22,-0.403C15.932,2.443,15.304,0,13.156,0H4.644C3.815,0,3.85,0.116,4.389,0.599zM16,12.34c0,3.301,-2.661,3.66,-2.775,3.66c-0.05,0,-6.891,0,-9.117,0c-0.312,0,-1.198,-0.045,-1.369,-0.219c-0.064,-0.065,0.188,-0.235,0.444,-0.463c0.001,-0.001,0.002,-0.001,0.002,-0.001c0.282,-0.253,1.301,-1.265,1.571,-2.897c0.144,-1.264,-1.031,-3.029,-2.027,-4.736C1.76,6.025,0.844,4.456,0.844,3.163c0,-1.974,1.007,-2.55,1.609,-2.784c0.114,-0.044,0.245,-0.032,0.341,0.043c1.317,1.022,1.828,1.78,2.259,3.007c0.078,0.222,0.259,0.571,0.492,0.571h6.81c0.169,0,0.314,0.133,0.356,0.298c0.293,1.147,0.973,2.807,1.631,4.098C15.116,9.914,15.993,11.347,16,12.34zM4.9,7h5.8c0.276,0,0.5,-0.224,0.5,-0.5s-0.224,-0.5,-0.5,-0.5H4.9c-0.276,0,-0.5,0.224,-0.5,0.5S4.624,7,4.9,7zM6.1,9h5.8c0.276,0,0.5,-0.224,0.5,-0.5s-0.224,-0.5,-0.5,-0.5H6.1c-0.276,0,-0.5,0.224,-0.5,0.5S5.824,9,6.1,9zM6.9,11h5.8c0.276,0,0.5,-0.224,0.5,-0.5s-0.224,-0.5,-0.5,-0.5H6.9c-0.276,0,-0.5,0.224,-0.5,0.5S6.624,11,6.9,11zM13.6,12.5c0,-0.276,-0.224,-0.5,-0.5,-0.5H7.3c-0.276,0,-0.5,0.224,-0.5,0.5s0.224,0.5,0.5,0.5h5.8C13.376,13,13.6,12.776,13.6,12.5z" fill="#EAB765"/>
    <path d="M4.9,6.5h5.8M6.1,8.5h5.8M6.9,10.5h5.8M7.3,12.5h5.8" fill="none" stroke="#FFFFFF" stroke-width="1" stroke-linecap="round" stroke-miterlimit="1"/>
  </g>
</svg>
