<?xml version="1.0" encoding="UTF-8"?>
<!DOCTYPE svg PUBLIC "-//W3C//DTD SVG 1.1//EN" "http://www.w3.org/Graphics/SVG/1.1/DTD/svg11.dtd">
<svg version="1.1" id="Layer_1" xmlns="http://www.w3.org/2000/svg" xmlns:xlink="http://www.w3.org/1999/xlink" x="0px" y="0px" width="32px" height="32px" viewBox="0 0 32 32" enable-background="new 0 0 32 32" xml:space="preserve">
  <g id="icon">
    <path d="M27.1,8.8c-1.484,-1.484,-6.601,-6.601,-6.9,-6.9c-0.35,-0.35,-0.662,-0.4,-0.9,-0.4S5.4,1.5,5.4,1.5c-0.635,0,-0.9,0.259,-0.9,0.9v16.5v1.4v9.3c0,0.641,0.265,0.9,0.9,0.9h21.2c0.635,0,0.9,-0.259,0.9,-0.9c0,0,0,-5.485,0,-9.3c0,-0.501,0,-0.973,0,-1.4c0,-3.587,0,-9.016,0,-9.1C27.5,9.35,27.353,9.053,27.1,8.8z" fill="#FFFFFF"/>
    <path d="M7,8.5c0,-0.276,0.224,-0.5,0.5,-0.5h9c0.276,0,0.5,0.224,0.5,0.5s-0.224,0.5,-0.5,0.5H7.5C7.224,9,7,8.776,7,8.5zM9.5,11h8c0.276,0,0.5,-0.224,0.5,-0.5s-0.224,-0.5,-0.5,-0.5H9.5c-0.276,0,-0.5,0.224,-0.5,0.5S9.224,11,9.5,11zM10.5,13h9c0.276,0,0.5,-0.224,0.5,-0.5s-0.224,-0.5,-0.5,-0.5h-9c-0.276,0,-0.5,0.224,-0.5,0.5S10.224,13,10.5,13zM10.5,15h6c0.276,0,0.5,-0.224,0.5,-0.5s-0.224,-0.5,-0.5,-0.5h-6c-0.276,0,-0.5,0.224,-0.5,0.5S10.224,15,10.5,15zM10.5,17h13c0.276,0,0.5,-0.224,0.5,-0.5s-0.224,-0.5,-0.5,-0.5H10.5c-0.276,0,-0.5,0.224,-0.5,0.5S10.224,17,10.5,17zM10.5,19h13c0.276,0,0.5,-0.224,0.5,-0.5s-0.224,-0.5,-0.5,-0.5H10.5c-0.276,0,-0.5,0.224,-0.5,0.5S10.224,19,10.5,19zM9.5,21h12c0.276,0,0.5,-0.224,0.5,-0.5s-0.224,-0.5,-0.5,-0.5H9.5c-0.276,0,-0.5,0.224,-0.5,0.5S9.224,21,9.5,21zM9.5,23h8c0.276,0,0.5,-0.224,0.5,-0.5s-0.224,-0.5,-0.5,-0.5H9.5c-0.276,0,-0.5,0.224,-0.5,0.5S9.224,23,9.5,23zM7.5,25h13c0.276,0,0.5,-0.224,0.5,-0.5s-0.224,-0.5,-0.5,-0.5H7.5c-0.276,0,-0.5,0.224,-0.5,0.5S7.224,25,7.5,25zM7.5,27h7c0.276,0,0.5,-0.224,0.5,-0.5s-0.224,-0.5,-0.5,-0.5H7.5c-0.276,0,-0.5,0.224,-0.5,0.5S7.224,27,7.5,27zM7.5,7h7c0.276,0,0.5,-0.224,0.5,-0.5s-0.224,-0.5,-0.5,-0.5H7.5c-0.276,0,-0.5,0.224,-0.5,0.5S7.224,7,7.5,7z" fill="#B4B4B5"/>
    <path d="M27.454,8.446l-6.9,-6.9C20.186,1.179,19.776,1,19.3,1H5.4c-0.916,0,-1.4,0.484,-1.4,1.4v12.2v0.4v7v0.4v7.2c0,0.916,0.484,1.4,1.4,1.4h21.2c0.916,0,1.4,-0.484,1.4,-1.4v-7.2v-0.4v-7v-0.4V9.8C28,9.249,27.826,8.819,27.454,8.446zM20,2.407L26.593,9H20.3c-0.165,0,-0.3,-0.135,-0.3,-0.3V2.407zM27,15v7v0.4v7.2c0,0.363,-0.037,0.4,-0.4,0.4H5.4c-0.363,0,-0.4,-0.037,-0.4,-0.4v-7.2v-0.4v-7v-0.4V2.4c0,-0.363,0.037,-0.4,0.4,-0.4h13.6v6.7c0,0.717,0.583,1.3,1.3,1.3h6.7v4.6V15z" fill="#6D6E71"/>
  </g>
</svg>
