<?xml version="1.0" encoding="UTF-8"?>
<!DOCTYPE svg PUBLIC "-//W3C//DTD SVG 1.1//EN" "http://www.w3.org/Graphics/SVG/1.1/DTD/svg11.dtd">
<svg version="1.1" id="Layer_1" xmlns="http://www.w3.org/2000/svg" xmlns:xlink="http://www.w3.org/1999/xlink" x="0px" y="0px" width="16px" height="16px" viewBox="0 0 16 16" enable-background="new 0 0 16 16" xml:space="preserve">
  <g id="icon">
    <path d="M13.9,15.5H2.1c-0.331,0,-0.6,-0.269,-0.6,-0.6V1.1c0,-0.331,0.269,-0.6,0.6,-0.6c0,0,7.55,0,8.017,0s0.733,0.149,0.925,0.341s2.717,2.717,3.034,3.034c0.317,0.317,0.425,0.575,0.425,1.042s0,9.983,0,9.983C14.5,15.231,14.231,15.5,13.9,15.5z" fill-rule="evenodd" fill="#FFFFFF" stroke="#6D6E71" stroke-width="1" stroke-miterlimit="1"/>
    <path d="M14.2,5h-3.239c-0.057,0,-0.113,-0.01,-0.164,-0.027C10.399,4.867,10,4.473,10,4V1h1v2.965c0.012,0.012,0.03,0.026,0.045,0.035H14.2V5z" fill="#6D6E71"/>
    <path d="M3.5,4h4c0.276,0,0.5,-0.224,0.5,-0.5s-0.224,-0.5,-0.5,-0.5H3.5c-0.276,0,-0.5,0.224,-0.5,0.5S3.224,4,3.5,4z" fill="#B4B4B5"/>
    <path d="M3.5,6h5c0.276,0,0.5,-0.224,0.5,-0.5s-0.224,-0.5,-0.5,-0.5H3.5c-0.276,0,-0.5,0.224,-0.5,0.5S3.224,6,3.5,6z" fill="#B4B4B5"/>
    <path d="M4.5,8h7c0.276,0,0.5,-0.224,0.5,-0.5s-0.224,-0.5,-0.5,-0.5H4.5c-0.276,0,-0.5,0.224,-0.5,0.5S4.224,8,4.5,8z" fill="#B4B4B5"/>
    <path d="M5.5,10h5c0.276,0,0.5,-0.224,0.5,-0.5s-0.224,-0.5,-0.5,-0.5H5.5c-0.276,0,-0.5,0.224,-0.5,0.5S5.224,10,5.5,10z" fill="#B4B4B5"/>
    <path d="M4.5,12h7c0.276,0,0.5,-0.224,0.5,-0.5s-0.224,-0.5,-0.5,-0.5H4.5c-0.276,0,-0.5,0.224,-0.5,0.5S4.224,12,4.5,12z" fill="#B4B4B5"/>
    <path d="M3.5,14h5c0.276,0,0.5,-0.224,0.5,-0.5s-0.224,-0.5,-0.5,-0.5H3.5c-0.276,0,-0.5,0.224,-0.5,0.5S3.224,14,3.5,14z" fill="#B4B4B5"/>
  </g>
</svg>
