<?xml version="1.0" encoding="UTF-8"?>
<!DOCTYPE svg PUBLIC "-//W3C//DTD SVG 1.1//EN" "http://www.w3.org/Graphics/SVG/1.1/DTD/svg11.dtd">
<svg version="1.1" id="Layer_1" xmlns="http://www.w3.org/2000/svg" xmlns:xlink="http://www.w3.org/1999/xlink" x="0px" y="0px" width="32px" height="32px" viewBox="0 0 32 32" enable-background="new 0 0 32 32" xml:space="preserve">
  <g id="icon">
    <path d="M27.1,8.8c-1.484,-1.484,-6.601,-6.601,-6.9,-6.9c-0.35,-0.35,-0.662,-0.4,-0.9,-0.4S5.4,1.5,5.4,1.5c-0.635,0,-0.9,0.259,-0.9,0.9v16.5v1.4v9.3c0,0.641,0.265,0.9,0.9,0.9h21.2c0.635,0,0.9,-0.259,0.9,-0.9c0,0,0,-5.485,0,-9.3c0,-0.501,0,-0.973,0,-1.4c0,-3.587,0,-9.016,0,-9.1C27.5,9.35,27.353,9.053,27.1,8.8z" fill="#FFFFFF"/>
    <path d="M27.454,8.446l-6.9,-6.9C20.186,1.179,19.776,1,19.3,1H5.4c-0.916,0,-1.4,0.484,-1.4,1.4v12.2v0.4v7v0.4v7.2c0,0.916,0.484,1.4,1.4,1.4h21.2c0.916,0,1.4,-0.484,1.4,-1.4v-7.2v-0.4v-7v-0.4V9.8C28,9.249,27.826,8.819,27.454,8.446zM20,2.407L26.593,9H20.3c-0.165,0,-0.3,-0.135,-0.3,-0.3V2.407zM27,15v7v0.4v7.2c0,0.363,-0.037,0.4,-0.4,0.4H5.4c-0.363,0,-0.4,-0.037,-0.4,-0.4v-7.2v-0.4v-7v-0.4V2.4c0,-0.363,0.037,-0.4,0.4,-0.4h13.6v6.7c0,0.717,0.583,1.3,1.3,1.3h6.7v4.6V15z" fill="#6D6E71"/>
    <path d="M8.017,14.822v-0.604l4.554,-2.506v1.066c0,0.079,-0.019,0.152,-0.056,0.219c-0.037,0.067,-0.101,0.124,-0.191,0.172l-2.083,1.132c-0.09,0.047,-0.183,0.089,-0.281,0.124c-0.097,0.036,-0.202,0.067,-0.314,0.095c0.112,0.028,0.217,0.058,0.314,0.092c0.097,0.034,0.191,0.076,0.281,0.127l2.083,1.132c0.09,0.047,0.153,0.105,0.191,0.172c0.037,0.067,0.056,0.142,0.056,0.225v1.066L8.017,14.822zM19.44,17.334v-1.066c0,-0.079,0.02,-0.153,0.059,-0.222c0.039,-0.069,0.104,-0.127,0.194,-0.175l2.083,-1.132c0.168,-0.091,0.367,-0.164,0.595,-0.219c-0.112,-0.028,-0.217,-0.059,-0.314,-0.095c-0.097,-0.036,-0.191,-0.077,-0.281,-0.124l-2.083,-1.132c-0.09,-0.047,-0.154,-0.105,-0.194,-0.172c-0.039,-0.067,-0.059,-0.14,-0.059,-0.219v-1.066l4.56,2.506v0.604L19.44,17.334zM18.897,11h-1.335l-4.449,7h1.335L18.897,11z" fill="#3E79B4"/>
    <path d="M8.5,20.5h15M8.5,22.5h15M8.5,24.5h15M8.5,26.5h15" fill="none" stroke="#B4B4B5" stroke-width="1" stroke-linecap="round" stroke-miterlimit="1"/>
  </g>
</svg>
