<?xml version="1.0" encoding="UTF-8"?>
<!DOCTYPE svg PUBLIC "-//W3C//DTD SVG 1.1//EN" "http://www.w3.org/Graphics/SVG/1.1/DTD/svg11.dtd">
<svg version="1.1" id="Layer_1" xmlns="http://www.w3.org/2000/svg" xmlns:xlink="http://www.w3.org/1999/xlink" x="0px" y="0px" width="16px" height="16px" viewBox="0 0 16 16" enable-background="new 0 0 16 16" xml:space="preserve">
  <g id="icon">
    <path d="M13.9,15.5H3.1c-0.3314,0,-0.6,-0.2686,-0.6,-0.6V1.1c0,-0.3314,0.2686,-0.6,0.6,-0.6c0,0,6.55,0,7.0167,0s0.7328,0.1495,0.9248,0.3414s2.717,2.717,3.0336,3.0336c0.3166,0.3166,0.425,0.575,0.425,1.0416S14.5,14.9,14.5,14.9C14.5,15.2314,14.2314,15.5,13.9,15.5z" fill-rule="evenodd" fill="#FFFFFF"/>
    <path d="M14.4286,3.5215L11.395,0.4878C11.0667,0.1596,10.6485,0,10.1167,0H3.1c-0.6065,0,-1.1,0.4935,-1.1,1.1v13.8c0,0.6065,0.4935,1.1,1.1,1.1h10.8c0.6065,0,1.1,-0.4935,1.1,-1.1V4.9167C15,4.3239,14.8398,3.9327,14.4286,3.5215zM11,1.5071L13.4929,4h-2.4475c-0.0157,-0.0091,-0.0337,-0.0232,-0.0454,-0.0354V1.5071zM13.9,15H3.1c-0.0551,0,-0.1,-0.0449,-0.1,-0.1V1.1c0,-0.0551,0.0449,-0.1,0.1,-0.1h6.9v3c0,0.473,0.399,0.8674,0.7976,0.9725c0.0513,0.0178,0.1065,0.0275,0.1639,0.0275H14v9.9C14,14.9551,13.9551,15,13.9,15z" fill="#6D6E71"/>
    <path d="M8.5,4H4.5c-0.2761,0,-0.5,-0.2239,-0.5,-0.5s0.2239,-0.5,0.5,-0.5h4c0.2761,0,0.5,0.2239,0.5,0.5S8.7761,4,8.5,4zM9,5.5c0,-0.2761,-0.2239,-0.5,-0.5,-0.5H4.5c-0.2761,0,-0.5,0.2239,-0.5,0.5s0.2239,0.5,0.5,0.5h4C8.7761,6,9,5.7761,9,5.5zM13,7.5c0,-0.2761,-0.2239,-0.5,-0.5,-0.5H4.5c-0.2761,0,-0.5,0.2239,-0.5,0.5s0.2239,0.5,0.5,0.5h8C12.7761,8,13,7.7761,13,7.5zM13,9.5c0,-0.2761,-0.2239,-0.5,-0.5,-0.5H4.5c-0.2761,0,-0.5,0.2239,-0.5,0.5s0.2239,0.5,0.5,0.5h8C12.7761,10,13,9.7761,13,9.5zM13,11.5c0,-0.2761,-0.2239,-0.5,-0.5,-0.5H4.5c-0.2761,0,-0.5,0.2239,-0.5,0.5s0.2239,0.5,0.5,0.5h8C12.7761,12,13,11.7761,13,11.5zM13,13.5c0,-0.2761,-0.2239,-0.5,-0.5,-0.5H4.5c-0.2761,0,-0.5,0.2239,-0.5,0.5s0.2239,0.5,0.5,0.5h8C12.7761,14,13,13.7761,13,13.5z" fill="#B4B4B5"/>
  </g>
</svg>
