<?xml version="1.0" encoding="UTF-8"?>
<!DOCTYPE svg PUBLIC "-//W3C//DTD SVG 1.1//EN" "http://www.w3.org/Graphics/SVG/1.1/DTD/svg11.dtd">
<svg version="1.1" id="Layer_1" xmlns="http://www.w3.org/2000/svg" xmlns:xlink="http://www.w3.org/1999/xlink" x="0px" y="0px" width="32px" height="32px" viewBox="0 0 32 32" enable-background="new 0 0 32 32" xml:space="preserve">
  <g id="icon">
    <path d="M26.7,30.5H5.3c-0.442,0,-0.8,-0.358,-0.8,-0.8V2.3c0,-0.442,0.358,-0.8,0.8,-0.8h21.4c0.442,0,0.8,0.358,0.8,0.8v27.4C27.5,30.142,27.142,30.5,26.7,30.5z" fill="#FFFFFF" stroke="#6D6E71" stroke-width="1" stroke-miterlimit="1"/>
    <path d="M8.017,7.476v-0.518l4.095,-2.148v0.914c0,0.068,-0.017,0.13,-0.05,0.188c-0.034,0.058,-0.091,0.107,-0.172,0.147l-1.873,0.97c-0.081,0.041,-0.165,0.076,-0.252,0.107c-0.088,0.03,-0.182,0.058,-0.283,0.081c0.101,0.024,0.195,0.05,0.283,0.079c0.088,0.029,0.172,0.065,0.252,0.109l1.873,0.97c0.081,0.041,0.138,0.09,0.172,0.147c0.034,0.058,0.05,0.122,0.05,0.193v0.914L8.017,7.476zM13.713,8.56c0,-0.2,0.052,-0.398,0.157,-0.594c0.104,-0.196,0.279,-0.374,0.525,-0.533c0.246,-0.159,0.571,-0.29,0.977,-0.394c0.406,-0.103,0.911,-0.162,1.517,-0.175v-0.318c0,-0.359,-0.075,-0.626,-0.225,-0.799c-0.15,-0.173,-0.368,-0.259,-0.654,-0.259c-0.205,0,-0.378,0.025,-0.518,0.073c-0.14,0.049,-0.26,0.105,-0.361,0.168c-0.101,0.063,-0.194,0.12,-0.28,0.17c-0.086,0.051,-0.181,0.076,-0.285,0.076c-0.088,0,-0.162,-0.023,-0.225,-0.07c-0.062,-0.047,-0.112,-0.103,-0.149,-0.168l-0.232,-0.419c0.609,-0.554,1.345,-0.83,2.207,-0.83c0.306,0,0.58,0.051,0.822,0.152c0.242,0.102,0.446,0.244,0.612,0.427c0.167,0.183,0.293,0.4,0.38,0.653c0.087,0.252,0.13,0.529,0.13,0.83v3.372h-0.571c-0.121,0,-0.216,-0.019,-0.285,-0.056c-0.069,-0.037,-0.12,-0.11,-0.154,-0.218l-0.106,-0.381c-0.134,0.122,-0.265,0.229,-0.394,0.32c-0.129,0.091,-0.261,0.168,-0.397,0.231c-0.136,0.063,-0.281,0.109,-0.437,0.14c-0.156,0.03,-0.327,0.046,-0.515,0.046c-0.226,0,-0.433,-0.03,-0.621,-0.089c-0.189,-0.059,-0.351,-0.15,-0.487,-0.272s-0.242,-0.273,-0.318,-0.455C13.751,9.006,13.713,8.797,13.713,8.56zM14.935,8.472c0,0.222,0.066,0.38,0.199,0.475c0.133,0.094,0.306,0.142,0.518,0.142c0.131,0,0.252,-0.012,0.361,-0.035c0.109,-0.023,0.214,-0.059,0.313,-0.107c0.099,-0.048,0.194,-0.107,0.285,-0.177c0.091,-0.07,0.183,-0.151,0.278,-0.244v-0.885c-0.374,0.017,-0.685,0.048,-0.934,0.094s-0.45,0.105,-0.603,0.177c-0.153,0.071,-0.261,0.155,-0.323,0.251C14.966,8.26,14.935,8.362,14.935,8.472zM19.888,9.629v-0.914c0,-0.068,0.018,-0.131,0.053,-0.19c0.035,-0.059,0.093,-0.109,0.174,-0.15l1.873,-0.97c0.151,-0.078,0.33,-0.14,0.535,-0.188c-0.101,-0.024,-0.195,-0.051,-0.283,-0.081c-0.088,-0.03,-0.172,-0.066,-0.252,-0.107l-1.873,-0.97c-0.081,-0.041,-0.139,-0.09,-0.174,-0.147c-0.035,-0.058,-0.053,-0.12,-0.053,-0.188V4.81l4.1,2.148v0.518L19.888,9.629z" fill="#3E79B4"/>
    <rect x="7" y="19" width="9" height="8" fill="#C2D3E6"/>
    <path d="M7.5,12.5h17M7.5,14.5h17M7.5,16.5h17M18.5,18.5h6M18.5,20.5h6M18.5,22.5h6M18.5,24.5h6M18.5,26.5h6" fill="none" stroke="#B4B4B5" stroke-width="1" stroke-linecap="round" stroke-miterlimit="1"/>
  </g>
</svg>
