<?xml version="1.0" encoding="UTF-8"?>
<!DOCTYPE svg PUBLIC "-//W3C//DTD SVG 1.1//EN" "http://www.w3.org/Graphics/SVG/1.1/DTD/svg11.dtd">
<svg version="1.1" id="Layer_1" xmlns="http://www.w3.org/2000/svg" xmlns:xlink="http://www.w3.org/1999/xlink" x="0px" y="0px" width="16px" height="16px" viewBox="0 0 16 16" enable-background="new 0 0 16 16" xml:space="preserve">
  <g id="icon">
    <path d="M13.9,15.5H2.1c-0.331,0,-0.6,-0.269,-0.6,-0.6V1.1c0,-0.331,0.269,-0.6,0.6,-0.6c0,0,7.55,0,8.017,0s0.733,0.149,0.925,0.341s2.717,2.717,3.034,3.034c0.317,0.317,0.425,0.575,0.425,1.042s0,9.983,0,9.983C14.5,15.231,14.231,15.5,13.9,15.5z" fill-rule="evenodd" fill="#FFFFFF" stroke="#6D6E71" stroke-width="1" stroke-miterlimit="1"/>
    <path d="M14.2,5h-3.239c-0.057,0,-0.113,-0.01,-0.164,-0.027C10.399,4.867,10,4.473,10,4V1h1v2.965c0.012,0.012,0.03,0.026,0.045,0.035H14.2V5z" fill="#6D6E71"/>
    <path d="M6.023,10.5l2.889,-5.035h1.063L7.085,10.5H6.023zM2.917,8.261v-0.53l3.04,-1.853v0.915c0,0.07,-0.015,0.136,-0.046,0.196c-0.032,0.064,-0.085,0.118,-0.158,0.16l-1.298,0.781c-0.04,0.023,-0.081,0.045,-0.123,0.064c0.043,0.02,0.085,0.043,0.125,0.068l1.297,0.78c0.072,0.042,0.125,0.096,0.157,0.159c0.03,0.06,0.046,0.128,0.046,0.2v0.915L2.917,8.261zM10.04,9.204c0,-0.07,0.016,-0.137,0.048,-0.199c0.033,-0.065,0.087,-0.119,0.159,-0.161l1.298,-0.781c0.039,-0.024,0.081,-0.046,0.126,-0.066c-0.043,-0.02,-0.084,-0.041,-0.125,-0.065l-1.3,-0.782c-0.071,-0.041,-0.124,-0.095,-0.158,-0.158c-0.032,-0.061,-0.048,-0.127,-0.048,-0.198v-0.915l3.043,1.853v0.53l-3.043,1.857V9.204z" fill="#3E79B4"/>
    <line x1="3.5" y1="12.5" x2="12.5" y2="12.5" fill="none" stroke="#B4B4B5" stroke-width="1" stroke-linecap="round" stroke-miterlimit="1"/>
  </g>
</svg>
