<?xml version="1.0" encoding="UTF-8"?>
<!DOCTYPE svg PUBLIC "-//W3C//DTD SVG 1.1//EN" "http://www.w3.org/Graphics/SVG/1.1/DTD/svg11.dtd">
<svg version="1.1" id="Layer_1" xmlns="http://www.w3.org/2000/svg" xmlns:xlink="http://www.w3.org/1999/xlink" x="0px" y="0px" width="16px" height="16px" viewBox="0 0 16 16" enable-background="new 0 0 16 16" xml:space="preserve">
  <g id="icon">
    <path d="M14.083,15.5H2.917c-0.231,0,-0.417,-0.185,-0.417,-0.414V0.914C2.5,0.685,2.687,0.5,2.917,0.5h11.165c0.231,0,0.417,0.185,0.417,0.414v14.172C14.5,15.315,14.313,15.5,14.083,15.5z" fill="#FFFFFF" stroke="#6D6E71" stroke-width="1" stroke-miterlimit="1"/>
    <path d="M8.071,5.8c-0.151,0,-0.292,-0.02,-0.419,-0.06c-0.132,-0.041,-0.248,-0.105,-0.345,-0.191c-0.097,-0.086,-0.174,-0.195,-0.227,-0.321c-0.053,-0.125,-0.08,-0.27,-0.08,-0.431c0,-0.142,0.037,-0.283,0.111,-0.42c0.074,-0.138,0.197,-0.262,0.365,-0.371c0.162,-0.104,0.377,-0.19,0.639,-0.257c0.232,-0.058,0.517,-0.095,0.849,-0.107v-0.08c0,-0.19,-0.037,-0.328,-0.11,-0.412c-0.07,-0.08,-0.173,-0.119,-0.315,-0.119c-0.113,0,-0.208,0.013,-0.281,0.038c-0.078,0.027,-0.145,0.058,-0.2,0.092c-0.063,0.039,-0.122,0.074,-0.176,0.106c-0.071,0.042,-0.151,0.063,-0.236,0.063c-0.08,0,-0.151,-0.022,-0.21,-0.066c-0.052,-0.038,-0.094,-0.085,-0.125,-0.14l-0.19,-0.341l0.07,-0.063c0.398,-0.358,0.884,-0.54,1.444,-0.54c0.204,0,0.391,0.035,0.554,0.103c0.165,0.069,0.306,0.166,0.42,0.291c0.114,0.124,0.201,0.272,0.26,0.442c0.058,0.166,0.087,0.351,0.087,0.548V5.75h-0.472c-0.096,0,-0.172,-0.016,-0.232,-0.048c-0.071,-0.038,-0.122,-0.106,-0.152,-0.203l-0.017,-0.059c-0.038,0.03,-0.075,0.058,-0.111,0.083c-0.085,0.06,-0.174,0.111,-0.264,0.153c-0.092,0.042,-0.192,0.074,-0.297,0.094C8.309,5.79,8.194,5.8,8.071,5.8zM8.965,4.358c-0.171,0.011,-0.318,0.027,-0.438,0.049c-0.144,0.027,-0.26,0.06,-0.345,0.099c-0.073,0.034,-0.125,0.072,-0.15,0.111c-0.026,0.04,-0.038,0.08,-0.038,0.124c0,0.143,0.055,0.182,0.073,0.194c0.061,0.043,0.146,0.065,0.252,0.065c0.073,0,0.14,-0.006,0.199,-0.019c0.058,-0.012,0.114,-0.031,0.167,-0.056c0.054,-0.026,0.107,-0.058,0.156,-0.096c0.041,-0.031,0.083,-0.066,0.125,-0.106V4.358zM4,4.246V3.75L6.3,2.2v0.813c0,0.068,-0.013,0.131,-0.04,0.189c-0.027,0.059,-0.07,0.109,-0.129,0.147l-0.961,0.639c-0.005,0.003,-0.011,0.007,-0.016,0.01c0.006,0.004,0.978,0.651,0.978,0.651c0.058,0.037,0.101,0.086,0.128,0.146c0.026,0.058,0.04,0.122,0.04,0.192V5.8L4,4.246zM10.7,4.987c0,-0.068,0.014,-0.132,0.041,-0.191c0.028,-0.06,0.071,-0.109,0.13,-0.147c0,0,0.971,-0.646,0.976,-0.65c-0.005,-0.003,-0.977,-0.65,-0.977,-0.65c-0.057,-0.037,-0.1,-0.085,-0.128,-0.144c-0.028,-0.058,-0.042,-0.122,-0.042,-0.191V2.2l2.3,1.55v0.497L10.7,5.8V4.987z" fill="#3E79B4"/>
    <rect x="4" y="11" width="5" height="3" fill="#C2D3E6"/>
    <path d="M4.465,7.49h8.07" fill="none" stroke="#B4B4B5" stroke-width="1" stroke-linecap="round" stroke-miterlimit="1"/>
    <path d="M4.465,9.49h8.07" fill="none" stroke="#B4B4B5" stroke-width="1" stroke-linecap="round" stroke-miterlimit="1"/>
    <path d="M10.465,11.49h2.07" fill="none" stroke="#B4B4B5" stroke-width="1" stroke-linecap="round" stroke-miterlimit="1"/>
    <path d="M10.465,13.49h2.07" fill="none" stroke="#B4B4B5" stroke-width="1" stroke-linecap="round" stroke-miterlimit="1"/>
  </g>
</svg>
