<?xml version="1.0" encoding="UTF-8"?>
<!DOCTYPE svg PUBLIC "-//W3C//DTD SVG 1.1//EN" "http://www.w3.org/Graphics/SVG/1.1/DTD/svg11.dtd">
<svg version="1.1" id="Layer_1" xmlns="http://www.w3.org/2000/svg" xmlns:xlink="http://www.w3.org/1999/xlink" x="0px" y="0px" width="32px" height="32px" viewBox="0 0 32 32" enable-background="new 0 0 32 32" xml:space="preserve">
  <g id="icon">
    <path d="M1,4.8667v22.2667c0,0.4786,0.388,0.8667,0.8667,0.8667h28.2667c0.4786,0,0.8667,-0.388,0.8667,-0.8667V4.8667c0,-0.4786,-0.388,-0.8667,-0.8667,-0.8667H1.8667C1.388,4,1,4.388,1,4.8667zM29,25v2h-2v-2H29zM25,25v2h-2v-2H25zM21,25v2h-2v-2H21zM17,25v2h-2v-2H17zM13,25v2h-2v-2H13zM9,25v2H7v-2H9zM5,25v2H3v-2H5zM28.1667,8c0.4602,0,0.8333,0.3731,0.8333,0.8333v14.3333c0,0.4602,-0.3731,0.8333,-0.8333,0.8333H17.8333c-0.4602,0,-0.8333,-0.3731,-0.8333,-0.8333V8.8333c0,-0.4602,0.3731,-0.8333,0.8333,-0.8333H28.1667zM14.1667,8c0.4602,0,0.8333,0.3731,0.8333,0.8333v14.3333c0,0.4602,-0.3731,0.8333,-0.8333,0.8333H3.8333c-0.4602,0,-0.8333,-0.3731,-0.8333,-0.8333V8.8333C3,8.3731,3.3731,8,3.8333,8H14.1667zM29,5v2h-2V5H29zM25,5v2h-2V5H25zM21,5v2h-2V5H21zM17,5v2h-2V5H17zM13,5v2h-2V5H13zM9,5v2H7V5H9zM5,5v2H3V5H5z" fill-rule="evenodd" fill="#797979"/>
    <path d="M5,25v2H3v-2H5zM7,25v2h2v-2H7zM11,25v2h2v-2H11zM15,25v2h2v-2H15zM19,25v2h2v-2H19zM23,25v2h2v-2H23zM27,25v2h2v-2H27zM5,5v2H3V5H5zM7,5v2h2V5H7zM11,5v2h2V5H11zM15,5v2h2V5H15zM19,5v2h2V5H19zM23,5v2h2V5H23zM27,5v2h2V5H27zM14.1667,8H3.8333C3.3731,8,3,8.3731,3,8.8333v14.3333c0,0.4602,0.3731,0.8333,0.8333,0.8333h10.3333c0.4602,0,0.8333,-0.3731,0.8333,-0.8333V8.8333C15,8.3731,14.6269,8,14.1667,8zM28.1667,8H17.8333c-0.4602,0,-0.8333,0.3731,-0.8333,0.8333v14.3333c0,0.4602,0.3731,0.8333,0.8333,0.8333h10.3333c0.4602,0,0.8333,-0.3731,0.8333,-0.8333V8.8333C29,8.3731,28.6269,8,28.1667,8z" fill-rule="evenodd" fill="#FFFFFF"/>
  </g>
</svg>
