<?xml version="1.0" encoding="UTF-8"?>
<!DOCTYPE svg PUBLIC "-//W3C//DTD SVG 1.1//EN" "http://www.w3.org/Graphics/SVG/1.1/DTD/svg11.dtd">
<svg version="1.1" id="Layer_1" xmlns="http://www.w3.org/2000/svg" xmlns:xlink="http://www.w3.org/1999/xlink" x="0px" y="0px" width="16px" height="16px" viewBox="0 0 16 16" enable-background="new 0 0 16 16" xml:space="preserve">
  <g id="main">
    <g id="icon">
      <path d="M3.698,1.53L3.416,1.618L3.161,1.756L2.939,1.939L2.756,2.161L2.618,2.416L2.53,2.698L2.5,3L2.5,13L2.53,13.3L2.618,13.58L2.756,13.84L2.939,14.06L3.161,14.24L3.416,14.38L3.698,14.47L4,14.5L8,14.5L8,11.15L8.025,10.82L8.099,10.5L8.376,9.918L8.801,9.451L9.343,9.126L9.343,8.227L9.407,7.577L9.591,6.972L9.883,6.424L10.27,5.946L10.74,5.552L11.27,5.254L11.86,5.066L12.5,5L13.14,5.066L13.5,5.181L13.5,3L13.47,2.698L13.38,2.416L13.24,2.161L13.06,1.939L12.84,1.756L12.58,1.618L12.3,1.53L12,1.5L4,1.5zM12.36,8.058L12.3,8.227L12.3,8.966L12.7,8.966L12.7,8.227L12.64,8.058L12.5,7.987zz" fill="#262626"/>
      <path d="M3.597,1.041L3.222,1.157L2.883,1.342L2.587,1.587L2.342,1.883L2.157,2.222L2.041,2.597L2,3L2,13L2.041,13.4L2.157,13.78L2.342,14.12L2.587,14.41L2.883,14.66L3.222,14.84L3.597,14.96L4,15L8.027,15L8,14.81L8,14L4,14L3.611,13.92L3.293,13.71L3.079,13.39L3,13L3,3L3.079,2.611L3.293,2.293L3.611,2.079L4,2L12,2L12.39,2.079L12.71,2.293L12.92,2.611L13,3L13,5.052L13.14,5.066L13.73,5.254L14,5.405L14,3L13.96,2.597L13.84,2.222L13.66,1.883L13.41,1.587L13.12,1.342L12.78,1.157L12.4,1.041L12,1L4,1zz" fill="#d4d4d4"/>
      <path d="M4.305,6.039L4.146,6.146L4.039,6.305L4,6.5L4.039,6.695L4.146,6.854L4.305,6.961L4.5,7L6.5,7L6.695,6.961L6.854,6.854L6.961,6.695L7,6.5L6.961,6.305L6.854,6.146L6.695,6.039L6.5,6L4.5,6zM9.305,6.039L9.146,6.146L9.039,6.305L9,6.5L9.039,6.695L9.146,6.854L9.305,6.961L9.5,7L9.583,7L9.591,6.972L9.883,6.424L10.23,6L9.5,6zM4.305,8.039L4.146,8.146L4.039,8.305L4,8.5L4.039,8.695L4.146,8.854L4.305,8.961L4.5,9L7.5,9L7.695,8.961L7.854,8.854L7.961,8.695L8,8.5L7.961,8.305L7.854,8.146L7.695,8.039L7.5,8L4.5,8zM9.305,8.039L9.146,8.146L9.039,8.305L9,8.5L9.039,8.695L9.146,8.854L9.305,8.961L9.343,8.968L9.343,8.227L9.363,8.028zM4.305,10.04L4.146,10.15L4.039,10.31L4,10.5L4.039,10.69L4.146,10.85L4.305,10.96L4.5,11L6.5,11L6.695,10.96L6.854,10.85L6.961,10.69L7,10.5L6.961,10.31L6.854,10.15L6.695,10.04L6.5,10L4.5,10zz" fill="#d4d4d4"/>
      <path d="M4.305,3.039L4.146,3.146L4.039,3.305L4,3.5L4,4.5L4.039,4.695L4.146,4.854L4.305,4.961L4.5,5L11.5,5L11.69,4.961L11.85,4.854L11.96,4.695L12,4.5L12,3.5L11.96,3.305L11.85,3.146L11.69,3.039L11.5,3L4.5,3zz" fill="#d4d4d4"/>
    </g>
    <g id="overlay">
      <path d="M14.563,15.5063h-4.1931c-0.4925,0,-0.8917,-0.3992,-0.8917,-0.8917v-3.1936c0,-0.4925,0.3992,-0.8917,0.8917,-0.8917h4.1931c0.4925,0,0.8917,0.3992,0.8917,0.8917v3.1936C15.4546,15.1071,15.0554,15.5063,14.563,15.5063z" fill="#262626"/>
      <ellipse cx="12.5" cy="12.9505" rx="0.8228" ry="0.8495" fill="#fcd34d"/>
      <path d="M10.1497,16C9.5157,16,9,15.4675,9,14.813v-3.6597c0,-0.6545,0.5157,-1.187,1.1497,-1.187h0.1934V8.2269C10.343,6.999,11.3106,6,12.5,6c1.1894,0,2.157,0.999,2.157,2.2269v1.7395h0.1933c0.634,0,1.1497,0.5325,1.1497,1.187v3.6597c0,0.6545,-0.5157,1.187,-1.1497,1.187H10.1497zM10.1497,10.9538c-0.1066,0,-0.1933,0.0895,-0.1933,0.1996v3.6597c0,0.1101,0.0867,0.1996,0.1933,0.1996h4.7006c0.1066,0,0.1934,-0.0895,0.1934,-0.1996v-3.6597c0,-0.1101,-0.0868,-0.1996,-0.1934,-0.1996H10.1497zM13.7006,9.9664V8.2269c0,-0.6835,-0.5386,-1.2395,-1.2006,-1.2395c-0.662,0,-1.2006,0.5561,-1.2006,1.2395v1.7395H13.7006z" fill="#fcd34d"/>
    </g>
  </g>
</svg>
