<?xml version="1.0" encoding="UTF-8"?>
<!DOCTYPE svg PUBLIC "-//W3C//DTD SVG 1.1//EN" "http://www.w3.org/Graphics/SVG/1.1/DTD/svg11.dtd">
<svg version="1.1" id="Layer_1" xmlns="http://www.w3.org/2000/svg" xmlns:xlink="http://www.w3.org/1999/xlink" x="0px" y="0px" width="16px" height="16px" viewBox="0 0 16 16" enable-background="new 0 0 16 16" xml:space="preserve">
  <g id="icon">
    <path d="M13.2,13.5H2.8c-0.715,0,-1.3,-0.585,-1.3,-1.3V3.8c0,-0.715,0.585,-1.3,1.3,-1.3h10.4c0.715,0,1.3,0.585,1.3,1.3v8.4C14.5,12.915,13.915,13.5,13.2,13.5z" fill="#262626"/>
    <path d="M13.2,2H2.8c-0.9925,0,-1.8,0.8075,-1.8,1.8v0.7v1v6.7c0,0.9925,0.8075,1.8,1.8,1.8h10.4c0.9925,0,1.8,-0.8075,1.8,-1.8V5.5V4.5v-0.7C15,2.8075,14.1925,2,13.2,2zM2.8,3h10.4c0.4411,0,0.8,0.3589,0.8,0.8v0.2H2v-0.2C2,3.3589,2.3589,3,2.8,3zM13.2,13H2.8c-0.4411,0,-0.8,-0.3589,-0.8,-0.8V6h12v6.2C14,12.6411,13.6411,13,13.2,13z" fill="#d4d4d4"/>
    <path d="M12.479,9.2628c-0.0004,-0.6824,-0.2541,-1.3278,-0.696,-1.7705c-0.3517,-0.3524,-0.7984,-0.5471,-1.258,-0.5483c-0.4596,-0.0012,-0.9061,0.1912,-1.2574,0.5418C8.971,7.7818,8.76,8.1701,8.6533,8.6h-4.696c0,0,-0.2499,0.0835,-0.3409,0.1744c-0.0911,0.0909,-0.1412,0.2119,-0.1164,0.3408v0.3277c-0.0241,0.1286,0.026,0.2496,0.1169,0.3406C3.6859,9.8527,3.8,9.9165,3.8,9.9165l0.0005,0.8343c0.0001,0.193,0.1564,0.3495,0.3494,0.35l0.3987,0.001c0.1939,0.0005,0.3513,-0.1566,0.3512,-0.3505L4.8994,10.1L5.4,10.1013l0.0004,0.6495c0.0001,0.193,0.1564,0.3496,0.3494,0.35l0.3988,0.001c0.1939,0.0005,0.3513,-0.1566,0.3512,-0.3505L6.4992,9.9l2.1548,0.0057c0.1072,0.4305,0.3187,0.8199,0.6157,1.1175c0.3517,0.3524,0.7984,0.5471,1.258,0.5483c0.4596,0.0012,0.9061,-0.1912,1.2574,-0.5418C12.2266,10.5893,12.4794,9.9452,12.479,9.2628zM10.4697,10.5807c-0.1953,-0.0005,-0.3823,-0.0848,-0.5409,-0.2437c-0.2455,-0.246,-0.3864,-0.6261,-0.3867,-1.0427c-0.0003,-0.4167,0.1402,-0.7959,0.3852,-1.0405c0.1584,-0.1581,0.3453,-0.2414,0.5405,-0.2408c0.1952,0.0005,0.3823,0.0848,0.5409,0.2437c0.2455,0.246,0.3864,0.626,0.3866,1.0427c0.0003,0.4167,-0.1402,0.7959,-0.3852,1.0405C10.8518,10.4979,10.6648,10.5812,10.4697,10.5807z" fill="#fcd34d"/>
  </g>
</svg>
