<?xml version="1.0" encoding="UTF-8"?>
<!DOCTYPE svg PUBLIC "-//W3C//DTD SVG 1.1//EN" "http://www.w3.org/Graphics/SVG/1.1/DTD/svg11.dtd">
<svg version="1.1" id="Layer_1" xmlns="http://www.w3.org/2000/svg" xmlns:xlink="http://www.w3.org/1999/xlink" x="0px" y="0px" width="16px" height="16px" viewBox="0 0 16 16" enable-background="new 0 0 16 16" xml:space="preserve">
  <g id="main">
    <g id="icon">
      <path d="M3.146,2.583L2.81,2.81L2.583,3.146L2.5,3.558L2.5,13.32L2.592,13.78L2.844,14.16L3.218,14.41L3.675,14.5L7.566,14.5L7.983,14.46L8.165,14.4L8.147,14.39L7.48,13.84L6.93,13.18L6.514,12.41L6.252,11.57L6.16,10.66L6.252,9.756L6.514,8.911L6.93,8.146L7.48,7.48L8.147,6.93L8.911,6.514L9.756,6.252L10.66,6.16L11.57,6.252L12.41,6.514L12.5,6.562L12.5,3.558L12.42,3.146L12.19,2.81L11.85,2.583L11.44,2.5L3.558,2.5zz" fill="#262626"/>
      <path d="M3.805,1.039L3.646,1.146L3.539,1.305L3.5,1.5L3.5,2L3.198,2.03L2.916,2.118L2.661,2.256L2.439,2.439L2.256,2.661L2.118,2.916L2.03,3.198L2,3.5L2,13.5L2.03,13.8L2.118,14.08L2.256,14.34L2.439,14.56L2.661,14.74L2.916,14.88L3.198,14.97L3.5,15L8.086,15L8.38,14.97L8.66,14.89L8.858,14.78L8.147,14.39L7.67,14L3.5,14L3.305,13.96L3.146,13.85L3.039,13.69L3,13.5L3,3.5L3.039,3.305L3.146,3.146L3.305,3.039L3.5,3L11.5,3L11.69,3.039L11.85,3.146L11.96,3.305L12,3.5L12,6.386L12.41,6.514L13,6.833L13,3.5L12.97,3.198L12.88,2.916L12.74,2.661L12.56,2.439L12.34,2.256L12.08,2.118L11.8,2.03L11.5,2L11.5,1.5L11.46,1.305L11.35,1.146L11.19,1.039L11,1L10.81,1.039L10.65,1.146L10.54,1.305L10.5,1.5L10.5,2L8,2L8,1.5L7.961,1.305L7.854,1.146L7.695,1.039L7.5,1L7.305,1.039L7.146,1.146L7.039,1.305L7,1.5L7,2L4.5,2L4.5,1.5L4.461,1.305L4.354,1.146L4.195,1.039L4,1zM4.805,5.039L4.646,5.146L4.539,5.305L4.5,5.5L4.539,5.695L4.646,5.854L4.805,5.961L5,6L10,6L10.19,5.961L10.35,5.854L10.46,5.695L10.5,5.5L10.46,5.305L10.35,5.146L10.19,5.039L10,5L5,5zM4.805,7.039L4.646,7.146L4.539,7.305L4.5,7.5L4.539,7.695L4.646,7.854L4.805,7.961L5,8L7.051,8L7.48,7.48L8.062,7L5,7zM4.805,9.039L4.646,9.146L4.539,9.305L4.5,9.5L4.539,9.695L4.646,9.854L4.805,9.961L5,10L6.227,10L6.252,9.756L6.487,9L5,9zM4.805,11.04L4.646,11.15L4.539,11.31L4.5,11.5L4.539,11.69L4.646,11.85L4.805,11.96L5,12L6,12L6.195,11.96L6.343,11.86L6.252,11.57L6.198,11.04L6.195,11.04L6,11L5,11zz" fill="#d4d4d4"/>
    </g>
    <g id="overlay">
      <circle cx="10.6705" cy="10.6704" r="3.032" fill="#262626"/>
      <path d="M15.5128,16c-0.1302,0,-0.2526,-0.0507,-0.3447,-0.1428l-2.3986,-2.3985c-0.6103,0.4613,-1.3383,0.7049,-2.1076,0.7049c-1.931,0,-3.5019,-1.5709,-3.5019,-3.5018S8.731,7.16,10.662,7.16s3.5019,1.5709,3.5019,3.5018c0,0.7694,-0.2436,1.4973,-0.7049,2.1076l2.3986,2.3985c0.19,0.1901,0.19,0.4993,0,0.6893C15.7654,15.9493,15.643,16,15.5128,16zM10.662,8.1348c-1.3935,0,-2.5271,1.1336,-2.5271,2.527s1.1337,2.527,2.5271,2.527s2.5271,-1.1336,2.5271,-2.527S12.0554,8.1348,10.662,8.1348z" fill="#06b6d4"/>
    </g>
  </g>
</svg>
