<?xml version="1.0" encoding="UTF-8"?>
<!DOCTYPE svg PUBLIC "-//W3C//DTD SVG 1.1//EN" "http://www.w3.org/Graphics/SVG/1.1/DTD/svg11.dtd">
<svg version="1.1" id="Layer_1" xmlns="http://www.w3.org/2000/svg" xmlns:xlink="http://www.w3.org/1999/xlink" x="0px" y="0px" width="16px" height="16px" viewBox="0 0 16 16" enable-background="new 0 0 16 16" xml:space="preserve">
  <g id="main">
    <g id="icon">
      <path d="M4.698,1.53L4.416,1.618L4.161,1.756L3.939,1.939L3.756,2.161L3.618,2.416L3.53,2.698L3.5,3L3.5,5.213L3.99,5.129L4.496,5.1L5.401,5.192L6.245,5.455L7.008,5.871L7.674,6.422L8.224,7.089L8.61,7.801L9.264,5.996L9.27,5.979L9.504,5.581L9.836,5.276L10.24,5.081L10.7,5.013L14.5,5.013L14.5,3L14.47,2.698L14.38,2.416L14.24,2.161L14.06,1.939L13.84,1.756L13.58,1.618L13.3,1.53L13,1.5L5,1.5zM3.875,6.563L3.293,6.744L2.767,7.029L2.308,7.408L1.929,7.867L1.644,8.393L1.463,8.975L1.4,9.6L1.428,10.02L1.508,10.41L1.638,10.79L1.813,11.15L2.286,11.77L2.9,12.26L2.9,14.2L6.1,14.2L6.1,12.26L6.714,11.77L7.187,11.15L7.362,10.79L7.492,10.41L7.572,10.02L7.6,9.6L7.537,8.975L7.356,8.393L7.071,7.867L6.692,7.408L6.233,7.029L5.707,6.744L5.125,6.563L4.5,6.5zM8.175,12.2L7.568,12.9L7.582,13.5L8.897,13.5L9.089,12.43L8.851,12.43L8.824,12.43L8.518,12.37L8.234,12.24L8.18,12.19zz" id="b" fill="#171717"/>
      <path d="M4.597,1.041L4.222,1.157L3.883,1.342L3.587,1.587L3.342,1.883L3.157,2.222L3.041,2.597L3,3L3,5.358L3.489,5.215L4,5.128L4,3L4.079,2.611L4.293,2.293L4.611,2.079L5,2L13,2L13.39,2.079L13.71,2.293L13.92,2.611L14,3L14,5.013L14.57,5.013L14.88,5.05L15,5.094L15,3L14.96,2.597L14.84,2.222L14.66,1.883L14.41,1.587L14.12,1.342L13.78,1.157L13.4,1.041L13,1L5,1zM5.305,3.039L5.146,3.146L5.039,3.305L5,3.5L5,5.129L5.598,5.238L6.166,5.423L6.698,5.679L7.189,6L9.262,6L9.264,5.996L9.27,5.979L9.504,5.581L9.836,5.276L10.24,5.081L10.7,5.013L13,5.013L13,3.5L12.96,3.305L12.85,3.146L12.69,3.039L12.5,3L5.5,3zM12,4L12,5L6,5L6,4zM8.459,7.481L8.608,7.807L8.9,7L8.161,7zM13.31,13.97L13.4,13.96L13.78,13.84L14.12,13.66L14.41,13.41L14.66,13.12L14.84,12.78L14.96,12.4L14.99,12.1zM7.593,14L8.808,14L8.987,13L7.571,13zz" fill="#d4d4d4"/>
      <path d="M3.796,6.172L3.139,6.377L2.545,6.703L2.026,7.133L1.599,7.655L1.275,8.253L1.071,8.914L1,9.623L1.093,10.44L1.363,11.19L1.798,11.86L2.386,12.43L2.349,14.08L2.349,14.11L2.43,14.48L2.659,14.78L2.913,14.93L3.201,14.98L3.37,14.96L3.392,14.95L4.5,14.43L5.615,14.96L5.63,14.96L5.799,14.98L6.087,14.93L6.341,14.78L6.57,14.48L6.651,14.11L6.651,14.08L6.614,12.43L7.202,11.86L7.577,11.28L7.545,11.16L7.542,10.85L7.613,10.55L7.989,9.515L7.929,8.914L7.725,8.253L7.401,7.655L6.974,7.133L6.455,6.703L5.861,6.377L5.204,6.172L4.5,6.1zM5.013,7.117L5.49,7.266L5.923,7.502L6.3,7.815L6.611,8.194L6.846,8.628L6.995,9.108L7.047,9.623L6.995,10.14L6.846,10.62L6.611,11.05L6.3,11.43L5.923,11.74L5.49,11.98L5.013,12.13L4.5,12.18L3.987,12.13L3.51,11.98L3.077,11.74L2.7,11.43L2.389,11.05L2.154,10.62L2.005,10.14L1.953,9.623L2.005,9.108L2.154,8.628L2.389,8.194L2.7,7.815L3.077,7.502L3.51,7.266L3.987,7.117L4.5,7.065zM3.891,13.09L4.5,13.15L5.109,13.09L5.698,12.93L5.7,13.95L4.683,13.47L4.668,13.47L4.5,13.45L4.332,13.47L4.311,13.48L3.3,13.95L3.302,12.93zz" fill="#d4d4d4"/>
    </g>
    <g id="overlay">
      <path d="M9.5777,15.3773l0.0027,-0.0134l0.7022,-3.9293l-1.4019,-0.0044c-0.1984,-0.0113,-0.4016,-0.3542,-0.3319,-0.524l1.6494,-4.5539c0.0729,-0.1813,0.2531,-0.3393,0.4988,-0.3393h3.8739c0.1071,0,0.2044,0.0493,0.2669,0.1352c0.0582,0.0799,0.0766,0.178,0.0516,0.2722l-1.7094,2.6039h2.4899c0.2023,0,0.2831,0.152,0.3031,0.1986c0.0199,0.0466,0.0741,0.2098,-0.0667,0.3535l-0.0092,0.0098l-5.5594,6.2034C9.9945,16.176,9.4619,16.0254,9.5777,15.3773z" id="c2" fill="#d4d4d4"/>
    </g>
  </g>
</svg>
