<?xml version="1.0" encoding="UTF-8"?>
<!DOCTYPE svg PUBLIC "-//W3C//DTD SVG 1.1//EN" "http://www.w3.org/Graphics/SVG/1.1/DTD/svg11.dtd">
<svg version="1.1" id="Layer_1" xmlns="http://www.w3.org/2000/svg" xmlns:xlink="http://www.w3.org/1999/xlink" x="0px" y="0px" width="16px" height="16px" viewBox="0 0 16 16" enable-background="new 0 0 16 16" xml:space="preserve">
  <g id="icon">
    <path d="M12.725,14.5h-9.35C2.229,14.5,1.5,13.771,1.5,12.625v-8.25C1.5,3.229,2.229,2.5,3.375,2.5h9.35C13.871,2.5,14.6,3.229,14.6,4.375v8.25C14.6,13.771,13.871,14.5,12.725,14.5z" fill="#262626"/>
    <path d="M3.3,2c-1.3807,0,-2.3,0.9193,-2.3,2.3v8.4c0,1.3807,0.9193,2.3,2.3,2.3h9.4c1.3807,0,2.3,-0.9193,2.3,-2.3V4.3c0,-1.3807,-0.9193,-2.3,-2.3,-2.3H3.3zM14,4H2v0.3c0,-0.8284,0.4716,-1.3,1.3,-1.3h9.4c0.8284,0,1.3,0.4716,1.3,1.3V4zM2,5h12v7.7c0,0.8284,-0.4716,1.3,-1.3,1.3H3.3c-0.8284,0,-1.3,-0.4716,-1.3,-1.3V5z" fill="#d4d4d4"/>
    <path d="M5,7.5c0,-0.2761,-0.2239,-0.5,-0.5,-0.5H3.5c-0.2761,0,-0.5,0.2239,-0.5,0.5s0.2239,0.5,0.5,0.5h1C4.7761,8,5,7.7761,5,7.5zM13,7.5c0,-0.2761,-0.2239,-0.5,-0.5,-0.5H6.5c-0.2761,0,-0.5,0.2239,-0.5,0.5s0.2239,0.5,0.5,0.5h6C12.7761,8,13,7.7761,13,7.5zM5,9.5c0,-0.2761,-0.2239,-0.5,-0.5,-0.5H3.5c-0.2761,0,-0.5,0.2239,-0.5,0.5s0.2239,0.5,0.5,0.5h1C4.7761,10,5,9.7761,5,9.5zM13,9.5c0,-0.2761,-0.2239,-0.5,-0.5,-0.5H6.5c-0.2761,0,-0.5,0.2239,-0.5,0.5s0.2239,0.5,0.5,0.5h6C12.7761,10,13,9.7761,13,9.5zM5,11.5c0,-0.2761,-0.2239,-0.5,-0.5,-0.5H3.5c-0.2761,0,-0.5,0.2239,-0.5,0.5s0.2239,0.5,0.5,0.5h1C4.7761,12,5,11.7761,5,11.5zM13,11.5c0,-0.2761,-0.2239,-0.5,-0.5,-0.5H6.5c-0.2761,0,-0.5,0.2239,-0.5,0.5s0.2239,0.5,0.5,0.5h6C12.7761,12,13,11.7761,13,11.5z" fill="#d4d4d4"/>
  </g>
</svg>
