<?xml version="1.0" encoding="UTF-8"?>
<!DOCTYPE svg PUBLIC "-//W3C//DTD SVG 1.1//EN" "http://www.w3.org/Graphics/SVG/1.1/DTD/svg11.dtd">
<svg version="1.1" id="Layer_1" xmlns="http://www.w3.org/2000/svg" xmlns:xlink="http://www.w3.org/1999/xlink" x="0px" y="0px" width="16px" height="16px" viewBox="0 0 16 16" enable-background="new 0 0 16 16" xml:space="preserve">
  <g id="main">
    <g id="icon">
      <path d="M3.698,1.53L3.416,1.618L3.161,1.756L2.939,1.939L2.756,2.161L2.618,2.416L2.53,2.698L2.5,3L2.5,13L2.53,13.3L2.618,13.58L2.756,13.84L2.939,14.06L3.161,14.24L3.416,14.38L3.698,14.47L4,14.5L8.342,14.5L8.147,14.39L7.48,13.84L6.93,13.18L6.514,12.41L6.252,11.57L6.16,10.66L6.252,9.756L6.514,8.911L6.93,8.146L7.48,7.48L8.147,6.93L8.911,6.514L9.756,6.252L10.66,6.16L11.57,6.252L12.41,6.514L13.18,6.93L13.5,7.196L13.5,3L13.47,2.698L13.38,2.416L13.24,2.161L13.06,1.939L12.84,1.756L12.58,1.618L12.3,1.53L12,1.5L4,1.5zz" fill="#262626"/>
      <path d="M3.597,1.041L3.222,1.157L2.883,1.342L2.587,1.587L2.342,1.883L2.157,2.222L2.041,2.597L2,3L2,13L2.041,13.4L2.157,13.78L2.342,14.12L2.587,14.41L2.883,14.66L3.222,14.84L3.597,14.96L4,15L9.524,15L8.911,14.81L8.147,14.39L7.67,14L4,14L3.611,13.92L3.293,13.71L3.079,13.39L3,13L3,3L3.079,2.611L3.293,2.293L3.611,2.079L4,2L12,2L12.39,2.079L12.71,2.293L12.92,2.611L13,3L13,6.833L13.18,6.93L13.84,7.48L14,7.669L14,3L13.96,2.597L13.84,2.222L13.66,1.883L13.41,1.587L13.12,1.342L12.78,1.157L12.4,1.041L12,1L4,1zM12.15,14.91L11.85,15L12,15L12.4,14.96L12.75,14.85L12.62,14.72zz" fill="#d4d4d4"/>
      <path d="M4.305,6.039L4.146,6.146L4.039,6.305L4,6.5L4.039,6.695L4.146,6.854L4.305,6.961L4.5,7L6.5,7L6.695,6.961L6.854,6.854L6.961,6.695L7,6.5L6.961,6.305L6.854,6.146L6.695,6.039L6.5,6L4.5,6zM9.305,6.039L9.146,6.146L9.039,6.305L9.003,6.486L9.756,6.252L10.66,6.16L11.57,6.252L11.98,6.378L11.96,6.305L11.85,6.146L11.69,6.039L11.5,6L9.5,6zM4.305,8.039L4.146,8.146L4.039,8.305L4,8.5L4.039,8.695L4.146,8.854L4.305,8.961L4.5,9L6.487,9L6.514,8.911L6.93,8.146L7.051,8L4.5,8zM4.305,10.04L4.146,10.15L4.039,10.31L4,10.5L4.039,10.69L4.146,10.85L4.305,10.96L4.5,11L6.194,11L6.16,10.66L6.227,10L4.5,10zz" fill="#d4d4d4"/>
      <path d="M4.305,3.039L4.146,3.146L4.039,3.305L4,3.5L4,4.5L4.039,4.695L4.146,4.854L4.305,4.961L4.5,5L11.5,5L11.69,4.961L11.85,4.854L11.96,4.695L12,4.5L12,3.5L11.96,3.305L11.85,3.146L11.69,3.039L11.5,3L4.5,3zz" fill="#d4d4d4"/>
    </g>
    <g id="overlay">
      <circle cx="10.6705" cy="10.6704" r="3.032" fill="#171717"/>
      <path d="M15.5128,16c-0.1302,0,-0.2526,-0.0507,-0.3447,-0.1428l-2.3986,-2.3985c-0.6103,0.4613,-1.3383,0.7049,-2.1076,0.7049c-1.931,0,-3.5019,-1.5709,-3.5019,-3.5018S8.731,7.16,10.662,7.16s3.5019,1.5709,3.5019,3.5018c0,0.7694,-0.2436,1.4973,-0.7049,2.1076l2.3986,2.3985c0.19,0.1901,0.19,0.4993,0,0.6893C15.7654,15.9493,15.643,16,15.5128,16zM10.662,8.1348c-1.3935,0,-2.5271,1.1336,-2.5271,2.527s1.1337,2.527,2.5271,2.527s2.5271,-1.1336,2.5271,-2.527S12.0554,8.1348,10.662,8.1348z" fill="#06b6d4"/>
    </g>
  </g>
</svg>
