<?xml version="1.0" encoding="UTF-8"?>
<!DOCTYPE svg PUBLIC "-//W3C//DTD SVG 1.1//EN" "http://www.w3.org/Graphics/SVG/1.1/DTD/svg11.dtd">
<svg version="1.1" id="Layer_1" xmlns="http://www.w3.org/2000/svg" xmlns:xlink="http://www.w3.org/1999/xlink" x="0px" y="0px" width="16px" height="16px" viewBox="0 0 16 16" enable-background="new 0 0 16 16" xml:space="preserve">
  <g id="main">
    <g id="icon">
      <path d="M7.336,1.635L6.682,1.739L6.623,1.799L6.339,3.372L6.293,3.546L6.131,3.844L5.893,4.075L5.598,4.224L5.265,4.277L4.898,4.212L3.405,3.674L3.379,3.67L3.323,3.695L2.902,4.217L2.541,4.776L2.241,5.369L2.004,5.995L2.026,6.074L3.236,7.109L3.362,7.236L3.57,7.612L3.618,8.039L3.502,8.454L3.236,8.79L2.026,9.826L2.004,9.905L2.241,10.53L2.541,11.12L2.902,11.68L3.323,12.21L3.379,12.23L3.405,12.23L4.898,11.69L5.069,11.64L5.266,11.62L5.643,11.69L5.964,11.88L6.028,11.95L6,11.5L6.029,10.94L6.112,10.39L6.248,9.866L6.433,9.361L6.584,9.049L6.567,9.028L6.407,8.73L6.306,8.402L6.271,8.05L6.306,7.698L6.407,7.37L6.567,7.072L6.778,6.813L7.034,6.599L7.328,6.438L7.652,6.336L8,6.3L8.348,6.336L8.672,6.438L8.966,6.599L8.984,6.615L9.361,6.433L9.866,6.248L10.39,6.112L10.94,6.029L11.5,6L12.19,6.043L12.85,6.167L13.48,6.368L13.58,6.414L13.97,6.074L14,5.995L13.76,5.369L13.46,4.776L13.1,4.217L12.68,3.695L12.62,3.67L12.59,3.674L11.1,4.213L10.93,4.259L10.73,4.277L10.36,4.209L10.04,4.021L9.795,3.735L9.661,3.373L9.376,1.799L9.318,1.739L8.664,1.635L8,1.6zM6.623,14.1L6.682,14.16L6.696,14.16L6.641,14.07L6.604,13.99zz" id="b" fill="#171717"/>
      <path d="M7.26,1.047L6.531,1.161L6.354,1.258L6.262,1.437L5.957,3.104L5.919,3.245L5.786,3.49L5.588,3.679L5.343,3.8L5.067,3.844L4.762,3.791L3.162,3.221L3.045,3.201L2.904,3.23L2.788,3.314L2.318,3.889L1.916,4.504L1.581,5.158L1.317,5.847L1.313,6.047L1.422,6.216L2.72,7.313L2.824,7.416L2.996,7.724L3.036,8.073L2.94,8.412L2.72,8.687L1.422,9.784L1.313,9.953L1.317,10.15L1.581,10.84L1.916,11.5L2.318,12.11L2.788,12.69L2.904,12.77L3.045,12.8L3.162,12.78L4.763,12.21L4.905,12.17L5.068,12.16L5.38,12.21L5.647,12.37L5.847,12.6L5.957,12.9L6.262,14.56L6.354,14.74L6.531,14.84L7.231,14.95L6.98,14.63L6.641,14.07L6.368,13.48L6.167,12.85L6.043,12.19L6,11.5L6.007,11.36L5.738,11.24L5.413,11.15L5.069,11.12L4.72,11.15L4.415,11.23L3.264,11.64L3.232,11.6L2.816,10.98L2.481,10.31L2.461,10.26L3.389,9.479L3.656,9.203L3.862,8.886L4.001,8.535L4.069,8.157L4.063,7.774L3.983,7.405L3.832,7.059L3.612,6.744L3.389,6.521L2.461,5.737L2.481,5.689L2.816,5.021L3.232,4.398L3.264,4.357L4.415,4.767L4.737,4.852L5.067,4.88L5.658,4.787L6.184,4.526L6.608,4.12L6.895,3.595L6.977,3.29L7.195,2.097L7.246,2.091L8,2.044L8.753,2.091L8.804,2.097L9.023,3.29L9.115,3.623L9.261,3.927L9.454,4.198L9.689,4.43L9.96,4.62L10.26,4.761L10.59,4.849L10.93,4.88L11.28,4.848L11.58,4.767L12.74,4.357L12.77,4.398L13.18,5.021L13.52,5.689L13.54,5.737L12.98,6.21L13.48,6.368L14.07,6.641L14.07,6.641L14.58,6.216L14.69,6.047L14.68,5.847L14.42,5.158L14.08,4.504L13.68,3.889L13.21,3.314L13.1,3.23L12.95,3.201L12.84,3.221L11.24,3.791L11.1,3.829L10.93,3.843L10.62,3.788L10.35,3.634L10.15,3.4L10.04,3.104L9.737,1.437L9.645,1.258L9.468,1.161L8.74,1.047L8,1.008zM7.587,5.992L7.203,6.112L6.854,6.301L6.551,6.551L6.301,6.855L6.111,7.203L5.992,7.588L5.95,8L5.992,8.413L6.111,8.797L6.301,9.146L6.45,9.326L6.665,8.88L6.941,8.427L7.022,8.319L6.957,8L7.039,7.595L7.263,7.263L7.594,7.039L8,6.957L8.318,7.022L8.427,6.941L8.88,6.665L9.326,6.45L9.145,6.301L8.797,6.112L8.412,5.992L8,5.95zz" fill="#d4d4d4"/>
    </g>
    <g id="overlay">
      <path d="M10.9375,13.1125c-0.1055,0,-0.2058,-0.0331,-0.2902,-0.0957l-0.0506,-0.0432l-1.1289,-1.1289c-0.0921,-0.092,-0.1428,-0.2145,-0.1428,-0.3447s0.0507,-0.2526,0.1428,-0.3447c0.092,-0.0921,0.2145,-0.1428,0.3447,-0.1428c0.1055,0,0.2058,0.0331,0.2902,0.0957l0.0085,0.0068l0.0421,0.0363l0.7842,0.7842l1.9053,-1.9053c0.092,-0.0921,0.2145,-0.1428,0.3447,-0.1428s0.2526,0.0507,0.3447,0.1428c0.1696,0.1696,0.1898,0.4425,0.0471,0.6349l-0.0432,0.0506l-2.2539,2.2539C11.1902,13.0618,11.0678,13.1125,10.9375,13.1125z" id="b" fill="#171717"/>
      <path d="M11.5,7c-2.4813,0,-4.5,2.0187,-4.5,4.5c0,2.4813,2.0187,4.5,4.5,4.5s4.5,-2.0187,4.5,-4.5C16,9.0187,13.9813,7,11.5,7zM13.5792,10.6652l-0.0432,0.0506l-2.2539,2.2539c-0.092,0.0921,-0.2144,0.1428,-0.3446,0.1428c-0.1055,0,-0.2058,-0.0331,-0.2902,-0.0957l-0.0506,-0.0432l-1.1289,-1.1289c-0.0921,-0.092,-0.1428,-0.2145,-0.1428,-0.3447s0.0507,-0.2526,0.1428,-0.3447c0.092,-0.0921,0.2145,-0.1428,0.3447,-0.1428c0.1055,0,0.2058,0.0331,0.2902,0.0957l0.0085,0.0068l0.0421,0.0363l0.7842,0.7842l1.9053,-1.9053c0.092,-0.0921,0.2145,-0.1428,0.3447,-0.1428s0.2526,0.0507,0.3447,0.1428C13.7018,10.1999,13.722,10.4728,13.5792,10.6652z" id="c3" fill="#6ee7b7"/>
    </g>
  </g>
</svg>
