<?xml version="1.0" encoding="UTF-8"?>
<!DOCTYPE svg PUBLIC "-//W3C//DTD SVG 1.1//EN" "http://www.w3.org/Graphics/SVG/1.1/DTD/svg11.dtd">
<svg version="1.1" id="Layer_1" xmlns="http://www.w3.org/2000/svg" xmlns:xlink="http://www.w3.org/1999/xlink" x="0px" y="0px" width="16px" height="16px" viewBox="0 0 16 16" enable-background="new 0 0 16 16" xml:space="preserve">
  <g id="main">
    <g id="icon">
      <path d="M7.336,1.635L6.682,1.739L6.623,1.799L6.339,3.372L6.293,3.546L6.131,3.844L5.893,4.075L5.598,4.224L5.265,4.277L4.898,4.212L3.405,3.674L3.379,3.67L3.323,3.695L2.902,4.217L2.541,4.776L2.241,5.369L2.004,5.995L2.026,6.074L3.236,7.109L3.362,7.236L3.57,7.612L3.618,8.039L3.502,8.454L3.236,8.79L2.026,9.826L2.004,9.905L2.241,10.53L2.541,11.12L2.902,11.68L3.323,12.21L3.379,12.23L3.405,12.23L4.898,11.69L5.069,11.64L5.266,11.62L5.643,11.69L5.964,11.88L6.205,12.17L6.339,12.53L6.576,13.84L9.131,9.363L8.966,9.501L8.672,9.662L8.348,9.764L8,9.8L7.652,9.764L7.328,9.662L7.034,9.501L6.778,9.287L6.567,9.028L6.407,8.73L6.306,8.402L6.271,8.05L6.306,7.698L6.407,7.37L6.567,7.072L6.778,6.813L7.034,6.599L7.328,6.438L7.652,6.336L8,6.3L8.348,6.336L8.672,6.438L8.966,6.599L9.222,6.813L9.433,7.072L9.593,7.369L9.693,7.698L9.729,8.05L9.696,8.372L9.951,7.927L10.23,7.541L10.6,7.249L11.04,7.064L11.52,7L12,7.064L12.43,7.249L12.57,7.356L12.76,7.11L13.97,6.074L14,5.995L13.76,5.369L13.46,4.776L13.1,4.217L12.68,3.695L12.62,3.67L12.59,3.674L11.1,4.213L10.93,4.259L10.73,4.277L10.36,4.209L10.04,4.021L9.795,3.735L9.661,3.373L9.376,1.799L9.318,1.739L8.664,1.635L8,1.6zz" id="b" fill="#171717"/>
      <path d="M7.26,1.047L6.531,1.161L6.354,1.258L6.262,1.437L5.957,3.104L5.919,3.245L5.786,3.49L5.588,3.679L5.343,3.8L5.067,3.844L4.762,3.791L3.162,3.221L3.045,3.201L2.904,3.23L2.788,3.314L2.318,3.889L1.916,4.504L1.581,5.158L1.317,5.847L1.313,6.047L1.422,6.216L2.72,7.313L2.824,7.416L2.996,7.724L3.036,8.073L2.94,8.412L2.72,8.687L1.422,9.784L1.313,9.953L1.317,10.15L1.581,10.84L1.916,11.5L2.318,12.11L2.788,12.69L2.904,12.77L3.045,12.8L3.162,12.78L4.763,12.21L4.905,12.17L5.068,12.16L5.38,12.21L5.647,12.37L5.847,12.6L5.957,12.9L6.239,14.43L6.243,14.42L6.258,14.4L7.036,13.03L6.977,12.71L6.885,12.38L6.739,12.07L6.546,11.8L6.311,11.57L6.04,11.38L5.738,11.24L5.413,11.15L5.069,11.12L4.72,11.15L4.415,11.23L3.264,11.64L3.232,11.6L2.816,10.98L2.481,10.31L2.461,10.26L3.389,9.479L3.656,9.203L3.862,8.886L4.001,8.535L4.069,8.157L4.063,7.774L3.983,7.405L3.832,7.059L3.612,6.744L3.389,6.521L2.461,5.737L2.481,5.689L2.816,5.021L3.232,4.398L3.264,4.357L4.415,4.767L4.737,4.852L5.067,4.88L5.658,4.787L6.184,4.526L6.608,4.12L6.895,3.595L6.977,3.29L7.195,2.097L7.246,2.091L8,2.044L8.753,2.091L8.804,2.097L9.023,3.29L9.115,3.623L9.261,3.927L9.454,4.198L9.689,4.43L9.96,4.62L10.26,4.761L10.59,4.849L10.93,4.88L11.28,4.848L11.58,4.767L12.74,4.357L12.77,4.398L13.18,5.021L13.52,5.689L13.54,5.737L12.61,6.521L12.34,6.797L12.14,7.114L12.13,7.122L12.43,7.249L12.8,7.541L13,7.805L13.06,7.588L13.28,7.313L14.58,6.216L14.69,6.047L14.68,5.847L14.42,5.158L14.08,4.504L13.68,3.889L13.21,3.314L13.1,3.23L12.95,3.201L12.84,3.221L11.24,3.791L11.1,3.829L10.93,3.843L10.62,3.788L10.35,3.634L10.15,3.4L10.04,3.104L9.737,1.437L9.645,1.258L9.468,1.161L8.74,1.047L8,1.008zM7.587,5.992L7.203,6.112L6.854,6.301L6.551,6.551L6.301,6.855L6.111,7.203L5.992,7.588L5.95,8L5.992,8.413L6.111,8.797L6.301,9.146L6.551,9.449L6.854,9.699L7.203,9.889L7.587,10.01L8,10.05L8.412,10.01L8.797,9.889L8.846,9.862L9.951,7.927L10.03,7.817L10.01,7.588L9.888,7.203L9.699,6.855L9.449,6.551L9.145,6.301L8.797,6.112L8.412,5.992L8,5.95zM8.405,7.039L8.737,7.263L8.961,7.595L9.043,8L8.961,8.406L8.737,8.737L8.405,8.961L8,9.043L7.595,8.961L7.263,8.737L7.039,8.406L6.957,8L7.039,7.595L7.263,7.263L7.594,7.039L8,6.957zM14.55,10.49L14.68,10.15L14.69,9.953L14.58,9.784L13.75,9.083zz" fill="#d4d4d4"/>
    </g>
    <g id="overlay">
      <path d="M11.5204,15.0607c-0.3586,0,-0.6504,-0.2918,-0.6504,-0.6505s0.2918,-0.6505,0.6504,-0.6505c0.3587,0,0.6505,0.2918,0.6505,0.6505S11.8791,15.0607,11.5204,15.0607zM11.5388,13.0616c-0.2757,0,-0.5,-0.2038,-0.5,-0.4542v-1.9262c0,-0.2504,0.2243,-0.4542,0.5,-0.4542s0.5,0.2038,0.5,0.4542v1.9262C12.0388,12.8579,11.8145,13.0616,11.5388,13.0616z" id="b" fill="#171717"/>
      <path d="M15.9122,14.8908l-3.6985,-6.4789c-0.1346,-0.254,-0.4006,-0.4118,-0.6943,-0.4118s-0.5597,0.1578,-0.6943,0.4118l-3.6985,6.4789c-0.126,0.2377,-0.1158,0.516,0.0272,0.7444c0.143,0.2284,0.3924,0.3648,0.6672,0.3648h7.397c0.2748,0,0.5242,-0.1364,0.6672,-0.3648C16.0281,15.4068,16.0382,15.1285,15.9122,14.8908zM11.0388,10.6812c0,-0.2504,0.2243,-0.4542,0.5,-0.4542s0.5,0.2038,0.5,0.4542v1.9262c0,0.2504,-0.2243,0.4542,-0.5,0.4542s-0.5,-0.2038,-0.5,-0.4542V10.6812zM11.5204,15.0607c-0.3586,0,-0.6504,-0.2918,-0.6504,-0.6505s0.2918,-0.6505,0.6504,-0.6505c0.3587,0,0.6505,0.2918,0.6505,0.6505S11.8791,15.0607,11.5204,15.0607z" fill="#fcd34d"/>
    </g>
  </g>
</svg>
