<?xml version="1.0" encoding="UTF-8"?>
<!DOCTYPE svg PUBLIC "-//W3C//DTD SVG 1.1//EN" "http://www.w3.org/Graphics/SVG/1.1/DTD/svg11.dtd">
<svg version="1.1" id="Layer_1" xmlns="http://www.w3.org/2000/svg" xmlns:xlink="http://www.w3.org/1999/xlink" x="0px" y="0px" width="16px" height="16px" viewBox="0 0 16 16" enable-background="new 0 0 16 16" xml:space="preserve">
  <g id="icon">
    <path d="M7.6,9.6c0,-1.7121,-1.3879,-3.1,-3.1,-3.1S1.4,7.8879,1.4,9.6c0,1.1266,0.6011,2.1127,1.5,2.6555V14.2h3.2v-1.9445C6.9989,11.7127,7.6,10.7266,7.6,9.6z" fill="#262626"/>
    <path d="M5.7989,14.9772c-0.0563,0,-0.113,-0.0057,-0.1685,-0.0171l-0.0152,-0.0031L4.5,14.4331l-1.1084,0.5217l-0.0219,0.0053c-0.0557,0.0114,-0.1123,0.0171,-0.1685,0.0171c-0.197,0,-0.3895,-0.0708,-0.542,-0.1994c-0.1971,-0.1661,-0.3101,-0.4113,-0.3101,-0.6724v-0.0244l0.0373,-1.6513C1.5051,11.7557,1,10.7336,1,9.6233C1,7.6806,2.5701,6.1,4.5,6.1s3.5,1.5806,3.5,3.5233c0,1.1104,-0.5051,2.1323,-1.3864,2.8064l0.0372,1.6476l0,0.028c0,0.2612,-0.113,0.5064,-0.3101,0.6725C6.1883,14.9064,5.9958,14.9772,5.7989,14.9772zM4.5,13.4527c0.0559,0,0.1123,0.0057,0.1675,0.017l0.0151,0.0031l1.0174,0.4779l-0.0017,-1.0175c-0.3847,0.1417,-0.7877,0.2135,-1.1983,0.2135s-0.8136,-0.0718,-1.1983,-0.2135l-0.0018,1.0174l1.0106,-0.4756l0.0219,-0.0053C4.3878,13.4583,4.4442,13.4527,4.5,13.4527zM4.5,7.0648c-1.4044,0,-2.547,1.1477,-2.547,2.5585S3.0956,12.1818,4.5,12.1818s2.547,-1.1477,2.547,-2.5585S5.9044,7.0648,4.5,7.0648z" fill="#fda4af"/>
    <path d="M14.5,3.075v6.85c0,0.8698,-0.7052,1.575,-1.575,1.575H8.5961C8.859,10.9207,9,10.2843,9,9.6233C9,7.1292,6.9813,5.1,4.5,5.1c-0.7182,0,-1.3971,0.1709,-2,0.4729V3.075C2.5,2.2052,3.2052,1.5,4.075,1.5h8.85C13.7948,1.5,14.5,2.2052,14.5,3.075z" fill="#262626"/>
    <path d="M15,3v7c0,1.1046,-0.8954,2,-2,2H9.1929c-0.3764,0,-0.6358,-0.3776,-0.4997,-0.7285c0.0346,-0.0893,0.0664,-0.1799,0.0954,-0.2715H13c0.5523,0,1,-0.4477,1,-1V4.8756L8.7372,7.9402c-0.029,-0.01,-0.0426,-0.0147,-0.0716,-0.0247c-0.2167,-0.5322,-0.5314,-1.0138,-0.9216,-1.4223l0.7562,0.4389L14,3.7399V3c0,-0.5523,-0.4477,-1,-1,-1H4c-0.5523,0,-1,0.4477,-1,1v0.7398l2.5666,1.4897C5.2245,5.1455,4.8675,5.1,4.5,5.1c-0.3231,0,-0.638,0.0351,-0.9419,0.1005L3,4.8755v0.4838c-0.1017,0.0362,-0.2017,0.076,-0.2999,0.1192C2.3705,5.6235,2,5.3906,2,5.0305v-0.9925V3c0,-1.1046,0.8954,-2,2,-2h9C14.1046,1,15,1.8954,15,3z" fill="#d4d4d4"/>
  </g>
</svg>
