<?xml version="1.0" encoding="UTF-8"?>
<!DOCTYPE svg PUBLIC "-//W3C//DTD SVG 1.1//EN" "http://www.w3.org/Graphics/SVG/1.1/DTD/svg11.dtd">
<svg version="1.1" id="Layer_1" xmlns="http://www.w3.org/2000/svg" xmlns:xlink="http://www.w3.org/1999/xlink" x="0px" y="0px" width="16px" height="16px" viewBox="0 0 16 16" enable-background="new 0 0 16 16" xml:space="preserve">
  <g id="icon">
    <path d="M14.5,8c0,3.5899,-2.9101,6.5,-6.5,6.5s-6.5,-2.9101,-6.5,-6.5s2.9101,-6.5,6.5,-6.5S14.5,4.4101,14.5,8z" id="b" fill="#171717"/>
    <path d="M8,15c-3.8598,0,-7,-3.1402,-7,-7s3.1402,-7,7,-7s7,3.1402,7,7S11.8598,15,8,15zM8,2.0597c-3.2755,0,-5.9403,2.6648,-5.9403,5.9403S4.7245,13.9403,8,13.9403S13.9403,11.2755,13.9403,8S11.2755,2.0597,8,2.0597z" id="c1" fill="#d4d4d4"/>
    <path d="M8.7538,11.3385c0,-0.4163,-0.3375,-0.7538,-0.7538,-0.7538s-0.7538,0.3375,-0.7538,0.7538c0,0.4163,0.3375,0.7538,0.7538,0.7538S8.7538,11.7548,8.7538,11.3385zM7.976,9.7818c-0.2974,0,-0.5385,-0.2376,-0.5385,-0.535l0.0014,-0.3305c0.0527,-0.7192,0.6327,-1.0861,1.1444,-1.4098c0.6339,-0.401,1.0224,-0.6796,1.0224,-1.3265c0,-0.8277,-1.1655,-1.1953,-1.6084,-1.1953c-0.6023,0,-1.6127,0.1548,-1.6127,1.1916c0,0.2974,-0.2411,0.5385,-0.5385,0.5385s-0.5385,-0.2411,-0.5385,-0.5385c0,-1.6744,1.4489,-2.2685,2.6896,-2.2685c0.9071,0,2.6854,0.6861,2.6854,2.2722c0,1.2729,-0.8807,1.8299,-1.5237,2.2367c-0.3177,0.201,-0.6182,0.3911,-0.6446,0.5656l-0.0001,0.2646C8.5107,9.5411,8.2711,9.7818,7.976,9.7818z" id="c2" fill="#d4d4d4"/>
  </g>
</svg>
