<?xml version="1.0" encoding="UTF-8"?>
<!DOCTYPE svg PUBLIC "-//W3C//DTD SVG 1.1//EN" "http://www.w3.org/Graphics/SVG/1.1/DTD/svg11.dtd">
<svg version="1.1" id="Layer_1" xmlns="http://www.w3.org/2000/svg" xmlns:xlink="http://www.w3.org/1999/xlink" x="0px" y="0px" width="16px" height="16px" viewBox="0 0 16 16" enable-background="new 0 0 16 16" xml:space="preserve">
  <g id="main">
    <g id="icon">
      <path d="M2.05,3.45L2.05,6.167L2.35,6.667L2.8,15L7.463,15L7.252,14.74L6.936,14.26L6.674,13.74L6.466,13.2L6.4,12.8L6.451,12.41L6.615,12.05L6.883,11.74L7.155,11.51L6.882,11.28L6.614,10.98L6.451,10.62L6.4,10.22L6.466,9.822L6.674,9.28L6.936,8.767L7.251,8.284L7.619,7.832L7.832,7.642L8.077,7.502L8.346,7.414L8.629,7.385L9.086,7.463L9.429,7.586L9.494,7.232L9.625,6.848L9.856,6.526L10.17,6.286L10.55,6.144L11.12,6.054L11.7,6.024L12.28,6.054L12.85,6.144L13.23,6.285L13.54,6.526L13.65,6.68L14.05,6.283L14.05,3.35L11.35,1.45L4.65,1.45zz" fill="#262626"/>
      <path d="M4.335,1.028L4.188,1.11L1.688,3.11L1.588,3.225L1.532,3.364L1.5,3.67L1.5,5.5L1.534,5.913L1.632,6.304L1.789,6.669L2,7L2,14.5L2.039,14.69L2.146,14.85L2.305,14.96L2.5,15L7.463,15L7.252,14.74L6.936,14.26L6.805,14L5,14L5,10L6.437,10L6.466,9.822L6.674,9.28L6.817,9L4.5,9L4.305,9.039L4.146,9.146L4.039,9.305L4,9.5L4,14L3,14L3,7.792L3.481,7.946L4,8L4.593,7.929L5.136,7.728L5.61,7.412L6,7L6.39,7.412L6.864,7.728L7.407,7.929L7.529,7.944L7.619,7.832L7.832,7.642L8.077,7.502L8.346,7.414L8.629,7.385L9.086,7.463L9.377,7.567L9.44,7.525L9.494,7.232L9.625,6.848L9.856,6.526L10.17,6.286L10.55,6.144L10.64,6.129L10.62,6.084L10.53,5.802L10.5,5.5L10.5,4L13.5,4L13.5,5.5L13.47,5.802L13.38,6.084L13.26,6.31L13.54,6.526L13.77,6.847L13.91,7.231L13.97,7.586L14,7.575L14,7L14.21,6.669L14.37,6.304L14.47,5.913L14.5,5.5L14.5,3.665L14.47,3.362L14.41,3.224L14.31,3.11L11.81,1.11L11.67,1.028L11.5,1L4.5,1zM6.029,2L5.654,3L3.425,3L4.675,2zM8.89,2L9.223,3L6.721,3L7.096,2zM11.32,2L12.57,3L10.28,3L9.944,2zM5.5,4L5.5,5.5L5.47,5.802L5.382,6.084L5.244,6.339L5.061,6.561L4.839,6.744L4.584,6.882L4.302,6.97L4,7L3.698,6.97L3.416,6.882L3.161,6.744L2.939,6.561L2.756,6.339L2.618,6.084L2.53,5.802L2.5,5.5L2.5,4zM9.5,4L9.5,5.5L9.47,5.802L9.382,6.084L9.244,6.339L9.061,6.561L8.839,6.744L8.584,6.882L8.302,6.97L8,7L7.698,6.97L7.416,6.882L7.161,6.744L6.939,6.561L6.756,6.339L6.618,6.084L6.53,5.802L6.5,5.5L6.5,4zM7,11.64L7.155,11.51L7,11.38zz" fill="#d4d4d4"/>
    </g>
    <g id="overlay">
      <path d="M11.7,15.4225c-0.2753,0,-0.5502,-0.0291,-0.817,-0.0864c-0.0185,-0.004,-0.0327,-0.0186,-0.0361,-0.0372l-0.1762,-0.9767c-0.0588,-0.3252,-0.3385,-0.5613,-0.6652,-0.5613c-0.0406,0,-0.0816,0.0038,-0.1217,0.0112c-0.0358,0.0066,-0.0713,0.0162,-0.1058,0.0286l-0.9256,0.3342c-0.0051,0.0019,-0.0104,0.0028,-0.0159,0.0028c-0.0133,0,-0.0261,-0.0057,-0.0349,-0.0156c-0.3725,-0.4163,-0.6476,-0.8966,-0.8176,-1.4276c-0.0057,-0.0177,-0.0002,-0.037,0.014,-0.0492l0.7498,-0.6427c0.138,-0.1183,0.2221,-0.2838,0.2368,-0.4661c0.0147,-0.1822,-0.0418,-0.3592,-0.1589,-0.4985c-0.0238,-0.0283,-0.05,-0.0547,-0.0779,-0.0787l-0.7497,-0.6427c-0.0142,-0.0122,-0.0197,-0.0314,-0.014,-0.0491c0.17,-0.5311,0.4451,-1.0114,0.8176,-1.4277c0.0089,-0.0099,0.0216,-0.0156,0.0349,-0.0156c0.0054,0,0.0108,0.001,0.0159,0.0028l0.9251,0.334c0.0735,0.0265,0.15,0.0399,0.2275,0.0399c0.285,0,0.5411,-0.1823,0.6372,-0.4537c0.0124,-0.0351,0.022,-0.0712,0.0285,-0.1076l0.1762,-0.9767c0.0034,-0.0185,0.0175,-0.0331,0.0361,-0.0371c0.2668,-0.0574,0.5416,-0.0864,0.8169,-0.0864c0.2751,0,0.5498,0.029,0.8165,0.0863c0.0185,0.004,0.0327,0.0186,0.0361,0.0371l0.1768,0.9769c0.0587,0.3251,0.3384,0.5611,0.6651,0.5611c0.0406,0,0.0816,-0.0038,0.1218,-0.0112c0.036,-0.0066,0.0717,-0.0163,0.1061,-0.0287l0.9252,-0.334c0.0051,-0.0019,0.0105,-0.0028,0.0159,-0.0028c0.0134,0,0.0261,0.0057,0.035,0.0156c0.3725,0.4162,0.6475,0.8965,0.8176,1.4276c0.0057,0.0177,0.0002,0.037,-0.0139,0.0491l-0.7499,0.6428c-0.138,0.1183,-0.2221,0.2838,-0.2368,0.4662c-0.0147,0.1822,0.0418,0.3592,0.1589,0.4984c0.024,0.0285,0.0503,0.0551,0.0782,0.0789l0.7494,0.6425c0.0142,0.0122,0.0197,0.0314,0.014,0.0491c-0.1701,0.5312,-0.4452,1.0115,-0.8176,1.4277c-0.0089,0.0099,-0.0216,0.0156,-0.035,0.0156c-0.0054,0,-0.0108,-0.0009,-0.0159,-0.0028l-0.925,-0.334c-0.0735,-0.0265,-0.15,-0.0399,-0.2275,-0.0399c-0.2851,0,-0.5412,0.1824,-0.6372,0.4538c-0.0124,0.035,-0.022,0.0712,-0.0285,0.1075l-0.1767,0.9768c-0.0034,0.0186,-0.0175,0.0331,-0.036,0.0371C12.2499,15.3935,11.9752,15.4225,11.7,15.4225zM11.6999,10.4567c-0.5907,0,-1.0713,0.4873,-1.0713,1.0863c0,0.599,0.4806,1.0863,1.0713,1.0863c0.5907,0,1.0713,-0.4873,1.0713,-1.0863C12.7712,10.944,12.2906,10.4567,11.6999,10.4567z" fill="#262626"/>
      <path d="M11.7,16c-0.3168,0,-0.6334,-0.0331,-0.9409,-0.0983c-0.1444,-0.0307,-0.2549,-0.1442,-0.2814,-0.2892l-0.189,-1.0346c-0.0358,-0.1958,-0.2064,-0.3378,-0.4058,-0.3378c-0.0249,0,-0.05,0.0023,-0.0747,0.0068c-0.0218,0.004,-0.0437,0.0098,-0.065,0.0174l-0.9919,0.3538c-0.0394,0.014,-0.0804,0.0211,-0.1219,0.0211c-0.1022,0,-0.2003,-0.0434,-0.2689,-0.1191c-0.4295,-0.4742,-0.7466,-1.0212,-0.9426,-1.626c-0.0454,-0.1403,-0.0021,-0.2926,0.1106,-0.3878l0.804,-0.6808c0.084,-0.0712,0.1352,-0.1707,0.1441,-0.2803c0.0089,-0.1094,-0.0254,-0.2158,-0.0967,-0.2995c-0.0145,-0.017,-0.0305,-0.0329,-0.0474,-0.0473l-0.8041,-0.6809c-0.1126,-0.0952,-0.1559,-0.2474,-0.1105,-0.3877c0.1961,-0.6048,0.5132,-1.1519,0.9426,-1.6259c0.0686,-0.0758,0.1667,-0.1192,0.269,-0.1192c0.0415,0,0.0825,0.0071,0.1218,0.0211l0.992,0.3538c0.045,0.016,0.0919,0.0242,0.1391,0.0242c0.1742,0,0.3305,-0.1099,0.389,-0.2733c0.0075,-0.0209,0.0133,-0.0426,0.0174,-0.0647l0.1889,-1.0344c0.0265,-0.145,0.137,-0.2585,0.2813,-0.2892c0.3075,-0.0653,0.6241,-0.0983,0.941,-0.0983c0.3166,0,0.633,0.033,0.9403,0.0982c0.1444,0.0306,0.2548,0.1441,0.2814,0.2891l0.1895,1.0348c0.0358,0.1958,0.2064,0.3379,0.4058,0.3379c0.0248,0,0.05,-0.0023,0.0748,-0.0068c0.0219,-0.004,0.0438,-0.0098,0.065,-0.0174l0.9919,-0.3537c0.0394,-0.014,0.0804,-0.0211,0.1219,-0.0211c0.1024,0,0.2005,0.0435,0.2691,0.1193c0.4293,0.4738,0.7464,1.0208,0.9425,1.6257c0.0455,0.1402,0.0021,0.2924,-0.1105,0.3877l-0.8041,0.6809c-0.084,0.0712,-0.1352,0.1707,-0.1442,0.2802c-0.0089,0.1094,0.0255,0.2158,0.0967,0.2994c0.0146,0.0172,0.0306,0.0331,0.0475,0.0474l0.804,0.6808c0.1126,0.0953,0.156,0.2475,0.1106,0.3877c-0.1962,0.605,-0.5133,1.152,-0.9426,1.6259c-0.0687,0.0758,-0.1668,0.1192,-0.269,0.1192c-0.0415,0,-0.0824,-0.0071,-0.1218,-0.0211l-0.9922,-0.3539c-0.045,-0.016,-0.0918,-0.0242,-0.139,-0.0242c-0.1741,0,-0.3305,0.1099,-0.3891,0.2734c-0.0075,0.0209,-0.0133,0.0426,-0.0174,0.0646l-0.1895,1.0347c-0.0266,0.1451,-0.137,0.2585,-0.2814,0.2891C12.3334,15.9669,12.017,16,11.7,16zM11.3268,15.0415c0.1232,0.0127,0.2484,0.0192,0.3732,0.0192c0.1245,0,0.2495,-0.0065,0.3728,-0.0192l0.1158,-0.6327c0.0133,-0.0725,0.0325,-0.1441,0.0572,-0.2128c0.1919,-0.5356,0.7031,-0.8954,1.2719,-0.8954c0.1543,0,0.3069,0.0265,0.4533,0.0787l0.6113,0.218c0.1457,-0.1996,0.2702,-0.4137,0.371,-0.6384l-0.4912,-0.416c-0.0559,-0.0472,-0.1083,-0.0995,-0.1557,-0.1553c-0.2342,-0.275,-0.3471,-0.625,-0.3178,-0.9852c0.0294,-0.3604,0.1975,-0.6876,0.4734,-0.9212l0.4913,-0.416c-0.1009,-0.2247,-0.2253,-0.4389,-0.371,-0.6384l-0.6112,0.2179c-0.0687,0.0245,-0.1401,0.0436,-0.2119,0.0567c-0.08,0.0146,-0.1617,0.0219,-0.2428,0.0219c-0.6519,0,-1.2102,-0.4659,-1.3278,-1.1078l-0.1159,-0.633c-0.1233,-0.0127,-0.2483,-0.0192,-0.3728,-0.0192c-0.1246,0,-0.2498,0.0065,-0.3732,0.0192l-0.1155,0.6327c-0.0133,0.0725,-0.0325,0.144,-0.0572,0.2128c-0.1919,0.5355,-0.7031,0.8954,-1.272,0.8954c-0.1544,0,-0.307,-0.0265,-0.4534,-0.0787l-0.6111,-0.2179c-0.1457,0.1996,-0.2702,0.4138,-0.3711,0.6384l0.4913,0.416c0.0558,0.0472,0.1082,0.0995,0.1556,0.1552c0.2342,0.2751,0.3472,0.625,0.3178,0.9852c-0.0294,0.3605,-0.1975,0.6877,-0.4734,0.9213l-0.4913,0.416c0.1009,0.2247,0.2254,0.4389,0.3711,0.6384l0.6112,-0.2179c0.0682,-0.0244,0.1395,-0.0435,0.2118,-0.0567c0.0801,-0.0146,0.1618,-0.022,0.2429,-0.022c0.6519,0,1.2103,0.466,1.3278,1.1081L11.3268,15.0415zM11.7,12.9325c-0.782,0,-1.4182,-0.6372,-1.4182,-1.4205c0,-0.7833,0.6362,-1.4206,1.4182,-1.4206s1.4182,0.6372,1.4182,1.4206C13.1182,12.2953,12.4819,12.9325,11.7,12.9325zM11.7,11.0128c-0.2748,0,-0.4984,0.2239,-0.4984,0.4992c0,0.2752,0.2236,0.4991,0.4984,0.4991c0.2748,0,0.4983,-0.2239,0.4983,-0.4991C12.1983,11.2367,11.9747,11.0128,11.7,11.0128z" fill="#06b6d4"/>
    </g>
  </g>
</svg>
