<?xml version="1.0" encoding="UTF-8"?>
<!DOCTYPE svg PUBLIC "-//W3C//DTD SVG 1.1//EN" "http://www.w3.org/Graphics/SVG/1.1/DTD/svg11.dtd">
<svg version="1.1" id="Layer_1" xmlns="http://www.w3.org/2000/svg" xmlns:xlink="http://www.w3.org/1999/xlink" x="0px" y="0px" width="16px" height="16px" viewBox="0 0 16 16" enable-background="new 0 0 16 16" xml:space="preserve">
  <g id="icon">
    <path d="M8,14.3c-0.4442,0,-0.8878,-0.0468,-1.3183,-0.1392c-0.0299,-0.0065,-0.0528,-0.03,-0.0582,-0.0599l-0.2844,-1.5735c-0.0948,-0.5239,-0.5462,-0.9042,-1.0734,-0.9042c-0.0655,0,-0.1316,0.006,-0.1965,0.018c-0.0578,0.0107,-0.1151,0.0261,-0.1707,0.046l-1.4936,0.5384c-0.0083,0.003,-0.0169,0.0045,-0.0256,0.0045c-0.0215,0,-0.0421,-0.0091,-0.0564,-0.0251c-0.6011,-0.6707,-1.045,-1.4445,-1.3194,-2.3c-0.0092,-0.0286,-0.0003,-0.0596,0.0226,-0.0793l1.2099,-1.0354c0.2227,-0.1906,0.3583,-0.4573,0.382,-0.751c0.0236,-0.2935,-0.0674,-0.5787,-0.2564,-0.8031c-0.0384,-0.0455,-0.0807,-0.0882,-0.1258,-0.1268L2.0261,6.0741c-0.0229,-0.0196,-0.0318,-0.0506,-0.0226,-0.0791c0.2744,-0.8556,0.7183,-1.6294,1.3194,-2.3c0.0143,-0.016,0.0348,-0.0251,0.0563,-0.0251c0.0087,0,0.0174,0.0016,0.0256,0.0045l1.4928,0.538c0.1186,0.0427,0.2421,0.0643,0.3671,0.0643c0.46,0,0.8732,-0.2937,1.0281,-0.731c0.02,-0.0565,0.0355,-0.1148,0.0461,-0.1733l0.2844,-1.5735c0.0054,-0.0299,0.0283,-0.0534,0.0583,-0.0598C7.1122,1.6468,7.5557,1.6,8,1.6c0.4439,0,0.8872,0.0468,1.3175,0.1391c0.0299,0.0064,0.0528,0.0299,0.0582,0.0598l0.2852,1.5739c0.0948,0.5238,0.5461,0.904,1.0732,0.904c0.0655,0,0.1317,-0.006,0.1966,-0.018c0.0581,-0.0107,0.1157,-0.0262,0.1712,-0.0462l1.493,-0.5381c0.0083,-0.003,0.017,-0.0045,0.0257,-0.0045c0.0216,0,0.0422,0.0092,0.0565,0.0252c0.601,0.6706,1.0449,1.4444,1.3193,2.2999c0.0092,0.0286,0.0004,0.0596,-0.0225,0.0791l-1.21,1.0356c-0.2227,0.1906,-0.3584,0.4573,-0.3821,0.751c-0.0236,0.2935,0.0674,0.5787,0.2565,0.803c0.0387,0.046,0.0812,0.0888,0.1262,0.1271l1.2093,1.035c0.0229,0.0196,0.0318,0.0506,0.0226,0.0791c-0.2744,0.8557,-0.7183,1.6295,-1.3194,2.3001c-0.0143,0.016,-0.0349,0.0251,-0.0565,0.0251c-0.0087,0,-0.0174,-0.0015,-0.0257,-0.0045l-1.4926,-0.5382c-0.1186,-0.0427,-0.2421,-0.0643,-0.3671,-0.0643c-0.46,0,-0.8733,0.2938,-1.0282,0.7311c-0.02,0.0564,-0.0355,0.1147,-0.0461,0.1732l-0.2852,1.5737c-0.0054,0.0299,-0.0282,0.0534,-0.0581,0.0598C8.8874,14.2532,8.4441,14.3,8,14.3zM7.9998,6.2999c-0.9532,0,-1.7288,0.7851,-1.7288,1.7501S7.0466,9.8,7.9998,9.8s1.7288,-0.7851,1.7288,-1.7501S8.9531,6.2999,7.9998,6.2999z" fill="#262626"/>
    <path d="M8,14.9918c-0.4948,0,-0.989,-0.0515,-1.4689,-0.1532c-0.138,-0.0293,-0.2435,-0.1374,-0.2688,-0.2755l-0.3049,-1.6667c-0.0785,-0.4287,-0.4525,-0.7398,-0.8895,-0.7398c-0.0544,0,-0.1093,0.005,-0.1633,0.0147c-0.0478,0.0087,-0.0955,0.0215,-0.142,0.0379l-1.6009,0.57c-0.0376,0.0134,-0.0769,0.0202,-0.1167,0.0202c-0.0979,0,-0.1917,-0.0415,-0.2574,-0.1138c-0.67,-0.7385,-1.1649,-1.5906,-1.4708,-2.5328c-0.0433,-0.1333,-0.0019,-0.278,0.1054,-0.3687l1.2975,-1.0968c0.1844,-0.156,0.2968,-0.3742,0.3164,-0.6143c0.0196,-0.2399,-0.0558,-0.4731,-0.2123,-0.6566c-0.0316,-0.037,-0.0666,-0.0719,-0.1041,-0.1037L1.4223,6.2158c-0.1073,-0.0907,-0.1487,-0.2354,-0.1054,-0.3687c0.3059,-0.9421,0.8007,-1.7942,1.4708,-2.5327c0.0656,-0.0723,0.1594,-0.1138,0.2574,-0.1138c0.0398,0,0.0791,0.0068,0.1167,0.0202l1.6007,0.5699c0.0984,0.035,0.2009,0.0528,0.3045,0.0528c0.3814,0,0.7239,-0.2405,0.8523,-0.5983c0.0165,-0.0458,0.0293,-0.0934,0.0381,-0.1416l0.3049,-1.6667c0.0253,-0.1381,0.1308,-0.2463,0.2688,-0.2755c0.4798,-0.1017,0.974,-0.1532,1.4689,-0.1532c0.4945,0,0.9884,0.0515,1.468,0.153c0.1379,0.0292,0.2435,0.1373,0.2688,0.2754l0.3058,1.667c0.0785,0.4287,0.4525,0.7398,0.8894,0.7398c0.0544,0,0.1093,-0.005,0.1633,-0.0147c0.0483,-0.0088,0.0962,-0.0216,0.1421,-0.0379l1.6008,-0.5699c0.0376,-0.0134,0.0769,-0.0202,0.1167,-0.0202c0.098,0,0.1918,0.0415,0.2575,0.1138c0.67,0.7383,1.1648,1.5904,1.4707,2.5326c0.0434,0.1333,0.002,0.278,-0.1053,0.3687l-1.2975,1.0969c-0.1844,0.1559,-0.2968,0.3741,-0.3164,0.6143c-0.0196,0.2399,0.0559,0.4731,0.2124,0.6566c0.032,0.0375,0.067,0.0724,0.1041,0.1037l1.2974,1.0968c0.1073,0.0907,0.1487,0.2355,0.1054,0.3687c-0.306,0.9422,-0.8008,1.7943,-1.4708,2.5328c-0.0656,0.0723,-0.1595,0.1138,-0.2574,0.1138c-0.0399,0,-0.0791,-0.0068,-0.1168,-0.0202l-1.6007,-0.57c-0.0984,-0.035,-0.2008,-0.0528,-0.3045,-0.0528c-0.3814,0,-0.7239,0.2405,-0.8523,0.5984c-0.0165,0.0459,-0.0293,0.0935,-0.0382,0.1416l-0.3058,1.667c-0.0253,0.1381,-0.1308,0.2462,-0.2688,0.2753C8.9888,14.9403,8.4949,14.9918,8,14.9918zM5.0688,11.1202c0.9368,0,1.7392,0.6685,1.9079,1.5895l0.2182,1.1928l0.0514,0.0065c0.2477,0.031,0.5013,0.0467,0.7537,0.0467c0.2519,0,0.5053,-0.0157,0.7531,-0.0466l0.0513,-0.0065l0.2188,-1.1927c0.019,-0.1037,0.0466,-0.2064,0.0821,-0.3052c0.2758,-0.7684,1.0104,-1.2847,1.8279,-1.2847c0.2217,0,0.4409,0.038,0.6515,0.113l1.1516,0.4099l0.0313,-0.0409c0.3042,-0.3979,0.5569,-0.8323,0.7513,-1.291l0.0203,-0.0479l-0.928,-0.7845c-0.0804,-0.0679,-0.1557,-0.1428,-0.2236,-0.2226c-0.3366,-0.3948,-0.4988,-0.8967,-0.4566,-1.4132c0.0422,-0.5169,0.2837,-0.9862,0.6801,-1.3214l0.9281,-0.7846l-0.0203,-0.0479c-0.1944,-0.4587,-0.4472,-0.8931,-0.7513,-1.291l-0.0313,-0.0409l-1.1514,0.4099c-0.0989,0.0352,-0.2014,0.0626,-0.3045,0.0813c-0.1154,0.021,-0.2329,0.0316,-0.3492,0.0316c-0.9367,0,-1.7391,-0.6684,-1.9079,-1.5893l-0.2189,-1.1932l-0.0513,-0.0065C8.5053,2.06,8.2519,2.0443,8,2.0443c-0.252,0,-0.5055,0.0157,-0.7537,0.0467l-0.0514,0.0065l-0.2182,1.1927c-0.019,0.1037,-0.0467,0.2064,-0.0821,0.3051c-0.2758,0.7684,-1.0104,1.2847,-1.828,1.2847c-0.2218,0,-0.441,-0.038,-0.6516,-0.113l-1.1513,-0.4099l-0.0313,0.0409c-0.3042,0.3978,-0.5569,0.8321,-0.7513,1.291l-0.0203,0.0479l0.928,0.7845c0.0803,0.0678,0.1554,0.1427,0.2236,0.2226c0.3366,0.3947,0.4987,0.8966,0.4566,1.4131c-0.0422,0.517,-0.2837,0.9863,-0.6802,1.3215l-0.928,0.7845l0.0203,0.0479c0.1944,0.4589,0.4472,0.8933,0.7513,1.291l0.0313,0.0409l1.1514,-0.4098c0.0983,-0.0351,0.2007,-0.0624,0.3045,-0.0814C4.8349,11.1307,4.9524,11.1202,5.0688,11.1202zM7.9999,10.05c-1.1303,0,-2.0499,-0.9196,-2.0499,-2.0499c0,-1.1304,0.9196,-2.05,2.0499,-2.05s2.0499,0.9196,2.0499,2.05C10.0498,9.1304,9.1302,10.05,7.9999,10.05zM7.9999,6.9573c-0.575,0,-1.0427,0.4678,-1.0427,1.0428c0,0.575,0.4678,1.0427,1.0427,1.0427s1.0427,-0.4677,1.0427,-1.0427C9.0426,7.4251,8.5749,6.9573,7.9999,6.9573z" fill="#06b6d4"/>
  </g>
</svg>
