<?xml version="1.0" encoding="UTF-8"?>
<!DOCTYPE svg PUBLIC "-//W3C//DTD SVG 1.1//EN" "http://www.w3.org/Graphics/SVG/1.1/DTD/svg11.dtd">
<svg version="1.1" id="Layer_1" xmlns="http://www.w3.org/2000/svg" xmlns:xlink="http://www.w3.org/1999/xlink" x="0px" y="0px" width="16px" height="16px" viewBox="0 0 16 16" enable-background="new 0 0 16 16" xml:space="preserve">
  <g id="icon">
    <path d="M1.3201,5.848c0.305,-0.9391,0.8073,-1.8011,1.4702,-2.5316c0.1121,-0.1235,0.2879,-0.1676,0.4454,-0.1115l1.5841,0.564c0.4295,0.1528,0.902,-0.07,1.0555,-0.4976c0.0151,-0.0421,0.0267,-0.0852,0.0347,-0.1291l0.3018,-1.6494c0.03,-0.164,0.1565,-0.2937,0.3202,-0.3284c0.4791,-0.1015,0.9703,-0.1532,1.468,-0.1532c0.4974,0,0.9883,0.0516,1.4671,0.153c0.1637,0.0347,0.2902,0.1643,0.3203,0.3283L10.09,3.142c0.0818,0.4467,0.5119,0.7428,0.9605,0.6614c0.0442,-0.008,0.0875,-0.0196,0.1297,-0.0346l1.5841,-0.564c0.1575,-0.0561,0.3334,-0.012,0.4455,0.1115c0.6629,0.7305,1.1652,1.5926,1.4701,2.5316c0.0515,0.1584,0.0019,0.3321,-0.1256,0.4399l-1.2839,1.0854c-0.3477,0.2939,-0.3902,0.8128,-0.095,1.1589c0.029,0.034,0.0607,0.0657,0.095,0.0946l1.2839,1.0854c0.1275,0.1078,0.1771,0.2814,0.1256,0.4399c-0.3049,0.9391,-0.8073,1.8011,-1.4701,2.5317c-0.1121,0.1235,-0.2879,0.1676,-0.4455,0.1115l-1.584,-0.5641c-0.4295,-0.1528,-0.9021,0.07,-1.0555,0.4977c-0.0151,0.0421,-0.0267,0.0852,-0.0348,0.1292l-0.3026,1.6496c-0.0301,0.1639,-0.1566,0.2936,-0.3203,0.3282c-0.4788,0.1015,-0.9698,0.153,-1.4671,0.153c-0.4977,0,-0.9889,-0.0516,-1.468,-0.1531c-0.1637,-0.0347,-0.2902,-0.1644,-0.3202,-0.3285L5.91,12.858c-0.0818,-0.4467,-0.5119,-0.7428,-0.9605,-0.6614c-0.0441,0.008,-0.0875,0.0197,-0.1297,0.0346l-1.5841,0.5641c-0.1574,0.056,-0.3333,0.012,-0.4454,-0.1115c-0.6628,-0.7306,-1.1652,-1.5926,-1.4702,-2.5317c-0.0514,-0.1584,-0.0018,-0.3321,0.1256,-0.4399l1.284,-1.0854c0.3476,-0.2939,0.3902,-0.8128,0.095,-1.159c-0.029,-0.034,-0.0608,-0.0657,-0.095,-0.0945l-1.284,-1.0854C1.3182,6.1801,1.2686,6.0064,1.3201,5.848zM5.9607,7.9999c0,1.1262,0.9129,2.0391,2.0391,2.0391s2.0391,-0.9129,2.0391,-2.0391S9.126,5.9608,7.9999,5.9608S5.9607,6.8738,5.9607,7.9999z" fill="#06b6d4"/>
  </g>
</svg>
