<?xml version="1.0" encoding="UTF-8"?>
<!DOCTYPE svg PUBLIC "-//W3C//DTD SVG 1.1//EN" "http://www.w3.org/Graphics/SVG/1.1/DTD/svg11.dtd">
<svg version="1.1" id="Layer_1" xmlns="http://www.w3.org/2000/svg" xmlns:xlink="http://www.w3.org/1999/xlink" x="0px" y="0px" width="16px" height="16px" viewBox="0 0 16 16" enable-background="new 0 0 16 16" xml:space="preserve">
  <g id="main">
    <g id="icon">
      <path d="M4.037,2.539L3.676,2.651L3.349,2.829L3.064,3.064L2.829,3.349L2.651,3.676L2.539,4.037L2.5,4.425L2.5,11.58L2.539,11.96L2.651,12.32L2.829,12.65L3.064,12.94L3.349,13.17L3.676,13.35L4.037,13.46L4.425,13.5L6.264,13.5L6.37,13.28L6.682,12.88L9.55,9.912L9.545,9.726L9.621,8.976L9.839,8.277L10.18,7.644L10.64,7.093L11.19,6.637L11.82,6.293L12.52,6.076L13.27,6L13.5,6.021L13.5,4.425L13.46,4.037L13.35,3.676L13.17,3.349L12.94,3.064L12.65,2.829L12.32,2.651L11.96,2.539L11.58,2.5L4.425,2.5zz" id="b" fill="#171717"/>
      <path d="M3.996,2.051L3.527,2.196L3.102,2.427L2.732,2.732L2.427,3.102L2.196,3.527L2.051,3.996L2,4.5L2,11.5L2.051,12L2.196,12.47L2.427,12.9L2.732,13.27L3.102,13.57L3.527,13.8L3.996,13.95L4.5,14L6.082,14L6.149,13.73L6.37,13.28L6.591,13L6,13L6,11L8.5,11L9.465,10L6,10L6,6L10,6L10,7.98L10.18,7.644L10.64,7.093L11,6.794L11,6L13,6L13,6.028L13.27,6L13.96,6.063L14,6.075L14,4.5L13.95,3.996L13.8,3.527L13.57,3.102L13.27,2.732L12.9,2.427L12.47,2.196L12,2.051L11.5,2L4.5,2zM5,3L5,5L3,5L3,4.5L3.03,4.198L3.118,3.916L3.256,3.661L3.439,3.439L3.661,3.256L3.916,3.118L4.198,3.03L4.5,3zM10,3L10,5L6,5L6,3zM11.5,3L11.8,3.03L12.08,3.118L12.34,3.256L12.56,3.439L12.74,3.661L12.88,3.916L12.97,4.198L13,4.5L13,5L11,5L11,3zM5,6L5,10L3,10L3,6zM5,11L5,13L4.5,13L4.198,12.97L3.916,12.88L3.661,12.74L3.439,12.56L3.256,12.34L3.118,12.08L3.03,11.8L3,11.5L3,11zM12.75,13.65L12.9,13.57L13.06,13.44L12.96,13.44zz" fill="#d4d4d4"/>
    </g>
    <g id="overlay">
      <path d="M8.4297,15.6c-0.2358,0,-0.4579,-0.0778,-0.6423,-0.2251c-0.2293,-0.1831,-0.366,-0.4451,-0.385,-0.7377c-0.0189,-0.2927,0.0828,-0.5701,0.2866,-0.7812l3.3478,-3.468l-0.0308,-0.1321c-0.0402,-0.1726,-0.0606,-0.3508,-0.0606,-0.5297c0,-1.2826,1.044,-2.3261,2.3272,-2.3261c0.29,0,0.5729,0.0527,0.841,0.1565c0.023,0.0089,0.0398,0.0287,0.0449,0.0528c0.0051,0.024,-0.0023,0.0488,-0.0197,0.0662l-1.4074,1.4068l1.1855,1.185l1.4073,-1.4067c0.0135,-0.0135,0.0322,-0.0213,0.0514,-0.0213c0.005,0,0.01,0.0005,0.015,0.0016c0.0242,0.0051,0.0439,0.0218,0.0528,0.0448c0.1038,0.2679,0.1565,0.5507,0.1565,0.8404c0,1.2826,-1.044,2.3261,-2.3272,2.3261c-0.2171,0,-0.4321,-0.0299,-0.6388,-0.0887l-0.1421,-0.0404l-3.3287,3.3706C8.9679,15.4912,8.7075,15.6,8.4297,15.6z" id="b" fill="#171717"/>
      <path d="M8.4297,16c-0.3229,0,-0.6398,-0.111,-0.8922,-0.3126c-0.3137,-0.2505,-0.5086,-0.6239,-0.5345,-1.0245s0.1191,-0.7959,0.3979,-1.0847l3.1977,-3.3125c-0.0355,-0.1769,-0.0535,-0.358,-0.0535,-0.5395C10.5451,8.223,11.7686,7,13.2725,7c0.3397,0,0.6713,0.0618,0.9856,0.1836c0.1496,0.0579,0.2587,0.1862,0.2918,0.3432c0.0331,0.1569,-0.0148,0.3183,-0.1283,0.4317l-1.1243,1.1238l0.6195,0.6192l1.1243,-1.1237c0.0893,-0.0893,0.2081,-0.1384,0.3344,-0.1384c0.0327,0,0.0655,0.0034,0.0975,0.0102c0.1571,0.0331,0.2854,0.1422,0.3434,0.2917c0.1218,0.3143,0.1835,0.6456,0.1835,0.985c0,1.5032,-1.2236,2.7262,-2.7275,2.7262c-0.2238,0,-0.4459,-0.0271,-0.6613,-0.0808l-3.1635,3.2032C9.1769,15.849,8.8154,16,8.4297,16zM13.0877,7.9549c-0.8959,0.0927,-1.5969,0.8517,-1.5969,1.7713c0,0.1831,0.0276,0.3635,0.082,0.5361c0.0521,0.1654,0.0097,0.3456,-0.1108,0.4703l-3.3806,3.502c-0.0958,0.0992,-0.1437,0.2297,-0.1347,0.3673c0.0089,0.1377,0.0732,0.2608,0.1809,0.3469c0.0868,0.0692,0.1912,0.1059,0.3021,0.1059c0.1307,0,0.2531,-0.0511,0.3448,-0.144l3.3652,-3.4075c0.0882,-0.0894,0.2109,-0.1407,0.3366,-0.1407c0.0572,0,0.1134,0.0103,0.167,0.0305c0.2006,0.0757,0.4122,0.1141,0.6291,0.1141c0.9198,0,1.6791,-0.7003,1.772,-1.5956l-0.7933,0.793c-0.0894,0.0893,-0.2081,0.1384,-0.3344,0.1384c-0.1264,0,-0.2452,-0.0492,-0.3344,-0.1385l-1.2883,-1.2877c-0.1844,-0.1843,-0.1844,-0.4842,0,-0.6685L13.0877,7.9549z" fill="#06b6d4"/>
    </g>
  </g>
</svg>
