<?xml version="1.0" encoding="UTF-8"?>
<!DOCTYPE svg PUBLIC "-//W3C//DTD SVG 1.1//EN" "http://www.w3.org/Graphics/SVG/1.1/DTD/svg11.dtd">
<svg version="1.1" id="Layer_1" xmlns="http://www.w3.org/2000/svg" xmlns:xlink="http://www.w3.org/1999/xlink" x="0px" y="0px" width="16px" height="16px" viewBox="0 0 16 16" enable-background="new 0 0 16 16" xml:space="preserve">
  <g id="icon">
    <path d="M14.5,8c0,3.5899,-2.9101,6.5,-6.5,6.5s-6.5,-2.9101,-6.5,-6.5s2.9101,-6.5,6.5,-6.5S14.5,4.4101,14.5,8z" id="b" fill="#171717"/>
    <path d="M8,15c-3.8598,0,-7,-3.1402,-7,-7s3.1402,-7,7,-7s7,3.1402,7,7S11.8598,15,8,15zM8,2.0597c-3.2755,0,-5.9403,2.6648,-5.9403,5.9403S4.7245,13.9403,8,13.9403S13.9403,11.2755,13.9403,8S11.2755,2.0597,8,2.0597z" id="c1" fill="#06b6d4"/>
    <path d="M11.2581,4.6166c-0.2222,0.0693,-0.3657,0.2858,-0.3657,0.5185v0.7799c-0.6655,-0.9678,-1.7749,-1.5766,-3.0154,-1.5766C5.858,4.3385,4.3231,5.981,4.3231,8s1.5349,3.6615,3.5538,3.6615c0.9892,0,1.9162,-0.3883,2.6101,-1.0935c0.2085,-0.212,0.2058,-0.5529,-0.0062,-0.7615c-0.212,-0.2085,-0.553,-0.2058,-0.7615,0.0062c-0.4898,0.4978,-1.1442,0.7719,-1.8424,0.7719C6.4518,10.5846,5.4,9.4251,5.4,8s1.0518,-2.5846,2.4769,-2.5846c1.0341,0,1.9374,0.6,2.3496,1.5077H9.241c-0.3534,0,-0.6272,0.3404,-0.5116,0.7112C8.7987,7.8565,9.0152,8,9.248,8h2.1962c0.2899,0,0.525,-0.2351,0.525,-0.525V5.1282C11.9692,4.7748,11.6288,4.501,11.2581,4.6166z" id="c2" fill="#06b6d4"/>
  </g>
</svg>
