<?xml version="1.0" encoding="UTF-8"?>
<!DOCTYPE svg PUBLIC "-//W3C//DTD SVG 1.1//EN" "http://www.w3.org/Graphics/SVG/1.1/DTD/svg11.dtd">
<svg version="1.1" id="Layer_1" xmlns="http://www.w3.org/2000/svg" xmlns:xlink="http://www.w3.org/1999/xlink" x="0px" y="0px" width="16px" height="16px" viewBox="0 0 16 16" enable-background="new 0 0 16 16" xml:space="preserve">
  <g id="main">
    <g id="icon">
      <path d="M4.142,2.567L3.82,2.767L3.589,3.082L3.5,3.5L3.5,12.5L3.589,12.92L3.82,13.23L4.142,13.43L4.502,13.5L4.752,13.47L4.99,13.37L6.144,12.72L6.043,12.19L6,11.5L6.029,10.94L6.112,10.39L6.248,9.866L6.433,9.361L6.665,8.88L6.941,8.427L7.257,8.004L7.613,7.613L8.004,7.257L8.427,6.941L8.88,6.665L9.361,6.433L9.866,6.248L10.39,6.112L10.94,6.029L11.03,6.024L4.99,2.628L4.752,2.53L4.502,2.498zz" id="b" fill="#171717"/>
      <path d="M4.089,2.056L3.743,2.205L3.444,2.434L3.209,2.732L3.055,3.091L3,3.5L3,12.5L3.055,12.91L3.209,13.27L3.444,13.57L3.743,13.79L4.089,13.94L4.464,14L4.852,13.96L5.235,13.81L6.285,13.22L6.167,12.85L6.046,12.2L4.745,12.94L4.488,13L4.248,12.93L4.07,12.76L4,12.5L4,3.5L4.07,3.244L4.248,3.068L4.488,2.999L4.745,3.064L10.24,6.153L10.39,6.112L10.94,6.029L11.5,6L12.07,6.035L5.235,2.193L4.852,2.04L4.464,1.998zz" fill="#6ee7b7"/>
    </g>
    <g id="overlay">
      <path d="M11.5254,14.3321c-0.2308,0,-0.4179,-0.1871,-0.4179,-0.4179v-3.8267l-0.3746,0.3709c-0.1639,0.1624,-0.4285,0.1611,-0.5909,-0.0029c-0.1624,-0.164,-0.1611,-0.4285,0.0029,-0.5909l1.0864,-1.0759c0.1199,-0.1186,0.2994,-0.1536,0.4549,-0.0888c0.1556,0.0649,0.257,0.217,0.257,0.3857v4.8285C11.9432,14.145,11.7561,14.3321,11.5254,14.3321z" id="b" fill="#171717"/>
      <path d="M11.5,7c-2.4813,0,-4.5,2.0187,-4.5,4.5s2.0187,4.5,4.5,4.5s4.5,-2.0187,4.5,-4.5S13.9813,7,11.5,7zM11.9432,13.9143c0,0.2308,-0.1871,0.4179,-0.4179,0.4179c-0.2308,0,-0.4179,-0.1871,-0.4179,-0.4179v-3.8267l-0.3746,0.3709c-0.1639,0.1624,-0.4285,0.1611,-0.5909,-0.0029c-0.1624,-0.164,-0.1611,-0.4285,0.0029,-0.5909l1.0864,-1.0759c0.1199,-0.1186,0.2994,-0.1536,0.4549,-0.0888c0.1556,0.0649,0.257,0.217,0.257,0.3857V13.9143z" id="c2" fill="#fda4af"/>
    </g>
  </g>
</svg>
