<?xml version="1.0" encoding="UTF-8"?>
<!DOCTYPE svg PUBLIC "-//W3C//DTD SVG 1.1//EN" "http://www.w3.org/Graphics/SVG/1.1/DTD/svg11.dtd">
<svg version="1.1" id="Layer_1" xmlns="http://www.w3.org/2000/svg" xmlns:xlink="http://www.w3.org/1999/xlink" x="0px" y="0px" width="16px" height="16px" viewBox="0 0 16 16" enable-background="new 0 0 16 16" xml:space="preserve">
  <g id="icon">
    <path d="M4.1065,8.6019c-0.5614,0,-1.0182,0.4562,-1.0182,1.0169v0.555c0,1.8641,1.8372,3.7922,4.9117,3.7922s4.9117,-1.9281,4.9117,-3.7922v-0.555c0,-0.5607,-0.4568,-1.0169,-1.0182,-1.0169H4.1065zM7.95,1.5862c-1.3182,0,-2.3905,1.0787,-2.3905,2.4046S6.6318,6.3954,7.95,6.3954s2.3905,-1.0787,2.3905,-2.4046S9.2682,1.5862,7.95,1.5862z" fill="#262626"/>
    <path d="M8,14.5523c-3.4427,0,-5.5,-2.2262,-5.5,-4.3785v-0.555c0,-0.884,0.7207,-1.6032,1.6065,-1.6032h7.7869c0.8858,0,1.6065,0.7192,1.6065,1.6032v0.555C13.5,12.3262,11.4427,14.5523,8,14.5523zM4.1065,9.0019c-0.3409,0,-0.6182,0.2768,-0.6182,0.6169v0.555c0,1.6675,1.6876,3.3922,4.5117,3.3922s4.5117,-1.7247,4.5117,-3.3922v-0.555c0,-0.3402,-0.2773,-0.6169,-0.6182,-0.6169H4.1065zM7.95,6.9817c-1.6376,0,-2.9698,-1.3417,-2.9698,-2.9909C4.9802,2.3417,6.3124,1,7.95,1s2.9698,1.3417,2.9698,2.9908C10.9198,5.64,9.5876,6.9817,7.95,6.9817zM7.95,1.9862c-1.0976,0,-1.9905,0.8992,-1.9905,2.0046S6.8524,5.9954,7.95,5.9954s1.9905,-0.8992,1.9905,-2.0046S9.0476,1.9862,7.95,1.9862z" fill="#d4d4d4"/>
  </g>
</svg>
