<?xml version="1.0" encoding="utf-8"?>
<!-- Created with: Axialis IconVectors - www.axialis.com -->
<svg xmlns="http://www.w3.org/2000/svg" version="1.1" xmlns:xlink="http://www.w3.org/1999/xlink" id="a" viewBox="0 0 90 140">
  <g id="b">
    <path id="c" fill="#fafafa" d="M73,135L17,135C10.37,135,5,129.63,5,123L5,17C5,10.37,10.37,5,17,5L73,5C79.63,5,85,10.37,85,17L85,123C85,129.63,79.63,135,73,135z"/>
    <path id="d" fill="#404040" d="M73,140H17c-9.37,0-17-7.63-17-17V17C0,7.63,7.63,0,17,0h56c9.37,0,17,7.63,17,17v106c0,9.37-7.63,17-17,17ZM17,10c-3.86,0-7,3.14-7,7v106c0,3.86,3.14,7,7,7h56c3.86,0,7-3.14,7-7V17c0-3.86-3.14-7-7-7H17Z"/>
    <path id="e" fill="#404040" d="M55,120L35,120C32.24,120,30,117.76,30,115C30,112.24,32.24,110,35,110L55,110C57.76,110,60,112.24,60,115C60,117.76,57.76,120,55,120z"/>
    <path fill="#404040" d="M56,20L34,20C31.24,20,29,17.76,29,15L29,15C29,12.24,26.76,10,24,10L24,10L24,7L66,7L66,10L66,10C63.24,10,61,12.24,61,15L61,15C61,17.76,58.76,20,56,20z"/>
  </g>
  <g id="f">
    <path id="g" fill="#fafafa" d="M57.9,59.89h-25.5c-1.24,0-2.25-1.01-2.25-2.25h0c0-1.24,1.01-2.25,2.25-2.25h25.5c1.24,0,2.25,1.01,2.25,2.25h0c0,1.24-1.01,2.25-2.25,2.25ZM51.15,66.64h0c0-1.24-1.01-2.25-2.25-2.25h-16.5c-1.24,0-2.25,1.01-2.25,2.25h0c0,1.24,1.01,2.25,2.25,2.25h16.5c1.24,0,2.25-1.01,2.25-2.25Z"/>
    <path id="h" fill="#0891B2" d="M66.91,41.95H22.8c-4.08,0-7.8,3.94-7.8,8.26v28.75c0,4.23,3.5,7.81,7.8,7.99h7.15v8.73c0,1.85,1.99,2.98,3.53,2.02l17.18-10.75h16.53c4.23,0,7.8-3.78,7.8-8.26v-28.48c0-4.4-3.78-8.26-8.09-8.26ZM51.15,66.64c0,1.24-1.01,2.25-2.25,2.25h-16.5c-1.24,0-2.25-1.01-2.25-2.25h0c0-1.24,1.01-2.25,2.25-2.25h16.5c1.24,0,2.25,1.01,2.25,2.25h0ZM60.15,57.64c0,1.24-1.01,2.25-2.25,2.25h-25.5c-1.24,0-2.25-1.01-2.25-2.25h0c0-1.24,1.01-2.25,2.25-2.25h25.5c1.24,0,2.25,1.01,2.25,2.25h0Z"/>
  </g>
</svg>
