<?xml version="1.0" encoding="utf-8"?>
<!-- Created with: Axialis IconVectors - www.axialis.com -->
<svg xmlns="http://www.w3.org/2000/svg" version="1.1" xmlns:xlink="http://www.w3.org/1999/xlink" id="a" viewBox="0 0 90 140">
  <g id="b">
    <path id="c" fill="#1f2937" d="M73,135L17,135C10.37,135,5,129.63,5,123L5,17C5,10.37,10.37,5,17,5L73,5C79.63,5,85,10.37,85,17L85,123C85,129.63,79.63,135,73,135z"/>
    <path id="d" fill="#6b7280" d="M73,140H17c-9.37,0-17-7.63-17-17V17C0,7.63,7.63,0,17,0h56c9.37,0,17,7.63,17,17v106c0,9.37-7.63,17-17,17ZM17,10c-3.86,0-7,3.14-7,7v106c0,3.86,3.14,7,7,7h56c3.86,0,7-3.14,7-7V17c0-3.86-3.14-7-7-7H17Z"/>
    <path id="e" fill="#6b7280" d="M55,120L35,120C32.24,120,30,117.76,30,115C30,112.24,32.24,110,35,110L55,110C57.76,110,60,112.24,60,115C60,117.76,57.76,120,55,120z"/>
    <path fill="#6b7280" d="M56,20L34,20C31.24,20,29,17.76,29,15L29,15C29,12.24,26.76,10,24,10L24,10L24,7L66,7L66,10L66,10C63.24,10,61,12.24,61,15L61,15C61,17.76,58.76,20,56,20z"/>
  </g>
  <g id="f">
    <path id="g" fill="#1f2937" d="M42.26,74.53L56.34,60.45C57.26,59.53,58.76,59.53,59.68,60.45C60.52,61.29,60.6,62.6,59.91,63.53L59.68,63.79L43.93,79.54C43.09,80.38,41.78,80.46,40.85,79.77L40.59,79.54L32.71,71.66C31.79,70.74,31.79,69.24,32.71,68.32C33.55,67.48,34.86,67.4,35.79,68.09L36.05,68.32L42.25,74.52L56.33,60.44L42.25,74.52z"/>
    <path id="h" fill="#0891B2" d="M66.98,49.97c-7.66,0-14.38-2.91-20.54-8.89-.38-.37-.89-.58-1.43-.58s-1.05.2-1.43.57c-6.18,5.99-12.9,8.89-20.55,8.89-1.12,0-2.02.88-2.02,1.96v17.21c0,15.07,7.86,25.25,23.36,30.26.21.07.42.1.64.1s.43-.03.64-.1c15.5-5.01,23.36-15.19,23.36-30.26v-17.21c0-1.08-.91-1.96-2.02-1.96ZM59.91,63.53l-.23.26-15.75,15.75c-.84.84-2.15.92-3.08.23l-.26-.23-7.88-7.88c-.92-.92-.92-2.42,0-3.34.84-.84,2.15-.92,3.08-.23l.26.23,6.2,6.2,14.08-14.08c.92-.92,2.42-.92,3.34,0,.84.84.91,2.15.23,3.08Z"/>
  </g>
</svg>
