<?xml version="1.0" encoding="utf-8"?>
<!-- Created with: Axialis IconVectors - www.axialis.com -->
<svg xmlns="http://www.w3.org/2000/svg" version="1.1" xmlns:xlink="http://www.w3.org/1999/xlink" id="a" viewBox="0 0 90 140">
  <g id="b">
    <path id="c" fill="#1f2937" d="M73,135L17,135C10.37,135,5,129.63,5,123L5,17C5,10.37,10.37,5,17,5L73,5C79.63,5,85,10.37,85,17L85,123C85,129.63,79.63,135,73,135z"/>
    <path id="d" fill="#6b7280" d="M73,140H17c-9.37,0-17-7.63-17-17V17C0,7.63,7.63,0,17,0h56c9.37,0,17,7.63,17,17v106c0,9.37-7.63,17-17,17ZM17,10c-3.86,0-7,3.14-7,7v106c0,3.86,3.14,7,7,7h56c3.86,0,7-3.14,7-7V17c0-3.86-3.14-7-7-7H17Z"/>
    <path id="e" fill="#6b7280" d="M55,120L35,120C32.24,120,30,117.76,30,115C30,112.24,32.24,110,35,110L55,110C57.76,110,60,112.24,60,115C60,117.76,57.76,120,55,120z"/>
    <path fill="#6b7280" d="M56,20L34,20C31.24,20,29,17.76,29,15L29,15C29,12.24,26.76,10,24,10L24,10L24,7L66,7L66,10L66,10C63.24,10,61,12.24,61,15L61,15C61,17.76,58.76,20,56,20z"/>
  </g>
  <g id="f">
    <path id="g" fill="#1f2937" d="M15,55.91L15,61.02L43.93,76.48C44.6,76.84,45.4,76.84,46.06,76.48L74.99,61.02L74.99,55.91L44.99,71.95L14.99,55.91z"/>
    <path id="h" fill="#0891B2" d="M24.2,46 C19.23,46 15.2,50.03 15.2,55 L15.2,55.91 L45.2,71.95 L75.2,55.91 L75.2,55 C75.2,50.03 71.17,46 66.2,46 L24.2,46 Z M75.2,61.02 L46.27,76.48 C45.6,76.84 44.8,76.84 44.14,76.48 L15.21,61.02 L15.21,85 C15.21,89.97 19.24,94 24.21,94 L66.21,94 C71.18,94 75.21,89.97 75.21,85 L75.21,61.02 Z"/>
  </g>
</svg>
