<?xml version="1.0" encoding="utf-8"?>
<!-- Created with: Axialis IconVectors - www.axialis.com -->
<svg xmlns="http://www.w3.org/2000/svg" version="1.1" xmlns:xlink="http://www.w3.org/1999/xlink" id="Livello_1" viewBox="0 0 491 148">
  <polygon class="cls-4" fill="#3760aa" points="459.040000,53.790000 491.520000,35.070000 486.400000,26.190000 448.330000,48.140000 459.040000,53.790000"/>
  <polygon class="cls-7" fill="#4199d5" points="452.990000,0.300000 442.750000,0.290000 442.710000,44.240000 452.970000,37.790000 452.990000,0.300000"/>
  <polygon class="cls-3" fill="#7bb929" points="436.070000,35.050000 403.620000,16.280000 398.490000,25.150000 436.530000,47.150000 436.070000,35.050000"/>
  <polygon class="cls-1" fill="#fcc10c" points="425.250000,48.310000 392.770000,67.030000 397.880000,75.910000 435.960000,53.960000 425.250000,48.310000"/>
  <polygon class="cls-5" fill="#ed6a2c" points="431.290000,101.800000 441.540000,101.810000 441.580000,57.860000 431.320000,64.310000 431.290000,101.800000"/>
  <polygon class="cls-2" fill="#e22f88" points="448.220000,67.050000 480.670000,85.820000 485.800000,76.950000 447.760000,54.950000 448.220000,67.050000"/>
  <path class="cls-6" fill="#D4D4D4" d="M209.09,86.46c-5.7,0-10.94,1.91-15.18,5.09v-15.7h-10.19v61.92h10.19v-5.66c4.24,3.18,9.48,5.09,15.18,5.09,13.99,0,25.37-11.38,25.37-25.37s-11.38-25.37-25.37-25.37h0ZM209.09,127.01c-8.37,0-15.18-6.81-15.18-15.18s6.81-15.18,15.18-15.18,15.18,6.81,15.18,15.18-6.81,15.18-15.18,15.18h0Z"/>
  <path class="cls-6" fill="#D4D4D4" d="M305.43,86.46c-13.99,0-25.37,11.38-25.37,25.37s11.38,25.37,25.37,25.37,25.37-11.38,25.37-25.37-11.38-25.37-25.37-25.37ZM305.43,127.01c-8.37,0-15.18-6.81-15.18-15.18s6.81-15.18,15.18-15.18,15.18,6.81,15.18,15.18-6.81,15.18-15.18,15.18Z"/>
  <path class="cls-6" fill="#D4D4D4" d="M367.77,86.46c-5.7,0-10.94,1.91-15.18,5.09v-4.73h-10.19v61.92h10.19v-16.63c4.24,3.18,9.48,5.09,15.18,5.09,13.99,0,25.37-11.38,25.37-25.37s-11.38-25.37-25.37-25.37h0ZM367.77,127.01c-8.37,0-15.18-6.81-15.18-15.18s6.81-15.18,15.18-15.18,15.18,6.81,15.18,15.18-6.81,15.18-15.18,15.18Z"/>
  <polygon class="cls-6" fill="#D4D4D4" points="252.260000,75.850000 234.660000,75.850000 234.660000,86.040000 252.260000,86.040000 252.260000,137.770000 262.450000,137.770000 262.450000,86.040000 280.050000,86.040000 280.050000,75.850000 262.450000,75.850000 252.260000,75.850000"/>
  <path class="cls-6" fill="#D4D4D4" d="M101.94,119.33C101.94,123.56,98.5,127.01,94.26,127.01C90.02,127.01,86.59,123.57,86.58,119.34L86.58,119.34L86.58,75.72L76.39,75.72L76.39,119.34L76.39,119.34C76.39,123.57,72.95,127.01,68.71,127.01C64.47,127.01,61.03,123.57,61.03,119.33L61.03,75.71L50.84,75.71L50.84,119.33C50.84,129.18,58.85,137.2,68.71,137.2C73.71,137.2,78.23,135.13,81.48,131.8C84.73,135.12,89.25,137.2,94.25,137.2C104.1,137.2,112.12,129.19,112.12,119.33L112.12,75.71L101.93,75.71L101.93,119.33L101.93,119.33z"/>
  <path class="cls-6" fill="#D4D4D4" d="M172.82,107.84c-.56-3.46-1.79-6.69-3.61-9.53-4.48-7.12-12.43-11.86-21.45-11.86-13.99,0-25.37,11.38-25.37,25.37,0,1.17.08,2.32.23,3.44.48,3.47,1.65,6.73,3.4,9.6,4.43,7.38,12.52,12.32,21.74,12.32,8.55,0,16.14-4.25,20.72-10.76l-10.18-3.71c-2.73,2.66-6.45,4.28-10.55,4.28-4.8,0-9.08-2.24-11.86-5.73l27.04-9.84,9.88-3.6h0ZM132.58,111.64c.09-8.28,6.87-14.99,15.18-14.99,4.59,0,8.71,2.05,11.5,5.28l-26.68,9.71Z"/>
  <g id="p">
    <path fill="#737373" d="M0,33.54V6.54h4.46v3.25h.3c.23-.47.57-.97,1-1.51s1.02-1,1.77-1.4,1.7-.59,2.86-.59c1.52,0,2.89.39,4.11,1.16s2.19,1.91,2.91,3.42,1.08,3.35,1.08,5.53-.35,3.99-1.05,5.5-1.67,2.66-2.89,3.45-2.62,1.19-4.17,1.19c-1.11,0-2.04-.19-2.79-.57s-1.35-.84-1.79-1.38-.79-1.04-1.02-1.51h-.19v10.46H0ZM9.14,22.78c1.02,0,1.88-.28,2.57-.83s1.21-1.32,1.56-2.29.53-2.06.53-3.28-.17-2.31-.52-3.26-.86-1.71-1.56-2.25-1.55-.82-2.58-.82-1.86.26-2.55.79-1.22,1.26-1.57,2.21-.54,2.05-.54,3.33.18,2.4.54,3.36.88,1.71,1.58,2.24,1.54.8,2.54.8Z"/>
    <path fill="#737373" d="M30.99,26.6c-1.91,0-3.57-.42-4.97-1.27s-2.49-2.03-3.26-3.55-1.15-3.28-1.15-5.3.38-3.82,1.15-5.35,1.85-2.72,3.26-3.56,3.06-1.27,4.97-1.27,3.59.42,4.99,1.27,2.49,2.03,3.26,3.56,1.15,3.31,1.15,5.35-.38,3.78-1.15,5.3-1.85,2.7-3.26,3.55-3.07,1.27-4.99,1.27ZM30.99,22.89c1.07,0,1.95-.29,2.66-.86s1.24-1.35,1.58-2.32.52-2.06.52-3.25-.17-2.3-.52-3.27-.87-1.75-1.58-2.32-1.6-.86-2.66-.86-1.95.29-2.65.86-1.22,1.34-1.56,2.31-.52,2.06-.52,3.28.17,2.28.52,3.25.87,1.75,1.56,2.32,1.58.86,2.65.86Z"/>
    <path fill="#737373" d="M48.04,26.19L42.19,6.54L47.01,6.54L48.94,14.24C49.23,15.51,49.56,16.89,49.91,18.41C50.26,19.93,50.6,21.6,50.91,23.45L50.33,23.45C50.65,21.65,50.99,19.98,51.35,18.47C51.71,16.96,52.06,15.54,52.39,14.24L54.38,6.54L58.74,6.54L60.67,14.24C60.99,15.52,61.32,16.91,61.68,18.43C62.04,19.95,62.38,21.62,62.71,23.45L62.13,23.45C62.45,21.63,62.77,19.97,63.11,18.46C63.45,16.95,63.77,15.54,64.09,14.24L66.02,6.54L70.87,6.54L65,26.19L60.38,26.19L58.08,18.17C57.85,17.36,57.62,16.49,57.39,15.57C57.16,14.65,56.95,13.7,56.74,12.73C56.53,11.76,56.32,10.83,56.11,9.94L56.95,9.94C56.74,10.83,56.53,11.76,56.31,12.73C56.09,13.7,55.88,14.65,55.66,15.59C55.44,16.53,55.22,17.39,54.98,18.17L52.68,26.19L48.06,26.19z"/>
    <path fill="#737373" d="M82.2,26.6C80.22,26.6,78.52,26.18,77.09,25.35C75.66,24.52,74.57,23.35,73.8,21.83C73.03,20.31,72.65,18.54,72.65,16.49C72.65,14.44,73.03,12.69,73.78,11.16C74.53,9.63,75.61,8.44,77,7.58C78.39,6.72,80.02,6.29,81.9,6.29C83.1,6.29,84.23,6.48,85.32,6.87C86.41,7.26,87.36,7.85,88.2,8.66C89.04,9.47,89.69,10.5,90.17,11.74C90.65,12.98,90.88,14.47,90.88,16.2L90.88,17.64L74.81,17.64L74.81,14.53L88.61,14.53L86.47,15.44C86.47,14.34,86.3,13.37,85.96,12.53C85.62,11.69,85.11,11.04,84.44,10.57C83.77,10.1,82.93,9.87,81.92,9.87C80.91,9.87,80.06,10.11,79.35,10.58C78.64,11.05,78.11,11.69,77.74,12.48C77.37,13.27,77.19,14.15,77.19,15.13L77.19,17.27C77.19,18.51,77.4,19.56,77.82,20.42C78.24,21.28,78.83,21.92,79.6,22.35C80.37,22.78,81.25,23,82.25,23C82.92,23,83.52,22.9,84.07,22.71C84.62,22.52,85.09,22.23,85.49,21.85C85.89,21.47,86.19,21,86.39,20.45L90.59,21.31C90.27,22.36,89.73,23.29,88.97,24.08C88.21,24.87,87.26,25.49,86.11,25.93C84.96,26.37,83.66,26.59,82.2,26.59z"/>
    <path fill="#737373" d="M94.8,26.19L94.8,6.54L99.23,6.54L99.23,9.83L99.44,9.83C99.79,8.69,100.41,7.82,101.29,7.2C102.17,6.58,103.17,6.28,104.3,6.28C104.56,6.28,104.84,6.29,105.16,6.32C105.48,6.35,105.75,6.37,105.97,6.41L105.97,10.61C105.78,10.55,105.48,10.5,105.06,10.45C104.64,10.4,104.22,10.38,103.81,10.38C102.97,10.38,102.21,10.56,101.53,10.92C100.85,11.28,100.33,11.78,99.95,12.42C99.57,13.06,99.38,13.79,99.38,14.63L99.38,26.2L94.81,26.2z"/>
    <path fill="#737373" d="M116.98,26.6C115,26.6,113.3,26.18,111.87,25.35C110.44,24.52,109.35,23.35,108.58,21.83C107.81,20.31,107.43,18.54,107.43,16.49C107.43,14.44,107.81,12.69,108.56,11.16C109.31,9.63,110.39,8.44,111.78,7.58C113.17,6.72,114.8,6.29,116.68,6.29C117.88,6.29,119.01,6.48,120.1,6.87C121.19,7.26,122.14,7.85,122.98,8.66C123.82,9.47,124.47,10.5,124.95,11.74C125.43,12.98,125.66,14.47,125.66,16.2L125.66,17.64L109.59,17.64L109.59,14.53L123.39,14.53L121.25,15.44C121.25,14.34,121.08,13.37,120.74,12.53C120.4,11.69,119.89,11.04,119.22,10.57C118.55,10.1,117.71,9.87,116.7,9.87C115.69,9.87,114.84,10.11,114.13,10.58C113.42,11.05,112.89,11.69,112.52,12.48C112.15,13.27,111.97,14.15,111.97,15.13L111.97,17.27C111.97,18.51,112.18,19.56,112.6,20.42C113.02,21.28,113.61,21.92,114.38,22.35C115.15,22.78,116.03,23,117.03,23C117.7,23,118.3,22.9,118.85,22.71C119.4,22.52,119.87,22.23,120.27,21.85C120.67,21.47,120.97,21,121.17,20.45L125.37,21.31C125.05,22.36,124.51,23.29,123.75,24.08C122.99,24.87,122.04,25.49,120.89,25.93C119.74,26.37,118.44,26.59,116.98,26.59z"/>
    <path fill="#737373" d="M136.83,26.54c-1.55,0-2.93-.4-4.16-1.19s-2.19-1.94-2.89-3.45-1.05-3.35-1.05-5.5.36-4.02,1.08-5.53,1.69-2.65,2.92-3.42,2.59-1.16,4.09-1.16c1.17,0,2.13.2,2.87.59s1.34.86,1.78,1.4.77,1.04.99,1.51h.19V0h4.57v26.19h-4.48v-3.11h-.28c-.23.47-.58.97-1.03,1.51s-1.05,1-1.78,1.38-1.68.57-2.81.57ZM138.08,22.78c1,0,1.84-.27,2.53-.8s1.22-1.28,1.58-2.24.54-2.08.54-3.36-.18-2.39-.54-3.33-.88-1.68-1.58-2.21-1.54-.79-2.54-.79-1.89.27-2.58.82-1.21,1.29-1.56,2.25-.53,2.04-.53,3.26.18,2.31.53,3.28.88,1.73,1.57,2.29,1.56.83,2.58.83Z"/>
    <path fill="#737373" d="M171.49,26.54c-1.11,0-2.04-.19-2.79-.57s-1.35-.84-1.79-1.38-.79-1.04-1.02-1.51h-.3v3.11h-4.46V0h4.57v9.79h.19c.23-.47.57-.97,1-1.51s1.02-1,1.77-1.4,1.7-.59,2.86-.59c1.52,0,2.89.39,4.11,1.16s2.19,1.91,2.91,3.42,1.08,3.35,1.08,5.53-.35,3.99-1.05,5.5-1.67,2.66-2.89,3.45-2.62,1.19-4.17,1.19ZM170.26,22.78c1.02,0,1.88-.28,2.57-.83s1.21-1.32,1.56-2.29.53-2.06.53-3.28-.17-2.31-.52-3.26-.86-1.71-1.56-2.25-1.55-.82-2.58-.82-1.86.26-2.55.79-1.22,1.26-1.57,2.21-.54,2.05-.54,3.33.18,2.4.54,3.36.88,1.71,1.58,2.24,1.54.8,2.54.8Z"/>
    <path fill="#737373" d="M182.72,33.21L183.79,29.64L184.33,29.78C185.02,29.96,185.64,30.01,186.18,29.93C186.72,29.85,187.17,29.62,187.53,29.23C187.89,28.84,188.15,28.27,188.3,27.52L188.58,26.27L181.16,6.55L186.05,6.55L189.64,17.24C190.06,18.51,190.41,19.77,190.68,21.02C190.95,22.27,191.25,23.56,191.58,24.87L190.38,24.87C190.7,23.56,191.01,22.27,191.33,21.01C191.65,19.75,192.02,18.49,192.44,17.24L196.15,6.55L200.98,6.55L192.54,28.73C192.14,29.77,191.64,30.67,191.05,31.41C190.46,32.15,189.72,32.72,188.85,33.11C187.98,33.5,186.96,33.69,185.77,33.69C185.13,33.69,184.53,33.64,183.99,33.55C183.45,33.46,183.02,33.34,182.72,33.22z"/>
  </g>
</svg>
