<?xml version="1.0" encoding="UTF-8"?>
<!DOCTYPE svg PUBLIC "-//W3C//DTD SVG 1.1//EN" "http://www.w3.org/Graphics/SVG/1.1/DTD/svg11.dtd">
<svg version="1.1" id="Layer_1" xmlns="http://www.w3.org/2000/svg" xmlns:xlink="http://www.w3.org/1999/xlink" x="0px" y="0px" width="16px" height="16px" viewBox="0 0 16 16" enable-background="new 0 0 16 16" xml:space="preserve">
  <g id="icon">
    <path d="M2,1.5c0,-0.2761,0.2239,-0.5,0.5,-0.5h12c0.2761,0,0.5,0.2239,0.5,0.5s-0.2239,0.5,-0.5,0.5H2.5C2.2239,2,2,1.7761,2,1.5zM7,3.5c0,-0.2761,0.2239,-0.5,0.5,-0.5h7c0.2761,0,0.5,0.2239,0.5,0.5s-0.2239,0.5,-0.5,0.5H7.5C7.2239,4,7,3.7761,7,3.5z" fill="#6D6E71"/>
    <path d="M2,5.5c0,-0.2761,0.2239,-0.5,0.5,-0.5h12c0.2761,0,0.5,0.2239,0.5,0.5s-0.2239,0.5,-0.5,0.5H2.5C2.2239,6,2,5.7761,2,5.5zM7,7.5c0,-0.2761,0.2239,-0.5,0.5,-0.5h7c0.2761,0,0.5,0.2239,0.5,0.5s-0.2239,0.5,-0.5,0.5H7.5C7.2239,8,7,7.7761,7,7.5z" fill="#6D6E71"/>
    <path d="M2,9.5c0,-0.2761,0.2239,-0.5,0.5,-0.5h12c0.2761,0,0.5,0.2239,0.5,0.5s-0.2239,0.5,-0.5,0.5H2.5C2.2239,10,2,9.7761,2,9.5zM2,13.5c0,-0.2761,0.2239,-0.5,0.5,-0.5h12c0.2761,0,0.5,0.2239,0.5,0.5s-0.2239,0.5,-0.5,0.5H2.5C2.2239,14,2,13.7761,2,13.5zM7,11.5c0,-0.2761,0.2239,-0.5,0.5,-0.5h7c0.2761,0,0.5,0.2239,0.5,0.5s-0.2239,0.5,-0.5,0.5H7.5C7.2239,12,7,11.7761,7,11.5z" fill="#6D6E71"/>
  </g>
</svg>
