<?xml version="1.0" encoding="UTF-8"?>
<!DOCTYPE svg PUBLIC "-//W3C//DTD SVG 1.1//EN" "http://www.w3.org/Graphics/SVG/1.1/DTD/svg11.dtd">
<svg version="1.1" id="Layer_1" xmlns="http://www.w3.org/2000/svg" xmlns:xlink="http://www.w3.org/1999/xlink" x="0px" y="0px" width="16px" height="16px" viewBox="0 0 16 16" enable-background="new 0 0 16 16" xml:space="preserve">
  <g id="icon">
    <path d="M13.5,2H1.5c-0.2761,0,-0.5,-0.2239,-0.5,-0.5s0.2239,-0.5,0.5,-0.5h12c0.2761,0,0.5,0.2239,0.5,0.5S13.7761,2,13.5,2zM8.5,4H1.5c-0.2761,0,-0.5,-0.2239,-0.5,-0.5s0.2239,-0.5,0.5,-0.5h7c0.2761,0,0.5,0.2239,0.5,0.5S8.7761,4,8.5,4z" fill="#6D6E71"/>
    <path d="M13.5,6H1.5c-0.2761,0,-0.5,-0.2239,-0.5,-0.5s0.2239,-0.5,0.5,-0.5h12c0.2761,0,0.5,0.2239,0.5,0.5S13.7761,6,13.5,6zM8.5,8H1.5c-0.2761,0,-0.5,-0.2239,-0.5,-0.5s0.2239,-0.5,0.5,-0.5h7c0.2761,0,0.5,0.2239,0.5,0.5S8.7761,8,8.5,8z" fill="#6D6E71"/>
    <path d="M13.5,10H1.5c-0.2761,0,-0.5,-0.2239,-0.5,-0.5s0.2239,-0.5,0.5,-0.5h12c0.2761,0,0.5,0.2239,0.5,0.5S13.7761,10,13.5,10zM13.5,14H1.5c-0.2761,0,-0.5,-0.2239,-0.5,-0.5s0.2239,-0.5,0.5,-0.5h12c0.2761,0,0.5,0.2239,0.5,0.5S13.7761,14,13.5,14zM8.5,12H1.5c-0.2761,0,-0.5,-0.2239,-0.5,-0.5s0.2239,-0.5,0.5,-0.5h7c0.2761,0,0.5,0.2239,0.5,0.5S8.7761,12,8.5,12z" fill="#6D6E71"/>
  </g>
</svg>
