<?xml version="1.0" encoding="UTF-8"?>
<!DOCTYPE svg PUBLIC "-//W3C//DTD SVG 1.1//EN" "http://www.w3.org/Graphics/SVG/1.1/DTD/svg11.dtd">
<svg version="1.1" id="Layer_1" xmlns="http://www.w3.org/2000/svg" xmlns:xlink="http://www.w3.org/1999/xlink" x="0px" y="0px" width="16px" height="16px" viewBox="0 0 16 16" enable-background="new 0 0 16 16" xml:space="preserve">
  <g id="icon">
    <path d="M1,1.5c0,-0.2761,0.2239,-0.5,0.5,-0.5h13c0.2761,0,0.5,0.2239,0.5,0.5s-0.2239,0.5,-0.5,0.5H1.5C1.2239,2,1,1.7761,1,1.5zM1,3.5c0,-0.2761,0.2239,-0.5,0.5,-0.5h13c0.2761,0,0.5,0.2239,0.5,0.5s-0.2239,0.5,-0.5,0.5H1.5C1.2239,4,1,3.7761,1,3.5z" fill="#6D6E71"/>
    <path d="M1,5.5c0,-0.2761,0.2239,-0.5,0.5,-0.5h13c0.2761,0,0.5,0.2239,0.5,0.5s-0.2239,0.5,-0.5,0.5H1.5C1.2239,6,1,5.7761,1,5.5zM1,7.5c0,-0.2761,0.2239,-0.5,0.5,-0.5h13c0.2761,0,0.5,0.2239,0.5,0.5s-0.2239,0.5,-0.5,0.5H1.5C1.2239,8,1,7.7761,1,7.5z" fill="#6D6E71"/>
    <path d="M1,9.5c0,-0.2761,0.2239,-0.5,0.5,-0.5h13c0.2761,0,0.5,0.2239,0.5,0.5s-0.2239,0.5,-0.5,0.5H1.5C1.2239,10,1,9.7761,1,9.5zM1,13.5c0,-0.2761,0.2239,-0.5,0.5,-0.5h13c0.2761,0,0.5,0.2239,0.5,0.5s-0.2239,0.5,-0.5,0.5H1.5C1.2239,14,1,13.7761,1,13.5zM1,11.5c0,-0.2761,0.2239,-0.5,0.5,-0.5h13c0.2761,0,0.5,0.2239,0.5,0.5s-0.2239,0.5,-0.5,0.5H1.5C1.2239,12,1,11.7761,1,11.5z" fill="#6D6E71"/>
  </g>
</svg>
