<?xml version="1.0" encoding="UTF-8"?>
<!DOCTYPE svg PUBLIC "-//W3C//DTD SVG 1.1//EN" "http://www.w3.org/Graphics/SVG/1.1/DTD/svg11.dtd">
<svg version="1.1" id="Layer_1" xmlns="http://www.w3.org/2000/svg" xmlns:xlink="http://www.w3.org/1999/xlink" x="0px" y="0px" width="16px" height="16px" viewBox="0 0 16 16" enable-background="new 0 0 16 16" xml:space="preserve">
  <g id="icon">
    <path d="M14.5,2H1.5c-0.2761,0,-0.5,-0.2239,-0.5,-0.5s0.2239,-0.5,0.5,-0.5h13c0.2761,0,0.5,0.2239,0.5,0.5S14.7761,2,14.5,2zM11.5,4H3.5c-0.2761,0,-0.5,-0.2239,-0.5,-0.5s0.2239,-0.5,0.5,-0.5h8c0.2761,0,0.5,0.2239,0.5,0.5S11.7761,4,11.5,4z" fill="#6D6E71"/>
    <path d="M14.5,6H1.5c-0.2761,0,-0.5,-0.2239,-0.5,-0.5s0.2239,-0.5,0.5,-0.5h13c0.2761,0,0.5,0.2239,0.5,0.5S14.7761,6,14.5,6zM11.5,8H3.5c-0.2761,0,-0.5,-0.2239,-0.5,-0.5s0.2239,-0.5,0.5,-0.5h8c0.2761,0,0.5,0.2239,0.5,0.5S11.7761,8,11.5,8z" fill="#6D6E71"/>
    <path d="M14.5,10H1.5c-0.2761,0,-0.5,-0.2239,-0.5,-0.5s0.2239,-0.5,0.5,-0.5h13c0.2761,0,0.5,0.2239,0.5,0.5S14.7761,10,14.5,10zM14.5,14H1.5c-0.2761,0,-0.5,-0.2239,-0.5,-0.5s0.2239,-0.5,0.5,-0.5h13c0.2761,0,0.5,0.2239,0.5,0.5S14.7761,14,14.5,14zM11.5,12H3.5c-0.2761,0,-0.5,-0.2239,-0.5,-0.5s0.2239,-0.5,0.5,-0.5h8c0.2761,0,0.5,0.2239,0.5,0.5S11.7761,12,11.5,12z" fill="#6D6E71"/>
  </g>
</svg>
