<?xml version="1.0" encoding="UTF-8"?>
<!DOCTYPE svg PUBLIC "-//W3C//DTD SVG 1.1//EN" "http://www.w3.org/Graphics/SVG/1.1/DTD/svg11.dtd">
<svg version="1.1" id="Layer_1" xmlns="http://www.w3.org/2000/svg" xmlns:xlink="http://www.w3.org/1999/xlink" x="0px" y="0px" width="16px" height="16px" viewBox="0 0 16 16" enable-background="new 0 0 16 16" xml:space="preserve">
  <g id="icon">
    <g>
      <path d="M7.8478,0C8.971,0,9.9312,0.0983,10.729,0.2945c0.7976,0.1963,1.4528,0.476,1.9656,0.8389c0.5128,0.363,0.8892,0.8056,1.1293,1.3278c0.2399,0.5222,0.3601,1.1094,0.3601,1.7611c0,0.3778,-0.0632,0.7427,-0.1892,1.0944c-0.1263,0.3519,-0.3216,0.6816,-0.5861,0.9889c-0.2645,0.3075,-0.5963,0.5833,-0.995,0.8278c-0.3989,0.2444,-0.871,0.4482,-1.4162,0.6111c2.4905,0.4816,3.7358,1.6852,3.7358,3.6111c0,0.6816,-0.1404,1.3056,-0.4212,1.8722c-0.2808,0.5667,-0.6879,1.0556,-1.2208,1.4667c-0.5332,0.4111,-1.1903,0.7316,-1.9717,0.9611C10.3383,15.8853,9.4471,16,8.446,16H2V0H7.8478zM5,2v5h2.7983c1.2209,0,2.1323,-0.2147,2.7347,-0.6445c0.6022,-0.4295,0.9034,-1.0481,0.9034,-1.8555c0,-0.8814,-0.2829,-1.5184,-0.8485,-1.9111C10.0221,2.1963,9.137,2,7.9326,2H5zM8.4283,14c0.633,0,1.168,-0.0674,1.6048,-0.2024c0.4367,-0.1349,0.7934,-0.319,1.0699,-0.5525c0.2765,-0.2333,0.4767,-0.5087,0.6011,-0.826c0.1242,-0.3173,0.1863,-0.7582,0.1863,-1.123c0,-0.744,-0.2786,-1.2293,-0.8355,-1.656C10.4979,9.2134,9.6185,9,8.4163,9H5v5H8.4283z" fill="#58595B"/>
    </g>
  </g>
</svg>
