<?xml version="1.0" encoding="UTF-8"?>
<!DOCTYPE svg PUBLIC "-//W3C//DTD SVG 1.1//EN" "http://www.w3.org/Graphics/SVG/1.1/DTD/svg11.dtd">
<svg version="1.1" id="Layer_1" xmlns="http://www.w3.org/2000/svg" xmlns:xlink="http://www.w3.org/1999/xlink" x="0px" y="0px" width="16px" height="16px" viewBox="0 0 16 16" enable-background="new 0 0 16 16" xml:space="preserve">
  <g id="icon">
    <path d="M11.9274,14.2c-1.7041,0,-2.5957,-1.3185,-2.5957,-2.6209c0,-2.1247,1.6793,-3.3069,4.7327,-3.3366c-0.0056,-1.1455,-0.533,-1.7262,-1.5676,-1.7262l-0.0307,0.0002c-0.7158,0,-1.4472,0.2217,-1.9585,0.5931l-0.2094,0.1521l-0.4488,-1.4216l0.1207,-0.081c0.7138,-0.479,1.7252,-0.765,2.7054,-0.765c2.0812,0,3.1813,1.2565,3.1813,3.6337v3.1607c0,0.7884,0.0387,1.4792,0.1119,1.9979l0.0312,0.2214h-1.6719l-0.0881,-0.824C13.6701,13.8264,12.8325,14.2,11.9274,14.2zM14.0274,9.7201c-1.8902,0,-2.8486,0.5643,-2.8486,1.6773c0,0.7803,0.4174,1.2461,1.1165,1.2461c0.972,0,1.5313,-0.6759,1.7148,-1.2547c0.0446,-0.1605,0.0544,-0.3176,0.0544,-0.42V9.7202C14.0522,9.7201,14.0398,9.7201,14.0274,9.7201zM7.7009,14.0079l-1.1606,-3.6799H2.9636l-1.1283,3.6799H0.0167L3.8218,2h1.9391L9.566,14.0079H7.7009zM6.1191,8.7787l-0.9828,-3.0645c-0.1576,-0.4978,-0.2806,-0.9652,-0.3914,-1.4162c-0.1105,0.4611,-0.2296,0.931,-0.3778,1.3985l-0.9688,3.0822H6.1191z" fill="#58595B"/>
  </g>
</svg>
