<?xml version="1.0" encoding="UTF-8"?>
<!DOCTYPE svg PUBLIC "-//W3C//DTD SVG 1.1//EN" "http://www.w3.org/Graphics/SVG/1.1/DTD/svg11.dtd">
<svg version="1.1" id="Layer_1" xmlns="http://www.w3.org/2000/svg" xmlns:xlink="http://www.w3.org/1999/xlink" x="0px" y="0px" width="16px" height="16px" viewBox="0 0 16 16" enable-background="new 0 0 16 16" xml:space="preserve">
  <g id="icon">
    <path d="M4.3199,6.5716c-1.2592,1.77,-2.1085,3.3619,-4.0657,4.2212s7.3577,6.3645,9.41,4.9603c0.9076,-0.6209,1.7989,-1.796,2.8625,-3.2911c0.0082,-0.0115,0.0158,-0.0233,0.023,-0.0354L4.3199,6.5716z" fill="#EAB765"/>
    <path d="M13.4325,11.1302c0.3023,-0.6359,-0.2444,-1.0326,-0.7118,-1.3783c-0.5653,-0.4182,-1.7392,-1.1186,-1.0978,-1.9227c0.836,-1.0479,2.0707,-1.7334,3.0423,-2.6366c0.9927,-0.9228,1.8158,-2.3267,1.0123,-3.6381c-0.2551,-0.4165,-0.5446,-0.7231,-0.8946,-0.9587c-0.3252,-0.2447,-0.7207,-0.4263,-1.1978,-0.5308c-1.5024,-0.329,-2.5578,0.9083,-3.104,2.1487c-0.5347,1.2141,-0.776,2.6038,-1.4919,3.7372c-0.5493,0.8696,-1.5952,-0.0138,-2.1756,-0.4108c-0.4798,-0.3281,-1.0382,-0.7084,-1.5398,-0.2143c-0.1248,0.1229,-0.2791,0.3136,-0.4788,0.5856L8.9157,8.843l4.1206,2.9316C13.2278,11.4967,13.3573,11.2884,13.4325,11.1302zM12.9432,3.182c-0.4556,-0.3241,-0.5621,-0.9561,-0.238,-1.4117c0.3241,-0.4556,0.9561,-0.5621,1.4117,-0.238c0.4556,0.3241,0.5621,0.9561,0.238,1.4117C14.0308,3.3995,13.3987,3.506,12.9432,3.182z" fill="#797979"/>
  </g>
</svg>
