<?xml version="1.0" encoding="UTF-8"?>
<!DOCTYPE svg PUBLIC "-//W3C//DTD SVG 1.1//EN" "http://www.w3.org/Graphics/SVG/1.1/DTD/svg11.dtd">
<svg version="1.1" id="Layer_1" xmlns="http://www.w3.org/2000/svg" xmlns:xlink="http://www.w3.org/1999/xlink" x="0px" y="0px" width="16px" height="16px" viewBox="0 0 16 16" enable-background="new 0 0 16 16" xml:space="preserve">
  <g id="icon">
    <path d="M14.471,3.011H1.529C0.685,3.011,0,3.697,0,4.543v7.925C0,13.314,0.685,14,1.529,14h12.942c0.844,0,1.529,-0.686,1.529,-1.532V4.543C16,3.697,15.315,3.011,14.471,3.011zM5.247,6.955c0,0.072,-0.015,0.138,-0.045,0.2c-0.03,0.061,-0.081,0.113,-0.153,0.156l-1.668,1.03c-0.072,0.043,-0.147,0.081,-0.225,0.113c-0.078,0.032,-0.162,0.061,-0.252,0.086c0.09,0.025,0.174,0.053,0.252,0.084c0.078,0.031,0.153,0.069,0.225,0.116l1.668,1.03c0.072,0.043,0.123,0.095,0.153,0.156c0.03,0.061,0.045,0.129,0.045,0.205v0.971L1.6,8.816v-0.55l3.647,-2.282V6.955zM6.751,11.709H5.682l3.563,-6.373h1.069L6.751,11.709zM14.4,8.816l-3.652,2.287v-0.971c0,-0.072,0.016,-0.139,0.047,-0.202c0.031,-0.063,0.083,-0.116,0.155,-0.159l1.668,-1.03c0.135,-0.083,0.294,-0.149,0.477,-0.2c-0.09,-0.025,-0.174,-0.054,-0.252,-0.086c-0.078,-0.032,-0.153,-0.07,-0.225,-0.113l-1.668,-1.03c-0.072,-0.043,-0.124,-0.095,-0.155,-0.156c-0.031,-0.061,-0.047,-0.128,-0.047,-0.2v-0.971L14.4,8.265V8.816z" fill="#787878"/>
  </g>
</svg>
