<?xml version="1.0" encoding="UTF-8"?>
<!DOCTYPE svg PUBLIC "-//W3C//DTD SVG 1.1//EN" "http://www.w3.org/Graphics/SVG/1.1/DTD/svg11.dtd">
<svg version="1.1" id="Layer_1" xmlns="http://www.w3.org/2000/svg" xmlns:xlink="http://www.w3.org/1999/xlink" x="0px" y="0px" width="16px" height="16px" viewBox="0 0 16 16" enable-background="new 0 0 16 16" xml:space="preserve">
  <g id="icon">
    <rect x="1" y="12" width="14" height="4" fill="#58595B"/>
    <path d="M1,0v11h14V0H1zM12.571,10.7h-1.26c-0.234,0,-0.437,-0.066,-0.603,-0.196c-0.151,-0.117,-0.262,-0.269,-0.329,-0.451L9.672,8.2H6.22l-0.707,1.854c-0.061,0.165,-0.169,0.311,-0.32,0.434c-0.17,0.139,-0.382,0.212,-0.612,0.212h-1.26c-0.291,0,-0.491,-0.294,-0.383,-0.565L6.792,0.46C6.855,0.303,7.006,0.2,7.175,0.2h1.542c0.169,0,0.32,0.103,0.383,0.26l3.854,9.676C13.061,10.406,12.862,10.7,12.571,10.7zM7.949,3.639L8.928,6.2H6.97L7.949,3.639z" fill="#EAB765"/>
    <path d="M11.311,10.3c-0.144,0,-0.266,-0.038,-0.362,-0.113c-0.093,-0.072,-0.161,-0.167,-0.202,-0.28L9.943,7.8H5.949l-0.804,2.109c-0.036,0.098,-0.104,0.188,-0.2,0.267c-0.101,0.082,-0.223,0.124,-0.364,0.124H3.303L7.167,0.6h1.558l3.864,9.7H11.311zM9.508,6.6L8.153,3.056c-0.069,-0.171,-0.139,-0.376,-0.209,-0.611c-0.018,0.063,-0.036,0.123,-0.055,0.182c-0.051,0.164,-0.102,0.312,-0.151,0.442L6.39,6.6H9.508z" fill="#58595B"/>
  </g>
</svg>
