<?xml version="1.0" encoding="UTF-8"?>
<!DOCTYPE svg PUBLIC "-//W3C//DTD SVG 1.1//EN" "http://www.w3.org/Graphics/SVG/1.1/DTD/svg11.dtd">
<svg version="1.1" id="Layer_1" xmlns="http://www.w3.org/2000/svg" xmlns:xlink="http://www.w3.org/1999/xlink" x="0px" y="0px" width="16px" height="16px" viewBox="0 0 16 16" enable-background="new 0 0 16 16" xml:space="preserve">
  <g id="icon">
    <rect x="1" y="12" width="14" height="4" fill="#58595B"/>
    <path d="M11.997,11c-0.167,0,-0.308,-0.042,-0.419,-0.126c-0.109,-0.082,-0.188,-0.189,-0.236,-0.317L10.376,8h-4.8l-0.966,2.557c-0.043,0.113,-0.122,0.215,-0.234,0.304c-0.116,0.092,-0.258,0.139,-0.421,0.139H2.61L7.084,0h1.784l4.473,11H11.997zM9.828,6.7L8.236,2.658c-0.087,-0.209,-0.175,-0.461,-0.262,-0.753c-0.027,0.093,-0.054,0.182,-0.081,0.267c-0.06,0.186,-0.119,0.355,-0.176,0.501L6.131,6.7H9.828z" fill="#58595B"/>
  </g>
</svg>
