<?xml version="1.0" encoding="UTF-8"?>
<!DOCTYPE svg PUBLIC "-//W3C//DTD SVG 1.1//EN" "http://www.w3.org/Graphics/SVG/1.1/DTD/svg11.dtd">
<svg version="1.1" id="Layer_1" xmlns="http://www.w3.org/2000/svg" xmlns:xlink="http://www.w3.org/1999/xlink" x="0px" y="0px" width="16px" height="16px" viewBox="0 0 16 16" enable-background="new 0 0 16 16" xml:space="preserve">
  <g id="icon">
    <path d="M2.176,7.975l4.063,-4.063c0.078,-0.078,0.023,-0.212,-0.088,-0.212H4.387c-0.15,0,-0.293,0.059,-0.399,0.165L0.075,7.779c-0.108,0.108,-0.108,0.284,0,0.392l3.914,3.914c0.106,0.106,0.249,0.165,0.399,0.165h1.764c0.111,0,0.166,-0.134,0.088,-0.212L2.176,7.975z" fill="#58595B"/>
    <path d="M13.819,7.975L9.756,3.912C9.677,3.834,9.733,3.7,9.844,3.7h1.764c0.15,0,0.293,0.059,0.399,0.165l3.914,3.914c0.108,0.108,0.108,0.284,0,0.392l-3.914,3.914c-0.106,0.106,-0.249,0.165,-0.399,0.165H9.844c-0.111,0,-0.166,-0.134,-0.088,-0.212L13.819,7.975z" fill="#58595B"/>
  </g>
</svg>
