<?xml version="1.0" encoding="UTF-8"?>
<!DOCTYPE svg PUBLIC "-//W3C//DTD SVG 1.1//EN" "http://www.w3.org/Graphics/SVG/1.1/DTD/svg11.dtd">
<svg version="1.1" id="Layer_1" xmlns="http://www.w3.org/2000/svg" xmlns:xlink="http://www.w3.org/1999/xlink" x="0px" y="0px" width="16px" height="16px" viewBox="0 0 16 16" enable-background="new 0 0 16 16" xml:space="preserve">
  <g id="icon">
    <path d="M7.9959,0.01C3.5854,0.01,0.0101,3.5854,0.0101,7.9959c0,4.4104,3.5754,7.9858,7.9858,7.9858c4.4104,0,7.9858,-3.5754,7.9858,-7.9858C15.9817,3.5854,12.4063,0.01,7.9959,0.01zM10.3462,3.5045c0.4271,0,0.7618,0.6729,0.7618,1.5318c0,0.8589,-0.3346,1.5318,-0.7618,1.5318s-0.7618,-0.6729,-0.7618,-1.5318C9.5844,4.1774,9.919,3.5045,10.3462,3.5045zM5.6296,3.5045c0.4271,0,0.7618,0.6729,0.7618,1.5318c0,0.8589,-0.3346,1.5318,-0.7618,1.5318s-0.7618,-0.6729,-0.7618,-1.5318C4.8678,4.1774,5.2024,3.5045,5.6296,3.5045zM7.9758,14.1448c-2.8051,0,-5.3691,-2.489,-5.3793,-5.2219c-0.0004,-0.1077,0.0408,-0.2111,0.113,-0.2836c0.0644,-0.0646,0.1475,-0.1001,0.2343,-0.1001c0.0259,0,0.052,0.0032,0.0775,0.0095c1.667,0.4134,3.6524,0.5607,4.9545,0.5607c1.2189,0,3.2661,-0.1478,5.0243,-0.5644c0.0245,-0.0058,0.0494,-0.0087,0.0742,-0.0087c0.0872,0,0.1707,0.0359,0.2352,0.1011c0.0725,0.0733,0.1133,0.1775,0.1121,0.286C13.3902,11.6561,10.7946,14.1448,7.9758,14.1448z" fill="#F2BB6A"/>
    <path d="M7.9758,14.1448c-2.8051,0,-5.3691,-2.489,-5.3793,-5.2219c-0.0004,-0.1077,0.0408,-0.2111,0.113,-0.2836c0.0644,-0.0646,0.1475,-0.1001,0.2343,-0.1001c0.0259,0,0.052,0.0032,0.0775,0.0095c1.667,0.4134,3.6524,0.5607,4.9545,0.5607c1.2189,0,3.2661,-0.1478,5.0243,-0.5644c0.0245,-0.0058,0.0494,-0.0087,0.0742,-0.0087c0.0872,0,0.1707,0.0359,0.2352,0.1011c0.0725,0.0733,0.1133,0.1775,0.1121,0.286C13.3902,11.6561,10.7946,14.1448,7.9758,14.1448zM10.3462,6.5682c-0.4271,0,-0.7618,-0.6729,-0.7618,-1.5318c0,-0.859,0.3346,-1.5318,0.7618,-1.5318s0.7618,0.6729,0.7618,1.5318C11.108,5.8953,10.7733,6.5682,10.3462,6.5682zM5.6296,6.5682c-0.4271,0,-0.7618,-0.6729,-0.7618,-1.5318c0,-0.859,0.3346,-1.5318,0.7618,-1.5318s0.7618,0.6729,0.7618,1.5318C6.3914,5.8953,6.0567,6.5682,5.6296,6.5682z" fill-rule="evenodd" fill="#444A54"/>
    <path d="M7.9759,11.2909c2.0219,0,3.7305,-0.5769,4.8971,-1.3712c0.1277,-0.265,0.0612,-0.3437,0.0785,-0.5396c0.0149,-0.1688,-0.086,-0.3094,-0.2015,-0.2777c-1.7091,0.4686,-3.6118,0.56,-4.7741,0.56c-0.6092,0,-2.6726,0.0306,-4.709,-0.5522c-0.1153,-0.033,-0.2172,0.1061,-0.2033,0.275c0.0162,0.1971,0.0484,0.3864,0.1443,0.6211C4.2854,10.7658,5.9539,11.2909,7.9759,11.2909z" fill-rule="evenodd" fill="#F1F2F2"/>
  </g>
</svg>
