<?xml version="1.0" encoding="UTF-8"?>
<!DOCTYPE svg PUBLIC "-//W3C//DTD SVG 1.1//EN" "http://www.w3.org/Graphics/SVG/1.1/DTD/svg11.dtd">
<svg version="1.1" id="Layer_1" xmlns="http://www.w3.org/2000/svg" xmlns:xlink="http://www.w3.org/1999/xlink" x="0px" y="0px" width="16px" height="16px" viewBox="0 0 16 16" enable-background="new 0 0 16 16" xml:space="preserve">
  <g id="icon">
    <path d="M14.0483,15.9866l-2.5011,0.0038c0.3124,-0.246,0.6966,-0.6994,0.7377,-1.1145l1.7656,-0.0025c0.2003,-0.0004,0.4016,-0.0773,0.5523,-0.2111c0.158,-0.1403,0.2452,-0.3253,0.2456,-0.5209l0.0025,-1.2902c0.0004,-0.1862,-0.0788,-0.3656,-0.2229,-0.5052c-0.1532,-0.1484,-0.3617,-0.2333,-0.572,-0.2329l-3.7433,0.0062c-0.2014,0.0004,-0.3883,0.0785,-0.5263,0.2201c-0.1351,0.1386,-0.2097,0.3236,-0.2101,0.5208l-0.0026,1.3071l-1.1491,0.0021l0.0026,-1.3071c0.001,-0.4961,0.1969,-0.9619,0.5517,-1.3117c0.3554,-0.3502,0.8298,-0.5436,1.336,-0.5446L14.0582,11c0.5124,-0.0009,1.0166,0.2023,1.3834,0.5576c0.3611,0.3498,0.5594,0.8085,0.5584,1.2915l-0.0025,1.2902C15.9954,15.1559,15.1211,15.9846,14.0483,15.9866zM4.0025,12.8607L4,14.1509c-0.0009,0.4831,0.1974,0.9418,0.5584,1.2915c0.3668,0.3553,0.871,0.5585,1.3834,0.5576l3.7433,-0.0061c1.0389,-0.0019,1.8857,-0.8346,1.8877,-1.8562l0.0025,-1.3071l-1.1491,0.0021l-0.0026,1.3071c-0.0008,0.4147,-0.3242,0.7402,-0.7364,0.741l-3.7361,-0.0009c-0.2103,0.0004,-0.4116,-0.0915,-0.5648,-0.2399l0,0c-0.1441,-0.1396,-0.2305,-0.312,-0.2301,-0.4982l-0.0011,-1.2866c0.0004,-0.1956,0.0858,-0.3788,0.2438,-0.5191c0.1506,-0.1338,0.351,-0.2099,0.5513,-0.2102l1.7651,-0.0021c0.0407,-0.4149,0.4249,-0.8682,0.7375,-1.1143l-2.5012,0.0039c-0.5114,0.001,-0.9974,0.1934,-1.3684,0.5417C4.2098,11.9058,4.0035,12.3695,4.0025,12.8607z" fill="#3E79B4"/>
    <path d="M3.0025,12.8587c0.0008,-0.4023,0.089,-0.7914,0.2546,-1.1487c-0.49,-0.4938,-0.8963,-1.0709,-1.1919,-1.7101h2.892c0.011,0.0575,0.0226,0.1143,0.0341,0.1712c0.3054,-0.103,0.6285,-0.1573,0.9586,-0.1579l0.1227,-0.0002c-0.0008,-0.0044,-0.0017,-0.0087,-0.0025,-0.0131h2.756c-0.0005,0.0029,-0.0011,0.0057,-0.0016,0.0086l1.1726,-0.0019c0.0004,-0.0022,0.0009,-0.0044,0.0013,-0.0067h2.9503c-0.0003,0.0006,-0.0006,0.0012,-0.0009,0.0018L14.0565,10c0.1669,0,0.3329,0.0151,0.4964,0.0428c0.289,-0.7962,0.4471,-1.6546,0.4471,-2.5493c0,-4.1317,-3.3613,-7.4931,-7.493,-7.4931S0.0141,3.3618,0.0141,7.4935c0,2.4416,1.1743,4.6137,2.9873,5.9826L3.0025,12.8587zM13.5001,7.4935c0,0.5202,-0.0668,1.025,-0.192,1.5065h-3.1518c0.0644,-0.5074,0.1041,-1.0194,0.1041,-1.5141c0,-0.491,-0.0361,-0.9921,-0.0951,-1.4859h3.1464C13.4346,6.4776,13.5001,6.978,13.5001,7.4935zM12.9546,5H10.015c-0.2574,-1.4322,-0.6512,-2.6828,-0.8491,-3.2643C10.851,2.222,12.2325,3.4287,12.9546,5zM6.9692,1.5257c0.1773,-0.0159,0.3565,-0.0254,0.5378,-0.0254c0.1403,0,0.279,0.0066,0.4169,0.0161c0.151,0.4194,0.6347,1.8313,0.931,3.4836H6.0415C6.3355,3.3607,6.8142,1.9572,6.9692,1.5257zM9.0039,6c0.056,0.4769,0.0902,0.9605,0.0902,1.4352c0,0.5108,-0.0416,1.0405,-0.109,1.5648H5.9113c-0.0674,-0.5243,-0.109,-1.054,-0.109,-1.5648c0,-0.4746,0.0341,-0.9583,0.0902,-1.4352H9.0039zM5.8088,1.7469C5.6042,2.333,5.2031,3.5767,4.9402,5H2.0594C2.7759,3.4409,4.1415,2.2405,5.8088,1.7469zM1.514,7.4935c0,-0.5154,0.0655,-1.0159,0.1884,-1.4935h3.0834c-0.0606,0.4937,-0.0977,0.9948,-0.0977,1.4859c0,0.4947,0.0408,1.0068,0.107,1.5141H1.706C1.5808,8.5185,1.514,8.0137,1.514,7.4935z" fill="#6D6E71"/>
  </g>
</svg>
