<?xml version="1.0" encoding="UTF-8"?>
<!DOCTYPE svg PUBLIC "-//W3C//DTD SVG 1.1//EN" "http://www.w3.org/Graphics/SVG/1.1/DTD/svg11.dtd">
<svg version="1.1" id="Layer_1" xmlns="http://www.w3.org/2000/svg" xmlns:xlink="http://www.w3.org/1999/xlink" x="0px" y="0px" width="16px" height="16px" viewBox="0 0 16 16" enable-background="new 0 0 16 16" xml:space="preserve">
  <g id="icon">
    <path d="M15.7417,3.3H5.2583C5.1157,3.3,5,3.1843,5,3.0417v-0.7833C5,2.1157,5.1157,2,5.2583,2h10.4833c0.1427,0,0.2583,0.1157,0.2583,0.2583v0.7833C16,3.1843,15.8843,3.3,15.7417,3.3zM16,9.0417v-0.7833c0,-0.1427,-0.1157,-0.2583,-0.2583,-0.2583H5.2583C5.1157,8,5,8.1157,5,8.2583v0.7833C5,9.1843,5.1157,9.3,5.2583,9.3h10.4833C15.8843,9.3,16,9.1843,16,9.0417zM16,15.0417v-0.7833c0,-0.1427,-0.1157,-0.2583,-0.2583,-0.2583H5.2583c-0.1427,0,-0.2583,0.1157,-0.2583,0.2583v0.7833c0,0.1427,0.1157,0.2583,0.2583,0.2583h10.4833C15.8843,15.3,16,15.1843,16,15.0417z" fill="#6D6E71"/>
    <path d="M2.2992,15.9871c-0.2048,0,-0.3856,-0.0252,-0.5373,-0.0748c-0.1537,-0.0503,-0.2885,-0.1239,-0.4007,-0.2188c-0.1114,-0.0943,-0.2055,-0.2095,-0.2796,-0.3424c-0.0717,-0.1287,-0.133,-0.2745,-0.1823,-0.4333l-0.0257,-0.083l0.3259,-0.1368c0.0563,-0.0243,0.1134,-0.0369,0.1687,-0.0369c0.025,0,0.0499,0.0026,0.0742,0.0076c0.0877,0.0184,0.1548,0.0699,0.1943,0.1487c0.0277,0.0555,0.0589,0.1148,0.0935,0.1779c0.0305,0.0556,0.0704,0.1075,0.1189,0.1544c0.0471,0.0456,0.1071,0.0847,0.1782,0.116c0.0693,0.0305,0.1581,0.0461,0.2641,0.0461c0.1078,0,0.2021,-0.0173,0.2802,-0.0515c0.079,-0.0346,0.1453,-0.0791,0.197,-0.1323c0.0515,-0.0529,0.0903,-0.1128,0.1156,-0.178c0.0255,-0.0661,0.0385,-0.1319,0.0385,-0.1955c0,-0.0858,-0.0103,-0.1655,-0.0306,-0.2368c-0.0178,-0.0623,-0.0518,-0.1141,-0.1037,-0.1584c-0.0548,-0.0468,-0.1366,-0.0851,-0.243,-0.1139c-0.1121,-0.0303,-0.2634,-0.0456,-0.4496,-0.0456H2v-0.6l0.0946,-0.001c0.1511,-0.0016,0.2793,-0.0169,0.381,-0.0454c0.097,-0.0272,0.1743,-0.0638,0.2298,-0.109c0.0534,-0.0434,0.0906,-0.0939,0.1138,-0.1544c0.0247,-0.0645,0.0373,-0.1365,0.0373,-0.2142c0,-0.0841,-0.0128,-0.1583,-0.038,-0.2205c-0.025,-0.0616,-0.0584,-0.1114,-0.1022,-0.1524c-0.044,-0.0411,-0.0952,-0.071,-0.1567,-0.0915c-0.0638,-0.0213,-0.1364,-0.0321,-0.2156,-0.0321c-0.0756,0,-0.1458,0.0107,-0.2086,0.032c-0.0627,0.0212,-0.1192,0.0509,-0.1679,0.0883c-0.0482,0.037,-0.0891,0.0817,-0.1217,0.1329c-0.0329,0.0517,-0.0573,0.1092,-0.0723,0.1708c-0.035,0.1037,-0.0811,0.168,-0.1432,0.205c-0.0413,0.0246,-0.0921,0.037,-0.151,0.037c-0.0293,0,-0.0616,-0.0031,-0.0958,-0.0092l-0.3901,-0.069l0.0135,-0.0919c0.0279,-0.19,0.0817,-0.3598,0.1597,-0.5047c0.0787,-0.1461,0.1796,-0.27,0.2999,-0.3683c0.1198,-0.0979,0.2588,-0.173,0.413,-0.2232c0.1527,-0.0496,0.3196,-0.0747,0.4962,-0.0747c0.1792,0,0.345,0.0263,0.4929,0.0781c0.1491,0.0523,0.2796,0.1263,0.3879,0.2202c0.1098,0.0952,0.1954,0.2105,0.2546,0.3425c0.0591,0.1317,0.089,0.2774,0.089,0.433c0,0.1308,-0.0162,0.2486,-0.048,0.3499c-0.0323,0.1028,-0.0793,0.1949,-0.1395,0.2738c-0.0607,0.0796,-0.1357,0.1471,-0.223,0.2007c-0.0183,0.0113,-0.0371,0.0221,-0.0565,0.0325c0.1457,0.0707,0.2634,0.1628,0.3514,0.2751c0.1311,0.1673,0.1975,0.3779,0.1975,0.6261c0,0.197,-0.0379,0.3755,-0.1126,0.5306c-0.0743,0.1543,-0.1764,0.2868,-0.3035,0.3938c-0.126,0.1061,-0.2744,0.1881,-0.4411,0.2436C2.6599,15.9592,2.483,15.9871,2.2992,15.9871zM0.9,10v-0.2776c0,-0.0481,0.0102,-0.0983,0.0302,-0.1492c0.0209,-0.053,0.0545,-0.1015,0.0999,-0.1446l1.1987,-1.1413c0.0997,-0.0946,0.1893,-0.1861,0.2666,-0.2719c0.0756,-0.0839,0.1409,-0.1688,0.1941,-0.2522c0.0518,-0.0812,0.0918,-0.1646,0.1188,-0.2476c0.0264,-0.0814,0.0398,-0.1685,0.0398,-0.2589c0,-0.0843,-0.0134,-0.1587,-0.0398,-0.2211c-0.0258,-0.0608,-0.061,-0.1113,-0.1047,-0.1501c-0.0441,-0.0391,-0.0981,-0.0693,-0.1605,-0.0895c-0.0654,-0.0212,-0.1391,-0.0319,-0.2189,-0.0319c-0.0765,0,-0.1476,0.0103,-0.2112,0.0308c-0.0636,0.0204,-0.1208,0.049,-0.17,0.0849c-0.0485,0.0354,-0.0893,0.0781,-0.1214,0.127c-0.0328,0.0499,-0.0571,0.1054,-0.0723,0.165l-0.0013,0.005l-0.0019,0.0049c-0.035,0.0907,-0.0822,0.1519,-0.1443,0.1872c-0.0418,0.0237,-0.0933,0.0357,-0.1529,0.0357c-0.0297,0,-0.0623,-0.003,-0.097,-0.0088l-0.3949,-0.0664l0.0137,-0.0884c0.0283,-0.1827,0.0827,-0.346,0.1617,-0.4853c0.0798,-0.1404,0.1819,-0.2596,0.3036,-0.3541c0.1213,-0.0942,0.2619,-0.1664,0.4181,-0.2146c0.1546,-0.0477,0.3235,-0.0719,0.5022,-0.0719c0.1814,0,0.3512,0.0261,0.5046,0.0777c0.1551,0.0522,0.2911,0.1276,0.4044,0.2242c0.1141,0.0973,0.2046,0.2169,0.2688,0.3555c0.0641,0.1382,0.0965,0.2952,0.0965,0.4666c0,0.1453,-0.0229,0.282,-0.0682,0.4063c-0.0442,0.1215,-0.1047,0.2393,-0.1801,0.3503c-0.0741,0.109,-0.1616,0.2162,-0.2601,0.3185c-0.0956,0.0993,-0.1977,0.2015,-0.3034,0.3037l-0.7119,0.6919C2.1634,9.3032,2.2183,9.3,2.2706,9.3h1.1319c0.0891,0,0.1619,0.0269,0.2164,0.0798C3.672,9.4315,3.7,9.4999,3.7,9.5776V10H0.9zM1.4,4v-0.6h0.8186c0,0,0.0001,-2.331,0.0003,-2.3467l-0.46,0.378c-0.041,0.032,-0.0824,0.0521,-0.1252,0.0615c-0.0222,0.0049,-0.0443,0.0073,-0.0657,0.0073c-0.0192,0,-0.0383,-0.002,-0.0566,-0.006c-0.0357,-0.0077,-0.068,-0.0203,-0.0962,-0.0374c-0.0293,-0.0177,-0.0536,-0.0387,-0.0718,-0.0624l-0.2366,-0.3232L2.3872,0H3v3.4h0.7v0.6H1.4z" fill="#3E79B4"/>
  </g>
</svg>
