<?xml version="1.0" encoding="UTF-8"?>
<!DOCTYPE svg PUBLIC "-//W3C//DTD SVG 1.1//EN" "http://www.w3.org/Graphics/SVG/1.1/DTD/svg11.dtd">
<svg version="1.1" id="Layer_1" xmlns="http://www.w3.org/2000/svg" xmlns:xlink="http://www.w3.org/1999/xlink" x="0px" y="0px" width="16px" height="16px" viewBox="0 0 16 16" enable-background="new 0 0 16 16" xml:space="preserve">
  <g id="icon">
    <path d="M1,2.5c0,-0.8284,0.6716,-1.5,1.5,-1.5s1.5,0.6716,1.5,1.5s-0.6716,1.5,-1.5,1.5S1,3.3284,1,2.5zM2.5,10c0.8284,0,1.5,-0.6716,1.5,-1.5s-0.6716,-1.5,-1.5,-1.5s-1.5,0.6716,-1.5,1.5S1.6716,10,2.5,10zM2.5,16c0.8284,0,1.5,-0.6716,1.5,-1.5s-0.6716,-1.5,-1.5,-1.5s-1.5,0.6716,-1.5,1.5S1.6716,16,2.5,16z" fill="#3E79B4"/>
    <path d="M15.7417,3.3H5.2583C5.1157,3.3,5,3.1843,5,3.0417v-0.7833C5,2.1157,5.1157,2,5.2583,2h10.4833c0.1427,0,0.2583,0.1157,0.2583,0.2583v0.7833C16,3.1843,15.8843,3.3,15.7417,3.3zM16,9.0417v-0.7833c0,-0.1427,-0.1157,-0.2583,-0.2583,-0.2583H5.2583C5.1157,8,5,8.1157,5,8.2583v0.7833C5,9.1843,5.1157,9.3,5.2583,9.3h10.4833C15.8843,9.3,16,9.1843,16,9.0417zM16,15.0417v-0.7833c0,-0.1427,-0.1157,-0.2583,-0.2583,-0.2583H5.2583c-0.1427,0,-0.2583,0.1157,-0.2583,0.2583v0.7833c0,0.1427,0.1157,0.2583,0.2583,0.2583h10.4833C15.8843,15.3,16,15.1843,16,15.0417z" fill="#6D6E71"/>
  </g>
</svg>
