<?xml version="1.0" encoding="UTF-8"?>
<!DOCTYPE svg PUBLIC "-//W3C//DTD SVG 1.1//EN" "http://www.w3.org/Graphics/SVG/1.1/DTD/svg11.dtd">
<svg version="1.1" id="Layer_1" xmlns="http://www.w3.org/2000/svg" xmlns:xlink="http://www.w3.org/1999/xlink" x="0px" y="0px" width="16px" height="16px" viewBox="0 0 16 16" enable-background="new 0 0 16 16" xml:space="preserve">
  <g id="icon">
    <path d="M7.0118,2.5c0,-0.2761,0.2239,-0.5,0.5,-0.5h8c0.2761,0,0.5,0.2239,0.5,0.5s-0.2239,0.5,-0.5,0.5h-8C7.2357,3,7.0118,2.7761,7.0118,2.5z" fill="#6D6E71"/>
    <path d="M1.0118,2.5c0,-0.2761,0.2239,-0.5,0.5,-0.5h4c0.2761,0,0.5,0.2239,0.5,0.5s-0.2239,0.5,-0.5,0.5h-4C1.2357,3,1.0118,2.7761,1.0118,2.5z" fill="#939598"/>
    <path d="M7.6034,0.0104C7.8391,0.0576,8,0.2785,8,0.5189V1c0,0.3099,-0.282,0.554,-0.6034,0.4896C7.1609,1.4424,7,1.2215,7,0.9811V0.5C7,0.1901,7.282,-0.054,7.6034,0.0104z" fill="#939598"/>
    <path d="M7.5118,13h8c0.2761,0,0.5,0.2239,0.5,0.5s-0.2239,0.5,-0.5,0.5h-8c-0.2761,0,-0.5,-0.2239,-0.5,-0.5S7.2357,13,7.5118,13z" fill="#6D6E71"/>
    <path d="M1.5118,13h4c0.2761,0,0.5,0.2239,0.5,0.5s-0.2239,0.5,-0.5,0.5h-4c-0.2761,0,-0.5,-0.2239,-0.5,-0.5S1.2357,13,1.5118,13z" fill="#939598"/>
    <path d="M8,15.4277c0,0.2942,-0.1609,0.5147,-0.3966,0.5619C7.282,16.054,7,15.8099,7,15.5v-0.5c0,-0.3099,0.282,-0.554,0.6034,-0.4896c0.2356,0.0472,0.3966,0.2677,0.3966,0.508V15.4277z" fill="#939598"/>
    <path d="M10.5402,6H7.4598C7.2059,6,7,5.7942,7,5.5402V4.4598C7,4.2058,7.2059,4,7.4598,4h3.0804c0.2539,0,0.4598,0.2058,0.4598,0.4598v1.0804C11,5.7942,10.7941,6,10.5402,6z" fill="#6D6E71"/>
    <path d="M15.5402,9H7.4598C7.2059,9,7,8.7941,7,8.5402V7.4598C7,7.2059,7.2059,7,7.4598,7h8.0804c0.2539,0,0.4598,0.2059,0.4598,0.4598v1.0804C16,8.7941,15.7941,9,15.5402,9z" fill="#6D6E71"/>
    <path d="M12.5402,12H7.4598c-0.2539,0,-0.4598,-0.2059,-0.4598,-0.4598v-1.0804c0,-0.2539,0.2059,-0.4598,0.4598,-0.4598h5.0804c0.2539,0,0.4598,0.2059,0.4598,0.4598v1.0804C13,11.7941,12.7941,12,12.5402,12z" fill="#6D6E71"/>
    <path d="M5.7674,7.0213l-2.7479,-0.0047l1.6769,-1.7066c0.0983,-0.0993,0.0461,-0.299,-0.0932,-0.299H2.91c-0.1057,0,-0.2248,0.0722,-0.2999,0.147L0.1028,7.7268c-0.1428,0.1443,-0.1395,0.3728,0.007,0.5207l2.5001,2.6108c0.0752,0.0759,0.1843,0.1417,0.2908,0.1417h1.7082c0.1349,0,0.1957,-0.1871,0.1004,-0.2833L3.025,9.0111l2.7277,-0.0167c0.138,0,0.2588,-0.1112,0.2595,-0.25L6.02,7.26C6.0207,7.1202,5.9065,7.0213,5.7674,7.0213z" fill="#3E79B4"/>
  </g>
</svg>
