<?xml version="1.0" encoding="UTF-8"?>
<!DOCTYPE svg PUBLIC "-//W3C//DTD SVG 1.1//EN" "http://www.w3.org/Graphics/SVG/1.1/DTD/svg11.dtd">
<svg version="1.1" id="Layer_1" xmlns="http://www.w3.org/2000/svg" xmlns:xlink="http://www.w3.org/1999/xlink" x="0px" y="0px" width="16px" height="16px" viewBox="0 0 16 16" enable-background="new 0 0 16 16" xml:space="preserve">
  <g id="icon">
    <path d="M14.7,15.5H1.3c-0.4418,0,-0.8,-0.3582,-0.8,-0.8V1.3c0,-0.4418,0.3582,-0.8,0.8,-0.8h13.4c0.4418,0,0.8,0.3582,0.8,0.8v13.4C15.5,15.1418,15.1418,15.5,14.7,15.5z" fill="#FFFFFF"/>
    <path d="M14.7,16H1.3c-0.7168,0,-1.3,-0.5832,-1.3,-1.3V1.3C0,0.5832,0.5832,0,1.3,0h13.4c0.7168,0,1.3,0.5832,1.3,1.3v13.4C16,15.4168,15.4168,16,14.7,16zM1.3,1c-0.1654,0,-0.3,0.1346,-0.3,0.3v13.4c0,0.1654,0.1346,0.3,0.3,0.3h13.4c0.1654,0,0.3,-0.1346,0.3,-0.3V1.3c0,-0.1654,-0.1346,-0.3,-0.3,-0.3H1.3z" fill="#3E79B4"/>
    <path d="M4.5,4H3c-0.2761,0,-0.5,-0.2239,-0.5,-0.5s0.2239,-0.5,0.5,-0.5h1.5c0.2761,0,0.5,0.2239,0.5,0.5S4.7761,4,4.5,4z" fill="#3E79B4"/>
    <path d="M6.5,6H5c-0.2761,0,-0.5,-0.2239,-0.5,-0.5s0.2239,-0.5,0.5,-0.5h1.5c0.2761,0,0.5,0.2239,0.5,0.5S6.7761,6,6.5,6z" fill="#3E79B4"/>
    <path d="M8.5,8H7c-0.2761,0,-0.5,-0.2239,-0.5,-0.5s0.2239,-0.5,0.5,-0.5h1.5c0.2761,0,0.5,0.2239,0.5,0.5S8.7761,8,8.5,8z" fill="#3E79B4"/>
    <path d="M9.5,4H6.5c-0.2761,0,-0.5,-0.2239,-0.5,-0.5s0.2239,-0.5,0.5,-0.5h3c0.2761,0,0.5,0.2239,0.5,0.5S9.7761,4,9.5,4z" fill="#B4B4B5"/>
    <path d="M11.5,6H8.5c-0.2761,0,-0.5,-0.2239,-0.5,-0.5s0.2239,-0.5,0.5,-0.5h3c0.2761,0,0.5,0.2239,0.5,0.5S11.7761,6,11.5,6z" fill="#B4B4B5"/>
    <path d="M4.5,11H3c-0.2761,0,-0.5,-0.2239,-0.5,-0.5s0.2239,-0.5,0.5,-0.5h1.5c0.2761,0,0.5,0.2239,0.5,0.5S4.7761,11,4.5,11z" fill="#3E79B4"/>
    <path d="M6.5,13H5c-0.2761,0,-0.5,-0.2239,-0.5,-0.5s0.2239,-0.5,0.5,-0.5h1.5c0.2761,0,0.5,0.2239,0.5,0.5S6.7761,13,6.5,13z" fill="#3E79B4"/>
    <path d="M9.5,11H6.5c-0.2761,0,-0.5,-0.2239,-0.5,-0.5s0.2239,-0.5,0.5,-0.5h3c0.2761,0,0.5,0.2239,0.5,0.5S9.7761,11,9.5,11z" fill="#B4B4B5"/>
    <path d="M11.5,13H8.5c-0.2761,0,-0.5,-0.2239,-0.5,-0.5s0.2239,-0.5,0.5,-0.5h3c0.2761,0,0.5,0.2239,0.5,0.5S11.7761,13,11.5,13z" fill="#B4B4B5"/>
    <path d="M13.5,8h-3c-0.2761,0,-0.5,-0.2239,-0.5,-0.5s0.2239,-0.5,0.5,-0.5h3c0.2761,0,0.5,0.2239,0.5,0.5S13.7761,8,13.5,8z" fill="#B4B4B5"/>
  </g>
</svg>
