<?xml version="1.0" encoding="UTF-8"?>
<!DOCTYPE svg PUBLIC "-//W3C//DTD SVG 1.1//EN" "http://www.w3.org/Graphics/SVG/1.1/DTD/svg11.dtd">
<svg version="1.1" id="Layer_1" xmlns="http://www.w3.org/2000/svg" xmlns:xlink="http://www.w3.org/1999/xlink" x="0px" y="0px" width="16px" height="16px" viewBox="0 0 16 16" enable-background="new 0 0 16 16" xml:space="preserve">
  <g id="icon">
    <path d="M7.8927,15.9881c-0.4989,0,-0.9905,-0.0495,-1.4613,-0.1472c-0.4708,-0.0978,-0.922,-0.2373,-1.3413,-0.4145c-0.4203,-0.1775,-0.8191,-0.3944,-1.1852,-0.6446c-0.3679,-0.2514,-0.702,-0.5375,-0.993,-0.8505l-0.0996,-0.1071l0.7276,-1.2165l0.0061,-0.0082c0.0773,-0.103,0.1711,-0.1903,0.2789,-0.2593c0.12,-0.0768,0.257,-0.1156,0.4074,-0.1156c0.1956,0,0.4037,0.0903,0.6362,0.276c0.1892,0.1514,0.4268,0.3209,0.7064,0.5037c0.2741,0.1794,0.6082,0.3463,0.9932,0.4961c0.3751,0.1461,0.8421,0.2201,1.3882,0.2201c0.4436,0,0.8439,-0.059,1.1898,-0.1755c0.3402,-0.1144,0.6291,-0.2791,0.8589,-0.4895c0.2287,-0.2093,0.4069,-0.4661,0.5297,-0.7635c0.124,-0.3003,0.1868,-0.6394,0.1868,-1.0078c0,-0.4015,-0.091,-0.7307,-0.2706,-0.9786c-0.1878,-0.2588,-0.4417,-0.4793,-0.7547,-0.6554c-0.3256,-0.1832,-0.7021,-0.3419,-1.1189,-0.4719c-0.4319,-0.1344,-0.8746,-0.2743,-1.3277,-0.4195c-0.4565,-0.1462,-0.9093,-0.3182,-1.3457,-0.5114c-0.4484,-0.1984,-0.855,-0.4615,-1.2084,-0.7817c-0.3584,-0.3248,-0.6492,-0.736,-0.8643,-1.222c-0.2152,-0.4857,-0.3243,-1.0888,-0.3243,-1.7924c0,-0.5679,0.1122,-1.125,0.3333,-1.6558c0.2216,-0.5318,0.5489,-1.0089,0.9729,-1.4181c0.4228,-0.4081,0.9491,-0.7395,1.5644,-0.985c0.6146,-0.2451,1.3242,-0.3693,2.1093,-0.3693c0.875,0,1.6925,0.1417,2.4298,0.4211c0.7395,0.2806,1.3917,0.6891,1.9385,1.214l0.1048,0.1006l-0.6235,1.2103c-0.0852,0.1449,-0.1756,0.251,-0.2762,0.3241c-0.1114,0.081,-0.2499,0.1221,-0.4117,0.1221c-0.1707,0,-0.3501,-0.0692,-0.5486,-0.2116c-0.1579,-0.1132,-0.3584,-0.2422,-0.596,-0.3834c-0.2319,-0.1377,-0.5143,-0.2641,-0.8391,-0.3759c-0.3175,-0.1091,-0.7067,-0.1644,-1.1568,-0.1644c-0.4218,0,-0.7947,0.0553,-1.1085,0.1642c-0.3101,0.1077,-0.5718,0.2554,-0.7778,0.4389c-0.2037,0.1814,-0.3602,0.3974,-0.4651,0.6422c-0.1057,0.2467,-0.1593,0.5189,-0.1593,0.8091c0,0.3693,0.089,0.6634,0.272,0.899c0.1915,0.2469,0.4485,0.462,0.7639,0.6394c0.3272,0.1841,0.7045,0.3467,1.1216,0.4834c0.4319,0.1417,0.8744,0.2886,1.3276,0.4407c0.4572,0.1537,0.9099,0.333,1.3455,0.5328c0.4471,0.2053,0.8522,0.4675,1.2044,0.7792c0.3575,0.3166,0.6498,0.7086,0.8688,1.165c0.2204,0.4597,0.3321,1.0253,0.3321,1.6811c0,0.693,-0.1205,1.3523,-0.3582,1.9595c-0.2386,0.6095,-0.5907,1.1496,-1.0463,1.6052c-0.4556,0.4557,-1.0224,0.8184,-1.6847,1.078C9.484,15.8568,8.7265,15.9881,7.8927,15.9881z" fill="#58595B"/>
    <rect x="1" y="7" width="14" height="1" fill="#58595B"/>
  </g>
</svg>
