<?xml version="1.0" encoding="UTF-8"?>
<!DOCTYPE svg PUBLIC "-//W3C//DTD SVG 1.1//EN" "http://www.w3.org/Graphics/SVG/1.1/DTD/svg11.dtd">
<svg version="1.1" id="Layer_1" xmlns="http://www.w3.org/2000/svg" xmlns:xlink="http://www.w3.org/1999/xlink" x="0px" y="0px" width="16px" height="16px" viewBox="0 0 16 16" enable-background="new 0 0 16 16" xml:space="preserve">
  <g id="icon">
    <path d="M8.3687,12c-0.1651,0,-0.3041,-0.0512,-0.413,-0.1523c-0.0907,-0.0839,-0.1649,-0.1799,-0.2202,-0.2852L5.2239,7.2352c-0.006,0.0115,-0.0122,0.0228,-0.0185,0.034L2.5923,11.573c-0.0651,0.1013,-0.1353,0.1899,-0.2112,0.268c-0.1023,0.1054,-0.2347,0.159,-0.3935,0.159H0.0073l3.7844,-6.1606L0.1556,0h2.0885c0.1631,0,0.2856,0.0301,0.3743,0.092c0.0809,0.0565,0.1519,0.1387,0.2111,0.2441l2.4558,4.1258c0.0147,-0.029,0.0306,-0.0583,0.0476,-0.0878L7.7947,0.3617c0.0583,-0.1065,0.1314,-0.1959,0.2127,-0.2575C8.099,0.035,8.2078,0,8.331,0h2.025L6.6856,5.7609L10.4594,12H8.3687z" fill="#58595B"/>
    <path d="M10.6,16v-0.5999c0,-0.1029,0.02,-0.2099,0.0595,-0.318c0.041,-0.1127,0.107,-0.2165,0.1963,-0.3084l2.2908,-2.3636c0.1897,-0.1953,0.3607,-0.3842,0.5083,-0.5618c0.1437,-0.1728,0.2677,-0.3475,0.3686,-0.519c0.0979,-0.1665,0.1735,-0.3372,0.2244,-0.5072c0.0498,-0.1663,0.0751,-0.3442,0.0751,-0.5287c0,-0.1714,-0.025,-0.3224,-0.0743,-0.4486c-0.0479,-0.1224,-0.1132,-0.2241,-0.1942,-0.3019c-0.0828,-0.0797,-0.1803,-0.1385,-0.2979,-0.1799c-0.1225,-0.043,-0.2607,-0.0648,-0.4105,-0.0648c-0.1434,0,-0.2766,0.021,-0.3958,0.0624c-0.119,0.0413,-0.2258,0.0992,-0.3177,0.1719c-0.0904,0.0716,-0.1665,0.1579,-0.2261,0.2564c-0.0613,0.1011,-0.1068,0.2136,-0.1353,0.3344l-0.0028,0.0117l-0.004,0.0113c-0.0687,0.1936,-0.1623,0.3247,-0.2863,0.4008c-0.0836,0.0513,-0.1862,0.0773,-0.3047,0.0773c-0.0581,0,-0.1219,-0.0063,-0.1896,-0.0186l-0.778,-0.1418l0.0296,-0.2072c0.0544,-0.3812,0.1594,-0.7221,0.3118,-1.0133c0.1537,-0.2938,0.351,-0.5431,0.5862,-0.7412c0.234,-0.1969,0.5054,-0.3478,0.8068,-0.4488c0.2978,-0.0996,0.6233,-0.1501,0.9674,-0.1501c0.3496,0,0.6768,0.0546,0.9725,0.1624c0.2992,0.1091,0.562,0.2669,0.7809,0.4693c0.2209,0.2041,0.3958,0.4547,0.5198,0.7449c0.1238,0.2895,0.1865,0.6181,0.1865,0.9765c0,0.3033,-0.0443,0.5891,-0.1317,0.8496c-0.0852,0.2537,-0.2018,0.4996,-0.3467,0.7309c-0.1422,0.2268,-0.3103,0.4499,-0.4996,0.6631c-0.1838,0.2067,-0.3791,0.4186,-0.5805,0.6295l-1.3132,1.3829c0.0855,-0.0083,0.1686,-0.0124,0.2484,-0.0124h2.1632c0.2207,0,0.3563,0.094,0.4311,0.1728c0.1061,0.1121,0.162,0.2597,0.162,0.4272v0.9H10.6z" fill="#3E79B4"/>
  </g>
</svg>
