<?xml version="1.0" encoding="UTF-8"?>
<!DOCTYPE svg PUBLIC "-//W3C//DTD SVG 1.1//EN" "http://www.w3.org/Graphics/SVG/1.1/DTD/svg11.dtd">
<svg version="1.1" id="Layer_1" xmlns="http://www.w3.org/2000/svg" xmlns:xlink="http://www.w3.org/1999/xlink" x="0px" y="0px" width="16px" height="16px" viewBox="0 0 16 16" enable-background="new 0 0 16 16" xml:space="preserve">
  <g id="icon">
    <path d="M8.3687,16c-0.1651,0,-0.3041,-0.0512,-0.413,-0.1523c-0.0907,-0.0839,-0.1649,-0.1799,-0.2202,-0.2852l-2.5115,-4.3273c-0.006,0.0115,-0.0122,0.0228,-0.0185,0.034L2.5923,15.573c-0.0651,0.1013,-0.1353,0.1899,-0.2112,0.268c-0.1023,0.1054,-0.2347,0.159,-0.3935,0.159H0.0073l3.7844,-6.1606L0.1556,4h2.0885c0.1631,0,0.2856,0.0301,0.3743,0.092c0.0809,0.0565,0.1519,0.1387,0.2111,0.2441l2.4558,4.1258c0.0147,-0.029,0.0306,-0.0583,0.0476,-0.0878l2.4616,-4.0125c0.0583,-0.1065,0.1314,-0.1959,0.2127,-0.2575C8.099,4.035,8.2078,4,8.331,4h2.025L6.6856,9.7609L10.4594,16H8.3687z" fill="#58595B"/>
    <path d="M10.6,8v-0.5928c0,-0.1016,0.02,-0.2074,0.0595,-0.3142c0.041,-0.1114,0.107,-0.214,0.1963,-0.3047l2.2908,-2.3354c0.1897,-0.1929,0.3607,-0.3796,0.5083,-0.5551c0.1437,-0.1708,0.2677,-0.3433,0.3686,-0.5128c0.0979,-0.1645,0.1735,-0.3331,0.2244,-0.5012c0.0498,-0.1643,0.0751,-0.3401,0.0751,-0.5224c0,-0.1694,-0.025,-0.3185,-0.0743,-0.4433c-0.0479,-0.1209,-0.1132,-0.2214,-0.1942,-0.2983c-0.0828,-0.0788,-0.1803,-0.1369,-0.2979,-0.1778c-0.1225,-0.0424,-0.2607,-0.064,-0.4105,-0.064c-0.1434,0,-0.2766,0.0208,-0.3958,0.0616c-0.119,0.0408,-0.2258,0.098,-0.3177,0.1698c-0.0904,0.0707,-0.1665,0.156,-0.2261,0.2533c-0.0613,0.0999,-0.1068,0.2111,-0.1353,0.3304l-0.0028,0.0116l-0.004,0.0111c-0.0687,0.1913,-0.1623,0.3209,-0.2863,0.396c-0.0836,0.0507,-0.1862,0.0764,-0.3047,0.0764c-0.0581,0,-0.1219,-0.0062,-0.1896,-0.0184l-0.778,-0.1401l0.0296,-0.2048c0.0544,-0.3766,0.1594,-0.7135,0.3118,-1.0012c0.1537,-0.2903,0.351,-0.5366,0.5862,-0.7323c0.234,-0.1945,0.5054,-0.3437,0.8068,-0.4434C12.7378,0.0499,13.0632,0,13.4074,0c0.3496,0,0.6768,0.054,0.9725,0.1605c0.2992,0.1078,0.562,0.2637,0.7809,0.4637c0.2209,0.2016,0.3958,0.4493,0.5198,0.736c0.1238,0.2861,0.1865,0.6107,0.1865,0.9649c0,0.2996,-0.0443,0.5821,-0.1317,0.8394c-0.0852,0.2507,-0.2018,0.4936,-0.3467,0.7221c-0.1422,0.2241,-0.3103,0.4445,-0.4996,0.6551c-0.1838,0.2043,-0.3791,0.4136,-0.5805,0.622l-1.3132,1.3664c0.0855,-0.0082,0.1686,-0.0123,0.2484,-0.0123h2.1632c0.2207,0,0.3563,0.0929,0.4311,0.1707c0.1061,0.1108,0.162,0.2566,0.162,0.4221V8H10.6z" fill="#3E79B4"/>
  </g>
</svg>
