<?xml version="1.0" encoding="UTF-8"?>
<!DOCTYPE svg PUBLIC "-//W3C//DTD SVG 1.1//EN" "http://www.w3.org/Graphics/SVG/1.1/DTD/svg11.dtd">
<svg version="1.1" id="Layer_1" xmlns="http://www.w3.org/2000/svg" xmlns:xlink="http://www.w3.org/1999/xlink" x="0px" y="0px" width="16px" height="16px" viewBox="0 0 16 16" enable-background="new 0 0 16 16" xml:space="preserve">
  <g id="icon">
    <path d="M15.9576,12.3217c-0.0286,-0.0334,-0.0698,-0.0533,-0.1137,-0.0549l-0.6535,-0.0236c-0.0686,-0.0029,-0.1308,-0.0167,-0.1536,0.0481c-0.572,1.6194,-0.7492,1.7088,-1.7192,1.7088h-1.6154c0.109,0,0.2292,-0.1955,0.3596,-0.3372c1.2782,-1.3881,3.2099,-3.5574,3.2099,-6.4123c0,-2.1141,-0.7205,-3.9209,-2.0837,-5.2518C11.8706,0.7124,10.0268,0.0111,7.9961,0.0111c-2,0,-3.8388,0.7288,-5.1777,2.0458C1.4506,3.4024,0.6973,5.291,0.6973,7.3714c0,3.0668,2.1711,5.2883,3.4682,6.5892c0.0321,0.0323,0.0637,0.0394,0.0947,0.0394H2.558c-0.8047,0,-1.0861,-0.1193,-1.6492,-1.709c-0.0229,-0.0647,-0.0847,-0.0785,-0.1538,-0.0762l-0.5302,0.0377c-0.0437,0.0017,-0.0848,0.0285,-0.1132,0.0617s-0.0418,0.0802,-0.0368,0.1237l0.2968,3.4343C0.3807,15.9515,0.4477,16,0.5274,16h5.6949c0.0649,0,0.1232,-0.0269,0.1465,-0.0875l0.1634,-0.4183c0.017,-0.0443,0.0131,-0.0906,-0.0106,-0.1317c-0.1157,-0.1999,-0.2739,-0.4438,-0.4572,-0.728c-0.9422,-1.4618,-2.696,-4.1821,-2.696,-7.2385c0,-1.9289,0.4311,-3.5261,1.2467,-4.6199c0.801,-1.0742,1.9621,-1.6418,3.3577,-1.6418c2.8112,0,4.6277,2.4211,4.6277,6.168c0,3.4138,-1.8015,6.1047,-2.7694,7.5503c-0.1314,0.1962,-0.2448,0.3657,-0.3342,0.5085c-0.0218,0.0348,-0.029,0.0768,-0.0202,0.1169l0.0933,0.4118c0.0158,0.072,0.0795,0.1102,0.1533,0.1102h5.6949c0.0793,0,0.1462,-0.0462,0.1558,-0.1249l0.4201,-3.4391C15.9993,12.3925,15.9862,12.3551,15.9576,12.3217z" fill="#6D6E71"/>
  </g>
</svg>
