<?xml version="1.0" encoding="UTF-8"?>
<!DOCTYPE svg PUBLIC "-//W3C//DTD SVG 1.1//EN" "http://www.w3.org/Graphics/SVG/1.1/DTD/svg11.dtd">
<svg version="1.1" id="Layer_1" xmlns="http://www.w3.org/2000/svg" xmlns:xlink="http://www.w3.org/1999/xlink" x="0px" y="0px" width="16px" height="16px" viewBox="0 0 16 16" enable-background="new 0 0 16 16" xml:space="preserve">
  <g id="icon">
    <g>
      <path d="M13.5,7c0,-1.1267,0,-1.9538,0,-2.0833c0,-0.4666,-0.1083,-0.725,-0.425,-1.0416c-0.3166,-0.3166,-2.8417,-2.8417,-3.0336,-3.0336S9.5833,0.5,9.1167,0.5S3.1,0.5,3.1,0.5c-0.3314,0,-0.6,0.2686,-0.6,0.6v5.9H13.5z" fill-rule="evenodd" fill="#FFFFFF"/>
      <path d="M2.5,14v0.9c0,0.3314,0.2686,0.6,0.6,0.6h9.8c0.3314,0,0.6,-0.2686,0.6,-0.6c0,0,0,-0.3425,0,-0.9H2.5z" fill-rule="evenodd" fill="#FFFFFF"/>
    </g>
    <path d="M7.5,4H4.5c-0.2761,0,-0.5,-0.2239,-0.5,-0.5s0.2239,-0.5,0.5,-0.5h3c0.2761,0,0.5,0.2239,0.5,0.5S7.7761,4,7.5,4zM8,5.5c0,-0.2761,-0.2239,-0.5,-0.5,-0.5H4.5c-0.2761,0,-0.5,0.2239,-0.5,0.5s0.2239,0.5,0.5,0.5h3C7.7761,6,8,5.7761,8,5.5z" fill="#B4B4B5"/>
    <g>
      <path d="M3,7V1.1c0,-0.0551,0.0449,-0.1,0.1,-0.1h5.9v3c0,0.473,0.399,0.8674,0.7976,0.9725C9.8489,4.9903,9.9041,5,9.9614,5H13v2h1V4.9167c0,-0.5928,-0.1602,-0.984,-0.5714,-1.3952L10.395,0.4878C10.0667,0.1596,9.6485,0,9.1167,0H3.1c-0.6065,0,-1.1,0.4935,-1.1,1.1v5.9H3zM10,1.5071L12.4929,4h-2.4475c-0.0157,-0.0091,-0.0337,-0.0232,-0.0454,-0.0354V1.5071z" fill="#6D6E71"/>
      <path d="M13,14v0.9c0,0.0551,-0.0449,0.1,-0.1,0.1H3.1c-0.0551,0,-0.1,-0.0449,-0.1,-0.1v-0.9H2v0.9c0,0.6065,0.4935,1.1,1.1,1.1h9.8c0.6065,0,1.1,-0.4935,1.1,-1.1v-0.9H13z" fill="#6D6E71"/>
    </g>
    <rect x="2" y="9" width="12" height="3" fill="#FFFFFF"/>
    <path d="M0,8.65v3.7c0,0.359,0.291,0.65,0.65,0.65h14.7c0.359,0,0.65,-0.291,0.65,-0.65v-3.7c0,-0.359,-0.291,-0.65,-0.65,-0.65H0.65C0.291,8,0,8.291,0,8.65zM15,12H1V9h14V12z" fill="#3E79B4"/>
    <rect x="1" y="9" width="14" height="3" fill="#3E79B4" opacity="0.3"/>
    <path d="M11.5,11H4.5c-0.2761,0,-0.5,-0.2239,-0.5,-0.5s0.2239,-0.5,0.5,-0.5h7c0.2761,0,0.5,0.2239,0.5,0.5S11.7761,11,11.5,11z" fill="#797979"/>
    <path d="M3,11.4H2V9.6h1V11.4zM14,9.6h-1v1.8h1V9.6z" fill="#6D6E71"/>
  </g>
</svg>
