<?xml version="1.0" encoding="UTF-8"?>
<!DOCTYPE svg PUBLIC "-//W3C//DTD SVG 1.1//EN" "http://www.w3.org/Graphics/SVG/1.1/DTD/svg11.dtd">
<svg version="1.1" id="Layer_1" xmlns="http://www.w3.org/2000/svg" xmlns:xlink="http://www.w3.org/1999/xlink" x="0px" y="0px" width="16px" height="16px" viewBox="0 0 16 16" enable-background="new 0 0 16 16" xml:space="preserve">
  <g id="icon">
    <path d="M13.7,15.5H2.3c-0.4418,0,-0.8,-0.3582,-0.8,-0.8V1.3c0,-0.4418,0.3582,-0.8,0.8,-0.8h11.4c0.4418,0,0.8,0.3582,0.8,0.8v13.4C14.5,15.1418,14.1418,15.5,13.7,15.5z" fill="#FFFFFF" stroke="#6D6E71" stroke-width="1" stroke-miterlimit="1"/>
    <path d="M12.5,7h-2c-0.2761,0,-0.5,-0.2239,-0.5,-0.5s0.2239,-0.5,0.5,-0.5h2c0.2761,0,0.5,0.2239,0.5,0.5S12.7761,7,12.5,7zM13,8.5c0,-0.2761,-0.2239,-0.5,-0.5,-0.5h-2c-0.2761,0,-0.5,0.2239,-0.5,0.5s0.2239,0.5,0.5,0.5h2C12.7761,9,13,8.7761,13,8.5zM13,10.5c0,-0.2761,-0.2239,-0.5,-0.5,-0.5h-2c-0.2761,0,-0.5,0.2239,-0.5,0.5s0.2239,0.5,0.5,0.5h2C12.7761,11,13,10.7761,13,10.5z" fill="#B4B4B5"/>
    <path d="M12.5167,14H3.4833c-0.2669,0,-0.4833,-0.2164,-0.4833,-0.4833v-1.0333c0,-0.2669,0.2164,-0.4833,0.4833,-0.4833h9.0333c0.2669,0,0.4833,0.2164,0.4833,0.4833v1.0333C13,13.7836,12.7836,14,12.5167,14z" fill="#3E79B4"/>
    <path d="M12.5167,5H3.4833C3.2164,5,3,4.7836,3,4.5167V2.4833C3,2.2164,3.2164,2,3.4833,2h9.0333c0.2669,0,0.4833,0.2164,0.4833,0.4833v2.0333C13,4.7836,12.7836,5,12.5167,5z" fill="#EAB765"/>
    <path d="M8.4323,11H3.5677c-0.3136,0,-0.5677,-0.2542,-0.5677,-0.5677V6.5677C3,6.2542,3.2542,6,3.5677,6h4.8645C8.7458,6,9,6.2542,9,6.5677v3.8645C9,10.7458,8.7458,11,8.4323,11z" fill="#C2D3E6"/>
  </g>
</svg>
