<?xml version="1.0" encoding="UTF-8"?>
<!DOCTYPE svg PUBLIC "-//W3C//DTD SVG 1.1//EN" "http://www.w3.org/Graphics/SVG/1.1/DTD/svg11.dtd">
<svg version="1.1" id="Layer_1" xmlns="http://www.w3.org/2000/svg" xmlns:xlink="http://www.w3.org/1999/xlink" x="0px" y="0px" width="16px" height="16px" viewBox="0 0 16 16" enable-background="new 0 0 16 16" xml:space="preserve">
  <g id="icon">
    <rect x="1" y="15" width="14" height="1" fill="#58595B"/>
    <path d="M8.0949,11.8937c0.5651,0,1.0706,-0.0887,1.5166,-0.2662c0.4458,-0.1774,0.8237,-0.4246,1.1336,-0.7416c0.3097,-0.3169,0.5464,-0.6988,0.7098,-1.1456c0.1634,-0.4468,0.2451,-0.9427,0.2451,-1.4879V0h2.3v8.2524c0,0.805,-0.1382,1.5497,-0.4147,2.2342c-0.2765,0.6846,-0.6742,1.2756,-1.1928,1.7731c-0.5188,0.4977,-1.1485,0.8875,-1.8891,1.1694c-0.7407,0.2819,-1.5752,0.4231,-2.5034,0.4231c-0.9284,0,-1.7628,-0.1411,-2.5034,-0.4231c-0.7407,-0.282,-1.3704,-0.6718,-1.8891,-1.1694c-0.5188,-0.4975,-0.9164,-1.0886,-1.1928,-1.7731C2.1382,9.8021,2,9.0574,2,8.2524V0h2.5v8.2429c0,0.5452,0.0817,1.041,0.2451,1.4879c0.1634,0.4468,0.3983,0.8304,0.7047,1.1504c0.3064,0.3201,0.6825,0.5689,1.1285,0.7463C7.0242,11.805,7.5297,11.8937,8.0949,11.8937z" fill="#58595B"/>
  </g>
</svg>
