<?xml version="1.0" encoding="UTF-8"?>
<!DOCTYPE svg PUBLIC "-//W3C//DTD SVG 1.1//EN" "http://www.w3.org/Graphics/SVG/1.1/DTD/svg11.dtd">
<svg version="1.1" id="Layer_1" xmlns="http://www.w3.org/2000/svg" xmlns:xlink="http://www.w3.org/1999/xlink" x="0px" y="0px" width="16px" height="16px" viewBox="0 0 16 16" enable-background="new 0 0 16 16" xml:space="preserve">
  <g id="icon">
    <path d="M3.704,14c0.23,0,0.418,-0.167,0.418,-0.372v-0.403c0,-0.205,-0.187,-0.372,-0.418,-0.372l-0.052,0c-0.775,-0.012,-1.106,-0.337,-1.106,-1.085c0,-0.267,0.04,-0.531,0.081,-0.812c0.01,-0.07,0.021,-0.14,0.03,-0.204c0.065,-0.363,0.132,-0.738,0.132,-1.143c0,-0.774,-0.297,-1.307,-0.884,-1.593c0.601,-0.285,0.898,-0.815,0.884,-1.58c0,-0.392,-0.061,-0.732,-0.126,-1.092l-0.006,-0.031c-0.01,-0.072,-0.021,-0.231,-0.032,-0.303c-0.041,-0.277,-0.081,-0.538,-0.081,-0.792c0,-0.748,0.32,-1.058,1.103,-1.07h0.055c0.23,0,0.418,-0.167,0.418,-0.372v-0.403c0,-0.205,-0.187,-0.372,-0.418,-0.372h-0.104c-1.632,0,-2.569,0.756,-2.569,2.073c0,0.39,0.061,0.87,0.125,1.285l0.007,0.045c0.057,0.343,0.128,0.77,0.128,1.172c-0.016,0.503,-0.182,0.849,-0.942,0.896c-0.21,0.013,-0.374,0.169,-0.374,0.355v0.392c0,0.185,0.163,0.341,0.372,0.354c0.653,0.043,0.944,0.323,0.944,0.905c0,0.282,-0.038,0.575,-0.078,0.884c-0.011,0.087,-0.023,0.176,-0.034,0.264c-0.102,0.495,-0.148,0.869,-0.148,1.213c0,1.393,0.906,2.16,2.552,2.16H3.704zM12.394,14c1.645,0,2.551,-0.767,2.551,-2.159c0,-0.344,-0.046,-0.718,-0.148,-1.213c-0.011,-0.089,-0.022,-0.177,-0.034,-0.264c-0.04,-0.309,-0.078,-0.601,-0.078,-0.883c0,-0.582,0.291,-0.861,0.943,-0.905c0.209,-0.014,0.372,-0.169,0.372,-0.354V7.83c0,-0.186,-0.164,-0.341,-0.374,-0.354c-0.759,-0.048,-0.925,-0.392,-0.941,-0.896c0,-0.402,0.071,-0.828,0.128,-1.171l0.007,-0.045c0.064,-0.415,0.125,-0.895,0.125,-1.285c0,-1.317,-0.936,-2.072,-2.567,-2.072h-0.104c-0.23,0,-0.417,0.167,-0.417,0.372v0.403c0,0.205,0.187,0.372,0.417,0.372h0.055c0.782,0.012,1.102,0.322,1.102,1.07c0,0.253,-0.039,0.514,-0.081,0.791c-0.011,0.072,-0.021,0.231,-0.032,0.303l-0.006,0.031c-0.065,0.36,-0.126,0.7,-0.126,1.091c-0.013,0.765,0.283,1.294,0.884,1.579c-0.587,0.285,-0.884,0.818,-0.884,1.591c0,0.405,0.067,0.78,0.132,1.143c0.009,0.064,0.019,0.134,0.03,0.203c0.042,0.28,0.081,0.545,0.081,0.811c0,0.748,-0.331,1.072,-1.105,1.084l-0.052,0c-0.23,0,-0.417,0.167,-0.417,0.372v0.403c0,0.205,0.187,0.372,0.417,0.372H12.394z" fill-rule="evenodd" fill="#6D6E71"/>
    <path d="M7.128,7.986c0,0.761,-0.433,1.377,-1.377,1.377c-0.761,0,-1.377,-0.617,-1.377,-1.377S4.99,6.609,5.75,6.609S7.128,7.225,7.128,7.986z" fill-rule="evenodd" fill="#3E79B4"/>
    <path d="M10.205,6.609c-0.761,0,-1.377,0.617,-1.377,1.377s0.617,1.377,1.377,1.377c0.944,0,1.377,-0.617,1.377,-1.377S10.966,6.609,10.205,6.609z" fill-rule="evenodd" fill="#3E79B4"/>
  </g>
</svg>
