<?xml version="1.0" encoding="UTF-8"?>
<!DOCTYPE svg PUBLIC "-//W3C//DTD SVG 1.1//EN" "http://www.w3.org/Graphics/SVG/1.1/DTD/svg11.dtd">
<svg version="1.1" id="Layer_1" xmlns="http://www.w3.org/2000/svg" xmlns:xlink="http://www.w3.org/1999/xlink" x="0px" y="0px" width="16px" height="16px" viewBox="0 0 16 16" enable-background="new 0 0 16 16" xml:space="preserve">
  <g id="icon">
    <path d="M5.1612,10.0661l0.9039,0.8484L7.8272,7.5H4.8767c-0.0759,0,-0.1282,-0.0725,-0.1009,-0.1398L7.212,1.5837C7.2325,1.5332,7.2835,1.5,7.3403,1.5h2.9341c0.1063,0,0.1731,0.109,0.1207,0.1969L8.1639,5.5h3.0615c0.0836,0,0.1337,0.0883,0.0879,0.1547l-4.3135,5.676l1.2507,0.2325L4.8115,14.4L5.1612,10.0661z" fill="#F5F5F5"/>
    <path d="M4.8114,14.9c-0.0789,0,-0.1582,-0.0187,-0.2312,-0.0567c-0.1781,-0.0929,-0.2833,-0.2833,-0.2671,-0.4835l0.3498,-4.3339c0.0155,-0.1914,0.1392,-0.3571,0.3184,-0.4262c0.1792,-0.0692,0.3821,-0.0294,0.5222,0.1019l0.421,0.3952L7.0065,8H4.8767c-0.2037,0,-0.3928,-0.1002,-0.5058,-0.2682c-0.1116,-0.1657,-0.1333,-0.375,-0.0583,-0.5598l2.4387,-5.7827C6.8464,1.1552,7.0786,1,7.3403,1h2.9341c0.2306,0,0.444,0.1235,0.5569,0.3225c0.1111,0.1957,0.1085,0.4374,-0.0068,0.6307L9.037,5h2.1885c0.2265,0,0.4322,0.1237,0.5368,0.3229c0.1032,0.1967,0.0889,0.4326,-0.0374,0.6157c-0.0043,0.0063,-0.0088,0.0125,-0.0135,0.0186l-3.8227,5.0301l0.4531,0.0842c0.191,0.0355,0.3441,0.1784,0.3927,0.3665s-0.0161,0.3873,-0.1659,0.5108l-3.4391,2.8368C5.0381,14.8612,4.9252,14.9,4.8114,14.9zM5.5761,11.1413l-0.1711,2.121l1.7012,-1.4033l-0.1976,-0.0367c-0.1706,-0.0317,-0.3125,-0.1496,-0.375,-0.3115c-0.0625,-0.1618,-0.0367,-0.3445,0.0683,-0.4827L10.4229,6h-2.259c-0.1792,0,-0.3448,-0.0959,-0.4339,-0.2515c-0.0891,-0.1556,-0.0881,-0.3469,0.0026,-0.5015L9.6376,2H7.579L5.4704,7h2.3569c0.1744,0,0.3362,0.0909,0.427,0.2398c0.0907,0.149,0.0973,0.3345,0.0173,0.4895l-1.7622,3.4145c-0.0719,0.1394,-0.205,0.2369,-0.3596,0.2635c-0.1547,0.0264,-0.3126,-0.0209,-0.427,-0.1282L5.5761,11.1413zM7.6751,1.772l-0.0038,0.009C7.6727,1.7781,7.6739,1.775,7.6751,1.772zM9.9639,1.4439c-0.0009,0.0015,-0.0018,0.003,-0.0027,0.0045L9.9639,1.4439z" fill="#404040"/>
  </g>
</svg>
