<?xml version="1.0" encoding="UTF-8"?>
<!DOCTYPE svg PUBLIC "-//W3C//DTD SVG 1.1//EN" "http://www.w3.org/Graphics/SVG/1.1/DTD/svg11.dtd">
<svg version="1.1" id="Layer_1" xmlns="http://www.w3.org/2000/svg" xmlns:xlink="http://www.w3.org/1999/xlink" x="0px" y="0px" width="16px" height="16px" viewBox="0 0 16 16" enable-background="new 0 0 16 16" xml:space="preserve">
  <g id="icon">
    <path d="M14.5,8c0,3.5899,-2.9101,6.5,-6.5,6.5s-6.5,-2.9101,-6.5,-6.5s2.9101,-6.5,6.5,-6.5S14.5,4.4101,14.5,8z" id="b" fill="#F5F5F5"/>
    <path d="M8,15c-3.8598,0,-7,-3.1402,-7,-7s3.1402,-7,7,-7s7,3.1402,7,7S11.8598,15,8,15zM8,2.0597c-3.2755,0,-5.9403,2.6648,-5.9403,5.9403S4.7245,13.9403,8,13.9403S13.9403,11.2755,13.9403,8S11.2755,2.0597,8,2.0597z" id="c1" fill="#404040"/>
    <path d="M7.4615,11.5244l0,-2.986l-2.986,0c-0.2555,0,-0.4888,-0.171,-0.542,-0.421c-0.074,-0.3479,0.1907,-0.656,0.526,-0.656h3.002l0,-2.986c0,-0.2555,0.171,-0.4888,0.421,-0.542c0.3479,-0.074,0.656,0.1907,0.656,0.526v3.002l2.986,0c0.2555,0,0.4888,0.171,0.542,0.421c0.074,0.3479,-0.1907,0.656,-0.526,0.656h-3.002v3.002c0,0.3353,-0.308,0.6,-0.656,0.526C7.6326,12.0132,7.4615,11.7799,7.4615,11.5244z" id="c2" fill="#404040"/>
  </g>
</svg>
