<?xml version="1.0" encoding="UTF-8"?>
<!DOCTYPE svg PUBLIC "-//W3C//DTD SVG 1.1//EN" "http://www.w3.org/Graphics/SVG/1.1/DTD/svg11.dtd">
<svg version="1.1" id="Layer_1" xmlns="http://www.w3.org/2000/svg" xmlns:xlink="http://www.w3.org/1999/xlink" x="0px" y="0px" width="16px" height="16px" viewBox="0 0 16 16" enable-background="new 0 0 16 16" xml:space="preserve">
  <g id="icon">
    <path d="M7.025,14.3731c-0.193,0,-0.3732,-0.074,-0.5077,-0.2083c-0.2799,-0.28,-0.2799,-0.7355,0,-1.0155l4.8603,-4.8608c1.2472,-1.1852,1.2733,-3.1087,0.063,-4.3829c-0.5817,-0.5817,-1.3506,-0.9041,-2.1615,-0.9041c-0.7507,0,-1.4913,0.2771,-2.0861,0.7804l-0.1274,0.1274L4.3472,6.6h3.3212l0.0117,0.0014c0.3724,0.0441,0.647,0.3296,0.6191,0.6399v0.0489c0.0248,0.3759,-0.4229,0.6516,-0.4744,0.682L7.7778,8H2.65c-0.3523,0,-0.65,-0.2746,-0.65,-0.5996v-5.095c0,-0.4314,0.2673,-0.7328,0.65,-0.7328c0.3468,0,0.7499,0.2619,0.7499,0.5996v3.3471l2.6509,-2.6261c0.8505,-0.8166,1.9672,-1.2651,3.1467,-1.2651c1.1438,0,2.2518,0.4229,3.1198,1.1908l0.1068,0.119c1.7257,1.7508,1.7097,4.6248,-0.0313,6.366l-4.8602,4.8608C7.3982,14.2992,7.218,14.3731,7.025,14.3731z" id="c1" fill="#404040"/>
  </g>
</svg>
