<?xml version="1.0" encoding="UTF-8"?>
<!DOCTYPE svg PUBLIC "-//W3C//DTD SVG 1.1//EN" "http://www.w3.org/Graphics/SVG/1.1/DTD/svg11.dtd">
<svg version="1.1" id="Layer_1" xmlns="http://www.w3.org/2000/svg" xmlns:xlink="http://www.w3.org/1999/xlink" x="0px" y="0px" width="16px" height="16px" viewBox="0 0 16 16" enable-background="new 0 0 16 16" xml:space="preserve">
  <g id="icon">
    <path d="M10,1.8333l0.7766,2.2917l0.3669,0.5771l0.7314,0.5212L14.1667,6l-2.2917,0.7766l-0.7314,0.3669l-0.3669,0.7314L10,10.1667L9.2234,7.875l-0.3669,-0.7314l-0.7314,-0.3669L5.8333,6l2.2917,-0.7766l0.7314,-0.3669l0.3669,-0.7314L10,1.8333z" id="b" fill="#F5F5F5"/>
    <path d="M10,10.85c-0.2405,0,-0.454,-0.153,-0.531,-0.3807L8.6818,8.147l-0.2768,-0.5521l-0.5521,-0.2768l-2.3223,-0.7871C5.303,6.454,5.15,6.2405,5.15,6s0.153,-0.454,0.3807,-0.531l2.3223,-0.7872l0.5521,-0.2768l0.2768,-0.5521l0.7871,-2.3223C9.546,1.303,9.7595,1.15,10,1.15s0.454,0.153,0.531,0.3807l0.778,2.2953l0.2828,0.4448l0.5965,0.4252l2.2809,0.773C14.697,5.546,14.85,5.7595,14.85,6s-0.153,0.454,-0.3807,0.531l-2.3223,0.7872l-0.5521,0.2768l-0.2768,0.5521l-0.7871,2.3223C10.454,10.697,10.2405,10.85,10,10.85zM9.7229,4.2737c-0.0063,0.0164,-0.0134,0.032,-0.0211,0.0476l-0.3778,0.753c-0.0538,0.1073,-0.1423,0.1959,-0.2496,0.2497l-0.7531,0.3778c-0.0156,0.0078,-0.0312,0.0149,-0.0473,0.0211L7.5576,6l0.7162,0.2771c0.0164,0.0063,0.032,0.0134,0.0476,0.0211l0.753,0.3778c0.1073,0.0538,0.1959,0.1423,0.2497,0.2496l0.3778,0.7531c0.0078,0.0156,0.0149,0.0312,0.0211,0.0473L10,8.4424l0.2771,-0.7162c0.0063,-0.0164,0.0134,-0.032,0.0211,-0.0476l0.3778,-0.753c0.0538,-0.1073,0.1423,-0.1959,0.2496,-0.2497l0.7531,-0.3778c0.0156,-0.0078,0.0312,-0.0149,0.0473,-0.0211l0.7151,-0.2766l-0.7145,-0.2775c-0.0428,-0.0166,-0.0839,-0.0388,-0.1222,-0.066l-0.7528,-0.5364c-0.059,-0.0421,-0.1087,-0.0946,-0.1477,-0.1559l-0.3778,-0.5941c-0.0194,-0.0306,-0.0361,-0.0635,-0.0495,-0.0977L9.999,3.56L9.7229,4.2737z" id="c" fill="#404040"/>
    <path d="M1.6776,15c-0.181,0,-0.3511,-0.0705,-0.4791,-0.1985c-0.128,-0.1279,-0.1985,-0.2981,-0.1985,-0.4791c0,-0.181,0.0705,-0.3511,0.1985,-0.4791l5.6449,-5.6449C6.9713,8.0705,7.1414,8,7.3224,8c0.181,0,0.3511,0.0705,0.4791,0.1984C7.9295,8.3264,8,8.4966,8,8.6775c0,0.181,-0.0705,0.3511,-0.1985,0.4791l-5.6449,5.6449C2.0287,14.9295,1.8586,15,1.6776,15z" id="c" fill="#404040"/>
  </g>
</svg>
