<?xml version="1.0" encoding="UTF-8"?>
<!DOCTYPE svg PUBLIC "-//W3C//DTD SVG 1.1//EN" "http://www.w3.org/Graphics/SVG/1.1/DTD/svg11.dtd">
<svg version="1.1" id="Layer_1" xmlns="http://www.w3.org/2000/svg" xmlns:xlink="http://www.w3.org/1999/xlink" x="0px" y="0px" width="16px" height="16px" viewBox="0 0 16 16" enable-background="new 0 0 16 16" xml:space="preserve">
  <g id="icon">
    <path d="M10.0199,1.5H5.9801c-0.4113,0,-0.8058,0.1634,-1.0966,0.4542L1.9542,4.8835C1.6634,5.1743,1.5,5.5688,1.5,5.9801v4.0002c0,0.4082,0.1609,0.7999,0.4478,1.0902l2.9332,2.9689c0.2913,0.2948,0.6886,0.4607,1.103,0.4607h4.0319c0.4145,0,0.8117,-0.1659,1.103,-0.4607l2.9332,-2.9689c0.2869,-0.2903,0.4478,-0.682,0.4478,-1.0902V5.9801c0,-0.4113,-0.1634,-0.8058,-0.4542,-1.0966l-2.9293,-2.9293C10.8257,1.6634,10.4312,1.5,10.0199,1.5z" id="b" fill="#F5F5F5"/>
    <path d="M10.016,15H5.984c-0.5444,0,-1.076,-0.222,-1.4586,-0.6092l-2.9333,-2.9689C1.2104,11.0356,1,10.5236,1,9.9803V5.9801c0,-0.5479,0.2133,-1.0629,0.6007,-1.4502l2.9292,-2.9292C4.9172,1.2133,5.4323,1,5.9801,1h4.0397c0.5479,0,1.0629,0.2133,1.4502,0.6007l2.9292,2.9292c0.3874,0.3873,0.6007,0.9023,0.6007,1.4502v4.0001c0,0.5434,-0.2104,1.0554,-0.5923,1.4417l-2.9331,2.9688C11.092,14.778,10.5604,15,10.016,15zM5.9801,2c-0.2807,0,-0.5446,0.1093,-0.7431,0.3078L2.3078,5.2371C2.1093,5.4355,2,5.6994,2,5.9801v4.0001c0,0.2784,0.1078,0.5407,0.3034,0.7387l2.9333,2.969c0.196,0.1983,0.4684,0.3121,0.7473,0.3121h4.0319c0.279,0,0.5513,-0.1138,0.7473,-0.3121l2.9332,-2.9688c0.1958,-0.198,0.3035,-0.4604,0.3035,-0.7388V5.9801c0,-0.2807,-0.1093,-0.5446,-0.3078,-0.7431l-2.9293,-2.9292c-0.1984,-0.1985,-0.4624,-0.3078,-0.7431,-0.3078H5.9801z" id="c1" fill="#404040"/>
    <path d="M10.3825,10.92c-0.1438,0,-0.2789,-0.0559,-0.3803,-0.1573L8,8.7605l-2.0021,2.0022c-0.1014,0.1014,-0.2365,0.1573,-0.3803,0.1573c-0.1832,0,-0.3529,-0.0929,-0.454,-0.2485c-0.1357,-0.2093,-0.1006,-0.4949,0.0836,-0.6792L7.2395,8L5.2472,6.0077c-0.1842,-0.1843,-0.2194,-0.4699,-0.0836,-0.6792c0.1011,-0.1557,0.2708,-0.2486,0.4541,-0.2486c0.1438,0,0.2789,0.0559,0.3803,0.1573L8,7.2395l1.9923,-1.9923c0.1056,-0.1056,0.2505,-0.1662,0.3976,-0.1662c0.101,0,0.1984,0.0286,0.2815,0.0825c0.139,0.0902,0.2285,0.2351,0.2456,0.3974c0.0171,0.1625,-0.0391,0.3218,-0.1542,0.437L8.7605,8l1.9923,1.9923c0.1842,0.1843,0.2193,0.4699,0.0836,0.6792C10.7354,10.8271,10.5657,10.92,10.3825,10.92z" id="c2" fill="#404040"/>
  </g>
</svg>
