<?xml version="1.0" encoding="UTF-8"?>
<!DOCTYPE svg PUBLIC "-//W3C//DTD SVG 1.1//EN" "http://www.w3.org/Graphics/SVG/1.1/DTD/svg11.dtd">
<svg version="1.1" id="Layer_1" xmlns="http://www.w3.org/2000/svg" xmlns:xlink="http://www.w3.org/1999/xlink" x="0px" y="0px" width="16px" height="16px" viewBox="0 0 16 16" enable-background="new 0 0 16 16" xml:space="preserve">
  <g id="main">
    <g id="icon">
      <path d="M3.146,2.583L2.81,2.81L2.583,3.146L2.5,3.558L2.5,12.44L2.583,12.85L2.81,13.19L3.146,13.42L3.558,13.5L7.725,13.5L7.701,13.34L7.7,13.29L7.7,6.202L7.721,5.826L7.784,5.501L8.011,4.995L8.323,4.651L8.662,4.439L8.993,4.326L9.339,4.288L9.786,4.35L10.16,4.499L10.63,4.831L13.5,7.09L13.5,3.558L13.42,3.146L13.19,2.81L12.85,2.583L12.44,2.5L3.558,2.5zz" fill="#F5F5F5"/>
      <path d="M3.245,2.032L2.952,2.123L2.688,2.267L2.457,2.457L2.267,2.688L2.123,2.952L2.032,3.245L2,3.558L2,12.44L2.032,12.76L2.123,13.05L2.267,13.31L2.457,13.54L2.688,13.73L2.952,13.88L3.245,13.97L3.558,14L7.824,14L7.79,13.92L7.701,13.34L7.7,13.29L7.7,13L3.558,13L3.341,12.96L3.164,12.84L3.044,12.66L3,12.44L3,3.558L3.044,3.341L3.164,3.164L3.341,3.044L3.558,3L12.44,3L12.66,3.044L12.84,3.164L12.96,3.341L13,3.558L13,6.696L14,7.484L14,3.558L13.97,3.245L13.88,2.952L13.73,2.688L13.54,2.457L13.31,2.267L13.05,2.123L12.76,2.032L12.44,2L3.558,2zz" fill="#404040"/>
    </g>
    <g id="overlay">
      <path d="M15.2309,10.3456L9.6927,5.9783c-0.3721,-0.3183,-0.5136,-0.28,-0.5092,0.224v7.0875c0.0194,0.5305,0.3232,0.613,0.7766,0.2353l1.5799,-1.3785l1.6185,3.2836c0.154,0.3191,1.5078,-0.3629,1.3538,-0.682l-1.597,-3.2737l2.064,-0.4217C15.6091,10.8949,15.6746,10.7027,15.2309,10.3456z" id="b" fill="#FFFFFF"/>
      <path d="M13.3472,16c-0.4069,0,-0.5716,-0.2503,-0.6236,-0.3579l-1.3391,-2.7168l-1.1164,0.9739c-0.2742,0.2284,-0.5388,0.3444,-0.7859,0.3444c-0.1057,0,-0.2068,-0.0214,-0.3005,-0.0635c-0.2083,-0.0937,-0.4609,-0.3212,-0.4811,-0.8725l-0.0003,-0.0179V6.2022c-0.0016,-0.1835,-0.0059,-0.6735,0.3869,-0.8579c0.0801,-0.0377,0.165,-0.0568,0.2522,-0.0568c0.2912,0,0.5409,0.2136,0.6609,0.3163l5.5288,4.3599c0.1542,0.1241,0.5537,0.4456,0.4557,0.8954c-0.0897,0.412,-0.4995,0.5672,-0.8886,0.6648c-0.007,0.0017,-0.014,0.0033,-0.0211,0.0048l-1.4507,0.2964l1.3217,2.7094c0.2077,0.4305,-0.0965,0.8959,-0.8135,1.2452c-0.3,0.1461,-0.5641,0.2202,-0.7852,0.2202H13.3472zM11.54,11.6611c0.0319,0,0.0639,0.0032,0.0951,0.0095c0.1456,0.0294,0.272,0.1268,0.3379,0.2606l1.5126,3.0689c0.1535,-0.0497,0.3606,-0.1548,0.49,-0.2486l-1.4936,-3.062c-0.0301,-0.0618,-0.047,-0.1227,-0.05,-0.1811c-0.0128,-0.2469,0.1499,-0.4613,0.387,-0.5097L14.7706,10.6L9.6667,6.575v6.5631l1.5564,-1.3581C11.3111,11.7034,11.4236,11.6611,11.54,11.6611z" fill="#0891b2"/>
    </g>
  </g>
</svg>
