<?xml version="1.0" encoding="UTF-8"?>
<!DOCTYPE svg PUBLIC "-//W3C//DTD SVG 1.1//EN" "http://www.w3.org/Graphics/SVG/1.1/DTD/svg11.dtd">
<svg version="1.1" id="Layer_1" xmlns="http://www.w3.org/2000/svg" xmlns:xlink="http://www.w3.org/1999/xlink" x="0px" y="0px" width="16px" height="16px" viewBox="0 0 16 16" enable-background="new 0 0 16 16" xml:space="preserve">
  <g id="icon">
    <path d="M5.7136,14.9741c-0.6973,0,-1.3528,-0.2715,-1.8458,-0.7645c-0.9018,-0.9018,-1.0148,-2.3524,-0.2656,-3.3804c0.0199,-0.0364,0.0431,-0.0711,0.0691,-0.1033l0.0416,-0.0467l0.0629,-0.0639l0.2282,-0.2394l0.0051,0.005l4.6743,-4.686c0.1295,-0.1299,0.3019,-0.2014,0.4854,-0.2014c0.1479,0,0.2888,0.0464,0.4073,0.134l0.0115,0.0092l0.0602,0.0518l0.0052,0.0052c0.2388,0.238,0.2677,0.6218,0.0674,0.8927l-0.0092,0.0115l-0.0517,0.0602l-4.9149,4.9267c-0.4,0.4954,-0.3621,1.2067,0.0896,1.6585c0.2348,0.2348,0.547,0.3641,0.879,0.3641c0.2939,0,0.5784,-0.1041,0.8019,-0.2931l5.7126,-5.7112c1.0569,-1.0582,1.0564,-2.7796,-0.0012,-3.8373c-0.5125,-0.5125,-1.1938,-0.7947,-1.9186,-0.7947c-0.6734,0,-1.3188,0.248,-1.8173,0.6983l-0.101,0.0966l-0.0084,0.009L2.2073,9.9488c-0.1294,0.1295,-0.3016,0.2008,-0.4847,0.2008c-0.1832,0,-0.3553,-0.0713,-0.4848,-0.2008c-0.2384,-0.2384,-0.2669,-0.6222,-0.0662,-0.8927l0.0093,-0.0116l0.0518,-0.06l6.2651,-6.2663l0.0027,0.0006C8.2617,1.9965,9.2543,1.6,10.3081,1.6c1.0909,0,2.1165,0.4249,2.8879,1.1963c1.5536,1.5536,1.6061,4.0361,0.1194,5.6517l-0.1242,0.1303l-5.7071,5.706l-0.0309,0.0256C6.9803,14.7362,6.3602,14.9741,5.7136,14.9741z" id="c1" fill="#404040"/>
  </g>
</svg>
