<?xml version="1.0" encoding="UTF-8"?>
<!DOCTYPE svg PUBLIC "-//W3C//DTD SVG 1.1//EN" "http://www.w3.org/Graphics/SVG/1.1/DTD/svg11.dtd">
<svg version="1.1" id="Layer_1" xmlns="http://www.w3.org/2000/svg" xmlns:xlink="http://www.w3.org/1999/xlink" x="0px" y="0px" width="16px" height="16px" viewBox="0 0 16 16" enable-background="new 0 0 16 16" xml:space="preserve">
  <g id="icon">
    <path d="M14,15.5H2c-0.2761,0,-0.5,-0.2239,-0.5,-0.5V2.5h13v12.5C14.5,15.2761,14.2761,15.5,14,15.5z" fill="#FFFFFF" stroke="#6D6E71" stroke-width="1" stroke-miterlimit="10"/>
    <path d="M15,4H1V1c0,-0.5523,0.4477,-1,1,-1h12c0.5523,0,1,0.4477,1,1V4z" fill="#3E79B4"/>
    <path d="M4,6.5h2M4,8.5h2M4,10.5h2M4,12.5h2" fill="none" stroke="#797979" stroke-width="1" stroke-linecap="round" stroke-miterlimit="10"/>
    <path d="M8,6.5h4.1M8,8.5h4.1M8,10.5h4.1M8,12.5h4.1" fill="none" stroke="#B4B4B5" stroke-width="1" stroke-linecap="round" stroke-miterlimit="10"/>
  </g>
</svg>
