<svg version="1.2" xmlns="http://www.w3.org/2000/svg" viewBox="0 0 24 24" width="24" height="24">
	<title>AI spark-svg</title>
	<defs>
	  <!-- Definizione del gradiente -->
	  <linearGradient id="grad1" x1="0%" y1="0%" x2="100%" y2="0%">
		<stop offset="0%" style="stop-color:#0891b2; stop-opacity:1" />
		<stop offset="100%" style="stop-color:#ba57de; stop-opacity:1" />
	  </linearGradient>
	</defs>
	<path fill="url(#grad1)" d="m4 2c0.5 0 1.5 2.5 1.5 2.5 0 0 2.5 1 2.5 1.5 0 0.5-2.5 1.5-2.5 1.5 0 0-1 2.5-1.5 2.5-0.5 0-1.5-2.5-1.5-2.5 0 0-2.5-1-2.5-1.5 0-0.5 2.5-1.5 2.5-1.5 0 0 1-2.5 1.5-2.5zm11 1c1.1 0 3.4 5.6 3.4 5.6 0 0 5.6 2.3 5.6 3.4 0 1.1-5.6 3.4-5.6 3.4 0 0-2.3 5.6-3.4 5.6-1.1 0-3.4-5.6-3.4-5.6 0 0-5.6-2.3-5.6-3.4 0-1.1 5.6-3.4 5.6-3.4 0 0 2.3-5.6 3.4-5.6zm-8.9 14.9c0 0-0.7-1.9-1.1-1.9-0.4 0-1.1 1.9-1.1 1.9 0 0-1.9 0.7-1.9 1.1 0 0.4 1.9 1.1 1.9 1.1 0 0 0.7 1.9 1.1 1.9 0.4 0 1.1-1.9 1.1-1.9 0 0 1.9-0.7 1.9-1.1 0-0.4-1.9-1.1-1.9-1.1z"/>
</svg>
