<?xml version="1.0" encoding="UTF-8"?>
<!DOCTYPE svg PUBLIC "-//W3C//DTD SVG 1.1//EN" "http://www.w3.org/Graphics/SVG/1.1/DTD/svg11.dtd">
<svg version="1.1" id="Layer_1" xmlns="http://www.w3.org/2000/svg" xmlns:xlink="http://www.w3.org/1999/xlink" x="0px" y="0px" width="16px" height="16px" viewBox="0 0 16 16" enable-background="new 0 0 16 16" xml:space="preserve">
  <g id="main">
    <g id="icon">
      <path d="M3.157,2.542L2.767,2.663L2.415,2.854L2.108,3.108L1.854,3.415L1.663,3.767L1.542,4.157L1.5,4.575L1.5,12.42L1.542,12.84L1.663,13.23L1.854,13.59L2.108,13.89L2.415,14.15L2.767,14.34L3.157,14.46L3.575,14.5L8.082,14.5L8.417,12.63L8.112,12.51L7.831,12.35L7.581,12.13L7.364,11.88L7.135,11.46L7.016,11.01L7.01,10.54L7.117,10.08L8.728,5.833L8.986,5.37L9.365,5.012L9.833,4.782L10.36,4.7L13.93,4.7L14.34,4.747L14.6,4.842L14.6,4.575L14.56,4.157L14.44,3.767L14.25,3.415L13.99,3.108L13.69,2.854L13.33,2.663L12.94,2.542L12.52,2.5L3.575,2.5zM13.01,14.44L13.33,14.34L13.69,14.15L13.99,13.89L14.25,13.59L14.44,13.23L14.56,12.84L14.57,12.73zz" fill="#F5F5F5"/>
      <path d="M2.996,2.051L2.527,2.196L2.102,2.427L1.732,2.732L1.427,3.102L1.196,3.527L1.051,3.996L1,4.5L1,12.5L1.051,13L1.196,13.47L1.427,13.9L1.732,14.27L2.102,14.57L2.527,14.8L2.996,14.95L3.5,15L8.004,15L8.033,14.77L8.171,14L3.5,14L3.198,13.97L2.916,13.88L2.661,13.74L2.439,13.56L2.256,13.34L2.118,13.08L2.03,12.8L2,12.5L2,6L8.665,6L8.728,5.833L8.986,5.37L9.365,5.012L9.39,5L2,5L2,4.5L2.03,4.198L2.118,3.916L2.256,3.661L2.439,3.439L2.661,3.256L2.916,3.118L3.198,3.03L3.5,3L12.5,3L12.8,3.03L13.08,3.118L13.34,3.256L13.56,3.439L13.74,3.661L13.88,3.916L13.97,4.198L14,4.5L14,4.708L14.34,4.747L14.72,4.885L15,5.071L15,4.5L14.95,3.996L14.8,3.527L14.57,3.102L14.27,2.732L13.9,2.427L13.47,2.196L13,2.051L12.5,2L3.5,2zM12.49,15L12.5,15L13,14.95L13.47,14.8L13.9,14.57L14.27,14.27L14.57,13.9L14.8,13.47L14.95,13L15,12.5L15,12.26zz" fill="#404040"/>
      <path d="M5,14L6,14L6,6L5,6zz" fill="#404040"/>
      <path d="M8,4.5L9,4.5L9,3.5L8,3.5zM10,4.5L11,4.5L11,3.5L10,3.5zM12,4.5L13,4.5L13,3.5L12,3.5zz" fill="#404040"/>
    </g>
    <g id="overlay">
      <path d="M8.7314,10.652c-0.0416,0.1151,-0.0012,0.244,0.108,0.3137c0.044,0.0281,0.0967,0.0402,0.149,0.0404l1.2243,0.0045c0.0318,0.0001,0.0581,0.0044,0.0779,0.0125c0.1017,0.0419,0.1565,0.1427,0.1332,0.2452l-0.7165,3.885c-0.0241,0.1307,0.1414,0.21,0.2305,0.1104l5.357,-5.8829h-2.4252c-0.0463,0,-0.0867,-0.0093,-0.117,-0.027c-0.0891,-0.0519,-0.1306,-0.1527,-0.1031,-0.2477l1.3518,-2.7008h-3.6572L8.7314,10.652z" id="b" fill="#FFFFFF"/>
      <path d="M9.8557,16c-0.2623,0,-0.5174,-0.1214,-0.6824,-0.3248c-0.1613,-0.1988,-0.218,-0.4497,-0.1597,-0.7066l0.5836,-3.2579l-0.621,-0.0023c-0.3217,-0.0012,-0.6122,-0.1508,-0.7972,-0.4106c-0.1849,-0.2598,-0.229,-0.5802,-0.1211,-0.8792l1.6074,-4.2365c0.1038,-0.2876,0.3834,-0.4822,0.6949,-0.4822h3.5711c0.2402,0,0.4585,0.1103,0.599,0.3026c0.1404,0.1923,0.1774,0.4315,0.1015,0.6564l-0.0036,0.0107l-1.0428,2.0059h1.6743c0.3017,0,0.5623,0.1703,0.68,0.4445c0.1177,0.2742,0.0603,0.5773,-0.1497,0.7911l-5.3238,5.8249C10.2979,15.9077,10.0824,16,9.8557,16zM10.2138,10.7367c0.0683,0.0002,0.1301,0.0115,0.1838,0.0336c0.2246,0.0925,0.3495,0.3271,0.2971,0.5578l-0.6214,3.3706l4.6059,-5.0441h-1.8095c-0.096,0,-0.1852,-0.0225,-0.2582,-0.065c-0.2056,-0.1198,-0.2971,-0.358,-0.2224,-0.5793l0.0032,-0.0094l1.1547,-2.3217h-3.0104l-1.5409,4.0574L10.2138,10.7367z" id="c2" fill="#404040"/>
    </g>
  </g>
</svg>
