<?xml version="1.0" encoding="UTF-8"?>
<!DOCTYPE svg PUBLIC "-//W3C//DTD SVG 1.1//EN" "http://www.w3.org/Graphics/SVG/1.1/DTD/svg11.dtd">
<svg version="1.1" id="Layer_1" xmlns="http://www.w3.org/2000/svg" xmlns:xlink="http://www.w3.org/1999/xlink" x="0px" y="0px" width="16px" height="16px" viewBox="0 0 16 16" enable-background="new 0 0 16 16" xml:space="preserve">
  <g id="icon">
    <path d="M7.5,5h5V3.7c0,-0.6627,-0.5373,-1.2,-1.2,-1.2H9.7c0,-0.5523,-0.4477,-1,-1,-1H6.3c-0.5523,0,-1,0.4477,-1,1H3.7c-0.6627,0,-1.2,0.5373,-1.2,1.2v8.6c0,0.6627,0.5373,1.2,1.2,1.2h1.3V7.5C5,6.1215,6.1215,5,7.5,5z" id="b" fill="#F5F5F5"/>
    <path d="M5,13.5v-0.5H3.7c-0.3866,0,-0.7,-0.3134,-0.7,-0.7V3.7c0,-0.3866,0.3134,-0.7,0.7,-0.7h1.1875C5.0941,3.5816,5.6484,4,6.3,4h2.4c0.6516,0,1.2059,-0.4184,1.4125,-1H11.3c0.3866,0,0.7,0.3134,0.7,0.7v1.3h0.5c0.1712,0,0.3384,0.0174,0.5,0.0503V3.7c0,-0.9389,-0.7611,-1.7,-1.7,-1.7h-1.1875C9.9059,1.4184,9.3516,1,8.7,1H6.3c-0.6516,0,-1.2059,0.4184,-1.4125,1H3.7c-0.9389,0,-1.7,0.7611,-1.7,1.7v8.6c0,0.9389,0.7611,1.7,1.7,1.7h1.3503C5.0174,13.8384,5,13.6712,5,13.5zM6.3,2h2.4c0.2757,0,0.5,0.2243,0.5,0.5s-0.2243,0.5,-0.5,0.5H6.3c-0.2757,0,-0.5,-0.2243,-0.5,-0.5S6.0243,2,6.3,2z" id="c1" fill="#404040"/>
    <path d="M12.5,14.5H7.5c-0.5523,0,-1,-0.4477,-1,-1V7.5c0,-0.5523,0.4477,-1,1,-1h5c0.5523,0,1,0.4477,1,1v6C13.5,14.0523,13.0523,14.5,12.5,14.5z" id="b" fill="#F5F5F5"/>
    <path d="M12.5,15H7.5c-0.8271,0,-1.5,-0.6729,-1.5,-1.5V7.5c0,-0.8271,0.6729,-1.5,1.5,-1.5h5c0.8271,0,1.5,0.6729,1.5,1.5v6C14,14.3271,13.3271,15,12.5,15zM7.5,7c-0.2757,0,-0.5,0.2243,-0.5,0.5v6c0,0.2757,0.2243,0.5,0.5,0.5h5c0.2757,0,0.5,-0.2243,0.5,-0.5V7.5c0,-0.2757,-0.2243,-0.5,-0.5,-0.5H7.5z" id="c1" fill="#404040"/>
  </g>
</svg>
