<?xml version="1.0" encoding="UTF-8"?>
<!DOCTYPE svg PUBLIC "-//W3C//DTD SVG 1.1//EN" "http://www.w3.org/Graphics/SVG/1.1/DTD/svg11.dtd">
<svg version="1.1" id="Layer_1" xmlns="http://www.w3.org/2000/svg" xmlns:xlink="http://www.w3.org/1999/xlink" x="0px" y="0px" width="16px" height="16px" viewBox="0 0 16 16" enable-background="new 0 0 16 16" xml:space="preserve">
  <g id="main">
    <g id="icon">
      <path d="M7.469,1.635L7.02,1.775L6.614,1.997L6.26,2.291L5.968,2.647L5.748,3.056L5.608,3.507L5.56,3.991L5.608,4.475L5.748,4.926L5.968,5.334L6.26,5.69L6.614,5.984L7.02,6.206L7.469,6.346L7.95,6.395L8.431,6.346L8.88,6.206L9.286,5.984L9.64,5.69L9.932,5.334L10.15,4.926L10.29,4.475L10.34,3.991L10.29,3.507L10.15,3.056L9.932,2.647L9.64,2.291L9.286,1.997L8.88,1.775L8.431,1.635L7.95,1.586zM3.711,8.682L3.387,8.9L3.168,9.223L3.088,9.619L3.088,10.17L3.173,10.87L3.423,11.55L3.832,12.19L4.391,12.77L5.095,13.26L5.936,13.64L6.906,13.88L7.131,13.9L7.083,13.69L7.076,13.4L7.123,13.11L7.224,12.84L7.375,12.59L7.575,12.38L7.822,12.2L9.036,11.5L7.822,10.8L7.576,10.62L7.376,10.41L7.224,10.16L7.123,9.888L7.076,9.604L7.083,9.314L7.148,9.027L7.273,8.75L7.387,8.602L4.106,8.602zM10.54,8.902L10.54,8.602L10.02,8.602zz" fill="#F5F5F5"/>
      <path d="M7.352,1.061L6.795,1.235L6.291,1.512L5.851,1.877L5.488,2.32L5.214,2.828L5.041,3.389L4.98,3.991L5.041,4.593L5.214,5.154L5.488,5.662L5.851,6.105L6.291,6.47L6.795,6.746L7.352,6.921L7.95,6.982L8.548,6.921L9.105,6.746L9.609,6.47L10.05,6.105L10.41,5.662L10.69,5.154L10.86,4.593L10.92,3.991L10.86,3.389L10.69,2.828L10.41,2.32L10.05,1.877L9.609,1.512L9.105,1.235L8.548,1.061L7.95,1zM8.351,2.027L8.724,2.144L9.062,2.329L9.357,2.574L9.6,2.871L9.784,3.211L9.9,3.587L9.94,3.991L9.9,4.394L9.784,4.77L9.6,5.111L9.357,5.408L9.062,5.653L8.724,5.838L8.351,5.955L7.95,5.995L7.549,5.955L7.176,5.838L6.838,5.653L6.543,5.408L6.3,5.111L6.116,4.77L6,4.394L5.96,3.991L6,3.587L6.116,3.211L6.3,2.871L6.543,2.574L6.838,2.329L7.176,2.144L7.549,2.027L7.95,1.986zM3.783,8.048L3.482,8.142L3.209,8.29L2.971,8.486L2.775,8.723L2.626,8.995L2.533,9.296L2.5,9.619L2.5,10.17L2.595,10.98L2.875,11.77L3.332,12.51L3.959,13.17L4.747,13.73L5.688,14.17L6.214,14.33L6.775,14.45L7.371,14.53L7.489,14.53L7.272,14.25L7.148,13.97L7.083,13.69L7.078,13.5L6.995,13.49L6.104,13.27L5.331,12.93L4.685,12.5L4.171,11.98L3.796,11.41L3.566,10.8L3.488,10.17L3.488,9.619L3.537,9.379L3.67,9.183L3.866,9.05L4.106,9.002L7.159,9.002L7.273,8.75L7.513,8.438L7.822,8.202L8.181,8.052L8.454,8.016L4.106,8.016zM8.96,8.051L9.322,8.201L10.54,8.902L10.54,8.016L8.692,8.016zz" fill="#404040"/>
    </g>
    <g id="overlay">
      <path d="M15.7499,13.067L13.0358,11.5l2.7141,-1.567c0.2391,-0.1381,0.3211,-0.4439,0.183,-0.683c-0.1381,-0.2391,-0.4439,-0.3211,-0.683,-0.183l-2.7141,1.567V7.5c0,-0.2761,-0.2239,-0.5,-0.5,-0.5s-0.5,0.2239,-0.5,0.5v3.134L8.8217,9.067c-0.2391,-0.1381,-0.5449,-0.0561,-0.683,0.183c-0.1381,0.2391,-0.0561,0.5449,0.183,0.683L11.0358,11.5l-2.7141,1.567c-0.2391,0.1381,-0.3211,0.4439,-0.183,0.683c0.1381,0.2391,0.4439,0.3211,0.683,0.183l2.7141,-1.567V15.5c0,0.2761,0.2239,0.5,0.5,0.5s0.5,-0.2239,0.5,-0.5v-3.134l2.7141,1.567c0.2391,0.1381,0.5449,0.0561,0.683,-0.183C16.071,13.5109,15.9891,13.2051,15.7499,13.067z" fill="#F59E0B"/>
    </g>
  </g>
</svg>
