<?xml version="1.0" encoding="UTF-8"?>
<!DOCTYPE svg PUBLIC "-//W3C//DTD SVG 1.1//EN" "http://www.w3.org/Graphics/SVG/1.1/DTD/svg11.dtd">
<svg version="1.1" id="Layer_1" xmlns="http://www.w3.org/2000/svg" xmlns:xlink="http://www.w3.org/1999/xlink" x="0px" y="0px" width="16px" height="16px" viewBox="0 0 16 16" enable-background="new 0 0 16 16" xml:space="preserve">
  <g id="main">
    <g id="icon">
      <path d="M2.704,3.531L2.421,3.619L2.165,3.758L1.942,3.942L1.758,4.165L1.619,4.421L1.531,4.704L1.5,5.008L1.5,6.901L1.927,6.641L2.522,6.368L3.153,6.167L3.814,6.043L4.5,6L5.062,6.029L5.607,6.112L6.134,6.248L6.639,6.433L7.12,6.665L7.573,6.941L7.996,7.257L8.387,7.613L8.743,8.004L9.059,8.427L9.335,8.88L9.567,9.361L9.752,9.866L9.888,10.39L9.971,10.94L10,11.5L9.957,12.19L9.833,12.85L9.632,13.48L9.622,13.5L12.99,13.5L13.3,13.47L13.58,13.38L13.83,13.24L14.06,13.06L14.24,12.83L14.38,12.58L14.47,12.3L14.5,11.99L14.5,5.008L14.47,4.704L14.38,4.421L14.24,4.165L14.06,3.942L13.83,3.758L13.58,3.619L13.3,3.531L12.99,3.5L3.008,3.5zz" fill="#F5F5F5"/>
      <path d="M2.604,3.041L2.227,3.158L1.886,3.343L1.589,3.589L1.343,3.886L1.158,4.227L1.041,4.604L1,5.008L1,7.272L1.371,6.98L1.927,6.641L2,6.607L2,5.008L2.079,4.616L2.296,4.296L2.616,4.079L3.008,4L12.99,4L13.38,4.079L13.7,4.296L13.92,4.616L14,5.008L14,11.99L13.92,12.38L13.7,12.7L13.38,12.92L12.99,13L9.784,13L9.632,13.48L9.393,14L12.99,14L13.4,13.96L13.77,13.84L14.11,13.66L14.41,13.41L14.66,13.11L14.84,12.77L14.96,12.4L15,11.99L15,5.008L14.96,4.604L14.84,4.227L14.66,3.886L14.41,3.589L14.11,3.343L13.77,3.158L13.4,3.041L12.99,3L3.008,3zz" fill="#404040"/>
      <path d="M11.88,5.536L11.55,5.638L11.26,5.801L11,6.016L10.74,5.801L10.45,5.639L10.12,5.536L9.767,5.5L9.267,5.5L9.078,5.578L9,5.767L9,6.233L9.078,6.422L9.267,6.5L9.767,6.5L10.05,6.558L10.29,6.715L10.44,6.948L10.5,7.233L10.5,9.767L10.44,10.05L10.29,10.29L10.05,10.44L9.9,10.47L9.971,10.94L9.999,11.48L10.12,11.46L10.45,11.36L10.74,11.2L11,10.98L11.26,11.2L11.55,11.36L11.88,11.46L12.23,11.5L12.73,11.5L12.92,11.42L13,11.23L13,10.77L12.92,10.58L12.73,10.5L12.23,10.5L11.95,10.44L11.71,10.29L11.56,10.05L11.5,9.767L11.5,7.233L11.56,6.948L11.71,6.715L11.95,6.558L12.23,6.5L12.73,6.5L12.92,6.422L13,6.233L13,5.767L12.92,5.578L12.73,5.5L12.23,5.5zz" fill="#404040"/>
      <path d="M3.514,6.066L3.446,6.112L3.814,6.043L4.5,6L3.842,6zM4.5,6L5.062,6.029L5.607,6.112L6.134,6.248L6.639,6.433L7.12,6.665L7.573,6.941L7.996,7.257L8,7.261L8,6.842L7.934,6.514L7.754,6.246L7.486,6.066L7.158,6L4.5,6zz" fill="#404040" opacity="0.3"/>
    </g>
    <g id="overlay">
      <circle cx="4.5" cy="11.5" r="4.001" id="b" fill="#FFFFFF"/>
      <path d="M4.5,16c-2.4813,0,-4.5,-2.0187,-4.5,-4.5s2.0187,-4.5,4.5,-4.5s4.5,2.0187,4.5,4.5S6.9813,16,4.5,16zM4.5,7.992C2.5657,7.992,0.992,9.5657,0.992,11.5S2.5657,15.008,4.5,15.008S8.008,13.4343,8.008,11.5S6.4343,7.992,4.5,7.992z" id="c1" fill="#212121"/>
      <path d="M4.4667,11.999c-0.2319,0,-0.4303,-0.1732,-0.4614,-0.4027l-0.0012,-0.0089l-0.0029,-0.1164L4.001,9.3411c0,-0.2205,0.1443,-0.4097,0.3509,-0.4601c0.0379,-0.0093,0.0777,-0.0139,0.1182,-0.0139c0.2261,0,0.4909,0.154,0.5245,0.4027l0.0011,0.011l0.0031,0.0463v1.6739h1.3263c0.2205,0,0.4097,0.1443,0.4601,0.3509c0.0355,0.1452,0.0028,0.311,-0.0876,0.4434c-0.0768,0.1126,-0.1838,0.1834,-0.3012,0.1993l-0.011,0.0011l-0.0463,0.0031H4.4667z" id="c1" fill="#212121"/>
    </g>
  </g>
</svg>
