<?xml version="1.0" encoding="UTF-8"?>
<!DOCTYPE svg PUBLIC "-//W3C//DTD SVG 1.1//EN" "http://www.w3.org/Graphics/SVG/1.1/DTD/svg11.dtd">
<svg version="1.1" id="Layer_1" xmlns="http://www.w3.org/2000/svg" xmlns:xlink="http://www.w3.org/1999/xlink" x="0px" y="0px" width="16px" height="16px" viewBox="0 0 16 16" enable-background="new 0 0 16 16" xml:space="preserve">
  <g id="main">
    <g id="icon">
      <path d="M1.704,3.531L1.421,3.619L1.165,3.758L0.9418,3.942L0.7576,4.165L0.6186,4.421L0.5307,4.704L0.5,5.008L0.5,5.792L0.9104,5.581L1.591,5.332L2.345,5.15L3.155,5.038L4,5L4.845,5.038L5.655,5.15L6.409,5.332L7.09,5.582L7.773,5.954L8.314,6.405L8.611,6.772L8.825,7.169L8.956,7.588L9,8.026L9,13.5L12.99,13.5L13.3,13.47L13.58,13.38L13.83,13.24L14.06,13.06L14.24,12.83L14.38,12.58L14.47,12.3L14.5,11.99L14.5,5.008L14.47,4.704L14.38,4.421L14.24,4.165L14.06,3.942L13.83,3.758L13.58,3.619L13.3,3.531L12.99,3.5L2.008,3.5zz" fill="#F5F5F5"/>
      <path d="M1.604,3.041L1.227,3.158L0.8861,3.343L0.5889,3.589L0.3434,3.886L0.158,4.227L0.04082,4.604L0,5.008L0,6.121L0.4217,5.832L0.9104,5.581L1,5.549L1,5.008L1.079,4.616L1.296,4.296L1.616,4.079L2.008,4L12.99,4L13.38,4.079L13.7,4.296L13.92,4.616L14,5.008L14,11.99L13.92,12.38L13.7,12.7L13.38,12.92L12.99,13L9,13L9,13.97L8.997,14L12.99,14L13.4,13.96L13.77,13.84L14.11,13.66L14.41,13.41L14.66,13.11L14.84,12.77L14.96,12.4L15,11.99L15,5.008L14.96,4.604L14.84,4.227L14.66,3.886L14.41,3.589L14.11,3.343L13.77,3.158L13.4,3.041L12.99,3L2.008,3zz" fill="#404040"/>
      <path d="M8.992,7.103L8.837,7.206L8.956,7.588L9,8.026L9,8.094L10.76,9.854L10.92,9.962L11.11,10L11.13,10L11.32,9.954L11.48,9.835L13.22,7.901L13.33,7.73L13.35,7.54L13.31,7.354L13.19,7.195L13.02,7.094L12.83,7.067L12.64,7.114L12.48,7.232L11.09,8.774L9.534,7.213L9.368,7.103L9.18,7.067zz" fill="#404040"/>
      <path d="M7,5.549L7.09,5.582L7.773,5.954L8,6.143L8,4L7,4zz" fill="#404040"/>
    </g>
    <g id="overlay">
      <path d="M4,15.5244c-0.9408,0,-1.8251,-0.1616,-2.4901,-0.4552c-0.3232,-0.1426,-0.5769,-0.3087,-0.7541,-0.4935c-0.1802,-0.188,-0.2754,-0.396,-0.2754,-0.6014V8.0256c0,-0.2054,0.0952,-0.4133,0.2754,-0.6014c0.1772,-0.1849,0.4308,-0.3508,0.754,-0.4935c0.6651,-0.2935,1.5494,-0.4552,2.4901,-0.4552s1.8251,0.1617,2.4901,0.4552c0.3231,0.1426,0.5768,0.3086,0.7541,0.4935c0.1802,0.188,0.2754,0.396,0.2754,0.6013v5.9488c0,0.2054,-0.0952,0.4133,-0.2754,0.6013c-0.1772,0.1849,-0.4309,0.3509,-0.7541,0.4935C5.8251,15.3628,4.9408,15.5244,4,15.5244z" id="b" fill="#FFFFFF"/>
      <path d="M4,16c-1.0068,0,-1.9606,-0.1762,-2.6858,-0.4963c-0.381,-0.1682,-0.6861,-0.3702,-0.9069,-0.6006C0.1408,14.625,0,14.3039,0,13.9744V8.0256c0,-0.3294,0.1408,-0.6506,0.4072,-0.9287c0.2208,-0.2304,0.526,-0.4324,0.907,-0.6006C2.0395,6.1763,2.9933,6,4,6s1.9605,0.1763,2.6857,0.4964c0.3809,0.1681,0.6861,0.3702,0.907,0.6005C7.8592,7.375,8,7.6962,8,8.0256v5.9488c0,0.3295,-0.1408,0.6506,-0.4072,0.9286c-0.2208,0.2303,-0.526,0.4324,-0.907,0.6006C5.9605,15.8238,5.0067,16,4,16zM0.9467,13.9744c0.0068,0.0831,0.0592,0.181,0.1554,0.2814c0.1323,0.138,0.3406,0.2721,0.6026,0.3876c0.6052,0.2671,1.4204,0.4142,2.2952,0.4142s1.69,-0.1471,2.2952,-0.4142c0.262,-0.1156,0.4704,-0.2497,0.6027,-0.3876c0.097,-0.1012,0.1463,-0.1959,0.1463,-0.2814V9.3738c-0.111,0.0642,-0.2309,0.1247,-0.3584,0.181c-0.7252,0.3201,-1.679,0.4963,-2.6857,0.4963c-1.0068,0,-1.9606,-0.1762,-2.6858,-0.4963c-0.1309,-0.0578,-0.2539,-0.1201,-0.3675,-0.1864V13.9744zM4,6.9424c-0.8749,0,-1.69,0.1471,-2.2952,0.4142c-0.2621,0.1156,-0.4704,0.2496,-0.6026,0.3875c-0.0971,0.1013,-0.1463,0.196,-0.1463,0.2815c0,0.0855,0.0492,0.1802,0.1463,0.2814c0.1322,0.1379,0.3406,0.2719,0.6026,0.3876c0.6051,0.2671,1.4203,0.4142,2.2952,0.4142s1.69,-0.1471,2.2952,-0.4142c0.2622,-0.1157,0.4706,-0.2497,0.6026,-0.3875c0.0971,-0.1013,0.1463,-0.196,0.1463,-0.2815c0,-0.0855,-0.0492,-0.1801,-0.1463,-0.2815c-0.1322,-0.138,-0.3406,-0.272,-0.6026,-0.3875C5.69,7.0895,4.8749,6.9424,4,6.9424z" fill="#0891b2"/>
    </g>
  </g>
</svg>
