<?xml version="1.0" encoding="UTF-8"?>
<!DOCTYPE svg PUBLIC "-//W3C//DTD SVG 1.1//EN" "http://www.w3.org/Graphics/SVG/1.1/DTD/svg11.dtd">
<svg version="1.1" id="Layer_1" xmlns="http://www.w3.org/2000/svg" xmlns:xlink="http://www.w3.org/1999/xlink" x="0px" y="0px" width="16px" height="16px" viewBox="0 0 16 16" enable-background="new 0 0 16 16" xml:space="preserve">
  <g id="main">
    <g id="icon">
      <path d="M1.704,3.531L1.421,3.619L1.165,3.758L0.9418,3.942L0.7576,4.165L0.6186,4.421L0.5307,4.704L0.5,5.008L0.5,10.17L0.5742,10.13L0.8916,10.06L1.225,10.02L1.019,9.63L0.8662,9.206L0.7713,8.758L0.7387,8.289L0.8043,7.627L0.9926,7.01L1.29,6.452L1.685,5.964L2.162,5.562L2.71,5.259L3.315,5.067L3.965,5L4.614,5.067L5.22,5.259L5.768,5.562L6.245,5.964L6.639,6.452L6.937,7.01L7.126,7.627L7.191,8.289L7.159,8.758L7.064,9.206L6.911,9.63L6.705,10.02L6.729,10.02L7.186,10.07L7.612,10.2L7.998,10.42L8.334,10.7L8.612,11.04L8.821,11.43L8.954,11.86L9,12.32L9,12.72L8.971,13.17L8.909,13.5L12.99,13.5L13.3,13.47L13.58,13.38L13.83,13.24L14.06,13.06L14.24,12.83L14.38,12.58L14.47,12.3L14.5,11.99L14.5,5.008L14.47,4.704L14.38,4.421L14.24,4.165L14.06,3.942L13.83,3.758L13.58,3.619L13.3,3.531L12.99,3.5L2.008,3.5zz" fill="#F5F5F5"/>
      <path d="M1.604,3.041L1.227,3.158L0.8861,3.343L0.5889,3.589L0.3434,3.886L0.158,4.227L0.04082,4.604L0,5.008L0,10.42L0.5742,10.13L0.8916,10.06L1,10.05L1,9.578L0.8662,9.206L0.7713,8.758L0.7387,8.289L0.8043,7.627L0.9926,7.01L1,6.996L1,5.008L1.079,4.616L1.296,4.296L1.616,4.079L2.008,4L12.99,4L13.38,4.079L13.7,4.296L13.92,4.616L14,5.008L14,11.99L13.92,12.38L13.7,12.7L13.38,12.92L12.99,13L8.982,13L8.971,13.17L8.885,13.63L8.766,14L12.99,14L13.4,13.96L13.77,13.84L14.11,13.66L14.41,13.41L14.66,13.11L14.84,12.77L14.96,12.4L15,11.99L15,5.008L14.96,4.604L14.84,4.227L14.66,3.886L14.41,3.589L14.11,3.343L13.77,3.158L13.4,3.041L12.99,3L2.008,3zz" fill="#404040"/>
      <path d="M8.992,7.103L8.826,7.213L8.717,7.379L8.68,7.567L8.717,7.755L8.826,7.92L10.76,9.854L10.92,9.962L11.11,10L11.13,10L11.32,9.954L11.48,9.835L13.22,7.901L13.33,7.73L13.35,7.54L13.31,7.354L13.19,7.195L13.02,7.094L12.83,7.067L12.64,7.114L12.48,7.232L11.09,8.774L9.534,7.213L9.368,7.103L9.18,7.067zz" fill="#404040"/>
      <path d="M7,7.216L7.126,7.627L7.191,8.289L7.159,8.758L7.064,9.206L7,9.384L7,10.05L7.186,10.07L7.612,10.2L7.998,10.42L8,10.42L8,4L7,4zz" fill="#404040"/>
      <path d="M2.078,5.578L2.043,5.663L2.162,5.562L2.275,5.5L2.267,5.5zM5.768,5.562L5.995,5.754L5.922,5.578L5.733,5.5L5.655,5.5zz" fill="#404040"/>
    </g>
    <g id="overlay">
      <path d="M1.2707,11.5913c-0.3936,0,-0.7138,0.3267,-0.7138,0.7282v0.3974c0,1.3349,1.2879,2.7156,3.443,2.7156s3.443,-1.3807,3.443,-2.7156v-0.3974c0,-0.4015,-0.3202,-0.7282,-0.7138,-0.7282H1.2707zM3.965,6.5675c-0.924,0,-1.6757,0.7724,-1.6757,1.7219s0.7517,1.7219,1.6757,1.7219s1.6757,-0.7724,1.6757,-1.7219S4.889,6.5675,3.965,6.5675z" id="b" fill="#FFFFFF"/>
      <path d="M4,16c-2.5038,0,-4,-1.6692,-4,-3.283v-0.3975c0,-0.7145,0.5701,-1.2958,1.2708,-1.2958h5.4585c0.7007,0,1.2708,0.5813,1.2708,1.2958v0.3975C8,14.3308,6.5038,16,4,16zM1.2708,12.0254c-0.1593,0,-0.2888,0.1319,-0.2888,0.2941v0.3975c0,1.1214,1.1289,2.2814,3.0181,2.2814s3.0181,-1.16,3.0181,-2.2814v-0.3975c0,-0.1622,-0.1296,-0.2941,-0.2888,-0.2941H1.2708zM3.9649,10.5788c-1.2276,0,-2.2264,-1.027,-2.2264,-2.2894C1.7386,7.027,2.7373,6,3.9649,6s2.2264,1.027,2.2264,2.2894C6.1914,9.5518,5.1926,10.5788,3.9649,10.5788zM3.9649,7.0016c-0.6897,0,-1.2507,0.5777,-1.2507,1.2877c0,0.71,0.561,1.2877,1.2507,1.2877s1.2508,-0.5777,1.2508,-1.2877C5.2157,7.5793,4.6546,7.0016,3.9649,7.0016z" fill="#0E7490"/>
    </g>
  </g>
</svg>
