<?xml version="1.0" encoding="UTF-8"?>
<!DOCTYPE svg PUBLIC "-//W3C//DTD SVG 1.1//EN" "http://www.w3.org/Graphics/SVG/1.1/DTD/svg11.dtd">
<svg version="1.1" id="Layer_1" xmlns="http://www.w3.org/2000/svg" xmlns:xlink="http://www.w3.org/1999/xlink" x="0px" y="0px" width="16px" height="16px" viewBox="0 0 16 16" enable-background="new 0 0 16 16" xml:space="preserve">
  <g id="main">
    <g id="icon">
      <path d="M2.704,3.531L2.421,3.619L2.165,3.758L1.942,3.942L1.758,4.165L1.619,4.421L1.531,4.704L1.5,5.008L1.5,9.118L2.367,7.031L2.618,6.609L2.975,6.284L3.411,6.075L3.901,6L4.394,6.072L4.833,6.278L5.193,6.6L5.449,7.022L5.448,7.023L5.476,7.086L7.408,11.82L8.114,13.5L12.99,13.5L13.3,13.47L13.58,13.38L13.83,13.24L14.06,13.06L14.24,12.83L14.38,12.58L14.47,12.3L14.5,11.99L14.5,5.008L14.47,4.704L14.38,4.421L14.24,4.165L14.06,3.942L13.83,3.758L13.58,3.619L13.3,3.531L12.99,3.5L3.008,3.5zz" fill="#F5F5F5"/>
      <path d="M2.604,3.041L2.227,3.158L1.886,3.343L1.589,3.589L1.343,3.886L1.158,4.227L1.041,4.604L1,5.008L1,10.32L2,7.915L2,5.008L2.079,4.616L2.296,4.296L2.616,4.079L3.008,4L12.99,4L13.38,4.079L13.7,4.296L13.92,4.616L14,5.008L14,11.99L13.92,12.38L13.7,12.7L13.38,12.92L12.99,13L7.903,13L8.324,14L12.99,14L13.4,13.96L13.77,13.84L14.11,13.66L14.41,13.41L14.66,13.11L14.84,12.77L14.96,12.4L15,11.99L15,5.008L14.96,4.604L14.84,4.227L14.66,3.886L14.41,3.589L14.11,3.343L13.77,3.158L13.4,3.041L12.99,3L3.008,3zz" fill="#404040"/>
      <path d="M11.88,5.536L11.55,5.638L11.26,5.801L11,6.016L10.74,5.801L10.45,5.639L10.12,5.536L9.767,5.5L9.267,5.5L9.078,5.578L9,5.767L9,6.233L9.078,6.422L9.267,6.5L9.767,6.5L10.05,6.558L10.29,6.715L10.44,6.948L10.5,7.233L10.5,9.767L10.44,10.05L10.29,10.29L10.05,10.44L9.767,10.5L9.267,10.5L9.078,10.58L9,10.77L9,11.23L9.078,11.42L9.267,11.5L9.767,11.5L10.12,11.46L10.45,11.36L10.74,11.2L11,10.98L11.26,11.2L11.55,11.36L11.88,11.46L12.23,11.5L12.73,11.5L12.92,11.42L13,11.23L13,10.77L12.92,10.58L12.73,10.5L12.23,10.5L11.95,10.44L11.71,10.29L11.56,10.05L11.5,9.767L11.5,7.233L11.56,6.948L11.71,6.715L11.95,6.558L12.23,6.5L12.73,6.5L12.92,6.422L13,6.233L13,5.767L12.92,5.578L12.73,5.5L12.23,5.5zz" fill="#404040"/>
      <path d="M3.652,6.038L3.901,6L3.842,6zM3.901,6L4.394,6.072L4.833,6.278L5.193,6.6L5.449,7.022L5.448,7.023L5.476,7.086L7.072,11L7.158,11L7.486,10.93L7.754,10.75L7.934,10.49L8,10.16L8,6.842L7.934,6.514L7.754,6.246L7.486,6.066L7.158,6L3.901,6zz" fill="#404040" opacity="0.3"/>
    </g>
    <g id="overlay">
      <path d="M0.5571,16c-0.072,0,-0.1427,-0.0138,-0.2099,-0.0412c-0.1378,-0.0559,-0.2455,-0.1622,-0.3032,-0.299c-0.0578,-0.1369,-0.0587,-0.288,-0.0026,-0.4256l3.2491,-7.8192c0.1023,-0.2508,0.344,-0.4136,0.6161,-0.4151c0.2725,0,0.5165,0.1609,0.6212,0.4099c-0.0002,-0.0005,1.9489,4.7765,1.9563,4.7949l1.2722,3.024c0.0575,0.1367,0.0582,0.2877,0.0018,0.4254c-0.0563,0.1376,-0.1627,0.245,-0.2996,0.3024c-0.0687,0.0288,-0.1412,0.0434,-0.2155,0.0434c-0.2249,0,-0.4265,-0.1337,-0.5136,-0.3407l-1.133,-2.6931H2.1688l-1.0958,2.6875C0.9872,15.864,0.7847,16,0.5571,16zM2.6277,11.8541H5.134L3.9079,8.8288L2.6277,11.8541z" id="c1" fill="#212121"/>
    </g>
  </g>
</svg>
