<?xml version="1.0" encoding="UTF-8"?>
<!DOCTYPE svg PUBLIC "-//W3C//DTD SVG 1.1//EN" "http://www.w3.org/Graphics/SVG/1.1/DTD/svg11.dtd">
<svg version="1.1" id="Layer_1" xmlns="http://www.w3.org/2000/svg" xmlns:xlink="http://www.w3.org/1999/xlink" x="0px" y="0px" width="16px" height="16px" viewBox="0 0 16 16" enable-background="new 0 0 16 16" xml:space="preserve">
  <g id="icon">
    <path d="M12.725,14.5h-9.35C2.229,14.5,1.5,13.771,1.5,12.625v-8.25C1.5,3.229,2.229,2.5,3.375,2.5h9.35C13.871,2.5,14.6,3.229,14.6,4.375v8.25C14.6,13.771,13.871,14.5,12.725,14.5z" id="b" fill="#F5F5F5"/>
    <path d="M3.3,2c-1.3807,0,-2.3,0.9193,-2.3,2.3v8.4c0,1.3807,0.9193,2.3,2.3,2.3h9.4c1.3807,0,2.3,-0.9193,2.3,-2.3V4.3c0,-1.3807,-0.9193,-2.3,-2.3,-2.3H3.3zM14,4H2v0.3c0,-0.8284,0.4716,-1.3,1.3,-1.3h9.4c0.8284,0,1.3,0.4716,1.3,1.3V4zM2,5h12v7.7c0,0.8284,-0.4716,1.3,-1.3,1.3H3.3c-0.8284,0,-1.3,-0.4716,-1.3,-1.3V5z" id="c1" fill="#404040"/>
    <path d="M11.9417,10H8.0583C7.4748,10,7,10.4748,7,11.0583v0.8833C7,12.5252,7.4748,13,8.0583,13h3.8833c0.5836,0,1.0583,-0.4748,1.0583,-1.0583v-0.8833C13,10.4748,12.5252,10,11.9417,10zM12,11.9417c0,0.0322,-0.0262,0.0583,-0.0583,0.0583H8.0583c-0.0322,0,-0.0583,-0.0262,-0.0583,-0.0583v-0.8833c0,-0.0322,0.0262,-0.0583,0.0583,-0.0583h3.8833c0.0322,0,0.0583,0.0262,0.0583,0.0583V11.9417zM5.5,12H3.5c-0.2761,0,-0.5,-0.2239,-0.5,-0.5s0.2239,-0.5,0.5,-0.5h2c0.2761,0,0.5,0.2239,0.5,0.5S5.7761,12,5.5,12z" id="c2" fill="#404040"/>
    <path d="M11.9417,6H8.0583C7.4748,6,7,6.4748,7,7.0583v0.8833C7,8.5252,7.4748,9,8.0583,9h3.8833C12.5252,9,13,8.5252,13,7.9417v-0.8833C13,6.4748,12.5252,6,11.9417,6zM12,7.9417c0,0.0322,-0.0262,0.0583,-0.0583,0.0583H8.0583C8.0262,8,8,7.9738,8,7.9417v-0.8833C8,7.0262,8.0262,7,8.0583,7h3.8833c0.0322,0,0.0583,0.0262,0.0583,0.0583V7.9417zM5.5,8H3.5c-0.2761,0,-0.5,-0.2239,-0.5,-0.5s0.2239,-0.5,0.5,-0.5h2c0.2761,0,0.5,0.2239,0.5,0.5S5.7761,8,5.5,8z" id="c2" fill="#404040"/>
  </g>
</svg>
