<?xml version="1.0" encoding="UTF-8"?>
<!DOCTYPE svg PUBLIC "-//W3C//DTD SVG 1.1//EN" "http://www.w3.org/Graphics/SVG/1.1/DTD/svg11.dtd">
<svg version="1.1" id="Layer_1" xmlns="http://www.w3.org/2000/svg" xmlns:xlink="http://www.w3.org/1999/xlink" x="0px" y="0px" width="16px" height="16px" viewBox="0 0 16 16" enable-background="new 0 0 16 16" xml:space="preserve">
  <g id="main">
    <g id="icon">
      <path d="M1.704,3.531L1.421,3.619L1.165,3.758L0.9418,3.942L0.7576,4.165L0.6186,4.421L0.5307,4.704L0.5,5.008L0.5,7.633L0.5213,7.615L1.121,7.283L1.786,7.073L2.5,7L5.5,7L6.204,7.071L6.861,7.275L7.455,7.599L7.974,8.026L8.401,8.545L8.725,9.139L8.929,9.796L9,10.5L9,13.5L12.99,13.5L13.3,13.47L13.58,13.38L13.83,13.24L14.06,13.06L14.24,12.83L14.38,12.58L14.47,12.3L14.5,11.99L14.5,5.008L14.47,4.704L14.38,4.421L14.24,4.165L14.06,3.942L13.83,3.758L13.58,3.619L13.3,3.531L12.99,3.5L2.008,3.5zz" fill="#F5F5F5"/>
      <path d="M1.604,3.041L1.227,3.158L0.8861,3.343L0.5889,3.589L0.3434,3.886L0.158,4.227L0.04082,4.604L0,5.008L0,8.054L0.5213,7.615L1,7.351L1,5.008L1.079,4.616L1.296,4.296L1.616,4.079L2.008,4L12.99,4L13.38,4.079L13.7,4.296L13.92,4.616L14,5.008L14,11.99L13.92,12.38L13.7,12.7L13.38,12.92L12.99,13L9,13L9,13.5L8.949,14L12.99,14L13.4,13.96L13.77,13.84L14.11,13.66L14.41,13.41L14.66,13.11L14.84,12.77L14.96,12.4L15,11.99L15,5.008L14.96,4.604L14.84,4.227L14.66,3.886L14.41,3.589L14.11,3.343L13.77,3.158L13.4,3.041L12.99,3L2.008,3zz" fill="#404040"/>
      <path d="M8.992,7.103L8.826,7.213L8.717,7.379L8.68,7.567L8.717,7.755L8.826,7.92L10.76,9.854L10.92,9.962L11.11,10L11.13,10L11.32,9.954L11.48,9.835L13.22,7.901L13.33,7.73L13.35,7.54L13.31,7.354L13.19,7.195L13.02,7.094L12.83,7.067L12.64,7.114L12.48,7.232L11.09,8.774L9.534,7.213L9.368,7.103L9.18,7.067zz" fill="#404040"/>
      <path d="M7,7.351L7.455,7.599L7.974,8.026L8,8.058L8,4L7,4zz" fill="#404040"/>
      <path d="M2.078,5.578L2,5.767L2,6.233L2.078,6.422L2.267,6.5L2.767,6.5L3.052,6.558L3.285,6.715L3.442,6.948L3.453,7L4.547,7L4.558,6.948L4.715,6.715L4.948,6.558L5.233,6.5L5.733,6.5L5.922,6.422L6,6.233L6,5.767L5.922,5.578L5.733,5.5L5.233,5.5L4.881,5.536L4.554,5.639L4.257,5.801L4,6.016L3.743,5.801L3.446,5.639L3.119,5.536L2.767,5.5L2.267,5.5zz" fill="#404040"/>
    </g>
    <g id="overlay">
      <path d="M5.575,15.5h-3.15C1.3619,15.5,0.5,14.6381,0.5,13.575v-3.15C0.5,9.3619,1.3619,8.5,2.425,8.5h3.15C6.6381,8.5,7.5,9.3619,7.5,10.425v3.15C7.5,14.6381,6.6381,15.5,5.575,15.5z" id="b" fill="#FFFFFF"/>
      <path d="M0,10.5c0,-1.3807,1.1193,-2.5,2.5,-2.5h3c1.3807,0,2.5,1.1193,2.5,2.5v3c0,1.3807,-1.1193,2.5,-2.5,2.5H2.5c-1.3807,0,-2.5,-1.1193,-2.5,-2.5V10.5zM3,15h2v-1H3V15zM2,14H1v-0.5c0,0.8284,0.6716,1.5,1.5,1.5h-0.5V14zM3,13h2v-2H3V13zM2,11H1v2h1V11zM3,10h2V9H3V10zM2,9h0.5c-0.8284,0,-1.5,0.6716,-1.5,1.5v-0.5h1V9zM7,11H6v2h1V11zM7,14H6v1h-0.5c0.8284,0,1.5,-0.6716,1.5,-1.5V14zM7,10v0.5c0,-0.8284,-0.6716,-1.5,-1.5,-1.5h0.5v1H7z" id="c1" fill="#0E7490"/>
    </g>
  </g>
</svg>
