<?xml version="1.0" encoding="UTF-8"?>
<!DOCTYPE svg PUBLIC "-//W3C//DTD SVG 1.1//EN" "http://www.w3.org/Graphics/SVG/1.1/DTD/svg11.dtd">
<svg version="1.1" id="Layer_1" xmlns="http://www.w3.org/2000/svg" xmlns:xlink="http://www.w3.org/1999/xlink" x="0px" y="0px" width="16px" height="16px" viewBox="0 0 16 16" enable-background="new 0 0 16 16" xml:space="preserve">
  <g id="icon">
    <path d="M13.5,3.7v8.6c0,0.6627,-0.5373,1.2,-1.2,1.2H3.7c-0.6627,0,-1.2,-0.5373,-1.2,-1.2V3.7c0,-0.6627,0.5373,-1.2,1.2,-1.2h8.6C12.9627,2.5,13.5,3.0373,13.5,3.7z" id="b" fill="#F5F5F5"/>
    <path d="M2,3.7v8.6c0,0.9374,0.7626,1.7,1.7,1.7h5.3h1h2.3c0.9374,0,1.7,-0.7626,1.7,-1.7V3.7c0,-0.9374,-0.7626,-1.7,-1.7,-1.7h-2.3H9H3.7C2.7626,2,2,2.7626,2,3.7zM12.3,3c0.386,0,0.7,0.314,0.7,0.7v8.6c0,0.386,-0.314,0.7,-0.7,0.7h-2.3V3H12.3zM9,13H3.7c-0.386,0,-0.7,-0.314,-0.7,-0.7V3.7c0,-0.386,0.314,-0.7,0.7,-0.7h5.3V13z" id="c1" fill="#0E7490"/>
    <path d="M8.2418,8.3716l-1.7711,1.7591c-0.2004,0.1964,-0.5229,0.1993,-0.7203,0c-0.1974,-0.1993,-0.2005,-0.5201,0,-0.7165L6.655,8.5l-2.4391,0c-0.244,0,-0.4661,-0.1667,-0.5077,-0.4059C3.6521,7.7712,3.8905,7.5,4.2026,7.5l2.4524,0l-0.8717,-0.8542c-0.2001,-0.1968,-0.1977,-0.5176,0,-0.7165c0.1978,-0.199,0.5202,-0.1967,0.7203,0l1.7381,1.7258C8.4579,7.87,8.4698,8.1433,8.2418,8.3716z" id="c2" fill="#0E7490"/>
  </g>
</svg>
