<?xml version="1.0" encoding="UTF-8"?>
<!DOCTYPE svg PUBLIC "-//W3C//DTD SVG 1.1//EN" "http://www.w3.org/Graphics/SVG/1.1/DTD/svg11.dtd">
<svg version="1.1" id="Layer_1" xmlns="http://www.w3.org/2000/svg" xmlns:xlink="http://www.w3.org/1999/xlink" x="0px" y="0px" width="16px" height="16px" viewBox="0 0 16 16" enable-background="new 0 0 16 16" xml:space="preserve">
  <g id="main">
    <g id="icon">
      <path d="M3.178,1.762L2.929,1.929L2.762,2.178L2.7,2.483L2.7,13.52L2.762,13.82L2.929,14.07L3.178,14.24L3.483,14.3L6.77,14.3L6.641,14.09L6.412,13.6L6.232,13.1L6.102,12.58L6.023,12.04L5.996,11.5L6.023,10.95L6.102,10.42L6.232,9.897L6.412,9.393L6.641,8.91L6.918,8.449L7.241,8.014L7.609,7.609L8.014,7.241L8.449,6.918L8.91,6.641L9.393,6.412L9.897,6.232L10.42,6.102L10.95,6.023L11.5,5.996L12.04,6.023L12.3,6.061L12.3,4.8L9.25,1.7L3.483,1.7zz" fill="#F5F5F5"/>
      <path d="M3.597,1.041L3.221,1.157L2.882,1.342L2.586,1.586L2.342,1.882L2.157,2.221L2.041,2.597L2,3L2,13L2.041,13.4L2.157,13.78L2.342,14.12L2.586,14.41L2.882,14.66L3.221,14.84L3.597,14.96L4,15L7.258,15L7.241,14.98L6.918,14.55L6.641,14.09L6.6,14L4,14L3.611,13.92L3.293,13.71L3.079,13.39L3,13L3,3L3.079,2.611L3.293,2.293L3.611,2.079L4,2L8,2L8,4.5L8.03,4.802L8.118,5.084L8.256,5.339L8.439,5.561L8.661,5.744L8.916,5.882L9.198,5.97L9.5,6L11.42,6L11.5,5.996L11.58,6L12,6L12,6.021L12.04,6.023L12.58,6.102L13,6.207L13,5.414L12.97,5.12L12.89,4.84L12.75,4.582L12.56,4.354L9.646,1.439L9.418,1.252L9.16,1.114L8.88,1.029L8.586,1L4,1zM11.79,5L9.5,5L9.305,4.961L9.146,4.854L9.039,4.695L9,4.5L9,2.207zz" fill="#404040"/>
    </g>
    <g id="overlay">
      <path d="M11.498,7.46c2.2301,0,4.038,1.8079,4.038,4.038s-1.8079,4.038,-4.038,4.038S7.46,13.7281,7.46,11.498S9.2679,7.46,11.498,7.46z" id="b" fill="#FFFFFF"/>
      <path d="M8.316,8.316c0.8513,-0.8513,1.9813,-1.32,3.182,-1.32c1.2007,0,2.3307,0.4688,3.182,1.32c0.8513,0.8513,1.32,1.9813,1.32,3.182c0,1.2007,-0.4688,2.3307,-1.32,3.182c-0.8513,0.8513,-1.9813,1.32,-3.182,1.32c-1.2007,0,-2.3307,-0.4688,-3.182,-1.32c-0.8513,-0.8513,-1.32,-1.9813,-1.32,-3.182C6.996,10.2973,7.4648,9.1673,8.316,8.316zM13.9978,13.9978c0.6688,-0.6688,1.0372,-1.5566,1.0372,-2.4998c0,-1.9502,-1.5867,-3.5369,-3.5369,-3.5369c-0.9432,0,-1.8309,0.3683,-2.4998,1.0372s-1.0372,1.5566,-1.0372,2.4998c0,1.9502,1.5867,3.5369,3.5369,3.5369C12.4412,15.0349,13.3289,14.6666,13.9978,13.9978z" id="c3" fill="#212121"/>
      <path d="M11.1489,9.087c0.0543,-0.0543,0.1212,-0.0948,0.1935,-0.1174c0.1569,-0.0489,0.3208,-0.0226,0.4497,0.0723c0.1268,0.0933,0.2025,0.2428,0.2025,0.4001l0,3.0252l0.968,-0.968c0.1516,-0.1516,0.3853,-0.1904,0.5682,-0.0944c0.1429,0.0751,0.2385,0.2073,0.2622,0.3628c0.0233,0.1529,-0.0281,0.3094,-0.1374,0.4187l-1.8185,1.8185c-0.187,0.187,-0.4912,0.187,-0.6782,0l-1.8184,-1.8184c-0.1902,-0.1902,-0.1902,-0.4998,0.0001,-0.6901c0.0362,-0.0362,0.0781,-0.0669,0.1247,-0.0914c0.1829,-0.0961,0.4166,-0.0572,0.5683,0.0944l0.968,0.968l0,-3.0209C11.0016,9.3116,11.0553,9.1806,11.1489,9.087z" id="c3" fill="#212121"/>
    </g>
  </g>
</svg>
