<?xml version="1.0" encoding="UTF-8"?>
<!DOCTYPE svg PUBLIC "-//W3C//DTD SVG 1.1//EN" "http://www.w3.org/Graphics/SVG/1.1/DTD/svg11.dtd">
<svg version="1.1" id="Layer_1" xmlns="http://www.w3.org/2000/svg" xmlns:xlink="http://www.w3.org/1999/xlink" x="0px" y="0px" width="16px" height="16px" viewBox="0 0 16 16" enable-background="new 0 0 16 16" xml:space="preserve">
  <g id="icon">
    <path d="M14.49,10.1731c0.0127,0.0454,0.0127,0.0932,0,0.1385c-0.031,0.1109,-0.1328,0.1884,-0.2477,0.1884c-0.0233,0,-0.0467,-0.0032,-0.0695,-0.0096l-1.9843,-0.5535l-0.1726,0.0866c-0.0206,0.0103,-0.0419,0.0191,-0.0627,0.0292c-0.3425,-0.3468,-0.7955,-0.5812,-1.3014,-0.6387c0.2097,-0.4195,0.3278,-0.893,0.3278,-1.3938c0,-1.7141,-1.3837,-3.1086,-3.0846,-3.1086c-0.1896,0,-0.3752,0.0173,-0.5554,0.0505l-0.0595,-0.0952c-0.2981,-0.4769,-0.7081,-0.852,-1.1833,-1.1024C6.8742,2.4128,8.332,1.5,10,1.5c2.4813,0,4.5,2.0185,4.5,4.4996c0,0.6993,-0.1649,1.3971,-0.4769,2.0181l-0.0868,0.1728L14.49,10.1731z" id="b" fill="#F5F5F5"/>
    <path d="M8.4689,4.9663c-0.0878,-0.0167,-0.1767,-0.0303,-0.2669,-0.0393c-0.175,-0.0573,-0.295,-0.1734,-0.295,-0.3758c0,-0.284,0.2311,-0.5151,0.5151,-0.5151h3.1588l0.0647,0.0047c0.2539,0.0344,0.4454,0.2539,0.4454,0.5104c0,0.284,-0.2311,0.4151,-0.5152,0.4151H8.4689zM14.4699,8.2421c0.347,-0.6906,0.5301,-1.4647,0.5301,-2.2425C15,3.2428,12.757,1,10,1c-1.8739,0,-3.5095,1.0367,-4.3655,2.5662c0.3284,0.1086,0.6348,0.2734,0.9087,0.4855C7.2253,2.8462,8.5187,2.0302,10,2.0302c2.1889,0,3.9697,1.7806,3.9697,3.9694c0,0.6769,-0.1733,1.3451,-0.501,1.9321l-0.1035,0.1852l0.484,1.7328l-1.734,-0.4837l-0.1851,0.1032c-0.1468,0.0818,-0.2986,0.154,-0.4544,0.2162c0.3338,0.1903,0.614,0.4655,0.811,0.798l1.7515,0.4885c0.0667,0.0186,0.1354,0.0281,0.2042,0.0281c0.3383,0,0.6382,-0.2278,0.7293,-0.5539c0.0372,-0.1334,0.0372,-0.2744,-0.0001,-0.4075L14.4699,8.2421zM12.0909,6.548c0,-0.2565,-0.1915,-0.4759,-0.4454,-0.5104l-0.0647,-0.0047H10.265c0.2269,0.2743,0.4078,0.5884,0.5309,0.9303h0.7799C11.8598,6.9631,12.0909,6.832,12.0909,6.548z" id="c1" fill="#404040"/>
    <path d="M7.8951,10.0288c-1.0943,0,-1.9846,-0.9011,-1.9846,-2.0086c0,-1.1076,0.8903,-2.0086,1.9846,-2.0086c1.0943,0,1.9846,0.9011,1.9846,2.0086C9.8798,9.1277,8.9895,10.0288,7.8951,10.0288zM4.225,11.627v0.3743c0,1.474,1.3606,2.9986,3.6375,2.9986S11.5,13.4754,11.5,12.0014v-0.3743c0,-0.6215,-0.4908,-1.127,-1.094,-1.127H5.319C4.7157,10.5,4.225,11.0056,4.225,11.627zM2.6856,6.5201c0,-1.1076,0.8903,-2.0086,1.9846,-2.0086c0.7056,0,1.3254,0.3752,1.6773,0.9383c-0.8602,0.5283,-1.4358,1.4828,-1.4358,2.5703c0,0.1662,0.015,0.3287,0.0408,0.4876c-0.0923,0.0135,-0.1864,0.021,-0.2823,0.021C3.5759,8.5288,2.6856,7.6277,2.6856,6.5201zM3.2261,12.0014v-0.3743c0,-1.1655,0.9281,-2.115,2.073,-2.1258c-0.0894,-0.1586,-0.1644,-0.3264,-0.2243,-0.5012H2.094C1.4907,9,1,9.5056,1,10.127v0.3743c0,1.2093,0.9168,2.4514,2.5031,2.8589C3.3216,12.9213,3.2261,12.4597,3.2261,12.0014z" id="c2" fill="#404040"/>
  </g>
</svg>
