<?xml version="1.0" encoding="UTF-8"?>
<!DOCTYPE svg PUBLIC "-//W3C//DTD SVG 1.1//EN" "http://www.w3.org/Graphics/SVG/1.1/DTD/svg11.dtd">
<svg version="1.1" id="Layer_1" xmlns="http://www.w3.org/2000/svg" xmlns:xlink="http://www.w3.org/1999/xlink" x="0px" y="0px" width="16px" height="16px" viewBox="0 0 16 16" enable-background="new 0 0 16 16" xml:space="preserve">
  <g id="icon">
    <path d="M14.0203,5.1997L11.5,7.3V5.625C11.5,4.4514,10.5486,3.5,9.375,3.5h-5.75C2.4514,3.5,1.5,4.4514,1.5,5.625v5.85C1.5,12.6486,2.4514,13.6,3.625,13.6h5.75c1.1736,0,2.125,-0.9514,2.125,-2.125V9.9l2.5203,2.1003c0.1905,0.1587,0.4797,0.0233,0.4797,-0.2247V5.4244C14.5,5.1765,14.2108,5.041,14.0203,5.1997z" id="b" fill="#F5F5F5"/>
    <path d="M2,5.5c0,-0.8284,0.6716,-1.5,1.5,-1.5h6c0.8284,0,1.5,0.6716,1.5,1.5v6c0,0.8284,-0.6716,1.5,-1.5,1.5H3.5c-0.8284,0,-1.5,-0.6716,-1.5,-1.5V5.5zM3.5,3c-1.3807,0,-2.5,1.1193,-2.5,2.5v6c0,1.3807,1.1193,2.5,2.5,2.5h6c1.3807,0,2.5,-1.1193,2.5,-2.5v-0.5006l1.7999,1.3506c0.4944,0.371,1.2001,0.0182,1.2001,-0.5999V5.255c0,-0.6175,-0.7046,-0.9704,-1.1991,-0.6006L12,6.0009V5.5c0,-1.3807,-1.1193,-2.5,-2.5,-2.5H3.5zM12,7.2496l2,-1.4955v5.4958l-2,-1.5007V7.2496z" id="c1" fill="#404040"/>
  </g>
</svg>
