<?xml version="1.0" encoding="UTF-8"?>
<!DOCTYPE svg PUBLIC "-//W3C//DTD SVG 1.1//EN" "http://www.w3.org/Graphics/SVG/1.1/DTD/svg11.dtd">
<svg version="1.1" id="Layer_1" xmlns="http://www.w3.org/2000/svg" xmlns:xlink="http://www.w3.org/1999/xlink" x="0px" y="0px" width="16px" height="16px" viewBox="0 0 16 16" enable-background="new 0 0 16 16" xml:space="preserve">
  <g id="main">
    <g id="icon">
      <path d="M7.335,1.534L6.69,1.632L6.067,1.792L5.47,2.011L4.902,2.285L4.366,2.61L3.865,2.984L3.404,3.404L2.984,3.865L2.61,4.366L2.285,4.902L2.011,5.47L1.792,6.067L1.632,6.69L1.534,7.335L1.5,8L1.534,8.665L1.632,9.31L1.792,9.933L2.011,10.53L2.285,11.1L2.61,11.63L2.984,12.13L3.404,12.6L3.865,13.02L4.366,13.39L4.902,13.72L5.47,13.99L6.067,14.21L6.19,14.24L6.267,14.06L9.748,7.998L10.07,7.578L10.49,7.264L10.97,7.068L11.5,7L12.03,7.068L12.51,7.263L12.93,7.574L13.25,7.991L14.26,9.745L14.37,9.31L14.47,8.665L14.5,8L14.47,7.335L14.37,6.69L14.21,6.067L13.99,5.47L13.72,4.902L13.39,4.366L13.02,3.865L12.6,3.404L12.13,2.984L11.63,2.61L11.1,2.285L10.53,2.011L9.933,1.792L9.31,1.632L8.665,1.534L8,1.5zz" fill="#F5F5F5"/>
      <path d="M7.285,1.036L6.591,1.142L5.921,1.315L5.278,1.551L4.666,1.846L4.089,2.197L3.55,2.6L3.053,3.053L2.6,3.55L2.197,4.089L1.846,4.666L1.551,5.278L1.315,5.921L1.142,6.591L1.036,7.285L1,8L1.036,8.715L1.142,9.409L1.315,10.08L1.551,10.72L1.846,11.33L2.197,11.91L2.6,12.45L3.053,12.95L3.55,13.4L4.089,13.8L4.666,14.15L5.278,14.45L5.921,14.68L6.044,14.72L6.069,14.53L6.267,14.06L6.454,13.73L6.236,13.67L5.69,13.47L5.171,13.22L4.681,12.92L4.224,12.58L3.802,12.2L3.418,11.78L3.076,11.32L2.778,10.83L2.527,10.31L2.327,9.764L2.181,9.196L2.09,8.606L2.06,8L2.09,7.394L2.181,6.804L2.327,6.236L2.527,5.69L2.778,5.171L3.076,4.681L3.418,4.224L3.802,3.802L4.224,3.418L4.681,3.076L5.171,2.778L5.69,2.527L6.236,2.327L6.804,2.181L7.394,2.09L8,2.06L8.606,2.09L9.196,2.181L9.764,2.327L10.31,2.527L10.83,2.778L11.32,3.076L11.78,3.418L12.2,3.802L12.58,4.224L12.92,4.681L13.22,5.171L13.47,5.69L13.67,6.236L13.82,6.804L13.91,7.394L13.94,8L13.91,8.606L13.84,9.029L14.59,10.33L14.68,10.08L14.86,9.409L14.96,8.715L15,8L14.96,7.285L14.86,6.591L14.68,5.921L14.45,5.278L14.15,4.666L13.8,4.089L13.4,3.55L12.95,3.053L12.45,2.6L11.91,2.197L11.33,1.846L10.72,1.551L10.08,1.315L9.409,1.142L8.715,1.036L8,1zz" fill="#059669"/>
      <path d="M10.43,5.763L10.25,5.879L7.125,9.007L5.746,7.629L5.687,7.578L5.52,7.496L5.338,7.476L5.16,7.521L5.004,7.629L4.888,7.803L4.85,8L4.888,8.198L5.004,8.371L6.754,10.12L6.813,10.17L6.98,10.25L7.162,10.27L7.34,10.23L7.496,10.12L11,6.621L11.05,6.562L11.13,6.395L11.15,6.213L11.1,6.035L11,5.879L10.82,5.763L10.62,5.725zz" fill="#059669"/>
    </g>
    <g id="overlay">
      <path d="M11.0149,8.8572L7.8374,14.742c-0.1874,0.3471,0.0763,0.7606,0.4851,0.7606h6.355c0.4088,0,0.6726,-0.4135,0.4851,-0.7606l-3.1775,-5.8848C11.7818,8.4806,11.2182,8.4806,11.0149,8.8572z" id="b" fill="#FFFFFF"/>
      <path d="M8.0149,16c-0.3635,0,-0.6904,-0.1788,-0.8743,-0.4783c-0.1837,-0.2993,-0.1876,-0.6587,-0.0104,-0.9614l3.4854,-6.0637c0.1822,-0.3113,0.5129,-0.4967,0.8852,-0.4967c0.3724,0,0.7032,0.1854,0.8849,0.4959l3.4847,6.0655c0.1766,0.3019,0.1727,0.6613,-0.0111,0.9604c-0.1839,0.2994,-0.5107,0.4783,-0.8742,0.4783H8.0149zM11.5007,8.8655c-0.0396,0,-0.0734,0.019,-0.0928,0.0522l-3.4854,6.0637c-0.0196,0.0335,-0.0192,0.0707,0.0006,0.1029c0.0197,0.032,0.0531,0.0504,0.0917,0.0504h6.9701c0.0386,0,0.072,-0.0183,0.0916,-0.0503c0.0198,-0.0323,0.0202,-0.0695,0.0011,-0.1021l-3.4847,-6.0654C11.5742,8.8845,11.5403,8.8655,11.5007,8.8655zM11.501,14.574c-0.353,0,-0.6402,-0.2741,-0.6402,-0.6111c0,-0.3369,0.2872,-0.611,0.6402,-0.611c0.353,0,0.6402,0.2741,0.6402,0.611C12.1412,14.2999,11.854,14.574,11.501,14.574zM11.501,12.7302c-0.2501,0,-0.4535,-0.1941,-0.4535,-0.4327v-1.4228c0,-0.2386,0.2035,-0.4327,0.4535,-0.4327c0.2501,0,0.4535,0.1941,0.4535,0.4327v1.4228C11.9545,12.5361,11.7511,12.7302,11.501,12.7302z" id="c1" fill="#212121"/>
    </g>
  </g>
</svg>
