<?xml version="1.0" encoding="UTF-8"?>
<!DOCTYPE svg PUBLIC "-//W3C//DTD SVG 1.1//EN" "http://www.w3.org/Graphics/SVG/1.1/DTD/svg11.dtd">
<svg version="1.1" id="Layer_1" xmlns="http://www.w3.org/2000/svg" xmlns:xlink="http://www.w3.org/1999/xlink" x="0px" y="0px" width="16px" height="16px" viewBox="0 0 16 16" enable-background="new 0 0 16 16" xml:space="preserve">
  <g id="icon">
    <path d="M11.5083,14.5H4.3917c-0.4925,0,-0.8917,-0.3992,-0.8917,-0.8917V7.4917C3.5,6.9992,3.8992,6.6,4.3917,6.6h7.1167c0.4925,0,0.8917,0.3992,0.8917,0.8917v6.1167C12.4,14.1008,12.0008,14.5,11.5083,14.5z" id="b" fill="#F5F5F5"/>
    <circle cx="8" cy="10.525" r="1" id="c2" fill="#0891b2"/>
    <path d="M11.5,6h-0.5h-1h-0.5H8H6.5h-0.5V4.0491c0,-1.083,0.8405,-2.0067,1.9228,-2.0477c0.9972,-0.0377,1.842,0.659,2.0356,1.5914c0.0488,0.2353,0.2506,0.4072,0.4908,0.4072h0c0.3172,0,0.5537,-0.2916,0.4901,-0.6023c-0.2855,-1.395,-1.5422,-2.4405,-3.0301,-2.3963C6.2775,1.0498,5,2.4314,5,4.0638V6h-0.5c-0.8284,0,-1.5,0.6716,-1.5,1.5v6c0,0.8284,0.6716,1.5,1.5,1.5h7c0.8284,0,1.5,-0.6716,1.5,-1.5V7.5C13,6.6716,12.3284,6,11.5,6zM12,13.5c0,0.2761,-0.2239,0.5,-0.5,0.5H4.5c-0.2761,0,-0.5,-0.2239,-0.5,-0.5V7.5c0,-0.2761,0.2239,-0.5,0.5,-0.5h1h5h1c0.2761,0,0.5,0.2239,0.5,0.5V13.5z" fill="#0891b2"/>
  </g>
</svg>
