<?xml version="1.0" encoding="UTF-8"?>
<!DOCTYPE svg PUBLIC "-//W3C//DTD SVG 1.1//EN" "http://www.w3.org/Graphics/SVG/1.1/DTD/svg11.dtd">
<svg version="1.1" id="Layer_1" xmlns="http://www.w3.org/2000/svg" xmlns:xlink="http://www.w3.org/1999/xlink" x="0px" y="0px" width="16px" height="16px" viewBox="0 0 16 16" enable-background="new 0 0 16 16" xml:space="preserve">
  <g id="main">
    <g id="icon">
      <path d="M7.668,1.929L6.602,2.731L6.047,3.058L5.479,3.333L4.897,3.558L4.303,3.732L3.697,3.855L3.079,3.927L2.612,3.961L2.612,7.41L2.697,8.668L2.951,9.82L3.373,10.86L3.647,11.34L3.963,11.79L4.694,12.58L5.585,13.28L6.517,13.8L6.368,13.48L6.167,12.85L6.043,12.19L6,11.5L6.029,10.94L6.112,10.39L6.248,9.866L6.433,9.361L6.665,8.88L6.941,8.427L7.257,8.004L7.613,7.613L8.004,7.257L8.427,6.941L8.88,6.665L9.361,6.433L9.866,6.248L10.39,6.112L10.94,6.029L11.5,6L12.19,6.043L12.85,6.167L13.39,6.34L13.39,3.961L12.92,3.927L12.3,3.855L11.7,3.732L11.1,3.558L10.52,3.333L9.952,3.058L9.398,2.732L8.334,1.929L8.001,1.639zz" fill="#F5F5F5"/>
      <path d="M7.807,1.037L7.643,1.144L7.058,1.669L6.458,2.122L5.844,2.505L5.213,2.816L4.565,3.058L3.898,3.23L3.212,3.333L2.506,3.367L2.309,3.406L2.148,3.511L2.04,3.667L2,3.857L2,7.41L2.092,8.765L2.207,9.4L2.368,10.01L2.574,10.58L2.826,11.13L3.124,11.65L3.467,12.14L3.855,12.59L4.289,13.02L4.768,13.42L5.293,13.79L6.477,14.44L6.993,14.65L6.98,14.63L6.641,14.07L6.368,13.48L6.284,13.21L5.818,12.95L4.971,12.29L4.279,11.55L3.726,10.67L3.33,9.69L3.091,8.601L3.012,7.41L3.012,4.333L3.108,4.326L3.759,4.251L4.397,4.121L5.022,3.939L5.633,3.703L6.23,3.414L6.812,3.072L7.379,2.677L7.931,2.23L8.001,2.17L8.071,2.231L8.621,2.678L9.188,3.072L9.769,3.414L10.37,3.703L10.98,3.939L11.6,4.121L12.24,4.251L12.89,4.326L12.99,4.333L12.99,6.212L13.48,6.368L14,6.607L14,3.858L13.96,3.667L13.85,3.511L13.69,3.406L13.49,3.367L12.79,3.333L12.1,3.23L11.43,3.058L10.79,2.817L10.16,2.505L9.542,2.122L8.943,1.669L8.359,1.144L8.195,1.037L8.001,1zz" fill="#737373"/>
    </g>
    <g id="overlay">
      <circle cx="11.5" cy="11.5" r="4" id="b" fill="#FFFFFF"/>
      <path d="M11.5,7c-2.4853,0,-4.5,2.0147,-4.5,4.5c0,2.4853,2.0147,4.5,4.5,4.5c2.4853,0,4.5,-2.0147,4.5,-4.5C16,9.0147,13.9853,7,11.5,7zM11.5,15c-1.933,0,-3.5,-1.567,-3.5,-3.5s1.567,-3.5,3.5,-3.5s3.5,1.567,3.5,3.5S13.433,15,11.5,15z" id="c3" fill="#737373"/>
      <path d="M13.5,12H9.5c-0.2761,0,-0.5,-0.2239,-0.5,-0.5v0c0,-0.2761,0.2239,-0.5,0.5,-0.5h4c0.2761,0,0.5,0.2239,0.5,0.5v0C14,11.7761,13.7761,12,13.5,12z" id="c3" fill="#737373"/>
    </g>
  </g>
</svg>
