<?xml version="1.0" encoding="UTF-8"?>
<!DOCTYPE svg PUBLIC "-//W3C//DTD SVG 1.1//EN" "http://www.w3.org/Graphics/SVG/1.1/DTD/svg11.dtd">
<svg version="1.1" id="Layer_1" xmlns="http://www.w3.org/2000/svg" xmlns:xlink="http://www.w3.org/1999/xlink" x="0px" y="0px" width="16px" height="16px" viewBox="0 0 16 16" enable-background="new 0 0 16 16" xml:space="preserve">
  <g id="icon">
    <path d="M14.6,3.575v6.85c0,1.146,-0.929,2.075,-2.075,2.075H10V6.8c0,-0.4359,-0.1891,-0.8494,-0.5188,-1.1345c-0.2726,-0.2357,-0.6209,-0.3656,-0.9809,-0.3656c-0.0729,0,-0.1464,0.0054,-0.2167,0.0158L3.5,6.0126V3.575C3.5,2.429,4.429,1.5,5.575,1.5h6.95C13.671,1.5,14.6,2.429,14.6,3.575z" id="b" fill="#F5F5F5"/>
    <path d="M12.5,1H5.5c-1.3807,0,-2.5,1.1193,-2.5,2.5v2.5855l1,-0.1457V5h10v5.5c0,0.8284,-0.6716,1.5,-1.5,1.5h-2.5v1h2.5c1.3807,0,2.5,-1.1193,2.5,-2.5V3.5C15,2.1193,13.8807,1,12.5,1zM14,4H4v-0.5c0,-0.8284,0.6716,-1.5,1.5,-1.5h7c0.8284,0,1.5,0.6716,1.5,1.5V4z" id="c1" fill="#404040"/>
    <path d="M13,3.5h-1V2.5h1V3.5zM11,2.5h-1v1h1V2.5zM9,2.5H8v1h1V2.5z" id="c2" fill="#404040"/>
    <path d="M8.5,14.3l-7,-1.0198V7.8198L8.5,6.8V14.3z" id="b" fill="#F5F5F5"/>
    <path d="M8.5,14.8c-0.024,0,-0.048,-0.0017,-0.0721,-0.0052l-7,-1.0198c-0.2457,-0.0358,-0.4279,-0.2465,-0.4279,-0.4948V7.8198c0,-0.2483,0.1822,-0.459,0.4279,-0.4948l7,-1.0198c0.1436,-0.0212,0.2893,0.0216,0.3992,0.1166C8.9369,6.5168,9,6.6548,9,6.8v7.5c0,0.1452,-0.0631,0.2832,-0.1729,0.3782C8.7356,14.7573,8.6193,14.8,8.5,14.8zM5,13.2848l3,0.4371V11H5V13.2848zM2,12.8478l2,0.2914V11H2V12.8478zM5,10h3V7.3781l-3,0.4371V10zM2,10h2V7.9609l-2,0.2914V10z" id="c2" fill="#404040"/>
  </g>
</svg>
