<?xml version="1.0" encoding="UTF-8"?>
<!DOCTYPE svg PUBLIC "-//W3C//DTD SVG 1.1//EN" "http://www.w3.org/Graphics/SVG/1.1/DTD/svg11.dtd">
<svg version="1.1" id="Layer_1" xmlns="http://www.w3.org/2000/svg" xmlns:xlink="http://www.w3.org/1999/xlink" x="0px" y="0px" width="16px" height="16px" viewBox="0 0 16 16" enable-background="new 0 0 16 16" xml:space="preserve">
  <g id="icon">
    <path d="M7.2259,2.3006l-5.0705,9.8289C1.8563,12.7093,2.2772,13.4,2.9295,13.4h10.1409c0.6524,0,1.0732,-0.6907,0.7741,-1.2704L8.7741,2.3006C8.4497,1.6717,7.5503,1.6717,7.2259,2.3006z" id="b" fill="#F5F5F5"/>
    <path d="M2.4386,14c-0.4969,0,-0.9437,-0.2559,-1.1952,-0.6845c-0.2514,-0.4286,-0.2568,-0.9434,-0.0143,-1.3772L6.7917,1.8091c0.2484,-0.4442,0.7005,-0.7095,1.2094,-0.7095c0.5091,0,0.9613,0.2653,1.2096,0.7097l5.5599,10.1292c0.2424,0.4337,0.237,0.9485,-0.0145,1.377c-0.2515,0.4286,-0.6982,0.6845,-1.1951,0.6845H2.4386zM8.0012,2.0838c-0.1475,0,-0.2785,0.0768,-0.3505,0.2056L2.0881,12.4186c-0.0703,0.1256,-0.0687,0.2747,0.0042,0.3989c0.0728,0.1243,0.2023,0.1984,0.3464,0.1984h11.1225c0.1439,0,0.2734,-0.0742,0.3463,-0.1983c0.0728,-0.1242,0.0744,-0.2733,0.0042,-0.399L8.3517,2.2894C8.2797,2.1607,8.1487,2.0838,8.0012,2.0838zM8.0016,11.6184c-0.4355,0,-0.7899,-0.3544,-0.7899,-0.79c0,-0.4355,0.3544,-0.7899,0.7899,-0.7899s0.7899,0.3544,0.7899,0.7899C8.7915,11.264,8.4371,11.6184,8.0016,11.6184zM8.0016,9.0398c-0.2713,0,-0.492,-0.2207,-0.492,-0.492V5.1691c0,-0.2713,0.2207,-0.492,0.492,-0.492c0.2713,0,0.4921,0.2207,0.4921,0.492v3.3786C8.4937,8.819,8.2729,9.0398,8.0016,9.0398z" id="c1" fill="#0E7490"/>
  </g>
</svg>
