<?xml version="1.0" encoding="UTF-8"?>
<!DOCTYPE svg PUBLIC "-//W3C//DTD SVG 1.1//EN" "http://www.w3.org/Graphics/SVG/1.1/DTD/svg11.dtd">
<svg version="1.1" id="Layer_1" xmlns="http://www.w3.org/2000/svg" xmlns:xlink="http://www.w3.org/1999/xlink" x="0px" y="0px" width="16px" height="16px" viewBox="0 0 16 16" enable-background="new 0 0 16 16" xml:space="preserve">
  <g id="icon">
    <path d="M3.0826,11.7c-0.5629,0,-1.0807,-0.2573,-1.4204,-0.7058c-0.3394,-0.448,-0.4466,-1.0152,-0.2944,-1.5561l1.66,-5.8984C3.2332,2.8098,3.9066,2.3,4.6655,2.3h6.669c0.7588,0,1.4323,0.5098,1.6378,1.2398l1.6599,5.8983c0.1522,0.5409,0.0449,1.1081,-0.2944,1.5562c-0.3397,0.4485,-0.8575,0.7058,-1.4204,0.7058H3.0826z" id="b" fill="#F5F5F5"/>
    <path d="M4.6655,2c-0.8966,0,-1.6838,0.5959,-1.9265,1.4585l-1.66,5.8983C0.7056,10.6837,1.7034,12,3.0826,12h9.8348c1.3793,0,2.377,-1.3163,2.0036,-2.6432l-1.6599,-5.8983C13.0183,2.5959,12.2311,2,11.3345,2H4.6655zM3.7022,3.7292C3.8236,3.298,4.2172,3,4.6655,3h6.669c0.4483,0,0.8419,0.298,0.9633,0.7292l1.66,5.8983c0.1939,0.6889,-0.3242,1.3724,-1.0404,1.3724H3.0826c-0.7161,0,-1.2342,-0.6835,-1.0403,-1.3724L3.7022,3.7292zM4.4974,13c-0.2763,0,-0.5003,0.2239,-0.5003,0.5s0.224,0.5,0.5003,0.5h7.0045c0.2763,0,0.5003,-0.2239,0.5003,-0.5s-0.224,-0.5,-0.5003,-0.5H4.4974z" fill="#404040"/>
  </g>
</svg>
