<?xml version="1.0" encoding="UTF-8"?>
<!DOCTYPE svg PUBLIC "-//W3C//DTD SVG 1.1//EN" "http://www.w3.org/Graphics/SVG/1.1/DTD/svg11.dtd">
<svg version="1.1" id="Layer_1" xmlns="http://www.w3.org/2000/svg" xmlns:xlink="http://www.w3.org/1999/xlink" x="0px" y="0px" width="16px" height="16px" viewBox="0 0 16 16" enable-background="new 0 0 16 16" xml:space="preserve">
  <g id="main">
    <g id="icon">
      <path d="M2.965,2.534L2.599,2.632L2.278,2.791L2.008,3.008L1.791,3.278L1.632,3.599L1.534,3.965L1.5,4.375L1.5,12.62L1.534,13.03L1.632,13.4L1.791,13.72L2.008,13.99L2.278,14.21L2.599,14.37L2.965,14.47L3.375,14.5L6.149,14.5L6.296,14.31L8.085,12.52L7.904,12.05L7.775,11.57L7.696,11.07L7.67,10.57L7.767,9.606L8.045,8.712L8.485,7.903L9.067,7.197L9.772,6.615L10.58,6.175L11.48,5.897L12.43,5.8L12.96,5.829L13.47,5.913L13.96,6.049L14.42,6.235L14.6,6.329L14.6,4.375L14.57,3.965L14.47,3.599L14.31,3.278L14.09,3.008L13.82,2.791L13.5,2.632L13.13,2.534L12.72,2.5L3.375,2.5zz" fill="#F5F5F5"/>
      <path d="M2.805,2.042L2.358,2.165L1.965,2.364L1.632,2.632L1.364,2.965L1.165,3.358L1.042,3.805L1,4.3L1,12.7L1.042,13.2L1.165,13.64L1.364,14.03L1.632,14.37L1.965,14.64L2.358,14.83L2.805,14.96L3.3,15L5.889,15L6.012,14.68L6.296,14.31L6.601,14L3.3,14L2.747,13.91L2.525,13.81L2.339,13.66L2.193,13.48L2.087,13.25L2,12.7L2,5L14,5L14,6.067L14.42,6.235L14.86,6.466L15,6.559L15,4.3L14.96,3.805L14.83,3.358L14.64,2.965L14.37,2.632L14.03,2.364L13.64,2.165L13.2,2.042L12.7,2L3.3,2zM12.7,3L13.25,3.087L13.48,3.193L13.66,3.339L13.81,3.525L13.91,3.747L13.95,4L2.047,4L2.087,3.747L2.193,3.525L2.339,3.339L2.525,3.193L2.747,3.087L3.3,3zz" fill="#404040"/>
      <path d="M3.305,7.039L3.146,7.146L3.039,7.305L3,7.5L3.039,7.695L3.146,7.854L3.305,7.961L3.5,8L4.5,8L4.695,7.961L4.854,7.854L4.961,7.695L5,7.5L4.961,7.305L4.854,7.146L4.695,7.039L4.5,7L3.5,7zM6.305,7.039L6.146,7.146L6.039,7.305L6,7.5L6.039,7.695L6.146,7.854L6.305,7.961L6.5,8L8.432,8L8.485,7.903L9.067,7.197L9.306,7L6.5,7zM3.305,9.039L3.146,9.146L3.039,9.305L3,9.5L3.039,9.695L3.146,9.854L3.305,9.961L3.5,10L4.5,10L4.695,9.961L4.854,9.854L4.961,9.695L5,9.5L4.961,9.305L4.854,9.146L4.695,9.039L4.5,9L3.5,9zM6.305,9.039L6.146,9.146L6.039,9.305L6,9.5L6.039,9.695L6.146,9.854L6.305,9.961L6.5,10L7.727,10L7.767,9.606L7.955,9L6.5,9zM3.305,11.04L3.146,11.15L3.039,11.31L3,11.5L3.039,11.69L3.146,11.85L3.305,11.96L3.5,12L4.5,12L4.695,11.96L4.854,11.85L4.961,11.69L5,11.5L4.961,11.31L4.854,11.15L4.695,11.04L4.5,11L3.5,11zM6.305,11.04L6.146,11.15L6.039,11.31L6,11.5L6.039,11.69L6.146,11.85L6.305,11.96L6.5,12L7.891,12L7.775,11.57L7.696,11.07L7.692,11L6.5,11zz" fill="#404040"/>
    </g>
    <g id="overlay">
      <circle cx="12.4261" cy="10.5738" r="3.0873" id="b" fill="#FFFFFF"/>
      <path d="M7.4955,16c-0.1324,0,-0.2569,-0.0515,-0.3505,-0.1451c-0.1932,-0.1933,-0.1933,-0.5079,-0.0001,-0.7012l2.4427,-2.4426c-0.4698,-0.6213,-0.7179,-1.3627,-0.7179,-2.146C8.8696,8.5993,10.469,7,12.4348,7S16,8.5993,16,10.5651s-1.5993,3.5651,-3.5652,3.5651c-0.7834,0,-1.5249,-0.2481,-2.1461,-0.7179l-2.4426,2.4425C7.7524,15.9485,7.6279,16,7.4955,16zM12.4348,7.9915c-1.4192,0,-2.5737,1.1545,-2.5737,2.5736c0,1.4191,1.1546,2.5736,2.5737,2.5736c1.4191,0,2.5737,-1.1545,2.5737,-2.5736C15.0085,9.146,13.8539,7.9915,12.4348,7.9915z" id="c1" fill="#404040"/>
    </g>
  </g>
</svg>
