<?xml version="1.0" encoding="UTF-8"?>
<!DOCTYPE svg PUBLIC "-//W3C//DTD SVG 1.1//EN" "http://www.w3.org/Graphics/SVG/1.1/DTD/svg11.dtd">
<svg version="1.1" id="Layer_1" xmlns="http://www.w3.org/2000/svg" xmlns:xlink="http://www.w3.org/1999/xlink" x="0px" y="0px" width="16px" height="16px" viewBox="0 0 16 16" enable-background="new 0 0 16 16" xml:space="preserve">
  <g id="icon">
    <path d="M13,3h-3v3h3V3zM6,10H3v3h3V10zM13,10h-3v3h3V10zM6,3H3v3h3V3z" id="b" fill="#737373"/>
    <path d="M13.5,2H9.5c-0.2761,0,-0.5,0.2239,-0.5,0.5v4c0,0.2761,0.2239,0.5,0.5,0.5h4c0.2761,0,0.5,-0.2239,0.5,-0.5V2.5C14,2.2239,13.7761,2,13.5,2zM13,6h-3V3h3V6zM6.5,9H2.5c-0.2761,0,-0.5,0.2239,-0.5,0.5v4c0,0.2761,0.2239,0.5,0.5,0.5h4c0.2761,0,0.5,-0.2239,0.5,-0.5V9.5C7,9.2239,6.7761,9,6.5,9zM6,13H3v-3h3V13zM14,13.5V9.5c0,-0.2761,-0.2239,-0.5,-0.5,-0.5H9.5c-0.2761,0,-0.5,0.2239,-0.5,0.5v4c0,0.2761,0.2239,0.5,0.5,0.5h4C13.7761,14,14,13.7761,14,13.5zM13,13h-3v-3h3V13zM7,6.5V2.5c0,-0.2761,-0.2239,-0.5,-0.5,-0.5H2.5c-0.2761,0,-0.5,0.2239,-0.5,0.5v4c0,0.2761,0.2239,0.5,0.5,0.5h4C6.7761,7,7,6.7761,7,6.5zM6,6H3V3h3V6z" id="c1" fill="#404040"/>
  </g>
</svg>
