<?xml version="1.0" encoding="UTF-8"?>
<!DOCTYPE svg PUBLIC "-//W3C//DTD SVG 1.1//EN" "http://www.w3.org/Graphics/SVG/1.1/DTD/svg11.dtd">
<svg version="1.1" id="Layer_1" xmlns="http://www.w3.org/2000/svg" xmlns:xlink="http://www.w3.org/1999/xlink" x="0px" y="0px" width="16px" height="16px" viewBox="0 0 16 16" enable-background="new 0 0 16 16" xml:space="preserve">
  <g id="icon">
    <path d="M4.75,13.9394c-0.0507,0,-0.102,-0.0051,-0.1524,-0.0152c-0.3462,-0.0693,-0.5976,-0.3863,-0.5976,-0.7536V4.5978l-1.4,1.4c-0.082,0.082,-0.1797,0.1491,-0.2904,0.1837c-0.3933,0.1232,-0.793,-0.0632,-0.9522,-0.4577c-0.1077,-0.2671,-0.0308,-0.574,0.1728,-0.7776l2.7104,-2.7104c0.1417,-0.1417,0.33,-0.2197,0.5303,-0.2197s0.3887,0.078,0.5303,0.2197l2.7104,2.7104c0.2037,0.2037,0.2806,0.5105,0.1728,0.7776c-0.1591,0.3945,-0.5588,0.5809,-0.9522,0.4577c-0.1106,-0.0347,-0.2082,-0.1016,-0.2902,-0.1835C6.6052,5.6609,5.5,4.5558,5.5,4.5558v8.6336C5.5,13.603,5.1636,13.9394,4.75,13.9394zM11.229,13.9839c-0.2003,0,-0.3887,-0.078,-0.5303,-0.2197l-2.7499,-2.75c-0.1449,-0.1449,-0.2201,-0.3402,-0.2062,-0.5357c0.0139,-0.1956,0.1159,-0.3783,0.2798,-0.5012c0.1382,-0.1036,0.3142,-0.1607,0.4957,-0.1607c0.2251,0,0.4411,0.0868,0.5923,0.238L10.5,11.4442V2.7894c0,-0.4136,0.3364,-0.75,0.75,-0.75c0.0507,0,0.102,0.0051,0.1524,0.0152c0.3462,0.0693,0.5976,0.3863,0.5976,0.7536v8.594l1.4,-1.4c0.082,-0.082,0.1797,-0.1491,0.2904,-0.1837c0.3933,-0.1232,0.793,0.0632,0.9522,0.4577c0.1077,0.2671,0.0308,0.574,-0.1728,0.7776l-2.7104,2.7104C11.6177,13.906,11.4293,13.9839,11.229,13.9839z" fill="#404040"/>
  </g>
</svg>
