<?xml version="1.0" encoding="UTF-8"?>
<!DOCTYPE svg PUBLIC "-//W3C//DTD SVG 1.1//EN" "http://www.w3.org/Graphics/SVG/1.1/DTD/svg11.dtd">
<svg version="1.1" id="Layer_1" xmlns="http://www.w3.org/2000/svg" xmlns:xlink="http://www.w3.org/1999/xlink" x="0px" y="0px" width="16px" height="16px" viewBox="0 0 16 16" enable-background="new 0 0 16 16" xml:space="preserve">
  <g id="icon">
    <path d="M2.5005,8.6c-0.2734,0,-0.4964,-0.2202,-0.5,-0.4936C2.0002,8.0784,2,8.0519,2,8.0276c0,-3.2932,2.6792,-5.9723,5.9724,-5.9723c1.7438,0,3.3987,0.7678,4.5276,2.0776V2c0,-0.2923,0.2509,-0.5261,0.5492,-0.4976c0.26,0.0248,0.4508,0.258,0.4508,0.5192v3.4777c0.0003,0.2284,-0.1525,0.4212,-0.3616,0.4813c-0.0003,0.0001,-0.0005,0.0002,-0.0008,0.0002c-0.0002,0,-0.0006,0.0001,-0.0007,0.0002c-0.0003,0,-0.0006,0,-0.0007,0.0002c-0.0004,0,-0.0005,0.0001,-0.0008,0.0002c-0.0367,0.0103,-0.075,0.0165,-0.1145,0.0181c-0.0003,0,-0.0005,0,-0.0008,0c-0.0003,-0.0001,-0.0005,-0.0001,-0.0008,0c-0.0002,0,-0.0002,-0.0001,-0.0008,0c-0.0003,0,-0.0006,0.0002,-0.0008,0c-0.0057,0.0002,-0.0113,0.0003,-0.017,0.0003l-3.486,0.0051c-0.0002,0,-0.0005,0,-0.0007,0c-0.2921,0,-0.5258,-0.2504,-0.4977,-0.5486c0.0245,-0.2599,0.2574,-0.4511,0.5184,-0.4515l2.3835,-0.0035c-0.9391,-1.222,-2.4006,-1.9463,-3.9458,-1.9463C5.2306,3.0553,3,5.2859,3,8.0276c0,0.0202,0.0001,0.0419,0.0004,0.0648C3.0036,8.3714,2.7795,8.6,2.5005,8.6L2.5005,8.6zM13.4995,7.5c-0.279,0,-0.5031,0.2286,-0.4999,0.5075c0.0003,0.0229,0.0004,0.0447,0.0004,0.0648c0,2.7417,-2.2306,4.9723,-4.9724,4.9723c-1.5452,0,-3.0068,-0.7243,-3.9458,-1.9463l2.3835,-0.0035c0.2611,-0.0004,0.4939,-0.1915,0.5184,-0.4515c0.0281,-0.2981,-0.2056,-0.5486,-0.4977,-0.5486c-0.0002,0,-0.0005,0,-0.0007,0L2.9993,10.1c-0.0057,0,-0.0113,0.0001,-0.017,0.0003c-0.0002,-0.0001,-0.0005,0,-0.0008,0c-0.0005,0.0001,-0.0006,0,-0.0008,0c-0.0003,0.0002,-0.0005,0.0001,-0.0008,0c-0.0003,0,-0.0005,0,-0.0008,0c-0.0395,0.0016,-0.0778,0.0078,-0.1145,0.0181c-0.0003,0,-0.0004,0.0002,-0.0008,0.0002c-0.0001,0.0002,-0.0004,0.0002,-0.0007,0.0002c-0.0001,0.0001,-0.0005,0.0002,-0.0007,0.0002c-0.0002,0,-0.0005,0.0001,-0.0008,0.0002c-0.2091,0.0601,-0.362,0.253,-0.3616,0.4813l0,3.4777c0,0.2611,0.1909,0.4944,0.4508,0.5192C3.2491,14.6261,3.5,14.3923,3.5,14.1v-2.1329c1.129,1.3098,2.7839,2.0776,4.5276,2.0776c3.2932,0,5.9724,-2.6791,5.9724,-5.9723c0,-0.0242,-0.0002,-0.0507,-0.0006,-0.0788C13.9959,7.7202,13.7729,7.5,13.4995,7.5L13.4995,7.5z" fill="#0891b2"/>
  </g>
</svg>
