<?xml version="1.0" encoding="UTF-8"?>
<!DOCTYPE svg PUBLIC "-//W3C//DTD SVG 1.1//EN" "http://www.w3.org/Graphics/SVG/1.1/DTD/svg11.dtd">
<svg version="1.1" id="Layer_1" xmlns="http://www.w3.org/2000/svg" xmlns:xlink="http://www.w3.org/1999/xlink" x="0px" y="0px" width="16px" height="16px" viewBox="0 0 16 16" enable-background="new 0 0 16 16" xml:space="preserve">
  <g id="main">
    <g id="icon">
      <path d="M7.335,1.534L6.69,1.632L6.067,1.792L5.47,2.011L4.902,2.285L4.366,2.61L3.865,2.984L3.404,3.404L2.984,3.865L2.61,4.366L2.285,4.902L2.011,5.47L1.792,6.067L1.632,6.69L1.534,7.335L1.5,8L1.534,8.665L1.632,9.31L1.792,9.933L2.011,10.53L2.285,11.1L2.61,11.63L2.984,12.13L3.404,12.6L3.865,13.02L4.366,13.39L4.902,13.72L5.47,13.99L6.067,14.21L6.508,14.32L7.582,13.25L6.705,12.37L6.515,12.13L6.396,11.85L6.351,11.55L6.383,11.24L6.492,10.95L6.666,10.71L6.897,10.51L7.176,10.38L9.077,9.743L10.51,7.054L10.83,6.615L11.24,6.283L11.73,6.073L12.27,6L12.66,6.038L13.03,6.151L13.38,6.335L13.68,6.585L14.47,7.376L14.47,7.335L14.37,6.69L14.21,6.067L13.99,5.47L13.72,4.902L13.39,4.366L13.02,3.865L12.6,3.404L12.13,2.984L11.63,2.61L11.1,2.285L10.53,2.011L9.933,1.792L9.31,1.632L8.665,1.534L8,1.5zz" id="b" fill="#FFFFFF"/>
      <path d="M7.285,1.036L6.591,1.142L5.921,1.315L5.278,1.551L4.666,1.846L4.089,2.197L3.55,2.6L3.053,3.053L2.6,3.55L2.197,4.089L1.846,4.666L1.551,5.278L1.315,5.921L1.142,6.591L1.036,7.285L1,8L1.036,8.715L1.142,9.409L1.315,10.08L1.551,10.72L1.846,11.33L2.197,11.91L2.6,12.45L3.053,12.95L3.55,13.4L4.089,13.8L4.666,14.15L5.278,14.45L5.921,14.68L6.098,14.73L6.983,13.85L6.804,13.82L6.236,13.67L5.69,13.47L5.171,13.22L4.681,12.92L4.224,12.58L3.802,12.2L3.418,11.78L3.076,11.32L2.778,10.83L2.527,10.31L2.327,9.764L2.181,9.196L2.09,8.606L2.06,8L2.09,7.394L2.181,6.804L2.327,6.236L2.527,5.69L2.778,5.171L3.076,4.681L3.418,4.224L3.802,3.802L4.224,3.418L4.681,3.076L5.171,2.778L5.69,2.527L6.236,2.327L6.804,2.181L7.394,2.09L8,2.06L8.606,2.09L9.196,2.181L9.764,2.327L10.31,2.527L10.83,2.778L11.32,3.076L11.78,3.418L12.2,3.802L12.58,4.224L12.92,4.681L13.22,5.171L13.47,5.69L13.67,6.236L13.79,6.698L15,7.904L14.96,7.285L14.86,6.591L14.68,5.921L14.45,5.278L14.15,4.666L13.8,4.089L13.4,3.55L12.95,3.053L12.45,2.6L11.91,2.197L11.33,1.846L10.72,1.551L10.08,1.315L9.409,1.142L8.715,1.036L8,1zz" fill="#404040"/>
      <path d="M7.711,4.005L7.578,4.129L7.492,4.29L7.462,4.475L7.462,7.461L4.46,7.461L4.225,7.515L4.043,7.659L3.937,7.868L3.934,8.117L4.005,8.289L4.129,8.422L4.29,8.508L4.476,8.538L7.462,8.538L7.462,10.28L8.538,9.922L8.538,8.538L9.719,8.538L10.29,7.461L8.538,7.461L8.538,4.459L8.485,4.225L8.341,4.043L8.132,3.937L7.882,3.933zz" fill="#404040"/>
    </g>
    <g id="overlay">
      <path d="M7.0267,15.2167l1.9705,-1.9678l-1.586,-1.5839c-0.0509,-0.0508,-0.0714,-0.1228,-0.0548,-0.1926c0.0165,-0.07,0.0671,-0.1253,0.1355,-0.1481l2.2792,-0.7588l1.6224,-3.0405c0.1727,-0.3238,0.509,-0.5249,0.8775,-0.5249c0.2643,0,0.5132,0.1035,0.7007,0.2916l2.7388,2.7453c0.2236,0.2242,0.3251,0.5322,0.2785,0.8451c-0.0467,0.3129,-0.2336,0.5781,-0.513,0.7275l-3.0344,1.6225l-0.7598,2.2767c-0.0228,0.0682,-0.0782,0.1188,-0.1482,0.1353c-0.0155,0.0037,-0.0314,0.0055,-0.0475,0.0055c-0.0551,0,-0.1069,-0.0214,-0.1458,-0.0603l-1.5858,-1.5836l-1.9703,1.9677L7,16L7.0267,15.2167z" id="c1" fill="#404040"/>
    </g>
  </g>
</svg>
