<?xml version="1.0" encoding="UTF-8"?>
<!DOCTYPE svg PUBLIC "-//W3C//DTD SVG 1.1//EN" "http://www.w3.org/Graphics/SVG/1.1/DTD/svg11.dtd">
<svg version="1.1" id="Layer_1" xmlns="http://www.w3.org/2000/svg" xmlns:xlink="http://www.w3.org/1999/xlink" x="0px" y="0px" width="16px" height="16px" viewBox="0 0 16 16" enable-background="new 0 0 16 16" xml:space="preserve">
  <g id="icon">
    <path d="M1.5,8c0,-3.5899,2.9102,-6.5,6.5,-6.5s6.5,2.9102,6.5,6.5s-2.9102,6.5,-6.5,6.5S1.5,11.5898,1.5,8z" fill="#F5F5F5"/>
    <path d="M8,1c3.8598,0,7,3.1402,7,7s-3.1402,7,-7,7s-7,-3.1402,-7,-7S4.1402,1,8,1zM8,13.9403c3.2755,0,5.9403,-2.6648,5.9403,-5.9403S11.2755,2.0597,8,2.0597S2.0597,4.7245,2.0597,8S4.7245,13.9403,8,13.9403z" fill="#0891b2"/>
    <path d="M4.9365,8.3443c0.205,0.205,0.5374,0.205,0.7424,0l1.7826,-1.7826v4.346c0,0.2974,0.2411,0.5385,0.5385,0.5385s0.5385,-0.2411,0.5385,-0.5385v-4.346l1.7826,1.7826c0.205,0.205,0.5374,0.205,0.7425,0c0.205,-0.2051,0.205,-0.5374,0,-0.7424L8.3712,4.9096c-0.205,-0.205,-0.5374,-0.205,-0.7424,0L4.9365,7.6019C4.7314,7.8069,4.7314,8.1393,4.9365,8.3443z" fill="#0891b2"/>
  </g>
</svg>
