<?xml version="1.0" encoding="UTF-8"?>
<!DOCTYPE svg PUBLIC "-//W3C//DTD SVG 1.1//EN" "http://www.w3.org/Graphics/SVG/1.1/DTD/svg11.dtd">
<svg version="1.1" id="Layer_1" xmlns="http://www.w3.org/2000/svg" xmlns:xlink="http://www.w3.org/1999/xlink" x="0px" y="0px" width="16px" height="16px" viewBox="0 0 16 16" enable-background="new 0 0 16 16" xml:space="preserve">
  <g id="icon">
    <path d="M14.5,8c0,3.5899,-2.9101,6.5,-6.5,6.5s-6.5,-2.9101,-6.5,-6.5s2.9101,-6.5,6.5,-6.5S14.5,4.4101,14.5,8z" fill="#F5F5F5"/>
    <path d="M8,15c-3.8598,0,-7,-3.1402,-7,-7s3.1402,-7,7,-7s7,3.1402,7,7S11.8598,15,8,15zM8,2.0597c-3.2755,0,-5.9403,2.6648,-5.9403,5.9403S4.7245,13.9403,8,13.9403S13.9403,11.2755,13.9403,8S11.2755,2.0597,8,2.0597z" fill="#BE123C"/>
    <path d="M5.1271,10.1114L7.2385,8L5.1271,5.8886c-0.1807,-0.1807,-0.2247,-0.4666,-0.0856,-0.6809c0.1937,-0.2984,0.5986,-0.329,0.8357,-0.0919L8,7.2385l2.1114,-2.1114c0.1807,-0.1807,0.4666,-0.2247,0.6809,-0.0856c0.2984,0.1937,0.329,0.5986,0.0919,0.8357L8.7615,8l2.1114,2.1114c0.1807,0.1807,0.2247,0.4666,0.0856,0.6809c-0.1937,0.2984,-0.5986,0.329,-0.8357,0.0919L8,8.7615l-2.1227,2.1227c-0.2371,0.2371,-0.642,0.2064,-0.8357,-0.0919C4.9024,10.578,4.9464,10.2921,5.1271,10.1114z" fill="#BE123C"/>
  </g>
</svg>
