<?xml version="1.0" encoding="UTF-8"?>
<!DOCTYPE svg PUBLIC "-//W3C//DTD SVG 1.1//EN" "http://www.w3.org/Graphics/SVG/1.1/DTD/svg11.dtd">
<svg version="1.1" id="Layer_1" xmlns="http://www.w3.org/2000/svg" xmlns:xlink="http://www.w3.org/1999/xlink" x="0px" y="0px" width="16px" height="16px" viewBox="0 0 16 16" enable-background="new 0 0 16 16" xml:space="preserve">
  <g id="main">
    <g id="icon">
      <path d="M8.641,2.513L8.28,2.549L7.937,2.654L7.62,2.823L7.34,3.052L2.042,8.329L1.805,8.618L1.636,8.938L1.534,9.279L1.5,9.631L1.534,9.983L1.636,10.32L1.805,10.64L2.042,10.93L5.085,13.96L5.375,14.2L5.697,14.37L6.04,14.47L6.393,14.5L6.747,14.47L7.09,14.37L7.283,14.26L7.272,14.25L7.148,13.97L7.083,13.69L7.076,13.4L7.123,13.11L7.224,12.84L7.375,12.59L7.575,12.38L7.822,12.2L9.036,11.5L7.822,10.8L7.576,10.62L7.376,10.41L7.224,10.16L7.123,9.888L7.076,9.604L7.083,9.314L7.148,9.027L7.273,8.75L7.513,8.438L7.822,8.202L8.181,8.052L8.572,8L8.96,8.051L9.322,8.201L10.54,8.902L10.54,7.5L10.57,7.198L10.65,6.917L10.79,6.662L10.98,6.44L11.2,6.256L11.45,6.118L11.73,6.03L12.04,6L12.34,6.03L12.62,6.118L12.87,6.256L13.1,6.44L13.28,6.662L13.42,6.917L13.48,7.116L13.5,4.355L13.46,3.981L13.36,3.632L13.19,3.316L12.96,3.041L12.68,2.815L12.37,2.644L12.02,2.537L11.64,2.5zz" fill="#F5F5F5"/>
      <path d="M8.736,2.014L8.346,2.054L7.973,2.167L7.63,2.35L7.327,2.598L1.587,8.314L1.33,8.627L1.147,8.974L1.037,9.344L1,9.725L1.037,10.11L1.147,10.48L1.33,10.82L1.587,11.14L4.883,14.42L5.198,14.67L5.546,14.85L5.918,14.96L6.301,15L6.684,14.96L7.055,14.85L7.404,14.67L7.526,14.57L7.513,14.56L7.272,14.25L7.148,13.97L7.083,13.69L7.082,13.64L7.01,13.71L6.678,13.93L6.301,14L5.924,13.93L5.592,13.71L2.296,10.43L2.076,10.1L2.003,9.725L2.076,9.35L2.296,9.02L8.036,3.303L8.359,3.088L8.74,3.011L11.99,2.997L12.38,3.075L12.71,3.291L12.92,3.611L13,4.002L12.98,6.345L13.1,6.44L13.28,6.662L13.42,6.917L13.51,7.198L13.54,7.5L13.54,8.59L13.64,8.468L13.82,8.128L13.93,7.76L13.98,7.372L14,4.009L13.96,3.604L13.85,3.226L13.66,2.884L13.41,2.587L13.12,2.341L12.77,2.156L12.39,2.039L11.99,2zM10.61,4.079L10.29,4.293L10.08,4.611L10,5L10.08,5.389L10.29,5.707L10.61,5.921L11,6L11.39,5.921L11.71,5.707L11.92,5.389L12,5L11.92,4.611L11.71,4.293L11.39,4.079L11,4zz" fill="#404040"/>
    </g>
    <g id="overlay">
      <path d="M15.7499,13.067L13.0358,11.5l2.7141,-1.567c0.2391,-0.1381,0.3211,-0.4439,0.183,-0.683c-0.1381,-0.2391,-0.4439,-0.3211,-0.683,-0.183l-2.7141,1.567V7.5c0,-0.2761,-0.2239,-0.5,-0.5,-0.5s-0.5,0.2239,-0.5,0.5v3.134L8.8217,9.067c-0.2391,-0.1381,-0.5449,-0.0561,-0.683,0.183c-0.1381,0.2391,-0.0561,0.5449,0.183,0.683L11.0358,11.5l-2.7141,1.567c-0.2391,0.1381,-0.3211,0.4439,-0.183,0.683c0.1381,0.2391,0.4439,0.3211,0.683,0.183l2.7141,-1.567V15.5c0,0.2761,0.2239,0.5,0.5,0.5s0.5,-0.2239,0.5,-0.5v-3.134l2.7141,1.567c0.2391,0.1381,0.5449,0.0561,0.683,-0.183C16.071,13.5109,15.9891,13.2051,15.7499,13.067z" fill="#F59E0B"/>
    </g>
  </g>
</svg>
