<?xml version="1.0" encoding="UTF-8"?>
<!DOCTYPE svg PUBLIC "-//W3C//DTD SVG 1.1//EN" "http://www.w3.org/Graphics/SVG/1.1/DTD/svg11.dtd">
<svg version="1.1" id="Layer_1" xmlns="http://www.w3.org/2000/svg" xmlns:xlink="http://www.w3.org/1999/xlink" x="0px" y="0px" width="16px" height="16px" viewBox="0 0 16 16" enable-background="new 0 0 16 16" xml:space="preserve">
  <g id="icon">
    <path d="M2.0421,8.3286c-0.7227,0.7192,-0.7227,1.8852,0,2.6044l3.0425,3.0277c0.7227,0.7192,1.8945,0.7192,2.6172,0l5.2336,-5.2125c0.3438,-0.3421,0.5384,-0.8051,0.5419,-1.2889l0.0225,-3.1043c0.0075,-1.0253,-0.828,-1.8592,-1.8583,-1.8549l-3.0005,0.0125c-0.4881,0.002,-0.9557,0.1959,-1.3009,0.5394L2.0421,8.3286z" id="b" fill="#F5F5F5"/>
    <path d="M11,6c0.5523,0,1,-0.4477,1,-1s-0.4477,-1,-1,-1s-1,0.4477,-1,1S10.4477,6,11,6zM1.5872,11.1357c-0.783,-0.7791,-0.783,-2.0423,0,-2.8214l5.7397,-5.7164c0.3739,-0.3721,0.8805,-0.5821,1.4093,-0.5843L11.9867,2c1.1162,-0.0046,2.0213,0.8988,2.0132,2.0094l-0.0244,3.363c-0.0038,0.5241,-0.2147,1.0257,-0.5871,1.3963l-5.6698,5.6469c-0.783,0.7791,-2.0524,0.7791,-2.8353,0L1.5872,11.1357zM2.2961,9.0196c-0.3915,0.3896,-0.3915,1.0212,0,1.4107l3.2961,3.2799c0.3915,0.3896,1.0262,0.3896,1.4177,0l5.6697,-5.6468c0.1863,-0.1853,0.2917,-0.4361,0.2936,-0.6982l0.0244,-3.363c0.0041,-0.5554,-0.4485,-1.0071,-1.0066,-1.0047l-3.2505,0.0135c-0.2644,0.0011,-0.5177,0.1061,-0.7047,0.2922L2.2961,9.0196z" id="c1" fill="#404040"/>
  </g>
</svg>
