<?xml version="1.0" encoding="utf-8"?>
<!-- Created with: Axialis IconVectors - www.axialis.com -->
<svg xmlns="http://www.w3.org/2000/svg" version="1.1" xmlns:xlink="http://www.w3.org/1999/xlink" id="Layer_1" viewBox="0 0 16 16">
  <g id="icon">
    <path id="b" fill="#F5F5F5" d="M11,11.5C12.93,11.5,14.5,9.93,14.5,8C14.5,6.07,12.93,4.5,11,4.5L5,4.5C3.07,4.5,1.5,6.07,1.5,8C1.5,9.93,3.07,11.5,5,11.5L11,11.5z"/>
    <path id="c1" fill="#737373" d="M5,12 L11,12 C13.21,12 15,10.21 15,8 C15,5.79 13.21,4 11,4 L5,4 C2.79,4 1,5.79 1,8 C1,10.21 2.79,12 5,12 Z M11,5 C12.66,5 14,6.34 14,8 C14,9.66 12.66,11 11,11 L5,11 C3.34,11 2,9.66 2,8 C2,6.34 3.34,5 5,5 L11,5 Z"/>
  </g>
  <g id="overlay">
    <path id="b" fill="#FFFFFF" d="M9.49,8C9.49,10.48,7.48,12.49,5,12.49C2.52,12.49,.51,10.48,.51,8C.51,5.52,2.52,3.51,5,3.51C7.48,3.51,9.49,5.52,9.49,8z"/>
    <path id="c3" fill="#404040" d="M5,13 C2.24,13 0,10.76 0,8 C0,5.24 2.24,3 5,3 C7.76,3 10,5.24 10,8 C10,10.76 7.76,13 5,13 Z M5,4.07 C2.83,4.07 1.07,5.83 1.07,8 C1.07,10.17 2.83,11.93 5,11.93 C7.17,11.93 8.93,10.17 8.93,8 C8.93,5.83 7.17,4.07 5,4.07 Z"/>
    <path id="c3" fill="#BE123C" d="M6.72,10.27C6.58,10.27,6.44,10.21,6.34,10.11L5,8.77L3.66,10.11C3.56,10.21,3.42,10.27,3.28,10.27C3.09,10.27,2.92,10.18,2.81,10.02C2.68,9.81,2.71,9.52,2.9,9.33L4.23,8L2.9,6.67C2.71,6.48,2.68,6.19,2.81,5.98C2.92,5.82,3.09,5.73,3.28,5.73C3.42,5.73,3.56,5.79,3.66,5.89L5,7.23L6.33,5.9C6.44,5.79,6.59,5.73,6.73,5.73C6.83,5.73,6.93,5.76,7.02,5.81C7.16,5.91,7.24,6.06,7.27,6.21C7.28,6.38,7.22,6.54,7.11,6.66L5.77,8L7.1,9.33C7.29,9.52,7.32,9.81,7.19,10.02C7.08,10.18,6.91,10.27,6.72,10.27z"/>
  </g>
</svg>
