<?xml version="1.0" encoding="utf-8"?>
<!-- Created with: Axialis IconVectors - www.axialis.com -->
<svg xmlns="http://www.w3.org/2000/svg" version="1.1" xmlns:xlink="http://www.w3.org/1999/xlink" id="Layer_1" viewBox="0 0 16 16">
  <g id="icon">
    <path id="b" fill="#F5F5F5" d="M11,11.5C12.93,11.5,14.5,9.93,14.5,8C14.5,6.07,12.93,4.5,11,4.5L5,4.5C3.07,4.5,1.5,6.07,1.5,8C1.5,9.93,3.07,11.5,5,11.5L11,11.5z"/>
    <path id="c1" fill="#737373" d="M5,12 L11,12 C13.21,12 15,10.21 15,8 C15,5.79 13.21,4 11,4 L5,4 C2.79,4 1,5.79 1,8 C1,10.21 2.79,12 5,12 Z M11,5 C12.66,5 14,6.34 14,8 C14,9.66 12.66,11 11,11 L5,11 C3.34,11 2,9.66 2,8 C2,6.34 3.34,5 5,5 L11,5 Z"/>
  </g>
  <g id="overlay">
    <path id="b" fill="#FFFFFF" d="M15.49,8C15.49,10.48,13.48,12.49,11,12.49C8.52,12.49,6.51,10.48,6.51,8C6.51,5.52,8.52,3.51,11,3.51C13.48,3.51,15.49,5.52,15.49,8z"/>
    <path id="c3" fill="#404040" d="M11,13 C8.24,13 6,10.76 6,8 C6,5.24 8.24,3 11,3 C13.76,3 16,5.24 16,8 C16,10.76 13.76,13 11,13 Z M11,4.07 C8.83,4.07 7.07,5.83 7.07,8 C7.07,10.17 8.83,11.93 11,11.93 C13.17,11.93 14.93,10.17 14.93,8 C14.93,5.83 13.17,4.07 11,4.07 Z"/>
    <path id="c3" fill="#BE123C" d="M12.72,10.27C12.58,10.27,12.44,10.21,12.34,10.11L11,8.77L9.66,10.11C9.56,10.21,9.42,10.27,9.28,10.27C9.09,10.27,8.92,10.18,8.81,10.02C8.68,9.81,8.71,9.52,8.9,9.33L10.23,8L8.9,6.67C8.71,6.48,8.68,6.19,8.81,5.98C8.92,5.82,9.09,5.73,9.28,5.73C9.42,5.73,9.56,5.79,9.66,5.89L11,7.23L12.33,5.9C12.44,5.79,12.59,5.73,12.73,5.73C12.83,5.73,12.93,5.76,13.02,5.81C13.16,5.91,13.24,6.06,13.27,6.21C13.28,6.38,13.22,6.54,13.11,6.66L11.77,8L13.1,9.33C13.29,9.52,13.32,9.81,13.19,10.02C13.08,10.18,12.91,10.27,12.72,10.27z"/>
  </g>
</svg>
