<?xml version="1.0" encoding="UTF-8"?>
<!DOCTYPE svg PUBLIC "-//W3C//DTD SVG 1.1//EN" "http://www.w3.org/Graphics/SVG/1.1/DTD/svg11.dtd">
<svg version="1.1" id="Layer_1" xmlns="http://www.w3.org/2000/svg" xmlns:xlink="http://www.w3.org/1999/xlink" x="0px" y="0px" width="16px" height="16px" viewBox="0 0 16 16" enable-background="new 0 0 16 16" xml:space="preserve">
  <g id="icon">
    <path d="M9.9917,1.5H5.0083C4.1753,1.5,3.5,2.1753,3.5,3.0083v9.9833C3.5,13.8247,4.1753,14.5,5.0083,14.5h4.9833c0.833,0,1.5083,-0.6753,1.5083,-1.5083V3.0083C11.5,2.1753,10.8247,1.5,9.9917,1.5z" id="b" fill="#F5F5F5"/>
    <path d="M12,3.0083v9.9833C12,14.0991,11.0991,15,9.9917,15H5.0083C3.9009,15,3,14.0991,3,12.9917V3.0083C3,1.9009,3.9009,1,5.0083,1h4.9833C11.0991,1,12,1.9009,12,3.0083zM9.9917,14c0.556,0,1.0083,-0.4523,1.0083,-1.0083V3.0083C11,2.4523,10.5477,2,9.9917,2H5.0083C4.4523,2,4,2.4523,4,3.0083v9.9833C4,13.5477,4.4523,14,5.0083,14H9.9917z" id="c1" fill="#404040"/>
    <path d="M9.1,4.1055c0,0.8799,-0.7159,1.5958,-1.5958,1.5958s-1.5958,-0.7159,-1.5958,-1.5958s0.7159,-1.5958,1.5958,-1.5958S9.1,3.2256,9.1,4.1055zM8.3021,4.1055c0,-0.44,-0.3579,-0.7979,-0.7979,-0.7979s-0.7979,0.3579,-0.7979,0.7979s0.3579,0.7979,0.7979,0.7979S8.3021,4.5455,8.3021,4.1055z" id="c1" fill="#404040"/>
    <path d="M9.1,7.7055c0,0.8799,-0.7159,1.5958,-1.5958,1.5958s-1.5958,-0.7159,-1.5958,-1.5958s0.7159,-1.5958,1.5958,-1.5958S9.1,6.8256,9.1,7.7055zM8.3021,7.7055c0,-0.44,-0.3579,-0.7979,-0.7979,-0.7979s-0.7979,0.3579,-0.7979,0.7979s0.3579,0.7979,0.7979,0.7979S8.3021,8.1455,8.3021,7.7055z" id="c1" fill="#404040"/>
    <circle cx="7.5042" cy="11.6945" r="1.8958" id="c2" fill="#059669"/>
  </g>
</svg>
