<?xml version="1.0" encoding="UTF-8"?>
<!DOCTYPE svg PUBLIC "-//W3C//DTD SVG 1.1//EN" "http://www.w3.org/Graphics/SVG/1.1/DTD/svg11.dtd">
<svg version="1.1" id="Layer_1" xmlns="http://www.w3.org/2000/svg" xmlns:xlink="http://www.w3.org/1999/xlink" x="0px" y="0px" width="16px" height="16px" viewBox="0 0 16 16" enable-background="new 0 0 16 16" xml:space="preserve">
  <g id="main">
    <g id="icon">
      <path d="M1,11.02L1.033,11.35L1.131,11.67L1.292,11.98L1.515,12.27L1.798,12.54L2.14,12.8L2.994,13.26L3.866,13.57L4.805,13.81L5.832,13.95L6.371,13.97L6.145,13.45L5.956,12.83L5.84,12.18L5.8,11.5L5.829,10.92L5.916,10.35L6.057,9.807L6.249,9.283L6.489,8.785L6.775,8.315L7.103,7.876L7.471,7.471L7.876,7.103L8.315,6.775L8.785,6.489L9.283,6.249L9.807,6.057L10.35,5.916L10.92,5.829L11.5,5.8L12.18,5.84L12.83,5.956L13,6.008L13,3.618L12.37,4.037L11.45,4.428L10.49,4.699L9.404,4.898L8.233,5.02L7,5.061L5.767,5.02L4.596,4.898L3.514,4.699L2.547,4.428L1.627,4.037L1,3.618zz" fill="#EEAC55"/>
      <path d="M5.791,0.04141L4.664,0.1605L3.645,0.3488L2.757,0.5982L2.025,0.9006L1.471,1.248L1.122,1.631L1.031,1.834L1,2.043L1.031,2.252L1.122,2.454L1.471,2.838L2.025,3.185L2.757,3.487L3.645,3.737L4.664,3.925L5.791,4.044L7,4.085L8.209,4.044L9.336,3.925L10.35,3.737L11.24,3.487L11.98,3.185L12.53,2.838L12.88,2.454L12.97,2.252L13,2.043L12.97,1.834L12.88,1.631L12.53,1.248L11.98,0.9006L11.24,0.5982L10.35,0.3488L9.336,0.1605L8.209,0.04141L7,0zz" fill="#EEAC55"/>
    </g>
    <g id="overlay">
      <path d="M11.5,7c-2.4853,0,-4.5,2.0147,-4.5,4.5s2.0147,4.5,4.5,4.5c2.4853,0,4.5,-2.0147,4.5,-4.5S13.9853,7,11.5,7zM11.5,14.8772l-3.2767,-3.2161l0.9837,-0.9262L10.8,12.2886V8.4h1.4v3.8886l1.5931,-1.5538l0.9837,0.9262L11.5,14.8772z" fill="#6485C3"/>
      <polygon points="14.7767,11.6611 13.7931,10.7348 12.2,12.2886 12.2,8.4 10.8,8.4 10.8,12.2886 9.2069,10.7348 8.2233,11.6611 11.5,14.8772" fill="#FFFFFF" stroke-linejoin="miter"/>
    </g>
  </g>
</svg>
