<?xml version="1.0" encoding="UTF-8"?>
<!DOCTYPE svg PUBLIC "-//W3C//DTD SVG 1.1//EN" "http://www.w3.org/Graphics/SVG/1.1/DTD/svg11.dtd">
<svg version="1.1" id="Layer_1" xmlns="http://www.w3.org/2000/svg" xmlns:xlink="http://www.w3.org/1999/xlink" x="0px" y="0px" width="16px" height="16px" viewBox="0 0 16 16" enable-background="new 0 0 16 16" xml:space="preserve">
  <g id="main">
    <g id="icon">
      <path d="M1,11.02L1.033,11.35L1.131,11.67L1.292,11.98L1.515,12.27L1.798,12.54L2.14,12.8L2.994,13.26L3.866,13.57L4.805,13.81L5.832,13.95L6.968,14L8.115,13.95L8.8,13.86L8.8,12.34L6.8,10.12L6.8,5.8L13,5.8L13,3.618L12.37,4.037L11.45,4.428L10.49,4.699L9.404,4.898L8.233,5.02L7,5.061L5.767,5.02L4.596,4.898L3.514,4.699L2.547,4.428L1.627,4.037L1,3.618zz" fill="#EEAC55"/>
      <path d="M5.791,0.04141L4.664,0.1605L3.645,0.3488L2.757,0.5982L2.025,0.9006L1.471,1.248L1.122,1.631L1.031,1.834L1,2.043L1.031,2.252L1.122,2.454L1.471,2.838L2.025,3.185L2.757,3.487L3.645,3.737L4.664,3.925L5.791,4.044L7,4.085L8.209,4.044L9.336,3.925L10.35,3.737L11.24,3.487L11.98,3.185L12.53,2.838L12.88,2.454L12.97,2.252L13,2.043L12.97,1.834L12.88,1.631L12.53,1.248L11.98,0.9006L11.24,0.5982L10.35,0.3488L9.336,0.1605L8.209,0.04141L7,0zz" fill="#EEAC55"/>
    </g>
    <g id="overlay">
      <path d="M8.5,9.4392V7.5h6.9l0,1.9392l-2,2.2216v2.2446l-2.9,1.3196v-3.5642L8.5,9.4392z" fill="#FFFFFF" opacity="0.5"/>
      <path d="M10,11.8794L8,9.6578V7h8v2.6578l-2,2.2216v2.4145l-4,1.7099V11.8794zM11.1,14.2462l1.8,-0.7292v-1.9748l2,-2.2216V8.1H9.1v1.2206l2,2.2216V14.2462z" fill="#6D6E71"/>
    </g>
  </g>
</svg>
