<?xml version="1.0" encoding="UTF-8"?>
<!DOCTYPE svg PUBLIC "-//W3C//DTD SVG 1.1//EN" "http://www.w3.org/Graphics/SVG/1.1/DTD/svg11.dtd">
<svg version="1.1" id="Layer_1" xmlns="http://www.w3.org/2000/svg" xmlns:xlink="http://www.w3.org/1999/xlink" x="0px" y="0px" width="16px" height="16px" viewBox="0 0 16 16" enable-background="new 0 0 16 16" xml:space="preserve">
  <g id="main">
    <g id="icon">
      <path d="M1,11.02L1.033,11.35L1.131,11.67L1.292,11.98L1.515,12.27L1.798,12.54L2.14,12.8L2.994,13.26L3.866,13.57L4.805,13.81L5.8,13.95L5.8,12.06L5.701,12.06L5.8,11.03L5.8,10.94L5.809,10.94L5.827,10.75L5.902,10.22L6.024,9.714L6.401,8.767L6.941,7.923L7.624,7.2L8.436,6.61L9.357,6.17L10.37,5.895L11.46,5.8L12.48,5.883L13,6.016L13,3.618L12.37,4.037L11.45,4.428L10.49,4.699L9.404,4.898L8.233,5.02L7,5.061L5.767,5.02L4.596,4.898L3.514,4.699L2.547,4.428L1.627,4.037L1,3.618zz" fill="#EEAC55"/>
      <path d="M5.791,0.04141L4.664,0.1605L3.645,0.3488L2.757,0.5982L2.025,0.9006L1.471,1.248L1.122,1.631L1.031,1.834L1,2.043L1.031,2.252L1.122,2.454L1.471,2.838L2.025,3.185L2.757,3.487L3.645,3.737L4.664,3.925L5.791,4.044L7,4.085L8.209,4.044L9.336,3.925L10.35,3.737L11.24,3.487L11.98,3.185L12.53,2.838L12.88,2.454L12.97,2.252L13,2.043L12.97,1.834L12.88,1.631L12.53,1.248L11.98,0.9006L11.24,0.5982L10.35,0.3488L9.336,0.1605L8.209,0.04141L7,0zz" fill="#EEAC55"/>
    </g>
    <g id="overlay">
      <path d="M14.65,7.0121V8.222C13.7217,7.4009,12.6418,7,11.4622,7C9.109,7,7.2359,8.6071,7.021,10.864h1.3595c0.2076,-1.4894,1.4742,-2.5086,3.054,-2.5086c0.9149,0,1.7992,0.4053,2.4808,1.1604h-1.7725v1.3482H16v-3.852H14.65z" fill="#6485C3"/>
      <path d="M14.618,12.148c-0.2127,1.4829,-1.4769,2.4965,-3.0525,2.4965c-0.9149,0,-1.7992,-0.4053,-2.4808,-1.1604h1.7725V12.136H7v3.852h1.35V14.778c0.9283,0.8211,2.0082,1.222,3.1878,1.222c2.349,0,4.2199,-1.6013,4.4402,-3.852H14.618z" fill="#6485C3"/>
    </g>
  </g>
</svg>
