<?xml version="1.0" encoding="UTF-8"?>
<!DOCTYPE svg PUBLIC "-//W3C//DTD SVG 1.1//EN" "http://www.w3.org/Graphics/SVG/1.1/DTD/svg11.dtd">
<svg version="1.1" id="Layer_1" xmlns="http://www.w3.org/2000/svg" xmlns:xlink="http://www.w3.org/1999/xlink" x="0px" y="0px" width="16px" height="16px" viewBox="0 0 16 16" enable-background="new 0 0 16 16" xml:space="preserve">
  <g id="main">
    <g id="icon">
      <path d="M6.325,0.4998L5.677,0.5986L5.052,0.7594L4.452,0.9785L3.882,1.253L3.344,1.579L2.841,1.955L2.378,2.376L1.956,2.838L1.581,3.34L1.254,3.878L0.9791,4.448L0.7596,5.047L0.5988,5.671L0.4998,6.319L0.4662,6.985L0.4998,7.652L0.5988,8.299L0.7596,8.924L0.9791,9.523L1.254,10.09L1.581,10.63L1.956,11.13L2.378,11.59L2.841,12.02L3.344,12.39L3.882,12.72L4.452,12.99L5.052,13.21L5.677,13.37L6.142,13.44L5.956,12.83L5.84,12.18L5.8,11.5L5.829,10.92L5.916,10.35L6.057,9.807L6.249,9.283L6.489,8.785L6.775,8.315L7.103,7.876L7.471,7.471L7.876,7.103L8.315,6.775L8.785,6.489L9.283,6.249L9.807,6.057L10.35,5.916L10.92,5.829L11.5,5.8L12.18,5.84L12.83,5.956L13.45,6.145L13.46,6.148L13.39,5.671L13.23,5.047L13.01,4.448L12.73,3.878L12.4,3.34L12.03,2.838L11.61,2.376L11.14,1.955L10.64,1.579L10.1,1.253L9.533,0.9785L8.933,0.7594L8.308,0.5986L7.66,0.4998L6.993,0.4662zz" fill="#FFFFFF" opacity="0.5"/>
      <path d="M6.285,0.03613L5.591,0.1424L4.921,0.3148L4.278,0.5504L3.666,0.8451L3.089,1.196L2.55,1.599L2.053,2.05L1.6,2.547L1.197,3.086L0.8461,3.662L0.551,4.273L0.3152,4.915L0.1424,5.585L0.03613,6.279L0,6.993L0.03613,7.707L0.1424,8.4L0.3152,9.07L0.551,9.712L0.8461,10.32L1.197,10.9L1.6,11.44L2.053,11.93L2.55,12.39L3.089,12.79L3.666,13.14L4.278,13.43L4.921,13.67L5.591,13.84L6.285,13.95L6.361,13.95L6.145,13.45L5.956,12.83L5.95,12.79L5.811,12.77L5.246,12.62L4.704,12.43L4.188,12.18L3.701,11.88L3.246,11.54L2.826,11.16L2.445,10.74L2.104,10.29L1.808,9.802L1.559,9.286L1.361,8.745L1.215,8.18L1.125,7.595L1.095,6.993L1.125,6.39L1.215,5.805L1.361,5.241L1.559,4.699L1.808,4.184L2.104,3.697L2.445,3.243L2.826,2.824L3.246,2.443L3.701,2.103L4.188,1.807L4.704,1.559L5.246,1.36L5.811,1.215L6.397,1.125L7,1.095L7.603,1.125L8.189,1.215L8.754,1.36L9.296,1.559L9.812,1.807L10.3,2.103L10.75,2.443L11.17,2.824L11.56,3.243L11.9,3.697L12.19,4.184L12.44,4.699L12.64,5.241L12.79,5.805L12.81,5.953L12.83,5.956L13.45,6.145L13.97,6.368L13.96,6.279L13.86,5.585L13.68,4.916L13.45,4.273L13.15,3.662L12.8,3.086L12.4,2.547L11.95,2.05L11.45,1.599L10.91,1.196L10.33,0.8453L9.722,0.5504L9.079,0.3148L8.409,0.1424L7.715,0.03613L7,0zz" fill="#6485C3"/>
      <path d="M6.279,0.03613L5.585,0.1422L4.916,0.3146L4.273,0.5498L3.662,0.8443L3.086,1.195L2.547,1.597L2.05,2.048L1.599,2.545L1.196,3.082L0.8453,3.658L0.5504,4.269L0.3148,4.91L0.1424,5.579L0.03613,6.272L0,6.985L0.03613,7.698L0.1424,8.391L0.3148,9.06L0.5504,9.702L0.8453,10.31L1.196,10.89L1.599,11.43L2.05,11.92L2.547,12.37L3.086,12.78L3.662,13.13L4.273,13.42L4.916,13.66L5.585,13.83L6.279,13.93L6.355,13.94L6.145,13.45L5.993,12.95L5.773,12.92L5.193,12.77L4.636,12.56L4.106,12.31L3.607,12L3.14,11.65L2.709,11.26L2.318,10.83L1.969,10.37L1.665,9.868L1.409,9.339L1.205,8.783L1.056,8.204L0.9637,7.603L0.9324,6.985L0.9637,6.367L1.056,5.767L1.205,5.187L1.409,4.631L1.665,4.103L1.969,3.603L2.318,3.137L2.709,2.707L3.14,2.316L3.607,1.968L4.106,1.664L4.636,1.409L5.193,1.205L5.773,1.056L6.374,0.9637L6.993,0.9324L7.612,0.9637L8.212,1.056L8.793,1.205L9.349,1.409L9.879,1.664L10.38,1.968L10.85,2.316L11.28,2.707L11.67,3.137L12.02,3.603L12.32,4.103L12.58,4.631L12.78,5.187L12.93,5.767L12.97,5.998L13.45,6.145L13.95,6.362L13.95,6.272L13.84,5.579L13.67,4.91L13.43,4.269L13.14,3.658L12.79,3.082L12.39,2.545L11.93,2.048L11.44,1.597L10.9,1.195L10.32,0.8443L9.712,0.5498L9.07,0.3146L8.4,0.1422L7.707,0.03613L6.993,0zz" fill="#6485C3"/>
      <path d="M6.407,0.3064L6.098,0.5793L5.524,1.26L5.017,2.087L4.583,3.02L4.232,4.02L3.971,5.046L3.808,6.057L3.753,7.016L3.806,7.995L3.963,9.016L4.217,10.04L4.559,11.03L4.984,11.95L5.483,12.76L6.05,13.42L6.175,13.52L6.145,13.45L5.956,12.83L5.84,12.18L5.8,11.5L5.801,11.48L5.706,11.31L5.367,10.54L5.085,9.694L4.87,8.808L4.733,7.906L4.685,7.016L4.734,6.154L4.873,5.27L5.091,4.392L5.378,3.547L5.72,2.762L6.108,2.066L6.53,1.484L6.975,1.046L7.431,1.488L7.864,2.073L8.262,2.771L8.613,3.557L8.907,4.401L9.13,5.278L9.273,6.158L9.279,6.251L9.283,6.249L9.807,6.057L10.18,5.96L10.03,5.055L9.767,4.033L9.409,3.034L8.966,2.101L8.449,1.271L7.863,0.5859L7.219,0.08496L6.974,0.5L6.73,0.08496zz" fill="#6485C3"/>
      <path d="M0.8391,5.594L13.05,5.594L13.05,4.662L0.8391,4.662zM0.8391,9.324L6.234,9.324L6.249,9.283L6.489,8.785L6.729,8.391L0.8391,8.391zz" fill="#6485C3"/>
    </g>
    <g id="overlay">
      <path d="M11.5,7c-2.4853,0,-4.5,2.0147,-4.5,4.5c0,2.4853,2.0147,4.5,4.5,4.5s4.5,-2.0147,4.5,-4.5C16,9.0147,13.9853,7,11.5,7zM14.6,12.2h-2.4v2.4h-1.4v-2.4H8.4v-1.4h2.4V8.4h1.4v2.4h2.4V12.2z" fill="#52B250"/>
      <polygon points="10.8,14.6 10.8,12.2 8.4,12.2 8.4,10.8 10.8,10.8 10.8,8.4 12.2,8.4 12.2,10.8 14.6,10.8 14.6,12.2 12.2,12.2 12.2,14.6" fill="#FFFFFF" stroke-linejoin="miter"/>
    </g>
  </g>
</svg>
