<?xml version="1.0" encoding="UTF-8"?>
<!DOCTYPE svg PUBLIC "-//W3C//DTD SVG 1.1//EN" "http://www.w3.org/Graphics/SVG/1.1/DTD/svg11.dtd">
<svg version="1.1" id="Layer_1" xmlns="http://www.w3.org/2000/svg" xmlns:xlink="http://www.w3.org/1999/xlink" x="0px" y="0px" width="16px" height="16px" viewBox="0 0 16 16" enable-background="new 0 0 16 16" xml:space="preserve">
  <g id="icon">
    <path d="M11.066,15.3805c0.0974,0,0.1743,-0.0775,0.1669,-0.1683l-0.0226,-0.2788c-0.0793,-0.9795,-0.5761,-2.7637,-3.0131,-3.7072c-0.5601,-0.2239,-0.8265,-0.7104,-0.5601,-1.0642c0.666,-0.8403,0.9312,-1.9197,0.9312,-2.9044c0,-1.525,-0.4816,-2.491,-2.6314,-2.491h-0.0418c-2.1414,0,-2.6211,0.966,-2.6211,2.491c0,0.9847,0.2642,2.0641,0.9275,2.9044c0.2653,0.3538,0,0.8403,-0.5579,1.0642c-2.4275,0.9435,-2.9224,2.7277,-3.0014,3.7072l-0.0225,0.2788c-0.0073,0.0908,0.0692,0.1683,0.1663,0.1683H11.066z" fill="#FFFFFF" opacity="0.5"/>
    <path d="M0.7862,15.9992c-0.2206,0,-0.4323,-0.0923,-0.5808,-0.2533c-0.1456,-0.1578,-0.2193,-0.3704,-0.2021,-0.5834l0.0224,-0.2787c0.0906,-1.1233,0.6515,-3.1669,3.3912,-4.2331c0.1351,-0.0546,0.2141,-0.1245,0.2497,-0.1693c-0.6514,-0.8555,-1.0111,-1.9988,-1.0111,-3.2238c0,-1.3349,0.3358,-3.1097,3.2398,-3.1097h0.0418c2.9132,0,3.2501,1.7747,3.2501,3.1097c0,1.2226,-0.3596,2.3639,-1.0142,3.2233c0.036,0.0441,0.1132,0.1142,0.2522,0.1701c2.748,1.0653,3.3111,3.1091,3.402,4.2325l0.0225,0.2788c0.0172,0.2128,-0.0564,0.4254,-0.202,0.5833c-0.1486,0.1611,-0.3606,0.2536,-0.5816,0.2536H0.7862zM10.5686,14.7619c-0.1227,-0.8373,-0.6362,-2.2005,-2.5947,-2.9587c-0.5165,-0.2065,-0.8939,-0.5891,-1.016,-1.026c-0.0974,-0.3487,-0.0317,-0.6993,0.185,-0.9873l0.0084,-0.0109c0.5151,-0.6499,0.7983,-1.545,0.7983,-2.5213c0,-1.2947,-0.2906,-1.8723,-2.0127,-1.8723h-0.0418c-1.7133,0,-2.0024,0.5776,-2.0024,1.8723c0,0.9768,0.2822,1.8721,0.7945,2.5211l0.0082,0.0107c0.2171,0.2895,0.2824,0.6401,0.1849,0.9887c-0.1221,0.4363,-0.4982,0.8185,-1.0061,1.0223l-0.0064,0.0025c-1.9504,0.7581,-2.4617,2.1215,-2.5838,2.959H10.5686z" fill="#6485C3"/>
    <path d="M15.3583,10.7855c-0.0793,-0.9795,-0.5761,-2.7637,-3.0131,-3.7072c-0.5601,-0.2239,-0.8265,-0.7104,-0.5601,-1.0642c0.666,-0.8403,0.9312,-1.9197,0.9312,-2.9044c0,-1.525,-0.4816,-2.491,-2.6314,-2.491h-0.0418c-2.1414,0,-2.6211,0.966,-2.6211,2.491c0,0.1035,0.0036,0.2082,0.0096,0.3134c0.8549,0.1908,1.5085,0.5894,1.951,1.1918c0.5919,0.806,0.6603,1.7815,0.6603,2.4452c0,1.0775,-0.255,2.1072,-0.7277,2.9717c0.7463,0.3432,1.3293,0.7567,1.7852,1.2007h4.1135c0.0974,0,0.1743,-0.0775,0.1669,-0.1683L15.3583,10.7855z" fill="#FFFFFF" opacity="0.5"/>
    <path d="M15.9975,11.0144l-0.0225,-0.2788c-0.0909,-1.1234,-0.6539,-3.1672,-3.402,-4.2325c-0.1389,-0.0559,-0.2162,-0.126,-0.2522,-0.1701c0.6545,-0.8594,1.0142,-2.0007,1.0142,-3.2233C13.335,1.7747,12.9981,0,10.0849,0h-0.0418C7.1392,0,6.8034,1.7747,6.8034,3.1097c0,0.0723,0.0015,0.1442,0.004,0.2159c0.4689,0.0469,0.8898,0.144,1.2599,0.2928c-0.0173,-0.1665,-0.0266,-0.3362,-0.0266,-0.5086c0,-1.2947,0.2891,-1.8723,2.0024,-1.8723h0.0418c1.7221,0,2.0127,0.5776,2.0127,1.8723c0,0.9764,-0.2832,1.8714,-0.7983,2.5213l-0.0084,0.0109c-0.2168,0.2879,-0.2825,0.6386,-0.185,0.9873c0.1221,0.437,0.4995,0.8196,1.016,1.026c1.9585,0.7582,2.472,2.1213,2.5947,2.9587h-4.3729c0.5509,0.3796,0.9756,0.8026,1.3011,1.2373h3.5692c0.221,0,0.433,-0.0924,0.5816,-0.2536C15.9411,11.4399,16.0148,11.2272,15.9975,11.0144z" fill="#6485C3"/>
  </g>
</svg>
