<?xml version="1.0" encoding="UTF-8"?>
<!DOCTYPE svg PUBLIC "-//W3C//DTD SVG 1.1//EN" "http://www.w3.org/Graphics/SVG/1.1/DTD/svg11.dtd">
<svg version="1.1" id="Layer_1" xmlns="http://www.w3.org/2000/svg" xmlns:xlink="http://www.w3.org/1999/xlink" x="0px" y="0px" width="16px" height="16px" viewBox="0 0 16 16" enable-background="new 0 0 16 16" xml:space="preserve">
  <g id="main">
    <g id="icon">
      <path d="M2.5,5.849L1.95,6.246L1.524,6.771L1.248,7.4L1.175,7.744L1.15,8.103L1.18,8.5L1.269,8.877L1.411,9.23L1.602,9.555L1.837,9.847L2.112,10.1L2.422,10.31L2.763,10.48L2.766,10.48L2.332,10.35L1.151,12.47L2.181,12.48L2.92,13.1L3.373,11.55L4.483,13.5L6.252,13.5L5.278,12.53L8.314,9.49L10.46,11.63L13.5,8.662L13.5,0.5L2.5,0.5zz" fill="#FFFFFF" opacity="0.5"/>
      <path d="M2,4.217L3,4.217L3,1L13,1L13,9.15L14,8.173L14,0L2,0zz" fill="#6D6E71"/>
      <path d="M4,4.062L4.638,4.162L5.238,4.356L5.794,4.638L6.297,5L12,5L12,2L4,2zz" fill="#EEAC55"/>
      <path d="M8,7L12,7L12,6L8,6zM9,9L12,9L12,8L9,8zM9.824,11L11.11,11L12,10.13L12,10L8.824,10zz" fill="#B7B7B7"/>
      <path d="M5.334,11.09L4.8,11.33L4.225,11.48L3.616,11.53L3.017,11.48L2.45,11.34L1.924,11.11L1.446,10.79L0.2754,12.84L1.838,12.85L2.958,14L3.638,11.58L4.318,14L5.438,12.85L5.604,12.85L5.278,12.53L6.259,11.54L5.816,10.77zz" fill="#CB525D"/>
      <path d="M3.015,5.057L2.455,5.23L1.949,5.505L1.507,5.87L1.143,6.311L0.868,6.818L0.6941,7.377L0.6336,7.978L0.6941,8.579L0.868,9.139L1.143,9.646L1.507,10.09L1.949,10.45L2.455,10.73L3.015,10.9L3.616,10.96L4.217,10.9L4.777,10.73L5.284,10.45L5.725,10.09L6.089,9.646L6.364,9.139L6.538,8.579L6.599,7.978L6.538,7.377L6.364,6.818L6.089,6.311L5.725,5.87L5.284,5.505L4.777,5.23L4.217,5.057L3.616,4.996zz" fill="#CB525D"/>
    </g>
    <g id="overlay">
      <polygon points="6.9749,12.5259 8.314,11.1867 10.449,13.3218 14.6069,9.2577 15.946,10.5969 10.449,16" fill="#52B250" stroke-linejoin="miter"/>
    </g>
  </g>
</svg>
