<?xml version="1.0" encoding="UTF-8"?>
<!DOCTYPE svg PUBLIC "-//W3C//DTD SVG 1.1//EN" "http://www.w3.org/Graphics/SVG/1.1/DTD/svg11.dtd">
<svg version="1.1" id="Layer_1" xmlns="http://www.w3.org/2000/svg" xmlns:xlink="http://www.w3.org/1999/xlink" x="0px" y="0px" width="16px" height="16px" viewBox="0 0 16 16" enable-background="new 0 0 16 16" xml:space="preserve">
  <g id="main">
    <g id="icon">
      <path d="M2.5,5.849L1.95,6.246L1.524,6.771L1.248,7.4L1.175,7.744L1.15,8.103L1.18,8.5L1.269,8.877L1.411,9.23L1.602,9.555L1.837,9.847L2.112,10.1L2.422,10.31L2.763,10.48L2.766,10.48L2.332,10.35L1.151,12.47L2.181,12.48L2.92,13.1L3.373,11.55L4.483,13.5L6.571,13.5L6.4,13.41L6.199,13.24L6.033,13.04L5.907,12.81L5.828,12.55L5.8,12.28L5.8,11.02L5.828,10.75L5.907,10.49L6.033,10.26L6.199,10.06L6.4,9.89L6.631,9.764L6.887,9.685L7.16,9.657L7.386,9.657L7.745,9.03L7.618,8.798L7.51,8.547L7.455,8.288L7.495,7.776L7.722,7.316L7.901,7.122L8.122,6.962L9.193,6.334L9.524,6.195L9.88,6.147L10.24,6.196L10.57,6.337L10.85,6.558L11.07,6.852L11.18,7.047L11.5,7.035L11.84,7.048L11.97,6.825L12.19,6.542L12.47,6.328L12.79,6.193L13.15,6.145L13.5,6.192L13.5,0.5L2.5,0.5zz" fill="#FFFFFF" opacity="0.5"/>
      <path d="M2,4.217L3,4.217L3,1L13,1L13,6.165L13.15,6.145L13.5,6.193L13.84,6.332L14,6.429L14,0L2,0zz" fill="#6D6E71"/>
      <path d="M4,4.062L4.638,4.162L5.238,4.356L5.794,4.638L6.297,5L12,5L12,2L4,2zz" fill="#EEAC55"/>
      <path d="M8,7L8.07,7L8.122,6.962L9.193,6.334L9.524,6.195L9.88,6.147L10.24,6.196L10.57,6.337L10.85,6.558L11.07,6.852L11.15,7L11.87,7L11.97,6.825L12,6.787L12,6L8,6zz" fill="#B7B7B7"/>
      <path d="M5.334,11.09L4.8,11.33L4.225,11.48L3.616,11.53L3.017,11.48L2.45,11.34L1.924,11.11L1.446,10.79L0.2754,12.84L1.838,12.85L2.958,14L3.638,11.58L4.318,14L5.438,12.85L5.929,12.85L5.907,12.81L5.828,12.55L5.8,12.28L5.8,11.02L5.824,10.78L5.816,10.77zz" fill="#CB525D"/>
      <path d="M3.015,5.057L2.455,5.23L1.949,5.505L1.507,5.87L1.143,6.311L0.868,6.818L0.6941,7.377L0.6336,7.978L0.6941,8.579L0.868,9.139L1.143,9.646L1.507,10.09L1.949,10.45L2.455,10.73L3.015,10.9L3.616,10.96L4.217,10.9L4.777,10.73L5.284,10.45L5.725,10.09L6.089,9.646L6.364,9.139L6.538,8.579L6.599,7.978L6.538,7.377L6.364,6.818L6.089,6.311L5.725,5.87L5.284,5.505L4.777,5.23L4.217,5.057L3.616,4.996zz" fill="#CB525D"/>
    </g>
    <g id="overlay">
      <path d="M12.4597,14.9205c-0.3104,0.0938,-0.633,0.1414,-0.9597,0.1414s-0.6493,-0.0476,-0.9597,-0.1414l-0.5211,0.9748c-0.0431,0.0806,-0.1427,0.1092,-0.2207,0.0635l-1.0714,-0.6284c-0.0756,-0.0443,-0.1026,-0.1421,-0.0608,-0.2202l0.525,-0.9821c-0.478,-0.4593,-0.8088,-1.041,-0.9599,-1.6879H7.1603c-0.0886,0,-0.1603,-0.0732,-0.1603,-0.1636v-1.256c0,-0.0904,0.0718,-0.1636,0.1603,-0.1636h1.0711c0.1511,-0.6469,0.4819,-1.2286,0.9599,-1.6879l-0.5224,-0.9497c-0.043,-0.0782,-0.0163,-0.1772,0.0599,-0.2219l1.0714,-0.6285c0.0773,-0.0454,0.1761,-0.0176,0.2197,0.0618l0.5203,0.9459c0.3104,-0.0938,0.633,-0.1414,0.9597,-0.1414s0.6493,0.0476,0.9597,0.1414l0.5501,-0.9507c0.0447,-0.0772,0.1419,-0.1033,0.218,-0.0587l1.0714,0.6285c0.0774,0.0454,0.1035,0.1465,0.0582,0.225l-0.5487,0.9484c0.478,0.4593,0.8088,1.041,0.9599,1.6879h1.0712c0.0886,0,0.1603,0.0732,0.1603,0.1636v1.256c0,0.0904,-0.0718,0.1636,-0.1603,0.1636h-1.0712c-0.1511,0.6469,-0.4818,1.2286,-0.9599,1.6879l0.5514,0.9808c0.044,0.0783,0.0176,0.1782,-0.0592,0.2232l-1.0714,0.6285c-0.0768,0.0451,-0.1749,0.018,-0.219,-0.0604L12.4597,14.9205zM11.5001,9.9651c-0.9098,0,-1.6499,0.7552,-1.6499,1.6835s0.7402,1.6835,1.6499,1.6835s1.6499,-0.7552,1.6499,-1.6835S12.4098,9.9651,11.5001,9.9651z" fill="#7B7B7B"/>
    </g>
  </g>
</svg>
