<?xml version="1.0" encoding="UTF-8"?>
<!DOCTYPE svg PUBLIC "-//W3C//DTD SVG 1.1//EN" "http://www.w3.org/Graphics/SVG/1.1/DTD/svg11.dtd">
<svg version="1.1" id="Layer_1" xmlns="http://www.w3.org/2000/svg" xmlns:xlink="http://www.w3.org/1999/xlink" x="0px" y="0px" width="16px" height="16px" viewBox="0 0 16 16" enable-background="new 0 0 16 16" xml:space="preserve">
  <g id="main">
    <g id="icon">
      <path d="M9.348,0.2717L8.493,1.764L7.756,1.598L7,1.542L6.244,1.598L5.507,1.764L4.698,0.2795L4.546,0.1576L4.356,0.1824L2.689,1.169L2.573,1.323L2.596,1.517L3.409,3.007L2.895,3.583L2.471,4.221L2.144,4.916L1.916,5.656L0.2494,5.656L0.07305,5.732L0,5.913L0,7.884L0.07305,8.066L0.2494,8.141L1.916,8.141L2.144,8.882L2.471,9.576L2.895,10.21L3.409,10.79L2.592,12.33L2.571,12.52L2.687,12.68L4.353,13.66L4.545,13.69L4.697,13.56L5.507,12.03L6.244,12.2L7,12.26L7.331,12.23L10.14,6.646L10.38,6.293L10.7,6.027L11.08,5.859L11.5,5.8L11.92,5.859L12.3,6.027L12.62,6.293L12.86,6.646L13.61,8.141L13.75,8.141L13.93,8.066L14,7.884L14,5.913L13.93,5.732L13.75,5.656L12.08,5.656L11.86,4.916L11.53,4.221L11.11,3.583L10.59,3.007L11.44,1.519L11.47,1.323L11.35,1.166L9.688,0.1797L9.5,0.1539zM7.484,4.473L7.935,4.618L8.344,4.846L8.7,5.149L8.994,5.515L9.216,5.936L9.356,6.4L9.405,6.899L9.356,7.397L9.216,7.861L8.994,8.282L8.7,8.648L8.344,8.951L7.935,9.179L7.484,9.324L7,9.374L6.516,9.324L6.065,9.179L5.656,8.951L5.3,8.648L5.006,8.282L4.784,7.861L4.644,7.397L4.595,6.899L4.644,6.4L4.784,5.936L5.006,5.515L5.3,5.149L5.656,4.846L6.065,4.618L6.516,4.473L7,4.423zz" fill="#6D6E71"/>
    </g>
    <g id="overlay">
      <path d="M15.9604,15.4826l-4.1718,-8.298c-0.1237,-0.2461,-0.4533,-0.2461,-0.5771,0l-4.1718,8.298c-0.1176,0.2338,0.0406,0.5174,0.2885,0.5174h8.3437C15.9198,16,16.0779,15.7164,15.9604,15.4826zM12.2,15h-1.4v-1h1.4V15zM12.2,13h-1.4V9.5h1.4V13z" fill="#EEAC55"/>
      <path d="M12.2,13h-1.4V9.5h1.4V13zM12.2,14h-1.4v1h1.4V14z" fill="#4F4F51"/>
    </g>
  </g>
</svg>
