<?xml version="1.0" encoding="UTF-8"?>
<!DOCTYPE svg PUBLIC "-//W3C//DTD SVG 1.1//EN" "http://www.w3.org/Graphics/SVG/1.1/DTD/svg11.dtd">
<svg version="1.1" id="Layer_1" xmlns="http://www.w3.org/2000/svg" xmlns:xlink="http://www.w3.org/1999/xlink" x="0px" y="0px" width="16px" height="16px" viewBox="0 0 16 16" enable-background="new 0 0 16 16" xml:space="preserve">
  <g id="main">
    <g id="icon">
      <path d="M9.348,0.2717L8.493,1.764L7.756,1.598L7,1.542L6.244,1.598L5.507,1.764L4.698,0.2795L4.546,0.1576L4.356,0.1824L2.689,1.169L2.573,1.323L2.596,1.517L3.409,3.007L2.895,3.583L2.471,4.221L2.144,4.916L1.916,5.656L0.2494,5.656L0.07305,5.732L0,5.913L0,7.884L0.07305,8.066L0.2494,8.141L1.916,8.141L2.144,8.882L2.471,9.576L2.895,10.21L3.409,10.79L2.592,12.33L2.571,12.52L2.687,12.68L4.353,13.66L4.545,13.69L4.697,13.56L5.507,12.03L5.836,12.11L5.8,11.5L5.829,10.92L5.916,10.35L6.057,9.807L6.249,9.283L6.268,9.244L6.065,9.179L5.656,8.951L5.3,8.648L5.006,8.282L4.784,7.861L4.644,7.397L4.595,6.899L4.644,6.4L4.784,5.936L5.006,5.515L5.3,5.149L5.656,4.846L6.065,4.618L6.516,4.473L7,4.423L7.484,4.473L7.935,4.618L8.344,4.846L8.7,5.149L8.994,5.515L9.216,5.936L9.308,6.24L9.807,6.057L10.35,5.916L10.92,5.829L11.5,5.8L12.18,5.84L12.83,5.956L13.45,6.145L14,6.381L14,5.913L13.93,5.732L13.75,5.656L12.08,5.656L11.86,4.916L11.53,4.221L11.11,3.583L10.59,3.007L11.44,1.519L11.47,1.323L11.35,1.166L9.688,0.1797L9.5,0.1539zz" fill="#6D6E71"/>
    </g>
    <g id="overlay">
      <path d="M11.5,7c-2.4853,0,-4.5,2.0147,-4.5,4.5s2.0147,4.5,4.5,4.5c2.4853,0,4.5,-2.0147,4.5,-4.5S13.9853,7,11.5,7zM10.7004,14.1607l-2.4222,-2.4221l1,-1l1.4214,1.4214l2.9821,-2.9071l1.0001,1.0001L10.7004,14.1607z" fill="#52B250"/>
      <polygon points="8.2782,11.7386 9.2783,10.7385 10.6997,12.1599 13.6817,9.2528 14.6819,10.2529 10.7004,14.1607" fill="#FFFFFF" stroke-linejoin="miter"/>
    </g>
  </g>
</svg>
