<?xml version="1.0" encoding="UTF-8"?>
<!DOCTYPE svg PUBLIC "-//W3C//DTD SVG 1.1//EN" "http://www.w3.org/Graphics/SVG/1.1/DTD/svg11.dtd">
<svg version="1.1" id="Layer_1" xmlns="http://www.w3.org/2000/svg" xmlns:xlink="http://www.w3.org/1999/xlink" x="0px" y="0px" width="24px" height="24px" viewBox="0 0 24 24" enable-background="new 0 0 24 24" xml:space="preserve">
  <g id="icon">
    <polygon points="17.525,0 5,0 5,9 7,9 7,2 17,2 17,7.025 22,7 22,22 16,22 16,24 24,24 24,6.5" fill="#7B7B7B" stroke-linejoin="miter"/>
    <path d="M5.2853,20.4434c0.485,0.7315,-0.0101,1.7993,-1.1059,2.3849c-1.0958,0.5856,-2.6875,0.4673,-3.1726,-0.2642s0.1652,-1.7993,1.261,-2.3849C3.3637,19.5936,4.8003,19.7119,5.2853,20.4434zM10.0361,19.4011c-1.0904,0.5856,-1.7381,1.6534,-1.2555,2.3849s2.0679,0.8498,3.1584,0.2642s1.5831,-1.6534,1.1005,-2.3849C12.5568,18.9337,11.1265,18.8154,10.0361,19.4011z" fill="#FFFFFF" opacity="0.5"/>
    <path d="M2.7178,23.9747c-1.0546,0,-1.9077,-0.3742,-2.3405,-1.0269c-0.2958,-0.4461,-0.3821,-0.9948,-0.2432,-1.5451c0.205,-0.8122,0.8858,-1.5956,1.8212,-2.0954c0.5846,-0.3124,1.2396,-0.4775,1.8943,-0.4775c0.9908,0,1.8375,0.3851,2.2652,1.03c0.3179,0.4794,0.4112,1.0671,0.2629,1.655c-0.2012,0.7968,-0.8156,1.5205,-1.6858,1.9855C4.1196,23.8063,3.4185,23.9747,2.7178,23.9747L2.7178,23.9747zM3.861,20.5834c-0.3738,0,-0.7576,0.0951,-1.0806,0.2677c-0.5603,0.2995,-0.8804,0.708,-0.949,0.98c-0.026,0.1027,-0.0044,0.1354,0.0048,0.1494c0.0807,0.1216,0.4377,0.2475,0.8957,0.2475c0,0,0.0001,0,0.0001,0c0.404,0,0.807,-0.0964,1.1348,-0.2715c0.5061,-0.2706,0.7521,-0.6269,0.8135,-0.8702c0.0406,-0.1607,-0.0067,-0.2323,-0.0245,-0.2592C4.578,20.7098,4.296,20.5834,3.861,20.5834zM10.4837,23.1969c-1.0517,0,-1.9023,-0.375,-2.3336,-1.0289c-0.2944,-0.4461,-0.3799,-0.9947,-0.241,-1.5448c0.2048,-0.8111,0.8825,-1.5936,1.8129,-2.0933c0.5831,-0.3131,1.2364,-0.4786,1.8894,-0.4786c0.988,0,1.8324,0.3857,2.2587,1.0318c0.3165,0.4796,0.409,1.0675,0.2605,1.6554c-0.2009,0.7954,-0.8124,1.518,-1.6775,1.9826C11.8821,23.028,11.1827,23.1969,10.4837,23.1969zM11.6221,19.8052c-0.3708,0,-0.7514,0.0948,-1.0718,0.2669c-0.5566,0.2989,-0.8751,0.7074,-0.9439,0.9797c-0.0264,0.1046,-0.0045,0.138,0.0048,0.1522c0.0798,0.1209,0.4336,0.246,0.8873,0.2461c0,0,0.0001,0,0.0001,0c0.4009,0,0.8008,-0.0962,1.1262,-0.271c0.5025,-0.2698,0.7471,-0.6259,0.8085,-0.8691c0.0411,-0.1628,-0.0065,-0.2354,-0.0244,-0.2627C12.3319,19.9307,12.0529,19.8052,11.6221,19.8052z" fill="#52B250"/>
    <polygon points="13.2247,12.9316 5.3171,14.451 5.3171,11.5071 13.2247,9.9877" fill="#FFFFFF" stroke-linejoin="miter" opacity="0.5"/>
    <path d="M22,7v15h-6h-0.8V7.8059L7,9.2872V9V2h10v5.025L22,7z" fill="#FFFFFF" opacity="0.4"/>
    <path d="M4.6969,21.0298V10.7392L14.2,9.0224v11.0771h-1.7505v-6.1843l-6.0021,1.0844v6.0302H4.6969zM6.4474,13.2207l6.0021,-1.0843v-1.0188l-6.0021,1.0842V13.2207z" fill="#52B250"/>
  </g>
</svg>
