<?xml version="1.0" encoding="UTF-8"?>
<!DOCTYPE svg PUBLIC "-//W3C//DTD SVG 1.1//EN" "http://www.w3.org/Graphics/SVG/1.1/DTD/svg11.dtd">
<svg version="1.1" id="Layer_1" xmlns="http://www.w3.org/2000/svg" xmlns:xlink="http://www.w3.org/1999/xlink" x="0px" y="0px" width="24px" height="24px" viewBox="0 0 24 24" enable-background="new 0 0 24 24" xml:space="preserve">
  <g id="icon">
    <path d="M1,6v16h22V6H1z" fill="#FFFFFF" opacity="0.4"/>
    <path d="M19,4h-2V0h2V4zM7,4H5V0h2V4z" fill="#7B7B7B"/>
    <polygon points="20,2 20,5 16,5 16,2 8,2 8,5 4,5 4,2 0,2 0,7 24,7 24,2" fill="#9070B1" stroke-linejoin="miter"/>
    <polygon points="22,7 22,21 2,21 2,7 0,7 0,23 24,23 24,7" fill="#7B7B7B" stroke-linejoin="miter"/>
    <path d="M4.7,19.2v-1.3389l3.243,-3.3769c0.2542,-0.2563,0.4942,-0.5045,0.7158,-0.7398c0.1968,-0.2091,0.3713,-0.4237,0.5187,-0.638c0.1313,-0.1908,0.237,-0.3923,0.3139,-0.5987c0.0649,-0.1741,0.0978,-0.3697,0.0978,-0.5813c0,-0.2484,-0.0374,-0.4508,-0.1111,-0.6015c-0.0783,-0.1597,-0.1733,-0.284,-0.2906,-0.3799c-0.1262,-0.1031,-0.2689,-0.1777,-0.4362,-0.2279c-0.1924,-0.0577,-0.4027,-0.0882,-0.6084,-0.0882c-0.2215,0,-0.4352,0.0347,-0.618,0.1002c-0.1812,0.065,-0.3349,0.1533,-0.4698,0.2697c-0.1311,0.1132,-0.2371,0.2502,-0.3239,0.4188c-0.0912,0.1769,-0.1529,0.3842,-0.1834,0.6163l-0.0261,0.1983l-1.8129,-0.2392l0.0262,-0.1983c0.0583,-0.4417,0.1831,-0.8503,0.3709,-1.2148c0.1935,-0.3752,0.4473,-0.7,0.7544,-0.9652c0.304,-0.2623,0.6563,-0.4664,1.0473,-0.6067C7.2919,8.8699,7.7104,8.8,8.1515,8.8c0.3801,0,0.7585,0.0557,1.1248,0.1655c0.397,0.1189,0.7564,0.3086,1.0685,0.5637c0.3208,0.2623,0.5817,0.5959,0.7756,0.9917c0.1973,0.4033,0.2973,0.8762,0.2973,1.4055c0,0.4303,-0.0716,0.8408,-0.2129,1.2199c-0.1292,0.3467,-0.3044,0.6821,-0.5208,0.9967c-0.2,0.2906,-0.4334,0.5782,-0.6938,0.8548c-0.2334,0.2479,-0.4819,0.5049,-0.7387,0.7637l-1.5461,1.61h3.6803V19.2H4.7z" fill="#CB525D"/>
    <path d="M16.1535,19.1847c-0.4684,0,-0.8872,-0.0621,-1.2449,-0.1846c-0.3518,-0.1201,-0.6621,-0.2792,-0.922,-0.4728c-0.2618,-0.1946,-0.4805,-0.4158,-0.6498,-0.6573c-0.1483,-0.2113,-0.2678,-0.421,-0.3552,-0.6231c-0.0836,-0.1937,-0.1432,-0.3641,-0.1819,-0.5211c-0.0134,-0.0538,-0.0299,-0.1234,-0.0443,-0.1839c0,0,-0.0203,-0.0857,-0.0244,-0.1016l-0.0489,-0.1903l1.7584,-0.4848l0.0539,0.1916c0.0053,0.0189,0.0215,0.0846,0.0401,0.1626c0.013,0.0548,0.0279,0.1176,0.0401,0.1667c0.0081,0.0328,0.03,0.1068,0.0856,0.2353c0.0382,0.0885,0.0967,0.189,0.1737,0.2988c0.057,0.0813,0.1392,0.1621,0.2442,0.2401c0.1077,0.0802,0.2496,0.1507,0.4222,0.2097c0.1672,0.0572,0.387,0.0862,0.6532,0.0862c0.2847,0,0.5262,-0.0439,0.7177,-0.1307c0.2031,-0.092,0.3702,-0.2059,0.4967,-0.3387c0.1288,-0.1351,0.2217,-0.2769,0.2842,-0.4335c0.0617,-0.1548,0.093,-0.3004,0.093,-0.4326c0,-0.1794,-0.0285,-0.3381,-0.0871,-0.4853c-0.0465,-0.1162,-0.121,-0.2174,-0.2278,-0.3094c-0.1241,-0.1069,-0.2993,-0.1968,-0.5205,-0.2674c-0.3031,-0.0966,-0.6006,-0.1429,-0.9361,-0.1458l-0.9064,-0.0078v-1.8199l0.8842,-0.0292c0.2377,-0.0079,0.475,-0.0894,0.7263,-0.1756c0.1932,-0.0665,0.3539,-0.1539,0.4774,-0.2599c0.1138,-0.0974,0.1984,-0.2077,0.2589,-0.3374c0.059,-0.1266,0.0877,-0.2707,0.0877,-0.4404c0,-0.2201,-0.0315,-0.3992,-0.0936,-0.5323c-0.0612,-0.131,-0.1366,-0.232,-0.2306,-0.3087c-0.1074,-0.0876,-0.23,-0.1515,-0.3748,-0.195c-0.1697,-0.0508,-0.3575,-0.0777,-0.5429,-0.0777c-0.2027,0,-0.3954,0.0314,-0.5573,0.091c-0.1626,0.0598,-0.299,0.1394,-0.4171,0.2433c-0.1228,0.1079,-0.2228,0.2344,-0.3057,0.3868c-0.0859,0.1578,-0.1746,0.4243,-0.2064,0.6201l-0.0321,0.1974l-1.8048,-0.2934l0.0321,-0.1974c0.0642,-0.395,0.2232,-0.8663,0.4051,-1.2008c0.1849,-0.3396,0.4218,-0.6377,0.7043,-0.8859c0.2865,-0.2521,0.6209,-0.4494,0.9938,-0.5864C15.4395,8.8685,15.8402,8.8,16.263,8.8c0.3632,0,0.7216,0.0522,1.0652,0.1553c0.3743,0.1124,0.7127,0.2907,1.0061,0.5301c0.3072,0.251,0.553,0.571,0.7307,0.9513c0.1761,0.3772,0.2654,0.8166,0.2654,1.306c0,0.4362,-0.0871,0.8444,-0.2589,1.213c-0.1382,0.2965,-0.325,0.5634,-0.5566,0.7959c0.0372,0.0288,0.0734,0.0583,0.1084,0.0885c0.3306,0.2847,0.5772,0.6271,0.7333,1.0179c0.1441,0.3617,0.2172,0.7529,0.2172,1.1627c0,0.3652,-0.0751,0.7386,-0.2231,1.11c-0.1485,0.3722,-0.3702,0.7146,-0.6587,1.0174c-0.2893,0.3037,-0.6481,0.5537,-1.0664,0.743C17.1954,19.0859,16.7001,19.1847,16.1535,19.1847z" fill="#CB525D"/>
  </g>
</svg>
