<?xml version="1.0" encoding="UTF-8"?>
<!DOCTYPE svg PUBLIC "-//W3C//DTD SVG 1.1//EN" "http://www.w3.org/Graphics/SVG/1.1/DTD/svg11.dtd">
<svg version="1.1" id="Layer_1" xmlns="http://www.w3.org/2000/svg" xmlns:xlink="http://www.w3.org/1999/xlink" x="0px" y="0px" width="24px" height="24px" viewBox="0 0 24 24" enable-background="new 0 0 24 24" xml:space="preserve">
  <g id="icon">
    <path d="M24,6.5v17.5H5v-0.2734c0.8392,-0.7458,1.4865,-1.61,2,-2.4578V22h15V7l-5,0.025V2H7v2.7171c-0.8183,0.129,-1.5211,0.5471,-2,1.1832V0h12.525L24,6.5z" fill="#7B7B7B"/>
    <path d="M22,7v15H7v-0.7312c0.2784,-0.4597,0.5185,-0.9145,0.7275,-1.3423c0.1616,-0.0626,0.3368,-0.1293,0.5355,-0.204c0.9366,-0.3516,1.9312,-0.674,3.0262,-0.9807c0.9083,0.5855,2.5176,1.4053,4.405,1.4053c0.403,0,0.8024,-0.0379,1.1872,-0.1127c0.8284,-0.1609,1.5282,-0.623,1.9705,-1.3013c0.4384,-0.6725,0.5786,-1.4891,0.3946,-2.2994c-0.1383,-0.6093,-0.6071,-1.7286,-2.1938,-2.3791c-0.6229,-0.2554,-1.2894,-0.3795,-2.0377,-0.3795c-0.9571,0,-1.8604,0.2138,-2.5201,0.37c-0.0628,0.0148,-0.1253,0.0297,-0.1875,0.0446c-0.6972,-0.6382,-1.3616,-1.2795,-1.9355,-1.9612c0.0204,-0.1251,0.0395,-0.2497,0.0571,-0.3729c0.1324,-0.9247,0.197,-1.9099,0.1977,-3.0117c0.0003,-0.6393,0.0012,-2.3373,-1.2076,-3.3743c-0.3692,-0.3167,-0.9987,-0.6942,-1.9003,-0.6942c-0.1668,0,-0.338,0.0134,-0.5086,0.0398c-0.0034,0.0005,-0.0067,0.0013,-0.0101,0.0018V2h10v5.025L22,7z" fill="#FFFFFF" opacity="0.4"/>
    <path d="M1.8431,23.9217c-0.5288,0,-0.9908,-0.2012,-1.3361,-0.5818c-0.3072,-0.3387,-0.4556,-0.7522,-0.429,-1.1959c0.054,-0.902,0.7895,-1.6114,1.4746,-2.2055l0.0768,-0.0668c1.0052,-0.8803,2.2236,-1.6161,3.8313,-2.3136c0.0955,-0.2176,0.1871,-0.431,0.2757,-0.6375c0.6266,-1.4604,1.0779,-2.7882,1.379,-4.0572c-0.0661,-0.1005,-0.1307,-0.2024,-0.1923,-0.3035c-0.5426,-0.8906,-0.9436,-1.8501,-1.1917,-2.8519c-0.2134,-0.8612,-0.4287,-2.109,0.1628,-2.9976c0.2952,-0.4435,0.7444,-0.7232,1.2991,-0.8089c0.1103,-0.0171,0.2197,-0.0258,0.3253,-0.0258c0.5345,0,0.9036,0.2203,1.1191,0.4051c0.7,0.6005,0.7893,1.6316,0.7889,2.4628c-0.0006,1.0445,-0.0613,1.9743,-0.1855,2.8423c-0.0408,0.2854,-0.0899,0.5779,-0.1461,0.87c0.8145,1.061,1.8254,2.0025,2.8784,2.9513c0.2601,-0.065,0.526,-0.1296,0.7981,-0.1941c0.6361,-0.1506,1.4266,-0.3377,2.2436,-0.3377c0.5892,0,1.1068,0.0948,1.5825,0.2898c1.0302,0.4224,1.3728,1.0675,1.4787,1.5343c0.1114,0.4909,0.0299,0.9804,-0.2296,1.3785c-0.2632,0.4037,-0.6873,0.6802,-1.1941,0.7787c-0.3097,0.0602,-0.6321,0.0907,-0.9583,0.0907c-1.9315,0,-3.5421,-1.0327,-4.1832,-1.5101c-1.3461,0.3603,-2.547,0.7405,-3.6698,1.1621c-0.3943,0.1481,-0.7029,0.2675,-0.9938,0.3848c-0.5666,1.2173,-1.3847,2.7505,-2.6995,3.8957c-0.7714,0.672,-1.5898,1.0421,-2.3044,1.0421H1.8431zM3.8283,20.5157c-0.3569,0.239,-0.6853,0.4895,-0.9804,0.7479l-0.0832,0.0723c-0.3756,0.3258,-0.5873,0.5461,-0.7048,0.6944c0.2063,-0.0746,0.5229,-0.2409,0.8728,-0.5457C3.247,21.2108,3.5425,20.8914,3.8283,20.5157zM14.189,16.8023c0.5278,0.192,1.0489,0.2926,1.5234,0.2926c0,0,0.0001,0,0.0001,0c0.1742,0,0.3441,-0.0135,0.5063,-0.0401c-0.0546,-0.0442,-0.1552,-0.1093,-0.3231,-0.1782c-0.2485,-0.1019,-0.5369,-0.1514,-0.8814,-0.1514C14.7705,16.7252,14.5029,16.75,14.189,16.8023zM8.5428,14.6604c-0.1936,0.6333,-0.4237,1.2923,-0.6859,1.9644c0.6416,-0.2265,1.3004,-0.4389,2.0028,-0.6457C9.3476,15.4982,8.9232,15.0732,8.5428,14.6604zM7.4319,7.7395c-0.0282,0.0501,-0.1841,0.3959,0.0952,1.5235c0.0127,0.0511,0.0259,0.1022,0.0396,0.1533c0.0065,-0.2191,0.0098,-0.4444,0.01,-0.674c0.0003,-0.6422,-0.0756,-0.9089,-0.1195,-1.0095C7.4443,7.7354,7.4364,7.7378,7.4319,7.7395z" fill="#CB525D"/>
  </g>
</svg>
