<?xml version="1.0" encoding="UTF-8"?>
<!DOCTYPE svg PUBLIC "-//W3C//DTD SVG 1.1//EN" "http://www.w3.org/Graphics/SVG/1.1/DTD/svg11.dtd">
<svg version="1.1" id="Layer_1" xmlns="http://www.w3.org/2000/svg" xmlns:xlink="http://www.w3.org/1999/xlink" x="0px" y="0px" width="16px" height="16px" viewBox="0 0 16 16" enable-background="new 0 0 16 16" xml:space="preserve">
  <g id="icon">
    <path d="M1,0v16h13V4.65L9.3625,0H1zM13,15H2V1h7v4.0125L13,5V15z" fill="#6D6E71"/>
    <polygon points="13,15 2,15 2,1 9,1 9,5.0125 13,5" fill="#FFFFFF" stroke-linejoin="miter" opacity="0.5"/>
	<rect x="6.5" y="6.5" width="9" height="9" fill="#FFFFFF" opacity="1"/>
    <path d="M16,16H6V6h10V16zM7,15h8V7H7V15z" fill="#54B14E"/>
    <polygon points="13.4633,8.34 12.6399,7.7725 11.0032,10.1471 9.3665,7.7725 8.5432,8.34 10.396,11.0281 8.5432,13.7163 9.3665,14.2837 11.0032,11.9091 12.6399,14.2837 13.4633,13.7163 11.6105,11.0281" fill="#54B14E" stroke-linejoin="miter"/>
  </g>
</svg>
