<?xml version="1.0" encoding="UTF-8"?>
<!DOCTYPE svg PUBLIC "-//W3C//DTD SVG 1.1//EN" "http://www.w3.org/Graphics/SVG/1.1/DTD/svg11.dtd">
<svg version="1.1" id="Layer_1" xmlns="http://www.w3.org/2000/svg" xmlns:xlink="http://www.w3.org/1999/xlink" x="0px" y="0px" width="16px" height="16px" viewBox="0 0 16 16" enable-background="new 0 0 16 16" xml:space="preserve">
  <g id="icon">
    <path d="M11.5167,14.3H3.4833c-0.4326,0,-0.7833,-0.3507,-0.7833,-0.7833V2.4833C2.7,2.0507,3.0507,1.7,3.4833,1.7H9.25L12.3,4.8v8.7167C12.3,13.9493,11.9493,14.3,11.5167,14.3z" id="b" fill="#F5F5F5"/>
    <path d="M12,10.6118V13c0,0.5523,-0.4477,1,-1,1H4c-0.5523,0,-1,-0.4477,-1,-1V3c0,-0.5523,0.4477,-1,1,-1h4v2.5c0,0.7928,0.6154,1.4402,1.3943,1.4947L10.389,5H9.5c-0.2761,0,-0.5,-0.2239,-0.5,-0.5V2.2071l2.091,2.091l0.5502,-0.5501c0.0527,-0.0527,0.1077,-0.1024,0.1641,-0.1499L9.6464,1.4393C9.3651,1.158,8.9836,1,8.5858,1H4c-1.1046,0,-2,0.8954,-2,2v10c0,1.1046,0.8954,2,2,2h7c1.1046,0,2,-0.8954,2,-2V9.6118L12,10.6118z" id="c1" fill="#404040"/>
    <path d="M13.447,4.6523c-0.2409,0,-0.4672,0.0938,-0.6374,0.2641L8.2569,9.4688c-0.0944,0.0944,-0.1606,0.2129,-0.1916,0.3428l-0.3511,1.4744l1.4744,-0.351c0.1298,-0.0309,0.2484,-0.0971,0.3429,-0.1916l4.5527,-4.5525c0.1701,-0.1701,0.2638,-0.3964,0.2638,-0.6373c0,-0.2409,-0.0937,-0.4672,-0.2638,-0.6373C13.9141,4.746,13.6877,4.6523,13.447,4.6523z" id="b" fill="#F5F5F5"/>
    <path d="M7.4765,11.9998c-0.1272,0,-0.2468,-0.0495,-0.3367,-0.1394c-0.1179,-0.1179,-0.1652,-0.285,-0.1266,-0.447l0.4174,-1.7528c0.0589,-0.2473,0.1851,-0.4732,0.365,-0.653l4.5527,-4.5525C12.6417,4.1616,13.0319,4,13.447,4s0.8052,0.1616,1.0987,0.455c0.6058,0.6056,0.6058,1.5912,0.0001,2.197L9.993,11.2045c-0.1799,0.1799,-0.4058,0.3061,-0.6532,0.365l-1.753,0.4173C7.5507,11.9954,7.5136,11.9998,7.4765,11.9998zM13.8721,5.9786c0.2345,-0.2344,0.2345,-0.6158,0,-0.8503c-0.1135,-0.1135,-0.2645,-0.1761,-0.4251,-0.1761c-0.1606,0,-0.3117,0.0625,-0.4252,0.1761L8.469,9.6809c-0.0552,0.0552,-0.0938,0.1244,-0.1119,0.2002l-0.2382,1.0001l1.0001,-0.2381c0.0759,-0.0181,0.1452,-0.0568,0.2004,-0.1119L13.8721,5.9786z" id="c2" fill="#404040"/>
  </g>
</svg>
