<?xml version="1.0" encoding="UTF-8"?>
<!DOCTYPE svg PUBLIC "-//W3C//DTD SVG 1.1//EN" "http://www.w3.org/Graphics/SVG/1.1/DTD/svg11.dtd">
<svg version="1.1" id="Layer_1" xmlns="http://www.w3.org/2000/svg" xmlns:xlink="http://www.w3.org/1999/xlink" x="0px" y="0px" width="16px" height="16px" viewBox="0 0 16 16" enable-background="new 0 0 16 16" xml:space="preserve">
  <g id="icon">
    <path d="M13.4,4.5c0,-1.0493,-0.8507,-1.9,-1.9,-1.9c-0.8127,0,-1.5043,0.5112,-1.7757,1.2289C9.1733,3.6172,8.5755,3.5,7.95,3.5s-1.2233,0.1172,-1.7743,0.3289C5.9043,3.1112,5.2127,2.6,4.4,2.6c-1.0493,0,-1.9,0.8507,-1.9,1.9c0,0.7411,0.4252,1.3814,1.0441,1.6947C3.1971,6.8712,3,7.6374,3,8.45c0,2.7338,2.2162,4.95,4.95,4.95S12.9,11.1838,12.9,8.45c0,-0.8126,-0.1971,-1.5788,-0.5441,-2.2553C12.9748,5.8814,13.4,5.2411,13.4,4.5z" id="b" fill="#F5F5F5"/>
    <path d="M2,4.5c0,-1.3807,1.1193,-2.5,2.5,-2.5c0.8944,0,1.6783,0.4696,2.12,1.1746C7.061,3.0606,7.5234,3,8,3s0.939,0.0606,1.38,0.1746C9.8217,2.4696,10.6056,2,11.5,2c1.3807,0,2.5,1.1193,2.5,2.5c0,0.7748,-0.3526,1.4669,-0.9049,1.925C13.3562,7.0653,13.5,7.7659,13.5,8.5c0,1.3387,-0.4783,2.5657,-1.2733,3.5195l1.127,1.1269c0.1952,0.1953,0.1952,0.5119,0,0.7071c-0.1953,0.1953,-0.5119,0.1953,-0.7072,0l-1.1269,-1.1269C10.5658,13.5217,9.3388,14,8,14c-1.3387,0,-2.5658,-0.4783,-3.5195,-1.2733l-1.1269,1.1268c-0.1953,0.1953,-0.5119,0.1953,-0.7071,0c-0.1953,-0.1952,-0.1953,-0.5118,0,-0.7071l1.1269,-1.1268C2.9783,11.0658,2.5,9.8388,2.5,8.5c0,-0.7341,0.1438,-1.4347,0.4049,-2.075C2.3526,5.9669,2,5.2748,2,4.5zM4.5,3c-0.8284,0,-1.5,0.6716,-1.5,1.5c0,0.3862,0.1459,0.7387,0.3863,1.0049c0.5529,-0.85,1.3343,-1.5377,2.2572,-1.9759C5.3681,3.2051,4.9577,3,4.5,3zM10.3565,3.529c0.9229,0.4383,1.7043,1.1259,2.2572,1.9759C12.8541,5.2387,13,4.8862,13,4.5c0,-0.8284,-0.6716,-1.5,-1.5,-1.5C11.0423,3,10.6319,3.2051,10.3565,3.529zM8,4c-2.4853,0,-4.5,2.0147,-4.5,4.5c0,2.4853,2.0147,4.5,4.5,4.5c2.4853,0,4.5,-2.0147,4.5,-4.5c0,-1.1597,-0.4387,-2.2169,-1.1591,-3.0147c-0.1176,-0.1302,-0.2426,-0.2535,-0.3745,-0.3692C10.1744,4.4212,9.1364,4,8,4z" id="c1" fill="#404040"/>
    <path d="M8.0001,6c0,-0.2761,-0.2239,-0.5,-0.5,-0.5c-0.2761,0,-0.5,0.2239,-0.5,0.5v3c0,0.2761,0.2239,0.5,0.5,0.5h2c0.2761,0,0.5,-0.2239,0.5,-0.5c0,-0.2762,-0.2239,-0.5,-0.5,-0.5h-1.5V6z" id="c2" fill="#404040"/>
  </g>
</svg>
