<?xml version="1.0" encoding="UTF-8"?>
<!DOCTYPE svg PUBLIC "-//W3C//DTD SVG 1.1//EN" "http://www.w3.org/Graphics/SVG/1.1/DTD/svg11.dtd">
<svg version="1.1" id="Layer_1" xmlns="http://www.w3.org/2000/svg" xmlns:xlink="http://www.w3.org/1999/xlink" x="0px" y="0px" width="16px" height="16px" viewBox="0 0 16 16" enable-background="new 0 0 16 16" xml:space="preserve">
  <g id="icon">
    <circle cx="9.4503" cy="6.5497" r="4.8344" id="b" fill="#F5F5F5"/>
    <path d="M1.7293,15c-0.1948,0,-0.3781,-0.0759,-0.516,-0.2136c-0.2844,-0.2846,-0.2844,-0.7476,-0.0001,-1.032L5.067,9.9007c-0.7458,-0.9718,-1.1394,-2.1326,-1.1394,-3.3647C3.9276,3.4834,6.4112,1,9.4639,1C12.5165,1,15,3.4834,15,6.536s-2.4835,5.536,-5.5361,5.536c-1.232,0,-2.3928,-0.3935,-3.3648,-1.1394l-3.8537,3.8537C2.1074,14.9241,1.9242,15,1.7293,15zM9.4639,2.4593c-2.248,0,-4.0768,1.8288,-4.0768,4.0767s1.8289,4.0767,4.0768,4.0767s4.0768,-1.8288,4.0768,-4.0767S11.7118,2.4593,9.4639,2.4593z" fill="#404040"/>
  </g>
</svg>
