<?xml version="1.0" encoding="UTF-8"?>
<!DOCTYPE svg PUBLIC "-//W3C//DTD SVG 1.1//EN" "http://www.w3.org/Graphics/SVG/1.1/DTD/svg11.dtd">
<svg version="1.1" id="Layer_1" xmlns="http://www.w3.org/2000/svg" xmlns:xlink="http://www.w3.org/1999/xlink" x="0px" y="0px" width="16px" height="16px" viewBox="0 0 16 16" enable-background="new 0 0 16 16" xml:space="preserve">
  <g id="main">
    <g id="icon">
      <path d="M0.9885,0.5629L0.7342,0.7342L0.5629,0.9885L0.5,1.3L0.5,13.7L0.5629,14.01L0.7342,14.27L0.9885,14.44L1.3,14.5L7,14.5L7,11L7,10.04L7,9L7.041,8.597L7.157,8.222L7.342,7.883L7.587,7.587L7.883,7.342L8.222,7.157L8.597,7.041L9,7L13.5,7L13.5,1.3L13.44,0.9885L13.27,0.7342L13.01,0.5629L12.7,0.5L1.3,0.5zz" fill="#FFFFFF"/>
      <path d="M1.201,0.009961L0.8896,0.07266L0.7918,0.09238L0.709,0.1482L0.4547,0.3197L0.374,0.374L0.3197,0.4547L0.1482,0.709L0.09238,0.7918L0.07266,0.8896L0.009961,1.201L0,1.25L0,1.3L0,13.7L0,13.75L0.009961,13.8L0.07266,14.11L0.09238,14.21L0.1482,14.29L0.3197,14.55L0.374,14.63L0.4547,14.68L0.709,14.85L0.7918,14.91L0.8896,14.93L1.201,14.99L1.25,15L1.3,15L7,15L7,14L1.35,14L1.185,13.97L1.094,13.91L1.033,13.81L1,13.65L1,1.35L1.033,1.185L1.094,1.094L1.185,1.033L1.35,1L12.65,1L12.81,1.033L12.91,1.094L12.97,1.185L13,1.35L13,7L14,7L14,1.3L14,1.25L13.99,1.201L13.93,0.8896L13.91,0.7918L13.85,0.709L13.68,0.4547L13.63,0.374L13.55,0.3197L13.29,0.1482L13.21,0.09238L13.11,0.07266L12.8,0.009961L12.75,0L12.7,0L1.3,0L1.25,0zz" fill="#6D6E71"/>
      <path d="M2.5,12.5L7,12.5L7,11L7,10.04L7,9.5L2.5,9.5zz" fill="#FFFFFF"/>
      <path d="M2,9.5L2,12.5L2,13L2.5,13L7,13L7,12L3,12L3,10L7,10L7,9L2.5,9L2,9zz" fill="#B4B4B5"/>
      <path d="M2.313,2.04L2.15,2.15L2.04,2.313L2,2.513L2,3.488L2.04,3.687L2.15,3.85L2.313,3.96L2.513,4L11.49,4L11.69,3.96L11.85,3.85L11.96,3.687L12,3.488L12,2.513L11.96,2.313L11.85,2.15L11.69,2.04L11.49,2L2.513,2zz" fill="#CD4C32"/>
      <path d="M2.183,5.113L2.01,5.402L2.059,5.735L2.308,5.962L2.5,6L6.5,6L6.817,5.887L6.99,5.598L6.941,5.265L6.692,5.038L6.5,5L2.5,5zz" fill="#B4B4B5"/>
      <path d="M8.183,5.113L8.01,5.402L8.059,5.735L8.308,5.962L8.5,6L11.5,6L11.82,5.887L11.99,5.598L11.94,5.265L11.69,5.038L11.5,5L8.5,5zz" fill="#939598"/>
      <path d="M7.183,7.113L7.01,7.402L7.059,7.735L7.302,7.956L7.342,7.883L7.587,7.587L7.883,7.342L8.222,7.157L8.597,7.041L9,7L7.5,7zz" fill="#CD4C32"/>
    </g>
    <g id="overlay">
      <path d="M15,15.5H9c-0.2761,0,-0.5,-0.2239,-0.5,-0.5V9.5h7v5.5C15.5,15.2761,15.2761,15.5,15,15.5z" fill="#FFFFFF" stroke="#6D6E71" stroke-width="1" stroke-miterlimit="10"/>
      <path d="M16,10H8V9c0,-0.5523,0.4477,-1,1,-1h6c0.5523,0,1,0.4477,1,1V10z" fill="#3E79B4"/>
      <path d="M10.9,11.5h2.2M10.9,13.5h2.2" fill="none" stroke="#B4B4B5" stroke-width="1" stroke-linecap="round" stroke-miterlimit="10"/>
    </g>
  </g>
</svg>
