<?xml version="1.0" encoding="UTF-8"?>
<!DOCTYPE svg PUBLIC "-//W3C//DTD SVG 1.1//EN" "http://www.w3.org/Graphics/SVG/1.1/DTD/svg11.dtd">
<svg version="1.1" id="Layer_1" xmlns="http://www.w3.org/2000/svg" xmlns:xlink="http://www.w3.org/1999/xlink" x="0px" y="0px" width="16px" height="16px" viewBox="0 0 16 16" enable-background="new 0 0 16 16" xml:space="preserve">
  <g id="main">
    <g id="icon">
      <path d="M4.157,2.542L3.767,2.663L3.415,2.854L3.108,3.108L2.854,3.415L2.663,3.767L2.542,4.157L2.5,4.575L2.5,5.129L3.155,5.038L4,5L4.845,5.038L5.655,5.15L6.409,5.332L7.09,5.582L7.773,5.954L8.314,6.405L8.611,6.772L8.825,7.169L8.956,7.588L9,8.026L9,13.5L11.52,13.5L11.94,13.46L12.33,13.34L12.69,13.15L12.99,12.89L13.25,12.59L13.44,12.23L13.56,11.84L13.6,11.42L13.6,4.575L13.56,4.157L13.44,3.767L13.25,3.415L12.99,3.108L12.69,2.854L12.33,2.663L11.94,2.542L11.52,2.5L4.575,2.5zz" fill="#F5F5F5"/>
      <path d="M3.996,2.051L3.527,2.196L3.102,2.427L2.732,2.732L2.427,3.102L2.196,3.527L2.051,3.996L2,4.5L2,5.234L2.345,5.15L3,5.06L3,5L3,4.5L3.03,4.198L3.118,3.916L3.256,3.661L3.439,3.439L3.661,3.256L3.916,3.118L4.198,3.03L4.5,3L11.5,3L11.8,3.03L12.08,3.118L12.34,3.256L12.56,3.439L12.74,3.661L12.88,3.916L12.97,4.198L13,4.5L13,5L13,6L13,11.5L12.97,11.8L12.88,12.08L12.74,12.34L12.56,12.56L12.34,12.74L12.08,12.88L11.8,12.97L11.5,13L9,13L9,13.97L8.997,14L11.5,14L12,13.95L12.47,13.8L12.9,13.57L13.27,13.27L13.57,12.9L13.8,12.47L13.95,12L14,11.5L14,4.5L13.95,3.996L13.8,3.527L13.57,3.102L13.27,2.732L12.9,2.427L12.47,2.196L12,2.051L11.5,2L4.5,2zz" fill="#404040"/>
      <path d="M5.038,4.026L4.795,4.102L4.381,4.381L4.102,4.795L4.038,5.002L4.845,5.038L5.117,5.076L5.3,5L10.7,5L10.91,5.088L11,5.3L11,10.7L10.91,10.91L10.7,11L9,11L9,12L10.7,12L10.96,11.97L11.21,11.9L11.62,11.62L11.9,11.21L11.97,10.96L12,10.7L12,5.3L11.97,5.038L11.9,4.795L11.62,4.381L11.21,4.102L10.96,4.026L10.7,4L5.3,4zz" fill="#404040" opacity="0.3"/>
    </g>
    <g id="overlay">
      <path d="M4,15.5244c-0.9408,0,-1.8251,-0.1616,-2.4901,-0.4552c-0.3232,-0.1426,-0.5769,-0.3087,-0.7541,-0.4935c-0.1802,-0.188,-0.2754,-0.396,-0.2754,-0.6014V8.0256c0,-0.2054,0.0952,-0.4133,0.2754,-0.6014c0.1772,-0.1849,0.4308,-0.3508,0.754,-0.4935c0.6651,-0.2935,1.5494,-0.4552,2.4901,-0.4552s1.8251,0.1617,2.4901,0.4552c0.3231,0.1426,0.5768,0.3086,0.7541,0.4935c0.1802,0.188,0.2754,0.396,0.2754,0.6013v5.9488c0,0.2054,-0.0952,0.4133,-0.2754,0.6013c-0.1772,0.1849,-0.4309,0.3509,-0.7541,0.4935C5.8251,15.3628,4.9408,15.5244,4,15.5244z" id="b" fill="#FFFFFF"/>
      <path d="M4,16c-1.0068,0,-1.9606,-0.1762,-2.6858,-0.4963c-0.381,-0.1682,-0.6861,-0.3702,-0.9069,-0.6006C0.1408,14.625,0,14.3039,0,13.9744V8.0256c0,-0.3294,0.1408,-0.6506,0.4072,-0.9287c0.2208,-0.2304,0.526,-0.4324,0.907,-0.6006C2.0395,6.1763,2.9933,6,4,6s1.9605,0.1763,2.6857,0.4964c0.3809,0.1681,0.6861,0.3702,0.907,0.6005C7.8592,7.375,8,7.6962,8,8.0256v5.9488c0,0.3295,-0.1408,0.6506,-0.4072,0.9286c-0.2208,0.2303,-0.526,0.4324,-0.907,0.6006C5.9605,15.8238,5.0067,16,4,16zM0.9467,13.9744c0.0068,0.0831,0.0592,0.181,0.1554,0.2814c0.1323,0.138,0.3406,0.2721,0.6026,0.3876c0.6052,0.2671,1.4204,0.4142,2.2952,0.4142s1.69,-0.1471,2.2952,-0.4142c0.262,-0.1156,0.4704,-0.2497,0.6027,-0.3876c0.097,-0.1012,0.1463,-0.1959,0.1463,-0.2814V9.3738c-0.111,0.0642,-0.2309,0.1247,-0.3584,0.181c-0.7252,0.3201,-1.679,0.4963,-2.6857,0.4963c-1.0068,0,-1.9606,-0.1762,-2.6858,-0.4963c-0.1309,-0.0578,-0.2539,-0.1201,-0.3675,-0.1864V13.9744zM4,6.9424c-0.8749,0,-1.69,0.1471,-2.2952,0.4142c-0.2621,0.1156,-0.4704,0.2496,-0.6026,0.3875c-0.0971,0.1013,-0.1463,0.196,-0.1463,0.2815c0,0.0855,0.0492,0.1802,0.1463,0.2814c0.1322,0.1379,0.3406,0.2719,0.6026,0.3876c0.6051,0.2671,1.4203,0.4142,2.2952,0.4142s1.69,-0.1471,2.2952,-0.4142c0.2622,-0.1157,0.4706,-0.2497,0.6026,-0.3875c0.0971,-0.1013,0.1463,-0.196,0.1463,-0.2815c0,-0.0855,-0.0492,-0.1801,-0.1463,-0.2815c-0.1322,-0.138,-0.3406,-0.272,-0.6026,-0.3875C5.69,7.0895,4.8749,6.9424,4,6.9424z" fill="#0E7490"/>
    </g>
  </g>
</svg>
