<?xml version="1.0" encoding="UTF-8"?>
<!DOCTYPE svg PUBLIC "-//W3C//DTD SVG 1.1//EN" "http://www.w3.org/Graphics/SVG/1.1/DTD/svg11.dtd">
<svg version="1.1" id="Layer_1" xmlns="http://www.w3.org/2000/svg" xmlns:xlink="http://www.w3.org/1999/xlink" x="0px" y="0px" width="16px" height="16px" viewBox="0 0 16 16" enable-background="new 0 0 16 16" xml:space="preserve">
  <g id="icon">
    <path d="M11.525,13.5h-6.95C3.429,13.5,2.5,12.571,2.5,11.425v-6.85C2.5,3.429,3.429,2.5,4.575,2.5h6.95C12.671,2.5,13.6,3.429,13.6,4.575v6.85C13.6,12.571,12.671,13.5,11.525,13.5z" id="b" fill="#F5F5F5"/>
    <path d="M11.5,2H4.5c-1.3807,0,-2.5,1.1193,-2.5,2.5v7c0,1.3807,1.1193,2.5,2.5,2.5h7c1.3807,0,2.5,-1.1193,2.5,-2.5V4.5C14,3.1193,12.8807,2,11.5,2zM13,5v1v5.5c0,0.8284,-0.6716,1.5,-1.5,1.5H4.5c-0.8284,0,-1.5,-0.6716,-1.5,-1.5V6V5v-0.5c0,-0.8284,0.6716,-1.5,1.5,-1.5h7c0.8284,0,1.5,0.6716,1.5,1.5V5z" id="c1" fill="#404040"/>
    <path d="M10.7,12H5.3c-0.7168,0,-1.3,-0.5832,-1.3,-1.3V5.3c0,-0.7168,0.5832,-1.3,1.3,-1.3h5.4c0.7168,0,1.3,0.5832,1.3,1.3v5.4C12,11.4168,11.4168,12,10.7,12zM5.3,5c-0.1654,0,-0.3,0.1346,-0.3,0.3v5.4c0,0.1654,0.1346,0.3,0.3,0.3h5.4c0.1654,0,0.3,-0.1346,0.3,-0.3V5.3c0,-0.1654,-0.1346,-0.3,-0.3,-0.3H5.3z" id="c2" fill="#404040" opacity="0.3"/>
  </g>
</svg>
