<?xml version="1.0" encoding="UTF-8"?>
<!DOCTYPE svg PUBLIC "-//W3C//DTD SVG 1.1//EN" "http://www.w3.org/Graphics/SVG/1.1/DTD/svg11.dtd">
<svg version="1.1" id="Layer_1" xmlns="http://www.w3.org/2000/svg" xmlns:xlink="http://www.w3.org/1999/xlink" x="0px" y="0px" width="16px" height="16px" viewBox="0 0 16 16" enable-background="new 0 0 16 16" xml:space="preserve">
  <g id="icon">
    <path d="M14.5,11.9917V5.0083C14.5,4.1753,13.8247,3.5,12.9917,3.5H2.0083C1.1753,3.5,0.5,4.1753,0.5,5.0083v6.9833C0.5,12.8247,1.1753,13.5,2.0083,13.5h10.9833C13.8247,13.5,14.5,12.8247,14.5,11.9917z" id="b" fill="#F5F5F5"/>
    <path d="M12.9917,14H2.0083C0.9009,14,0,13.0991,0,11.9917l0,-6.9833C0,3.9009,0.9009,3,2.0083,3h10.9833C14.0991,3,15,3.9009,15,5.0083v6.9833C15,13.0991,14.0991,14,12.9917,14zM1,11.9917C1,12.5477,1.4523,13,2.0083,13h10.9833c0.556,0,1.0083,-0.4523,1.0083,-1.0083V5.0083C14,4.4523,13.5477,4,12.9917,4H2.0083C1.4523,4,1,4.4523,1,5.0083V11.9917z" id="c1" fill="#404040"/>
    <path d="M11.1265,9.9998c0.1372,-0.0036,0.2667,-0.0634,0.3585,-0.1653l1.74,-1.9333c0.1848,-0.2052,0.1681,-0.5214,-0.0372,-0.7061c-0.2052,-0.1847,-0.5213,-0.1681,-0.7061,0.0372l-1.3875,1.5416L9.5335,7.2131c-0.1953,-0.1952,-0.5118,-0.1952,-0.7071,0c-0.1953,0.1953,-0.1953,0.5119,0,0.7071l1.9333,1.9333c0.0939,0.0939,0.2211,0.1464,0.3536,0.1464C11.1177,10,11.1221,10,11.1265,9.9998z" id="c2" fill="#404040"/>
    <rect x="7" y="4" width="1" height="9" id="c1" fill="#404040"/>
    <path d="M5.2333,6.5h0.5C5.8806,6.5,6,6.3806,6,6.2333v-0.4667C6,5.6194,5.8806,5.5,5.7333,5.5h-0.5c-0.4828,0,-0.9191,0.1977,-1.2333,0.5161C3.6857,5.6977,3.2494,5.5,2.7667,5.5h-0.5C2.1194,5.5,2,5.6194,2,5.7667v0.4667C2,6.3806,2.1194,6.5,2.2667,6.5h0.5C3.1717,6.5,3.5,6.8283,3.5,7.2333v2.5333c0,0.405,-0.3283,0.7333,-0.7333,0.7333h-0.5c-0.1473,0,-0.2667,0.1194,-0.2667,0.2667v0.4667c0,0.1473,0.1194,0.2667,0.2667,0.2667h0.5c0.4828,0,0.9191,-0.1977,1.2333,-0.5161c0.3143,0.3184,0.7506,0.5161,1.2333,0.5161h0.5c0.1473,0,0.2667,-0.1194,0.2667,-0.2667v-0.4667c0,-0.1473,-0.1194,-0.2667,-0.2667,-0.2667h-0.5c-0.405,0,-0.7333,-0.3283,-0.7333,-0.7333V7.2333C4.5,6.8283,4.8283,6.5,5.2333,6.5z" id="c2" fill="#404040"/>
  </g>
</svg>
