<?xml version="1.0" encoding="UTF-8"?>
<!DOCTYPE svg PUBLIC "-//W3C//DTD SVG 1.1//EN" "http://www.w3.org/Graphics/SVG/1.1/DTD/svg11.dtd">
<svg version="1.1" id="Layer_1" xmlns="http://www.w3.org/2000/svg" xmlns:xlink="http://www.w3.org/1999/xlink" x="0px" y="0px" width="16px" height="16px" viewBox="0 0 16 16" enable-background="new 0 0 16 16" xml:space="preserve">
  <g id="icon">
    <path d="M2.4586,9.5883c-0.489,0,-0.8869,0.4102,-0.8869,0.9144v0.4991c0,1.6762,1.6003,3.4099,4.2783,3.4099s4.2783,-1.7337,4.2783,-3.4099v-0.4991c0,-0.5042,-0.3979,-0.9144,-0.8869,-0.9144H2.4586zM5.8065,3.5882c-1.1482,0,-2.0823,0.9444,-2.0823,2.1053s0.9341,2.1053,2.0823,2.1053s2.0823,-0.9444,2.0823,-2.1053S6.9546,3.5882,5.8065,3.5882z" id="b" fill="#F5F5F5"/>
    <path d="M5.85,15C2.8142,15,1,12.9671,1,11.0018v-0.4991C1,9.6741,1.6544,9,2.4587,9h6.7827C10.0457,9,10.7,9.6741,10.7,10.5027v0.4991C10.7,12.9671,8.8859,15,5.85,15zM2.4587,10.0092c-0.2643,0,-0.4793,0.2214,-0.4793,0.4935v0.4991c0,1.4693,1.4478,2.989,3.8706,2.989s3.8706,-1.5197,3.8706,-2.989v-0.4991c0,-0.2722,-0.215,-0.4935,-0.4792,-0.4935H2.4587zM5.8065,8.3717c-1.4591,0,-2.6461,-1.2014,-2.6461,-2.6781s1.1871,-2.6781,2.6461,-2.6781c1.459,0,2.6461,1.2014,2.6461,2.6781S7.2655,8.3717,5.8065,8.3717zM5.8065,3.998c-0.9234,0,-1.6746,0.7606,-1.6746,1.6955S4.8831,7.389,5.8065,7.389c0.9233,0,1.6745,-0.7606,1.6745,-1.6955S6.7298,3.998,5.8065,3.998z" id="c1" fill="#404040"/>
    <path d="M14.4283,8.621v0.4859c0,1.3276,-1.059,2.6922,-2.8956,3.1552c0.1101,-0.3801,0.1673,-0.7686,0.1673,-1.1551v-0.486c0,-1.3583,-1.1029,-2.4632,-2.4586,-2.4632h-0.7303c0.1198,-0.1337,0.2294,-0.2767,0.329,-0.4271h4.7013C14.0304,7.7306,14.4283,8.1301,14.4283,8.621zM9.4525,5.6908c0.2059,0.0691,0.4254,0.1079,0.6539,0.1079c1.1482,0,2.0823,-0.9444,2.0823,-2.1053s-0.9341,-2.1053,-2.0823,-2.1053c-0.8716,0,-1.6187,0.5448,-1.9286,1.3148C8.9567,3.5776,9.4517,4.5767,9.4525,5.6908z" id="b" fill="#F5F5F5"/>
    <path d="M7.7106,2.5583c0.4229,-0.9106,1.3377,-1.5429,2.3959,-1.5429c1.459,0,2.6461,1.2014,2.6461,2.6781c0,1.4767,-1.1871,2.6781,-2.6461,2.6781c-0.2425,0,-0.4772,-0.0339,-0.7004,-0.096c0.0301,-0.1898,0.0466,-0.384,0.0466,-0.5822c0,-0.1536,-0.0105,-0.3046,-0.0287,-0.4533c0.2087,0.0948,0.4394,0.1488,0.6826,0.1488c0.9233,0,1.6745,-0.7606,1.6745,-1.6955c0,-0.9349,-0.7512,-1.6955,-1.6745,-1.6955c-0.76,0,-1.4024,0.5158,-1.6062,1.2195C8.2696,2.9623,8.0037,2.7401,7.7106,2.5583zM13.5414,7H9.2142c-0.1392,0.3683,-0.3353,0.7083,-0.5776,1.0092h4.9048c0.2642,0,0.4792,0.2214,0.4792,0.4935v0.4991c0,1.1354,-0.8652,2.3003,-2.3763,2.7713c-0.0633,0.3816,-0.1803,0.7592,-0.3481,1.1225C13.6363,12.4585,15,10.7053,15,9.0018v-0.4991C15,7.6741,14.3457,7,13.5414,7z" id="c2" fill="#404040"/>
  </g>
</svg>
