<?xml version="1.0" encoding="UTF-8"?>
<!DOCTYPE svg PUBLIC "-//W3C//DTD SVG 1.1//EN" "http://www.w3.org/Graphics/SVG/1.1/DTD/svg11.dtd">
<svg version="1.1" id="Layer_1" xmlns="http://www.w3.org/2000/svg" xmlns:xlink="http://www.w3.org/1999/xlink" x="0px" y="0px" width="16px" height="16px" viewBox="0 0 16 16" enable-background="new 0 0 16 16" xml:space="preserve">
  <g id="main">
    <g id="icon">
      <path d="M9.347,1.547L8.723,1.684L8.135,1.905L7.589,2.202L7.091,2.57L6.649,3L6.269,3.488L5.957,4.025L6.449,4.222L6.898,4.492L7.299,4.827L7.643,5.221L7.923,5.665L8.132,6.154L8.263,6.678L8.309,7.231L8.273,7.723L8.169,8.193L8.002,8.636L7.778,9.047L7.788,9.065L7.86,9.065L8.217,9.092L8.557,9.171L8.876,9.297L9.17,9.466L9.186,9.481L9.32,9.32L9.986,8.77L10.75,8.354L11.59,8.092L12.5,8L13.02,8.03L13.53,8.118L13.95,8.243L13.94,8.19L14.02,8.018L14.23,7.539L14.38,7.038L14.47,6.523L14.5,6L14.41,5.094L14.15,4.25L13.73,3.486L13.18,2.819L12.51,2.27L11.75,1.854L10.91,1.592L10,1.5zz" fill="#F5F5F5"/>
      <path d="M9.26,1.055L8.553,1.214L7.888,1.469L7.272,1.812L6.713,2.236L6.219,2.733L5.798,3.294L5.458,3.912L5.971,4.029L6.451,4.223L6.728,3.756L7.063,3.332L7.452,2.958L7.889,2.639L8.368,2.381L8.883,2.19L9.429,2.071L10,2.03L10.8,2.111L11.54,2.343L12.22,2.709L12.81,3.194L13.29,3.782L13.66,4.456L13.89,5.201L13.97,5.999L13.94,6.504L13.84,6.999L13.69,7.477L13.47,7.932L13.38,8.092L13.53,8.118L14.01,8.261L14.47,8.455L14.54,8.494L14.47,8.242L14.7,7.71L14.87,7.154L14.97,6.581L15,6L14.97,5.489L14.9,4.993L14.61,4.055L14.14,3.206L13.53,2.466L12.79,1.855L11.94,1.394L11.01,1.102L10.51,1.026L10,1zM8.222,4.077L8.058,4.187L7.947,4.351L7.907,4.551L7.941,4.719L8.034,4.84L8.176,4.919L8.352,4.962L8.417,4.966L11.58,4.966L11.78,4.941L11.94,4.865L12.05,4.736L12.09,4.551L12.06,4.368L11.96,4.213L11.82,4.099L11.65,4.041L11.58,4.036L8.422,4.036zM9.194,6.073L9.031,6.184L8.92,6.348L8.88,6.548L8.913,6.715L9.007,6.837L9.325,6.958L9.39,6.963L11.58,6.963L11.78,6.938L11.94,6.862L12.05,6.733L12.09,6.548L12.06,6.365L11.96,6.21L11.82,6.096L11.65,6.038L11.58,6.033L9.395,6.033zz" fill="#404040"/>
      <path d="M4.534,5.023L4.116,5.155L3.738,5.363L3.408,5.638L3.136,5.972L2.93,6.355L2.801,6.778L2.755,7.231L2.801,7.685L2.93,8.108L3.136,8.49L3.408,8.824L3.738,9.099L4.116,9.307L4.534,9.439L4.982,9.485L5.43,9.439L5.848,9.307L6.226,9.099L6.556,8.824L6.828,8.49L7.034,8.108L7.163,7.685L7.209,7.231L7.163,6.778L7.034,6.355L6.828,5.972L6.556,5.638L6.226,5.363L5.848,5.155L5.43,5.023L4.982,4.978zM1.918,10.19L1.688,10.26L1.297,10.52L1.034,10.91L0.9623,11.14L0.9373,11.39L0.9373,11.8L1.008,12.4L1.216,12.99L1.555,13.54L2.02,14.03L2.605,14.45L3.303,14.78L4.11,14.99L5.019,15.06L5.928,14.99L6.734,14.78L7.433,14.45L8.017,14.03L8.208,13.83L8.118,13.53L8.03,13.02L8,12.5L8.092,11.59L8.354,10.75L8.547,10.39L8.35,10.26L8.12,10.19L7.873,10.17L2.165,10.17zz" fill="#404040"/>
    </g>
    <g id="overlay">
      <path d="M16,12.5c0,1.933,-1.567,3.5,-3.5,3.5s-3.5,-1.567,-3.5,-3.5s1.567,-3.5,3.5,-3.5S16,10.567,16,12.5z" id="c1" fill="#BE123C"/>
    </g>
  </g>
</svg>
