<?xml version="1.0" encoding="UTF-8"?>
<!DOCTYPE svg PUBLIC "-//W3C//DTD SVG 1.1//EN" "http://www.w3.org/Graphics/SVG/1.1/DTD/svg11.dtd">
<svg version="1.1" id="Layer_1" xmlns="http://www.w3.org/2000/svg" xmlns:xlink="http://www.w3.org/1999/xlink" x="0px" y="0px" width="16px" height="16px" viewBox="0 0 16 16" enable-background="new 0 0 16 16" xml:space="preserve">
  <g id="icon">
    <path d="M11.2395,11.7109c0.2003,0,0.3886,-0.078,0.5303,-0.2196l2.938,-2.9379l0.0145,-0.0074l0.0126,-0.0163l0.0179,-0.0136l0.0104,-0.0208c0.1166,-0.1341,0.181,-0.2976,0.1869,-0.4693l-0.0002,-0.0561c-0.0058,-0.1705,-0.0721,-0.3362,-0.1872,-0.4664l-0.0097,-0.0193l-0.0175,-0.0134l-0.0136,-0.0178l-0.0151,-0.0075l-2.9369,-2.9368c-0.1417,-0.1417,-0.3301,-0.2196,-0.5304,-0.2196s-0.3886,0.078,-0.5302,0.2196c-0.2925,0.2925,-0.2925,0.7683,0,1.0607L12.3897,7.25H6.8444c-0.4136,0,-0.75,0.3364,-0.75,0.75s0.3364,0.75,0.75,0.75h5.5453l-1.6806,1.6806c-0.2924,0.2924,-0.2924,0.7682,0,1.0606C10.8508,11.633,11.0392,11.7109,11.2395,11.7109z" fill="#404040"/>
    <path d="M4.3643,15C3.0606,15,2,13.9382,2,12.6331V3.3669C2,2.0618,3.0606,1,4.3643,1h5.1311c0.4161,0,0.7546,0.3388,0.7546,0.7554s-0.3385,0.7554,-0.7546,0.7554H4.3643c-0.4716,0,-0.8552,0.384,-0.8552,0.8561v9.2662c0,0.4721,0.3836,0.8561,0.8552,0.8561h5.1311c0.4161,0,0.7546,0.3388,0.7546,0.7554S9.9115,15,9.4954,15H4.3643z" fill="#404040"/>
  </g>
</svg>
