<?xml version="1.0" encoding="UTF-8"?>
<!DOCTYPE svg PUBLIC "-//W3C//DTD SVG 1.1//EN" "http://www.w3.org/Graphics/SVG/1.1/DTD/svg11.dtd">
<svg version="1.1" id="Layer_1" xmlns="http://www.w3.org/2000/svg" xmlns:xlink="http://www.w3.org/1999/xlink" x="0px" y="0px" width="16px" height="16px" viewBox="0 0 16 16" enable-background="new 0 0 16 16" xml:space="preserve">
  <g id="main">
    <g id="icon">
      <path d="M2.131,3.481L1.803,3.703L1.581,4.031L1.5,4.433L1.5,6.674L1.59,6.642L2.022,6.504L2.149,6.471L2.174,6.465L2.531,6.429L3.05,6.507L3.515,6.73L3.899,7.079L4.176,7.535L4.512,8.326L4.56,8.459L4.568,8.484L4.65,8.999L4.589,9.51L4.395,9.985L4.075,10.39L3.77,10.68L3.944,11.05L4.187,11.39L4.511,11.29L4.647,11.25L4.674,11.24L4.888,11.21L5.039,11.2L5.203,11.21L5.588,11.29L5.941,11.45L6.252,11.69L6.51,11.99L6.856,12.5L7.463,12.5L7.575,12.38L7.822,12.2L9.036,11.5L7.822,10.8L7.576,10.62L7.376,10.41L7.224,10.16L7.123,9.888L7.076,9.604L7.083,9.314L7.148,9.027L7.273,8.75L7.513,8.438L7.822,8.202L8.181,8.052L8.572,8L8.96,8.051L9.322,8.201L10.54,8.902L10.54,7.5L10.57,7.198L10.65,6.917L10.79,6.662L10.98,6.44L11.2,6.256L11.45,6.118L11.73,6.03L12.04,6L12.34,6.03L12.62,6.118L12.87,6.256L13.1,6.44L13.28,6.662L13.42,6.917L13.51,7.198L13.54,7.5L13.54,8.902L14.6,8.288L14.6,4.433L14.52,4.031L14.3,3.703L13.97,3.481L13.57,3.4L2.533,3.4zz" fill="#F5F5F5"/>
      <path d="M2.397,3.036L2.069,3.138L1.771,3.299L1.512,3.512L1.299,3.771L1.138,4.069L1.036,4.397L1,4.75L1,6.939L1.282,6.769L1.59,6.642L2,6.511L2,4.75L2.059,4.458L2.22,4.22L2.458,4.059L2.75,4L13.25,4L13.54,4.059L13.78,4.22L13.94,4.458L14,4.75L14,8.634L14.75,8.201L15,8.097L15,4.75L14.96,4.397L14.86,4.069L14.7,3.771L14.49,3.512L14.23,3.299L13.93,3.138L13.6,3.036L13.25,3L2.75,3zM7.645,5.03L7.304,5.137L6.995,5.307L6.725,5.532L6.503,5.805L6.335,6.117L6.229,6.463L6.192,6.833L6.229,7.204L6.335,7.549L6.503,7.862L6.725,8.134L6.995,8.359L7.304,8.529L7.415,8.565L7.513,8.438L7.822,8.202L8.181,8.052L8.572,8L8.96,8.051L9.252,8.172L9.296,8.134L9.519,7.862L9.687,7.549L9.793,7.204L9.83,6.833L9.793,6.463L9.687,6.117L9.519,5.805L9.296,5.532L9.027,5.307L8.718,5.137L8.377,5.03L8.011,4.992zM5.143,9.585L4.809,9.816L4.583,10.16L4.5,10.58L4.5,10.94L4.527,11.28L4.647,11.25L4.674,11.24L4.888,11.21L5.039,11.2L5.203,11.21L5.588,11.29L5.941,11.45L6.252,11.69L6.51,11.99L6.991,12.7L7.064,12.82L7.076,12.84L7.152,13L7.165,13L7.224,12.84L7.375,12.59L7.575,12.38L7.822,12.2L9.036,11.5L7.822,10.8L7.576,10.62L7.376,10.41L7.224,10.16L7.123,9.888L7.076,9.604L7.079,9.5L5.553,9.5zz" fill="#404040"/>
      <path d="M2.379,7.444L2.302,7.465L1.895,7.595L1.611,7.73L1.374,7.935L1.193,8.197L1.081,8.505L1,9.23L1,9.258L1.06,9.938L1.236,10.67L1.528,11.45L1.936,12.28L2.333,12.95L2.866,13.68L3.419,14.26L3.993,14.68L4.587,14.95L4.87,15L5.152,14.98L5.42,14.88L5.663,14.73L5.742,14.65L6.052,14.34L6.213,14.12L6.292,13.85L6.287,13.58L6.196,13.31L6.15,13.24L5.683,12.55L5.429,12.31L5.11,12.21L4.975,12.21L4.883,12.22L4.801,12.24L3.94,12.53L3.467,12.09L3.08,11.55L2.836,11.04L2.694,10.52L2.669,10.35L3.387,9.665L3.535,9.476L3.624,9.255L3.651,9.017L3.612,8.778L3.581,8.693L3.256,7.925L3.105,7.688L2.895,7.522L2.646,7.438zz" fill="#404040"/>
    </g>
    <g id="overlay">
      <path d="M15.7499,13.067L13.0358,11.5l2.7141,-1.567c0.2391,-0.1381,0.3211,-0.4439,0.183,-0.683c-0.1381,-0.2391,-0.4439,-0.3211,-0.683,-0.183l-2.7141,1.567V7.5c0,-0.2761,-0.2239,-0.5,-0.5,-0.5s-0.5,0.2239,-0.5,0.5v3.134L8.8217,9.067c-0.2391,-0.1381,-0.5449,-0.0561,-0.683,0.183c-0.1381,0.2391,-0.0561,0.5449,0.183,0.683L11.0358,11.5l-2.7141,1.567c-0.2391,0.1381,-0.3211,0.4439,-0.183,0.683c0.1381,0.2391,0.4439,0.3211,0.683,0.183l2.7141,-1.567V15.5c0,0.2761,0.2239,0.5,0.5,0.5s0.5,-0.2239,0.5,-0.5v-3.134l2.7141,1.567c0.2391,0.1381,0.5449,0.0561,0.683,-0.183C16.071,13.5109,15.9891,13.2051,15.7499,13.067z" fill="#F59E0B"/>
    </g>
  </g>
</svg>
