<?xml version="1.0" encoding="UTF-8"?>
<!DOCTYPE svg PUBLIC "-//W3C//DTD SVG 1.1//EN" "http://www.w3.org/Graphics/SVG/1.1/DTD/svg11.dtd">
<svg version="1.1" id="Layer_1" xmlns="http://www.w3.org/2000/svg" xmlns:xlink="http://www.w3.org/1999/xlink" x="0px" y="0px" width="24px" height="24px" viewBox="0 0 24 24" enable-background="new 0 0 24 24" xml:space="preserve">
  <g id="icon">
    <path d="M8.9431,21.2H3.9569C3.2628,21.2,2.7,20.6372,2.7,19.9431v-4.9861C2.7,14.2628,3.2628,13.7,3.9569,13.7h4.9861c0.6942,0,1.2569,0.5628,1.2569,1.2569v4.9861C10.2,20.6372,9.6372,21.2,8.9431,21.2zM21.2,19.9431v-4.9861c0,-0.6942,-0.5628,-1.2569,-1.2569,-1.2569h-4.9861c-0.6942,0,-1.2569,0.5628,-1.2569,1.2569v4.9861c0,0.6942,0.5628,1.2569,1.2569,1.2569h4.9861C20.6372,21.2,21.2,20.6372,21.2,19.9431zM21.2,8.9431V3.9569C21.2,3.2628,20.6372,2.7,19.9431,2.7h-4.9861C14.2628,2.7,13.7,3.2628,13.7,3.9569v4.9861c0,0.6942,0.5628,1.2569,1.2569,1.2569h4.9861C20.6372,10.2,21.2,9.6372,21.2,8.9431z" id="b" fill="#F5F5F5"/>
    <path d="M19.9931,22h-4.9862C13.8985,22,13,21.1015,13,19.9931v-4.9862c0,-1.1084,0.8985,-2.0069,2.0069,-2.0069h4.9862c1.1084,0,2.0069,0.8985,2.0069,2.0069v4.9862C22,21.1015,21.1015,22,19.9931,22zM14.5,15.0069v4.9862c0,0.28,0.227,0.5069,0.5069,0.5069h4.9862c0.28,0,0.5069,-0.227,0.5069,-0.5069v-4.9862c0,-0.28,-0.227,-0.5069,-0.5069,-0.5069h-4.9862C14.727,14.5,14.5,14.727,14.5,15.0069zM8.9931,22H4.0069C2.8985,22,2,21.1015,2,19.9931v-4.9862C2,13.8985,2.8985,13,4.0069,13h4.9862c1.1084,0,2.0069,0.8985,2.0069,2.0069v4.9862C11,21.1015,10.1015,22,8.9931,22zM3.5,15.0069v4.9862c0,0.28,0.227,0.5069,0.5069,0.5069h4.9862c0.28,0,0.5069,-0.227,0.5069,-0.5069v-4.9862c0,-0.28,-0.227,-0.5069,-0.5069,-0.5069H4.0069C3.727,14.5,3.5,14.727,3.5,15.0069zM19.9931,11h-4.9862C13.8985,11,13,10.1015,13,8.9931V4.0069C13,2.8985,13.8985,2,15.0069,2h4.9862C21.1015,2,22,2.8985,22,4.0069v4.9862C22,10.1015,21.1015,11,19.9931,11zM14.5,4.0069v4.9862c0,0.28,0.227,0.5069,0.5069,0.5069h4.9862c0.28,0,0.5069,-0.227,0.5069,-0.5069V4.0069c0,-0.28,-0.227,-0.5069,-0.5069,-0.5069h-4.9862C14.727,3.5,14.5,3.727,14.5,4.0069z" id="c1" fill="#0E7490"/>
  </g>
</svg>
