<?xml version="1.0" encoding="UTF-8"?>
<!DOCTYPE svg PUBLIC "-//W3C//DTD SVG 1.1//EN" "http://www.w3.org/Graphics/SVG/1.1/DTD/svg11.dtd">
<svg version="1.1" id="Layer_1" xmlns="http://www.w3.org/2000/svg" xmlns:xlink="http://www.w3.org/1999/xlink" x="0px" y="0px" width="16px" height="16px" viewBox="0 0 16 16" enable-background="new 0 0 16 16" xml:space="preserve">
  <g id="icon">
    <path d="M12.7506,12.3711l-0.8434,-2.2465v-1.929c0,-1.0231,-0.4109,-1.99,-1.1571,-2.7228c-0.7439,-0.7305,-1.7206,-1.1329,-2.7504,-1.1329c-0.1653,0,-0.333,0.0107,-0.4983,0.0317c-1.9132,0.2439,-3.4118,1.9514,-3.4118,3.8874v1.8656l-0.8433,2.2463c-0.0139,0.035,-0.0069,0.0838,0.0399,0.114c0.0035,0.0023,0.0187,0.0081,0.0466,0.0081h3.3747c-0.044,0.1338,-0.0687,0.2764,-0.0687,0.4249c0,0.7509,0.6087,1.4596,1.3596,1.4596s1.3596,-0.7087,1.3596,-1.4596c0,-0.1485,-0.0246,-0.2911,-0.0687,-0.4249h3.3749c0.0278,0,0.0428,-0.0058,0.0463,-0.008C12.7574,12.4547,12.7645,12.406,12.7506,12.3711z" fill="#C0C0C0"/>
    <path d="M13.1136,12.3435l-0.8165,-2.1888V8.2769C12.2972,5.9186,10.3693,4,7.9997,4c-0.1817,0,-0.366,0.0118,-0.5475,0.0351C5.348,4.3053,3.6998,6.1966,3.6998,8.3408v1.8139l-0.8158,2.1872c-0.0859,0.218,-0.0075,0.4605,0.1906,0.5895c0.0714,0.0465,0.1607,0.0711,0.2583,0.0711h2.8076C6.1444,14.0495,6.9762,15,7.9985,15c0.0566,0,0.1141,-0.0027,0.1708,-0.0079c0.9334,-0.086,1.6659,-1.0123,1.6857,-1.9896h2.8092c0.0976,0,0.187,-0.0246,0.2584,-0.0713C13.1206,12.802,13.1988,12.5596,13.1136,12.3435zM8.0829,14.0322c-0.0284,0.0026,-0.0566,0.0039,-0.0845,0.0039c-0.5033,0,-0.9129,-0.5182,-0.9169,-1.0336h1.8327C8.8976,13.485,8.539,13.9902,8.0829,14.0322zM4.0123,12.0458l0.5946,-1.6131c0.0226,-0.0574,0.0341,-0.1177,0.0341,-0.1794V8.3412c0,-1.6318,1.2594,-3.0962,2.8671,-3.3338c0.163,-0.0241,0.3286,-0.0363,0.4921,-0.0363c1.8191,0,3.3559,1.5171,3.3559,3.313v1.9691c0,0.0618,0.0115,0.1222,0.0334,0.1776l0.5952,1.615H4.0123z" fill="#025582"/>
    <path d="M3.1018,5.5376c-0.0575,-0.0062,-0.1131,-0.0223,-0.1652,-0.048l-0.0101,-0.005c-0.1235,-0.061,-0.2162,-0.1719,-0.2544,-0.3041c-0.0379,-0.1311,-0.0191,-0.2726,0.0517,-0.3884c0.28,-0.4581,0.6318,-0.8698,1.0456,-1.2235c0.4042,-0.3455,0.8544,-0.6241,1.3381,-0.8283c0.0754,-0.0318,0.158,-0.0441,0.239,-0.0354c0.1929,0.0207,0.3559,0.1537,0.4151,0.3388l0.0035,0.011c0.0776,0.2425,-0.0394,0.4995,-0.2723,0.5979c-0.3899,0.1646,-0.7533,0.3897,-1.08,0.6688c-0.3344,0.2859,-0.6186,0.6184,-0.8447,0.9884C3.4712,5.4681,3.2882,5.5575,3.1018,5.5376zM1.3975,4.5549c-0.0567,-0.0061,-0.1116,-0.0221,-0.1632,-0.0476l-0.0103,-0.0051c-0.1214,-0.06,-0.2138,-0.1689,-0.2531,-0.2988c-0.0391,-0.1291,-0.0238,-0.2639,0.043,-0.3796c0.3856,-0.6673,0.8818,-1.2628,1.475,-1.7698c0.5804,-0.4961,1.2307,-0.8876,1.9328,-1.1638c0.0723,-0.0284,0.148,-0.0386,0.2249,-0.0304c0.1924,0.0206,0.3551,0.1538,0.4144,0.3392c0.0809,0.2527,-0.0439,0.5208,-0.2826,0.615c-0.5975,0.2358,-1.1514,0.5698,-1.6462,0.9927c-0.5039,0.4307,-0.926,0.9358,-1.2545,1.5014C1.7788,4.4787,1.5902,4.5756,1.3975,4.5549zM12.3706,5.3097c-0.2261,-0.37,-0.5103,-0.7025,-0.8447,-0.9884c-0.3267,-0.2791,-0.69,-0.5042,-1.08,-0.6688c-0.2329,-0.0984,-0.35,-0.3554,-0.2724,-0.5979l0.0035,-0.011c0.0592,-0.1851,0.2221,-0.3181,0.4151,-0.3388c0.081,-0.0087,0.1636,0.0036,0.239,0.0354c0.4837,0.2042,0.9339,0.4829,1.3381,0.8283c0.4138,0.3537,0.7656,0.7654,1.0456,1.2235c0.0708,0.1158,0.0897,0.2574,0.0518,0.3884c-0.0383,0.1323,-0.1309,0.2431,-0.2544,0.3041l-0.0101,0.005c-0.052,0.0257,-0.1076,0.0419,-0.1652,0.048C12.6504,5.5575,12.4674,5.4681,12.3706,5.3097zM14.0609,4.3082c-0.3285,-0.5655,-0.7505,-1.0706,-1.2545,-1.5014c-0.4948,-0.4229,-1.0487,-0.7569,-1.6462,-0.9927c-0.2387,-0.0942,-0.3634,-0.3624,-0.2826,-0.615c0.0593,-0.1855,0.222,-0.3186,0.4144,-0.3392c0.077,-0.0082,0.1526,0.002,0.2249,0.0304c0.7021,0.2762,1.3524,0.6677,1.9328,1.1638c0.5932,0.507,1.0894,1.1025,1.475,1.7698c0.0668,0.1157,0.0821,0.2505,0.043,0.3796c-0.0393,0.1299,-0.1316,0.2388,-0.2531,0.2988l-0.0103,0.0051c-0.0516,0.0255,-0.1065,0.0415,-0.1632,0.0476C14.3485,4.5756,14.1599,4.4787,14.0609,4.3082z" fill="#025582"/>
  </g>
</svg>
