<?xml version="1.0" encoding="UTF-8"?>
<!DOCTYPE svg PUBLIC "-//W3C//DTD SVG 1.1//EN" "http://www.w3.org/Graphics/SVG/1.1/DTD/svg11.dtd">
<svg version="1.1" id="Layer_1" xmlns="http://www.w3.org/2000/svg" xmlns:xlink="http://www.w3.org/1999/xlink" x="0px" y="0px" width="16px" height="16px" viewBox="0 0 16 16" enable-background="new 0 0 16 16" xml:space="preserve">
  <g id="icon">
    <path d="M12.525,1.5h-6.95C4.429,1.5,3.5,2.429,3.5,3.575v2.7569c0.0851,-0.0071,0.1701,-0.0118,0.2548,-0.0118c0.1035,0,0.2023,0.0042,0.2969,0.0121c0.3863,-0.935,1.2277,-1.8185,2.7127,-2.105c0.092,-0.018,0.1884,-0.0273,0.2844,-0.0273c0.3196,0,0.6371,0.105,0.894,0.2958c0.337,0.2502,0.5549,0.6332,0.5979,1.0507c0.0079,0.0765,0.0458,0.5168,-0.0609,1.0751c0.8617,0.4,1.3976,1.0683,1.4779,1.1729c0.2731,0.3551,0.3729,0.8099,0.2732,1.2473c-0.0967,0.4244,-0.3698,0.7824,-0.752,0.9878c-0.058,0.0381,-0.1757,0.1399,-0.1757,0.3359c0,0.2846,0.2299,0.4186,0.306,0.4551c0.3614,0.154,0.6536,0.4499,0.802,0.8131c0.1124,0.2748,0.1398,0.5786,0.0825,0.8664h2.0312c1.146,0,2.075,-0.929,2.075,-2.075v-6.85C14.6,2.429,13.671,1.5,12.525,1.5z" id="b" fill="#F5F5F5"/>
    <path d="M12.5,1H5.5c-1.3807,0,-2.5,1.1193,-2.5,2.5v2.7249c0,0.0947,0.0855,0.1674,0.1786,0.15c0.192,-0.0359,0.3849,-0.0547,0.5762,-0.0547c0.0305,0,0.0604,0.0005,0.09,0.0013C3.9303,6.3238,4,6.2547,4,6.1692V5h1.0426c0.4383,-0.3557,1.0043,-0.6343,1.7219,-0.7728c0.092,-0.018,0.1884,-0.0273,0.2844,-0.0273c0.3196,0,0.6371,0.105,0.894,0.2958c0.1812,0.1345,0.3265,0.3083,0.4302,0.5043H14v5.5c0,0.8284,-0.6716,1.5,-1.5,1.5h-1.8274c-0.0866,0,-0.1546,0.072,-0.1518,0.1585c0.007,0.2139,-0.0305,0.4285,-0.1142,0.6267c-0.0003,0.0007,-0.0006,0.0013,-0.0008,0.002c-0.0426,0.1009,0.0308,0.2128,0.1404,0.2128H12.5c1.3807,0,2.5,-1.1193,2.5,-2.5V3.5C15,2.1193,13.8807,1,12.5,1zM14,4H4v-0.5c0,-0.8284,0.6716,-1.5,1.5,-1.5h7c0.8284,0,1.5,0.6716,1.5,1.5V4z" id="c1" fill="#404040"/>
    <path d="M13,3.5h-1V2.5h1V3.5zM11,2.5h-1v1h1V2.5zM9,2.5H8v1h1V2.5z" id="c2" fill="#404040"/>
    <path d="M7.8033,10.3654c0,-1.1701,0.9651,-1.657,0.9651,-1.657s-0.6833,-0.8883,-1.6057,-0.8883c-0.8797,0,-1.1958,0.3929,-1.7936,0.3929c-0.521,0,-0.8627,-0.3929,-1.6143,-0.3929c-0.7687,0,-2.2549,0.726,-2.2549,2.7332c0,1.3922,1.1701,3.9545,2.4257,3.9545c0.837,0,0.6747,-0.3843,1.5545,-0.3843c0.8456,0,0.8199,0.3847,1.4691,0.3847c1.1018,0,2.0755,-2.3065,2.0755,-2.3065S7.8033,11.7149,7.8033,10.3654zM7.0487,5.7c-1.9474,0.3758,-1.7509,2.1011,-1.7509,2.1011C7.2537,7.6901,7.0487,5.7,7.0487,5.7z" id="b" fill="#F5F5F5"/>
    <path d="M6.9492,15.0083c-0.4291,0,-0.6693,-0.1292,-0.8623,-0.2331c-0.1637,-0.0881,-0.282,-0.1517,-0.6067,-0.1517c-0.3164,0,-0.4125,0.0531,-0.558,0.1334c-0.2485,0.1373,-0.4951,0.2509,-0.9965,0.2509C2.2355,15.0079,1,12.0782,1,10.5533c0,-2.2056,1.6438,-3.2332,2.7548,-3.2332c0.4436,0,0.7706,0.11,1.0363,0.215c0.0356,-0.8035,0.5051,-2.0062,2.1628,-2.3261c0.1375,-0.0269,0.2802,0.0059,0.3928,0.0895s0.1849,0.2107,0.1993,0.3502c0.0042,0.0411,0.0885,0.9272,-0.3894,1.6714c0.002,0,0.004,0,0.0061,0c1.1554,0,1.9681,1.0392,2.0021,1.0834c0.0909,0.1181,0.1243,0.2706,0.0912,0.4159c-0.0331,0.1453,-0.1293,0.2683,-0.2624,0.3354c-0.024,0.0128,-0.6903,0.3757,-0.6903,1.2105c0,0.9823,0.8729,1.3579,0.9101,1.3734c0.1227,0.0512,0.2219,0.15,0.2722,0.273c0.0503,0.123,0.0515,0.2619,-0.0002,0.3844C9.3012,12.8324,8.3136,15.0083,6.9492,15.0083zM5.4802,13.6235c0.5767,0,0.8679,0.1567,1.0805,0.2711c0.1451,0.078,0.2113,0.1137,0.3885,0.1137c0.4265,0,1.0373,-0.8372,1.4288,-1.6033c-0.453,-0.3194,-1.0747,-0.9553,-1.0747,-2.0396c0,-0.8163,0.3711,-1.3689,0.7077,-1.7023c-0.2193,-0.1721,-0.5197,-0.3429,-0.8482,-0.3429c-0.391,0,-0.6389,0.0935,-0.9013,0.1925c-0.2489,0.0939,-0.531,0.2003,-0.8923,0.2003c-0.3344,0,-0.6043,-0.1096,-0.8425,-0.2063c-0.2464,-0.1001,-0.4593,-0.1865,-0.7718,-0.1865C3.2051,8.3202,2,8.8825,2,10.5533c0,1.2816,1.0945,3.4545,1.9257,3.4545c0.2844,0,0.3704,-0.0475,0.513,-0.1263C4.6358,13.7727,4.9059,13.6235,5.4802,13.6235zM6.4731,6.434c-0.3456,0.2058,-0.5184,0.4847,-0.6035,0.7325c0.1428,-0.0662,0.2622,-0.1562,0.3599,-0.2708C6.3485,6.756,6.4247,6.5927,6.4731,6.434z" id="c2" fill="#404040"/>
  </g>
</svg>
