<?xml version="1.0" encoding="UTF-8"?>
<!DOCTYPE svg PUBLIC "-//W3C//DTD SVG 1.1//EN" "http://www.w3.org/Graphics/SVG/1.1/DTD/svg11.dtd">
<svg version="1.1" id="Layer_1" xmlns="http://www.w3.org/2000/svg" xmlns:xlink="http://www.w3.org/1999/xlink" x="0px" y="0px" width="16px" height="16px" viewBox="0 0 16 16" enable-background="new 0 0 16 16" xml:space="preserve">
  <g id="icon">
    <path d="M1.4998,7.0001c-0.0629,0,-0.1268,-0.012,-0.1886,-0.0372c-0.2557,-0.1043,-0.3784,-0.3961,-0.2742,-0.6518l1.996,-4.8938c0.1027,-0.252,0.3464,-0.4158,0.6208,-0.4173c0.0012,0,0.0025,0,0.0038,0c0.2729,0,0.5166,0.1608,0.6216,0.4106l2.0601,4.8954c0.1071,0.2545,-0.0124,0.5477,-0.2669,0.6548c-0.2544,0.1071,-0.5477,-0.0124,-0.6548,-0.2669l-0.7029,-1.6704H2.6422L1.963,6.6888C1.8839,6.8827,1.697,7.0001,1.4998,7.0001zM3.05,4.0235h1.2438l-0.6316,-1.5009L3.05,4.0235zM6.375,14.5c0,-0.2761,-0.2239,-0.5,-0.5,-0.5H2.6541l3.5996,-4.1734c0.1277,-0.1481,0.1574,-0.357,0.076,-0.5348C6.2481,9.114,6.0706,9,5.875,9H1.5c-0.2761,0,-0.5,0.2239,-0.5,0.5s0.2239,0.5,0.5,0.5h3.2834l-3.5996,4.1734c-0.1277,0.1481,-0.1574,0.357,-0.076,0.5348c0.0814,0.1777,0.259,0.2917,0.4546,0.2917H5.875C6.1511,15,6.375,14.7761,6.375,14.5z" id="c1" fill="#0E7490"/>
    <path d="M15.1217,7.3747L13.13,9.3356c-0.0826,0.0813,-0.13,0.1993,-0.13,0.3234v2.3791l-1.9,0.7057V9.659c0,-0.1241,-0.0493,-0.2421,-0.1353,-0.3234L8.8935,7.3747C8.6458,7.172,8.5,6.8539,8.5,6.5162V5.3568C8.5,4.8836,8.8516,4.5,9.2854,4.5h5.4594c0.4171,0,0.7552,0.3836,0.7552,0.8568v1.1594C15.5,6.8539,15.3598,7.172,15.1217,7.3747z" id="b" fill="#F5F5F5"/>
    <path d="M11.1,13.2438c-0.1007,0,-0.2005,-0.0304,-0.2855,-0.0895c-0.1344,-0.0935,-0.2146,-0.2468,-0.2146,-0.4105V9.6788L8.5615,7.7489C8.2096,7.4528,8,6.9936,8,6.5162V5.3568C8,4.6087,8.5766,4,9.2854,4h5.4594C15.4369,4,16,4.6087,16,5.3568v1.1593c0,0.4808,-0.1962,0.9265,-0.5392,1.2262L13.5,9.673v2.365c0,0.209,-0.13,0.3959,-0.3259,0.4687l-1.9,0.7057C11.2176,13.2334,11.1587,13.2438,11.1,13.2438zM13,12.038h0.001H13zM9.2854,5C9.1307,5,9,5.1634,9,5.3568v1.1593c0,0.1876,0.0785,0.3639,0.2101,0.4715c0.0093,0.0076,0.0184,0.0156,0.0271,0.0239l2.0713,1.9609C11.4938,9.148,11.6,9.3982,11.6,9.659v2.3657l0.9,-0.3343V9.659c0,-0.2571,0.1018,-0.5048,0.2791,-0.6796l1.9918,-1.961c0.0086,-0.0084,0.0175,-0.0167,0.0267,-0.0245c0.1267,-0.1079,0.2024,-0.2865,0.2024,-0.4777V5.3568c0,-0.1901,-0.1193,-0.3568,-0.2552,-0.3568H9.2854z" id="c2" fill="#0E7490"/>
  </g>
</svg>
