<?xml version="1.0" encoding="UTF-8"?>
<!DOCTYPE svg PUBLIC "-//W3C//DTD SVG 1.1//EN" "http://www.w3.org/Graphics/SVG/1.1/DTD/svg11.dtd">
<svg version="1.1" id="Layer_1" xmlns="http://www.w3.org/2000/svg" xmlns:xlink="http://www.w3.org/1999/xlink" x="0px" y="0px" width="16px" height="16px" viewBox="0 0 16 16" enable-background="new 0 0 16 16" xml:space="preserve">
  <g id="icon">
    <polygon points="14.05,3.35 11.35,1.45 4.65,1.45 2.05,3.45 2.05,6.1667 2.35,6.6667 2.8,15 13.5,15 13.55,6.7833 14.05,6.2833" id="b" fill="#F5F5F5" stroke-linejoin="miter"/>
    <path d="M9,9.5c0,-0.2761,0.2239,-0.5,0.5,-0.5h2c0.2761,0,0.5,0.2239,0.5,0.5v2c0,0.2761,-0.2239,0.5,-0.5,0.5H9.5c-0.2761,0,-0.5,-0.2239,-0.5,-0.5V9.5zM10,11h1v-1h-1V11zM4.1877,1.1096l-2.5,2C1.5219,3.2422,1.5,3.47,1.5,3.67V5.5c0,0.5629,0.186,1.0824,0.5,1.5002V14.5c0,0.2761,0.2239,0.5,0.5,0.5h11c0.2761,0,0.5,-0.2239,0.5,-0.5V7.0002c0.314,-0.4179,0.5,-0.9373,0.5,-1.5002V3.6655c0,-0.2004,-0.0218,-0.4233,-0.1876,-0.5559l-2.5,-2C11.7237,1.0386,11.6136,1,11.5,1H4.5C4.3865,1,4.2763,1.0386,4.1877,1.1096zM5.5,4v1.5c0,0.8284,-0.6716,1.5,-1.5,1.5s-1.5,-0.6716,-1.5,-1.5V4H5.5zM9.5,4v1.5c0,0.8284,-0.6716,1.5,-1.5,1.5s-1.5,-0.6716,-1.5,-1.5V4H9.5zM13.5,4v1.5c0,0.8284,-0.6716,1.5,-1.5,1.5s-1.5,-0.6716,-1.5,-1.5V4H13.5zM6.0285,2l-0.375,1H3.4254l1.25,-1H6.0285zM6.7215,3l0.375,-1h1.7931l0.3333,1H6.7215zM9.9437,2h1.3809l1.25,1H10.277L9.9437,2zM13,7.792V14H8V9.5c0,-0.2761,-0.2239,-0.5,-0.5,-0.5H4.5c-0.2761,0,-0.5,0.2239,-0.5,0.5v4.5H3V7.792C3.3062,7.9258,3.6444,8,4,8c0.8178,0,1.5439,-0.3927,2,-0.9998C6.4561,7.6073,7.1822,8,8,8s1.5439,-0.3927,2,-0.9998C10.4561,7.6073,11.1822,8,12,8C12.3556,8,12.6938,7.9258,13,7.792zM7,14H5v-4h2V14z" id="c1" fill="#404040"/>
  </g>
</svg>
