<?xml version="1.0" encoding="UTF-8"?>
<!DOCTYPE svg PUBLIC "-//W3C//DTD SVG 1.1//EN" "http://www.w3.org/Graphics/SVG/1.1/DTD/svg11.dtd">
<svg version="1.1" id="Layer_1" xmlns="http://www.w3.org/2000/svg" xmlns:xlink="http://www.w3.org/1999/xlink" x="0px" y="0px" width="16px" height="16px" viewBox="0 0 16 16" enable-background="new 0 0 16 16" xml:space="preserve">
  <g id="icon">
    <path d="M8,0C3.5817,0,0,3.5817,0,8c0,4.4183,3.5817,8,8,8s8,-3.5817,8,-8C16,3.5817,12.4183,0,8,0zM12.9355,9.3202c-0.2251,0.7728,-0.6316,1.5009,-1.2247,2.1107c-0.9712,0.9986,-2.2757,1.5485,-3.6782,1.5485c-1.1722,0,-2.3907,-0.5178,-3.3618,-1.2853L4.5,11.5506v1.9686c0,0.2497,-0.3127,0.3747,-0.4892,0.1982l-0.9287,-0.8968C3.0295,12.768,3,12.6967,3,12.6223V9.2803C3,9.1255,3.1255,9,3.2803,9h3.3291c0.0735,0,0.1441,0.0289,0.1966,0.0805l0.9102,0.9248c0.179,0.1761,0.0539,0.4807,-0.1973,0.48l-1.6717,-0.0044l0.467,0.3221c0.5268,0.3118,1.131,0.4766,1.7474,0.4766c0.9383,0,1.8168,-0.3792,2.4737,-1.0677c0.3025,-0.317,0.5321,-0.6771,0.69,-1.0595c0.0384,-0.0929,0.1301,-0.1524,0.2306,-0.1524h1.2371C12.8597,9,12.9822,9.16,12.9355,9.3202zM13,6.7197c0,0.1548,-0.1255,0.2803,-0.2803,0.2803H9.3906c-0.0735,0,-0.1441,-0.0289,-0.1966,-0.0805l-0.9102,-0.9248c-0.179,-0.1761,-0.0539,-0.4807,0.1973,-0.48l1.6717,0.0044l-0.467,-0.3221c-0.5268,-0.3118,-1.131,-0.4766,-1.7474,-0.4766c-0.9383,0,-1.8168,0.3792,-2.4737,1.0677c-0.3025,0.317,-0.5321,0.6771,-0.69,1.0595C4.7364,6.9405,4.6447,7,4.5442,7H3.3071c-0.1668,0,-0.2893,-0.16,-0.2426,-0.3202c0.2251,-0.7728,0.6316,-1.5009,1.2247,-2.1107c0.9712,-0.9986,2.2757,-1.5485,3.6782,-1.5485c1.1722,0,2.3907,0.5178,3.3618,1.2853L11.5,4.4494V2.4808c0,-0.2497,0.3127,-0.3747,0.4892,-0.1982l0.9287,0.8968c0.0526,0.0526,0.0821,0.1238,0.0821,0.1982V6.7197z" fill-rule="evenodd" fill="#529FBF"/>
    <path d="M3.3071,7c-0.1668,0,-0.2893,-0.16,-0.2426,-0.3202c0.2251,-0.7728,0.6316,-1.5009,1.2247,-2.1107c0.9712,-0.9986,2.2757,-1.5485,3.6782,-1.5485c1.1722,0,2.3907,0.5178,3.3618,1.2853L11.5,4.4494V2.4808c0,-0.2497,0.3127,-0.3747,0.4892,-0.1982l0.9287,0.8968c0.0526,0.0526,0.0821,0.1238,0.0821,0.1982v3.3421c0,0.1548,-0.1255,0.2803,-0.2803,0.2803H9.3906c-0.0735,0,-0.1441,-0.0289,-0.1966,-0.0805l-0.9102,-0.9248c-0.179,-0.1761,-0.0539,-0.4807,0.1973,-0.48l1.6717,0.0044l-0.467,-0.3221c-0.5268,-0.3118,-1.131,-0.4766,-1.7474,-0.4766c-0.9383,0,-1.8168,0.3792,-2.4737,1.0677c-0.3025,0.317,-0.5321,0.6771,-0.69,1.0595C4.7364,6.9405,4.6447,7,4.5442,7H3.3071zM11.4558,9c-0.1005,0,-0.1923,0.0595,-0.2306,0.1524c-0.1579,0.3824,-0.3875,0.7425,-0.69,1.0595c-0.6569,0.6885,-1.5354,1.0677,-2.4737,1.0677c-0.6164,0,-1.2207,-0.1648,-1.7474,-0.4766l-0.467,-0.3221l1.6717,0.0044c0.2512,0.0007,0.3763,-0.3039,0.1973,-0.48l-0.9102,-0.9248C6.7535,9.0289,6.6829,9,6.6094,9H3.2803C3.1255,9,3,9.1255,3,9.2803v3.3421c0,0.0743,0.0295,0.1456,0.0821,0.1982l0.9287,0.8968c0.1766,0.1766,0.4892,0.0515,0.4892,-0.1982v-1.9686l0.1708,0.1435c0.9711,0.7675,2.1896,1.2853,3.3618,1.2853c1.4025,0,2.7071,-0.5499,3.6782,-1.5485c0.593,-0.6098,0.9996,-1.3379,1.2247,-2.1107C12.9822,9.16,12.8597,9,12.6929,9H11.4558z" fill="#FFFFFF"/>
  </g>
</svg>
