<?xml version="1.0" encoding="UTF-8"?>
<!DOCTYPE svg PUBLIC "-//W3C//DTD SVG 1.1//EN" "http://www.w3.org/Graphics/SVG/1.1/DTD/svg11.dtd">
<svg version="1.1" id="Layer_1" xmlns="http://www.w3.org/2000/svg" xmlns:xlink="http://www.w3.org/1999/xlink" x="0px" y="0px" width="16px" height="16px" viewBox="0 0 16 16" enable-background="new 0 0 16 16" xml:space="preserve">
  <g id="icon">
    <path d="M8,0C3.5817,0,0,3.5817,0,8c0,4.4183,3.5817,8,8,8c4.4183,0,8,-3.5817,8,-8C16,3.5817,12.4183,0,8,0zM12,8.9936c0,0.0628,-0.0243,0.1231,-0.0678,0.1684c0,0,-3.1144,3.0205,-3.8173,3.7544c-0.0733,0.0765,-0.1955,0.076,-0.2681,-0.0012c-0.6926,-0.7363,-3.7804,-3.7532,-3.7804,-3.7532c-0.0427,-0.0453,-0.0665,-0.1052,-0.0663,-0.1675l0.0067,-2.3708c0.0003,-0.0985,0.1127,-0.1477,0.1825,-0.0781L7,9.1047V3.3c0,-0.1342,0.122,-0.3,0.2563,-0.3h0.5628h0.476h0.4511C8.8804,3,9,3.1658,9,3.3v5.8047l2.8166,-2.548c0.0699,-0.0694,0.1834,-0.0199,0.1834,0.0786V8.9936z" fill-rule="evenodd" fill="#CC4B31"/>
    <path d="M4.0663,9.162c-0.0427,-0.0453,-0.0665,-0.1052,-0.0663,-0.1675l0.0067,-2.3708c0.0003,-0.0985,0.1194,-0.1477,0.1891,-0.0781l2.8175,2.5591V3.3c0,-0.1342,0.1088,-0.3,0.243,-0.3h0.5628h0.476h0.4511c0.1342,0,0.243,0.1658,0.243,0.3v5.8047l2.8219,-2.548c0.0699,-0.0694,0.1888,-0.0199,0.1888,0.0786v2.3583c0,0.0628,-0.0243,0.1231,-0.0678,0.1684c0,0,-3.1144,3.0205,-3.8173,3.7544c-0.0733,0.0765,-0.1955,0.076,-0.2681,-0.0012C7.1541,12.1789,4.0663,9.162,4.0663,9.162z" fill-rule="evenodd" fill="#FFFFFF"/>
  </g>
</svg>
