<?xml version="1.0" encoding="utf-8"?>
<!-- Generator: Adobe Illustrator 19.0.0, SVG Export Plug-In . SVG Version: 6.00 Build 0)  -->
<svg version="1.1" id="Layer_1" xmlns="http://www.w3.org/2000/svg" xmlns:xlink="http://www.w3.org/1999/xlink" x="0px" y="0px"
	 viewBox="-289 412.9 16 16" style="enable-background:new -289 412.9 16 16;" xml:space="preserve">
<style type="text/css">
	.st0{fill:#529FBF;}
	.st1{fill:#FFFFFF;}
</style>
<g id="icon">
	<path class="st0" d="M-281,413c-4.4,0-7.9,3.5-7.9,7.9s3.5,7.9,7.9,7.9s7.9-3.5,7.9-7.9S-276.6,413-281,413z"/>
</g>
<g>
	<path class="st1" d="M-276.5,415.8h-9c-0.5,0-0.9,0.4-0.9,0.9v1.1v0.7v6.6c0,0.4,0.4,0.8,0.8,0.8h9.2c0.4,0,0.8-0.4,0.8-0.8v-6.6
		v-0.7v-1.1C-275.6,416.2-276,415.8-276.5,415.8z M-278.3,417.9v1.4h-1.4v-1.4H-278.3z M-279.6,419.9h1.4v1.4h-1.4V419.9z
		 M-279.6,421.9h1.4v1.3h-1.4V421.9z M-285.7,421.9h1v-0.7h-1v-1.4h1v-0.7h-1v-1.4h1.4v1h0.7v-1h1.4v1h0.7v-1h1.3v1.4h-1v0.7h1v1.4
		h-1v0.7h1v1.3h-1.3v-1h-0.7v1h-1.4v-1h-0.7v1h-1.4V421.9z M-285.6,425.3c-0.1,0-0.1-0.1-0.1-0.1v-1.2h1.4v1.4H-285.6z
		 M-283.7,425.3v-1.4h1.4v1.4H-283.7z M-281.7,425.3v-1.4h1.3v1.4H-281.7z M-279.6,425.3v-1.4h1.4v1.4H-279.6z M-276.3,425.1
		c0,0.1-0.1,0.1-0.1,0.1h-1.2v-1.4h1.4V425.1z M-276.3,423.3h-1.4v-1.3h1.4V423.3z M-276.3,421.2h-1.4v-1.4h1.4V421.2z
		 M-276.3,419.2h-1.4v-1.4h1.4V419.2z"/>
	<path class="st1" d="M-281.7,419.2h-2.7v2.7h2.7V419.2z M-282.4,421.2h-1.4v-1.4h1.4V421.2z"/>
</g>
</svg>
