<?xml version="1.0" encoding="UTF-8"?>
<!DOCTYPE svg PUBLIC "-//W3C//DTD SVG 1.1//EN" "http://www.w3.org/Graphics/SVG/1.1/DTD/svg11.dtd">
<svg version="1.1" id="Layer_1" xmlns="http://www.w3.org/2000/svg" xmlns:xlink="http://www.w3.org/1999/xlink" x="0px" y="0px" width="16px" height="16px" viewBox="0 0 16 16" enable-background="new 0 0 16 16" xml:space="preserve">
  <g id="icon">
    <path d="M3.0421,6.3286c-0.7227,0.7192,-0.7227,1.8852,0,2.6044l3.0425,3.0277c0.7227,0.7192,1.8945,0.7192,2.6172,0l4.4336,-4.4125c0.3438,-0.3421,0.5384,-0.8051,0.5419,-1.2889l0.0225,-3.1043c0.0075,-1.0253,-0.828,-1.8592,-1.8583,-1.8549l-3.0005,0.0125c-0.4881,0.002,-0.9557,0.1959,-1.3009,0.5394L3.0421,6.3286z" id="b" fill="#F5F5F5"/>
    <path d="M2.4682,10.4157c-0.2022,-0.2161,-0.559,-0.0465,-0.5276,0.2478c0.0468,0.4386,0.2383,0.8646,0.5744,1.2008l1.9645,1.9645c1.5621,1.5621,4.0948,1.5621,5.6569,0l3.4822,-3.4823c0.2813,-0.2814,0.4394,-0.6629,0.4394,-1.0608v0c0,-0.2872,-0.3472,-0.431,-0.5502,-0.2279l-3.3712,3.3711c-0.0687,0.0687,-0.1393,0.1344,-0.2116,0.197l-0.4957,0.4958c-1.1716,1.1715,-3.0711,1.1715,-4.2426,0l-0.4987,-0.4987c-0.0711,-0.0618,-0.1406,-0.1265,-0.2082,-0.1941l-1.9645,-1.9645C2.4992,10.4484,2.4835,10.4321,2.4682,10.4157z" id="c2" fill="#404040"/>
    <path d="M11.4143,4.6601c-0.3008,0.2986,-0.7883,0.2986,-1.0891,0c-0.3007,-0.2986,-0.3007,-0.7828,0,-1.0814c0.3008,-0.2986,0.7883,-0.2986,1.0891,0C11.715,3.8773,11.715,4.3615,11.4143,4.6601zM2.5936,9.159c-0.7862,-0.7814,-0.7862,-2.0482,0,-2.8296L7.353,1.5993c0.3755,-0.3732,0.8841,-0.5838,1.4152,-0.586l3.2641,-0.0135c1.1209,-0.0047,2.0297,0.9013,2.0216,2.0153l-0.0245,3.3728c-0.0038,0.5256,-0.2156,1.0287,-0.5896,1.4004l-4.6892,4.6603c-0.7862,0.7813,-2.0609,0.7813,-2.8472,0L2.5936,9.159zM3.3054,7.0367c-0.3931,0.3907,-0.3931,1.0241,0,1.4148l3.3098,3.2894c0.3931,0.3907,1.0305,0.3907,1.4236,0l4.6891,-4.6603c0.187,-0.1858,0.2929,-0.4374,0.2948,-0.7002l0.0245,-3.3727c0.0041,-0.557,-0.4503,-1.01,-1.0108,-1.0076l-3.2641,0.0135c-0.2655,0.0011,-0.5198,0.1064,-0.7076,0.293L3.3054,7.0367z" id="c1" fill="#404040"/>
  </g>
</svg>
