<?xml version="1.0" encoding="UTF-8"?>
<!DOCTYPE svg PUBLIC "-//W3C//DTD SVG 1.1//EN" "http://www.w3.org/Graphics/SVG/1.1/DTD/svg11.dtd">
<svg version="1.1" id="Layer_1" xmlns="http://www.w3.org/2000/svg" xmlns:xlink="http://www.w3.org/1999/xlink" x="0px" y="0px" width="24px" height="24px" viewBox="0 0 24 24" enable-background="new 0 0 24 24" xml:space="preserve">
  <g id="main">
    <g id="icon">
      <path d="M2,19.9L10.15,19.9L9.968,19.54L9.267,19.54L8.912,19.5L8.58,19.4L8.28,19.23L8.018,19.02L7.802,18.75L7.639,18.45L7.536,18.12L7.5,17.76L7.5,15.67L7.536,15.31L7.639,14.98L7.802,14.68L8.018,14.42L8.28,14.2L8.58,14.04L8.912,13.93L9.267,13.9L9.968,13.9L10.35,13.12L10.83,12.39L10.47,11.72L10.33,11.4L10.26,11.06L10.25,10.73L10.31,10.4L10.43,10.08L10.6,9.798L10.84,9.546L11.12,9.338L12.91,8.291L13.34,8.11L13.8,8.048L14.27,8.112L14.7,8.295L15.07,8.583L15.35,8.965L15.68,9.576L16.5,9.528L17.34,9.579L17.72,8.928L18,8.561L18.37,8.283L18.79,8.107L19.25,8.045L19.71,8.107L20,8.23L20,6L2,6zz" fill="#FFFFFF" opacity="0.4"/>
      <path d="M0,22L10.36,22L10.45,21.78L10.84,21.06L10.36,20.32L10.2,20L2,20L2,6L20,6L20,8.23L20.14,8.288L21.92,9.335L22,9.395L22,4L0,4zz" fill="#7B7B7B"/>
      <path d="M0,6L22,6L22,0L0,0zz" fill="#6485C3"/>
      <path d="M10,4L12,4L12,2L10,2zM14,4L16,4L16,2L14,2zM18,4L20,4L20,2L18,2zz" fill="#FFFFFF"/>
    </g>
    <g id="overlay">
      <path d="M18.0995,22.1706c-0.5174,0.1564,-1.055,0.2357,-1.5995,0.2357s-1.0821,-0.0793,-1.5995,-0.2357l-0.8685,1.6247c-0.0718,0.1343,-0.2378,0.1821,-0.3678,0.1058l-1.7856,-1.0474c-0.1259,-0.0739,-0.171,-0.2368,-0.1014,-0.3669l0.875,-1.6368c-0.7967,-0.7655,-1.348,-1.7351,-1.5998,-2.8132H9.2672c-0.1476,0,-0.2672,-0.1221,-0.2672,-0.2727v-2.0933c0,-0.1506,0.1196,-0.2727,0.2672,-0.2727h1.7852c0.2518,-1.0782,0.8031,-2.0477,1.5998,-2.8132l-0.8707,-1.5828c-0.0717,-0.1304,-0.0272,-0.2953,0.0998,-0.3698l1.7857,-1.0474c0.1289,-0.0756,0.2935,-0.0293,0.3662,0.1029l0.8672,1.5765c0.5173,-0.1564,1.055,-0.2357,1.5995,-0.2357s1.0821,0.0793,1.5995,0.2357l0.9168,-1.5846c0.0744,-0.1286,0.2364,-0.1722,0.3633,-0.0978l1.7857,1.0474c0.129,0.0757,0.1726,0.2442,0.0969,0.375l-0.9145,1.5806c0.7967,0.7655,1.348,1.7351,1.5998,2.8132h1.7853c0.1476,0,0.2672,0.1221,0.2672,0.2727v2.0933c0,0.1506,-0.1196,0.2727,-0.2672,0.2727h-1.7853c-0.2518,1.0782,-0.8031,2.0477,-1.5998,2.8132l0.919,1.6346c0.0734,0.1305,0.0293,0.297,-0.0986,0.372l-1.7857,1.0475c-0.128,0.0751,-0.2915,0.03,-0.365,-0.1007L18.0995,22.1706zM16.5001,13.9116c-1.5163,0,-2.7499,1.2587,-2.7499,2.8058s1.2336,2.8058,2.7499,2.8058c1.5163,0,2.7499,-1.2587,2.7499,-2.8058S18.0164,13.9116,16.5001,13.9116z" fill="#7B7B7B"/>
    </g>
  </g>
</svg>
