<?xml version="1.0" encoding="UTF-8"?>
<!DOCTYPE svg PUBLIC "-//W3C//DTD SVG 1.1//EN" "http://www.w3.org/Graphics/SVG/1.1/DTD/svg11.dtd">
<svg version="1.1" id="Layer_1" xmlns="http://www.w3.org/2000/svg" xmlns:xlink="http://www.w3.org/1999/xlink" x="0px" y="0px" width="16px" height="16px" viewBox="0 0 16 16" enable-background="new 0 0 16 16" xml:space="preserve">
  <g id="icon">
    <path d="M0,1v3h16V1H0zM11,3h-1V2h1V3zM13,3h-1V2h1V3zM15,3h-1V2h1V3z" fill="#6485C3"/>
    <path d="M15,3h-1V2h1V3zM13,3h-1V2h1V3zM11,3h-1V2h1V3z" fill="#FFFFFF" opacity="0.5"/>
    <path d="M15,5H0v10h16V5H15zM3.0036,12.6893l-0.7071,-0.7071l2.0393,-2.0393L2.2964,7.9036l0.7071,-0.7071L5.75,9.9429L3.0036,12.6893zM10,13H6v-1h4V13z" fill="#6D6E71"/>
    <polygon points="0,4 0,5 4,5 4,5 5,5 5,5 16,5 16,4" fill="#FFFFFF" stroke-linejoin="miter" opacity="0.5"/>
    <path d="M10,13H6v-1h4V13zM3.0036,12.6893l-0.7071,-0.7071l2.0393,-2.0393L2.2964,7.9036l0.7071,-0.7071L5.75,9.9429L3.0036,12.6893z" fill="#FFFFFF" opacity="0.5"/>
  </g>
</svg>
