<?xml version="1.0" encoding="UTF-8"?>
<!DOCTYPE svg PUBLIC "-//W3C//DTD SVG 1.1//EN" "http://www.w3.org/Graphics/SVG/1.1/DTD/svg11.dtd">
<svg version="1.1" id="Layer_1" xmlns="http://www.w3.org/2000/svg" xmlns:xlink="http://www.w3.org/1999/xlink" x="0px" y="0px" width="24px" height="24px" viewBox="0 0 24 24" enable-background="new 0 0 24 24" xml:space="preserve">
  <g id="icon">
    <path d="M0,1v6h24V1H0zM14,5h-2V3h2V5zM18,5h-2V3h2V5zM22,5h-2V3h2V5z" fill="#6485C3"/>
    <path d="M22,5h-2V3h2V5zM18,5h-2V3h2V5zM14,5h-2V3h2V5z" fill="#FFFFFF" opacity="0.5"/>
    <polygon points="24,7 0,7 0,8 7,8 7,8 8,8 8,8 24,8" fill="#FFFFFF" stroke-linejoin="miter" opacity="0.5"/>
    <path d="M22,8H0v15h24V8H22zM4.4312,19.9848l-1.0607,-1.0607l3.059,-3.0589l-3.059,-3.059l1.0607,-1.0607l4.1197,4.1197L4.4312,19.9848zM15,20H9v-1.5h6V20z" fill="#7B7B7B"/>
    <path d="M15,20H9v-1.5h6V20zM4.4312,19.9848l-1.0607,-1.0607l3.059,-3.0589l-3.059,-3.059l1.0607,-1.0607l4.1197,4.1197L4.4312,19.9848z" fill="#FFFFFF" opacity="0.5"/>
  </g>
</svg>
