<?xml version="1.0" encoding="UTF-8"?>
<!DOCTYPE svg PUBLIC "-//W3C//DTD SVG 1.1//EN" "http://www.w3.org/Graphics/SVG/1.1/DTD/svg11.dtd">
<svg version="1.1" id="Layer_1" xmlns="http://www.w3.org/2000/svg" xmlns:xlink="http://www.w3.org/1999/xlink" x="0px" y="0px" width="16px" height="16px" viewBox="0 0 16 16" enable-background="new 0 0 16 16" xml:space="preserve">
  <g id="icon">
    <polygon points="15,15 4,15 4,1 11,1 11,5.0125 15,5" fill="#FFFFFF" stroke-linejoin="miter" opacity="0.4"/>
    <polygon points="11.3625,0 3,0 3,6 4,6 4,1 11,1 11,5.0125 15,5 15,15 10,15 10,16 16,16 16,4.65" fill="#6D6E71" stroke-linejoin="miter"/>
    <path d="M3.3795,13.7218c0.3128,0.4718,-0.0065,1.1605,-0.7133,1.5382s-1.7333,0.3014,-2.0461,-0.1704c-0.3128,-0.4718,0.1065,-1.1605,0.8133,-1.5382C2.1401,13.1737,3.0667,13.25,3.3795,13.7218zM6.4435,13.0495c-0.7033,0.3777,-1.121,1.0663,-0.8097,1.5382c0.3113,0.4718,1.3337,0.5481,2.037,0.1704c0.7033,-0.3777,1.021,-1.0663,0.7097,-1.5382C8.0692,12.7481,7.1468,12.6718,6.4435,13.0495z" fill="#FFFFFF"/>
    <path d="M1.6591,15.9993c-0.5967,0,-1.1671,-0.1982,-1.4557,-0.6334c-0.1806,-0.2724,-0.2332,-0.608,-0.148,-0.9451c0.1278,-0.5065,0.5549,-0.9964,1.1424,-1.3103c0.9511,-0.5083,2.141,-0.355,2.5985,0.3351l0,0c0.1949,0.2939,0.252,0.6547,0.1608,1.016c-0.1253,0.4963,-0.5099,0.9481,-1.0551,1.2395C2.539,15.8949,2.0921,15.9993,1.6591,15.9993zM2.3964,13.8121c-0.2267,0,-0.488,0.0524,-0.7273,0.1803c-0.3787,0.2024,-0.5964,0.4839,-0.6442,0.6731c-0.0237,0.0939,0.0013,0.1316,0.0119,0.1477c0.1242,0.1873,0.8321,0.3058,1.3938,0.0058c0.3449,-0.1844,0.5138,-0.432,0.5568,-0.6023c0.0332,-0.1314,-0.0104,-0.1971,-0.0246,-0.2186l0,0C2.8893,13.8873,2.6678,13.8121,2.3964,13.8121zM6.6677,15.4977c-0.5949,0,-1.1636,-0.1985,-1.4513,-0.6346c-0.1797,-0.2724,-0.2318,-0.608,-0.1467,-0.945c0.1277,-0.5059,0.5529,-0.9952,1.1372,-1.309l0,0c0.9484,-0.5093,2.1349,-0.3557,2.5909,0.3355c0.194,0.294,0.2505,0.655,0.1593,1.0163c-0.1251,0.4955,-0.5078,0.9465,-1.0499,1.2376C7.5453,15.393,7.0996,15.4977,6.6677,15.4977zM6.6801,13.49c-0.3763,0.2021,-0.593,0.4836,-0.6408,0.6729c-0.024,0.0951,0.0011,0.1332,0.0118,0.1495c0.1231,0.1865,0.8256,0.3047,1.383,0.0052c0.3425,-0.1839,0.5105,-0.4313,0.5535,-0.6016c0.0335,-0.1328,-0.0102,-0.199,-0.0245,-0.2208C7.8295,13.2929,7.2016,13.2099,6.6801,13.49L6.6801,13.49z" fill="#52B250"/>
    <polygon points="8.5,8.8771 3.4,9.857 3.4,7.9583 8.5,6.9784" fill="#FFFFFF" stroke-linejoin="miter"/>
    <path d="M4,14.1H3V7.5814l6,-1.0839V13.5H8V9.4988l-4,0.7227V14.1zM4,8.417v0.7882l4,-0.7226v-0.7882L4,8.417z" fill="#52B250"/>
  </g>
</svg>
