<?xml version="1.0" encoding="UTF-8"?>
<!DOCTYPE svg PUBLIC "-//W3C//DTD SVG 1.1//EN" "http://www.w3.org/Graphics/SVG/1.1/DTD/svg11.dtd">
<svg version="1.1" id="Layer_1" xmlns="http://www.w3.org/2000/svg" xmlns:xlink="http://www.w3.org/1999/xlink" x="0px" y="0px" width="16px" height="16px" viewBox="0 0 16 16" enable-background="new 0 0 16 16" xml:space="preserve">
  <g id="icon">
    <path d="M0.5,4.5v10h15V4.5H0.5z" fill="#FFFFFF" opacity="0.4"/>
    <path d="M16,15H0V4h16V15zM1,14h14V5H1V14z" fill="#6D6E71"/>
    <path d="M13,3h-1V0h1V3zM4,3H3V0h1V3z" fill="#6D6E71"/>
    <polygon points="14,1 14,3 11,3 11,1 5,1 5,3 2,3 2,1 0,1 0,5 16,5 16,1" fill="#9070B1" stroke-linejoin="miter"/>
    <path d="M2.8,12.9782v-0.8789l2.252,-2.345c0.1773,-0.1789,0.3451,-0.3522,0.4998,-0.5166c0.1387,-0.1474,0.2618,-0.2987,0.3658,-0.4499c0.0935,-0.1359,0.1687,-0.2794,0.2235,-0.4265c0.0469,-0.126,0.0708,-0.2671,0.0708,-0.4195c0,-0.1794,-0.0274,-0.3265,-0.0815,-0.4371c-0.0571,-0.1167,-0.127,-0.2078,-0.2133,-0.2784c-0.0922,-0.0753,-0.1963,-0.1297,-0.3181,-0.1662c-0.1379,-0.0414,-0.2886,-0.0633,-0.436,-0.0633c-0.159,0,-0.3127,0.025,-0.4445,0.0723c-0.1311,0.0471,-0.2424,0.111,-0.3403,0.1955c-0.0953,0.0824,-0.1723,0.1818,-0.2354,0.3041c-0.0656,0.1274,-0.1101,0.2765,-0.1321,0.443l-0.0131,0.0991l-1.1865,-0.1565l0.0131,-0.0992c0.04,-0.3036,0.1257,-0.5844,0.2547,-0.8348c0.1328,-0.2574,0.3067,-0.48,0.5171,-0.6617c0.2085,-0.1799,0.4502,-0.3199,0.7184,-0.4162C4.5782,5.848,4.8658,5.8,5.169,5.8c0.2614,0,0.5216,0.0383,0.7735,0.1138c0.272,0.0815,0.5182,0.2114,0.7319,0.386c0.2194,0.1795,0.398,0.4079,0.5307,0.6788c0.135,0.276,0.2035,0.6001,0.2035,0.9634c0,0.2956,-0.0492,0.5773,-0.1461,0.8374c-0.0891,0.2391,-0.2099,0.4702,-0.359,0.687c-0.1383,0.201,-0.3,0.4001,-0.4804,0.5918c-0.1623,0.1724,-0.3354,0.3515,-0.5147,0.5322l-1.1437,1.1909h2.6214v1.1969H2.8z" fill="#CB525D"/>
    <path d="M10.7529,12.9675c-0.3225,0,-0.6105,-0.0426,-0.8559,-0.1266c-0.2417,-0.0826,-0.4546,-0.1917,-0.6326,-0.3242c-0.1794,-0.1334,-0.329,-0.2847,-0.4446,-0.4498c-0.1021,-0.1455,-0.1842,-0.2894,-0.2439,-0.4278c-0.0575,-0.1332,-0.0984,-0.25,-0.1249,-0.3574c-0.009,-0.0361,-0.0201,-0.0827,-0.0299,-0.1239c0,0,-0.0157,-0.0662,-0.0181,-0.0754l-0.0248,-0.0954l1.1517,-0.3175l0.0271,0.0956c0.0037,0.0131,0.0148,0.0583,0.0276,0.1121c0.0091,0.0384,0.0195,0.0823,0.0281,0.1167c0.0073,0.0294,0.0239,0.0828,0.0618,0.1704c0.0277,0.0641,0.0698,0.1366,0.1252,0.2155c0.0422,0.0601,0.1025,0.1195,0.1792,0.1766c0.0784,0.0583,0.1811,0.1095,0.3054,0.152c0.1207,0.0413,0.2783,0.0623,0.4687,0.0623c0.2043,0,0.3783,-0.0318,0.5171,-0.0947c0.1463,-0.0663,0.2671,-0.1488,0.3589,-0.2451c0.0933,-0.0979,0.1608,-0.201,0.2064,-0.3151c0.0449,-0.1128,0.0677,-0.2193,0.0677,-0.3165c0,-0.1303,-0.0208,-0.2458,-0.0636,-0.3532c-0.0349,-0.0872,-0.0904,-0.1629,-0.1699,-0.2313c-0.0907,-0.0781,-0.2175,-0.1435,-0.3771,-0.1943c-0.2154,-0.0687,-0.4266,-0.1016,-0.6649,-0.1037l-0.5933,-0.0051V8.7191l0.5788,-0.019c0.1717,-0.0057,0.3401,-0.0635,0.5184,-0.1247c0.1396,-0.048,0.2561,-0.1115,0.3461,-0.1887c0.0838,-0.0718,0.1462,-0.1531,0.1908,-0.2487c0.0437,-0.0938,0.0649,-0.1998,0.0649,-0.3241c0,-0.1594,-0.0232,-0.29,-0.069,-0.3882c-0.0453,-0.0969,-0.1015,-0.172,-0.1717,-0.2293c-0.0791,-0.0646,-0.1691,-0.1115,-0.2752,-0.1434c-0.1221,-0.0365,-0.2571,-0.0559,-0.3903,-0.0559c-0.146,0,-0.2852,0.0228,-0.4024,0.0659c-0.1182,0.0435,-0.2175,0.1014,-0.3036,0.1771c-0.0892,0.0785,-0.1618,0.1703,-0.2219,0.2807c-0.0617,0.1133,-0.1255,0.3047,-0.1484,0.4453l-0.0161,0.0987l-1.1813,-0.192l0.0161,-0.0987c0.0441,-0.2715,0.1534,-0.5955,0.2784,-0.8253c0.1268,-0.2329,0.2892,-0.4373,0.4829,-0.6074c0.1962,-0.1726,0.4253,-0.3078,0.681,-0.4018C10.2639,5.847,10.539,5.8,10.8293,5.8c0.2495,0,0.4958,0.0359,0.732,0.1066c0.2562,0.077,0.4878,0.199,0.6884,0.3627c0.2097,0.1714,0.3776,0.3901,0.499,0.65c0.1205,0.258,0.1815,0.5589,0.1815,0.8946c0,0.2985,-0.0596,0.5777,-0.177,0.8297c-0.1008,0.2164,-0.2395,0.4097,-0.413,0.5761c0.0383,0.0282,0.0751,0.0576,0.1103,0.0878c0.2257,0.1943,0.3942,0.4282,0.5007,0.695c0.0987,0.2477,0.1488,0.5157,0.1488,0.7967c0,0.2498,-0.0515,0.5054,-0.1529,0.7599c-0.1017,0.255,-0.2536,0.4896,-0.4516,0.6974c-0.1983,0.2082,-0.4445,0.3797,-0.7317,0.5098C11.4688,12.8998,11.1287,12.9675,10.7529,12.9675z" fill="#CB525D"/>
  </g>
</svg>
