<?xml version="1.0" encoding="UTF-8"?>
<!DOCTYPE svg PUBLIC "-//W3C//DTD SVG 1.1//EN" "http://www.w3.org/Graphics/SVG/1.1/DTD/svg11.dtd">
<svg version="1.1" id="Layer_1" xmlns="http://www.w3.org/2000/svg" xmlns:xlink="http://www.w3.org/1999/xlink" x="0px" y="0px" width="24px" height="24px" viewBox="0 0 24 24" enable-background="new 0 0 24 24" xml:space="preserve">
  <g id="icon">
    <path d="M22.5,20.5H1.5V4.5h21V20.5z" fill="#FFFFFF" opacity="0.5"/>
    <path d="M24,22H0V3h24V22zM2,20h20V5H2V20z" fill="#7B7B7B"/>
    <path d="M20,12h-5v-1h5V12zM20,18h-5v-1h5V18zM20,10h-5V9h5V10zM20,8h-5V7h5V8z" fill="#6D6E71"/>
    <path d="M8.1717,14.7305c-0.1384,-0.1982,-0.2219,-0.2626,-0.2219,-0.458c0.0182,-0.4224,0.0674,-0.3406,0.572,-0.3406c0.5046,0,0.5618,-0.0818,0.5436,0.3398c0.0047,0.1912,-0.0137,0.2717,-0.1972,0.4596c-0.0042,0.3119,0.0648,0.9975,0.1385,1.6325c-0.0974,0.2636,-0.203,0.5247,-0.3211,0.7796c-0.0203,0.0457,-0.039,0.0886,-0.0566,0.1288c-0.0437,0.1,-0.0915,0.2094,-0.129,0.2761c-0.0375,-0.0666,-0.0853,-0.176,-0.1289,-0.2759c-0.0176,-0.0403,-0.0363,-0.0833,-0.0579,-0.1318c-0.1059,-0.2286,-0.1986,-0.4616,-0.2831,-0.6963C8.095,15.7911,8.1619,15.0608,8.1717,14.7305z" fill="#6D6E71"/>
    <path d="M11.303,13.2608c-0.9266,-0.222,-0.9371,-0.2067,-1.1913,0.4823c-0.4176,1.132,-0.6902,2.3478,-1.2133,3.477c-0.1731,0.3898,-0.2344,0.5796,-0.3983,0.5784c-0.164,0.0012,-0.2252,-0.1885,-0.3983,-0.5784c-0.5231,-1.1291,-0.7215,-2.31,-1.1635,-3.4356c-0.2988,-0.7608,-0.325,-0.7695,-1.2411,-0.5236C4.1459,13.6771,3,15.2776,3,16.5681c0,1.8782,2.75,1.4783,5.5,1.4783s5.5,0.2609,5.5,-1.4783C14,15.2637,12.8693,13.636,11.303,13.2608z" fill="#6485C3"/>
    <path d="M8.4869,13.6903c-0.591,-0.0052,-1.1217,-0.2596,-1.4943,-0.7165c-0.9015,-1.1051,-1.3398,-2.2168,-1.3398,-3.3986c0,-0.1961,0.0339,-0.3918,0.0634,-0.5403c0.2583,-1.2999,1.211,-1.9881,2.755,-1.9905h0.052c1.544,0.0023,2.4967,0.6906,2.755,1.9905c0.0295,0.1484,0.0634,0.344,0.0634,0.5403c0,1.1818,-0.4382,2.2934,-1.3397,3.3986c-0.3723,0.4563,-0.9035,0.7108,-1.4957,0.7165l-0.0158,0L8.4869,13.6903zM8.4719,7.7334c-1.1752,0.0018,-1.8391,0.4686,-2.0296,1.4272c-0.0238,0.1194,-0.051,0.2745,-0.051,0.4146c0,1.0254,0.3889,2.0005,1.1889,2.9812c0.2311,0.2833,0.5551,0.4413,0.9123,0.4448h0.01c0.3567,-0.0035,0.6807,-0.1615,0.9119,-0.4448c0.8,-0.9807,1.1889,-1.9559,1.1889,-2.9812c0,-0.14,-0.0273,-0.2951,-0.051,-0.4146c-0.1905,-0.9586,-0.8544,-1.4254,-2.0296,-1.4272H8.4719z" fill="#6485C3"/>
    <path d="M5.8409,10.2456c-0.033,-0.2237,-0.0497,-0.4506,-0.0497,-0.6759c0,-0.1883,0.0326,-0.3792,0.061,-0.5244c0.2445,-1.2499,1.1502,-1.9117,2.6193,-1.9139h0.0517c1.4688,0.0023,2.3746,0.6641,2.6191,1.9139c0.0284,0.1452,0.061,0.3361,0.061,0.5244c0,0.1652,-0.0092,0.3328,-0.0273,0.4994h-0.4394c-0.043,-0.1014,-0.126,-0.1962,-0.2028,-0.2498c-0.1903,-0.1327,-0.4237,-0.2574,-0.6495,-0.3781c-0.1725,-0.0922,-0.3508,-0.1875,-0.5018,-0.2825l-0.0592,-0.0372l-0.0619,0.033c-0.1354,0.0721,-0.2726,0.1505,-0.4052,0.2263c-0.3054,0.1745,-0.6212,0.355,-0.9548,0.4829c-0.3254,0.1247,-0.7255,0.2111,-1.1125,0.2946c-0.137,0.0296,-0.2667,0.0576,-0.3937,0.0872H5.8409z" fill="#6485C3"/>
  </g>
</svg>
