<?xml version="1.0" encoding="UTF-8"?>
<!DOCTYPE svg PUBLIC "-//W3C//DTD SVG 1.1//EN" "http://www.w3.org/Graphics/SVG/1.1/DTD/svg11.dtd">
<svg version="1.1" id="Layer_1" xmlns="http://www.w3.org/2000/svg" xmlns:xlink="http://www.w3.org/1999/xlink" x="0px" y="0px" width="16px" height="16px" viewBox="0 0 16 16" enable-background="new 0 0 16 16" xml:space="preserve">
  <g id="icon">
    <path d="M15.5,13.5H0.5V2.5h15V13.5z" fill="#FFFFFF" opacity="0.5"/>
    <path d="M16,14H0V2h16V14zM1,13h14V3H1V13z" fill="#6D6E71"/>
    <path d="M14,10h-3V9h3V10zM14,8h-3V7h3V8zM14,6h-3V5h3V6z" fill="#6D6E71"/>
    <path d="M5.7612,9.5708c-0.1007,-0.1436,-0.1614,-0.1904,-0.1614,-0.332c0.0132,-0.3062,0.049,-0.2469,0.416,-0.2469c0.367,0,0.4086,-0.0593,0.3954,0.2463c0.0034,0.1386,-0.01,0.197,-0.1434,0.3331c-0.003,0.2261,0.0471,0.723,0.1007,1.1832c-0.0709,0.1911,-0.1476,0.3803,-0.2335,0.5651c-0.0147,0.0331,-0.0284,0.0642,-0.0412,0.0934c-0.0318,0.0725,-0.0665,0.1518,-0.0938,0.2001c-0.0273,-0.0483,-0.062,-0.1275,-0.0938,-0.2c-0.0128,-0.0292,-0.0264,-0.0603,-0.0421,-0.0955c-0.077,-0.1657,-0.1445,-0.3346,-0.2059,-0.5047C5.7055,10.3396,5.7541,9.8102,5.7612,9.5708z" fill="#6D6E71"/>
    <path d="M8.0385,8.5056c-0.6739,-0.1609,-0.6815,-0.1498,-0.8664,0.3496c-0.3037,0.8205,-0.502,1.7017,-0.8824,2.5201c-0.1259,0.2826,-0.1704,0.4201,-0.2897,0.4192c-0.1193,0.0009,-0.1638,-0.1366,-0.2897,-0.4192c-0.3805,-0.8184,-0.5247,-1.6743,-0.8462,-2.4901c-0.2173,-0.5514,-0.2364,-0.5577,-0.9026,-0.3795C2.8334,8.8073,2,9.9674,2,10.9027c0,1.3613,2,1.0715,4,1.0715s4,0.1891,4,-1.0715C10,9.9573,9.1777,8.7775,8.0385,8.5056z" fill="#6485C3"/>
    <path d="M5.993,8.9168c-0.4634,-0.004,-0.8766,-0.2015,-1.1667,-0.556c-0.6708,-0.8195,-0.997,-1.646,-0.997,-2.5266c0,-0.1509,0.0257,-0.299,0.0481,-0.4112C4.0757,4.4285,4.8024,3.9018,5.979,3.9h0.0379c1.1767,0.0018,1.9034,0.5285,2.1017,1.5231c0.0224,0.112,0.048,0.2599,0.048,0.4111c0,0.8806,-0.3261,1.707,-0.9969,2.5266c-0.2898,0.3541,-0.7033,0.5515,-1.1642,0.556H6.005H5.993zM5.9797,4.5994c-0.8107,0.0013,-1.2486,0.3044,-1.3782,0.954c-0.0164,0.0821,-0.0352,0.1881,-0.0352,0.281c0,0.7192,0.2754,1.4053,0.842,2.0975c0.1489,0.182,0.3574,0.2834,0.5871,0.2857c0.2347,-0.0022,0.4431,-0.1037,0.5921,-0.2857c0.5666,-0.6922,0.842,-1.3783,0.842,-2.0975c0,-0.0926,-0.0188,-0.1988,-0.0352,-0.281c-0.1295,-0.6496,-0.5675,-0.9527,-1.3781,-0.954H5.9797z" fill="#6485C3"/>
    <path d="M4.0661,6.3202c-0.024,-0.1621,-0.0362,-0.3266,-0.0362,-0.4899c0,-0.1365,0.0237,-0.2748,0.0444,-0.3801c0.1778,-0.9059,0.8365,-1.3856,1.9049,-1.3872h0.0376c1.0682,0.0016,1.727,0.4813,1.9048,1.3872c0.0207,0.1053,0.0444,0.2436,0.0444,0.3801c0,0.1198,-0.0067,0.2412,-0.0199,0.362h-0.3196c-0.0312,-0.0735,-0.0916,-0.1422,-0.1475,-0.181c-0.1384,-0.0962,-0.3082,-0.1866,-0.4724,-0.274c-0.1254,-0.0668,-0.2552,-0.1359,-0.365,-0.2048l-0.043,-0.027l-0.045,0.0239c-0.0985,0.0522,-0.1982,0.1091,-0.2947,0.164c-0.2221,0.1265,-0.4518,0.2573,-0.6944,0.35c-0.2367,0.0904,-0.5276,0.153,-0.8091,0.2135c-0.0997,0.0214,-0.194,0.0417,-0.2863,0.0632H4.0661z" fill="#6485C3"/>
  </g>
</svg>
