<?xml version="1.0" encoding="UTF-8"?>
<!DOCTYPE svg PUBLIC "-//W3C//DTD SVG 1.1//EN" "http://www.w3.org/Graphics/SVG/1.1/DTD/svg11.dtd">
<svg version="1.1" id="Layer_1" xmlns="http://www.w3.org/2000/svg" xmlns:xlink="http://www.w3.org/1999/xlink" x="0px" y="0px" width="24px" height="24px" viewBox="0 0 24 24" enable-background="new 0 0 24 24" xml:space="preserve">
  <g id="icon">
    <path d="M2,0v24h20V6.5L15.525,0H2zM20,22H4V2h11v5.025L20,7V22z" fill="#7B7B7B"/>
    <polygon points="20,22 4,22 4,2 15,2 15,7.025 20,7" fill="#FFFFFF" stroke-linejoin="miter" opacity="0.4"/>
    <path d="M18,10h-4V9h4V10zM18,11h-4v1h4V11zM18,13H6v1h12V13zM18,15H6v1h12V15zM18,17H6v1h12V17zM18,19H6v1h12V19z" fill="#B7B7B7"/>
    <path d="M11.7547,11.7l-0.8765,-2.0419H7.9145l-0.8478,2.0158l-1.1835,-0.4978L8.9012,4h0.9455l3.0878,7.1936L11.7547,11.7zM8.4545,8.3741h1.8726l-0.9459,-2.2036L8.4545,8.3741z" fill="#6485C3"/>
  </g>
</svg>
