<?xml version="1.0" encoding="UTF-8"?>
<!DOCTYPE svg PUBLIC "-//W3C//DTD SVG 1.1//EN" "http://www.w3.org/Graphics/SVG/1.1/DTD/svg11.dtd">
<svg version="1.1" id="Layer_1" xmlns="http://www.w3.org/2000/svg" xmlns:xlink="http://www.w3.org/1999/xlink" x="0px" y="0px" width="24px" height="24px" viewBox="0 0 24 24" enable-background="new 0 0 24 24" xml:space="preserve">
  <g id="icon">
    <polygon points="17,7.025 17,2 6,2 6,9 6,10 6,23 16,23 22,23 22,7" fill="#FFFFFF" stroke-linejoin="miter" opacity="0.4"/>
    <polygon points="17.525,0 5,0 5,7 7,7 7,2 17,2 17,7.025 22,7 22,22 16,22 16,24 24,24 24,6.5" fill="#7B7B7B" stroke-linejoin="miter"/>
    <rect x="3" y="10" width="9" height="11" fill="#FFFFFF" opacity="0.5" transform="matrix(-1.83697e-16 1 -1 -1.83697e-16 23 8)"/>
    <path d="M3.4965,22.9916l2.7418,-3.3319l1.0811,0.8896l-2.7418,3.3319L3.4965,22.9916zM8.2,24v-3.8H6.8v3.8H8.2zM10.326,23.8622l1.1096,-0.8537l-2.5615,-3.3299l-1.1096,0.8537L10.326,23.8622z" fill="#7D7C7B"/>
    <polygon points="1,21 1,10.7 3,10.7 3,19 12,19 12,10.7 14,10.7 14,21" fill="#7D7C7B" stroke-linejoin="miter"/>
    <rect y="10" width="15.5" height="2" fill="#7D7C7B"/>
    <rect x="7" y="9" width="1" height="2" fill="#7D7C7B"/>
    <polygon points="5.4064,12.9649 10.2245,15.4572 5.4064,18" fill="#6484C3" stroke-linejoin="miter"/>
  </g>
</svg>
