<?xml version="1.0" encoding="UTF-8"?>
<!DOCTYPE svg PUBLIC "-//W3C//DTD SVG 1.1//EN" "http://www.w3.org/Graphics/SVG/1.1/DTD/svg11.dtd">
<svg version="1.1" id="Layer_1" xmlns="http://www.w3.org/2000/svg" xmlns:xlink="http://www.w3.org/1999/xlink" x="0px" y="0px" width="16px" height="16px" viewBox="0 0 16 16" enable-background="new 0 0 16 16" xml:space="preserve">
  <g id="icon">
    <path d="M16,4.65V16H3.337c0.6884,-0.6067,1.4127,-1.6637,0.9155,-1H15V5l-4,0.0125V1H4v2.2526c-0.3706,0.1659,-0.686,0.4272,-0.9141,0.7699c-0.0311,0.0467,-0.0589,0.0942,-0.0859,0.1419V0h8.3625L16,4.65z" fill="#6D6E71"/>
    <path d="M15,5v10H4.2525c0.387,-0.5166,0.6874,-1.0539,0.9291,-1.5439c0.0941,-0.0363,0.1953,-0.0747,0.3072,-0.1167c0.6039,-0.2267,1.2444,-0.4352,1.9472,-0.6335c0.9295,0.592,1.9849,0.9251,2.9601,0.925c0.2771,0,0.552,-0.0261,0.8168,-0.0776c0.588,-0.1142,1.0852,-0.4429,1.4,-0.9256c0.3122,-0.4789,0.4122,-1.0596,0.2814,-1.6353c-0.0979,-0.4314,-0.4285,-1.2233,-1.5419,-1.6798c-0.4257,-0.1745,-0.8998,-0.263,-1.4091,-0.263c-0.6536,0,-1.2643,0.1445,-1.7108,0.2502c-0.0188,0.0044,-0.0375,0.0089,-0.0562,0.0134c-0.4278,-0.3936,-0.8343,-0.7885,-1.187,-1.2009c0.0101,-0.0638,0.0197,-0.1272,0.0287,-0.1902c0.0892,-0.6228,0.1327,-1.2857,0.1331,-2.0266c0.0002,-0.4429,0.0009,-1.6195,-0.8516,-2.3508c-0.3775,-0.3238,-0.8457,-0.4949,-1.3537,-0.4949c-0.1182,0,-0.2393,0.0095,-0.3595,0.0282c-0.2073,0.032,-0.403,0.0926,-0.5862,0.1746V1h7v4.0125L15,5z" fill="#FFFFFF" opacity="0.4"/>
    <path d="M1.1623,15.9473c-0.3283,0,-0.619,-0.1206,-0.8416,-0.366c-0.1925,-0.2122,-0.2854,-0.4711,-0.2688,-0.7485c0.0345,-0.5755,0.5137,-1.0368,0.9602,-1.424l0.0513,-0.0446c0.779,-0.6822,1.6807,-1.1617,2.5609,-1.5419c0.0676,-0.1536,0.1322,-0.3041,0.1946,-0.4495c0.4211,-0.9816,0.7285,-1.8877,0.9296,-2.7438c-0.0492,-0.0741,-0.0968,-0.1488,-0.1428,-0.2243c-0.3582,-0.5879,-0.6229,-1.2213,-0.7867,-1.8826c-0.1392,-0.5619,-0.2804,-1.375,0.0994,-1.9455c0.1861,-0.2796,0.47,-0.4561,0.8208,-0.5104l0,0c0.4428,-0.0687,0.7389,0.0914,0.9094,0.2376c0.446,0.3826,0.5029,1.0513,0.5026,1.5912c-0.0004,0.6932,-0.0406,1.3099,-0.123,1.8854c-0.0286,0.2001,-0.0628,0.402,-0.1026,0.6062c0.5667,0.7442,1.2954,1.4151,1.9718,2.0241c0.1841,-0.0461,0.3726,-0.092,0.5657,-0.1378c0.6943,-0.1644,1.6453,-0.3896,2.5101,-0.0351c0.6603,0.2707,0.879,0.6801,0.9461,0.9759c0.0703,0.3095,0.0191,0.6177,-0.1439,0.8678c-0.1655,0.2539,-0.4329,0.4279,-0.7529,0.4901c-1.2671,0.2462,-2.555,-0.3145,-3.4008,-0.9536c-0.9193,0.2451,-1.7261,0.5005,-2.4841,0.7851c-0.2243,0.0842,-0.455,0.1726,-0.6885,0.2669c-0.4219,0.9099,-0.9646,1.8763,-1.794,2.5988C2.1398,15.7175,1.6153,15.9473,1.1623,15.9473zM1.1642,14.8523c0.1083,0.0066,0.4265,-0.1152,0.7681,-0.4128c0.308,-0.2683,0.5736,-0.5897,0.8071,-0.937c-0.3349,0.203,-0.656,0.4305,-0.9513,0.6892l-0.0553,0.0481C1.3463,14.575,1.2061,14.7554,1.1642,14.8523zM9.154,11.2445c0.5318,0.2296,1.1225,0.3515,1.6584,0.2474c0.0178,-0.0035,0.03,-0.008,0.0375,-0.0115c-0.0002,-0.0053,-0.0011,-0.0129,-0.0034,-0.023c-0.0072,-0.0314,-0.0771,-0.1142,-0.2907,-0.2017C10.1469,11.088,9.632,11.1465,9.154,11.2445zM5.5986,9.7081c-0.149,0.5011,-0.3297,1.0174,-0.5432,1.5533c0.5003,-0.18,1.0224,-0.3489,1.582,-0.5113C6.2906,10.4272,5.9345,10.0795,5.5986,9.7081zM4.9071,5.1533c-0.0572,0.0088,-0.0664,0.0227,-0.0731,0.0328c-0.0259,0.0389,-0.145,0.2733,0.0527,1.0714c0.0398,0.1607,0.0868,0.3195,0.1407,0.476c0.0157,-0.266,0.0235,-0.5447,0.0237,-0.8391c0.0003,-0.5356,-0.0776,-0.6997,-0.1096,-0.7444C4.9336,5.1502,4.9223,5.151,4.9071,5.1533L4.9071,5.1533z" fill="#CB525D"/>
  </g>
</svg>
