<?xml version="1.0" encoding="UTF-8"?>
<!DOCTYPE svg PUBLIC "-//W3C//DTD SVG 1.1//EN" "http://www.w3.org/Graphics/SVG/1.1/DTD/svg11.dtd">
<svg version="1.1" id="Layer_1" xmlns="http://www.w3.org/2000/svg" xmlns:xlink="http://www.w3.org/1999/xlink" x="0px" y="0px" width="24px" height="24px" viewBox="0 0 24 24" enable-background="new 0 0 24 24" xml:space="preserve">
  <g id="icon">
    <path d="M2,0v24h20V6.5L15.525,0H2zM20,22H4V2h11v5.025L20,7V22z" fill="#7B7B7B"/>
    <polygon points="20,22 4,22 4,2 15,2 15,7.025 20,7" fill="#FFFFFF" stroke-linejoin="miter" opacity="0.5"/>
	<rect x="9.75" y="9.75" width="13.5" height="13.5" fill="#FFFFFF" opacity="1" transform="matrix(6.12323e-17 -1 1 6.12323e-17 0 33)"/>
	<path d="M9,24V9h15v15H9zM11,22h11V11H11V22z" fill="#6486C4"/>
	<polygon points="17.8219,20.8 16.8012,16.7094 16.337,16.7102 15.3312,20.8 14.1469,20.8 12.2332,12.3512 13.6323,12.0343 14.5485,16.0795 15.0139,16.0838 15.9762,12.171 17.1473,12.171 18.1363,16.1347 18.6014,16.1302 19.5343,12.0585 20.9325,12.3789 19.0031,20.8" fill="#6486C4" stroke-linejoin="miter"/>
  </g>
</svg>
