<?xml version="1.0" encoding="UTF-8"?>
<!DOCTYPE svg PUBLIC "-//W3C//DTD SVG 1.1//EN" "http://www.w3.org/Graphics/SVG/1.1/DTD/svg11.dtd">
<svg version="1.1" id="Layer_1" xmlns="http://www.w3.org/2000/svg" xmlns:xlink="http://www.w3.org/1999/xlink" x="0px" y="0px" width="16px" height="16px" viewBox="0 0 16 16" enable-background="new 0 0 16 16" xml:space="preserve">
  <g id="icon">
    <path d="M12.525,1.5c0,-0.5523,0.075,-1,0.85,-1H2.525c-0.5523,0,-1,0.4477,-1,1c0,0.5523,-0.025,12.5,-0.025,12.5c0,0.8284,0.6716,1.5,1.5,1.5h10.5V2.5C13.5,2.5,12.525,2.0523,12.525,1.5z" fill="#FFFFFF" opacity="0.4"/>
    <path d="M13.775,2c-0.3224,0,-0.75,-0.2851,-0.75,-0.5c0,-0.2013,0.3989,-0.5,0.95,-0.5V0H2.525c-0.7244,0,-1.3304,0.5162,-1.4698,1.2H1v12.8c0,1.1028,0.8972,2,2,2h11V2H13.775zM2.525,1h9.6114c-0.0721,0.1564,-0.1114,0.3248,-0.1114,0.5c0,0.1763,0.041,0.3444,0.1132,0.5H2.525c-0.2757,0,-0.5,-0.2243,-0.5,-0.5S2.2493,1,2.525,1zM3,15c-0.5514,0,-1,-0.4486,-1,-1V2.9033C2.1637,2.9648,2.3401,3,2.525,3H13v12H3z" fill="#6D6E71"/>
    <path d="M11,9H4V5h7V9z" fill="#6485C3"/>
  </g>
</svg>
