<?xml version="1.0" encoding="UTF-8"?>
<!DOCTYPE svg PUBLIC "-//W3C//DTD SVG 1.1//EN" "http://www.w3.org/Graphics/SVG/1.1/DTD/svg11.dtd">
<svg version="1.1" id="Layer_1" xmlns="http://www.w3.org/2000/svg" xmlns:xlink="http://www.w3.org/1999/xlink" x="0px" y="0px" width="24px" height="24px" viewBox="0 0 24 24" enable-background="new 0 0 24 24" xml:space="preserve">
  <g id="icon">
    <path d="M5.7,23v-0.1h-0.3762c-2.286,0,-4.2912,-2.3196,-4.2912,-5.0692c0,-0.3261,0.0872,-0.6964,0.282,-0.7886c0.0551,-0.0261,0.1501,-0.0423,0.2064,-0.0423h5.7155l-0.1314,-0.5738c-0.4286,-1.563,-1.1921,-3.1987,-2.2693,-4.8617C3.3094,9.2082,2.5026,7.0647,2.5026,5.3658c0,-2.5009,1.6755,-4.2107,4.2684,-4.3558l0.1785,-0.01h12.2722c3.0362,0,3.7311,3.775,3.7377,3.8146c0.039,0.2405,-0.0899,0.4705,-0.3138,0.5583c-0.047,0.0185,-0.0985,0.027,-0.1622,0.027h-3.942l0.0849,0.45c0.4591,2.4353,1.4703,5.2536,2.2155,6.7053c0.1191,0.2319,0.2375,0.4598,0.354,0.6838l0.0092,0.0176c0.9267,1.7825,1.7267,3.3213,1.7267,4.7164c0,3.6881,-2.1745,5.0268,-3.6361,5.0268H5.7z" fill="#FFFFFF" opacity="0.5"/>
    <path d="M5.3832,24.0046c-2.8798,0,-5.3128,-2.8253,-5.3128,-6.1696c0,-0.303,0.0617,-1.3208,0.8558,-1.6964C1.1975,16.01,1.4809,16,1.5613,16h4.4101c-0.3913,-1.1094,-1.0149,-2.4007,-1.975,-3.8827c-1.1401,-1.7601,-2.4993,-4.361,-2.4993,-6.7566c0,-1.5998,0.5633,-2.9627,1.6291,-3.9416C4.1478,0.4807,5.5349,-0.0152,7.1376,-0.0152V0.007C7.2764,0,7.4079,0,7.5234,0h11.6867c3.0556,0,4.4076,3.3021,4.7247,5.2532c0.1139,0.7032,-0.2646,1.3793,-0.9205,1.6447l-0.0002,0.0001c-0.1674,0.0677,-0.3499,0.102,-0.5425,0.102h-2.4972c0.4565,1.8043,1.1601,3.8006,1.8243,5.0944c0.1214,0.2365,0.2422,0.4688,0.3609,0.6971C23.1472,14.6907,24,16.3309,24,17.9711c0,3.958,-2.333,6.0289,-4.6376,6.0289H5.3832v-2c-0.0133,0,-0.0206,0.0012,-0.0211,0.0013c0.0881,-0.0163,0.5155,-0.2492,0.8479,-1.0211c0.2152,-0.4999,0.4844,-1.4772,0.2679,-2.9802H2.0732c0.0742,2.1518,1.5891,4.0046,3.31,4.0046V24.0046zM7.9416,22h11.4208C20.4227,22,22,20.9271,22,17.9711c0,-1.1514,-0.7483,-2.5905,-1.6147,-4.257c-0.1203,-0.2313,-0.2426,-0.4667,-0.3657,-0.7063C19.2223,11.4548,18.4009,9.0777,17.916,7H9.5169c-0.7006,0,-1.3105,-0.5057,-1.4502,-1.2023l-0.0041,-0.0212c-0.0158,-0.0868,-0.4012,-2.1367,-1.5569,-3.1627c-0.1592,-0.1414,-0.3477,-0.3087,-0.5095,-0.5027c-1.5669,0.3723,-2.4992,1.5475,-2.4992,3.2497c0,1.4878,0.7734,3.5013,2.1779,5.6693C9.5269,16.9763,8.6356,20.5687,7.9416,22zM9.9407,5H21.83c-0.2717,-1.0101,-1.0113,-3,-2.6199,-3H8.622C9.3955,3.0732,9.7775,4.3231,9.9407,5z" fill="#EEAC55"/>
    <path d="M14,10H7V9h7V10zM18,12H9v-1h9V12zM17.8,14h-7v-1h7V14zM19.7,16h-8v-1h8V16zM19.4,18h-8v-1h8V18zM18.1,20h-8v-1h8V20z" fill="#7B7B7B"/>
  </g>
</svg>
