<?xml version="1.0" encoding="UTF-8"?>
<!DOCTYPE svg PUBLIC "-//W3C//DTD SVG 1.1//EN" "http://www.w3.org/Graphics/SVG/1.1/DTD/svg11.dtd">
<svg version="1.1" id="Layer_1" xmlns="http://www.w3.org/2000/svg" xmlns:xlink="http://www.w3.org/1999/xlink" x="0px" y="0px" width="16px" height="16px" viewBox="0 0 16 16" enable-background="new 0 0 16 16" xml:space="preserve">
  <g id="icon">
    <path d="M3.7,15.5v-0.1h-0.2574c-1.5641,0,-2.9361,-1.4503,-2.9361,-3.3315c0,-0.2231,0.0596,-0.4765,0.1929,-0.5395C0.7372,11.5111,0.8021,11.5,0.8407,11.5h3.9021l-0.0892,-0.5254c-0.291,-1.0613,-0.8095,-2.172,-1.5409,-3.3011c-1.0365,-1.6,-1.5843,-3.0554,-1.5843,-4.209c0,-1.6982,1.1377,-2.8591,2.8983,-2.9577L4.5479,0.5h8.3529c2.0701,0,2.5439,2.5739,2.5485,2.6009c0.0266,0.164,-0.0613,0.3208,-0.214,0.3807c-0.032,0.0126,-0.0671,0.0184,-0.1106,0.0184h-2.6691l0.0579,0.3068c0.313,1.6604,1.0024,3.582,1.5106,4.5718c0.0812,0.1581,0.162,0.3135,0.2414,0.4663l0.0062,0.012c0.6318,1.2153,1.1773,2.2645,1.1773,3.2157c0,2.5146,-1.4826,3.4274,-2.4792,3.4274H3.7z" fill="#FFFFFF" opacity="0.5"/>
    <path d="M3.4299,16v-0.0497C1.534,15.9203,0,14.1791,0,12.043c0,-0.1857,0.0366,-0.8087,0.5069,-1.0301c0.127,-0.0599,0.2774,-0.0812,0.3758,-0.0812h3.2027c-0.288,-0.9063,-0.7718,-1.8846,-1.4385,-2.9092C1.8816,6.8468,0.9695,5.1118,0.9695,3.5232c0,-2.0206,1.4153,-3.4283,3.5219,-3.5029C4.6402,0,4.7982,0,4.9252,0h7.956c2.1247,0,2.9484,2.1966,3.0865,3.043c0.0683,0.42,-0.1599,0.8211,-0.5549,0.9754c-0.0952,0.0373,-0.1999,0.0561,-0.3111,0.0561h-1.9718c0.2992,1.3885,0.8667,3.0501,1.3888,4.0623c0.0826,0.1603,0.1648,0.3177,0.2457,0.4724c0.663,1.2693,1.2357,2.3654,1.2357,3.443C16,14.9487,14.1933,16,12.979,16H3.4299zM12.979,14.9068c0.7728,0,1.9227,-0.7602,1.9227,-2.8546c0,-0.8103,-0.5152,-1.7965,-1.1117,-2.9385c-0.0818,-0.1566,-0.1649,-0.3157,-0.2484,-0.4776c-0.6027,-1.1685,-1.2307,-3.038,-1.5332,-4.5616h-5.726c-0.4102,0,-0.7704,-0.2946,-0.8565,-0.7007c-0.0105,-0.043,-0.2736,-1.0961,-1.1061,-1.8319c-0.1192,-0.1053,-0.2534,-0.2239,-0.361,-0.3613c-1.1848,0.2472,-1.891,1.1208,-1.891,2.3425c0,1.031,0.533,2.4178,1.5009,3.9049c2.7084,4.1615,1.928,6.575,1.4667,7.4195c-0.0109,0.0199,-0.0219,0.0396,-0.0332,0.0592H12.979zM1.0983,12.043c0,1.5256,1.0906,2.8145,2.3815,2.8145h0.0499v0.0379c0.1107,-0.0408,0.3374,-0.1977,0.5406,-0.5699c0.1463,-0.2677,0.4628,-1.0238,0.2733,-2.3007h-3.245C1.0984,12.031,1.0983,12.037,1.0983,12.043zM14.8265,2.9814c-0.1453,-0.5168,-0.6537,-1.8882,-1.9453,-1.8882H5.417c0.6406,0.7244,0.9332,1.5324,1.0388,1.8882H14.8265z" fill="#EEAC55"/>
    <path d="M13.5,13H6.8v-1h6.7V13zM13.2,11H8.5v-1h4.7V11zM12.4,9H6.7V8h5.7V9zM11.5,7H4.8V6h6.7V7z" fill="#7B7B7B"/>
  </g>
</svg>
