<?xml version="1.0" encoding="UTF-8"?>
<!DOCTYPE svg PUBLIC "-//W3C//DTD SVG 1.1//EN" "http://www.w3.org/Graphics/SVG/1.1/DTD/svg11.dtd">
<svg version="1.1" id="Layer_1" xmlns="http://www.w3.org/2000/svg" xmlns:xlink="http://www.w3.org/1999/xlink" x="0px" y="0px" width="24px" height="24px" viewBox="0 0 24 24" enable-background="new 0 0 24 24" xml:space="preserve">
  <g id="icon">
    <path d="M2,0v24h20V6.5L15.525,0H2zM20,22H4V2h11v5.025L20,7V22z" fill="#7B7B7B"/>
    <polygon points="20,22 4,22 4,2 15,2 15,7.025 20,7" fill="#FFFFFF" stroke-linejoin="miter" opacity="0.4"/>
    <path d="M17,10H7V9h10V10zM18,11H8v1h10V11zM16,13H8v1h8V13zM17,15H9v1h8V15zM14,17H7v1h7V17zM12,19H6v1h6V19zM13,7H6v1h7V7zM13,5H6v1h7V5z" fill="#6485C3"/>
  </g>
</svg>
