<?xml version="1.0" encoding="UTF-8"?>
<!DOCTYPE svg PUBLIC "-//W3C//DTD SVG 1.1//EN" "http://www.w3.org/Graphics/SVG/1.1/DTD/svg11.dtd">
<svg version="1.1" id="Layer_1" xmlns="http://www.w3.org/2000/svg" xmlns:xlink="http://www.w3.org/1999/xlink" x="0px" y="0px" width="24px" height="24px" viewBox="0 0 24 24" enable-background="new 0 0 24 24" xml:space="preserve">
  <g id="icon">
    <polygon points="17,7.025 17,2 6,2 6,9 6,10 6,23 16,23 22,23 22,7" fill="#FFFFFF" stroke-linejoin="miter" opacity="0.4"/>
    <polygon points="17.525,0 5,0 5,12 7,12 7,2 17,2 17,7.025 22,7 22,22 17.5,22 17.5,24 24,24 24,6.5" fill="#7B7B7B" stroke-linejoin="miter"/>
    <path d="M6.4695,23.3574L9.7596,14l1.628,0.6426L8.0974,24L6.4695,23.3574zM0,19.0056l5.0335,-4.8792l1.1209,1.3178l-3.6676,3.5614l3.6739,3.5676l-1.1209,1.3178L0,19.0056zM11.8455,22.5732l3.6676,-3.5615l-3.6739,-3.5676l1.121,-1.3178L18,19.0117l-5.0335,4.8792L11.8455,22.5732z" fill="#1CB3C8"/>
  </g>
</svg>
