<?xml version="1.0" encoding="UTF-8"?>
<!DOCTYPE svg PUBLIC "-//W3C//DTD SVG 1.1//EN" "http://www.w3.org/Graphics/SVG/1.1/DTD/svg11.dtd">
<svg version="1.1" id="Layer_1" xmlns="http://www.w3.org/2000/svg" xmlns:xlink="http://www.w3.org/1999/xlink" x="0px" y="0px" width="16px" height="16px" viewBox="0 0 16 16" enable-background="new 0 0 16 16" xml:space="preserve">
  <g id="icon">
    <path d="M11.656,9.661c-0.23,-0.463,-0.558,-0.863,-0.975,-1.188c-0.318,-0.248,-0.69,-0.451,-1.11,-0.608c0.298,-0.17,0.559,-0.365,0.781,-0.583c0.437,-0.432,0.681,-0.925,0.809,-1.263c0.164,-0.434,0.247,-0.868,0.247,-1.289c0,-1.174,-0.411,-2.135,-1.19,-2.78C9.456,1.32,8.31,1,6.814,1H3v6.5v1v6.5h4.328c0.696,0,1.332,-0.078,1.891,-0.231c0.58,-0.159,1.082,-0.402,1.492,-0.723c0.423,-0.331,0.749,-0.75,0.97,-1.247c0.222,-0.499,0.325,-1.016,0.325,-1.627C12.005,10.62,11.894,10.14,11.656,9.661zM4,2h2.814c1.258,0,2.188,0.242,2.765,0.721c0.549,0.455,0.828,1.131,0.828,2.01c0,0.3,-0.061,0.615,-0.182,0.936c-0.13,0.345,-0.335,0.666,-0.575,0.904c-0.269,0.265,-0.629,0.489,-1.071,0.664C8.133,7.41,7.572,7.5,6.911,7.5H4V2zM10.766,12.394c-0.156,0.35,-0.375,0.633,-0.672,0.865c-0.306,0.239,-0.689,0.423,-1.141,0.546c-0.473,0.13,-1.02,0.195,-1.626,0.195H4V8.5h2.911h0.436c0.578,0,1.109,0.068,1.576,0.203c0.451,0.13,0.835,0.318,1.142,0.558c0.303,0.236,0.53,0.513,0.696,0.846c0.169,0.339,0.244,0.668,0.244,1.066C11.005,11.645,10.931,12.022,10.766,12.394z" fill="none" stroke="#383838" stroke-width="1.2" stroke-miterlimit="10"/>
  </g>
</svg>
