<?xml version="1.0" encoding="UTF-8"?>
<!DOCTYPE svg PUBLIC "-//W3C//DTD SVG 1.1//EN" "http://www.w3.org/Graphics/SVG/1.1/DTD/svg11.dtd">
<svg version="1.1" id="Layer_1" xmlns="http://www.w3.org/2000/svg" xmlns:xlink="http://www.w3.org/1999/xlink" x="0px" y="0px" width="16px" height="16px" viewBox="0 0 16 16" enable-background="new 0 0 16 16" xml:space="preserve">
  <g id="icon">
    <path d="M9.628,6.26c0.437,-0.4,1.138,-0.906,1.605,-1.116c0.467,-0.21,1.01,-0.316,1.628,-0.316c0.455,0,0.847,0.063,1.178,0.189c0.331,0.126,0.605,0.308,0.823,0.545c0.218,0.237,0.379,0.525,0.482,0.865c0.103,0.339,0.155,0.722,0.155,1.149v5.567l0,0M15.475,8.679c-1.91,0.053,-3.391,0.296,-4.321,0.656c-0.931,0.361,-1.396,0.87,-1.396,1.528c0,0.311,0.059,0.578,0.177,0.801c0.118,0.224,0.274,0.408,0.469,0.553c0.194,0.145,0.415,0.253,0.664,0.324c0.249,0.071,0.503,0.107,0.764,0.107c0.418,0,0.797,-0.042,1.137,-0.126c0.34,-0.084,0.653,-0.197,0.942,-0.339c0.288,-0.142,0.555,-0.307,0.801,-0.493c0.246,-0.187,0.54,-0.395,0.764,-0.601" fill="none" stroke="#383838" stroke-width="1" stroke-miterlimit="10"/>
    <path d="M0.5,12.918l3.932,-9.584l4.055,9.615M1.9,9.5h5" fill="none" stroke="#383838" stroke-width="1" stroke-miterlimit="10"/>
  </g>
</svg>
