<?xml version="1.0" encoding="UTF-8"?>
<!DOCTYPE svg PUBLIC "-//W3C//DTD SVG 1.1//EN" "http://www.w3.org/Graphics/SVG/1.1/DTD/svg11.dtd">
<svg version="1.1" id="Layer_1" xmlns="http://www.w3.org/2000/svg" xmlns:xlink="http://www.w3.org/1999/xlink" x="0px" y="0px" width="16px" height="16px" viewBox="0 0 16 16" enable-background="new 0 0 16 16" xml:space="preserve">
  <g id="icon">
    <path d="M13.122,10.863c-0.946,1.328,-3.08,3.932,-3.908,4.469C7.34,16.545,-1.192,10.986,0.61,10.265s3.756,-3.217,4.877,-4.789" fill="#FFFFFF"/>
    <path d="M12.599,11.647c-0.946,1.328,-2.557,3.148,-3.385,3.684C7.34,16.545,-1.131,11.123,0.61,10.265c0.379,-0.187,0.588,-0.292,0.798,-0.501" fill="#F7DA8E"/>
    <path d="M8.541,16c-1.572,0,-3.903,-1.287,-4.832,-1.84c-0.894,-0.532,-3.803,-2.363,-3.707,-3.581c0.011,-0.146,0.086,-0.505,0.533,-0.684c1.251,-0.5,2.96,-1.994,4.752,-4.508l0.116,-0.162l0.748,0.533l-0.116,0.162c-1.894,2.658,-3.675,4.207,-5.097,4.803c0.148,0.34,1.12,1.384,3.241,2.647c1.77,1.054,3.447,1.709,4.377,1.709c0.206,0,0.367,-0.034,0.466,-0.098c0.721,-0.467,2.582,-2.949,3.567,-4.33l0.116,-0.162l0.748,0.533l-0.116,0.162c-0.909,1.275,-2.889,3.968,-3.816,4.568C9.269,15.917,8.938,16,8.541,16z" fill="#E57428"/>
    <path d="M13.069,10.703L5.822,5.49c0.179,-0.243,0.17,-0.23,1.004,-1.274c0,0,2.505,1.847,2.949,1.145c0.579,-0.914,0.774,-2.035,1.206,-3.015c0.441,-1.001,1.294,-1.999,2.509,-1.733c0.386,0.084,0.705,0.231,0.968,0.428c0.283,0.19,0.517,0.437,0.723,0.773c0.649,1.058,-0.016,2.19,-0.818,2.935c-0.785,0.729,-1.783,1.281,-2.459,2.127c-0.518,0.649,2.124,2.53,2.124,2.53S13.224,10.479,13.069,10.703z" fill="#FFFFFF" stroke="#383838" stroke-width="1" stroke-miterlimit="50"/>
    <path d="M3.596,13.393c-0.397,-0.116,-0.613,-0.231,-0.993,-0.595c0.778,-0.198,3.162,-1.718,3.162,-1.718S4.143,13.178,3.596,13.393zM9.328,11.908c0,0,-3.361,2.231,-4.139,2.429c0.381,0.364,0.596,0.479,0.993,0.595C6.728,14.717,9.328,11.908,9.328,11.908z" fill="#E57428"/>
  </g>
</svg>
