<?xml version="1.0" encoding="UTF-8"?>
<!DOCTYPE svg PUBLIC "-//W3C//DTD SVG 1.1//EN" "http://www.w3.org/Graphics/SVG/1.1/DTD/svg11.dtd">
<svg version="1.1" id="Layer_1" xmlns="http://www.w3.org/2000/svg" xmlns:xlink="http://www.w3.org/1999/xlink" x="0px" y="0px" width="16px" height="16px" viewBox="0 0 16 16" enable-background="new 0 0 16 16" xml:space="preserve">
  <g id="icon">
    <circle cx="8" cy="8" r="7.274" fill="#F6D98E"/>
    <circle cx="8" cy="8" r="7.5" fill="none" stroke="#E57428" stroke-width="1" stroke-miterlimit="10"/>
    <path d="M12.759,9.739c0.004,0.502,-0.093,1,-0.284,1.464c-4.073,0.988,-8.292,0.111,-8.964,-0.042c-0.182,-0.452,-0.274,-0.935,-0.271,-1.422h0.036c0,0,4.826,1.171,9.421,0.023L12.759,9.739z" fill="#FFFFFF"/>
    <path d="M12.476,11.203c-0.584,1.392,-2.071,2.358,-4.464,2.358c-2.416,0,-3.923,-0.988,-4.5,-2.4C4.183,11.314,8.403,12.191,12.476,11.203z" fill="#F3797F"/>
    <path d="M12.759,9.739c0.004,0.502,-0.093,1,-0.284,1.464c-4.073,0.988,-8.292,0.111,-8.964,-0.042c-0.182,-0.452,-0.274,-0.935,-0.271,-1.422h0.036c0,0,4.826,1.171,9.421,0.023L12.759,9.739z" fill="none" stroke="#383938" stroke-width="0.9" stroke-linecap="round" stroke-linejoin="round"/>
    <path d="M12.476,11.203c-0.584,1.392,-2.071,2.358,-4.464,2.358c-2.416,0,-3.923,-0.988,-4.5,-2.4C4.183,11.314,8.403,12.191,12.476,11.203z" fill="none" stroke="#383938" stroke-width="0.9" stroke-linecap="round" stroke-linejoin="round"/>
    <path d="M6.043,6.37c0,0.54,-0.439,0.978,-0.978,0.978c-0.54,0,-0.978,-0.438,-0.978,-0.978c0,-0.54,0.438,-0.978,0.978,-0.978C5.605,5.391,6.043,5.83,6.043,6.37M11.913,6.37c0,0.54,-0.438,0.978,-0.978,0.978c-0.54,0,-0.978,-0.438,-0.978,-0.978c0,-0.54,0.438,-0.978,0.978,-0.978C11.475,5.391,11.913,5.83,11.913,6.37" fill="#383838"/>
  </g>
</svg>
