<?xml version="1.0" encoding="UTF-8"?>
<!DOCTYPE svg PUBLIC "-//W3C//DTD SVG 1.1//EN" "http://www.w3.org/Graphics/SVG/1.1/DTD/svg11.dtd">
<svg version="1.1" id="Layer_1" xmlns="http://www.w3.org/2000/svg" xmlns:xlink="http://www.w3.org/1999/xlink" x="0px" y="0px" width="16px" height="16px" viewBox="0 0 16 16" enable-background="new 0 0 16 16" xml:space="preserve">
  <g id="main">
    <g id="icon">
      <path d="M1,2L7,2L7,9.512L7.16,9.496L7.384,9.496L7.74,8.876L7.615,8.648L7.507,8.397L7.452,8.139L7.491,7.627L7.719,7.166L7.898,6.972L8,6.898L8,2L14,2L14,1L1,1zM7,15L7.46,15L7.459,14.8L7.605,14.37L7.746,14.1L7.384,13.47L7.16,13.47L7,13.46zz" fill="#383838"/>
    </g>
    <g id="overlay">
      <path d="M12.447,14.743c-0.31,0.093,-0.632,0.141,-0.957,0.141c-0.326,0,-0.648,-0.047,-0.957,-0.141l-0.52,0.971c-0.043,0.08,-0.142,0.109,-0.22,0.063l-1.069,-0.626c-0.075,-0.044,-0.102,-0.141,-0.061,-0.219l0.524,-0.978c-0.477,-0.457,-0.807,-1.037,-0.958,-1.681H7.16c-0.088,0,-0.16,-0.073,-0.16,-0.163v-1.251c0,-0.09,0.072,-0.163,0.16,-0.163h1.069c0.151,-0.644,0.481,-1.223,0.958,-1.681l-0.521,-0.946c-0.043,-0.078,-0.016,-0.176,0.06,-0.221l1.069,-0.626c0.077,-0.045,0.176,-0.018,0.219,0.061l0.519,0.942c0.31,-0.093,0.632,-0.141,0.957,-0.141c0.326,0,0.648,0.047,0.957,0.141l0.549,-0.947c0.045,-0.077,0.142,-0.103,0.217,-0.058l1.069,0.626c0.077,0.045,0.103,0.146,0.058,0.224l-0.547,0.944c0.477,0.457,0.807,1.037,0.958,1.681h1.069c0.088,0,0.16,0.073,0.16,0.163v1.251c0,0.09,-0.072,0.163,-0.16,0.163H14.75c-0.151,0.644,-0.481,1.223,-0.958,1.681l0.55,0.977c0.044,0.078,0.018,0.177,-0.059,0.222l-1.069,0.626c-0.077,0.045,-0.175,0.018,-0.218,-0.06L12.447,14.743zM11.49,9.369c-1.145,0,-2.077,0.949,-2.077,2.115S10.344,13.6,11.49,13.6s2.077,-0.949,2.077,-2.115S12.635,9.369,11.49,9.369z" fill="#383838"/>
    </g>
  </g>
</svg>
