<?xml version="1.0" encoding="UTF-8"?>
<!DOCTYPE svg PUBLIC "-//W3C//DTD SVG 1.1//EN" "http://www.w3.org/Graphics/SVG/1.1/DTD/svg11.dtd">
<svg version="1.1" id="Layer_1" xmlns="http://www.w3.org/2000/svg" xmlns:xlink="http://www.w3.org/1999/xlink" x="0px" y="0px" width="16px" height="16px" viewBox="0 0 16 16" enable-background="new 0 0 16 16" xml:space="preserve">
  <g id="main">
    <g id="icon">
      <path d="M0.548,13.6L6.209,13.6L6.145,13.45L5.956,12.83L5.84,12.18L5.8,11.5L5.829,10.92L5.916,10.35L6.057,9.807L6.249,9.283L6.489,8.785L6.775,8.315L7.103,7.876L7.471,7.471L7.876,7.103L8.315,6.775L8.785,6.489L9.283,6.249L9.807,6.057L10.35,5.916L10.92,5.829L11.5,5.8L12.18,5.84L12.83,5.956L13.45,6.145L14.04,6.401L14.5,6.663L14.5,0.8L0.548,0.8zz" fill="#FFFFFF"/>
      <path d="M10.76,2.529L10.48,2.613L10.24,2.746L10.02,2.922L9.847,3.136L9.714,3.381L9.629,3.651L9.6,3.942L9.629,4.233L9.714,4.503L9.847,4.748L10.02,4.962L10.24,5.138L10.48,5.271L10.76,5.355L11.05,5.384L11.34,5.355L11.61,5.271L11.86,5.138L12.07,4.962L12.25,4.748L12.38,4.503L12.46,4.233L12.49,3.942L12.46,3.651L12.38,3.381L12.25,3.136L12.07,2.922L11.86,2.746L11.61,2.613L11.34,2.529L11.05,2.5zz" fill="#F7DA8E"/>
      <path d="M11,2.003L10.71,2.032L10.66,2.037L10.61,2.052L10.34,2.136L10.29,2.15L10.25,2.173L10,2.306L9.958,2.329L9.921,2.36L9.706,2.536L9.669,2.567L9.639,2.604L9.462,2.817L9.431,2.854L9.408,2.897L9.275,3.142L9.251,3.185L9.236,3.232L9.152,3.503L9.137,3.551L9.132,3.601L9.103,3.892L9.097,3.942L9.103,3.992L9.132,4.283L9.137,4.333L9.152,4.381L9.236,4.652L9.251,4.699L9.275,4.742L9.408,4.987L9.431,5.03L9.462,5.067L9.639,5.28L9.669,5.317L9.706,5.348L9.921,5.524L9.958,5.554L10,5.578L10.25,5.711L10.29,5.734L10.34,5.748L10.61,5.832L10.66,5.847L10.71,5.852L10.74,5.856L10.92,5.829L11.5,5.8L11.58,5.804L11.76,5.748L11.8,5.734L11.85,5.711L12.09,5.578L12.14,5.554L12.17,5.524L12.39,5.348L12.42,5.317L12.46,5.28L12.63,5.067L12.66,5.03L12.69,4.987L12.82,4.742L12.84,4.699L12.86,4.652L12.94,4.381L12.96,4.333L12.96,4.283L12.99,3.992L13,3.942L12.99,3.892L12.96,3.601L12.96,3.551L12.94,3.503L12.86,3.232L12.84,3.185L12.82,3.142L12.69,2.897L12.66,2.854L12.63,2.817L12.46,2.604L12.42,2.567L12.39,2.536L12.17,2.36L12.14,2.329L12.09,2.306L11.85,2.173L11.8,2.15L11.76,2.136L11.49,2.052L11.44,2.037L11.39,2.032L11.1,2.003L11.05,1.997zM11.24,3.022L11.42,3.076L11.58,3.163L11.72,3.278L11.83,3.418L11.92,3.577L11.97,3.752L11.99,3.942L11.97,4.132L11.92,4.307L11.83,4.466L11.72,4.606L11.58,4.721L11.42,4.808L11.24,4.862L11.05,4.881L10.86,4.862L10.68,4.808L10.52,4.721L10.38,4.606L10.26,4.466L10.18,4.307L10.12,4.132L10.1,3.942L10.12,3.752L10.18,3.577L10.26,3.418L10.38,3.278L10.52,3.163L10.68,3.076L10.86,3.022L11.05,3.003zz" fill="#E57428"/>
      <path d="M3.593,6.123L3.19,6.232L2.782,6.432L2.363,6.723L1.93,7.106L1.478,7.581L0.5,8.81L0.5,13.51L6.172,13.51L6.145,13.45L5.956,12.83L5.84,12.18L5.8,11.5L5.829,10.92L5.916,10.35L6.057,9.807L6.249,9.283L6.489,8.785L6.775,8.315L6.88,8.175L6.607,7.846L5.667,6.915L5.23,6.58L4.808,6.333L4.397,6.174L3.994,6.104zz" fill="#ACD8B1"/>
      <path d="M3.972,5.519L3.665,5.521L3.619,5.522L3.575,5.53L3.26,5.591L3.218,5.599L3.177,5.615L2.854,5.738L2.818,5.752L2.785,5.771L2.453,5.96L2.424,5.977L2.398,5.996L2.056,6.256L2.034,6.273L2.014,6.292L1.661,6.627L1.638,6.648L1.618,6.673L0.8703,7.585L0.8518,7.607L0.8357,7.632L0.02871,8.895L0.8713,9.433L1.662,8.196L2.371,7.332L2.682,7.036L2.977,6.812L3.247,6.658L3.493,6.565L3.719,6.521L3.937,6.519L4.155,6.556L4.368,6.628L4.871,6.915L5.396,7.352L5.949,7.918L6.529,8.577L6.531,8.58L6.58,8.636L6.775,8.315L7.103,7.876L7.175,7.798L6.69,7.246L6.681,7.237L6.672,7.227L6.092,6.634L6.074,6.615L6.054,6.599L5.477,6.119L5.443,6.091L5.405,6.069L4.822,5.736L4.781,5.712L4.735,5.697L4.439,5.596L4.401,5.583L4.362,5.577L4.06,5.526L4.017,5.518zz" fill="#0BA04A"/>
      <path d="M0,14L0.4971,14L6.382,14L6.145,13.45L6.008,13L0.9971,13L0.9971,1L14,1L14,6.382L14.04,6.401L14.6,6.72L15,7.014L15,0.5L15,0L14.5,0L0.4971,0L0,0zz" fill="#383838"/>
    </g>
    <g id="overlay">
      <path d="M11.5,7.5c-2.209,0,-4,1.791,-4,4c0,2.209,1.791,4,4,4s4,-1.791,4,-4C15.5,9.291,13.709,7.5,11.5,7.5zM13.161,12.468L12,11.322V14.2h-1v-2.877l-1.161,1.146l-0.702,-0.712l1.78,-1.756H9.5V9h4v1h-1.417l1.78,1.756L13.161,12.468z" fill="#F7BFBF"/>
      <path d="M11.5,7.5c-2.209,0,-4,1.791,-4,4c0,2.209,1.791,4,4,4s4,-1.791,4,-4C15.5,9.291,13.709,7.5,11.5,7.5zM13.161,12.468L12,11.322V14.2h-1v-2.877l-1.161,1.146l-0.702,-0.712l1.78,-1.756H9.5V9h4v1h-1.417l1.78,1.756L13.161,12.468z" fill="#DB2E2A" opacity="0.3"/>
      <path d="M11.5,16c-2.481,0,-4.5,-2.019,-4.5,-4.5s2.019,-4.5,4.5,-4.5s4.5,2.019,4.5,4.5S13.981,16,11.5,16zM11.5,8c-1.93,0,-3.5,1.57,-3.5,3.5s1.57,3.5,3.5,3.5s3.5,-1.57,3.5,-3.5S13.43,8,11.5,8z" fill="#DB2E2A"/>
      <polygon points="12,14.2 11,14.2 11,11.323 9.839,12.468 9.137,11.756 10.917,10 9.5,10 9.5,9 13.5,9 13.5,10 12.083,10 13.863,11.756 13.161,12.468 12,11.322" fill="#FFFFFF" stroke-linejoin="miter"/>
    </g>
  </g>
</svg>
