<?xml version="1.0" encoding="UTF-8"?>
<!DOCTYPE svg PUBLIC "-//W3C//DTD SVG 1.1//EN" "http://www.w3.org/Graphics/SVG/1.1/DTD/svg11.dtd">
<svg version="1.1" id="Layer_1" xmlns="http://www.w3.org/2000/svg" xmlns:xlink="http://www.w3.org/1999/xlink" x="0px" y="0px" width="16px" height="16px" viewBox="0 0 16 16" enable-background="new 0 0 16 16" xml:space="preserve">
  <g id="main">
    <g id="icon">
      <path d="M0.548,13.6L3.82,13.6L3.8,13.4L3.8,12.6L3.877,11.84L4.099,11.12L4.45,10.48L4.914,9.914L5.477,9.45L6.123,9.099L6.836,8.877L7.601,8.8L9.8,8.8L11.6,8.8L13.4,8.8L14.13,8.871L14.5,8.981L14.5,0.8L0.548,0.8zz" fill="#FFFFFF"/>
      <path d="M10.76,2.529L10.48,2.613L10.24,2.746L10.02,2.922L9.847,3.136L9.714,3.381L9.629,3.651L9.6,3.942L9.629,4.233L9.714,4.503L9.847,4.748L10.02,4.962L10.24,5.138L10.48,5.271L10.76,5.355L11.05,5.384L11.34,5.355L11.61,5.271L11.86,5.138L12.07,4.962L12.25,4.748L12.38,4.503L12.46,4.233L12.49,3.942L12.46,3.651L12.38,3.381L12.25,3.136L12.07,2.922L11.86,2.746L11.61,2.613L11.34,2.529L11.05,2.5zz" fill="#F7DA8E"/>
      <path d="M11,2.003L10.71,2.032L10.66,2.037L10.61,2.052L10.34,2.136L10.29,2.15L10.25,2.173L10,2.306L9.958,2.329L9.921,2.36L9.706,2.536L9.669,2.567L9.639,2.604L9.462,2.817L9.431,2.854L9.408,2.897L9.275,3.142L9.251,3.185L9.236,3.232L9.152,3.503L9.137,3.551L9.132,3.601L9.103,3.892L9.097,3.942L9.103,3.992L9.132,4.283L9.137,4.333L9.152,4.381L9.236,4.652L9.251,4.699L9.275,4.742L9.408,4.987L9.431,5.03L9.462,5.067L9.639,5.28L9.669,5.317L9.706,5.348L9.921,5.524L9.958,5.554L10,5.578L10.25,5.711L10.29,5.734L10.34,5.748L10.61,5.832L10.66,5.847L10.71,5.852L11,5.881L11.05,5.887L11.1,5.881L11.39,5.852L11.44,5.847L11.49,5.832L11.76,5.748L11.8,5.734L11.85,5.711L12.09,5.578L12.14,5.554L12.17,5.524L12.39,5.348L12.42,5.317L12.46,5.28L12.63,5.067L12.66,5.03L12.69,4.987L12.82,4.742L12.84,4.699L12.86,4.652L12.94,4.381L12.96,4.333L12.96,4.283L12.99,3.992L13,3.942L12.99,3.892L12.96,3.601L12.96,3.551L12.94,3.503L12.86,3.232L12.84,3.185L12.82,3.142L12.69,2.897L12.66,2.854L12.63,2.817L12.46,2.604L12.42,2.567L12.39,2.536L12.17,2.36L12.14,2.329L12.09,2.306L11.85,2.173L11.8,2.15L11.76,2.136L11.49,2.052L11.44,2.037L11.39,2.032L11.1,2.003L11.05,1.997zM11.24,3.022L11.42,3.076L11.58,3.163L11.72,3.278L11.83,3.418L11.92,3.577L11.97,3.752L11.99,3.942L11.97,4.132L11.92,4.307L11.83,4.466L11.72,4.606L11.58,4.721L11.42,4.808L11.24,4.862L11.05,4.881L10.86,4.862L10.68,4.808L10.52,4.721L10.38,4.606L10.26,4.466L10.18,4.307L10.12,4.132L10.1,3.942L10.12,3.752L10.18,3.577L10.26,3.418L10.38,3.278L10.52,3.163L10.68,3.076L10.86,3.022L11.05,3.003zz" fill="#E57428"/>
      <path d="M3.593,6.123L3.19,6.232L2.782,6.432L2.363,6.723L1.93,7.106L1.478,7.581L0.5,8.81L0.5,13.51L3.811,13.51L3.8,13.4L3.8,12.6L3.877,11.84L4.099,11.12L4.45,10.48L4.914,9.914L5.477,9.45L6.123,9.099L6.836,8.877L7.412,8.819L6.607,7.846L5.667,6.915L5.23,6.58L4.808,6.333L4.397,6.174L3.994,6.104zM9.731,7.626L9.311,7.764L8.895,7.98L8.48,8.277L8.069,8.657L7.943,8.8L9.8,8.8L11.6,8.8L12.84,8.8L12.73,8.691L12.3,8.335L11.87,8.044L11.43,7.819L11,7.663L10.58,7.577L10.15,7.564zz" fill="#ACD8B1"/>
      <path d="M3.972,5.519L3.665,5.521L3.619,5.522L3.575,5.53L3.26,5.591L3.218,5.599L3.177,5.615L2.854,5.738L2.818,5.752L2.785,5.771L2.453,5.96L2.424,5.977L2.398,5.996L2.056,6.256L2.034,6.273L2.014,6.292L1.661,6.627L1.638,6.648L1.618,6.673L0.8703,7.585L0.8518,7.607L0.8357,7.632L0.02871,8.895L0.8713,9.433L1.662,8.196L2.371,7.332L2.682,7.036L2.977,6.812L3.247,6.658L3.493,6.565L3.719,6.521L3.937,6.519L4.155,6.556L4.368,6.628L4.871,6.915L5.396,7.352L5.949,7.918L6.529,8.577L6.531,8.58L6.799,8.889L6.836,8.877L7.601,8.8L8.559,8.8L8.929,8.488L9.33,8.234L9.699,8.076L10.05,7.998L10.38,7.988L10.71,8.04L11.05,8.154L11.41,8.329L11.76,8.559L12.06,8.8L13.4,8.8L13.57,8.817L13.21,8.462L13.2,8.445L13.18,8.43L12.38,7.767L12.35,7.749L12.33,7.733L11.92,7.473L11.9,7.458L11.87,7.446L11.47,7.243L11.44,7.228L11.4,7.217L10.99,7.079L10.95,7.065L10.91,7.059L10.49,6.993L10.44,6.985L10.4,6.987L9.968,6.999L9.92,7.001L9.873,7.012L9.435,7.111L9.39,7.121L9.348,7.139L8.899,7.331L8.862,7.347L8.828,7.369L8.365,7.662L8.337,7.68L8.311,7.702L7.834,8.103L7.813,8.121L7.795,8.14L7.626,8.316L7.284,7.922L7.283,7.921L7.282,7.919L6.69,7.246L6.681,7.237L6.672,7.227L6.092,6.634L6.074,6.615L6.054,6.599L5.477,6.119L5.443,6.091L5.405,6.069L4.822,5.736L4.781,5.712L4.735,5.697L4.439,5.596L4.401,5.583L4.362,5.577L4.06,5.526L4.017,5.518zz" fill="#0BA04A"/>
      <path d="M0,14L0.4971,14L3.858,14L3.8,13.4L3.8,13L0.9971,13L0.9971,1L14,1L14,8.858L14.13,8.871L14.82,9.077L15,9.169L15,0.5L15,0L14.5,0L0.4971,0L0,0zz" fill="#383838"/>
    </g>
    <g id="overlay">
      <path d="M9.5,14v-1.399c0,-1.155,0.945,-2.101,2.101,-2.101h1.799c1.155,0,2.101,0.945,2.101,2.101v0.799c0,1.155,-0.945,2.101,-2.101,2.101H12.4M8.6,10.5h-0.999C6.445,10.5,5.5,11.445,5.5,12.601v0.799C5.5,14.555,6.445,15.5,7.601,15.5h1.799c1.155,0,2.101,-0.945,2.101,-2.101V12" fill="none" stroke="#228BCB" stroke-width="1" stroke-miterlimit="10"/>
    </g>
  </g>
</svg>
