<?xml version="1.0" encoding="UTF-8"?>
<!DOCTYPE svg PUBLIC "-//W3C//DTD SVG 1.1//EN" "http://www.w3.org/Graphics/SVG/1.1/DTD/svg11.dtd">
<svg version="1.1" id="Layer_1" xmlns="http://www.w3.org/2000/svg" xmlns:xlink="http://www.w3.org/1999/xlink" x="0px" y="0px" width="16px" height="16px" viewBox="0 0 16 16" enable-background="new 0 0 16 16" xml:space="preserve">
  <g id="icon">
    <path d="M8.5,0.5C4.634,0.5,1.5,3.634,1.5,7.5c0,0.547,0.065,1.079,0.184,1.59c0.252,-0.058,0.514,-0.09,0.783,-0.09h6.067c1.915,0,3.467,1.552,3.467,3.467v1.067c0,0.009,-0.001,0.019,-0.001,0.028C14.091,12.351,15.5,10.091,15.5,7.5C15.5,3.634,12.366,0.5,8.5,0.5z" fill="#FFFFFF"/>
    <path d="M8.5,0C4.365,0,1,3.365,1,7.5c0,0.598,0.072,1.18,0.205,1.738C1.596,9.085,2.022,9,2.467,9h-0.29C2.062,8.518,2,8.016,2,7.5s0.062,-1.018,0.177,-1.5h2.037c-0.108,0.517,-0.167,1.03,-0.167,1.525C4.047,7.994,4.1,8.492,4.2,9h1.019c-0.111,-0.5,-0.172,-0.999,-0.172,-1.475c0,-0.49,0.067,-1.006,0.19,-1.525H8v3h0.533c0.949,0,1.809,0.382,2.435,1h0.45c-0.042,0.12,-0.088,0.239,-0.135,0.358c0.261,0.34,0.46,0.73,0.581,1.153c0.242,-0.492,0.445,-1.001,0.604,-1.51h2.03c-0.513,1.227,-1.392,2.263,-2.499,2.974v0.56c0,0.214,-0.02,0.423,-0.058,0.627C14.35,12.91,16,10.395,16,7.5C16,3.365,12.635,0,8.5,0zM4.483,5H2.501C3.25,3.208,4.78,1.822,6.663,1.266C5.732,2.241,4.944,3.594,4.483,5zM8,5H5.538C6.073,3.536,6.989,2.162,8,1.393V5zM9,1.418c0.985,0.771,1.875,2.131,2.396,3.582H9V1.418zM11.706,9H9V6h2.692c0.12,0.518,0.186,1.034,0.186,1.525C11.878,8.001,11.817,8.5,11.706,9zM12.448,5c-0.457,-1.415,-1.241,-2.775,-2.166,-3.75c1.908,0.545,3.46,1.94,4.217,3.75H12.448zM12.725,9c0.1,-0.508,0.153,-1.006,0.153,-1.475c0,-0.495,-0.058,-1.008,-0.164,-1.525h2.11c0.114,0.482,0.177,0.984,0.177,1.5s-0.062,1.018,-0.177,1.5H12.725z" fill="#228BCB"/>
    <path d="M4.5,13.9v-1.309c0,-1.15,0.941,-2.091,2.091,-2.091h1.817c1.15,0,2.091,0.941,2.091,2.091v0.817c0,1.15,-0.941,2.091,-2.091,2.091H7.1M4,10.5H2.591C1.441,10.5,0.5,11.441,0.5,12.591v0.817C0.5,14.559,1.441,15.5,2.591,15.5h1.817c1.15,0,2.091,-0.941,2.091,-2.091V12.1" fill="none" stroke="#383838" stroke-width="1" stroke-miterlimit="10"/>
  </g>
</svg>
