<?xml version="1.0" encoding="UTF-8"?>
<!DOCTYPE svg PUBLIC "-//W3C//DTD SVG 1.1//EN" "http://www.w3.org/Graphics/SVG/1.1/DTD/svg11.dtd">
<svg version="1.1" id="Layer_1" xmlns="http://www.w3.org/2000/svg" xmlns:xlink="http://www.w3.org/1999/xlink" x="0px" y="0px" width="16px" height="16px" viewBox="0 0 16 16" enable-background="new 0 0 16 16" xml:space="preserve">
  <g id="main">
    <g id="icon">
      <path d="M6.784,0.5361L6.089,0.6422L5.418,0.8146L4.775,1.05L4.163,1.345L3.586,1.696L3.047,2.098L2.55,2.55L2.098,3.047L1.696,3.586L1.345,4.163L1.05,4.775L0.8146,5.418L0.6422,6.089L0.5361,6.784L0.5,7.5L0.5361,8.216L0.6422,8.911L0.8146,9.582L1.05,10.22L1.345,10.84L1.696,11.41L2.098,11.95L2.55,12.45L3.047,12.9L3.586,13.3L3.804,13.44L3.8,13.4L3.8,12.6L3.877,11.84L4.099,11.12L4.45,10.48L4.914,9.914L5.477,9.45L6.123,9.099L6.836,8.877L7.601,8.8L9.8,8.8L11.6,8.8L13.4,8.8L14.13,8.871L14.35,8.936L14.36,8.911L14.46,8.216L14.5,7.5L14.46,6.784L14.36,6.089L14.19,5.418L13.95,4.775L13.66,4.163L13.3,3.586L12.9,3.047L12.45,2.55L11.95,2.098L11.41,1.696L10.84,1.345L10.22,1.05L9.582,0.8146L8.911,0.6422L8.216,0.5361L7.5,0.5zz" fill="#FFFFFE"/>
      <path d="M7.475,0.0005859L6.759,0.03672L6.734,0.03809L6.709,0.0418L6.014,0.1479L5.989,0.1518L5.965,0.158L5.294,0.3305L5.27,0.3367L5.246,0.3451L4.604,0.5805L4.58,0.5891L4.558,0.5996L3.946,0.8943L3.925,0.9049L3.904,0.9176L3.327,1.268L3.306,1.281L3.287,1.295L2.748,1.698L2.729,1.712L2.711,1.729L2.214,2.18L2.196,2.196L2.18,2.214L1.729,2.711L1.712,2.729L1.698,2.748L1.295,3.287L1.281,3.306L1.268,3.327L0.9176,3.904L0.9049,3.925L0.8943,3.946L0.5996,4.558L0.5891,4.58L0.5805,4.604L0.3451,5.246L0.3367,5.27L0.3305,5.294L0.158,5.965L0.1518,5.989L0.1479,6.014L0.0418,6.709L0.03809,6.734L0.03672,6.759L0.0005859,7.475L-0,7.488L0,7.512L0.0005859,7.525L0.03672,8.241L0.03809,8.266L0.0418,8.291L0.1479,8.986L0.1518,9.011L0.158,9.035L0.3305,9.706L0.3367,9.73L0.3451,9.754L0.5805,10.4L0.5891,10.42L0.5996,10.44L0.8943,11.05L0.9049,11.08L0.9176,11.1L1.268,11.67L1.281,11.69L1.295,11.71L1.698,12.25L1.712,12.27L1.729,12.29L2.18,12.79L2.196,12.8L2.214,12.82L2.711,13.27L2.729,13.29L2.748,13.3L3.287,13.7L3.306,13.72L3.327,13.73L3.864,14.06L3.8,13.4L3.8,12.84L3.366,12.52L2.904,12.1L2.484,11.63L2.111,11.13L1.785,10.6L1.512,10.03L1.293,9.434L1.133,8.812L1.034,8.165L1.001,7.5L1.034,6.835L1.133,6.188L1.293,5.566L1.512,4.97L1.785,4.403L2.111,3.866L2.484,3.366L2.904,2.904L3.366,2.484L3.866,2.111L4.403,1.785L4.97,1.512L5.566,1.293L6.188,1.133L6.835,1.034L7.5,1.001L8.165,1.034L8.812,1.133L9.434,1.293L10.03,1.512L10.6,1.785L11.13,2.111L11.63,2.484L12.1,2.904L12.52,3.366L12.89,3.866L13.22,4.403L13.49,4.97L13.71,5.566L13.87,6.188L13.97,6.835L14,7.5L13.97,8.165L13.87,8.812L13.86,8.845L14.13,8.871L14.82,9.077L14.83,9.081L14.84,9.035L14.85,9.011L14.85,8.986L14.96,8.291L14.96,8.266L14.96,8.241L15,7.525L15,7.5L15,7.475L14.96,6.759L14.96,6.734L14.96,6.709L14.85,6.014L14.85,5.989L14.84,5.965L14.67,5.294L14.66,5.27L14.65,5.246L14.42,4.604L14.41,4.58L14.4,4.558L14.11,3.946L14.1,3.925L14.08,3.904L13.73,3.327L13.72,3.306L13.7,3.287L13.3,2.748L13.29,2.729L13.27,2.711L12.82,2.214L12.8,2.196L12.79,2.18L12.29,1.729L12.27,1.712L12.25,1.698L11.71,1.295L11.69,1.281L11.67,1.268L11.1,0.9176L11.08,0.9049L11.05,0.8943L10.44,0.5996L10.42,0.5891L10.4,0.5805L9.754,0.3451L9.73,0.3367L9.706,0.3305L9.035,0.158L9.011,0.1518L8.986,0.1479L8.291,0.0418L8.266,0.03809L8.241,0.03672L7.525,0.0005859L7.512,0L7.488,0zz" fill="#697483"/>
      <path d="M6.851,0.2885L6.826,0.3016L6.804,0.317L6.423,0.5777L6.395,0.5973L6.369,0.6205L5.642,1.282L5.615,1.307L5.591,1.336L4.925,2.152L4.906,2.176L4.889,2.202L4.303,3.134L4.288,3.158L4.276,3.183L3.788,4.193L3.776,4.218L3.767,4.244L3.499,5L0.9,5L0.9,6L3.233,6L3.142,6.402L3.135,6.436L3.132,6.471L3.049,7.484L3.045,7.524L3.048,7.564L3.127,8.567L3.129,8.6L3.137,8.633L3.216,9L0.9,9L0.9,10L3.468,10L3.732,10.77L3.741,10.8L3.752,10.82L4.016,11.39L4.099,11.12L4.45,10.48L4.618,10.27L4.525,10L4.844,10L4.914,9.914L5.477,9.45L6.123,9.099L6.442,9L4.238,9L4.121,8.456L4.049,7.526L4.125,6.587L4.258,6L7,6L7,8.861L7.601,8.8L8,8.8L8,6L10.67,6L10.8,6.585L10.88,7.526L10.8,8.456L10.73,8.8L11.6,8.8L11.75,8.8L11.79,8.633L11.8,8.6L11.8,8.567L11.88,7.564L11.88,7.525L11.88,7.485L11.8,6.472L11.79,6.438L11.79,6.404L11.7,6L14.1,6L14.1,5L11.44,5L11.17,4.247L11.17,4.221L11.15,4.197L10.67,3.186L10.66,3.161L10.65,3.137L10.07,2.205L10.05,2.178L10.03,2.154L9.375,1.338L9.352,1.309L9.324,1.283L8.602,0.6217L8.577,0.598L8.548,0.5783L8.169,0.3176L8.146,0.3018L8.121,0.2887L7.733,0.08105L7.509,0.5L7.463,0.5L7.239,0.08086zM7,5L4.56,5L4.7,4.604L5.165,3.643L5.72,2.759L6.342,1.997L7,1.398zM8.621,1.996L9.236,2.758L9.782,3.64L10.24,4.6L10.38,5L8,5L8,1.426zz" fill="#697483"/>
    </g>
    <g id="overlay">
      <path d="M9.5,14v-1.399c0,-1.155,0.945,-2.101,2.101,-2.101h1.799c1.155,0,2.101,0.945,2.101,2.101v0.799c0,1.155,-0.945,2.101,-2.101,2.101H12.4M8.6,10.5h-0.999C6.445,10.5,5.5,11.445,5.5,12.601v0.799C5.5,14.555,6.445,15.5,7.601,15.5h1.799c1.155,0,2.101,-0.945,2.101,-2.101V12" fill="none" stroke="#228BCB" stroke-width="1" stroke-miterlimit="10"/>
    </g>
  </g>
</svg>
