<?xml version="1.0" encoding="UTF-8"?>
<!DOCTYPE svg PUBLIC "-//W3C//DTD SVG 1.1//EN" "http://www.w3.org/Graphics/SVG/1.1/DTD/svg11.dtd">
<svg version="1.1" id="Layer_1" xmlns="http://www.w3.org/2000/svg" xmlns:xlink="http://www.w3.org/1999/xlink" x="0px" y="0px" width="16px" height="16px" viewBox="0 0 16 16" enable-background="new 0 0 16 16" xml:space="preserve">
  <g id="icon">
    <path d="M6,2.5h9M6,8.5h9M6,14.5h9" fill="#FFFFFF" stroke="#383838" stroke-width="1" stroke-miterlimit="10"/>
    <polyline points="1.3,0.5 2.5,0.494 2.5,3.8" fill="none" stroke="#228BCB" stroke-width="1" stroke-miterlimit="10" stroke-linejoin="miter"/>
    <line x1="1.3" y1="3.9" x2="3.7" y2="3.9" fill="none" stroke="#228BCB" stroke-width="1" stroke-miterlimit="10"/>
    <path d="M3.9,9.5H1.292L1.3,9.116c0.004,-0.204,0.1,-0.399,0.267,-0.54l1.659,-1.404c0.084,-0.103,0.205,-0.271,0.205,-0.526c0,-0.495,-0.476,-0.896,-1.063,-0.896c-0.572,0,-1.039,0.381,-1.062,0.858" fill="none" stroke="#228BCB" stroke-width="1" stroke-miterlimit="10"/>
    <path d="M1.343,12.497c0.02,-0.364,0.221,-0.933,1.128,-0.933c0.962,0,1.13,0.641,1.13,0.997c0,0.507,-0.404,0.839,-1.121,0.95h-0.133M1.343,14.522c0.02,0.364,0.221,0.933,1.128,0.933c0.962,0,1.13,-0.641,1.13,-0.997c0,-0.461,-0.401,-0.837,-1.121,-0.948h-0.133" fill="none" stroke="#228BCB" stroke-width="1" stroke-miterlimit="10"/>
  </g>
</svg>
