<?xml version="1.0" encoding="UTF-8"?>
<!DOCTYPE svg PUBLIC "-//W3C//DTD SVG 1.1//EN" "http://www.w3.org/Graphics/SVG/1.1/DTD/svg11.dtd">
<svg version="1.1" id="Layer_1" xmlns="http://www.w3.org/2000/svg" xmlns:xlink="http://www.w3.org/1999/xlink" x="0px" y="0px" width="16px" height="16px" viewBox="0 0 16 16" enable-background="new 0 0 16 16" xml:space="preserve">
  <g id="icon">
    <rect x="0.5" y="3.5" width="15" height="12" fill="#FFFFFF" stroke="#383838" stroke-width="1" stroke-miterlimit="10"/>
    <rect x="0.5" y="0.5" width="15" height="3" fill="#92CBEE" stroke="#0964B0" stroke-width="1" stroke-miterlimit="10"/>
    <path d="M4,14H3V5h1V14zM7,5H6v9h1V5zM13,5h-1v9h1V5zM10,5H9v9h1V5z" fill="#C8C6C4" opacity="0.5"/>
    <path d="M9,11H2V9h7V11zM14,12H7v2h7V12z" fill="#228BCB"/>
    <polygon points="2,6 2,6.5 2,7 2,8.1 3,7 13,7 14,8.1 14,7 14,6.5 14,6" fill="#78797A" stroke-linejoin="miter"/>
  </g>
</svg>
