<?xml version="1.0" encoding="UTF-8"?>
<!DOCTYPE svg PUBLIC "-//W3C//DTD SVG 1.1//EN" "http://www.w3.org/Graphics/SVG/1.1/DTD/svg11.dtd">
<svg version="1.1" id="Layer_1" xmlns="http://www.w3.org/2000/svg" xmlns:xlink="http://www.w3.org/1999/xlink" x="0px" y="0px" width="16px" height="16px" viewBox="0 0 16 16" enable-background="new 0 0 16 16" xml:space="preserve">
  <g id="main">
    <g id="icon">
      <path d="M0.7301,13.25L6.084,13.25L5.956,12.83L5.84,12.18L5.8,11.5L5.829,10.92L5.916,10.35L6.057,9.807L6.249,9.283L6.489,8.785L6.775,8.315L7.103,7.876L7.471,7.471L7.876,7.103L8.315,6.775L8.785,6.489L9.283,6.249L9.807,6.057L10.35,5.916L10.92,5.829L11.5,5.8L12.18,5.84L12.83,5.956L13.45,6.145L14.04,6.401L14.27,6.529L14.27,0.75L0.7301,0.75zz" fill="#FFFFFF"/>
      <path d="M10.7,2.53L10.42,2.618L10.16,2.756L9.939,2.939L9.756,3.161L9.618,3.416L9.53,3.698L9.5,4L9.53,4.302L9.618,4.584L9.756,4.839L9.939,5.061L10.16,5.244L10.42,5.382L10.7,5.47L11,5.5L11.3,5.47L11.58,5.382L11.84,5.244L12.06,5.061L12.24,4.839L12.38,4.584L12.47,4.302L12.5,4L12.47,3.698L12.38,3.416L12.24,3.161L12.06,2.939L11.84,2.756L11.58,2.618L11.3,2.53L11,2.5zz" fill="#FFFFFF"/>
      <path d="M10.95,2.003L10.65,2.033L10.6,2.038L10.55,2.053L10.27,2.14L10.22,2.155L10.18,2.179L9.923,2.317L9.88,2.34L9.843,2.371L9.621,2.554L9.584,2.584L9.554,2.621L9.371,2.843L9.34,2.88L9.317,2.923L9.179,3.178L9.155,3.221L9.14,3.268L9.053,3.549L9.038,3.597L9.033,3.647L9.003,3.95L8.997,4L9.003,4.05L9.033,4.353L9.038,4.403L9.053,4.451L9.14,4.732L9.155,4.779L9.179,4.822L9.317,5.077L9.34,5.12L9.371,5.157L9.554,5.379L9.584,5.416L9.621,5.446L9.843,5.629L9.88,5.66L9.923,5.683L10.18,5.821L10.22,5.845L10.27,5.86L10.42,5.906L10.92,5.829L11.5,5.8L11.83,5.819L12.08,5.683L12.12,5.66L12.16,5.629L12.38,5.446L12.42,5.416L12.45,5.379L12.63,5.157L12.66,5.12L12.68,5.077L12.82,4.822L12.85,4.779L12.86,4.732L12.95,4.451L12.96,4.403L12.97,4.353L13,4.05L13,4L13,3.95L12.97,3.647L12.96,3.597L12.95,3.549L12.86,3.268L12.85,3.221L12.82,3.178L12.68,2.923L12.66,2.88L12.63,2.843L12.45,2.621L12.42,2.584L12.38,2.554L12.16,2.371L12.12,2.34L12.08,2.317L11.82,2.179L11.78,2.155L11.73,2.14L11.45,2.053L11.4,2.038L11.35,2.033L11.05,2.003L11,1.997zM11.2,3.023L11.39,3.081L11.56,3.173L11.71,3.295L11.83,3.442L11.92,3.611L11.98,3.798L12,4L11.98,4.202L11.92,4.389L11.83,4.558L11.71,4.705L11.56,4.827L11.39,4.919L11.2,4.977L11,4.997L10.8,4.977L10.61,4.919L10.44,4.827L10.29,4.705L10.17,4.558L10.08,4.389L10.02,4.202L10,4L10.02,3.798L10.08,3.611L10.17,3.442L10.29,3.295L10.44,3.173L10.61,3.081L10.8,3.023L11,3.003zz" fill="#ED8730"/>
      <path d="M3.909,6.005L3.602,6.007L3.561,6.008L3.521,6.014L3.208,6.068L3.17,6.075L3.132,6.087L2.812,6.196L2.778,6.207L2.746,6.223L2.418,6.39L2.377,6.411L2.34,6.439L1.655,6.963L1.62,6.991L1.589,7.024L0.8604,7.827L0.8395,7.85L0.8215,7.876L0.04082,8.988L0.8592,9.562L1.622,8.476L2.299,7.73L2.912,7.261L3.166,7.131L3.416,7.047L3.649,7.007L3.86,7.005L4.344,7.113L4.838,7.36L5.368,7.745L5.922,8.24L6.483,8.798L6.489,8.785L6.775,8.315L7.048,7.95L6.619,7.523L6.609,7.513L6.599,7.504L6.014,6.981L5.995,6.965L5.975,6.95L5.393,6.527L5.359,6.503L5.322,6.484L4.736,6.191L4.681,6.164L4.621,6.15L4.021,6.017L3.966,6.004zz" fill="#0BA04A"/>
      <path d="M0,14L0.4971,14L6.382,14L6.145,13.45L6.008,13L0.9971,13L0.9971,1L14,1L14,6.382L14.04,6.401L14.6,6.72L15,7.014L15,0.5L15,0L14.5,0L0.4971,0L0,0zz" fill="#383838"/>
    </g>
    <g id="overlay">
      <circle cx="11.5" cy="11.5" r="4" fill="#FFFFFF" stroke="#228BCB" stroke-width="1" stroke-miterlimit="10"/>
      <path d="M11.486,7.512c-0.913,0.547,-1.486,2.505,-1.486,4.002c0,1.478,0.525,3.435,1.45,3.964M11.513,15.479c0.902,-0.529,1.487,-2.486,1.487,-3.964c0,-1.496,-0.612,-3.455,-1.502,-4.002M7.7,12.55h7.6M7.7,10.45h7.6" fill="none" stroke="#228BCB" stroke-width="0.9" stroke-miterlimit="10"/>
    </g>
  </g>
</svg>
