<?xml version="1.0" encoding="UTF-8"?>
<!DOCTYPE svg PUBLIC "-//W3C//DTD SVG 1.1//EN" "http://www.w3.org/Graphics/SVG/1.1/DTD/svg11.dtd">
<svg version="1.1" id="Layer_1" xmlns="http://www.w3.org/2000/svg" xmlns:xlink="http://www.w3.org/1999/xlink" x="0px" y="0px" width="16px" height="16px" viewBox="0 0 16 16" enable-background="new 0 0 16 16" xml:space="preserve">
  <g id="icon">
    <path d="M2.9,12.9h-0.348c-0.211,0,-0.405,-0.034,-0.582,-0.101c-0.177,-0.067,-0.328,-0.16,-0.453,-0.278c-0.125,-0.118,-0.223,-0.256,-0.292,-0.414c-0.07,-0.158,-0.104,-0.328,-0.104,-0.51c0,-0.198,0.021,-0.391,0.063,-0.578s0.088,-0.371,0.14,-0.553c0.052,-0.182,0.098,-0.364,0.14,-0.547c0.042,-0.183,0.063,-0.374,0.063,-0.573c0,-0.114,-0.026,-0.22,-0.078,-0.318c-0.052,-0.098,-0.123,-0.182,-0.215,-0.252c-0.092,-0.071,-0.2,-0.126,-0.325,-0.167C0.783,8.571,0.647,8.55,0.5,8.55V8.45c0.147,0,0.283,-0.019,0.409,-0.058c0.125,-0.039,0.234,-0.093,0.325,-0.164c0.091,-0.071,0.163,-0.155,0.215,-0.252c0.052,-0.098,0.078,-0.205,0.078,-0.323c0,-0.195,-0.021,-0.385,-0.063,-0.57c-0.042,-0.185,-0.089,-0.368,-0.14,-0.55c-0.052,-0.182,-0.098,-0.366,-0.14,-0.553c-0.042,-0.187,-0.063,-0.379,-0.063,-0.578c0,-0.182,0.035,-0.351,0.104,-0.51c0.07,-0.158,0.167,-0.296,0.292,-0.414c0.125,-0.118,0.276,-0.21,0.453,-0.278c0.177,-0.067,0.371,-0.101,0.582,-0.101H2.9M13.1,4.1h0.348c0.211,0,0.405,0.034,0.582,0.101c0.177,0.067,0.328,0.16,0.453,0.278c0.125,0.118,0.223,0.256,0.292,0.414c0.07,0.158,0.104,0.328,0.104,0.51c0,0.199,-0.021,0.391,-0.063,0.578c-0.042,0.187,-0.088,0.371,-0.14,0.553c-0.052,0.182,-0.098,0.365,-0.14,0.55c-0.042,0.185,-0.063,0.375,-0.063,0.57c0,0.118,0.026,0.225,0.078,0.323c0.052,0.098,0.123,0.182,0.215,0.252c0.092,0.071,0.2,0.125,0.325,0.164c0.125,0.039,0.261,0.058,0.409,0.058v0.101c-0.147,0,-0.283,0.02,-0.409,0.061c-0.125,0.04,-0.234,0.096,-0.325,0.167c-0.091,0.071,-0.163,0.155,-0.215,0.252c-0.052,0.098,-0.078,0.204,-0.078,0.318c0,0.199,0.021,0.389,0.063,0.573c0.042,0.183,0.089,0.366,0.14,0.547c0.052,0.182,0.098,0.366,0.14,0.553s0.063,0.379,0.063,0.578c0,0.182,-0.035,0.351,-0.104,0.51c-0.07,0.158,-0.167,0.296,-0.292,0.414c-0.125,0.118,-0.276,0.21,-0.453,0.278c-0.177,0.067,-0.371,0.101,-0.582,0.101H13.1" fill="none" stroke="#383838" stroke-width="1" stroke-miterlimit="10"/>
    <path d="M5.353,8.489c0,0.588,-0.476,1.064,-1.064,1.064s-1.064,-0.476,-1.064,-1.064c0,-0.588,0.476,-1.064,1.064,-1.064S5.353,7.901,5.353,8.489zM8.013,7.425c-0.588,0,-1.064,0.476,-1.064,1.064c0,0.588,0.476,1.064,1.064,1.064s1.064,-0.476,1.064,-1.064C9.076,7.901,8.6,7.425,8.013,7.425zM11.736,7.425c-0.588,0,-1.064,0.476,-1.064,1.064c0,0.588,0.476,1.064,1.064,1.064c0.588,0,1.064,-0.476,1.064,-1.064C12.8,7.901,12.324,7.425,11.736,7.425z" fill="#92CBEE" stroke="#0964B0" stroke-width="0.9" stroke-linecap="round" stroke-miterlimit="10"/>
  </g>
</svg>
