<?xml version="1.0" encoding="UTF-8"?>
<!DOCTYPE svg PUBLIC "-//W3C//DTD SVG 1.1//EN" "http://www.w3.org/Graphics/SVG/1.1/DTD/svg11.dtd">
<svg version="1.1" id="Layer_1" xmlns="http://www.w3.org/2000/svg" xmlns:xlink="http://www.w3.org/1999/xlink" x="0px" y="0px" width="16px" height="16px" viewBox="0 0 16 16" enable-background="new 0 0 16 16" xml:space="preserve">
  <g id="icon">
    <path d="M4.717,2.5259c0.1418,0.0481,0.2493,0.1703,0.3009,0.3162l3.3524,9.485c0.1028,0.2909,-0.0701,0.6173,-0.3807,0.6681c-0.2278,0.0373,-0.446,-0.1144,-0.5257,-0.3399L6.5254,10H2.5996l-0.9385,2.6553c-0.0797,0.2255,-0.2979,0.3771,-0.5257,0.3399c-0.3106,-0.0508,-0.4835,-0.3772,-0.3807,-0.6681l3.3577,-9.4999C4.1994,2.5811,4.4591,2.4384,4.717,2.5259zM4.5625,4.4463L2.953,9H6.172L4.5625,4.4463zM9,3v9.5c0,0.2761,0.2239,0.5,0.5,0.5h2.441c1.5132,0,2.9183,-1.2276,3.0476,-2.7352c0.1165,-1.3585,-0.6732,-2.5489,-1.8315,-3.0335c0.5546,-0.534,0.8856,-1.2987,0.8385,-2.1397C13.9134,3.627,12.6627,2.5,11.1958,2.5H9.5C9.2239,2.5,9,2.7239,9,3zM11.2091,7H10V3.5h1.25c1.0185,0,1.8338,0.8701,1.7431,1.9076C12.9163,6.2857,12.0905,7,11.2091,7zM11.9548,12H10V8h2c1.1646,0,2.0967,0.9954,1.992,2.1817C13.9003,11.2203,12.9974,12,11.9548,12z" fill="#404040"/>
  </g>
</svg>
