<?xml version="1.0" encoding="UTF-8"?>
<!DOCTYPE svg PUBLIC "-//W3C//DTD SVG 1.1//EN" "http://www.w3.org/Graphics/SVG/1.1/DTD/svg11.dtd">
<svg version="1.1" id="Layer_1" xmlns="http://www.w3.org/2000/svg" xmlns:xlink="http://www.w3.org/1999/xlink" x="0px" y="0px" width="16px" height="16px" viewBox="0 0 16 16" enable-background="new 0 0 16 16" xml:space="preserve">
  <g id="icon">
    <path d="M13.448,12.5H2.552C1.971,12.5,1.5,12.029,1.5,11.448V4.552C1.5,3.971,1.971,3.5,2.552,3.5h10.896c0.581,0,1.052,0.471,1.052,1.052v6.896C14.5,12.029,14.029,12.5,13.448,12.5z" id="b" fill="#F5F5F5"/>
    <path d="M13.448,13H2.552C1.6962,13,1,12.3038,1,11.448V4.552C1,3.6962,1.6962,3,2.552,3h10.896c0.8558,0,1.552,0.6962,1.552,1.552v6.896C15,12.3038,14.3038,13,13.448,13zM2.552,4C2.2476,4,2,4.2476,2,4.552v6.896c0,0.3044,0.2476,0.552,0.552,0.552h10.896c0.3044,0,0.552,-0.2476,0.552,-0.552V4.552c0,-0.3044,-0.2476,-0.552,-0.552,-0.552H2.552z" id="c1" fill="#404040"/>
    <path d="M5.6933,10.5455c-0.1212,0,-0.2428,-0.0438,-0.3389,-0.1325L3.1376,8.3675c-0.1026,-0.0947,-0.1609,-0.2279,-0.1609,-0.3675s0.0583,-0.2728,0.1609,-0.3675l2.2167,-2.0455c0.2029,-0.1874,0.5193,-0.1745,0.7065,0.0284s0.1746,0.5192,-0.0284,0.7065L4.214,8l1.8185,1.678c0.203,0.1873,0.2157,0.5036,0.0284,0.7065C5.9623,10.4914,5.828,10.5455,5.6933,10.5455zM10.35,10.5455c-0.1331,0,-0.2658,-0.0528,-0.3642,-0.1573c-0.1893,-0.2011,-0.1796,-0.5175,0.0214,-0.7068L11.7938,8l-1.7865,-1.6813c-0.2011,-0.1893,-0.2107,-0.5057,-0.0214,-0.7068c0.1892,-0.2011,0.5056,-0.2107,0.7068,-0.0214l2.1734,2.0455c0.1004,0.0945,0.1573,0.2262,0.1573,0.3641s-0.0569,0.2696,-0.1573,0.3641l-2.1734,2.0455C10.596,10.5004,10.4729,10.5455,10.35,10.5455zM7.6177,10.4267l1.7,-4.5c0.0976,-0.2583,-0.0327,-0.5469,-0.291,-0.6444c-0.2583,-0.0975,-0.5468,0.0328,-0.6444,0.291l-1.7,4.5c-0.0976,0.2583,0.0327,0.5469,0.291,0.6444c0.0582,0.022,0.1179,0.0324,0.1766,0.0324C7.3519,10.7501,7.5421,10.6268,7.6177,10.4267z" id="c2" fill="#404040"/>
  </g>
</svg>
