<?xml version="1.0" encoding="UTF-8"?>
<!DOCTYPE svg PUBLIC "-//W3C//DTD SVG 1.1//EN" "http://www.w3.org/Graphics/SVG/1.1/DTD/svg11.dtd">
<svg version="1.1" id="Layer_1" xmlns="http://www.w3.org/2000/svg" xmlns:xlink="http://www.w3.org/1999/xlink" x="0px" y="0px" width="16px" height="16px" viewBox="0 0 16 16" enable-background="new 0 0 16 16" xml:space="preserve">
  <g id="main">
    <g id="icon">
      <path d="M3.698,2.53L3.416,2.618L3.161,2.756L2.939,2.939L2.756,3.161L2.618,3.416L2.53,3.698L2.5,4L2.5,12L2.53,12.3L2.618,12.58L2.756,12.84L2.939,13.06L3.161,13.24L3.416,13.38L3.698,13.47L4,13.5L6.378,13.5L6.368,13.48L6.167,12.85L6.043,12.19L6,11.5L6.029,10.94L6.112,10.39L6.248,9.866L6.433,9.361L6.665,8.88L6.941,8.427L7.257,8.004L7.613,7.613L8.004,7.257L8.427,6.941L8.88,6.665L9.361,6.433L9.866,6.248L10.39,6.112L10.94,6.029L11.5,6L12.19,6.043L12.85,6.167L13.48,6.368L13.5,6.378L13.5,4L13.47,3.698L13.38,3.416L13.24,3.161L13.06,2.939L12.84,2.756L12.58,2.618L12.3,2.53L12,2.5L4,2.5zz" fill="#F5F5F5"/>
      <path d="M4,8L7.261,8L7.613,7.613L8,7.261L8,4L4,4zz" fill="#404040" opacity="0.15"/>
      <path d="M4,12L6.031,12L6,11.5L6.029,10.94L6.112,10.39L6.248,9.866L6.433,9.361L6.665,8.88L6.941,8.427L7.257,8.004L7.261,8L4,8zz" fill="#404040" opacity="0.4"/>
      <path d="M8,7.261L8.004,7.257L8.427,6.941L8.88,6.665L9.361,6.433L9.866,6.248L10.39,6.112L10.94,6.029L11.5,6L12,6.031L12,4L8,4zz" fill="#404040" opacity="0.55"/>
      <path d="M3.624,2.041L3.243,2.16L2.897,2.348L2.596,2.596L2.348,2.897L2.16,3.243L2.041,3.624L2,4.033L2,11.97L2.041,12.38L2.16,12.76L2.348,13.1L2.596,13.4L2.897,13.65L3.243,13.84L3.624,13.96L4.033,14L6.607,14L6.368,13.48L6.216,13L4.033,13L3.631,12.92L3.303,12.7L3.081,12.37L3,11.97L3,4.033L3.081,3.631L3.303,3.303L3.631,3.081L4.033,3L11.97,3L12.37,3.081L12.7,3.303L12.92,3.631L13,4.033L13,6.216L13.48,6.368L14,6.607L14,4.033L13.96,3.624L13.84,3.243L13.65,2.897L13.4,2.596L13.1,2.348L12.76,2.16L12.38,2.041L11.97,2L4.033,2zz" fill="#404040"/>
    </g>
    <g id="overlay">
      <path d="M15.5361,11.5c0,2.2291,-1.807,4.0361,-4.0361,4.0361S7.4639,13.7291,7.4639,11.5S9.2709,7.4639,11.5,7.4639S15.5361,9.2709,15.5361,11.5z" id="b" fill="#FFFFFF"/>
      <path d="M11.5,16c-2.4813,0,-4.5,-2.0187,-4.5,-4.5s2.0187,-4.5,4.5,-4.5s4.5,2.0187,4.5,4.5S13.9813,16,11.5,16zM11.5,7.9648c-1.9493,0,-3.5352,1.5859,-3.5352,3.5352S9.5507,15.0352,11.5,15.0352s3.5352,-1.5859,3.5352,-3.5352S13.4493,7.9648,11.5,7.9648z" id="c3" fill="#BE123C"/>
      <path d="M13.0545,13.5421c-0.1303,0,-0.2528,-0.0507,-0.3449,-0.1427L11.5,12.1898l-1.2096,1.2096c-0.092,0.092,-0.2145,0.1427,-0.3449,0.1427c-0.1661,0,-0.3199,-0.084,-0.4112,-0.2247c-0.1235,-0.1903,-0.0926,-0.4488,0.0734,-0.6148L10.8102,11.5l-1.2026,-1.2026c-0.166,-0.1659,-0.1969,-0.4245,-0.0734,-0.6148c0.0913,-0.1407,0.245,-0.2247,0.4112,-0.2247c0.1304,0,0.2528,0.0507,0.3449,0.1427L11.5,10.8102l1.2026,-1.2026c0.0946,-0.0947,0.2248,-0.149,0.3572,-0.149c0.0923,0,0.1814,0.0262,0.2576,0.0757c0.1256,0.0815,0.2065,0.2127,0.222,0.3599c0.0155,0.1473,-0.0355,0.2917,-0.14,0.3962L12.1898,11.5l1.2026,1.2026c0.166,0.1659,0.1969,0.4245,0.0734,0.6148C13.3744,13.4581,13.2207,13.5421,13.0545,13.5421z" id="c3" fill="#BE123C"/>
    </g>
  </g>
</svg>
