<?xml version="1.0" encoding="UTF-8"?>
<!DOCTYPE svg PUBLIC "-//W3C//DTD SVG 1.1//EN" "http://www.w3.org/Graphics/SVG/1.1/DTD/svg11.dtd">
<svg version="1.1" id="Layer_1" xmlns="http://www.w3.org/2000/svg" xmlns:xlink="http://www.w3.org/1999/xlink" x="0px" y="0px" width="16px" height="16px" viewBox="0 0 16 16" enable-background="new 0 0 16 16" xml:space="preserve">
  <g id="main">
    <g id="icon">
      <path d="M4.163,2.542L3.772,2.664L3.419,2.856L3.11,3.11L2.856,3.419L2.664,3.772L2.542,4.163L2.5,4.583L2.5,11.42L2.542,11.84L2.664,12.23L2.856,12.58L3.11,12.89L3.419,13.14L3.772,13.34L4.047,13.42L4,13L4.077,12.22L4.297,11.49L4.647,10.83L5.112,10.25L5.678,9.759L6.33,9.379L7.055,9.123L7.838,9.006L7.865,9.005L8.049,9L9.236,9L9.616,9.048L9.961,9.182L10.26,9.391L10.5,9.663L10.69,9.435L10.92,9.249L11.19,9.109L11.49,9.024L11.53,9.017L11.72,9L12.94,9L13.5,9.061L13.5,4.583L13.46,4.163L13.34,3.772L13.14,3.419L12.89,3.11L12.58,2.856L12.23,2.664L11.84,2.542L11.42,2.5L4.583,2.5zM10.42,11.48L10.58,11.48L10.5,11.37zz" fill="#F5F5F5"/>
      <path d="M3.996,2.051L3.527,2.196L3.102,2.427L2.732,2.732L2.427,3.102L2.196,3.527L2.051,3.996L2,4.5L2,11.5L2.051,12L2.196,12.47L2.427,12.9L2.732,13.27L3.102,13.57L3.527,13.8L3.996,13.95L4.129,13.96L4.097,13.87L4,13L4.009,12.91L3.853,12.85L4.032,12.68L4.077,12.22L4.297,11.49L4.647,10.83L5.112,10.25L5.678,9.759L6.33,9.379L7.055,9.123L7.838,9.006L7.865,9.005L7.973,9.002L8,8.997L8.021,9.001L8.049,9L9.236,9L9.616,9.048L9.843,9.136L9.202,8.495L8.936,8.277L8.64,8.121L8.325,8.028L8,7.997L7.675,8.028L7.36,8.121L7.065,8.277L6.798,8.495L3.146,12.15L3.038,11.84L3,11.5L3,4.5L3.03,4.198L3.118,3.916L3.256,3.661L3.439,3.439L3.661,3.256L3.916,3.118L4.198,3.03L4.5,3L11.5,3L11.8,3.03L12.08,3.118L12.34,3.256L12.56,3.439L12.74,3.661L12.88,3.916L12.97,4.198L13,4.5L13,9.007L13.83,9.097L14,9.154L14,4.5L13.95,3.996L13.8,3.527L13.57,3.102L13.27,2.732L12.9,2.427L12.47,2.196L12,2.051L11.5,2L4.5,2zM10.11,4.579L9.789,4.794L9.575,5.112L9.496,5.502L9.575,5.892L9.789,6.211L10.11,6.425L10.5,6.504L10.89,6.425L11.21,6.211L11.42,5.892L11.5,5.502L11.42,5.112L11.21,4.794L10.89,4.579L10.5,4.5zz" fill="#404040"/>
    </g>
    <g id="overlay">
      <path d="M11.764,16c-0.2909,-0.0002,-0.5286,-0.2309,-0.5299,-0.5146c-0.0011,-0.2498,0.1806,-0.4644,0.4321,-0.5104l0.0953,-0.0093l1.1793,-0.0034c1.1019,0,1.9986,-0.8811,1.9986,-1.964c0,-1.0323,-0.8201,-1.8932,-1.8672,-1.9599l-0.1349,-0.0042l-1.1729,0.0001c-0.2924,0,-0.5303,-0.2319,-0.5303,-0.517c0,-0.2498,0.1828,-0.4637,0.4345,-0.5085l0.0952,-0.0088l1.1772,0.0004c1.6868,0,3.0591,1.3448,3.0591,2.9979c0,1.5925,-1.2692,2.9074,-2.8894,2.9935l-0.1647,0.0044L11.764,16zM8.0591,15.9962C6.3723,15.9962,5,14.6513,5,12.9983c0,-1.5926,1.2699,-2.9075,2.8911,-2.9935l0.1706,-0.0044l1.1739,0.0001c0.2924,0,0.5303,0.2319,0.5303,0.5169c0,0.2498,-0.1827,0.4637,-0.4345,0.5086l-0.0952,0.0088l-1.1772,-0.0004c-1.102,0,-1.9984,0.881,-1.9984,1.964c0,1.0323,0.8201,1.8932,1.8671,1.9599l0.135,0.0042l1.1729,-0.0001c0.2924,0,0.5303,0.2319,0.5303,0.517c0,0.2498,-0.1828,0.4637,-0.4345,0.5085l-0.091,0.0085H8.0591zM8.1461,13.5152c-0.1423,-0.0001,-0.2759,-0.0543,-0.3761,-0.1528c-0.0994,-0.0975,-0.154,-0.2269,-0.154,-0.3644c0.0001,-0.2498,0.183,-0.4635,0.4349,-0.5083l0.0951,-0.0088l4.7079,0.0023c0.1423,0,0.2759,0.0542,0.3762,0.1527c0.0993,0.0975,0.154,0.2269,0.1539,0.3644c-0.0001,0.2499,-0.183,0.4636,-0.4348,0.5084l-0.0909,0.0083L8.1461,13.5152z" id="c1" fill="#404040"/>
    </g>
  </g>
</svg>
