<?xml version="1.0" encoding="UTF-8"?>
<!DOCTYPE svg PUBLIC "-//W3C//DTD SVG 1.1//EN" "http://www.w3.org/Graphics/SVG/1.1/DTD/svg11.dtd">
<svg version="1.1" id="Layer_1" xmlns="http://www.w3.org/2000/svg" xmlns:xlink="http://www.w3.org/1999/xlink" x="0px" y="0px" width="16px" height="16px" viewBox="0 0 16 16" enable-background="new 0 0 16 16" xml:space="preserve">
  <g id="main">
    <g id="icon">
      <path d="M4.163,2.542L3.772,2.664L3.419,2.856L3.11,3.11L2.856,3.419L2.664,3.772L2.542,4.163L2.5,4.583L2.5,11.42L2.542,11.84L2.664,12.23L2.856,12.58L3.11,12.89L3.419,13.14L3.772,13.34L4.163,13.46L4.583,13.5L6.376,13.5L6.232,13.1L6.102,12.58L6.023,12.04L5.996,11.5L6.023,10.95L6.102,10.42L6.232,9.897L6.412,9.393L6.641,8.91L6.918,8.449L7.241,8.014L7.609,7.609L8.014,7.241L8.449,6.918L8.91,6.641L9.393,6.412L9.897,6.232L10.42,6.102L10.95,6.023L11.5,5.996L12.04,6.023L12.58,6.102L13.1,6.232L13.5,6.375L13.5,4.583L13.46,4.163L13.34,3.772L13.14,3.419L12.89,3.11L12.58,2.856L12.23,2.664L11.84,2.542L11.42,2.5L4.583,2.5zz" fill="#F5F5F5"/>
      <path d="M3.996,2.051L3.527,2.196L3.102,2.427L2.732,2.732L2.427,3.102L2.196,3.527L2.051,3.996L2,4.5L2,11.5L2.051,12L2.196,12.47L2.427,12.9L2.732,13.27L3.102,13.57L3.527,13.8L3.996,13.95L4.5,14L6.6,14L6.412,13.6L6.232,13.1L6.207,13L4.5,13L4.163,12.96L3.853,12.85L6.069,10.64L6.102,10.42L6.232,9.897L6.412,9.393L6.641,8.91L6.918,8.449L7.017,8.316L6.798,8.495L3.146,12.15L3.038,11.84L3,11.5L3,4.5L3.03,4.198L3.118,3.916L3.256,3.661L3.439,3.439L3.661,3.256L3.916,3.118L4.198,3.03L4.5,3L11.5,3L11.8,3.03L12.08,3.118L12.34,3.256L12.56,3.439L12.74,3.661L12.88,3.916L12.97,4.198L13,4.5L13,6.207L13.1,6.232L13.6,6.412L14,6.6L14,4.5L13.95,3.996L13.8,3.527L13.57,3.102L13.27,2.732L12.9,2.427L12.47,2.196L12,2.051L11.5,2L4.5,2zM10.11,4.579L9.789,4.794L9.575,5.112L9.496,5.502L9.575,5.892L9.789,6.211L9.847,6.25L9.897,6.232L10.42,6.102L10.95,6.023L11.35,6.004L11.42,5.892L11.5,5.502L11.42,5.112L11.21,4.794L10.89,4.579L10.5,4.5zz" fill="#404040"/>
    </g>
    <g id="overlay">
      <path d="M11.498,15.536c-2.2301,0,-4.038,-1.8079,-4.038,-4.038S9.2679,7.46,11.498,7.46s4.038,1.8079,4.038,4.038S13.7281,15.536,11.498,15.536z" id="b" fill="#FFFFFF"/>
      <path d="M14.68,14.68c-0.8513,0.8513,-1.9813,1.32,-3.182,1.32c-1.2007,0,-2.3307,-0.4688,-3.182,-1.32c-0.8513,-0.8513,-1.32,-1.9813,-1.32,-3.182c0,-1.2007,0.4688,-2.3307,1.32,-3.182s1.9813,-1.32,3.182,-1.32c1.2007,0,2.3307,0.4688,3.182,1.32c0.8513,0.8513,1.32,1.9813,1.32,3.182C16,12.6987,15.5312,13.8287,14.68,14.68zM8.9982,8.9982c-0.6688,0.6688,-1.0372,1.5566,-1.0372,2.4998c0,1.9502,1.5867,3.5369,3.5369,3.5369c0.9432,0,1.8309,-0.3683,2.4998,-1.0372c0.6688,-0.6688,1.0372,-1.5566,1.0372,-2.4998c0,-1.9502,-1.5867,-3.5369,-3.5369,-3.5369C10.5548,7.9611,9.6671,8.3294,8.9982,8.9982z" id="c3" fill="#0891b2"/>
      <path d="M11.8471,13.909c-0.0543,0.0543,-0.1212,0.0948,-0.1935,0.1174c-0.1569,0.0489,-0.3208,0.0226,-0.4497,-0.0723c-0.1268,-0.0933,-0.2025,-0.2428,-0.2025,-0.4001l0,-3.0252l-0.968,0.968c-0.1516,0.1516,-0.3853,0.1904,-0.5682,0.0944c-0.1429,-0.0751,-0.2385,-0.2073,-0.2622,-0.3628c-0.0233,-0.1529,0.0281,-0.3094,0.1374,-0.4187l1.8185,-1.8185c0.187,-0.187,0.4912,-0.187,0.6782,0l1.8184,1.8184c0.1902,0.1902,0.1902,0.4998,-0.0001,0.6901c-0.0362,0.0362,-0.0781,0.0669,-0.1247,0.0914c-0.1829,0.0961,-0.4166,0.0572,-0.5683,-0.0944l-0.968,-0.968l0,3.0209C11.9944,13.6844,11.9407,13.8154,11.8471,13.909z" id="c3" fill="#0891b2"/>
    </g>
  </g>
</svg>
