<?xml version="1.0" encoding="UTF-8"?>
<!DOCTYPE svg PUBLIC "-//W3C//DTD SVG 1.1//EN" "http://www.w3.org/Graphics/SVG/1.1/DTD/svg11.dtd">
<svg version="1.1" id="Layer_1" xmlns="http://www.w3.org/2000/svg" xmlns:xlink="http://www.w3.org/1999/xlink" x="0px" y="0px" width="16px" height="16px" viewBox="0 0 16 16" enable-background="new 0 0 16 16" xml:space="preserve">
  <g id="icon">
    <path d="M2.1678,2.1263c0.2064,-0.1835,0.5224,-0.1649,0.7059,0.0415L6.5,6.2474l3.6263,-4.0796c0.1835,-0.2064,0.4995,-0.225,0.7059,-0.0415c0.2064,0.1835,0.225,0.4995,0.0415,0.7059L7.169,7l2.8483,3.2044C10.0059,10.3013,10,10.4,10,10.5c0,0.4736,0.2195,0.896,0.5623,1.1709c-0.0684,0.1024,-0.1305,0.2071,-0.1864,0.3135c-0.0933,-0.0238,-0.1808,-0.0748,-0.2496,-0.1522L6.5,7.7526l-3.6263,4.0796c-0.1835,0.2064,-0.4995,0.225,-0.7059,0.0415c-0.2064,-0.1834,-0.225,-0.4995,-0.0415,-0.7059L5.831,7L2.1263,2.8322C1.9429,2.6258,1.9614,2.3098,2.1678,2.1263zM12,10.5c0,-0.2761,0.2239,-0.5,0.5,-0.5s0.5,0.2239,0.5,0.5c0,0.2586,-0.0815,0.3914,-0.1891,0.4988c-0.1017,0.1015,-0.2069,0.168,-0.3508,0.259c-0.0698,0.0442,-0.1488,0.0941,-0.2409,0.1566C11.3577,11.999,11,12.7695,11,13.5c0,0.2761,0.2239,0.5,0.5,0.5h2c0.2761,0,0.5,-0.2239,0.5,-0.5s-0.2239,-0.5,-0.5,-0.5h-1.3943c0.1097,-0.2517,0.3167,-0.515,0.6751,-0.7581c0.0347,-0.0236,0.0787,-0.0514,0.1288,-0.0831c0.1742,-0.1101,0.4216,-0.2664,0.6077,-0.4522c0.283,-0.2824,0.4827,-0.6652,0.4827,-1.2066c0,-0.8284,-0.6716,-1.5,-1.5,-1.5s-1.5,0.6716,-1.5,1.5c0,0.2761,0.2239,0.5,0.5,0.5S12,10.7761,12,10.5z" id="c1" fill="#404040"/>
  </g>
</svg>
