<?xml version="1.0" encoding="UTF-8"?>
<!DOCTYPE svg PUBLIC "-//W3C//DTD SVG 1.1//EN" "http://www.w3.org/Graphics/SVG/1.1/DTD/svg11.dtd">
<svg version="1.1" id="Layer_1" xmlns="http://www.w3.org/2000/svg" xmlns:xlink="http://www.w3.org/1999/xlink" x="0px" y="0px" width="16px" height="16px" viewBox="0 0 16 16" enable-background="new 0 0 16 16" xml:space="preserve">
  <g id="icon">
    <path d="M11.9833,14.5H4.0167C3.179,14.5,2.5,13.821,2.5,12.9833V3.0167C2.5,2.179,3.179,1.5,4.0167,1.5h7.9667C12.821,1.5,13.5,2.179,13.5,3.0167v9.9667C13.5,13.821,12.821,14.5,11.9833,14.5z" id="b" fill="#F5F5F5"/>
    <path d="M11.9833,15H4.0167C2.9047,15,2,14.0953,2,12.9833V3.0167C2,1.9047,2.9047,1,4.0167,1h7.9667C13.0953,1,14,1.9047,14,3.0167v9.9667C14,14.0953,13.0953,15,11.9833,15zM4.0167,2C3.4561,2,3,2.4561,3,3.0167v9.9667C3,13.5439,3.4561,14,4.0167,14h7.9667c0.5606,0,1.0167,-0.4561,1.0167,-1.0167V3.0167C13,2.4561,12.5439,2,11.9833,2H4.0167z" id="c1" fill="#404040"/>
    <path d="M11.5,8H4.5c-0.2761,0,-0.5,-0.2239,-0.5,-0.5s0.2239,-0.5,0.5,-0.5h7c0.2761,0,0.5,0.2239,0.5,0.5S11.7761,8,11.5,8zM5.5,6H4.5c-0.2761,0,-0.5,-0.2239,-0.5,-0.5s0.2239,-0.5,0.5,-0.5h1c0.2761,0,0.5,0.2239,0.5,0.5S5.7761,6,5.5,6zM5.5,4H4.5c-0.2761,0,-0.5,-0.2239,-0.5,-0.5s0.2239,-0.5,0.5,-0.5h1c0.2761,0,0.5,0.2239,0.5,0.5S5.7761,4,5.5,4z" id="c2" fill="#404040" opacity="0.3"/>
    <path d="M10.9917,6H8.0083C7.4523,6,7,5.5477,7,4.9917v-0.9833C7,3.4523,7.4523,3,8.0083,3h2.9833C11.5477,3,12,3.4523,12,4.0083v0.9833C12,5.5477,11.5477,6,10.9917,6zM8.0083,4C8.0038,4,8,4.0038,8,4.0083v0.9833C8,4.9962,8.0038,5,8.0083,5h2.9833c0.0046,0,0.0083,-0.0038,0.0083,-0.0083v-0.9833c0,-0.0046,-0.0038,-0.0083,-0.0083,-0.0083H8.0083z" id="c2" fill="#404040"/>
    <path d="M10.9917,13H5.0083C4.4523,13,4,12.5477,4,11.9917v-1.9833C4,9.4523,4.4523,9,5.0083,9h5.9833c0.556,0,1.0083,0.4523,1.0083,1.0083v1.9833C12,12.5477,11.5477,13,10.9917,13zM5.0083,10c-0.0046,0,-0.0083,0.0038,-0.0083,0.0083v1.9833c0,0.0046,0.0038,0.0083,0.0083,0.0083h5.9833c0.0046,0,0.0083,-0.0038,0.0083,-0.0083v-1.9833c0,-0.0046,-0.0038,-0.0083,-0.0083,-0.0083H5.0083z" id="c2" fill="#404040"/>
  </g>
</svg>
