<?xml version="1.0" encoding="UTF-8"?>
<!DOCTYPE svg PUBLIC "-//W3C//DTD SVG 1.1//EN" "http://www.w3.org/Graphics/SVG/1.1/DTD/svg11.dtd">
<svg version="1.1" id="Layer_1" xmlns="http://www.w3.org/2000/svg" xmlns:xlink="http://www.w3.org/1999/xlink" x="0px" y="0px" width="16px" height="16px" viewBox="0 0 16 16" enable-background="new 0 0 16 16" xml:space="preserve">
  <g id="main">
    <g id="icon">
      <path d="M1.5,11.5L6,11.5L6.029,10.94L6.112,10.39L6.248,9.866L6.433,9.361L6.665,8.88L6.941,8.427L7.257,8.004L7.613,7.613L7.737,7.5L1.5,7.5zz" fill="#F5F5F5"/>
      <path d="M1.57,7.073L1.273,7.273L1.073,7.57L1,7.933L1,11.07L1.073,11.43L1.273,11.73L1.57,11.93L1.933,12L6.031,12L6,11.5L6.025,11L2,11L2,8L7.261,8L7.613,7.613L8.004,7.257L8.348,7L1.933,7zz" fill="#404040"/>
      <path d="M3.178,1.762L2.929,1.929L2.762,2.178L2.7,2.483L2.7,6L11.5,6L12.3,6L12.3,3.8L10.25,1.7L3.483,1.7zM2.7,13.52L2.762,13.82L2.929,14.07L3.178,14.24L3.483,14.3L6.779,14.3L6.641,14.07L6.368,13.48L6.216,13L2.7,13zz" fill="#F5F5F5"/>
      <path d="M3.597,1.041L3.221,1.157L2.882,1.342L2.586,1.586L2.342,1.882L2.157,2.221L2.041,2.597L2,3L2,6L3,6L3,3L3.079,2.611L3.293,2.293L3.611,2.079L4,2L9,2L9,3.5L9.03,3.802L9.118,4.084L9.256,4.339L9.439,4.561L9.661,4.744L9.916,4.882L10.2,4.97L10.5,5L12,5L12,6L13,6L13,4.414L12.97,4.12L12.89,3.84L12.75,3.582L12.56,3.354L10.65,1.439L10.42,1.252L10.16,1.114L9.88,1.029L9.586,1L4,1zM11.79,4L10.5,4L10.31,3.961L10.15,3.854L10.04,3.695L10,3.5L10,2.207zM2.041,13.4L2.157,13.78L2.342,14.12L2.586,14.41L2.882,14.66L3.221,14.84L3.597,14.96L4,15L7.272,15L6.98,14.63L6.641,14.07L6.607,14L4,14L3.611,13.92L3.293,13.71L3.079,13.39L3,13L2,13zz" fill="#404040"/>
      <path d="M4.305,9.039L4.146,9.146L4.039,9.305L4,9.5L4.039,9.695L4.146,9.854L4.305,9.961L4.5,10L6.213,10L6.248,9.866L6.433,9.361L6.607,9L4.5,9zz" fill="#404040"/>
    </g>
    <g id="overlay">
      <circle cx="11.5" cy="11.5" r="4" id="b" fill="#FFFFFF"/>
      <path d="M11.5,7c-2.4853,0,-4.5,2.0147,-4.5,4.5c0,2.4853,2.0147,4.5,4.5,4.5c2.4853,0,4.5,-2.0147,4.5,-4.5C16,9.0147,13.9853,7,11.5,7zM11.5,15c-1.933,0,-3.5,-1.567,-3.5,-3.5s1.567,-3.5,3.5,-3.5s3.5,1.567,3.5,3.5S13.433,15,11.5,15z" id="c3" fill="#059669"/>
      <path d="M13.5,11h-1.5V9.5c0,-0.2761,-0.2239,-0.5,-0.5,-0.5s-0.5,0.2239,-0.5,0.5v1.5H9.5c-0.2761,0,-0.5,0.2239,-0.5,0.5s0.2239,0.5,0.5,0.5h1.5v1.5c0,0.2761,0.2239,0.5,0.5,0.5s0.5,-0.2239,0.5,-0.5v-1.5h1.5c0.2761,0,0.5,-0.2239,0.5,-0.5S13.7761,11,13.5,11z" id="c3" fill="#059669"/>
    </g>
  </g>
</svg>
