<?xml version="1.0" encoding="UTF-8"?>
<!DOCTYPE svg PUBLIC "-//W3C//DTD SVG 1.1//EN" "http://www.w3.org/Graphics/SVG/1.1/DTD/svg11.dtd">
<svg version="1.1" id="Layer_1" xmlns="http://www.w3.org/2000/svg" xmlns:xlink="http://www.w3.org/1999/xlink" x="0px" y="0px" width="16px" height="16px" viewBox="0 0 16 16" enable-background="new 0 0 16 16" xml:space="preserve">
  <g id="icon">
    <path d="M10.15,11.258c-0.25,0.199,-0.563,0.309,-0.882,0.309c0,0,0,0,0,0c-0.782,0,-1.418,-0.636,-1.418,-1.417V8.507c-1.148,0.196,-2.36,0.801,-2.979,2.041l-0.727,1.453c-0.228,0.455,-0.684,0.738,-1.192,0.738c-0.358,0,-0.706,-0.146,-0.956,-0.401c-0.252,-0.257,-0.387,-0.598,-0.379,-0.96l0.033,-1.624C1.695,7.592,2.29,5.827,3.418,4.5H0.5v11h12V9.386L10.15,11.258z" fill="#FFFFFF"/>
    <path d="M12,9.784V15H1V5h2.032c0.154,-0.221,0.32,-0.434,0.5,-0.634c0.113,-0.126,0.232,-0.248,0.355,-0.366H0v12h13V8.988L12,9.784z" fill="#383838"/>
    <path d="M16.029,5.042L9.05,0.039V2.87c-4.147,0.81,-6.12,3.014,-6.2,6.907l-0.033,1.624c-0.003,0.143,0.19,0.191,0.254,0.063l0.727,-1.453C4.84,7.926,7.162,7.136,9.05,7.242v2.908c0,0.182,0.21,0.283,0.352,0.17L16.029,5.042z" fill="#228BCB"/>
    <path d="M9.55,9.563l5.65,-4.5l-5.65,-4.05v2.275c-4.057,0.679,-6.12,2.617,-6.2,6.5c1.2,-2.4,3.95,-3.302,6.2,-3V9.563z" fill="#FFFFFF" stroke="#228BCB" stroke-width="1" stroke-miterlimit="50"/>
  </g>
</svg>
