<?xml version="1.0" encoding="UTF-8"?>
<!DOCTYPE svg PUBLIC "-//W3C//DTD SVG 1.1//EN" "http://www.w3.org/Graphics/SVG/1.1/DTD/svg11.dtd">
<svg version="1.1" id="Layer_1" xmlns="http://www.w3.org/2000/svg" xmlns:xlink="http://www.w3.org/1999/xlink" x="0px" y="0px" width="16px" height="16px" viewBox="0 0 16 16" enable-background="new 0 0 16 16" xml:space="preserve">
  <g id="icon">
    <path d="M12.853,15.5c-0.72,-0.038,-1.383,-0.21,-2.024,-0.478c-1.058,-0.442,-2.02,-1.055,-2.931,-1.753c-1.285,-0.984,-2.465,-2.088,-3.575,-3.271c-0.995,-1.061,-1.92,-2.179,-2.677,-3.431c-0.501,-0.829,-0.916,-1.702,-1.091,-2.669c-0.052,-0.289,-0.081,-0.604,-0.023,-0.885c0.049,-0.236,0.218,-0.459,0.373,-0.656C1.397,1.727,1.989,1.2,2.623,0.724C2.938,0.487,3.3,0.434,3.667,0.585c0.129,0.053,0.262,0.153,0.341,0.268c0.669,0.981,1.321,1.973,1.989,2.955c0.255,0.375,0.202,0.751,0.029,1.118c-0.212,0.45,-0.446,0.89,-0.691,1.323c-0.087,0.154,-0.073,0.257,0.036,0.378c0.641,0.708,1.256,1.443,1.926,2.12c0.574,0.581,1.206,1.103,1.822,1.64c0.432,0.377,0.439,0.37,0.931,0.086c0.299,-0.172,0.591,-0.358,0.893,-0.524c0.302,-0.166,0.619,-0.283,0.97,-0.176c0.075,0.023,0.15,0.057,0.216,0.1c0.954,0.618,1.896,1.254,2.862,1.852c0.603,0.373,0.63,1.017,0.285,1.516c-0.481,0.695,-1.003,1.359,-1.661,1.895C13.384,15.325,13.139,15.489,12.853,15.5z" fill="#92CBEE" stroke="#0964B0" stroke-width="1" stroke-miterlimit="50"/>
  </g>
</svg>
