<?xml version="1.0" encoding="UTF-8"?>
<!DOCTYPE svg PUBLIC "-//W3C//DTD SVG 1.1//EN" "http://www.w3.org/Graphics/SVG/1.1/DTD/svg11.dtd">
<svg version="1.1" id="Layer_1" xmlns="http://www.w3.org/2000/svg" xmlns:xlink="http://www.w3.org/1999/xlink" x="0px" y="0px" width="16px" height="16px" viewBox="0 0 16 16" enable-background="new 0 0 16 16" xml:space="preserve">
  <g id="icon">
    <polygon points="15.5,15.5 5.5,15.5 5.5,3.5 11.507,3.5 15.5,7.493" fill="#FFFFFF" stroke="#383838" stroke-width="1" stroke-miterlimit="10" stroke-linejoin="miter"/>
    <polyline points="15.5,7.5 11.5,7.5 11.5,3.5" fill="none" stroke="#383838" stroke-width="1" stroke-miterlimit="10" stroke-linejoin="miter"/>
    <polygon points="4,2 8.007,2 6.507,0.5 0.5,0.5 0.5,12.5 4,12.5" fill="#FFFFFF" stroke-linejoin="miter"/>
    <polygon points="4,12 1,12 1,1 6,1 6,2 7,2 7,1.7 7.3,2 8.714,2 6.714,0 0,0 0,13 4,13" fill="#383838" stroke-linejoin="miter"/>
    <path d="M7.5,12.5h6M7.5,10.5h6M7.5,8.5h2.5M7.5,6.5h2.5" fill="none" stroke="#228BCB" stroke-width="1" stroke-miterlimit="10"/>
    <path d="M2.5,9.5h1.5M2.5,7.5h1.5M2.5,5.5h1.5M2.5,3.5h1.5" fill="none" stroke="#228BCB" stroke-width="1" stroke-miterlimit="10" opacity="0.5"/>
  </g>
</svg>
