<?xml version="1.0" encoding="UTF-8"?>
<!DOCTYPE svg PUBLIC "-//W3C//DTD SVG 1.1//EN" "http://www.w3.org/Graphics/SVG/1.1/DTD/svg11.dtd">
<svg version="1.1" id="Layer_1" xmlns="http://www.w3.org/2000/svg" xmlns:xlink="http://www.w3.org/1999/xlink" x="0px" y="0px" width="16px" height="16px" viewBox="0 0 16 16" enable-background="new 0 0 16 16" xml:space="preserve">
  <g id="icon">
    <path d="M6.825,15.496c-0.451,0,-0.814,0.031,-1.165,-0.059c-0.475,-0.122,-0.287,-0.61,-0.435,-0.978c-0.22,-0.545,-1.214,-0.228,-1.648,-0.185c-0.53,0.053,-1.257,0.138,-1.632,-0.321c-0.395,-0.484,-0.055,-0.979,0.045,-1.481c0.073,-0.367,-0.269,-0.389,-0.434,-0.631c-0.174,-0.255,0.51,-0.35,0.51,-0.46c0,-0.109,-0.647,-0.255,-0.533,-0.831c0.104,-0.526,-0.782,-0.403,-0.996,-0.766c-0.236,-0.4,0.695,-1.407,0.909,-1.727c0.178,-0.267,0.483,-0.577,0.571,-0.886c0.043,-0.151,-0.144,-0.259,-0.187,-0.401c-0.063,-0.207,-0.014,-0.424,0.031,-0.629c0.312,-1.427,0.81,-2.745,1.871,-3.836C4.841,1.166,6.359,0.687,7.953,0.542c2.87,-0.261,6.045,0.796,7.122,3.528c0.5,1.269,0.582,2.708,0.123,3.998c-0.223,0.628,-0.567,1.212,-0.991,1.737c-0.485,0.603,-1.285,1.051,-1.285,1.83c0,0.409,-0.066,0.289,0.073,0.862C13.716,15.455,7.215,15.496,6.825,15.496z" id="b" fill="#FFFFFF" stroke="#383838" stroke-width="1" stroke-miterlimit="10"/>
    <path d="M10.017,8.501H7.983c-0.267,0,-0.483,-0.216,-0.483,-0.483V5.985c0,-0.267,0.216,-0.483,0.483,-0.483h2.033c0.267,0,0.483,0.216,0.483,0.483v2.033C10.5,8.285,10.284,8.501,10.017,8.501zM5,5.001v1.5h2.5M9,3.501v2M6,10.501h3v-2M10.5,7.501h2v-2.5" id="b" fill="#FFFFFF" stroke="#228BCB" stroke-width="1" stroke-miterlimit="10"/>
    <path d="M6,4.501c0,0.552,-0.448,1,-1,1s-1,-0.448,-1,-1s0.448,-1,1,-1S6,3.949,6,4.501zM9,2.001c-0.552,0,-1,0.448,-1,1s0.448,1,1,1s1,-0.448,1,-1S9.552,2.001,9,2.001zM12.5,4.001c-0.552,0,-1,0.448,-1,1s0.448,1,1,1c0.552,0,1,-0.448,1,-1S13.052,4.001,12.5,4.001zM6,9.501c-0.552,0,-1,0.448,-1,1c0,0.552,0.448,1,1,1s1,-0.448,1,-1C7,9.949,6.552,9.501,6,9.501z" fill="#238BCB"/>
  </g>
</svg>
