<?xml version="1.0" encoding="UTF-8"?>
<!DOCTYPE svg PUBLIC "-//W3C//DTD SVG 1.1//EN" "http://www.w3.org/Graphics/SVG/1.1/DTD/svg11.dtd">
<svg version="1.1" id="Layer_1" xmlns="http://www.w3.org/2000/svg" xmlns:xlink="http://www.w3.org/1999/xlink" x="0px" y="0px" width="16px" height="16px" viewBox="0 0 16 16" enable-background="new 0 0 16 16" xml:space="preserve">
  <g id="icon">
    <path d="M10.728,15.484c-0.618,-0.189,-1.159,-0.483,-1.659,-0.852c-0.826,-0.61,-1.531,-1.346,-2.174,-2.143c-0.907,-1.124,-1.697,-2.329,-2.408,-3.586C3.85,7.776,3.286,6.615,2.896,5.376c-0.258,-0.821,-0.431,-1.66,-0.375,-2.527c0.017,-0.259,0.059,-0.535,0.17,-0.764c0.093,-0.192,0.289,-0.345,0.466,-0.481C3.722,1.172,4.351,0.85,5.005,0.58c0.326,-0.134,0.652,-0.101,0.939,0.109c0.101,0.074,0.196,0.188,0.239,0.304c0.371,0.987,0.725,1.98,1.095,2.968c0.141,0.377,0.014,0.688,-0.216,0.965c-0.281,0.34,-0.58,0.666,-0.886,0.983c-0.109,0.113,-0.119,0.204,-0.05,0.332c0.405,0.747,0.783,1.511,1.22,2.239c0.375,0.623,0.813,1.209,1.233,1.804c0.295,0.417,0.303,0.413,0.792,0.278c0.297,-0.082,0.591,-0.177,0.89,-0.254c0.298,-0.076,0.599,-0.107,0.882,0.061c0.061,0.036,0.118,0.082,0.167,0.133c0.697,0.738,1.381,1.49,2.093,2.213c0.445,0.452,0.33,1.01,-0.078,1.362c-0.568,0.491,-1.165,0.946,-1.854,1.261C11.229,15.45,10.98,15.537,10.728,15.484z" fill="#9ADAF1" stroke="#0C4C63" stroke-width="1" stroke-miterlimit="10"/>
  </g>
</svg>
