<?xml version="1.0" encoding="UTF-8"?>
<!DOCTYPE svg PUBLIC "-//W3C//DTD SVG 1.1//EN" "http://www.w3.org/Graphics/SVG/1.1/DTD/svg11.dtd">
<svg version="1.1" id="Layer_1" xmlns="http://www.w3.org/2000/svg" xmlns:xlink="http://www.w3.org/1999/xlink" x="0px" y="0px" width="16px" height="16px" viewBox="0 0 16 16" enable-background="new 0 0 16 16" xml:space="preserve">
  <g id="icon">
    <path d="M0.5,4.5v10h15V4.5H0.5z" fill="#FFFFFF" stroke="#383838" stroke-width="1" stroke-miterlimit="50"/>
    <rect x="0.5" y="1.5" width="15" height="3" fill="#C8C6C4" stroke="#383838" stroke-width="1" stroke-linecap="round" stroke-miterlimit="50"/>
    <path d="M3.5,0v3M12.5,0v3" fill="none" stroke="#383838" stroke-width="1" stroke-miterlimit="50"/>
    <path d="M6.5,12.5H2.5v-2h4V12.5zM10.5,10.5H6.5v2h4V10.5zM13.5,10.5h-3v2h3V10.5zM6.5,8.5H2.5v2h4V8.5zM10.5,8.5H6.5v2h4V8.5zM13.5,8.5h-3v2h3V8.5zM10.5,6.5H6.5v2h4V6.5zM13.5,6.5h-3v2h3V6.5z" fill="none" stroke="#787979" stroke-width="1" stroke-miterlimit="50" opacity="0.5"/>
	<text x="3" y="13" font-family="Arial, Helvetica, sans-serif" font-weight="bold" font-size="9" fill="#DB2E2A">60</text>
  </g>
</svg>