<?xml version="1.0" encoding="UTF-8"?>
<!DOCTYPE svg PUBLIC "-//W3C//DTD SVG 1.1//EN" "http://www.w3.org/Graphics/SVG/1.1/DTD/svg11.dtd">
<svg version="1.1" id="Layer_1" xmlns="http://www.w3.org/2000/svg" xmlns:xlink="http://www.w3.org/1999/xlink" x="0px" y="0px" width="16px" height="16px" viewBox="0 0 16 16" enable-background="new 0 0 16 16" xml:space="preserve">
  <g id="main">
    <g id="icon">
      <path d="M0.5,14.5L6.8,14.5L6.8,12.2L6.8,8.8L6.8,6.8L13.5,6.8L13.5,0.5L0.5,0.5zz" fill="#FFFFFF"/>
      <path d="M0,0.5L0,14.5L0,15L0.5,15L6.8,15L6.8,14L1,14L1,1L13,1L13,6.8L14,6.8L14,0.5L14,0L13.5,0L0.5,0L0,0zz" fill="#383838"/>
      <path d="M2.5,3.5L11.5,3.5L11.5,2.5L2.5,2.5zz" fill="#FFFFFF"/>
      <path d="M2,2.5L2,3.5L2,4L2.5,4L11.5,4L12,4L12,3.5L12,2.5L12,2L11.5,2L2.5,2L2,2zz" fill="#ED8730"/>
      <path d="M2,5.5L2,9.5L2,10L2.5,10L6.8,10L6.8,9L3,9L3,6L11,6L11,6.8L12,6.8L12,5.5L12,5L11.5,5L2.5,5L2,5zz" fill="#787979" opacity="0.6"/>
      <path d="M8,6.8L9,6.8L9,6L8,6zM3,8L6.8,8L6.8,7L3,7zz" fill="#787979" opacity="0.3"/>
    </g>
    <g id="overlay">
      <rect x="8.5" y="10.5" width="7" height="5" fill="#FFFFFF" stroke="#0964B0" stroke-width="1" stroke-miterlimit="10"/>
      <rect x="8.5" y="8.5" width="7" height="2" fill="#92CBEE" stroke="#0964B0" stroke-width="1" stroke-miterlimit="10"/>
    </g>
  </g>
</svg>
