<?xml version="1.0" encoding="UTF-8"?>
<!DOCTYPE svg PUBLIC "-//W3C//DTD SVG 1.1//EN" "http://www.w3.org/Graphics/SVG/1.1/DTD/svg11.dtd">
<svg version="1.1" id="Layer_1" xmlns="http://www.w3.org/2000/svg" xmlns:xlink="http://www.w3.org/1999/xlink" x="0px" y="0px" width="16px" height="16px" viewBox="0 0 16 16" enable-background="new 0 0 16 16" xml:space="preserve">
  <g id="main">
    <g id="icon">
      <path d="M1.5,5.984L2.434,5.847L3.5,5.8L4.326,5.863L5.152,6.03L5.943,6.267L6.665,6.538L7.771,7.045L8.2,7.275L8.2,9.5L15.5,9.5L15.5,2.5L1.5,2.5zz" fill="#FFFFFF"/>
      <path d="M1,2.5L1,6.122L1.49,5.986L2,5.911L2,3L15,3L15,9L8.2,9L8.2,10L15.5,10L16,10L16,9.5L16,2.5L16,2L15.5,2L1.5,2L1,2zz" fill="#383838"/>
      <path d="M3.619,5.809L4.326,5.863L5.152,6.03L5.404,6.106L5.404,4.05zM11.53,7.85L13.6,6L11.53,4.05zz" fill="#FFFFFF"/>
      <path d="M11.19,4.414L12.86,5.99L11.2,7.477L11.87,8.223L13.93,6.373L14.34,6.01L13.94,5.636L11.88,3.686zM3.074,5.644L2.888,5.827L3.5,5.8L4.28,5.86L5.755,4.406L5.053,3.694zz" fill="#228BCB"/>
    </g>
    <g id="overlay">
      <path d="M6.5,8.475v5.646C6.5,14.882,5.157,15.5,3.5,15.5s-3,-0.618,-3,-1.379V8.475" fill="#F7DA8E" stroke="#E57428" stroke-width="1" stroke-linecap="round" stroke-miterlimit="10"/>
      <ellipse cx="3.5" cy="8.42" rx="3" ry="0.92" fill="#F7DA8E" stroke="#E57428" stroke-width="1" stroke-linecap="round" stroke-miterlimit="10"/>
    </g>
  </g>
</svg>
