<?xml version="1.0" encoding="UTF-8"?>
<!DOCTYPE svg PUBLIC "-//W3C//DTD SVG 1.1//EN" "http://www.w3.org/Graphics/SVG/1.1/DTD/svg11.dtd">
<svg version="1.1" id="Layer_1" xmlns="http://www.w3.org/2000/svg" xmlns:xlink="http://www.w3.org/1999/xlink" x="0px" y="0px" width="16px" height="16px" viewBox="0 0 16 16" enable-background="new 0 0 16 16" xml:space="preserve">
  <g id="icon">
    <path d="M3.5,2.5v1.815C4.13,4.111,4.802,4,5.5,4c3.59,0,6.5,2.91,6.5,6.5c0,0.34,-0.026,0.674,-0.077,1H15.5V2.5H3.5z" fill="#FFFFFF"/>
    <path d="M3,2v2.499c0.321,-0.134,0.655,-0.242,1,-0.323V3h11v8h-3.021c-0.026,0.341,-0.078,0.675,-0.155,1H16V2H3z" fill="#383838"/>
    <path d="M11.979,11c0.013,-0.165,0.021,-0.332,0.021,-0.5v0.5H11.979zM8,4.499V3H7v1.176C7.345,4.257,7.679,4.365,8,4.499zM15,6V5h-3V3h-1v2H8.962c0.449,0.283,0.86,0.619,1.225,1H11v1.038c0.633,1.003,1,2.189,1,3.462V9h3V8h-3V6H15z" fill="#787979" opacity="0.5"/>
    <rect x="3.5" y="0.5" width="12" height="2" fill="#FFFFFF" stroke="#228BCB" stroke-width="1" stroke-miterlimit="10"/>
    <path d="M0.5,10.5c0,-2.761,2.239,-5,5,-5s5,2.239,5,5s-2.239,5,-5,5S0.5,13.261,0.5,10.5zM2.45,14.462M8.575,14.443" fill="#FFFFFF" stroke="#383838" stroke-width="1" stroke-miterlimit="10"/>
    <path d="M5.5,6.699v3.8l3.25,-0.003" fill="none" stroke="#228BCB" stroke-width="1" stroke-miterlimit="10"/>
  </g>
</svg>
