<?xml version="1.0" encoding="UTF-8"?>
<!DOCTYPE svg PUBLIC "-//W3C//DTD SVG 1.1//EN" "http://www.w3.org/Graphics/SVG/1.1/DTD/svg11.dtd">
<svg version="1.1" id="Layer_1" xmlns="http://www.w3.org/2000/svg" xmlns:xlink="http://www.w3.org/1999/xlink" x="0px" y="0px" width="16px" height="16px" viewBox="0 0 16 16" enable-background="new 0 0 16 16" xml:space="preserve">
  <g id="main">
    <g id="icon">
      <path d="M1.5,6.791L1.833,6.501L2.494,6.123L3.228,5.884L4.018,5.8L4.785,5.879L5.5,6.104L6.147,6.46L6.711,6.932L7.177,7.504L7.529,8.16L7.751,8.884L7.829,9.661L7.797,10.17L7.734,10.5L15.5,10.5L15.5,1.5L1.5,1.5zz" fill="#FFFFFF"/>
      <path d="M1,1.5L1,7L1.261,7L1.833,6.501L2,6.405L2,2L15,2L15,10L7.808,10L7.797,10.17L7.703,10.66L7.594,11L15.5,11L16,11L16,10.5L16,1.5L16,1L15.5,1L1.5,1L1,1zz" fill="#383838"/>
      <path d="M8.5,10.5L15.5,10.5L15.5,1.5L8.5,1.5zz" fill="#92CBEE"/>
      <path d="M8,1.5L8,10.5L8,11L8.5,11L15.5,11L16,11L16,10.5L16,1.5L16,1L15.5,1L8.5,1L8,1zM15,2L15,10L9,10L9,2zz" fill="#0964B0"/>
      <path d="M9.586,4.977L11.63,7.026L12.02,7.415L12.41,7.026L14.44,4.999L13.66,4.221L12.02,5.859L10.36,4.199zz" fill="#0964B0"/>
      <path d="M5.881,3.035L5.553,3.138L5.257,3.3L5,3.515L4.743,3.301L4.446,3.139L4.119,3.036L3.767,3L3.267,3L3.078,3.078L3,3.267L3,3.734L3.078,3.923L3.267,4.001L3.767,4.001L4.052,4.059L4.285,4.216L4.442,4.449L4.5,4.734L4.5,5.849L4.785,5.879L5.5,6.104L5.5,6.104L5.5,4.733L5.558,4.448L5.715,4.215L5.948,4.058L6.233,4L6.733,4L6.922,3.922L7,3.733L7,3.266L6.922,3.077L6.733,2.999L6.233,2.999zz" fill="#78797A"/>
    </g>
    <g id="overlay">
      <path d="M6.128,9.661c0,1.193,-0.945,2.216,-2.111,2.216s-2.111,-1.022,-2.111,-2.216S2.852,7.5,4.018,7.5S6.128,8.468,6.128,9.661zM7.534,16c0,-2.086,-1.615,-4.108,-3.503,-4.108S0.5,13.914,0.5,16" fill="#FFFFFF" stroke="#228BCB" stroke-width="1" stroke-miterlimit="10"/>
    </g>
  </g>
</svg>
