<?xml version="1.0" encoding="UTF-8"?>
<!DOCTYPE svg PUBLIC "-//W3C//DTD SVG 1.1//EN" "http://www.w3.org/Graphics/SVG/1.1/DTD/svg11.dtd">
<svg version="1.1" id="Layer_1" xmlns="http://www.w3.org/2000/svg" xmlns:xlink="http://www.w3.org/1999/xlink" x="0px" y="0px" width="16px" height="16px" viewBox="0 0 16 16" enable-background="new 0 0 16 16" xml:space="preserve">
  <g id="main">
    <g id="icon">
      <path d="M0.5,10.5L5.894,10.5L5.916,10.35L6.057,9.807L6.249,9.283L6.489,8.785L6.775,8.315L7.103,7.876L7.471,7.471L7.876,7.103L8.315,6.775L8.785,6.489L9.283,6.249L9.807,6.057L10.35,5.916L10.92,5.829L11.5,5.8L12.18,5.84L12.83,5.956L13.45,6.145L14.04,6.401L14.5,6.663L14.5,1.5L0.5,1.5zz" fill="#FFFFFF"/>
      <path d="M0,1.5L0,10.5L0,11L0.5,11L5.825,11L5.829,10.92L5.916,10.35L6.007,10L1,10L1,2L14,2L14,6.382L14.04,6.401L14.6,6.72L15,7.014L15,1.5L15,1L14.5,1L0.5,1L0,1zz" fill="#383838"/>
      <path d="M10.38,3.035L10.05,3.138L9.757,3.3L9.5,3.515L9.243,3.301L8.946,3.139L8.619,3.036L8.267,3L7.767,3L7.578,3.078L7.5,3.267L7.5,3.734L7.578,3.923L7.767,4.001L8.267,4.001L8.552,4.059L8.785,4.216L8.942,4.449L9,4.734L9,6.385L9.283,6.249L9.807,6.057L10,6.007L10,4.733L10.06,4.448L10.21,4.215L10.45,4.058L10.73,4L11.23,4L11.42,3.922L11.5,3.733L11.5,3.266L11.42,3.077L11.23,2.999L10.73,2.999zz" fill="#78797A"/>
      <path d="M2,8.5L6,8.5L6,3.5L2,3.5zz" fill="#C8C6C4"/>
    </g>
    <g id="overlay">
      <path d="M11.5,7.5c2.209,0,4,1.791,4,4s-1.791,4,-4,4s-4,-1.791,-4,-4S9.291,7.5,11.5,7.5z" fill="#FFFFFF" stroke="#EE3D3B" stroke-width="1" stroke-miterlimit="10"/>
      <path d="M11.5,9.5c-0.946,0,-1.111,0.895,-1.111,2s0.165,2,1.111,2c0.946,0,1.111,-0.895,1.111,-2S12.446,9.5,11.5,9.5z" fill="#FFFFFF" stroke="#EE3D3B" stroke-width="1" stroke-miterlimit="10"/>
    </g>
  </g>
</svg>
