<?xml version="1.0" encoding="UTF-8"?>
<!DOCTYPE svg PUBLIC "-//W3C//DTD SVG 1.1//EN" "http://www.w3.org/Graphics/SVG/1.1/DTD/svg11.dtd">
<svg version="1.1" id="Layer_1" xmlns="http://www.w3.org/2000/svg" xmlns:xlink="http://www.w3.org/1999/xlink" x="0px" y="0px" width="16px" height="16px" viewBox="0 0 16 16" enable-background="new 0 0 16 16" xml:space="preserve">
  <g id="main">
    <g id="icon">
      <path d="M0.5,10.5L5.894,10.5L5.916,10.35L6.057,9.807L6.249,9.283L6.489,8.785L6.775,8.315L7.103,7.876L7.471,7.471L7.876,7.103L8.315,6.775L8.785,6.489L9.283,6.249L9.807,6.057L10.35,5.916L10.92,5.829L11.5,5.8L12.18,5.84L12.83,5.956L13.45,6.145L14.04,6.401L14.5,6.663L14.5,1.5L0.5,1.5zz" fill="#FFFFFF"/>
      <path d="M0,1.5L0,10.5L0,11L0.5,11L5.825,11L5.829,10.92L5.916,10.35L6.007,10L1,10L1,2L14,2L14,6.382L14.04,6.401L14.6,6.72L15,7.014L15,1.5L15,1L14.5,1L0.5,1L0,1zz" fill="#383838"/>
      <path d="M7.5,7.445L7.876,7.103L8.315,6.775L8.785,6.489L9.283,6.249L9.807,6.057L10.35,5.916L10.92,5.829L11.5,5.8L12.18,5.84L12.83,5.956L13.45,6.145L14.04,6.401L14.5,6.663L14.5,1.5L7.5,1.5zz" fill="#92CBEE"/>
      <path d="M7,1.5L7,8.014L7.103,7.876L7.471,7.471L7.876,7.103L8,7.011L8,2L14,2L14,6.382L14.04,6.401L14.6,6.72L15,7.014L15,1.5L15,1L14.5,1L7.5,1L7,1zz" fill="#0964B0"/>
      <path d="M8.586,4.977L9.703,6.095L9.807,6.057L10.35,5.916L10.92,5.829L10.99,5.826L9.364,4.199zM11.06,5.822L11.5,5.8L12.18,5.84L12.53,5.904L13.44,4.999L12.66,4.221zz" fill="#0964B0"/>
      <path d="M4.881,3.035L4.553,3.138L4.257,3.3L4,3.515L3.743,3.301L3.446,3.139L3.119,3.036L2.767,3L2.267,3L2.078,3.078L2,3.267L2,3.734L2.078,3.923L2.267,4.001L2.767,4.001L3.052,4.059L3.285,4.216L3.442,4.449L3.5,4.734L3.5,7.267L3.442,7.552L3.285,7.785L3.052,7.942L2.767,8L2.267,8L2.078,8.078L2,8.267L2,8.734L2.078,8.923L2.267,9.001L2.767,9.001L3.119,8.965L3.447,8.862L3.743,8.7L4,8.485L4.257,8.699L4.554,8.861L4.881,8.964L5.233,9L5.733,9L5.922,8.922L6,8.733L6,8.266L5.922,8.077L5.733,7.999L5.233,7.999L4.948,7.942L4.715,7.785L4.558,7.552L4.5,7.267L4.5,4.733L4.558,4.448L4.715,4.215L4.948,4.058L5.233,4L5.733,4L5.922,3.922L6,3.733L6,3.266L5.922,3.077L5.733,2.999L5.233,2.999zz" fill="#78797A"/>
    </g>
    <g id="overlay">
      <circle cx="11.5" cy="11.5" r="4" fill="#FFFFFF" stroke="#EE3D3B" stroke-width="1" stroke-miterlimit="10"/>
      <path d="M10.101,10.845L11.469,9.5h0.036v4.567" fill="#FFFFFF" stroke="#EE3D3B" stroke-width="1" stroke-miterlimit="10"/>
    </g>
  </g>
</svg>
