<?xml version="1.0" encoding="UTF-8"?>
<!DOCTYPE svg PUBLIC "-//W3C//DTD SVG 1.1//EN" "http://www.w3.org/Graphics/SVG/1.1/DTD/svg11.dtd">
<svg version="1.1" id="Layer_1" xmlns="http://www.w3.org/2000/svg" xmlns:xlink="http://www.w3.org/1999/xlink" x="0px" y="0px" width="16px" height="16px" viewBox="0 0 16 16" enable-background="new 0 0 16 16" xml:space="preserve">
  <g id="main">
    <g id="icon">
      <path d="M8.604,2.8L10.2,2.8L10.2,6.2L8.604,6.2L9.432,7.028L7.504,8.957L7.591,8.966L8.327,8.887L9.013,8.662L9.634,8.307L10.17,7.839L10.62,7.277L10.96,6.636L11.17,5.933L11.24,5.186L11.17,4.443L10.96,3.751L10.62,3.125L10.18,2.579L9.634,2.129L9.403,2.003zM6.2,8.672L6.301,8.705L6.2,8.604zM7.46,9.001L7.028,9.433L6.688,9.093L6.412,9.146L6.2,9.215L6.2,10.2L4.338,10.2L4.242,10.27L3.769,10.69L3.331,11.16L2.931,11.67L2.572,12.22L2.259,12.8L1.996,13.4L1.784,14.03L1.629,14.68L1.533,15.33L1.5,16L13.68,16L13.65,15.33L13.55,14.68L13.4,14.03L13.19,13.4L12.93,12.8L12.62,12.22L12.27,11.67L11.87,11.16L11.44,10.69L10.97,10.27L10.47,9.9L9.941,9.586L9.388,9.333L8.813,9.146L8.221,9.031L7.614,8.991zz" fill="#FFFFFF"/>
      <path d="M9.433,1.972L9.034,2.371L9.352,2.545L9.658,2.8L10.2,2.8L10.2,3.4L10.2,3.404L10.49,3.945L10.68,4.542L10.74,5.186L10.68,5.834L10.49,6.445L10.2,7.003L9.812,7.492L9.344,7.897L8.808,8.203L8.222,8.395L8.046,8.414L7.028,9.433L6.2,8.604L6.2,9.74L6.538,9.631L7.072,9.527L7.614,9.492L8.157,9.527L8.688,9.631L9.206,9.799L9.709,10.03L10.19,10.32L10.65,10.66L11.09,11.05L11.49,11.48L11.86,11.96L12.19,12.47L12.48,13.01L12.72,13.58L12.92,14.17L13.06,14.77L13.15,15.38L13.16,15.5L2.025,15.5L2.031,15.38L2.12,14.77L2.265,14.17L2.462,13.58L2.709,13.02L3.002,12.48L3.337,11.96L3.71,11.49L4.12,11.05L4.558,10.66L5.022,10.32L5.222,10.2L3.57,10.2L3.437,10.32L3.42,10.33L3.404,10.35L2.966,10.82L2.951,10.84L2.937,10.85L2.537,11.36L2.524,11.38L2.512,11.4L2.154,11.94L2.142,11.96L2.132,11.98L1.82,12.56L1.809,12.58L1.801,12.6L1.537,13.2L1.529,13.22L1.522,13.24L1.31,13.87L1.303,13.89L1.298,13.91L1.143,14.56L1.137,14.58L1.134,14.6L1.038,15.26L1.035,15.29L1.033,15.31L1.001,15.98L0.9994,16L14.18,16L14.18,15.98L14.15,15.31L14.15,15.29L14.14,15.26L14.05,14.61L14.05,14.58L14.04,14.56L13.89,13.92L13.88,13.89L13.88,13.87L13.67,13.25L13.66,13.23L13.65,13.21L13.39,12.6L13.38,12.58L13.37,12.56L13.06,11.98L13.05,11.96L13.04,11.95L12.69,11.4L12.68,11.38L12.66,11.36L12.27,10.85L12.25,10.84L12.24,10.82L11.81,10.35L11.79,10.34L11.77,10.32L11.3,9.899L11.29,9.883L11.27,9.868L10.77,9.498L10.75,9.483L10.73,9.47L10.2,9.156L10.17,9.142L10.15,9.131L9.621,8.89L9.882,8.741L9.924,8.717L9.961,8.685L10.5,8.218L10.54,8.187L10.57,8.15L11.01,7.587L11.04,7.551L11.06,7.509L11.4,6.868L11.42,6.826L11.44,6.781L11.65,6.078L11.66,6.031L11.67,5.982L11.74,5.235L11.75,5.186L11.74,5.136L11.67,4.393L11.66,4.344L11.65,4.296L11.44,3.604L11.42,3.557L11.4,3.514L11.06,2.888L11.04,2.846L11.01,2.808L10.56,2.263L10.53,2.226L10.49,2.195L9.954,1.745L9.917,1.714L9.874,1.691L9.254,1.351L9.21,1.327L9.163,1.312L8.596,1.135zz" fill="#228BCB"/>
    </g>
    <g id="overlay">
      <path d="M4.5,0v9M9,4.5H0M7.382,1.618L1.618,7.382M7.382,7.382L1.618,1.618" fill="none" stroke="#ED8730" stroke-width="1" stroke-miterlimit="10"/>
    </g>
  </g>
</svg>
