<?xml version="1.0" encoding="UTF-8"?>
<!DOCTYPE svg PUBLIC "-//W3C//DTD SVG 1.1//EN" "http://www.w3.org/Graphics/SVG/1.1/DTD/svg11.dtd">
<svg version="1.1" id="Layer_1" xmlns="http://www.w3.org/2000/svg" xmlns:xlink="http://www.w3.org/1999/xlink" x="0px" y="0px" width="16px" height="16px" viewBox="0 0 16 16" enable-background="new 0 0 16 16" xml:space="preserve">
  <g id="main">
    <g id="icon">
      <path d="M3.367,1.539L2.931,1.675L2.536,1.889L2.192,2.172L1.909,2.516L1.695,2.911L1.559,3.347L1.512,3.815L1.512,6.781L1.833,6.501L2.494,6.123L3.228,5.884L4.018,5.8L4.785,5.879L5.5,6.104L6.147,6.46L6.5,6.755L6.5,1.492L3.835,1.492zz" fill="#FFFFFF"/>
      <path d="M3.263,1.058L2.731,1.223L2.25,1.484L1.83,1.83L1.484,2.25L1.223,2.731L1.058,3.263L1,3.835L1,7L1.261,7L1.833,6.501L2,6.405L2,3.811L2.037,3.446L2.142,3.106L2.309,2.799L2.53,2.53L2.799,2.309L3.106,2.142L3.446,2.037L3.811,2L6.6,2L6.6,1L3.835,1zz" fill="#383838"/>
      <path d="M6.5,6.755L6.711,6.932L7.177,7.504L7.529,8.16L7.751,8.884L7.829,9.661L7.797,10.17L7.703,10.66L7.55,11.14L7.339,11.58L7.797,12.07L8.098,12.51L13.17,12.51L13.63,12.46L14.07,12.33L14.46,12.11L14.81,11.83L15.09,11.48L15.31,11.09L15.44,10.65L15.49,10.18L15.49,3.815L15.44,3.347L15.31,2.911L15.09,2.516L14.81,2.172L14.46,1.889L14.07,1.675L13.63,1.539L13.17,1.492L6.5,1.492zz" fill="#FFFFFF"/>
      <path d="M7.953,6.204L10.66,8.912L11.05,9.301L11.44,8.912L14.11,6.238L13.34,5.46L11.05,7.745L8.731,5.426zz" fill="#228BCB"/>
      <path d="M6,6.379L6.147,6.46L6.711,6.932L7,7.286L7,2L13.19,2L13.55,2.037L13.89,2.142L14.2,2.309L14.47,2.53L14.69,2.799L14.86,3.106L14.96,3.446L15,3.811L15,10.19L14.96,10.55L14.86,10.89L14.69,11.2L14.47,11.47L14.2,11.69L13.89,11.86L13.55,11.96L13.19,12L7.728,12L7.797,12.07L8.407,12.95L8.429,13L13.17,13L13.74,12.94L14.27,12.78L14.75,12.52L15.17,12.17L15.52,11.75L15.78,11.27L15.94,10.74L16,10.17L16,3.835L15.94,3.263L15.78,2.731L15.52,2.25L15.17,1.83L14.75,1.484L14.27,1.223L13.74,1.058L13.17,1L6,1zz" fill="#238BCB"/>
    </g>
    <g id="overlay">
      <path d="M6.128,9.661c0,1.193,-0.945,2.216,-2.111,2.216s-2.111,-1.022,-2.111,-2.216S2.852,7.5,4.018,7.5S6.128,8.468,6.128,9.661zM7.534,16c0,-2.086,-1.615,-4.108,-3.503,-4.108S0.5,13.914,0.5,16" fill="#92CBEE" stroke="#0964B0" stroke-width="1" stroke-miterlimit="10"/>
    </g>
  </g>
</svg>
