<?xml version="1.0" encoding="UTF-8"?>
<!DOCTYPE svg PUBLIC "-//W3C//DTD SVG 1.1//EN" "http://www.w3.org/Graphics/SVG/1.1/DTD/svg11.dtd">
<svg version="1.1" id="Layer_1" xmlns="http://www.w3.org/2000/svg" xmlns:xlink="http://www.w3.org/1999/xlink" x="0px" y="0px" width="16px" height="16px" viewBox="0 0 16 16" enable-background="new 0 0 16 16" xml:space="preserve">
  <g id="main">
    <g id="icon">
      <path d="M1.5,5.984L2.434,5.847L3.5,5.8L4.326,5.863L5.152,6.03L5.943,6.267L6.665,6.538L7.771,7.045L8.2,7.275L8.2,10.5L15.5,10.5L15.5,1.5L1.5,1.5zz" fill="#FFFFFF"/>
      <path d="M1,1.5L1,6.122L1.49,5.986L2,5.911L2,2L15,2L15,10L8.2,10L8.2,11L15.5,11L16,11L16,10.5L16,1.5L16,1L15.5,1L1.5,1L1,1zz" fill="#383838"/>
      <path d="M3.5,5.8L4.326,5.863L5.152,6.03L5.943,6.267L6.665,6.538L7.771,7.045L8.2,7.275L8.2,8.5L9.5,8.5L9.5,3.5L3.5,3.5zz" fill="#FFFFFF"/>
      <path d="M3,3.5L3,5.822L3.5,5.8L4,5.838L4,4L9,4L9,8L8.2,8L8.2,9L9.5,9L10,9L10,8.5L10,3.5L10,3L9.5,3L3.5,3L3,3zz" fill="#228BCB"/>
      <path d="M10,4L13,4L13,8L10,8L10,9L14,9L14,3L10,3zz" fill="#C8C6C4" opacity="0.6"/>
    </g>
    <g id="overlay">
      <path d="M6.5,8.475v5.646C6.5,14.882,5.157,15.5,3.5,15.5s-3,-0.618,-3,-1.379V8.475" fill="#F7DA8E" stroke="#E57428" stroke-width="1" stroke-linecap="round" stroke-miterlimit="10"/>
      <ellipse cx="3.5" cy="8.42" rx="3" ry="0.92" fill="#F7DA8E" stroke="#E57428" stroke-width="1" stroke-linecap="round" stroke-miterlimit="10"/>
    </g>
  </g>
</svg>
