<?xml version="1.0" encoding="UTF-8"?>
<!DOCTYPE svg PUBLIC "-//W3C//DTD SVG 1.1//EN" "http://www.w3.org/Graphics/SVG/1.1/DTD/svg11.dtd">
<svg version="1.1" id="Layer_1" xmlns="http://www.w3.org/2000/svg" xmlns:xlink="http://www.w3.org/1999/xlink" x="0px" y="0px" width="16px" height="16px" viewBox="0 0 16 16" enable-background="new 0 0 16 16" xml:space="preserve">
  <g id="main">
    <g id="icon">
      <path d="M8.604,2.8L10.2,2.8L10.2,6.2L8.604,6.2L9.432,7.028L7.589,8.872L7.589,8.872L8.325,8.797L9.011,8.582L9.632,8.243L10.17,7.793L10.62,7.247L10.96,6.621L11.17,5.929L11.24,5.186L11.17,4.443L10.96,3.751L10.62,3.125L10.17,2.579L9.632,2.129L9.402,2.003zM7.559,8.902L7.028,9.433L6.613,9.017L6.412,9.057L6.2,9.128L6.2,10.2L4.251,10.2L4.243,10.21L3.77,10.64L3.331,11.11L2.931,11.63L2.572,12.19L2.26,12.78L1.996,13.39L1.784,14.02L1.629,14.67L1.533,15.33L1.5,16L13.68,16L13.64,15.33L13.55,14.67L13.4,14.02L13.19,13.39L12.93,12.78L12.62,12.19L12.27,11.63L11.87,11.11L11.44,10.64L10.97,10.21L10.47,9.828L9.939,9.507L9.386,9.248L8.812,9.057L8.22,8.939L7.613,8.898zz" fill="#92CBEE"/>
      <path d="M9.433,1.972L9.033,2.371L9.35,2.545L9.656,2.8L10.2,2.8L10.2,3.403L10.2,3.405L10.49,3.945L10.68,4.543L10.74,5.186L10.68,5.829L10.49,6.428L10.2,6.967L9.816,7.439L9.35,7.827L8.814,8.12L8.225,8.305L8.148,8.312L7.028,9.433L6.2,8.604L6.2,9.654L6.541,9.541L7.071,9.435L7.613,9.399L8.154,9.435L8.683,9.541L9.2,9.714L9.704,9.949L10.19,10.24L10.65,10.59L11.08,10.99L11.49,11.43L11.86,11.92L12.19,12.44L12.48,12.99L12.72,13.56L12.92,14.16L13.06,14.76L13.15,15.38L13.15,15.5L2.025,15.5L2.031,15.38L2.12,14.77L2.265,14.16L2.463,13.57L2.71,12.99L3.003,12.44L3.339,11.92L3.713,11.44L4.123,10.99L4.561,10.59L5.027,10.24L5.099,10.2L3.507,10.2L3.433,10.27L3.416,10.28L3.401,10.3L2.963,10.78L2.948,10.79L2.935,10.81L2.535,11.33L2.522,11.34L2.511,11.36L2.152,11.92L2.141,11.94L2.131,11.95L1.818,12.54L1.809,12.56L1.8,12.58L1.536,13.19L1.528,13.21L1.521,13.23L1.31,13.86L1.303,13.89L1.298,13.91L1.142,14.56L1.137,14.58L1.134,14.6L1.038,15.26L1.035,15.29L1.033,15.31L1.001,15.98L0.9994,16L14.18,16L14.18,15.98L14.14,15.31L14.14,15.29L14.14,15.26L14.05,14.6L14.04,14.58L14.04,14.56L13.88,13.91L13.88,13.89L13.87,13.87L13.66,13.23L13.66,13.21L13.65,13.19L13.39,12.58L13.38,12.56L13.37,12.54L13.06,11.96L13.05,11.94L13.04,11.92L12.69,11.36L12.68,11.35L12.66,11.33L12.27,10.81L12.26,10.79L12.24,10.78L11.81,10.3L11.79,10.28L11.77,10.27L11.31,9.838L11.29,9.822L11.27,9.808L10.77,9.429L10.75,9.414L10.73,9.401L10.2,9.08L10.18,9.066L10.15,9.054L9.633,8.812L9.872,8.681L9.915,8.658L9.952,8.627L10.49,8.177L10.53,8.146L10.56,8.109L11.01,7.563L11.04,7.526L11.06,7.484L11.4,6.858L11.42,6.815L11.43,6.768L11.65,6.076L11.66,6.028L11.67,5.979L11.74,5.236L11.75,5.186L11.74,5.136L11.67,4.393L11.66,4.344L11.65,4.296L11.43,3.604L11.42,3.557L11.4,3.514L11.06,2.888L11.04,2.846L11.01,2.808L10.56,2.263L10.53,2.226L10.49,2.195L9.952,1.745L9.915,1.714L9.872,1.691L9.251,1.351L9.208,1.327L9.161,1.312L8.597,1.136zz" fill="#0964B0"/>
    </g>
    <g id="overlay">
      <path d="M4.5,0v9M9,4.5H0M7.382,1.618L1.618,7.382M7.382,7.382L1.618,1.618" fill="none" stroke="#ED8730" stroke-width="1" stroke-miterlimit="10"/>
    </g>
  </g>
</svg>
