<?xml version="1.0" encoding="UTF-8"?>
<!DOCTYPE svg PUBLIC "-//W3C//DTD SVG 1.1//EN" "http://www.w3.org/Graphics/SVG/1.1/DTD/svg11.dtd">
<svg version="1.1" id="Layer_1" xmlns="http://www.w3.org/2000/svg" xmlns:xlink="http://www.w3.org/1999/xlink" x="0px" y="0px" width="16px" height="16px" viewBox="0 0 16 16" enable-background="new 0 0 16 16" xml:space="preserve">
  <g id="icon">
    <rect x="0.5" y="4.5" width="15" height="11" fill="#D9D9D9" opacity="0.3"/>
    <rect x="0.5" y="1.5" width="15" height="3" fill="#BABABA" stroke="#888888" stroke-width="1" stroke-linecap="round" stroke-miterlimit="50"/>
    <path d="M12,16h-2v-1h2V16zM1,9H0v2h1V9zM1,6H0v2h1V6zM1,12H0v2h1V12zM9,15H7v1h2V15zM4,16h2v-1H4V16zM15,11h1V9h-1V11zM15,6v2h1V6H15zM3,15H1H0v1h3V15zM15,14h1v-2h-1V14zM13,15v1h3v-1h-1H13z" fill="#767676"/>
  </g>
</svg>
