<?xml version="1.0" encoding="UTF-8"?>
<!DOCTYPE svg PUBLIC "-//W3C//DTD SVG 1.1//EN" "http://www.w3.org/Graphics/SVG/1.1/DTD/svg11.dtd">
<svg version="1.1" id="Layer_1" xmlns="http://www.w3.org/2000/svg" xmlns:xlink="http://www.w3.org/1999/xlink" x="0px" y="0px" width="16px" height="16px" viewBox="0 0 16 16" enable-background="new 0 0 16 16" xml:space="preserve">
  <g id="main">
    <g id="icon">
      <path d="M1.5,14.5L6.663,14.5L6.401,14.04L6.145,13.45L5.956,12.83L5.84,12.18L5.8,11.5L5.829,10.92L5.916,10.35L6.057,9.807L6.249,9.283L6.489,8.785L6.775,8.315L7.103,7.876L7.471,7.471L7.876,7.103L8.315,6.775L8.785,6.489L9.283,6.249L9.807,6.057L10.35,5.916L10.92,5.829L11.5,5.8L12.18,5.84L12.5,5.898L12.5,4.557L8.533,0.5L1.5,0.5zz" fill="#FFFFFF"/>
      <path d="M1,0.5L1,14.5L1,15L1.5,15L7.014,15L6.72,14.6L6.401,14.04L6.382,14L2,14L2,1L8.323,1L12,4.761L12,5.829L12.18,5.84L12.83,5.956L13,6.008L13,4.557L13,4.353L12.86,4.207L8.89,0.1504L8.743,0L8.533,0L1.5,0L1,0zz" fill="#383838"/>
      <path d="M8,4.5L8,5L8.5,5L12.5,5L12.5,4L9,4L9,0.5L8,0.5zz" fill="#383838"/>
    </g>
    <g id="overlay">
      <path d="M11.5,7.5c-2.209,0,-4,1.791,-4,4c0,2.209,1.791,4,4,4s4,-1.791,4,-4C15.5,9.291,13.709,7.5,11.5,7.5zM13.5,13v1H9.5v-1h1.417l-1.78,-1.756l0.702,-0.712L11,11.678V8.8h1v2.878l1.161,-1.146l0.702,0.712L12.083,13H13.5z" fill="#B2DBB4"/>
      <path d="M11.5,7.5c-2.209,0,-4,1.791,-4,4c0,2.209,1.791,4,4,4s4,-1.791,4,-4C15.5,9.291,13.709,7.5,11.5,7.5zM13.5,13v1H9.5v-1h1.417l-1.78,-1.756l0.702,-0.712L11,11.678V8.8h1v2.878l1.161,-1.146l0.702,0.712L12.083,13H13.5z" fill="#009949" opacity="0.2"/>
      <path d="M11.5,16c-2.481,0,-4.5,-2.019,-4.5,-4.5s2.019,-4.5,4.5,-4.5s4.5,2.019,4.5,4.5S13.981,16,11.5,16zM11.5,8c-1.93,0,-3.5,1.57,-3.5,3.5s1.57,3.5,3.5,3.5s3.5,-1.57,3.5,-3.5S13.43,8,11.5,8z" fill="#009949"/>
      <polygon points="13.5,14 9.5,14 9.5,13 10.917,13 9.137,11.244 9.839,10.532 11,11.678 11,8.8 12,8.8 12,11.678 13.161,10.532 13.863,11.244 12.083,13 13.5,13" fill="#FFFFFF" stroke-linejoin="miter"/>
    </g>
  </g>
</svg>
