<?xml version="1.0" encoding="UTF-8"?>
<!DOCTYPE svg PUBLIC "-//W3C//DTD SVG 1.1//EN" "http://www.w3.org/Graphics/SVG/1.1/DTD/svg11.dtd">
<svg version="1.1" id="Layer_1" xmlns="http://www.w3.org/2000/svg" xmlns:xlink="http://www.w3.org/1999/xlink" x="0px" y="0px" width="16px" height="16px" viewBox="0 0 16 16" enable-background="new 0 0 16 16" xml:space="preserve">
  <g id="main">
    <g id="icon">
      <path d="M0.8506,0.5451L0.6682,0.6682L0.5451,0.8506L0.5,1.074L0.5,3.5L9.4,3.5L9.4,2.5L8.965,2.5L8.593,2.441L8.257,2.272L6.628,0.699L6.335,0.5512L6.011,0.5L1.074,0.5zz" fill="#FFFFFF"/>
      <path d="M0.975,0.009961L0.7516,0.05508L0.6537,0.0748L0.5711,0.1305L0.3887,0.2535L0.308,0.308L0.2535,0.3887L0.1305,0.5711L0.0748,0.6537L0.05508,0.7516L0.009961,0.975L0,1.024L0,1.074L0,3.5L0,4L0.5,4L9.4,4L9.9,4L9.9,3.5L9.9,2.5L9.9,2L9.4,2L9.004,2L8.748,1.96L8.55,1.86L6.975,0.3393L6.921,0.2867L6.853,0.2525L6.56,0.1047L6.49,0.06953L6.413,0.05723L6.089,0.006055L6.05,0L6.011,0L1.074,0L1.024,0zM5.971,1L6.18,1.033L6.336,1.112L7.91,2.632L7.964,2.684L8.032,2.718L8.368,2.888L8.438,2.923L8.515,2.935L8.887,2.994L8.9,2.996L8.9,3L1,3L1,1.124L1.015,1.047L1.028,1.028L1.047,1.015L1.124,1zz" fill="#E57428"/>
      <path d="M7.347,3.379L6.904,3.47L6.453,3.5L0.5,3.5L0.5,13.5L6.324,13.5L5.283,12.45L5.635,12.09L6.423,11.3L10.4,7.289L10.76,7.641L11.96,8.838L12.81,9.683L11.96,10.54L11.96,10.8L14.5,10.8L14.5,2.5L8.537,2.5zz" fill="#F7DA8E"/>
      <path d="M8.24,2.098L7.139,2.911L6.837,2.973L6.437,3L0.5,3L0,3L0,3.5L0,13.5L0,14L0.5,14L6.82,14L5.828,13L1,13L1,4L6.453,4L6.47,4L6.487,3.999L6.938,3.968L6.971,3.966L7.004,3.959L7.447,3.869L7.555,3.847L7.644,3.781L8.702,3L14,3L14,10.8L15,10.8L15,2.5L15,2L14.5,2L8.537,2L8.372,2zz" fill="#E57428"/>
    </g>
    <g id="overlay">
      <path d="M10.762,15.562L7.677,12.45l3.086,-3.112M16,12.5H7.7" fill="none" stroke="#228BCB" stroke-width="1" stroke-miterlimit="10"/>
    </g>
  </g>
</svg>
