<?xml version="1.0" encoding="UTF-8"?>
<!DOCTYPE svg PUBLIC "-//W3C//DTD SVG 1.1//EN" "http://www.w3.org/Graphics/SVG/1.1/DTD/svg11.dtd">
<svg version="1.1" id="Layer_1" xmlns="http://www.w3.org/2000/svg" xmlns:xlink="http://www.w3.org/1999/xlink" x="0px" y="0px" width="16px" height="16px" viewBox="0 0 16 16" enable-background="new 0 0 16 16" xml:space="preserve">
  <g id="icon">
    <path d="M8.901,6.672c0,1.752,-1.41,3.253,-3.15,3.253S2.6,8.424,2.6,6.672S4.011,3.5,5.75,3.5S8.901,4.92,8.901,6.672zM11,15.976c0,-3.062,-2.411,-6.03,-5.229,-6.03S0.5,12.914,0.5,15.976" fill="#FFFFFF" stroke="#228BCB" stroke-width="1" stroke-miterlimit="10"/>
    <path d="M10.591,6.96c2.678,0.214,4.909,3.071,4.909,6.016h-3.399c-0.331,-0.818,-0.79,-1.589,-1.363,-2.264c-0.342,-0.403,-0.72,-0.766,-1.125,-1.081C10.185,8.858,10.533,7.926,10.591,6.96zM10.601,6.672c0,0.078,-0.002,0.155,-0.006,0.232c1.578,-0.182,2.806,-1.598,2.806,-3.232C13.401,1.92,11.99,0.5,10.25,0.5c-1.183,0,-2.214,0.657,-2.752,1.629C9.311,2.835,10.601,4.604,10.601,6.672z" fill="#FFFFFF"/>
    <path d="M14.324,8.489c-0.624,-0.735,-1.368,-1.293,-2.164,-1.638c1.036,-0.671,1.741,-1.858,1.741,-3.179C13.901,1.647,12.263,0,10.25,0C8.848,0,7.629,0.8,7.018,1.97c0.328,0.089,0.642,0.213,0.939,0.366C8.416,1.538,9.272,1,10.25,1c1.461,0,2.65,1.199,2.65,2.672c0,1.372,-1.026,2.547,-2.308,2.728c0.005,0.09,0.008,0.181,0.008,0.272c0,0.264,-0.022,0.527,-0.065,0.785c2.369,0.179,4.464,2.729,4.464,5.519h1C16,11.379,15.389,9.744,14.324,8.489z" fill="#238BCB"/>
  </g>
</svg>
