<?xml version="1.0" encoding="UTF-8"?>
<!DOCTYPE svg PUBLIC "-//W3C//DTD SVG 1.1//EN" "http://www.w3.org/Graphics/SVG/1.1/DTD/svg11.dtd">
<svg version="1.1" id="Layer_1" xmlns="http://www.w3.org/2000/svg" xmlns:xlink="http://www.w3.org/1999/xlink" x="0px" y="0px" width="16px" height="16px" viewBox="0 0 16 16" enable-background="new 0 0 16 16" xml:space="preserve">
  <g id="icon">
    <path d="M8,0.5C3.858,0.5,0.5,3.858,0.5,8s3.358,7.5,7.5,7.5s7.5,-3.358,7.5,-7.5S12.142,0.5,8,0.5zM8.026,12.438c-2.437,0,-4.412,-1.975,-4.412,-4.412s1.975,-4.412,4.412,-4.412s4.412,1.975,4.412,4.412S10.463,12.438,8.026,12.438z" fill="#FFFFFF" stroke="#EE3D3B" stroke-width="1" stroke-miterlimit="50"/>
    <path d="M14.128,12.325c-0.501,0.709,-1.122,1.326,-1.833,1.824l-2.217,-2.217c0.779,-0.41,1.421,-1.045,1.837,-1.82L14.128,12.325zM4.12,10.077l-2.248,2.248c0.501,0.709,1.122,1.326,1.833,1.824l2.235,-2.235C5.165,11.498,4.53,10.856,4.12,10.077zM11.914,5.94l2.235,-2.235c-0.498,-0.711,-1.115,-1.332,-1.824,-1.833L10.077,4.12C10.856,4.53,11.498,5.165,11.914,5.94zM4.12,5.975c0.41,-0.779,1.045,-1.421,1.82,-1.837L3.675,1.872c-0.709,0.501,-1.326,1.122,-1.824,1.833L4.12,5.975z" fill="none" stroke="#787979" stroke-width="1" stroke-miterlimit="50"/>
  </g>
</svg>
