<?xml version="1.0" encoding="UTF-8"?>
<!DOCTYPE svg PUBLIC "-//W3C//DTD SVG 1.1//EN" "http://www.w3.org/Graphics/SVG/1.1/DTD/svg11.dtd">
<svg version="1.1" id="Layer_1" xmlns="http://www.w3.org/2000/svg" xmlns:xlink="http://www.w3.org/1999/xlink" x="0px" y="0px" width="16px" height="16px" viewBox="0 0 16 16" enable-background="new 0 0 16 16" xml:space="preserve">
  <g id="icon">
    <path d="M8.901,6.672c0,1.752,-1.41,3.253,-3.15,3.253S2.6,8.424,2.6,6.672S4.011,3.5,5.75,3.5S8.901,4.92,8.901,6.672zM11,15.976c0,-3.062,-2.411,-6.03,-5.229,-6.03S0.5,12.914,0.5,15.976" fill="#FFFFFF" stroke="#228BCB" stroke-width="1" stroke-miterlimit="10"/>
    <path d="M11.801,7.709l0.193,0.001C14.026,8.473,15.5,10.639,15.5,13h-3.497c-0.326,-0.803,-0.778,-1.56,-1.341,-2.223c-0.36,-0.423,-0.76,-0.802,-1.188,-1.126c0.431,-0.56,0.739,-1.209,0.9,-1.896C10.851,7.762,11.326,7.747,11.801,7.709zM10.501,6.672c0,0.348,-0.04,0.693,-0.114,1.03l1.414,0.007c0.099,-0.008,0.199,-0.016,0.298,-0.026c0.692,-0.026,1.359,-0.124,1.936,-0.538c0.12,-0.086,0.121,-0.267,0,-0.351c-0.392,-0.272,-0.529,-0.704,-0.603,-1.154c-0.079,-0.478,-0.103,-0.969,-0.11,-1.454c-0.01,-0.7,-0.045,-1.39,-0.27,-2.062c-0.414,-1.24,-1.598,-1.686,-2.53,-1.616c-0.325,0.024,-0.62,0.154,-0.878,0.365c-0.064,0.052,-0.157,0.102,-0.236,0.099c-0.782,-0.025,-1.25,0.439,-1.5,1.054c-0.045,0.111,-0.084,0.224,-0.118,0.338C9.391,3.131,10.501,4.773,10.501,6.672z" fill="#FFFFFF"/>
    <path d="M13.498,7.968c0.282,-0.093,0.562,-0.226,0.828,-0.417c0.189,-0.136,0.301,-0.356,0.299,-0.589c-0.002,-0.232,-0.116,-0.448,-0.306,-0.58c-0.208,-0.144,-0.322,-0.383,-0.395,-0.824c-0.081,-0.492,-0.098,-0.996,-0.104,-1.38c-0.01,-0.704,-0.042,-1.454,-0.295,-2.213c-0.492,-1.471,-1.882,-2.042,-3.041,-1.956c-0.411,0.031,-0.793,0.185,-1.14,0.462c-0.868,0.001,-1.54,0.484,-1.899,1.366c-0.045,0.11,-0.084,0.221,-0.119,0.334c0.322,0.114,0.628,0.262,0.915,0.439c0.034,-0.135,0.078,-0.267,0.13,-0.396c0.279,-0.686,0.716,-0.752,1.021,-0.742c0.259,0.007,0.467,-0.129,0.568,-0.212c0.187,-0.152,0.388,-0.238,0.599,-0.253c0.773,-0.058,1.697,0.315,2.019,1.276c0.208,0.623,0.235,1.286,0.244,1.911c0.006,0.419,0.025,0.971,0.117,1.528c0.062,0.379,0.176,0.832,0.495,1.199c-0.423,0.198,-0.896,0.246,-1.353,0.263l-0.03,0.002c-0.086,0.009,-0.171,0.016,-0.257,0.023l-1.322,-0.006c-0.041,0.359,-0.121,0.711,-0.24,1.051c0.532,0.012,1.067,-0.002,1.599,-0.044l0.07,0C13.729,8.939,15,10.895,15,13h1C16,10.993,15.019,9.095,13.498,7.968z" fill="#A0519F"/>
  </g>
</svg>
