<?xml version="1.0" encoding="UTF-8"?>
<!DOCTYPE svg PUBLIC "-//W3C//DTD SVG 1.1//EN" "http://www.w3.org/Graphics/SVG/1.1/DTD/svg11.dtd">
<svg version="1.1" id="Layer_1" xmlns="http://www.w3.org/2000/svg" xmlns:xlink="http://www.w3.org/1999/xlink" x="0px" y="0px" width="16px" height="16px" viewBox="0 0 16 16" enable-background="new 0 0 16 16" xml:space="preserve">
  <g id="main">
    <g id="icon">
      <path d="M4.818,3.346L4.265,3.52L3.764,3.795L3.328,4.158L2.968,4.599L2.696,5.105L2.525,5.664L2.465,6.264L2.525,6.868L2.696,7.435L2.968,7.953L3.328,8.408L3.764,8.785L4.265,9.072L4.818,9.254L5.412,9.318L6.006,9.254L6.311,9.154L6.489,8.785L6.775,8.315L7.103,7.876L7.471,7.471L7.876,7.103L8.308,6.78L8.359,6.264L8.299,5.664L8.128,5.105L7.856,4.599L7.496,4.158L7.06,3.795L6.559,3.52L6.006,3.346L5.412,3.286zM4.941,9.37L4.462,9.463L3.997,9.614L3.548,9.818L3.119,10.07L2.712,10.37L1.977,11.09L1.365,11.95L0.8996,12.9L0.6037,13.93L0.5264,14.46L0.5,15L7.014,15L6.72,14.6L6.401,14.04L6.145,13.45L5.956,12.83L5.84,12.18L5.8,11.5L5.829,10.92L5.916,10.35L6.057,9.807L6.197,9.424L5.921,9.37L5.431,9.338zz" fill="#FFFFFF"/>
      <path d="M5.361,2.788L4.767,2.849L4.717,2.854L4.668,2.869L4.115,3.043L4.068,3.058L4.024,3.082L3.524,3.356L3.481,3.379L3.444,3.411L3.008,3.774L2.971,3.805L2.941,3.842L2.581,4.283L2.55,4.32L2.528,4.362L2.256,4.868L2.233,4.911L2.219,4.958L2.047,5.517L2.032,5.565L2.027,5.614L1.967,6.214L1.962,6.264L1.967,6.313L2.027,6.917L2.032,6.965L2.046,7.012L2.218,7.58L2.232,7.625L2.254,7.667L2.525,8.185L2.547,8.227L2.576,8.263L2.936,8.718L2.965,8.755L3.001,8.786L3.437,9.163L3.473,9.195L3.516,9.219L3.578,9.255L3.341,9.363L3.317,9.374L3.294,9.388L2.864,9.642L2.843,9.654L2.823,9.669L2.416,9.969L2.387,9.989L2.362,10.01L1.627,10.73L1.596,10.76L1.57,10.8L0.9584,11.65L0.9338,11.69L0.9152,11.73L0.45,12.68L0.4311,12.72L0.4191,12.76L0.1232,13.79L0.1139,13.83L0.109,13.86L0.03164,14.39L0.02812,14.41L0.02695,14.44L0.0005859,14.98L-0,14.99L0,15.5L0.5,15.5L7.453,15.5L7.097,15.11L6.72,14.6L6.663,14.5L1.026,14.5L1.094,14.04L1.368,13.08L1.796,12.2L2.358,11.42L3.037,10.75L3.395,10.49L3.78,10.26L4.177,10.08L4.588,9.948L5.005,9.867L5.431,9.839L5.856,9.867L6.032,9.901L6.057,9.807L6.249,9.283L6.489,8.785L6.721,8.403L6.354,8.613L5.9,8.763L5.412,8.815L4.924,8.763L4.47,8.613L4.055,8.376L3.691,8.061L3.389,7.679L3.162,7.246L3.018,6.77L2.967,6.264L3.018,5.762L3.16,5.299L3.386,4.878L3.685,4.512L4.047,4.21L4.462,3.982L4.919,3.839L5.412,3.788L5.905,3.839L6.362,3.982L6.777,4.21L7.139,4.511L7.438,4.877L7.664,5.298L7.807,5.763L7.857,6.264L7.806,6.77L7.663,7.245L7.61,7.345L7.876,7.103L8.315,6.775L8.785,6.489L8.842,6.462L8.857,6.313L8.862,6.264L8.856,6.214L8.797,5.614L8.792,5.565L8.777,5.517L8.605,4.958L8.591,4.911L8.568,4.868L8.296,4.362L8.274,4.32L8.243,4.283L7.883,3.842L7.853,3.805L7.816,3.774L7.38,3.411L7.343,3.379L7.3,3.356L6.8,3.082L6.756,3.058L6.709,3.043L6.156,2.869L6.107,2.854L6.057,2.849L5.463,2.788L5.412,2.783zz" fill="#228BCB"/>
      <g>
        <path d="M9.44,0.5818L9.052,0.8189L8.832,0.9119L8.337,0.9758L7.944,1.181L7.644,1.5L7.429,1.901L7.319,2.218L7.858,2.526L8.348,2.904L8.78,3.345L9.15,3.843L9.448,4.391L9.67,4.981L9.808,5.608L9.84,6.048L10.35,5.916L10.92,5.829L11.5,5.8L12.18,5.84L12.8,5.951L12.77,5.899L12.6,5.295L12.52,4.615L12.49,3.93L12.44,2.952L12.37,2.47L12.24,1.994L12.07,1.592L11.83,1.256L11.55,0.9846L11.24,0.7738L10.9,0.6205L10.56,0.5219L9.874,0.476zz" fill="#FFFFFF"/>
      </g>
      <path d="M9.84,0.008008L9.284,0.1383L8.773,0.442L8.2,0.5264L7.706,0.773L7.301,1.175L6.996,1.725L6.885,2.039L7.325,2.223L7.741,2.451L7.863,2.079L8.082,1.697L8.331,1.486L8.585,1.396L8.818,1.382L9.139,1.314L9.349,1.183L9.621,1.016L9.909,0.9449L10.47,0.9824L11.01,1.185L11.26,1.353L11.48,1.567L11.66,1.83L11.8,2.143L11.91,2.588L11.98,3.039L12.02,3.937L12.05,4.605L12.13,5.372L12.25,5.854L12.83,5.956L13.45,6.145L13.63,6.221L13.43,5.992L13.2,5.71L13.06,5.218L12.98,4.532L12.96,3.922L12.91,2.902L12.83,2.376L12.68,1.844L12.48,1.365L12.2,0.9631L11.87,0.6348L11.5,0.3777L11.1,0.1893L10.68,0.06641L10.25,0.007031zz" fill="#A0519F"/>
    </g>
    <g id="overlay">
      <path d="M11.5,7.5c-2.209,0,-4,1.791,-4,4c0,2.209,1.791,4,4,4s4,-1.791,4,-4C15.5,9.291,13.709,7.5,11.5,7.5zM12,14h-1v-1h1V14zM12,12.3h-1V9h1V12.3z" fill="#F7BFBF"/>
      <path d="M11.5,7.5c-2.209,0,-4,1.791,-4,4c0,2.209,1.791,4,4,4s4,-1.791,4,-4C15.5,9.291,13.709,7.5,11.5,7.5zM12,14h-1v-1h1V14zM12,12.3h-1V9h1V12.3z" fill="#DB2E2A" opacity="0.3"/>
      <path d="M11.5,16c-2.481,0,-4.5,-2.019,-4.5,-4.5s2.019,-4.5,4.5,-4.5s4.5,2.019,4.5,4.5S13.981,16,11.5,16zM11.5,8c-1.93,0,-3.5,1.57,-3.5,3.5s1.57,3.5,3.5,3.5s3.5,-1.57,3.5,-3.5S13.43,8,11.5,8z" fill="#DB2E2A"/>
      <path d="M12,14h-1v-1h1V14zM12,12.3h-1V9h1V12.3z" fill="#FFFFFF"/>
    </g>
  </g>
</svg>
