<?xml version="1.0" encoding="UTF-8"?>
<!DOCTYPE svg PUBLIC "-//W3C//DTD SVG 1.1//EN" "http://www.w3.org/Graphics/SVG/1.1/DTD/svg11.dtd">
<svg version="1.1" id="Layer_1" xmlns="http://www.w3.org/2000/svg" xmlns:xlink="http://www.w3.org/1999/xlink" x="0px" y="0px" width="16px" height="16px" viewBox="0 0 16 16" enable-background="new 0 0 16 16" xml:space="preserve">
  <g id="main">
    <g id="icon">
      <path d="M9.325,6.921L9.299,6.664L9.157,6.2L8.604,6.2zM7.028,9.433L6.2,8.604L6.2,10.2L5.653,10.2L5.818,10.25L6.412,10.32L7.006,10.25L7.559,10.07L8.06,9.785L8.496,9.408L8.856,8.953L9.128,8.435L9.299,7.868L9.359,7.264L9.344,7.116zM5.941,10.37L5.462,10.46L4.997,10.61L4.548,10.82L4.119,11.07L3.712,11.37L2.977,12.09L2.365,12.95L1.9,13.9L1.604,14.93L1.526,15.46L1.5,16L11.32,16L11.3,15.46L11.22,14.93L10.93,13.9L10.47,12.95L9.866,12.09L9.138,11.37L8.734,11.07L8.308,10.82L7.862,10.61L7.398,10.46L6.921,10.37L6.431,10.34zz" fill="#FFFFFF"/>
      <path d="M8.62,6.216L9.432,7.028L8.819,7.641L8.806,7.77L8.663,8.245L8.435,8.679L8.133,9.061L7.769,9.376L7.354,9.613L6.9,9.763L6.412,9.815L6.2,9.792L6.2,10.2L4.482,10.2L4.516,10.22L4.578,10.26L4.341,10.36L4.317,10.37L4.294,10.39L3.864,10.64L3.843,10.65L3.823,10.67L3.416,10.97L3.387,10.99L3.362,11.01L2.627,11.73L2.596,11.76L2.57,11.8L1.958,12.65L1.934,12.69L1.915,12.73L1.45,13.68L1.431,13.72L1.419,13.76L1.123,14.79L1.114,14.83L1.109,14.86L1.032,15.39L1.028,15.41L1.027,15.44L1.001,15.98L0.9994,16L11.82,16L11.82,15.98L11.8,15.44L11.8,15.42L11.79,15.39L11.72,14.86L11.71,14.83L11.7,14.79L11.41,13.77L11.4,13.72L11.38,13.69L10.92,12.73L10.9,12.69L10.88,12.66L10.27,11.8L10.25,11.77L10.22,11.74L9.489,11.02L9.464,10.99L9.436,10.97L9.032,10.67L9.012,10.66L8.99,10.64L8.564,10.39L8.54,10.38L8.516,10.36L8.261,10.25L8.308,10.22L8.35,10.2L8.387,10.16L8.823,9.786L8.859,9.755L8.888,9.718L9.248,9.263L9.277,9.227L9.299,9.185L9.57,8.667L9.592,8.625L9.606,8.58L9.778,8.012L9.792,7.965L9.797,7.917L9.857,7.313L9.862,7.264L9.856,7.214L9.797,6.614L9.792,6.565L9.777,6.517L9.68,6.2L8.611,6.2zM6.856,10.87L7.272,10.95L7.68,11.08L8.075,11.26L8.456,11.49L8.812,11.75L9.483,12.42L10.04,13.2L10.46,14.08L10.73,15.04L10.8,15.5L2.026,15.5L2.094,15.04L2.368,14.08L2.796,13.2L3.358,12.42L4.037,11.75L4.395,11.49L4.78,11.26L5.177,11.08L5.588,10.95L6.005,10.87L6.431,10.84zz" fill="#228BCB"/>
      <g>
        <path d="M10.74,8.281L10.6,8.757L10.41,9.216L10.18,9.652L9.895,10.06L10.48,10.56L11.01,11.12L11.72,12.11L12.26,13.21L15.53,13.21L15.47,12.38L15.29,11.59L15,10.85L14.61,10.16L14.13,9.54L13.57,9.004L12.94,8.566L12.25,8.238L12.07,8.237zz" fill="#FFFFFF"/>
        <path d="M10.44,1.582L10.05,1.819L9.832,1.912L9.425,1.964L9.433,1.972L8.604,2.8L10.2,2.8L10.2,4.936L10.45,5.391L10.67,5.981L10.81,6.608L10.86,7.264L10.83,7.752L10.75,8.231L12.07,8.237L12.35,8.213L12.83,8.178L13.3,8.097L13.74,7.947L14.16,7.708L14.25,7.542L14.16,7.378L13.93,7.161L13.77,6.899L13.6,6.295L13.52,5.615L13.49,4.93L13.44,3.952L13.37,3.47L13.24,2.994L13.07,2.592L12.83,2.256L12.55,1.985L12.24,1.774L11.9,1.621L11.56,1.522L10.87,1.476zz" fill="#FFFFFF"/>
      </g>
      <path d="M10.84,1.008L10.28,1.138L9.773,1.442L9.2,1.526L9.058,1.597L9.433,1.972L8.604,2.8L9.023,2.8L9.082,2.697L9.331,2.486L9.585,2.396L9.818,2.382L10.14,2.314L10.35,2.183L10.62,2.016L10.91,1.945L11.47,1.982L12.01,2.185L12.26,2.353L12.48,2.567L12.66,2.83L12.8,3.143L12.91,3.588L12.98,4.039L13.02,4.937L13.05,5.605L13.13,6.372L13.28,6.939L13.41,7.226L13.6,7.498L12.98,7.685L12.33,7.745L12.3,7.747L12.06,7.769L10.82,7.763L10.74,8.263L10.6,8.75L12.1,8.709L12.16,8.709L12.78,9.018L13.34,9.423L13.83,9.912L14.25,10.47L14.6,11.1L14.85,11.77L15.01,12.47L15.06,13.21L16,13.21L15.96,12.51L15.83,11.82L15.63,11.16L15.36,10.53L15.03,9.944L14.63,9.401L14.17,8.911L13.66,8.481L14.05,8.32L14.43,8.089L14.64,7.847L14.71,7.536L14.64,7.229L14.43,6.992L14.2,6.71L14.06,6.218L13.98,5.532L13.96,4.922L13.91,3.902L13.83,3.376L13.68,2.844L13.48,2.365L13.2,1.963L12.87,1.635L12.5,1.378L12.1,1.189L11.68,1.066L11.25,1.007zz" fill="#A0519F"/>
    </g>
    <g id="overlay">
      <path d="M4.5,0v9M9,4.5H0M7.382,1.618L1.618,7.382M7.382,7.382L1.618,1.618" fill="none" stroke="#ED8730" stroke-width="1" stroke-miterlimit="10"/>
    </g>
  </g>
</svg>
