<?xml version="1.0" encoding="UTF-8"?>
<!DOCTYPE svg PUBLIC "-//W3C//DTD SVG 1.1//EN" "http://www.w3.org/Graphics/SVG/1.1/DTD/svg11.dtd">
<svg version="1.1" id="Layer_1" xmlns="http://www.w3.org/2000/svg" xmlns:xlink="http://www.w3.org/1999/xlink" x="0px" y="0px" width="16px" height="16px" viewBox="0 0 16 16" enable-background="new 0 0 16 16" xml:space="preserve">
  <g id="main">
    <g id="icon">
      <path d="M5.854,0.5748L5.168,0.7896L4.548,1.129L4.007,1.579L3.561,2.125L3.224,2.751L3.011,3.443L2.937,4.186L3.011,4.933L3.224,5.636L3.561,6.277L4.007,6.839L4.548,7.307L5.169,7.662L5.855,7.887L6.591,7.966L7.075,7.914L7.103,7.876L7.471,7.471L7.876,7.103L8.315,6.775L8.785,6.489L9.283,6.249L9.72,6.088L9.958,5.636L10.17,4.933L10.24,4.186L10.17,3.443L9.958,2.751L9.621,2.125L9.175,1.579L8.634,1.129L8.014,0.7896L7.328,0.5748L6.591,0.5zM6.006,8.031L5.412,8.146L4.836,8.333L4.279,8.586L3.747,8.9L3.242,9.27L2.769,9.692L2.331,10.16L1.931,10.67L1.572,11.22L1.259,11.8L0.9955,12.4L0.784,13.03L0.6285,13.68L0.5328,14.33L0.5,15L7.014,15L6.72,14.6L6.401,14.04L6.145,13.45L5.956,12.83L5.84,12.18L5.8,11.5L5.829,10.92L5.916,10.35L6.057,9.807L6.249,9.283L6.489,8.785L6.775,8.315L6.999,8.016L6.614,7.991zz" fill="#FFFFFF"/>
      <path d="M6.54,0.002539L5.804,0.07734L5.753,0.08262L5.705,0.09766L5.019,0.3125L4.972,0.3273L4.928,0.351L4.307,0.6908L4.265,0.7141L4.228,0.7451L3.687,1.195L3.65,1.226L3.62,1.263L3.174,1.808L3.143,1.846L3.121,1.888L2.784,2.514L2.761,2.557L2.746,2.604L2.533,3.296L2.519,3.344L2.514,3.393L2.439,4.136L2.435,4.186L2.439,4.236L2.514,4.982L2.519,5.031L2.533,5.078L2.746,5.781L2.759,5.826L2.781,5.868L3.118,6.509L3.14,6.551L3.169,6.587L3.615,7.15L3.645,7.187L3.68,7.218L4.221,7.685L4.258,7.717L4.3,7.741L4.579,7.9L4.072,8.13L4.048,8.142L4.025,8.155L3.493,8.469L3.471,8.482L3.451,8.497L2.946,8.867L2.927,8.881L2.91,8.897L2.437,9.319L2.42,9.334L2.404,9.351L1.966,9.819L1.951,9.835L1.937,9.852L1.537,10.36L1.524,10.38L1.512,10.4L1.154,10.94L1.142,10.96L1.132,10.98L0.8195,11.56L0.8094,11.58L0.801,11.6L0.5371,12.2L0.5285,12.22L0.5217,12.24L0.3102,12.87L0.3031,12.89L0.2979,12.91L0.1426,13.56L0.1371,13.58L0.1338,13.6L0.03789,14.26L0.03457,14.29L0.0334,14.31L0.0005859,14.98L-0,14.99L0,15.5L0.5,15.5L7.453,15.5L7.097,15.11L6.72,14.6L6.663,14.5L1.025,14.5L1.031,14.38L1.12,13.77L1.265,13.17L1.462,12.58L1.709,12.02L2.002,11.48L2.337,10.96L2.71,10.49L3.12,10.05L3.558,9.659L4.022,9.318L4.511,9.029L5.017,8.8L5.538,8.631L6.072,8.527L6.614,8.492L6.665,8.495L6.775,8.315L7.103,7.876L7.471,7.471L7.743,7.224L7.222,7.395L6.591,7.463L5.96,7.396L5.373,7.203L4.838,6.897L4.37,6.492L3.982,6.003L3.689,5.445L3.504,4.834L3.439,4.186L3.504,3.542L3.688,2.945L3.978,2.404L4.364,1.933L4.83,1.545L5.365,1.252L5.955,1.067L6.591,1.003L7.227,1.067L7.818,1.252L8.352,1.545L8.818,1.933L9.204,2.404L9.495,2.945L9.678,3.542L9.743,4.186L9.678,4.834L9.493,5.445L9.2,6.003L8.833,6.466L9.283,6.249L9.807,6.057L10.35,5.916L10.38,5.912L10.4,5.868L10.42,5.826L10.44,5.781L10.65,5.078L10.66,5.031L10.67,4.982L10.74,4.235L10.75,4.186L10.74,4.136L10.67,3.393L10.66,3.344L10.65,3.296L10.44,2.604L10.42,2.557L10.4,2.514L10.06,1.888L10.04,1.846L10.01,1.808L9.562,1.263L9.532,1.226L9.495,1.195L8.954,0.7451L8.917,0.7141L8.874,0.6908L8.254,0.351L8.21,0.3273L8.163,0.3125L7.477,0.09766L7.429,0.08262L7.378,0.07734L6.642,0.002539L6.616,0L6.566,0zz" fill="#228BCB"/>
    </g>
    <g id="overlay">
      <path d="M11.5,7.5c-2.209,0,-4,1.791,-4,4c0,2.209,1.791,4,4,4s4,-1.791,4,-4C15.5,9.291,13.709,7.5,11.5,7.5zM12,14h-1v-1h1V14zM12,12.3h-1V9h1V12.3z" fill="#F7BFBF"/>
      <path d="M11.5,7.5c-2.209,0,-4,1.791,-4,4c0,2.209,1.791,4,4,4s4,-1.791,4,-4C15.5,9.291,13.709,7.5,11.5,7.5zM12,14h-1v-1h1V14zM12,12.3h-1V9h1V12.3z" fill="#DB2E2A" opacity="0.3"/>
      <path d="M11.5,16c-2.481,0,-4.5,-2.019,-4.5,-4.5s2.019,-4.5,4.5,-4.5s4.5,2.019,4.5,4.5S13.981,16,11.5,16zM11.5,8c-1.93,0,-3.5,1.57,-3.5,3.5s1.57,3.5,3.5,3.5s3.5,-1.57,3.5,-3.5S13.43,8,11.5,8z" fill="#DB2E2A"/>
      <path d="M12,14h-1v-1h1V14zM12,12.3h-1V9h1V12.3z" fill="#FFFFFF"/>
    </g>
  </g>
</svg>
