<?xml version="1.0" encoding="UTF-8"?>
<!DOCTYPE svg PUBLIC "-//W3C//DTD SVG 1.1//EN" "http://www.w3.org/Graphics/SVG/1.1/DTD/svg11.dtd">
<svg version="1.1" id="Layer_1" xmlns="http://www.w3.org/2000/svg" xmlns:xlink="http://www.w3.org/1999/xlink" x="0px" y="0px" width="16px" height="16px" viewBox="0 0 16 16" enable-background="new 0 0 16 16" xml:space="preserve">
  <g id="main">
    <g id="icon">
      <path d="M3.5,3L11,3L11,5.825L11.5,5.8L12.18,5.84L12.83,5.956L13.45,6.145L14.04,6.401L14.5,6.663L14.5,0.5L3.5,0.5zz" fill="#FFFFFF"/>
      <path d="M3,3L4,3L4,1L14,1L14,6.382L14.04,6.401L14.6,6.72L15,7.014L15,0L3,0zz" fill="#383838"/>
      <path d="M0.5,12.5L2.5,12.5L2.5,14.15L5.882,12.5L5.898,12.5L5.84,12.18L5.8,11.5L5.829,10.92L5.916,10.35L6.057,9.807L6.249,9.283L6.489,8.785L6.775,8.315L7.103,7.876L7.471,7.471L7.876,7.103L8.315,6.775L8.785,6.489L9.283,6.249L9.5,6.169L9.5,4.5L0.5,4.5zz" fill="#FFFFFF"/>
      <path d="M0,4.5L0,12.5L0,13L0.5,13L2,13L2,14.15L2,14.95L2.719,14.6L5.997,13L6.008,13L5.956,12.83L5.84,12.18L5.829,12L5.767,12L5.663,12.05L3,13.35L3,12.5L3,12L2.5,12L1,12L1,5L9,5L9,6.385L9.283,6.249L9.807,6.057L10,6.007L10,4.5L10,4L9.5,4L0.5,4L0,4zz" fill="#383838"/>
      <path d="M2.5,9L3.5,9L3.5,8L2.5,8zM4.5,9L5.5,9L5.5,8L4.5,8zM6.5,8.767L6.775,8.315L7.011,8L6.5,8zz" fill="#238BCB"/>
    </g>
    <g id="overlay">
      <path d="M11.5,7.5c-2.209,0,-4,1.791,-4,4c0,2.209,1.791,4,4,4s4,-1.791,4,-4C15.5,9.291,13.709,7.5,11.5,7.5zM13.654,12.946l-0.707,0.707L11.5,12.207l-1.446,1.446l-0.707,-0.707L10.793,11.5l-1.446,-1.446l0.707,-0.707L11.5,10.793l1.446,-1.446l0.707,0.707L12.207,11.5L13.654,12.946z" fill="#D6DADF"/>
      <path d="M11.5,7.5c-2.209,0,-4,1.791,-4,4c0,2.209,1.791,4,4,4s4,-1.791,4,-4C15.5,9.291,13.709,7.5,11.5,7.5zM13.654,12.946l-0.707,0.707L11.5,12.207l-1.446,1.446l-0.707,-0.707L10.793,11.5l-1.446,-1.446l0.707,-0.707L11.5,10.793l1.446,-1.446l0.707,0.707L12.207,11.5L13.654,12.946z" fill="#748090" opacity="0.3"/>
      <path d="M11.5,16c-2.481,0,-4.5,-2.019,-4.5,-4.5s2.019,-4.5,4.5,-4.5s4.5,2.019,4.5,4.5S13.981,16,11.5,16zM11.5,8c-1.93,0,-3.5,1.57,-3.5,3.5s1.57,3.5,3.5,3.5s3.5,-1.57,3.5,-3.5S13.43,8,11.5,8z" fill="#748090"/>
      <polygon points="12.946,13.654 11.5,12.207 10.054,13.654 9.346,12.946 10.793,11.5 9.346,10.054 10.054,9.346 11.5,10.793 12.946,9.346 13.654,10.054 12.207,11.5 13.654,12.946" fill="#FFFFFE" stroke-linejoin="miter"/>
    </g>
  </g>
</svg>
