<?xml version="1.0" encoding="UTF-8"?>
<!DOCTYPE svg PUBLIC "-//W3C//DTD SVG 1.1//EN" "http://www.w3.org/Graphics/SVG/1.1/DTD/svg11.dtd">
<svg version="1.1" id="Layer_1" xmlns="http://www.w3.org/2000/svg" xmlns:xlink="http://www.w3.org/1999/xlink" x="0px" y="0px" width="16px" height="16px" viewBox="0 0 16 16" enable-background="new 0 0 16 16" xml:space="preserve">
  <g id="main">
    <g id="icon">
      <path d="M10.88,5.782L11.27,6.116L11.62,6.498L11.91,6.922L12.15,7.383L12.33,7.876L12.44,8.397L12.47,8.941L12.44,9.441L12.47,9.941L12.39,10.73L12.15,11.49L12.47,11.83L13.04,12.63L13.49,13.5L15.5,13.5L15.5,5.5L10.45,5.5zz" fill="#FFFFFF"/>
      <path d="M10.2,5.384L10.63,5.607L11.15,6L15,6L15,13L13.26,13L13.68,14L16,14L16,5L10.2,5zz" fill="#383838"/>
      <path d="M8.604,2.8L10.2,2.8L10.2,5.38L10.45,5.499L15.5,5.499L15.5,2.5L8.904,2.5zz" fill="#C8C6C4"/>
      <path d="M8.604,2.8L10.2,2.8L10.2,3L15,3L15,5L10.2,5L10.2,5.384L10.63,5.607L11.15,6L16,6L16,2L9.405,2zz" fill="#383838"/>
      <path d="M12,4L13,4L13,1L12,1zz" fill="#383838"/>
      <path d="M12.19,7.483L12.36,8L13,8L13,9L12.5,9L12.47,9L12.44,9.44L12.47,9.941L12.47,10L12.5,10L13,10L13,11L12.9,11L12.33,11L12.15,11.49L12.47,11.83L12.61,12L12.9,12L14,12L14,7L11.96,7zz" fill="#787979" opacity="0.4"/>
      <path d="M9.432,7.028L7.028,9.433L6.2,8.604L6.2,9.91L6.405,10.27L6.714,10.63L7.089,10.92L7.518,11.15L7.993,11.29L8.503,11.34L9.013,11.29L9.488,11.15L9.917,10.92L10.29,10.63L10.6,10.27L10.83,9.861L10.98,9.406L11.03,8.919L10.98,8.431L10.83,7.977L10.6,7.567L10.29,7.209L9.917,6.913L9.488,6.69L9.013,6.549L8.947,6.543zM4.993,10.29L4.967,10.2L4.68,10.2zM4.296,10.6L3.602,10.93L2.978,11.4L2.436,11.97L1.991,12.64L1.657,13.39L1.446,14.18L1.373,15L3.282,15L3.476,14.18L3.778,13.38L4.182,12.64L4.682,11.96L5.07,11.55L5.487,11.18L5.244,10.81L5.046,10.42zM8.034,11.42L7.629,11.5L6.864,11.78L6.171,12.23L5.568,12.81L5.07,13.51L4.694,14.29L4.456,15.13L4.373,16L12.53,16L12.45,15.13L12.21,14.29L11.83,13.51L11.33,12.81L10.73,12.23L10.04,11.78L9.273,11.5L8.868,11.42L8.451,11.39zz" fill="#FFFFFF"/>
      <path d="M9.432,7.028L9.298,7.162L9.604,7.326L9.896,7.564L10.14,7.853L10.32,8.184L10.43,8.549L10.47,8.941L10.43,9.333L10.32,9.698L10.14,10.03L9.896,10.32L9.604,10.56L9.27,10.74L8.901,10.85L8.505,10.89L8.109,10.85L7.74,10.74L7.405,10.56L7.114,10.32L6.874,10.03L6.692,9.698L6.577,9.333L6.537,8.941L6.2,8.604L6.2,10.2L5.834,10.2L5.869,10.29L6.251,10.86L6.751,11.32L5.981,11.81L5.291,12.48L4.743,13.26L4.338,14.12L4.086,15.04L4,15.98L5,15.98L5.074,15.18L5.285,14.42L5.616,13.73L6.051,13.12L6.573,12.62L7.167,12.23L7.814,11.99L8.5,11.9L9.186,11.99L9.834,12.23L10.43,12.62L10.95,13.12L11.38,13.73L11.72,14.42L11.93,15.18L12,15.98L13,15.98L12.91,15.04L12.66,14.12L12.26,13.26L11.71,12.48L11.02,11.81L10.26,11.32L10.76,10.86L11.14,10.3L11.39,9.649L11.47,8.941L11.41,8.348L11.24,7.795L10.97,7.294L10.6,6.858L10.16,6.497L9.66,6.225L9.579,6.2L8.604,6.2zM2.661,8.743L2.8,9.11L2.8,8.604zM3.751,10.32L2.981,10.81L2.291,11.48L1.743,12.26L1.338,13.12L1.086,14.04L1,14.98L2,14.98L2.069,14.21L2.265,13.48L2.575,12.8L2.983,12.21L3.475,11.7L4.035,11.3L4.649,11.03L5.302,10.91L5.02,10.36L4.97,10.2L3.625,10.2zz" fill="#238BCB"/>
    </g>
    <g id="overlay">
      <path d="M4.5,0v9M9,4.5H0M7.382,1.618L1.618,7.382M7.382,7.382L1.618,1.618" fill="none" stroke="#ED8730" stroke-width="1" stroke-miterlimit="10"/>
    </g>
  </g>
</svg>
