<?xml version="1.0" encoding="UTF-8"?>
<!DOCTYPE svg PUBLIC "-//W3C//DTD SVG 1.1//EN" "http://www.w3.org/Graphics/SVG/1.1/DTD/svg11.dtd">
<svg version="1.1" id="Layer_1" xmlns="http://www.w3.org/2000/svg" xmlns:xlink="http://www.w3.org/1999/xlink" x="0px" y="0px" width="16px" height="16px" viewBox="0 0 16 16" enable-background="new 0 0 16 16" xml:space="preserve">
  <g id="main">
    <g id="icon">
      <path d="M9.881,4.782L10.27,5.116L10.62,5.498L10.91,5.922L11.15,6.383L11.33,6.876L11.44,7.397L11.47,7.941L11.44,8.441L11.46,8.8L14.2,8.8L14.2,9.421L14.5,9.308L14.5,4.5L9.447,4.5zz" fill="#FFFFFF"/>
      <path d="M7.243,4.002L7.292,4L7.24,4zM8.409,4.097L9.045,4.302L9.628,4.607L10.15,5L14,5L14,8.8L14.2,8.8L14.2,9.421L15,9.121L15,4L7.733,4zz" fill="#383838"/>
      <path d="M2.5,3.536L2.959,3.306L3.449,3.135L3.966,3.029L4.505,2.993L5.07,3.033L5.619,3.153L6.147,3.349L6.645,3.619L7.243,4.001L7.505,3.992L8.025,4.026L8.525,4.125L9,4.284L9.447,4.499L14.5,4.499L14.5,1.5L2.5,1.5zz" fill="#C8C6C4"/>
      <path d="M2,3.882L2.476,3.55L3,3.289L3,2L14,2L14,4L7.733,4L8.409,4.097L9.045,4.302L9.628,4.607L10.15,5L15,5L15,1L2,1zM7.243,4.002L7.292,4L7.24,4zz" fill="#383838"/>
      <path d="M5,3L6,3L6,0L5,0zM11,3L12,3L12,0L11,0zz" fill="#383838"/>
      <path d="M11.19,6.483L11.36,7L12,7L12,8L11.5,8L11.47,8L11.44,8.44L11.46,8.8L13,8.8L13,6L10.96,6zz" fill="#787979" opacity="0.4"/>
      <path d="M3.993,4.549L3.518,4.69L3.089,4.913L2.714,5.209L2.405,5.567L2.172,5.977L2.024,6.431L1.973,6.919L2.012,7.347L2.127,7.751L2.308,8.123L2.551,8.458L2.847,8.748L3.191,8.988L3.575,9.17L3.8,9.234L3.8,8.8L3.852,8.8L3.803,8.63L3.738,7.941L3.772,7.438L3.87,6.955L4.029,6.497L4.243,6.068L4.509,5.672L4.822,5.313L5.177,4.996L5.571,4.726L5.058,4.559L4.503,4.5zM6.993,5.549L6.518,5.69L6.089,5.913L5.714,6.209L5.405,6.567L5.172,6.977L5.024,7.431L4.973,7.919L5.024,8.406L5.152,8.8L9.853,8.8L9.981,8.406L10.03,7.919L9.981,7.431L9.833,6.977L9.6,6.567L9.291,6.209L8.917,5.913L8.488,5.69L8.013,5.549L7.503,5.5zM3.296,9.597L2.602,9.929L1.978,10.4L1.436,10.97L0.9914,11.64L0.657,12.39L0.4463,13.18L0.373,14L2.282,14L2.476,13.18L2.778,12.38L3.182,11.64L3.682,10.96L3.8,10.83L3.8,9.477zM3.694,13.29L3.456,14.13L3.373,15L3.8,15L3.8,13.07zz" fill="#FFFFFF"/>
      <path d="M3.909,4.052L3.352,4.224L2.848,4.496L2.409,4.856L2.046,5.293L1.772,5.793L1.598,6.346L1.538,6.94L1.624,7.647L1.869,8.292L2.251,8.855L2.751,9.316L1.981,9.809L1.291,10.48L0.7434,11.26L0.3381,12.12L0.08633,13.04L0,13.98L1,13.98L1.069,13.21L1.265,12.48L1.575,11.8L1.983,11.21L2.475,10.7L3.035,10.3L3.649,10.03L3.8,10.01L3.8,8.8L3.843,8.8L3.833,8.769L3.312,8.486L2.903,8.067L2.634,7.542L2.538,6.94L2.578,6.548L2.693,6.183L2.875,5.852L3.115,5.563L3.406,5.325L3.741,5.145L4.11,5.032L4.506,4.992L5.077,5.078L5.565,4.73L6.107,4.461L5.745,4.263L5.354,4.115L4.94,4.024L4.506,3.992zM6.908,5.053L6.352,5.225L5.847,5.497L5.408,5.857L5.046,6.294L4.771,6.794L4.598,7.347L4.538,7.941L4.624,8.648L4.682,8.8L5.748,8.8L5.692,8.698L5.577,8.333L5.537,7.941L5.577,7.549L5.692,7.184L5.874,6.853L6.114,6.564L6.405,6.326L6.74,6.146L7.109,6.033L7.505,5.993L7.901,6.033L8.27,6.146L8.604,6.326L8.896,6.564L9.136,6.853L9.318,7.184L9.433,7.549L9.473,7.941L9.433,8.333L9.318,8.698L9.262,8.8L10.33,8.8L10.39,8.649L10.47,7.941L10.41,7.348L10.24,6.795L9.967,6.294L9.604,5.858L9.164,5.497L8.66,5.225L8.104,5.053L7.506,4.993zM3.743,12.26L3.338,13.12L3.086,14.04L3,14.98L3.8,14.98L3.8,12.18zz" fill="#238BCB"/>
    </g>
    <g id="overlay">
      <path d="M12.5,15.5H5.5v-5h7V15.5zM15.5,10.748l-3,1.126v2.252l3,1.126V10.748z" fill="#DFBCD9" stroke="#A0519F" stroke-width="1" stroke-linecap="round" stroke-miterlimit="10"/>
    </g>
  </g>
</svg>
