<?xml version="1.0" encoding="UTF-8"?>
<!DOCTYPE svg PUBLIC "-//W3C//DTD SVG 1.1//EN" "http://www.w3.org/Graphics/SVG/1.1/DTD/svg11.dtd">
<svg version="1.1" id="Layer_1" xmlns="http://www.w3.org/2000/svg" xmlns:xlink="http://www.w3.org/1999/xlink" x="0px" y="0px" width="16px" height="16px" viewBox="0 0 16 16" enable-background="new 0 0 16 16" xml:space="preserve">
  <g id="icon">
    <path d="M15.472,9.806l-1.697,-1.039c-0.026,-0.016,-0.04,-0.046,-0.037,-0.076c0.052,-0.457,0.051,-0.927,-0.01,-1.403c-0.004,-0.03,0.01,-0.06,0.035,-0.076l1.7,-1.115c0.032,-0.021,0.045,-0.062,0.029,-0.098l-0.826,-1.911c-0.015,-0.035,-0.054,-0.055,-0.091,-0.046l-1.926,0.463c-0.03,0.007,-0.062,-0.004,-0.081,-0.029c-0.306,-0.396,-0.662,-0.75,-1.056,-1.053c-0.024,-0.018,-0.035,-0.049,-0.029,-0.078l0.414,-1.991c0.008,-0.038,-0.013,-0.076,-0.048,-0.09L9.912,0.498c-0.036,-0.014,-0.077,-0.001,-0.097,0.032L8.777,2.226c-0.016,0.027,-0.046,0.041,-0.077,0.037c-0.46,-0.058,-0.934,-0.062,-1.415,-0.005c-0.03,0.004,-0.059,-0.01,-0.075,-0.035L6.106,0.54c-0.021,-0.032,-0.062,-0.045,-0.098,-0.029l-1.911,0.826c-0.035,0.015,-0.055,0.054,-0.046,0.091l0.451,1.874c0.007,0.031,-0.004,0.062,-0.029,0.081c-0.417,0.315,-0.788,0.683,-1.105,1.094c-0.018,0.024,-0.049,0.035,-0.078,0.029l-1.926,-0.4c-0.038,-0.008,-0.076,0.013,-0.09,0.048L0.507,6.09c-0.014,0.036,-0.001,0.077,0.032,0.097l1.631,0.999c0.027,0.016,0.041,0.047,0.037,0.078c-0.064,0.486,-0.067,0.987,-0.003,1.494c0.004,0.03,-0.01,0.059,-0.035,0.076L0.549,9.896c-0.032,0.021,-0.045,0.062,-0.029,0.098l0.826,1.911c0.015,0.035,0.054,0.055,0.091,0.046l1.822,-0.438c0.03,-0.007,0.062,0.004,0.081,0.029c0.326,0.429,0.71,0.808,1.137,1.129c0.024,0.018,0.036,0.049,0.03,0.079l-0.393,1.889c-0.008,0.038,0.013,0.076,0.048,0.09l1.935,0.767c0.036,0.014,0.077,0.001,0.097,-0.032l1,-1.633c0.016,-0.026,0.046,-0.041,0.077,-0.037c0.482,0.058,0.979,0.057,1.483,-0.012c0.03,-0.004,0.06,0.009,0.077,0.035l1.074,1.637c0.021,0.032,0.062,0.045,0.098,0.029l1.911,-0.826c0.035,-0.015,0.055,-0.054,0.046,-0.091l-0.451,-1.876c-0.007,-0.03,0.004,-0.061,0.028,-0.08c0.407,-0.318,0.77,-0.687,1.077,-1.098c0.018,-0.024,0.049,-0.036,0.079,-0.03l1.955,0.406c0.038,0.008,0.076,-0.013,0.09,-0.048l0.767,-1.935C15.518,9.867,15.504,9.826,15.472,9.806zM9.655,9.158c-0.67,0.957,-1.927,1.101,-2.803,0.49c-0.902,-0.644,-1.144,-1.878,-0.497,-2.801c0.681,-0.973,1.957,-1.1,2.821,-0.476C10.053,7.005,10.303,8.233,9.655,9.158z" fill="#C8C6C4" stroke="#383838" stroke-width="1" stroke-miterlimit="10"/>
  </g>
</svg>
