<?xml version="1.0" encoding="UTF-8"?>
<!DOCTYPE svg PUBLIC "-//W3C//DTD SVG 1.1//EN" "http://www.w3.org/Graphics/SVG/1.1/DTD/svg11.dtd">
<svg version="1.1" id="Layer_1" xmlns="http://www.w3.org/2000/svg" xmlns:xlink="http://www.w3.org/1999/xlink" x="0px" y="0px" width="16px" height="16px" viewBox="0 0 16 16" enable-background="new 0 0 16 16" xml:space="preserve">
  <g id="icon">
    <path d="M9.937,0.54C7.709,0.818,5.934,2.601,5.682,4.828c-0.098,0.868,0.033,1.696,0.34,2.434C4.634,8.642,0.591,12.607,0.591,12.607C0.533,12.666,0.5,12.745,0.5,12.828V15.5h3.177v-1.633h1.636v-1.633h1.251v-1.306l0.666,-0.681l0.232,0.245c0.121,0.122,0.312,0.125,0.437,0.007c0,0,0.335,-0.344,0.652,-0.642c0.708,0.318,1.505,0.474,2.344,0.421c2.401,-0.151,4.37,-2.042,4.585,-4.434C15.76,2.726,13.095,0.146,9.937,0.54zM11.737,5.585c-0.719,0,-1.302,-0.582,-1.302,-1.299c0,-0.717,0.583,-1.299,1.302,-1.299c0.719,0,1.302,0.582,1.302,1.299C13.039,5.003,12.456,5.585,11.737,5.585z" fill="#F7DA8E" stroke="#E57428" stroke-width="1" stroke-linecap="round" stroke-miterlimit="50"/>
  </g>
</svg>
