<?xml version="1.0" encoding="UTF-8"?>
<!DOCTYPE svg PUBLIC "-//W3C//DTD SVG 1.1//EN" "http://www.w3.org/Graphics/SVG/1.1/DTD/svg11.dtd">
<svg version="1.1" id="Layer_1" xmlns="http://www.w3.org/2000/svg" xmlns:xlink="http://www.w3.org/1999/xlink" x="0px" y="0px" width="16px" height="16px" viewBox="0 0 16 16" enable-background="new 0 0 16 16" xml:space="preserve">
  <g id="main">
    <g id="icon">
      <path d="M5.454,1.275L3.992,1.966L3.167,2.271L2.3,2.525L1.406,2.712L0.5,2.815L0.5693,4.153L0.7539,5.805L1.049,7.428L1.467,8.896L1.996,10.18L2.299,10.74L2.625,11.24L3.569,12.43L4.526,13.36L5.016,13.74L5.518,14.05L6.034,14.31L6.566,14.5L6.646,14.47L6.401,14.04L6.145,13.45L5.956,12.83L5.84,12.18L5.8,11.5L5.829,10.92L5.916,10.35L6.057,9.807L6.249,9.283L6.489,8.785L6.775,8.315L7.103,7.876L7.471,7.471L7.876,7.103L8.315,6.775L8.785,6.489L9.283,6.249L9.807,6.057L10.35,5.916L10.92,5.829L11.5,5.8L12.18,5.84L12.35,5.871L12.36,5.805L12.55,4.153L12.62,2.815L11.71,2.712L10.82,2.525L9.955,2.271L9.133,1.966L7.675,1.275L6.566,0.5881zz" fill="#D9D9D9"/>
      <path d="M6.303,0.1627L5.216,0.8346L3.798,1.504L3.01,1.795L2.18,2.039L1.327,2.218L0.4436,2.318L-0,2.369L0,2.829L0.0005859,2.841L0.06992,4.178L0.0707,4.193L0.07227,4.208L0.257,5.861L0.259,5.878L0.2621,5.895L0.5574,7.517L0.5617,7.541L0.5684,7.564L0.9861,9.033L0.9939,9.061L1.005,9.087L1.534,10.37L1.544,10.39L1.556,10.42L1.859,10.98L1.869,10.99L1.88,11.01L2.206,11.51L2.219,11.53L2.234,11.55L3.178,12.74L3.197,12.76L3.219,12.78L4.177,13.72L4.198,13.74L4.222,13.76L4.712,14.13L4.731,14.15L4.751,14.16L5.253,14.48L5.274,14.49L5.297,14.5L5.813,14.75L5.837,14.77L5.862,14.78L6.395,14.97L6.566,15.03L6.738,14.97L6.938,14.9L6.72,14.6L6.401,14.04L6.331,13.88L6.23,13.84L5.762,13.61L5.3,13.32L4.854,12.98L3.941,12.09L3.03,10.94L2.729,10.48L2.448,9.963L1.94,8.732L1.537,7.313L1.249,5.734L1.068,4.11L1.024,3.259L1.462,3.209L1.486,3.206L1.508,3.201L2.403,3.014L2.422,3.01L2.441,3.005L3.308,2.75L3.324,2.745L3.34,2.739L4.165,2.435L4.186,2.427L4.206,2.418L5.668,1.727L5.694,1.715L5.717,1.7L6.566,1.176L7.412,1.7L7.435,1.714L7.461,1.727L8.918,2.418L8.938,2.427L8.959,2.435L9.781,2.739L9.797,2.745L9.814,2.75L10.68,3.004L10.7,3.01L10.72,3.014L11.61,3.201L11.63,3.206L11.66,3.209L12.09,3.259L12.05,4.111L11.87,5.734L11.85,5.821L12.18,5.84L12.83,5.956L12.84,5.961L12.86,5.894L12.86,5.878L12.86,5.86L13.05,4.208L13.05,4.193L13.05,4.179L13.12,2.841L13.14,2.371L12.67,2.318L11.79,2.218L10.94,2.04L10.11,1.796L9.328,1.505L7.914,0.8346L6.829,0.1629L6.566,0zz" fill="#959595"/>
    </g>
    <g id="overlay">
      <path d="M11.5,7.5c-2.209,0,-4,1.791,-4,4c0,2.209,1.791,4,4,4s4,-1.791,4,-4C15.5,9.291,13.709,7.5,11.5,7.5zM10.714,14.007l-2.01,-2.01l0.707,-0.707l1.303,1.303l2.932,-2.932l0.707,0.707L10.714,14.007z" fill="#D3D3D3"/>
      <path d="M11.5,7.5c-2.209,0,-4,1.791,-4,4c0,2.209,1.791,4,4,4s4,-1.791,4,-4C15.5,9.291,13.709,7.5,11.5,7.5zM10.714,14.007l-2.01,-2.01l0.707,-0.707l1.303,1.303l2.932,-2.932l0.707,0.707L10.714,14.007z" fill="#969696" opacity="0.2"/>
      <path d="M11.5,16c-2.481,0,-4.5,-2.019,-4.5,-4.5s2.019,-4.5,4.5,-4.5s4.5,2.019,4.5,4.5S13.981,16,11.5,16zM11.5,8c-1.93,0,-3.5,1.57,-3.5,3.5s1.57,3.5,3.5,3.5s3.5,-1.57,3.5,-3.5S13.43,8,11.5,8z" fill="#969696"/>
      <polygon points="10.714,14.007 8.704,11.997 9.411,11.29 10.714,12.593 13.646,9.661 14.353,10.368" fill="#EFEFEF" stroke-linejoin="miter"/>
    </g>
  </g>
</svg>
