<?xml version="1.0" encoding="UTF-8"?>
<!DOCTYPE svg PUBLIC "-//W3C//DTD SVG 1.1//EN" "http://www.w3.org/Graphics/SVG/1.1/DTD/svg11.dtd">
<svg version="1.1" id="Layer_1" xmlns="http://www.w3.org/2000/svg" xmlns:xlink="http://www.w3.org/1999/xlink" x="0px" y="0px" width="16px" height="16px" viewBox="0 0 16 16" enable-background="new 0 0 16 16" xml:space="preserve">
  <g id="main">
    <g id="icon">
      <path d="M5.492,1.286L4.018,1.977L3.187,2.281L2.313,2.535L1.413,2.722L0.5,2.825L0.5699,4.161L0.7561,5.812L1.054,7.433L1.475,8.901L2.008,10.18L2.312,10.74L2.641,11.24L3.592,12.43L4.556,13.36L5.05,13.74L5.556,14.05L6.076,14.31L6.612,14.5L6.654,14.48L6.401,14.04L6.145,13.45L5.956,12.83L5.84,12.18L5.8,11.5L5.829,10.92L5.916,10.35L6.057,9.807L6.249,9.283L6.489,8.785L6.775,8.315L7.103,7.876L7.471,7.471L7.876,7.103L8.315,6.775L8.785,6.489L9.283,6.249L9.807,6.057L10.35,5.916L10.92,5.829L11.5,5.8L12.18,5.84L12.44,5.887L12.45,5.812L12.64,4.161L12.71,2.825L11.8,2.722L10.9,2.535L10.03,2.281L9.198,1.977L7.729,1.286L6.612,0.6zz" fill="#FFFFFE"/>
      <path d="M6.351,0.1736L5.254,0.8451L3.826,1.514L3.031,1.806L2.191,2.05L1.335,2.228L0.4439,2.328L-0,2.378L0,2.84L0.0005859,2.851L0.07051,4.187L0.07129,4.202L0.07305,4.217L0.2592,5.868L0.2611,5.885L0.2643,5.902L0.5617,7.523L0.5662,7.547L0.5729,7.571L0.9939,9.038L1.002,9.066L1.013,9.093L1.546,10.37L1.556,10.4L1.569,10.42L1.873,10.98L1.883,11L1.895,11.02L2.223,11.52L2.236,11.54L2.251,11.55L3.202,12.74L3.221,12.77L3.244,12.79L4.208,13.72L4.23,13.74L4.254,13.76L4.748,14.14L4.767,14.15L4.787,14.16L5.292,14.48L5.314,14.49L5.337,14.5L5.856,14.76L5.88,14.77L5.906,14.78L6.442,14.97L6.612,15.03L6.782,14.97L6.948,14.91L6.72,14.6L6.401,14.04L6.323,13.86L6.27,13.84L5.798,13.61L5.334,13.33L4.883,12.98L3.962,12.09L3.047,10.95L2.742,10.48L2.459,9.965L1.947,8.735L1.541,7.318L1.251,5.739L1.068,4.118L1.024,3.269L1.469,3.219L1.492,3.216L1.514,3.212L2.415,3.025L2.434,3.021L2.453,3.015L3.327,2.761L3.343,2.756L3.359,2.75L4.19,2.446L4.211,2.438L4.23,2.429L5.704,1.739L5.729,1.727L5.753,1.712L6.612,1.187L7.468,1.712L7.491,1.727L7.516,1.738L8.985,2.429L9.005,2.438L9.025,2.446L9.854,2.75L9.87,2.756L9.886,2.761L10.76,3.015L10.78,3.021L10.8,3.025L11.7,3.212L11.72,3.216L11.74,3.219L12.18,3.269L12.14,4.118L11.96,5.739L11.94,5.826L12.18,5.84L12.83,5.956L12.93,5.987L12.94,5.902L12.95,5.885L12.95,5.868L13.14,4.217L13.14,4.202L13.14,4.187L13.21,2.851L13.23,2.381L12.77,2.328L11.88,2.228L11.02,2.049L10.18,1.805L9.392,1.515L7.967,0.8455L6.874,0.1738L6.612,0.01348zz" fill="#697483"/>
    </g>
    <g id="overlay">
      <path d="M11.5,7.5c-2.209,0,-4,1.791,-4,4c0,2.209,1.791,4,4,4s4,-1.791,4,-4C15.5,9.291,13.709,7.5,11.5,7.5zM14,12H9v-1h5V12z" fill="#D6DADF"/>
      <path d="M11.5,7.5c-2.209,0,-4,1.791,-4,4c0,2.209,1.791,4,4,4s4,-1.791,4,-4C15.5,9.291,13.709,7.5,11.5,7.5zM14,12H9v-1h5V12z" fill="#748090" opacity="0.2"/>
      <path d="M11.5,16c-2.481,0,-4.5,-2.019,-4.5,-4.5s2.019,-4.5,4.5,-4.5s4.5,2.019,4.5,4.5S13.981,16,11.5,16zM11.5,8c-1.93,0,-3.5,1.57,-3.5,3.5s1.57,3.5,3.5,3.5s3.5,-1.57,3.5,-3.5S13.43,8,11.5,8z" fill="#748090"/>
      <rect x="9" y="11" width="5" height="1" fill="#FFFFFE"/>
    </g>
  </g>
</svg>
