<?xml version="1.0" encoding="UTF-8"?>
<!DOCTYPE svg PUBLIC "-//W3C//DTD SVG 1.1//EN" "http://www.w3.org/Graphics/SVG/1.1/DTD/svg11.dtd">
<svg version="1.1" id="Layer_1" xmlns="http://www.w3.org/2000/svg" xmlns:xlink="http://www.w3.org/1999/xlink" x="0px" y="0px" width="16px" height="16px" viewBox="0 0 16 16" enable-background="new 0 0 16 16" xml:space="preserve">
  <g id="icon">
    <path d="M12.654,8.413c0,-2.136,1.761,-3.024,1.761,-3.024s-1.247,-1.621,-2.931,-1.621c-1.606,0,-2.182,0.717,-3.274,0.717c-0.951,0,-1.574,-0.717,-2.946,-0.717c-1.403,0,-4.115,1.325,-4.115,4.988c0,2.541,2.136,7.217,4.427,7.217c1.528,0,1.231,-0.701,2.837,-0.701c1.543,0,1.496,0.702,2.681,0.702c2.011,0,3.788,-4.21,3.788,-4.21S12.654,10.876,12.654,8.413zM11.002,0.026C7.448,0.712,7.806,3.861,7.806,3.861C11.376,3.658,11.002,0.026,11.002,0.026z" fill="#797979"/>
  </g>
</svg>
