<?xml version="1.0" encoding="UTF-8"?>
<!DOCTYPE svg PUBLIC "-//W3C//DTD SVG 1.1//EN" "http://www.w3.org/Graphics/SVG/1.1/DTD/svg11.dtd">
<svg version="1.1" id="Layer_1" xmlns="http://www.w3.org/2000/svg" xmlns:xlink="http://www.w3.org/1999/xlink" x="0px" y="0px" width="16px" height="16px" viewBox="0 0 16 16" enable-background="new 0 0 16 16" xml:space="preserve">
  <g id="icon">
    <path d="M15.5,3.5v10h-5.109c0.005,-0.012,0.011,-0.026,0.016,-0.038l0.461,-1.092c0.074,-0.174,-0.01,-0.375,-0.186,-0.445l-1.085,-0.432c-0.091,-0.043,-0.459,-0.245,-0.459,-0.698c0,-0.343,0.23,-0.512,0.296,-0.554l1.23,-0.62c0.189,-0.095,0.245,-0.34,0.116,-0.508L9.924,8c-0.092,-0.119,-0.731,-0.917,-1.748,-1.337c0.155,-0.673,0.108,-1.224,0.099,-1.318l-0.127,-1.23c-0.022,-0.215,-0.224,-0.365,-0.436,-0.324l-1.213,0.234c-1.692,0.326,-2.606,1.342,-2.99,2.407c-0.145,-0.018,-0.299,-0.028,-0.464,-0.028c-0.174,0,-0.356,0.017,-0.544,0.051V3.5H15.5z" fill="#FFFFFF"/>
    <path d="M16,3v11h-5.838c0.099,-0.201,0.181,-0.384,0.246,-0.538l0.195,-0.462H15V4H8.114c-0.069,-0.149,-0.231,-0.241,-0.403,-0.208l-1.213,0.234c-0.175,0.034,-0.34,0.077,-0.498,0.124V4H3v2.407c-0.313,0.005,-0.654,0.063,-1,0.175V3H16z" fill="#383838"/>
    <path d="M9.924,8H14v1h-3.307L9.924,8zM9.435,10.241c-0.066,0.041,-0.296,0.211,-0.296,0.554c0,0.075,0.011,0.143,0.028,0.205H14v-1H9.912L9.435,10.241zM8.276,6c-0.015,0.195,-0.044,0.421,-0.1,0.663c0.234,0.097,0.446,0.213,0.638,0.337H14V6H8.276z" fill="#787979"/>
    <rect x="2.5" y="0.5" width="13" height="3" fill="#92CBEE"/>
    <path d="M16,4H2V0h14V4zM3,3h12V1H3V3z" fill="#0964B0"/>
    <path d="M14,2.5h-1V1.5h1V2.5zM12,1.5h-1v1h1V1.5zM10,1.5H9v1h1V1.5z" fill="#383838"/>
    <path d="M7.639,10.795c0,-1.328,1.096,-1.881,1.096,-1.881s-0.776,-1.008,-1.823,-1.008c-0.999,0,-1.357,0.446,-2.036,0.446c-0.591,0,-0.979,-0.446,-1.832,-0.446c-0.873,0,-2.559,0.824,-2.559,3.102c0,1.58,1.328,4.489,2.753,4.489c0.95,0,0.766,-0.436,1.764,-0.436c0.96,0,0.931,0.437,1.668,0.437c1.251,0,2.356,-2.618,2.356,-2.618S7.639,12.326,7.639,10.795zM6.783,5.499c-2.21,0.427,-1.987,2.385,-1.987,2.385C7.015,7.758,6.783,5.499,6.783,5.499z" fill="#C8C6C4" stroke="#383838" stroke-width="1" stroke-linecap="round" stroke-miterlimit="10"/>
  </g>
</svg>
