<?xml version="1.0" encoding="UTF-8"?>
<!DOCTYPE svg PUBLIC "-//W3C//DTD SVG 1.1//EN" "http://www.w3.org/Graphics/SVG/1.1/DTD/svg11.dtd">
<svg version="1.1" id="Layer_1" xmlns="http://www.w3.org/2000/svg" xmlns:xlink="http://www.w3.org/1999/xlink" x="0px" y="0px" width="16px" height="16px" viewBox="0 0 16 16" enable-background="new 0 0 16 16" xml:space="preserve">
  <g id="icon">
    <path d="M9.931,13.53c0,1.193,-0.989,1.97,-2.135,1.97c-1.146,0,-2.105,-0.777,-2.105,-1.97" fill="#C8C6C4" stroke="#383838" stroke-width="1" stroke-linecap="round" stroke-miterlimit="50"/>
    <path d="M15.378,11.93c-1.081,-1.16,-2.905,-3.674,-2.905,-5.613c0,-1.832,-1.226,-3.394,-2.947,-3.998c0.015,-0.087,0.024,-0.176,0.024,-0.267C9.55,1.194,8.874,0.5,8.041,0.5s-1.509,0.694,-1.509,1.551c0,0.071,0.006,0.14,0.015,0.209C4.733,2.815,3.42,4.421,3.42,6.317c0,2.714,-1.8,4.369,-2.81,5.662C-0.409,13.033,5.941,13.5,7.994,13.5S16.459,13.09,15.378,11.93z" fill="#F7DA8E" stroke="#E57428" stroke-width="1" stroke-linecap="round" stroke-miterlimit="50"/>
  </g>
</svg>
