<?xml version="1.0" encoding="UTF-8"?>
<!DOCTYPE svg PUBLIC "-//W3C//DTD SVG 1.1//EN" "http://www.w3.org/Graphics/SVG/1.1/DTD/svg11.dtd">
<svg version="1.1" id="Layer_1" xmlns="http://www.w3.org/2000/svg" xmlns:xlink="http://www.w3.org/1999/xlink" x="0px" y="0px" width="16px" height="16px" viewBox="0 0 16 16" enable-background="new 0 0 16 16" xml:space="preserve">
  <g id="main">
    <g id="icon">
      <path d="M5.846,0.5748L5.161,0.7893L4.541,1.129L4.001,1.578L3.555,2.123L3.219,2.748L3.006,3.439L2.932,4.181L3.006,4.927L3.219,5.628L3.555,6.269L4.001,6.83L4.541,7.297L5.161,7.651L5.846,7.876L6.581,7.955L7.316,7.876L8.001,7.651L8.621,7.297L9.161,6.83L9.607,6.269L9.943,5.628L10.16,4.927L10.23,4.181L10.16,3.439L9.943,2.748L9.607,2.123L9.161,1.578L8.621,1.129L8.001,0.7893L7.316,0.5748L6.581,0.5zM5.999,8.02L5.405,8.135L4.829,8.321L4.274,8.574L3.743,8.887L3.239,9.257L2.766,9.679L2.329,10.15L1.929,10.66L1.571,11.2L1.259,11.78L0.9949,12.39L0.7838,13.01L0.6285,13.66L0.5326,14.31L0.5,14.98L5.8,14.98L5.8,14.09L5.836,13.73L5.941,13.39L6.111,13.08L6.34,12.8L8.573,10.6L8.547,10.12L8.575,9.637L8.72,8.933L8.872,8.548L8.376,8.321L7.802,8.135L7.211,8.02L6.605,7.98zz" fill="#FFFFFF"/>
      <path d="M6.53,0.002539L5.795,0.07734L5.745,0.08242L5.696,0.09766L5.011,0.3121L4.964,0.327L4.921,0.3508L4.301,0.69L4.258,0.7133L4.221,0.7443L3.681,1.194L3.644,1.224L3.614,1.262L3.168,1.806L3.138,1.844L3.115,1.886L2.779,2.511L2.755,2.554L2.741,2.601L2.528,3.292L2.514,3.34L2.509,3.389L2.435,4.131L2.429,4.181L2.434,4.23L2.509,4.976L2.513,5.025L2.528,5.072L2.74,5.773L2.754,5.819L2.776,5.861L3.113,6.501L3.134,6.543L3.163,6.579L3.609,7.141L3.638,7.178L3.674,7.209L4.214,7.675L4.251,7.707L4.293,7.731L4.571,7.89L4.067,8.118L4.043,8.129L4.02,8.143L3.489,8.457L3.467,8.469L3.447,8.484L2.943,8.854L2.924,8.868L2.906,8.884L2.434,9.305L2.417,9.32L2.401,9.337L1.963,9.804L1.949,9.821L1.935,9.838L1.536,10.35L1.522,10.36L1.511,10.38L1.153,10.93L1.141,10.95L1.131,10.96L0.8188,11.54L0.8086,11.56L0.8002,11.58L0.5365,12.19L0.5279,12.21L0.5211,12.23L0.3098,12.85L0.3027,12.87L0.2977,12.9L0.1424,13.54L0.1369,13.56L0.1336,13.58L0.03789,14.24L0.03457,14.27L0.0334,14.29L0.0005859,14.95L-0,14.97L0,15.48L0.5,15.48L5.8,15.48L5.8,14.48L1.025,14.48L1.031,14.36L1.12,13.75L1.264,13.15L1.462,12.57L1.709,12L2.001,11.46L2.335,10.95L2.709,10.47L3.117,10.04L3.553,9.647L4.019,9.305L4.505,9.018L5.01,8.788L5.531,8.62L6.062,8.517L6.605,8.481L7.147,8.516L7.675,8.62L8.195,8.788L8.696,9.017L8.702,9.021L8.72,8.933L8.98,8.274L9.088,8.097L8.611,7.879L8.869,7.731L8.911,7.707L8.948,7.675L9.488,7.209L9.524,7.178L9.553,7.141L9.998,6.579L10.03,6.543L10.05,6.501L10.39,5.861L10.41,5.819L10.42,5.773L10.63,5.072L10.65,5.025L10.65,4.976L10.73,4.23L10.73,4.181L10.73,4.131L10.65,3.389L10.65,3.34L10.63,3.292L10.42,2.601L10.41,2.554L10.38,2.511L10.05,1.886L10.02,1.844L9.994,1.806L9.548,1.262L9.518,1.224L9.481,1.194L8.941,0.7443L8.904,0.7133L8.861,0.69L8.241,0.3508L8.198,0.327L8.151,0.3121L7.466,0.09766L7.417,0.08242L7.367,0.07734L6.632,0.002539L6.606,0L6.556,0zM7.215,1.067L7.805,1.252L8.338,1.544L8.804,1.932L9.189,2.402L9.479,2.942L9.663,3.539L9.728,4.181L9.663,4.828L9.479,5.438L9.186,5.995L8.799,6.482L8.33,6.887L7.797,7.192L7.21,7.385L6.581,7.452L5.952,7.385L5.364,7.192L4.831,6.887L4.363,6.482L3.976,5.994L3.683,5.438L3.499,4.829L3.434,4.181L3.499,3.538L3.682,2.942L3.972,2.403L4.358,1.932L4.823,1.544L5.357,1.252L5.946,1.067L6.581,1.003zz" fill="#383838"/>
      <path d="M6.195,10.33L5.92,13.46L5.941,13.39L6.111,13.08L6.34,12.8L7.158,11.99L7.013,10.34L7.423,9.013L5.785,9.013zM5.785,15L5.8,15L5.8,14.83zz" fill="#78797A"/>
    </g>
    <g id="overlay">
      <path d="M12.528,7.54c-1.212,0.148,-2.177,1.099,-2.314,2.286c-0.053,0.463,0.018,0.904,0.185,1.298C9.644,11.86,7.5,13.974,7.5,13.974c-0.032,0.031,-0.05,0.074,-0.05,0.118v1.358h2v-0.9h1v-1.238l0.39,-0.383l0.126,0.131c0.066,0.065,0.17,0.067,0.238,0.004c0,0,0.398,-0.397,0.571,-0.555c0.385,0.169,0.819,0.253,1.275,0.224c1.306,-0.08,2.376,-1.089,2.493,-2.364C15.694,8.706,14.245,7.33,12.528,7.54zM13.338,10.311c-0.383,0,-0.694,-0.31,-0.694,-0.693c0,-0.383,0.311,-0.693,0.694,-0.693c0.383,0,0.694,0.31,0.694,0.693C14.032,10.001,13.721,10.311,13.338,10.311z" fill="#F7DA8E" stroke="#E57428" stroke-width="0.9" stroke-linecap="round" stroke-miterlimit="10"/>
    </g>
  </g>
</svg>
