<?xml version="1.0" encoding="UTF-8"?>
<!DOCTYPE svg PUBLIC "-//W3C//DTD SVG 1.1//EN" "http://www.w3.org/Graphics/SVG/1.1/DTD/svg11.dtd">
<svg version="1.1" id="Layer_1" xmlns="http://www.w3.org/2000/svg" xmlns:xlink="http://www.w3.org/1999/xlink" x="0px" y="0px" width="16px" height="16px" viewBox="0 0 16 16" enable-background="new 0 0 16 16" xml:space="preserve">
  <g id="main">
    <g id="icon">
      <path d="M9.433,1.972L8.604,2.8L10.2,2.8L10.2,6.2L8.604,6.2L9.432,7.028L7.028,9.433L6.2,8.604L6.2,10.2L2.8,10.2L2.8,8.604L1.972,9.432L1.5,8.96L1.5,13.28L3.764,15.5L15.5,15.5L15.5,1.5L8.961,1.5zz" fill="#DFBCD9"/>
      <path d="M9.433,1.972L9.405,2L15,2L15,15L3.968,15L2,13.07L2,9.404L1.972,9.432L1,8.46L1,13.28L1,13.49L1.15,13.64L3.414,15.86L3.56,16L3.764,16L15.5,16L16,16L16,15.5L16,1.5L16,1L15.5,1L8.461,1zz" fill="#A0519F"/>
      <path d="M5.5,15.5L11.5,15.5L11.5,10.5L5.5,10.5zz" fill="#FFFFFF"/>
      <path d="M6.2,10.2L5,10.2L5,10.5L5,15.5L5,16L5.5,16L11.5,16L12,16L12,15.5L12,10.5L12,10L11.5,10L6.2,10zM11,11L11,15L6,15L6,11zz" fill="#A0519F"/>
      <path d="M7,14L8,14L8,12L7,12zz" fill="#787979"/>
      <path d="M9.433,1.972L8.604,2.8L10.2,2.8L10.2,6.2L8.604,6.2L9.432,7.028L8.96,7.5L12.5,7.5L12.5,1.5L8.961,1.5zz" fill="#FFFFFF"/>
      <path d="M9.433,1.972L9.405,2L12,2L12,7L9.404,7L9.432,7.028L8.46,8L12.5,8L13,8L13,7.5L13,1.5L13,1L12.5,1L8.461,1zz" fill="#A0519F"/>
    </g>
    <g id="overlay">
      <path d="M4.5,0v9M9,4.5H0M7.382,1.618L1.618,7.382M7.382,7.382L1.618,1.618" fill="none" stroke="#ED8730" stroke-width="1" stroke-miterlimit="10"/>
    </g>
  </g>
</svg>
