<?xml version="1.0" encoding="UTF-8"?>
<!DOCTYPE svg PUBLIC "-//W3C//DTD SVG 1.1//EN" "http://www.w3.org/Graphics/SVG/1.1/DTD/svg11.dtd">
<svg version="1.1" id="Layer_1" xmlns="http://www.w3.org/2000/svg" xmlns:xlink="http://www.w3.org/1999/xlink" x="0px" y="0px" width="16px" height="16px" viewBox="0 0 16 16" enable-background="new 0 0 16 16" xml:space="preserve">
  <g id="main">
    <g id="icon">
      <path d="M0.5,14.5L6.092,14.5L8.255,12.34L8.085,11.89L7.963,11.43L7.889,10.95L7.864,10.47L7.959,9.527L8.231,8.651L8.662,7.859L9.233,7.168L9.924,6.598L10.72,6.167L11.59,5.895L12.53,5.8L13.04,5.828L13.53,5.908L14.01,6.039L14.46,6.218L14.5,6.238L14.5,3.5L0.5,3.5zz" fill="#FFFFFF"/>
      <path d="M0,3.5L0,14.5L0,15L0.5,15L5.592,15L6.592,14L1,14L1,4L14,4L14,6.037L14.01,6.039L14.46,6.218L14.89,6.44L15,6.513L15,3.5L15,3L14.5,3L0.5,3L0,3zz" fill="#383838"/>
      <path d="M0.5,3.5L14.5,3.5L14.5,0.5L0.5,0.5zz" fill="#92CBEE"/>
      <path d="M0,0.5L0,3.5L0,4L0.5,4L14.5,4L15,4L15,3.5L15,0.5L15,0L14.5,0L0.5,0L0,0zM14,1L14,3L1,3L1,1zz" fill="#0964B0"/>
      <path d="M3,7L9.437,7L9.924,6.598L10.72,6.167L11.25,6L3,6zz" fill="#787979"/>
      <path d="M3,9L8.123,9L8.231,8.651L8.586,8L3,8zz" fill="#787979"/>
      <path d="M3,11L7.896,11L7.889,10.95L7.864,10.47L7.911,10L3,10zz" fill="#787979"/>
    </g>
    <g id="overlay">
      <path d="M12.532,13.43c-1.638,0,-2.966,-1.327,-2.966,-2.964s1.328,-2.964,2.966,-2.964s2.966,1.327,2.966,2.964S14.17,13.43,12.532,13.43zM7.355,15.645l3.06,-3.06" fill="#FFFFFF"/>
      <path d="M7.711,16L7,15.289l2.752,-2.752c-0.432,-0.578,-0.688,-1.295,-0.688,-2.071c0,-1.911,1.556,-3.466,3.468,-3.466S16,8.555,16,10.466s-1.556,3.466,-3.468,3.466c-0.774,0,-1.491,-0.255,-2.068,-0.685L7.711,16zM12.532,8.005c-1.358,0,-2.463,1.104,-2.463,2.461s1.105,2.461,2.463,2.461s2.463,-1.104,2.463,-2.461S13.89,8.005,12.532,8.005z" fill="#238BCB"/>
    </g>
  </g>
</svg>
