<?xml version="1.0" encoding="UTF-8"?>
<!DOCTYPE svg PUBLIC "-//W3C//DTD SVG 1.1//EN" "http://www.w3.org/Graphics/SVG/1.1/DTD/svg11.dtd">
<svg version="1.1" id="Layer_1" xmlns="http://www.w3.org/2000/svg" xmlns:xlink="http://www.w3.org/1999/xlink" x="0px" y="0px" width="16px" height="16px" viewBox="0 0 16 16" enable-background="new 0 0 16 16" xml:space="preserve">
  <g id="main">
    <g id="icon">
      <path d="M8.5,6.5L14.5,6.5L14.5,0.5L8.5,0.5zM0.5,14.5L6.5,14.5L6.5,8.5L0.5,8.5zz" fill="#B8BEC7"/>
      <path d="M8,0.5L8,6.5L8,6.8L15,6.8L15,6.5L15,0.5L15,0L14.5,0L8.5,0L8,0zM14,1L14,6L9,6L9,1zM0,8.5L0,14.5L0,15L0.5,15L6.5,15L6.8,15L6.8,8L6.5,8L0.5,8L0,8zM6,9L6,14L1,14L1,9zz" fill="#525A66"/>
      <path d="M0.5,6.5L6.5,6.5L6.5,0.5L0.5,0.5zz" fill="#B8BEC7"/>
      <path d="M0,0.5L0,6.5L0,7L0.5,7L6.5,7L6.8,7L6.8,6.8L7,6.8L7,6.5L7,0.5L7,0L6.5,0L0.5,0L0,0zM6,1L6,6L1,6L1,1zz" fill="#525A66"/>
    </g>
    <g id="overlay">
      <rect x="8.5" y="8.5" width="7" height="7" fill="#FFFFFF" stroke="#383838" stroke-width="1" stroke-miterlimit="10"/>
      <polyline points="9.775,11.699 11.451,13.4 14.277,10.574" fill="none" stroke="#228BCB" stroke-width="1" stroke-miterlimit="10" stroke-linejoin="miter"/>
    </g>
  </g>
</svg>
