<?xml version="1.0" encoding="UTF-8"?>
<!DOCTYPE svg PUBLIC "-//W3C//DTD SVG 1.1//EN" "http://www.w3.org/Graphics/SVG/1.1/DTD/svg11.dtd">
<svg version="1.1" id="Layer_1" xmlns="http://www.w3.org/2000/svg" xmlns:xlink="http://www.w3.org/1999/xlink" x="0px" y="0px" width="16px" height="16px" viewBox="0 0 16 16" enable-background="new 0 0 16 16" xml:space="preserve">
  <g id="main">
    <g id="icon">
      <path d="M6.784,0.5361L6.089,0.642L5.418,0.8143L4.775,1.049L4.163,1.344L3.586,1.694L3.047,2.097L2.55,2.548L2.098,3.045L1.696,3.583L1.345,4.159L1.05,4.77L0.8146,5.413L0.6422,6.083L0.5361,6.777L0.5,7.492L0.5361,8.207L0.6422,8.901L0.8146,9.571L1.05,10.21L1.345,10.82L1.696,11.4L2.098,11.94L2.55,12.44L3.047,12.89L3.586,13.29L4.163,13.64L4.775,13.93L5.418,14.17L6.089,14.34L6.784,14.45L7.5,14.48L8,14.46L8,13.99L7.477,13.7L7.035,13.3L6.969,13.34L6.999,13.26L6.727,12.88L6.523,12.45L6.396,11.99L6.351,11.5L6.396,11.01L6.526,10.54L6.733,10.12L7.008,9.736L6.984,9.667L7.037,9.701L7.546,9.257L8.154,8.948L8.329,8.686L8.339,8.627L8.369,8.632L9.024,7.91L9.805,7.335L10.69,6.924L11.16,6.786L11.65,6.696L12.06,6.341L12.54,6.075L13.06,5.907L13.63,5.849L14,5.875L14.32,5.941L14.19,5.413L13.95,4.77L13.66,4.159L13.3,3.583L12.9,3.045L12.45,2.548L11.95,2.097L11.41,1.694L10.84,1.344L10.22,1.049L9.582,0.8143L8.911,0.642L8.216,0.5361L7.5,0.5zz" fill="#FFFFFF"/>
      <path d="M7.475,0.0005859L6.759,0.03672L6.734,0.03809L6.709,0.0418L6.014,0.1479L5.989,0.1516L5.965,0.1578L5.294,0.3301L5.27,0.3363L5.247,0.3447L4.604,0.5799L4.581,0.5883L4.558,0.5988L3.947,0.8934L3.925,0.9039L3.904,0.9164L3.327,1.267L3.306,1.279L3.287,1.294L2.748,1.696L2.729,1.71L2.711,1.726L2.214,2.178L2.196,2.194L2.18,2.211L1.729,2.708L1.712,2.726L1.698,2.745L1.295,3.283L1.281,3.302L1.268,3.323L0.9176,3.899L0.9051,3.92L0.8945,3.942L0.5998,4.553L0.5891,4.575L0.5807,4.598L0.3453,5.241L0.3367,5.264L0.3305,5.288L0.158,5.958L0.1518,5.983L0.148,6.007L0.0418,6.702L0.03809,6.727L0.03672,6.752L0.0005859,7.467L-0,7.479L0,7.505L0.0005859,7.517L0.03672,8.232L0.03809,8.257L0.0418,8.282L0.148,8.977L0.1518,9.002L0.158,9.026L0.3305,9.696L0.3367,9.72L0.3453,9.743L0.5807,10.39L0.5891,10.41L0.5998,10.43L0.8945,11.04L0.9051,11.06L0.9176,11.08L1.268,11.66L1.281,11.68L1.295,11.7L1.698,12.24L1.712,12.26L1.729,12.28L2.18,12.77L2.196,12.79L2.214,12.81L2.711,13.26L2.729,13.27L2.748,13.29L3.287,13.69L3.306,13.7L3.327,13.72L3.904,14.07L3.925,14.08L3.947,14.09L4.558,14.39L4.581,14.4L4.604,14.4L5.247,14.64L5.27,14.65L5.294,14.65L5.965,14.83L5.989,14.83L6.014,14.84L6.709,14.94L6.734,14.95L6.759,14.95L7.475,14.98L7.5,14.98L7.525,14.98L8,14.96L8,13.99L7.944,13.96L7.5,13.98L6.836,13.95L6.19,13.85L5.567,13.69L4.969,13.47L4.401,13.2L3.866,12.87L3.365,12.5L2.904,12.08L2.484,11.62L2.11,11.12L1.785,10.59L1.511,10.02L1.293,9.422L1.133,8.802L1.034,8.156L1.001,7.492L1.034,6.828L1.133,6.182L1.293,5.562L1.511,4.965L1.785,4.397L2.11,3.863L2.484,3.364L2.904,2.902L3.365,2.483L3.866,2.109L4.401,1.785L4.969,1.511L5.567,1.292L6.19,1.132L6.835,1.034L7.5,1.001L8.165,1.034L8.81,1.132L9.433,1.292L10.03,1.511L10.6,1.785L11.13,2.109L11.63,2.483L12.1,2.902L12.52,3.364L12.89,3.863L13.21,4.397L13.49,4.965L13.71,5.562L13.78,5.86L14,5.875L14.36,5.95L14.88,6.172L14.85,6.007L14.85,5.983L14.84,5.958L14.67,5.288L14.66,5.264L14.65,5.241L14.42,4.598L14.41,4.575L14.4,4.553L14.11,3.942L14.09,3.92L14.08,3.899L13.73,3.323L13.72,3.302L13.7,3.283L13.3,2.745L13.29,2.726L13.27,2.708L12.82,2.211L12.8,2.194L12.79,2.178L12.29,1.726L12.27,1.71L12.25,1.696L11.71,1.294L11.69,1.279L11.67,1.267L11.1,0.9164L11.08,0.9039L11.05,0.8934L10.44,0.5988L10.42,0.5883L10.4,0.5799L9.753,0.3447L9.73,0.3363L9.706,0.3301L9.035,0.1578L9.011,0.1516L8.986,0.1479L8.291,0.0418L8.266,0.03809L8.241,0.03672L7.525,0.0005859L7.512,0L7.488,0zz" fill="#383838"/>
      <path d="M6.851,0.2885L6.826,0.3016L6.804,0.317L6.423,0.5777L6.395,0.5973L6.369,0.6205L5.642,1.282L5.615,1.307L5.591,1.336L4.925,2.152L4.906,2.176L4.889,2.202L4.303,3.134L4.288,3.158L4.281,3.172L3.575,2.93L2.483,2.423L2.062,3.33L3.177,3.848L3.2,3.859L3.225,3.867L3.843,4.079L3.788,4.193L3.776,4.218L3.767,4.244L3.395,5.294L3.385,5.322L3.379,5.351L3.142,6.402L3.135,6.436L3.132,6.471L3.089,6.992L0.684,6.992L0.684,7.992L3.082,7.992L3.127,8.567L3.129,8.6L3.137,8.633L3.361,9.676L3.367,9.704L3.377,9.731L3.732,10.77L3.741,10.8L3.752,10.82L3.81,10.95L3.22,11.16L3.197,11.17L3.175,11.18L2.061,11.7L2.487,12.61L3.579,12.09L4.237,11.86L4.249,11.88L4.819,12.8L4.836,12.83L4.856,12.86L5.509,13.67L5.534,13.7L5.562,13.72L6.284,14.38L6.311,14.4L6.341,14.42L6.722,14.68L6.746,14.69L6.772,14.71L7.164,14.91L7.374,14.5L7.551,14.5L7.761,14.91L8,14.78L8,13.99L7.477,13.7L7.035,13.3L7,13.32L7,13.66L6.927,13.61L6.262,13.01L5.654,12.25L5.229,11.56L6.097,11.37L6.366,11.33L6.396,11.01L6.526,10.54L6.648,10.29L5.954,10.38L5.928,10.38L5.903,10.38L4.771,10.64L4.67,10.43L4.332,9.436L4.121,8.456L4.085,7.992L7,7.992L7,9.677L7.037,9.701L7.546,9.257L8,9.026L8,7.992L8.949,7.992L9.024,7.91L9.805,7.335L10.54,6.992L8,6.992L8,4.709L8.227,4.701L8.245,4.7L8.263,4.698L8.981,4.619L9.005,4.616L9.029,4.611L10.13,4.378L10.24,4.6L10.58,5.598L10.8,6.585L10.83,6.884L11.16,6.786L11.65,6.696L11.8,6.563L11.8,6.472L11.79,6.438L11.79,6.404L11.55,5.354L11.55,5.325L11.54,5.297L11.17,4.247L11.17,4.221L11.15,4.197L11.1,4.089L11.72,3.883L11.74,3.875L11.76,3.864L12.88,3.358L12.47,2.448L11.38,2.943L10.67,3.179L10.66,3.161L10.65,3.137L10.07,2.205L10.05,2.178L10.03,2.154L9.375,1.338L9.352,1.309L9.324,1.283L8.602,0.6217L8.577,0.598L8.548,0.5783L8.169,0.3176L8.146,0.3018L8.121,0.2887L7.733,0.08105L7.509,0.5L7.463,0.5L7.239,0.08086zM7,3.71L6.771,3.702L6.094,3.626L5.285,3.452L5.72,2.759L6.342,1.997L7,1.398zM8.621,1.996L9.236,2.758L9.667,3.454L8.845,3.627L8.171,3.702L8,3.709L8,1.426zM5.907,4.609L5.932,4.614L5.957,4.617L6.678,4.697L6.696,4.7L6.714,4.7L7,4.711L7,6.992L4.092,6.992L4.125,6.587L4.348,5.6L4.7,4.604L4.812,4.373zM7,9.747L7.008,9.736L7,9.713zz" fill="#383838" opacity="0.8"/>
    </g>
    <g id="overlay">
      <path d="M9.245,12.549c0.433,1.259,1.631,2.164,3.041,2.164c0.101,0,0.202,-0.005,0.301,-0.014M14.503,13.828c0.614,-0.584,0.997,-1.407,0.997,-2.32c0,-0.916,-0.386,-1.742,-1.004,-2.326M12.583,8.317c-0.098,-0.009,-0.197,-0.014,-0.297,-0.014c-1.404,0,-2.598,0.898,-3.035,2.149" fill="none" stroke="#228BCB" stroke-width="0.9" stroke-miterlimit="10"/>
      <path d="M9.25,10.452c0.507,0.084,0.893,0.521,0.893,1.048c0,0.528,-0.389,0.966,-0.898,1.049M9.25,10.452c-0.058,-0.01,-0.118,-0.015,-0.179,-0.015C8.48,10.437,8,10.913,8,11.5c0,0.587,0.48,1.063,1.071,1.063c0.059,0,0.117,-0.005,0.173,-0.014M14.496,9.182c0.126,-0.174,0.201,-0.388,0.201,-0.619c0,-0.587,-0.48,-1.063,-1.071,-1.063c-0.507,0,-0.931,0.349,-1.042,0.817M12.583,8.317c-0.019,0.079,-0.029,0.161,-0.029,0.245c0,0.587,0.48,1.063,1.071,1.063c0.359,0,0.676,-0.175,0.871,-0.444M12.586,14.698c0.117,0.461,0.538,0.802,1.039,0.802c0.592,0,1.071,-0.476,1.071,-1.063c0,-0.227,-0.072,-0.437,-0.194,-0.609M14.503,13.828c-0.194,-0.274,-0.515,-0.454,-0.878,-0.454c-0.592,0,-1.071,0.476,-1.071,1.063c0,0.09,0.011,0.177,0.033,0.261" fill="#FFFFFF" stroke="#228BCB" stroke-width="0.9" stroke-miterlimit="10"/>
    </g>
  </g>
</svg>
