<?xml version="1.0" encoding="UTF-8"?>
<!DOCTYPE svg PUBLIC "-//W3C//DTD SVG 1.1//EN" "http://www.w3.org/Graphics/SVG/1.1/DTD/svg11.dtd">
<svg version="1.1" id="Layer_1" xmlns="http://www.w3.org/2000/svg" xmlns:xlink="http://www.w3.org/1999/xlink" x="0px" y="0px" width="16px" height="16px" viewBox="0 0 16 16" enable-background="new 0 0 16 16" xml:space="preserve">
  <g id="icon">
    <polygon points="3.5,0.5 3.5,4 12,4 12,10.879 13.5,11.85 13.5,9.5 15.5,9.5 15.5,0.5" fill="#FFFFFF" stroke-linejoin="miter"/>
    <polygon points="3,0 3,4 4,4 4,1 15,1 15,9 13,9 13,10.931 12,10.284 12,11.475 14,12.769 14,10 16,10 16,0" fill="#383838" stroke-linejoin="miter"/>
    <path d="M0.5,5.5v8h2v1.65L5.882,13.5H10.5V5.5H0.5z" fill="#FFFFFF" stroke="#383838" stroke-width="1" stroke-miterlimit="50"/>
    <path d="M7,9h1v1H7V9zM5,10h1V9H5V10zM3,10h1V9H3V10z" fill="#238BCB"/>
  </g>
</svg>
