<?xml version="1.0" encoding="UTF-8"?>
<!DOCTYPE svg PUBLIC "-//W3C//DTD SVG 1.1//EN" "http://www.w3.org/Graphics/SVG/1.1/DTD/svg11.dtd">
<svg version="1.1" id="Layer_1" xmlns="http://www.w3.org/2000/svg" xmlns:xlink="http://www.w3.org/1999/xlink" x="0px" y="0px" width="16px" height="16px" viewBox="0 0 16 16" enable-background="new 0 0 16 16" xml:space="preserve">
  <g id="icon">
    <path d="M0.375,10.709c0.04,0.041,0.094,0.094,0.163,0.159c0.069,0.064,0.152,0.133,0.248,0.206c0.096,0.073,0.214,0.141,0.352,0.206c0.138,0.064,0.296,0.117,0.473,0.159c0.178,0.041,0.38,0.062,0.608,0.062c0.334,0,0.632,-0.051,0.892,-0.154c0.26,-0.102,0.481,-0.24,0.662,-0.414c0.181,-0.174,0.319,-0.376,0.414,-0.607c0.095,-0.231,0.142,-0.478,0.142,-0.739c0,-0.218,-0.035,-0.406,-0.106,-0.565c-0.071,-0.159,-0.166,-0.295,-0.287,-0.409c-0.121,-0.114,-0.261,-0.211,-0.422,-0.292c-0.16,-0.081,-0.332,-0.154,-0.515,-0.218c-0.183,-0.064,-0.369,-0.124,-0.559,-0.178c-0.19,-0.055,-0.376,-0.115,-0.559,-0.181c-0.183,-0.066,-0.354,-0.141,-0.515,-0.226c-0.16,-0.084,-0.301,-0.187,-0.422,-0.307c-0.121,-0.121,-0.216,-0.264,-0.287,-0.431c-0.071,-0.167,-0.106,-0.364,-0.106,-0.592c0,-0.221,0.043,-0.434,0.129,-0.637c0.086,-0.203,0.212,-0.382,0.378,-0.538c0.166,-0.155,0.37,-0.279,0.613,-0.372c0.243,-0.092,0.522,-0.139,0.835,-0.139c0.352,0,0.663,0.055,0.934,0.164c0.271,0.109,0.525,0.283,0.763,0.521M9.479,11.015c-0.173,0.108,-0.357,0.189,-0.555,0.244c-0.197,0.055,-0.406,0.083,-0.628,0.083c-0.368,0,-0.705,-0.078,-1.01,-0.235c-0.305,-0.157,-0.568,-0.381,-0.788,-0.674c-0.22,-0.292,-0.392,-0.648,-0.514,-1.065C5.861,8.951,5.8,8.48,5.8,7.955c0,-0.522,0.061,-0.992,0.184,-1.411c0.122,-0.419,0.294,-0.776,0.514,-1.07c0.22,-0.294,0.483,-0.52,0.788,-0.678c0.305,-0.158,0.642,-0.237,1.01,-0.237c0.371,0,0.71,0.078,1.016,0.235c0.306,0.157,0.57,0.382,0.79,0.676c0.22,0.294,0.391,0.651,0.514,1.07c0.122,0.419,0.184,0.891,0.184,1.416c0,0.357,-0.028,0.69,-0.085,0.996c-0.057,0.307,-0.138,0.588,-0.245,0.842c-0.107,0.255,-0.237,0.48,-0.39,0.676c-0.153,0.196,-0.327,0.361,-0.52,0.493L9.479,11.015zM9.62,11.11l0.989,1.29M16,11.45h-3.45V4" fill="none" stroke="#228BCB" stroke-width="1.1" stroke-miterlimit="10"/>
  </g>
</svg>
