<?xml version="1.0" encoding="UTF-8"?>
<!DOCTYPE svg PUBLIC "-//W3C//DTD SVG 1.1//EN" "http://www.w3.org/Graphics/SVG/1.1/DTD/svg11.dtd">
<svg version="1.1" id="Layer_1" xmlns="http://www.w3.org/2000/svg" xmlns:xlink="http://www.w3.org/1999/xlink" x="0px" y="0px" width="32px" height="32px" viewBox="0 0 32 32" enable-background="new 0 0 32 32" xml:space="preserve">
  <g id="icon">
    <path d="M0.5,8.5v22h30V8.5H0.5z" fill="#FFFFFF" stroke="#383838" stroke-width="1" stroke-miterlimit="50"/>
    <rect x="0.5" y="3.5" width="30" height="5" fill="#C8C6C4" stroke="#383838" stroke-width="1" stroke-linecap="round" stroke-miterlimit="50"/>
    <path d="M7.5,1v5M25.5,1v5" fill="#FFFFFF" stroke="#383838" stroke-width="1" stroke-miterlimit="50"/>
    <path d="M9.5,27.5H3.5v-4h6V27.5zM15.5,23.5H9.5v4h6V23.5zM21.5,23.5h-6v4h6V23.5zM27.5,23.5h-6v4h6V23.5zM9.5,19.5H3.5v4h6V19.5zM15.5,19.5H9.5v4h6V19.5zM21.5,19.5h-6v4h6V19.5zM27.5,19.5h-6v4h6V19.5zM9.5,15.5H3.5v4h6V15.5zM15.5,15.5H9.5v4h6V15.5zM21.5,15.5h-6v4h6V15.5zM27.5,15.5h-6v4h6V15.5zM15.5,11.5H9.5v4h6V11.5zM21.5,11.5h-6v4h6V11.5zM27.5,11.5h-6v4h6V11.5z" fill="none" stroke="#787979" stroke-width="1" stroke-miterlimit="50" opacity="0.6"/>
    <path d="M15.5,19.5H9.5v-4h6V19.5z" fill="#92CBEE" stroke="#0964B0" stroke-width="1" stroke-linecap="round" stroke-miterlimit="50"/>
  </g>
</svg>
