<?xml version="1.0" encoding="UTF-8"?>
<!DOCTYPE svg PUBLIC "-//W3C//DTD SVG 1.1//EN" "http://www.w3.org/Graphics/SVG/1.1/DTD/svg11.dtd">
<svg version="1.1" id="Layer_1" xmlns="http://www.w3.org/2000/svg" xmlns:xlink="http://www.w3.org/1999/xlink" x="0px" y="0px" width="32px" height="32px" viewBox="0 0 32 32" enable-background="new 0 0 32 32" xml:space="preserve">
  <g id="icon">
    <circle cx="16" cy="16" r="13" fill="#0C4C63" opacity="0.2"/>
    <path d="M16,30.05c-0.603,0,-1.21,-0.039,-1.804,-0.115l0.127,-0.992c0.95,0.122,1.934,0.139,2.888,0.051l0.092,0.996C16.873,30.03,16.434,30.05,16,30.05zM19.349,29.648l-0.238,-0.971c0.935,-0.229,1.847,-0.563,2.71,-0.994l0.447,0.895C21.339,29.042,20.357,29.402,19.349,29.648zM12.163,29.52c-0.998,-0.283,-1.967,-0.678,-2.879,-1.176l0.479,-0.878c0.847,0.462,1.746,0.829,2.673,1.092L12.163,29.52zM24.05,27.517l-0.574,-0.819c0.789,-0.552,1.519,-1.194,2.169,-1.907l0.739,0.674C25.685,26.231,24.899,26.922,24.05,27.517zM7.54,27.218c-0.828,-0.625,-1.588,-1.343,-2.259,-2.135l0.763,-0.647c0.624,0.735,1.33,1.403,2.099,1.984L7.54,27.218zM27.666,23.833l-0.83,-0.558c0.539,-0.801,0.989,-1.662,1.336,-2.56l0.932,0.361C28.73,22.043,28.246,22.97,27.666,23.833zM4.059,23.408c-0.549,-0.883,-0.999,-1.827,-1.338,-2.806l0.945,-0.327c0.315,0.909,0.733,1.786,1.243,2.606L4.059,23.408zM29.709,19.089l-0.976,-0.219c0.21,-0.936,0.317,-1.902,0.317,-2.87v-0.03h1v0.03C30.05,17.042,29.935,18.081,29.709,19.089zM2.189,18.595c-0.159,-0.85,-0.239,-1.723,-0.239,-2.595c0,-0.167,0.003,-0.336,0.009,-0.504l0.999,0.035c-0.005,0.156,-0.008,0.313,-0.008,0.469c0,0.811,0.075,1.622,0.222,2.412L2.189,18.595zM28.905,14.049c-0.143,-0.954,-0.393,-1.892,-0.743,-2.789l0.932,-0.363c0.377,0.966,0.646,1.977,0.8,3.004L28.905,14.049zM3.167,13.616l-0.983,-0.182c0.189,-1.021,0.492,-2.023,0.902,-2.977l0.919,0.395C3.624,11.738,3.342,12.668,3.167,13.616zM27.332,9.523c-0.479,-0.835,-1.052,-1.62,-1.703,-2.332l0.738,-0.675c0.701,0.766,1.318,1.61,1.833,2.51L27.332,9.523zM4.895,9.143l-0.85,-0.526c0.545,-0.881,1.191,-1.705,1.917,-2.447l0.714,0.7C6.001,7.559,5.401,8.324,4.895,9.143zM24.226,5.869c-0.749,-0.609,-1.566,-1.135,-2.428,-1.563l0.445,-0.896c0.928,0.461,1.808,1.027,2.614,1.683L24.226,5.869zM8.122,5.595l-0.604,-0.797c0.828,-0.628,1.726,-1.164,2.669,-1.593l0.414,0.91C9.725,4.514,8.891,5.012,8.122,5.595zM20.012,3.578c-0.915,-0.295,-1.867,-0.489,-2.829,-0.575l0.089,-0.996c1.036,0.093,2.061,0.302,3.047,0.62L20.012,3.578zM12.409,3.45l-0.275,-0.962c0.995,-0.284,2.026,-0.458,3.065,-0.516l0.056,0.998C14.29,3.025,13.333,3.186,12.409,3.45z" fill="#0C4C63"/>
  </g>
</svg>
