<?xml version="1.0" encoding="UTF-8"?>
<!DOCTYPE svg PUBLIC "-//W3C//DTD SVG 1.1//EN" "http://www.w3.org/Graphics/SVG/1.1/DTD/svg11.dtd">
<svg version="1.1" id="Layer_1" xmlns="http://www.w3.org/2000/svg" xmlns:xlink="http://www.w3.org/1999/xlink" x="0px" y="0px" width="16px" height="16px" viewBox="0 0 16 16" enable-background="new 0 0 16 16" xml:space="preserve">
  <g id="icon">
    <path d="M0.5,8C0.5,3.858,3.858,0.5,8,0.5s7.5,3.358,7.5,7.5s-3.358,7.5,-7.5,7.5S0.5,12.142,0.5,8zM3.425,13.943M12.612,13.914" fill="#FEFEFF" stroke="#6A4905" stroke-width="1" stroke-miterlimit="50"/>
    <path d="M7.5,2v6.359l4.19,3.72" fill="none" stroke="#E29B0A" stroke-width="1" stroke-miterlimit="50"/>
    <path d="M14,8.5h-1V7.5h1V8.5zM8.5,13H7.5v1h1V13zM3,7.5H2v1h1V7.5zM4.6,11.4H3.6v1h1V11.4zM12.4,3.6h-1v1h1V3.6zM4.6,3.6H3.6v1h1V3.6z" fill="#E69E0B"/>
  </g>
</svg>
