<?xml version="1.0" encoding="UTF-8"?>
<!DOCTYPE svg PUBLIC "-//W3C//DTD SVG 1.1//EN" "http://www.w3.org/Graphics/SVG/1.1/DTD/svg11.dtd">
<svg version="1.1" id="Layer_1" xmlns="http://www.w3.org/2000/svg" xmlns:xlink="http://www.w3.org/1999/xlink" x="0px" y="0px" width="32px" height="32px" viewBox="0 0 32 32" enable-background="new 0 0 32 32" xml:space="preserve">
  <g id="main">
    <g id="icon">
      <path d="M13.62,1.615L12.29,1.819L11,2.151L9.762,2.603L8.586,3.17L7.477,3.843L6.441,4.618L5.486,5.486L4.618,6.441L3.843,7.477L3.17,8.586L2.603,9.762L2.151,11L1.819,12.29L1.615,13.62L1.546,15L1.615,16.37L1.819,17.71L2.151,19L2.603,20.23L3.17,21.41L3.843,22.52L4.618,23.55L5.486,24.51L6.441,25.38L7.477,26.15L8.586,26.83L9.762,27.39L11,27.85L12.29,28.18L13.62,28.38L15,28.45L16.02,28.4L18.78,25.63L15.24,22.08L16.65,20.67L17.47,19.96L18.34,19.4L19.24,19.01L20.17,18.79L20.84,18.74L21.62,18.81L22.36,19.01L22.72,18.65L22.66,18.14L22.68,17.62L22.77,17.09L22.92,16.56L23.15,16.04L23.44,15.53L23.8,15.04L24.22,14.57L25.63,13.16L28.4,15.93L28.45,15L28.38,13.62L28.18,12.29L27.85,11L27.39,9.762L26.83,8.586L26.15,7.477L25.38,6.441L24.51,5.486L23.55,4.618L22.52,3.843L21.41,3.17L20.23,2.603L19,2.151L17.71,1.819L16.37,1.615L15,1.546zz" fill="#FFFFFF"/>
      <path d="M14.97,0.9967L13.59,1.066L13.57,1.068L13.54,1.072L12.2,1.276L12.18,1.28L12.15,1.287L10.86,1.618L10.83,1.625L10.81,1.634L9.573,2.087L9.547,2.096L9.523,2.108L8.347,2.674L8.323,2.686L8.3,2.7L7.191,3.373L7.169,3.387L7.147,3.403L6.112,4.177L6.091,4.193L6.071,4.211L5.116,5.079L5.097,5.097L5.079,5.116L4.211,6.071L4.193,6.091L4.177,6.112L3.403,7.147L3.387,7.169L3.373,7.191L2.7,8.3L2.686,8.323L2.674,8.347L2.108,9.523L2.096,9.547L2.087,9.573L1.634,10.81L1.625,10.83L1.618,10.86L1.287,12.15L1.28,12.18L1.276,12.2L1.072,13.54L1.068,13.57L1.066,13.59L0.9967,14.97L0.9953,15L0.9967,15.03L1.066,16.4L1.068,16.43L1.072,16.46L1.276,17.79L1.28,17.82L1.287,17.85L1.618,19.14L1.625,19.16L1.634,19.19L2.087,20.42L2.096,20.45L2.108,20.47L2.674,21.65L2.686,21.67L2.7,21.7L3.373,22.8L3.387,22.83L3.403,22.85L4.177,23.88L4.193,23.91L4.211,23.92L5.079,24.88L5.097,24.9L5.116,24.92L6.071,25.79L6.091,25.8L6.112,25.82L7.147,26.59L7.169,26.61L7.191,26.62L8.3,27.3L8.323,27.31L8.347,27.32L9.523,27.89L9.547,27.9L9.573,27.91L10.81,28.36L10.83,28.37L10.86,28.38L12.15,28.71L12.18,28.72L12.2,28.72L13.54,28.92L13.57,28.93L13.59,28.93L14.97,29L15,29L15.03,29L15.44,28.98L16.63,27.79L16.32,27.83L15,27.9L13.68,27.83L12.4,27.64L11.16,27.32L9.975,26.89L8.848,26.34L7.786,25.7L6.79,24.95L5.875,24.12L5.042,23.2L4.3,22.21L3.653,21.15L3.11,20.02L2.677,18.83L2.359,17.6L2.163,16.32L2.097,15L2.163,13.68L2.359,12.4L2.677,11.16L3.11,9.977L3.653,8.849L4.3,7.784L5.043,6.791L5.875,5.875L6.791,5.043L7.784,4.3L8.849,3.653L9.977,3.11L11.16,2.677L12.4,2.359L13.68,2.163L15,2.097L16.32,2.163L17.6,2.359L18.83,2.677L20.02,3.11L21.15,3.653L22.21,4.3L23.2,5.042L24.12,5.875L24.95,6.79L25.7,7.786L26.34,8.848L26.89,9.975L27.32,11.16L27.64,12.4L27.83,13.68L27.9,15L27.88,15.4L28.93,16.45L28.93,16.43L28.93,16.4L29,15.03L29,15L29,14.97L28.93,13.59L28.93,13.57L28.92,13.54L28.72,12.2L28.72,12.18L28.71,12.15L28.38,10.86L28.37,10.83L28.36,10.81L27.91,9.573L27.9,9.547L27.89,9.523L27.32,8.347L27.31,8.323L27.3,8.3L26.62,7.191L26.61,7.169L26.59,7.147L25.82,6.112L25.8,6.091L25.79,6.071L24.92,5.116L24.9,5.097L24.88,5.079L23.92,4.211L23.91,4.193L23.88,4.177L22.85,3.403L22.83,3.387L22.8,3.373L21.7,2.7L21.67,2.686L21.65,2.674L20.47,2.108L20.45,2.096L20.42,2.087L19.19,1.634L19.16,1.625L19.14,1.618L17.85,1.287L17.82,1.28L17.79,1.276L16.46,1.072L16.43,1.068L16.4,1.066L15.03,0.9967L15,0.9953zz" fill="#383838"/>
      <path d="M14.23,7.539L13.49,7.652L12.77,7.837L12.08,8.089L11.42,8.405L10.81,8.781L10.23,9.213L9.697,9.697L9.213,10.23L8.781,10.81L8.405,11.42L8.089,12.08L7.837,12.77L7.652,13.49L7.539,14.23L7.5,15L7.539,15.77L7.652,16.51L7.837,17.23L8.089,17.92L8.405,18.58L8.781,19.19L9.213,19.77L9.697,20.3L10.23,20.79L10.81,21.22L11.42,21.59L12.08,21.91L12.77,22.16L13.49,22.35L14.23,22.46L15,22.5L15.62,22.47L15.24,22.08L16.65,20.67L17.47,19.96L18.34,19.4L19.24,19.01L20.17,18.79L20.84,18.74L21.46,18.8L21.59,18.58L21.91,17.92L22.16,17.23L22.35,16.51L22.46,15.77L22.5,15L22.46,14.23L22.35,13.49L22.16,12.77L21.91,12.08L21.59,11.42L21.22,10.81L20.79,10.23L20.3,9.697L19.77,9.213L19.19,8.781L18.58,8.405L17.92,8.089L17.23,7.837L16.51,7.652L15.77,7.539L15,7.5zz" fill="#FFFFFF"/>
      <path d="M14.97,7.001L14.21,7.039L14.18,7.041L14.16,7.045L13.41,7.158L13.39,7.162L13.36,7.168L12.65,7.353L12.62,7.359L12.6,7.368L11.91,7.62L11.89,7.628L11.86,7.639L11.21,7.955L11.19,7.965L11.17,7.978L10.55,8.354L10.53,8.366L10.51,8.38L9.93,8.812L9.911,8.827L9.893,8.843L9.36,9.327L9.343,9.343L9.327,9.36L8.843,9.893L8.827,9.911L8.812,9.93L8.38,10.51L8.366,10.53L8.354,10.55L7.978,11.17L7.965,11.19L7.955,11.21L7.639,11.86L7.628,11.89L7.62,11.91L7.368,12.6L7.359,12.62L7.353,12.65L7.168,13.36L7.162,13.39L7.158,13.41L7.045,14.16L7.041,14.18L7.039,14.21L7.001,14.97L6.999,15L7.001,15.03L7.039,15.79L7.041,15.82L7.045,15.84L7.158,16.59L7.162,16.61L7.168,16.64L7.353,17.35L7.359,17.38L7.368,17.4L7.62,18.09L7.628,18.11L7.639,18.14L7.955,18.79L7.965,18.81L7.978,18.83L8.354,19.45L8.366,19.47L8.38,19.49L8.812,20.07L8.827,20.09L8.843,20.11L9.327,20.64L9.343,20.66L9.36,20.67L9.893,21.16L9.911,21.17L9.93,21.19L10.51,21.62L10.53,21.63L10.55,21.65L11.17,22.02L11.19,22.03L11.21,22.05L11.86,22.36L11.89,22.37L11.91,22.38L12.6,22.63L12.62,22.64L12.65,22.65L13.36,22.83L13.39,22.84L13.41,22.84L14.16,22.96L14.18,22.96L14.21,22.96L14.97,23L15,23L15.03,23L15.79,22.96L15.82,22.96L15.84,22.96L16.07,22.92L15.24,22.08L15.34,21.98L15,22L14.28,21.96L13.59,21.86L12.92,21.68L12.28,21.45L11.66,21.16L11.09,20.8L10.55,20.4L10.05,19.95L9.599,19.45L9.196,18.91L8.845,18.34L8.551,17.72L8.316,17.08L8.143,16.41L8.037,15.72L8.001,15L8.037,14.28L8.143,13.59L8.316,12.92L8.551,12.28L8.845,11.66L9.196,11.09L9.599,10.55L10.05,10.05L10.55,9.599L11.09,9.196L11.66,8.845L12.28,8.551L12.92,8.316L13.59,8.143L14.28,8.037L15,8.001L15.72,8.037L16.41,8.143L17.08,8.316L17.72,8.551L18.34,8.845L18.91,9.196L19.45,9.599L19.95,10.05L20.4,10.55L20.8,11.09L21.16,11.66L21.45,12.28L21.68,12.92L21.86,13.59L21.96,14.28L22,15L21.96,15.72L21.86,16.41L21.68,17.08L21.45,17.72L21.16,18.34L20.9,18.75L21.62,18.81L21.98,18.9L22.02,18.83L22.03,18.81L22.05,18.79L22.36,18.14L22.37,18.11L22.38,18.09L22.63,17.4L22.64,17.38L22.65,17.35L22.83,16.64L22.84,16.61L22.84,16.59L22.96,15.84L22.96,15.82L22.96,15.79L23,15.03L23,15L23,14.97L22.96,14.21L22.96,14.18L22.96,14.16L22.84,13.41L22.84,13.39L22.83,13.36L22.65,12.65L22.64,12.62L22.63,12.6L22.38,11.91L22.37,11.89L22.36,11.86L22.05,11.21L22.03,11.19L22.02,11.17L21.65,10.55L21.63,10.53L21.62,10.51L21.19,9.93L21.17,9.911L21.16,9.893L20.67,9.36L20.66,9.343L20.64,9.327L20.11,8.843L20.09,8.827L20.07,8.812L19.49,8.38L19.47,8.366L19.45,8.354L18.83,7.978L18.81,7.965L18.79,7.955L18.14,7.639L18.11,7.628L18.09,7.62L17.4,7.368L17.38,7.359L17.35,7.353L16.64,7.168L16.61,7.162L16.59,7.158L15.84,7.045L15.82,7.041L15.79,7.039L15.03,7.001L15,6.999zz" fill="#228BCB"/>
    </g>
    <g id="overlay">
      <path d="M18.065,22.084c1.481,-1.481,3.344,-1.833,4.613,-0.564l2.428,-2.428c-0.863,-0.863,-0.341,-2.239,0.527,-3.106L31.3,21.652c-0.868,0.868,-2.243,1.39,-3.106,0.527l-2.428,2.428c1.481,1.481,0.723,3.362,-0.546,4.631L18.065,22.084zM15.65,31.593l5.88,-5.88" fill="#C8C6C4" stroke="#383838" stroke-width="1" stroke-miterlimit="10"/>
    </g>
  </g>
</svg>
