<?xml version="1.0" encoding="UTF-8"?>
<!DOCTYPE svg PUBLIC "-//W3C//DTD SVG 1.1//EN" "http://www.w3.org/Graphics/SVG/1.1/DTD/svg11.dtd">
<svg version="1.1" id="Layer_1" xmlns="http://www.w3.org/2000/svg" xmlns:xlink="http://www.w3.org/1999/xlink" x="0px" y="0px" width="16px" height="16px" viewBox="0 0 16 16" enable-background="new 0 0 16 16" xml:space="preserve">
  <g id="main">
    <g id="icon">
      <path d="M6.784,0.5361L6.089,0.6422L5.418,0.8146L4.775,1.05L4.163,1.345L3.586,1.696L3.047,2.098L2.55,2.55L2.098,3.047L1.696,3.586L1.345,4.163L1.05,4.775L0.8146,5.418L0.6422,6.089L0.5361,6.784L0.5,7.5L0.5361,8.216L0.6422,8.911L0.8146,9.582L1.05,10.22L1.345,10.84L1.696,11.41L2.098,11.95L2.55,12.45L3.047,12.9L3.586,13.3L4.163,13.66L4.775,13.95L5.418,14.19L5.676,14.25L7.612,12.32L5.652,10.36L6.819,9.189L7.439,8.666L8.108,8.284L8.809,8.049L9.526,7.969L9.986,8.003L10.06,7.469L10.2,7.026L10.41,6.597L10.68,6.191L11,5.819L12.17,4.652L14.47,6.956L14.46,6.784L14.36,6.089L14.19,5.418L13.95,4.775L13.66,4.163L13.3,3.586L12.9,3.047L12.45,2.55L11.95,2.098L11.41,1.696L10.84,1.345L10.22,1.05L9.582,0.8146L8.911,0.6422L8.216,0.5361L7.5,0.5zz" fill="#FFFFFF"/>
      <path d="M7.475,0.0005859L6.759,0.03672L6.734,0.03809L6.709,0.0418L6.014,0.1479L5.989,0.1518L5.965,0.158L5.294,0.3305L5.27,0.3367L5.246,0.3451L4.604,0.5805L4.58,0.5891L4.558,0.5996L3.946,0.8943L3.925,0.9049L3.904,0.9176L3.327,1.268L3.306,1.281L3.287,1.295L2.748,1.698L2.729,1.712L2.711,1.729L2.214,2.18L2.196,2.196L2.18,2.214L1.729,2.711L1.712,2.729L1.698,2.748L1.295,3.287L1.281,3.306L1.268,3.327L0.9176,3.904L0.9049,3.925L0.8943,3.946L0.5996,4.558L0.5891,4.58L0.5805,4.604L0.3451,5.246L0.3367,5.27L0.3305,5.294L0.158,5.965L0.1518,5.989L0.1479,6.014L0.0418,6.709L0.03809,6.734L0.03672,6.759L0.0005859,7.475L-0,7.488L0,7.512L0.0005859,7.525L0.03672,8.241L0.03809,8.266L0.0418,8.291L0.1479,8.986L0.1518,9.011L0.158,9.035L0.3305,9.706L0.3367,9.73L0.3451,9.754L0.5805,10.4L0.5891,10.42L0.5996,10.44L0.8943,11.05L0.9049,11.08L0.9176,11.1L1.268,11.67L1.281,11.69L1.295,11.71L1.698,12.25L1.712,12.27L1.729,12.29L2.18,12.79L2.196,12.8L2.214,12.82L2.711,13.27L2.729,13.29L2.748,13.3L3.287,13.7L3.306,13.72L3.327,13.73L3.904,14.08L3.925,14.1L3.946,14.11L4.558,14.4L4.58,14.41L4.604,14.42L5.246,14.65L5.266,14.66L6.087,13.84L5.566,13.71L4.97,13.49L4.403,13.22L3.866,12.89L3.366,12.52L2.904,12.1L2.484,11.63L2.111,11.13L1.785,10.6L1.512,10.03L1.293,9.434L1.133,8.812L1.034,8.165L1.001,7.5L1.034,6.835L1.133,6.188L1.293,5.566L1.512,4.97L1.785,4.403L2.111,3.866L2.484,3.366L2.904,2.904L3.366,2.484L3.866,2.111L4.403,1.785L4.97,1.512L5.566,1.293L6.188,1.133L6.835,1.034L7.5,1.001L8.165,1.034L8.812,1.133L9.434,1.293L10.03,1.512L10.6,1.785L11.13,2.111L11.63,2.484L12.1,2.904L12.52,3.366L12.89,3.866L13.22,4.403L13.49,4.97L13.71,5.566L13.87,6.188L13.9,6.379L15,7.483L15,7.475L14.96,6.759L14.96,6.734L14.96,6.709L14.85,6.014L14.85,5.989L14.84,5.965L14.67,5.294L14.66,5.27L14.65,5.246L14.42,4.604L14.41,4.58L14.4,4.558L14.11,3.946L14.1,3.925L14.08,3.904L13.73,3.327L13.72,3.306L13.7,3.287L13.3,2.748L13.29,2.729L13.27,2.711L12.82,2.214L12.8,2.196L12.79,2.18L12.29,1.729L12.27,1.712L12.25,1.698L11.71,1.295L11.69,1.281L11.67,1.268L11.1,0.9176L11.08,0.9049L11.05,0.8943L10.44,0.5996L10.42,0.5891L10.4,0.5805L9.754,0.3451L9.73,0.3367L9.706,0.3305L9.035,0.158L9.011,0.1518L8.986,0.1479L8.291,0.0418L8.266,0.03809L8.241,0.03672L7.525,0.0005859L7.512,0L7.488,0zz" fill="#383838"/>
      <path d="M6.842,4.299L6.228,4.49L5.673,4.791L5.19,5.19L4.791,5.673L4.49,6.228L4.299,6.842L4.233,7.5L4.299,8.158L4.49,8.772L4.791,9.327L5.19,9.81L5.673,10.21L5.755,10.25L6.819,9.189L7.439,8.666L8.108,8.284L8.809,8.049L9.526,7.969L9.986,8.003L10.06,7.469L10.2,7.026L10.41,6.597L10.56,6.373L10.51,6.228L10.21,5.673L9.81,5.19L9.327,4.791L8.772,4.49L8.158,4.299L7.5,4.233zz" fill="#FFFFFF"/>
      <path d="M7.45,3.736L6.791,3.802L6.741,3.807L6.693,3.822L6.08,4.012L6.033,4.027L5.99,4.05L5.435,4.352L5.392,4.375L5.355,4.405L4.872,4.804L4.835,4.835L4.804,4.872L4.405,5.355L4.375,5.392L4.352,5.435L4.05,5.99L4.027,6.033L4.012,6.08L3.822,6.693L3.807,6.741L3.802,6.791L3.736,7.45L3.73,7.5L3.736,7.55L3.802,8.209L3.807,8.259L3.822,8.307L4.012,8.92L4.027,8.967L4.05,9.01L4.352,9.565L4.375,9.608L4.405,9.645L4.804,10.13L4.835,10.17L4.872,10.2L5.355,10.59L5.392,10.63L5.435,10.65L5.99,10.95L6.033,10.97L6.08,10.99L6.375,11.08L5.652,10.36L6.124,9.884L5.954,9.792L5.545,9.455L5.208,9.046L4.953,8.577L4.792,8.058L4.736,7.5L4.792,6.942L4.953,6.423L5.208,5.954L5.545,5.545L5.954,5.208L6.423,4.953L6.942,4.792L7.5,4.736L8.058,4.792L8.577,4.953L9.046,5.208L9.455,5.545L9.792,5.954L10.05,6.423L10.21,6.942L10.21,6.996L10.41,6.597L10.68,6.191L10.91,5.922L10.65,5.435L10.63,5.392L10.59,5.355L10.2,4.872L10.17,4.835L10.13,4.804L9.645,4.405L9.608,4.375L9.565,4.352L9.01,4.05L8.967,4.027L8.92,4.012L8.307,3.822L8.259,3.807L8.209,3.802L7.55,3.736L7.5,3.73zz" fill="#228BCB"/>
    </g>
    <g id="overlay">
      <path d="M7.985,10.356c0.819,-0.819,1.848,-1.013,2.55,-0.312l1.342,-1.342c-0.477,-0.477,-0.189,-1.237,0.291,-1.717L15.3,10.117c-0.48,0.48,-1.24,0.768,-1.717,0.291l-1.342,1.342c0.819,0.819,0.4,1.858,-0.302,2.56L7.985,10.356zM6.65,15.612l3.25,-3.25" fill="#C8C6C4" stroke="#383838" stroke-width="0.9" stroke-miterlimit="10"/>
    </g>
  </g>
</svg>
