<?xml version="1.0" encoding="UTF-8"?>
<!DOCTYPE svg PUBLIC "-//W3C//DTD SVG 1.1//EN" "http://www.w3.org/Graphics/SVG/1.1/DTD/svg11.dtd">
<svg version="1.1" id="Layer_1" xmlns="http://www.w3.org/2000/svg" xmlns:xlink="http://www.w3.org/1999/xlink" x="0px" y="0px" width="16px" height="16px" viewBox="0 0 16 16" enable-background="new 0 0 16 16" xml:space="preserve">
  <g id="main">
    <g id="icon">
      <path d="M9.293,1.832L9.433,1.972L8.604,2.8L10.2,2.8L10.2,6.2L8.604,6.2L9.432,7.028L7.028,9.433L6.2,8.604L6.2,10.2L2.8,10.2L2.8,8.604L1.972,9.432L1.825,9.285L1.728,9.382L7.638,15.29L15.5,7.374L15.5,2.316L15.44,1.998L15.26,1.739L15,1.564L14.68,1.5L9.626,1.5zM12.9,3.567L13.22,3.782L13.43,4.102L13.51,4.494L13.43,4.886L13.22,5.205L12.9,5.421L12.51,5.5L12.12,5.421L11.8,5.205L11.58,4.886L11.5,4.494L11.58,4.103L11.8,3.783L12.12,3.567L12.51,3.488zz" fill="#92CBEE"/>
      <path d="M9.273,1.146L8.94,1.479L9.433,1.972L8.604,2.8L9.031,2.8L9.833,2L14.63,2L14.81,2.035L14.9,2.099L14.97,2.195L15,2.366L15,7.168L7.637,14.58L3.253,10.2L2.8,10.2L2.8,9.747L2.436,9.382L2.8,9.019L2.8,8.604L1.972,9.432L1.471,8.932L1.375,9.028L1.021,9.382L1.374,9.736L7.284,15.65L7.639,16L7.64,16L7.993,15.64L15.85,7.726L16,7.58L16,7.374L16,2.316L16,2.266L15.99,2.217L15.93,1.899L15.91,1.802L15.85,1.719L15.68,1.459L15.62,1.379L15.54,1.324L15.28,1.149L15.2,1.094L15.1,1.074L14.78,1.01L14.73,1L14.68,1L9.626,1L9.419,1zM12.41,2.998L12.02,3.077L11.92,3.097L11.84,3.153L11.52,3.368L11.44,3.423L11.38,3.504L11.17,3.823L11.11,3.906L11.09,4.004L11.01,4.395L10.99,4.494L11.01,4.593L11.09,4.985L11.11,5.083L11.17,5.165L11.38,5.485L11.44,5.566L11.52,5.62L11.84,5.836L11.92,5.891L12.02,5.911L12.41,5.99L12.51,6.01L12.61,5.99L13,5.911L13.1,5.891L13.18,5.836L13.5,5.62L13.58,5.566L13.63,5.485L13.85,5.165L13.9,5.082L13.92,4.985L14,4.593L14.02,4.494L14,4.395L13.92,4.003L13.9,3.906L13.85,3.823L13.63,3.503L13.58,3.422L13.5,3.368L13.18,3.152L13.1,3.097L13,3.077L12.61,2.998L12.51,2.978zM12.7,4.038L12.86,4.143L12.96,4.299L13,4.494L12.96,4.689L12.86,4.845L12.7,4.951L12.51,4.99L12.31,4.951L12.16,4.845L12.05,4.689L12.01,4.494L12.05,4.3L12.16,4.143L12.31,4.038L12.51,3.998zz" fill="#0964B0"/>
    </g>
    <g id="overlay">
      <path d="M4.5,0v9M9,4.5H0M7.382,1.618L1.618,7.382M7.382,7.382L1.618,1.618" fill="none" stroke="#ED8730" stroke-width="1" stroke-miterlimit="10"/>
    </g>
  </g>
</svg>
