<?xml version="1.0" encoding="UTF-8"?>
<!DOCTYPE svg PUBLIC "-//W3C//DTD SVG 1.1//EN" "http://www.w3.org/Graphics/SVG/1.1/DTD/svg11.dtd">
<svg version="1.1" id="Layer_1" xmlns="http://www.w3.org/2000/svg" xmlns:xlink="http://www.w3.org/1999/xlink" x="0px" y="0px" width="16px" height="16px" viewBox="0 0 16 16" enable-background="new 0 0 16 16" xml:space="preserve">
  <g id="icon">
    <path d="M3.512,5.008L1.109,2.604C0.886,2.381,1.043,2,1.359,2h2.145M3.504,6.5H1.359c-0.315,0,-0.473,0.381,-0.25,0.604l2.404,2.404M3.504,11H1.359c-0.315,0,-0.473,0.381,-0.25,0.604l2.404,2.404" fill="#FFFFFF" stroke="#383838" stroke-width="1" stroke-miterlimit="10"/>
    <path d="M11.512,2h2.145c0.315,0,0.473,0.381,0.25,0.604l-2.404,2.404M11.504,9.508l2.404,-2.404c0.223,-0.223,0.065,-0.604,-0.25,-0.604h-2.145M11.504,14.008l2.404,-2.404c0.223,-0.223,0.065,-0.604,-0.25,-0.604h-2.145" fill="#FFFFFF" stroke="#383838" stroke-width="1" stroke-miterlimit="10"/>
    <rect x="3.504" y="0.5" width="8" height="15" fill="#FFFFFF" stroke="#383838" stroke-width="1" stroke-miterlimit="10"/>
    <path d="M7.504,6.5c-0.828,0,-1.5,0.672,-1.5,1.5s0.672,1.5,1.5,1.5s1.5,-0.672,1.5,-1.5S8.333,6.5,7.504,6.5zM7.504,10.975c-0.828,0,-1.5,0.672,-1.5,1.5s0.672,1.5,1.5,1.5s1.5,-0.672,1.5,-1.5S8.333,10.975,7.504,10.975z" fill="#FFFFFF" stroke="#787979" stroke-width="1" stroke-miterlimit="10" opacity="0.4"/>
    <circle cx="7.504" cy="3.525" r="1.5" fill="#F7BFBF" stroke="#DB2E2A" stroke-width="1" stroke-miterlimit="10"/>
  </g>
</svg>
