<?xml version="1.0" encoding="UTF-8"?>
<!DOCTYPE svg PUBLIC "-//W3C//DTD SVG 1.1//EN" "http://www.w3.org/Graphics/SVG/1.1/DTD/svg11.dtd">
<svg version="1.1" id="Layer_1" xmlns="http://www.w3.org/2000/svg" xmlns:xlink="http://www.w3.org/1999/xlink" x="0px" y="0px" width="16px" height="16px" viewBox="0 0 16 16" enable-background="new 0 0 16 16" xml:space="preserve">
  <g id="main">
    <g id="icon">
      <path d="M0.5,14.5L7.559,14.5L7.605,14.37L7.746,14.1L7.384,13.47L7.16,13.47L6.886,13.45L6.631,13.37L6.4,13.24L6.199,13.07L6.033,12.87L5.907,12.64L5.828,12.38L5.8,12.11L5.8,10.86L5.828,10.58L5.907,10.33L6.033,10.1L6.199,9.896L6.4,9.729L6.631,9.603L6.886,9.524L7.16,9.496L7.384,9.496L7.74,8.876L7.615,8.648L7.507,8.397L7.452,8.139L7.491,7.627L7.719,7.166L7.898,6.972L8.119,6.812L9.188,6.186L9.519,6.047L9.874,6L10.24,6.049L10.57,6.189L10.85,6.411L11.07,6.704L11.17,6.896L11.49,6.885L11.83,6.898L11.96,6.678L12.18,6.396L12.46,6.182L12.78,6.047L13.13,6L13.49,6.047L13.82,6.186L14.5,6.585L14.5,2.5L0.5,2.5zz" fill="#FFFFFF"/>
      <path d="M0,2.5L0,14.5L0,15L0.5,15L7.46,15L7.459,14.8L7.605,14.37L7.746,14.1L7.687,14L1,14L1,3L14,3L14,6.292L14.89,6.812L15,6.894L15,2.5L15,2L14.5,2L0.5,2L0,2zz" fill="#383838"/>
      <path d="M0.5,2.5L14.5,2.5L14.5,0.5L0.5,0.5zz" fill="#92CBEE"/>
      <path d="M0,0.5L0,2.5L0,3L0.5,3L14.5,3L15,3L15,2.5L15,0.5L15,0L14.5,0L0.5,0L0,0zM14,1L14,2L1,2L1,1zz" fill="#0964B0"/>
      <path d="M2,6L3,6L3,5L2,5zM4,6L7,6L7,5L4,5zM8,6L9,6L9,5L8,5zM10,6L13,6L13,5L10,5zM2,8L3,8L3,7L2,7zM4,8L7,8L7,7L4,7zM2,10L3,10L3,9L2,9zM4,10L6.113,10L6.199,9.896L6.4,9.729L6.631,9.603L6.886,9.524L7,9.512L7,9L4,9zM2,12L3,12L3,11L2,11zM4,12L5.8,12L5.8,11L4,11zz" fill="#787979"/>
    </g>
    <g id="overlay">
      <path d="M12.447,14.743c-0.31,0.093,-0.632,0.141,-0.957,0.141c-0.326,0,-0.648,-0.047,-0.957,-0.141l-0.52,0.971c-0.043,0.08,-0.142,0.109,-0.22,0.063l-1.069,-0.626c-0.075,-0.044,-0.102,-0.141,-0.061,-0.219l0.524,-0.978c-0.477,-0.457,-0.807,-1.037,-0.958,-1.681H7.16c-0.088,0,-0.16,-0.073,-0.16,-0.163v-1.251c0,-0.09,0.072,-0.163,0.16,-0.163h1.069c0.151,-0.644,0.481,-1.223,0.958,-1.681l-0.521,-0.946c-0.043,-0.078,-0.016,-0.176,0.06,-0.221l1.069,-0.626c0.077,-0.045,0.176,-0.018,0.219,0.061l0.519,0.942c0.31,-0.093,0.632,-0.141,0.957,-0.141c0.326,0,0.648,0.047,0.957,0.141l0.549,-0.947c0.045,-0.077,0.142,-0.103,0.217,-0.058l1.069,0.626c0.077,0.045,0.103,0.146,0.058,0.224l-0.547,0.944c0.477,0.457,0.807,1.037,0.958,1.681h1.069c0.088,0,0.16,0.073,0.16,0.163v1.251c0,0.09,-0.072,0.163,-0.16,0.163H14.75c-0.151,0.644,-0.481,1.223,-0.958,1.681l0.55,0.977c0.044,0.078,0.018,0.177,-0.059,0.222l-1.069,0.626c-0.077,0.045,-0.175,0.018,-0.218,-0.06L12.447,14.743zM11.49,9.369c-1.145,0,-2.077,0.949,-2.077,2.115S10.344,13.6,11.49,13.6s2.077,-0.949,2.077,-2.115S12.635,9.369,11.49,9.369z" fill="#383838"/>
    </g>
  </g>
</svg>
