<?xml version="1.0" encoding="UTF-8"?>
<!DOCTYPE svg PUBLIC "-//W3C//DTD SVG 1.1//EN" "http://www.w3.org/Graphics/SVG/1.1/DTD/svg11.dtd">
<svg version="1.1" id="Layer_1" xmlns="http://www.w3.org/2000/svg" xmlns:xlink="http://www.w3.org/1999/xlink" x="0px" y="0px" width="16px" height="16px" viewBox="0 0 16 16" enable-background="new 0 0 16 16" xml:space="preserve">
  <g id="icon">
    <path d="M13.1215,10.8629c-0.9464,1.3276,-3.08,3.932,-3.9083,4.4687C7.34,16.5452,-1.1919,10.9858,0.6096,10.2654s3.7563,-3.2171,4.8767,-4.7889" fill="#FFFFFF" opacity="0.3"/>
    <path d="M12.5986,11.6474c-0.9464,1.3276,-2.557,3.1476,-3.3854,3.6843C7.34,16.5452,-1.1308,11.1231,0.6096,10.2654c0.3793,-0.1869,0.5885,-0.2915,0.7977,-0.5007" fill="#EEAC55" opacity="0.5"/>
    <path d="M13.069,10.703L5.8222,5.4895c0.1789,-0.2433,0.17,-0.2302,1.0038,-1.2738c0,0,2.5046,1.8469,2.9486,1.1454c0.5786,-0.9142,0.7737,-2.0352,1.2058,-3.0146c0.4415,-1.0006,1.2945,-1.9987,2.5088,-1.7333c0.3856,0.0843,0.7053,0.2308,0.9681,0.4282c0.2829,0.1901,0.5169,0.4374,0.7231,0.7733c0.6494,1.0579,-0.0159,2.1904,-0.8182,2.9347c-0.7853,0.7286,-1.7832,1.2815,-2.4589,2.1268c-0.5184,0.6486,2.1239,2.5302,2.1239,2.5302S13.2238,10.4789,13.069,10.703z" fill="#FFFFFF" opacity="0.3"/>
    <path d="M12.7055,10.4884l-0.1156,0.1621c-0.9846,1.3813,-2.8459,3.8632,-3.567,4.3304c-0.0994,0.0644,-0.2606,0.0984,-0.4664,0.0984c-0.4735,0,-1.1415,-0.1706,-1.9163,-0.4765c0.9279,-0.7934,2.6874,-2.6947,2.6874,-2.6947s-2.5147,1.6689,-3.697,2.2475c-0.4671,-0.2271,-0.955,-0.4897,-1.4511,-0.7852c-0.0991,-0.059,-0.1948,-0.1173,-0.2889,-0.1753c0.6849,-0.5768,1.8747,-2.1154,1.8747,-2.1154s-1.7405,1.1096,-2.7325,1.5563c-1.3323,-0.9212,-1.9758,-1.6408,-2.0942,-1.9123c1.4222,-0.5963,3.203,-2.1453,5.0974,-4.8028l0.1156,-0.1622l-0.7483,-0.5334l-0.1156,0.1621C3.4954,7.9019,1.7867,9.3954,0.5358,9.8957c-0.447,0.1788,-0.522,0.5376,-0.5335,0.6836c-0.0956,1.2173,2.8132,3.0485,3.707,3.5807c0.929,0.5533,3.2595,1.84,4.8318,1.84c0.3973,0,0.7275,-0.0834,0.9814,-0.2478c0.9263,-0.6001,2.9066,-3.293,3.8157,-4.5682l0.1156,-0.1622L12.7055,10.4884z" fill="#F1876B"/>
    <path d="M5.1234,5.626l0.3499,-0.4757c0.165,-0.2244,0.1766,-0.2389,0.7861,-1.0018l0.5565,-0.6965l0.4525,0.3333c0.8645,0.6369,1.7652,1.0979,2.1042,1.1533c0.2653,-0.4585,0.4386,-0.9845,0.6216,-1.5401c0.1307,-0.3967,0.2655,-0.8056,0.4392,-1.1993c0.583,-1.3211,1.5299,-2.0788,2.5981,-2.0788c0.1665,0,0.3364,0.0187,0.5049,0.0555c0.4404,0.0963,0.8302,0.2688,1.1584,0.5127c0.3398,0.2305,0.6229,0.5332,0.8621,0.9228c0.676,1.1011,0.3404,2.4442,-0.8975,3.5926c-0.3163,0.2934,-0.6592,0.5546,-0.9907,0.8072c-0.4659,0.355,-0.907,0.6912,-1.2542,1.0915c0.1649,0.3165,0.9294,1.0694,1.8603,1.7328l0.4873,0.3473l-0.3586,0.479c-0.2162,0.2888,-0.803,1.0753,-0.9201,1.2449l-0.3385,0.4902L5.1234,5.626zM12.7724,9.8609c0.0807,-0.1091,0.2657,-0.3236,0.3455,-0.4307c-0.8251,-0.6425,-1.7914,-1.5335,-1.8908,-2.2453c-0.0368,-0.2635,0.0266,-0.5065,0.1835,-0.7027c0.4495,-0.5623,1.009,-0.9885,1.55,-1.4007c0.3247,-0.2474,0.6302,-0.4803,0.9041,-0.7344c0.3832,-0.3555,1.2182,-1.2742,0.6964,-2.1243c-0.1542,-0.2511,-0.3233,-0.4335,-0.5321,-0.5738l-0.023,-0.0163c-0.1974,-0.1482,-0.4385,-0.2537,-0.7188,-0.3149c-0.0843,-0.0184,-0.1686,-0.0277,-0.2504,-0.0277c-0.8343,0,-1.3505,0.9657,-1.5337,1.3809c-0.151,0.342,-0.2711,0.7068,-0.3984,1.093c-0.2126,0.6454,-0.4323,1.312,-0.8169,1.9198c-0.137,0.2164,-0.3496,0.3571,-0.6148,0.4069c-0.0632,0.0119,-0.1317,0.0179,-0.2037,0.0179c-0.7029,0,-1.6969,-0.5641,-2.4336,-1.059c-0.1085,0.1358,-0.2926,0.3411,-0.3595,0.4252L12.7724,9.8609z" fill="#6D6E71"/>
  </g>
</svg>
