<?xml version="1.0" encoding="UTF-8"?>
<!DOCTYPE svg PUBLIC "-//W3C//DTD SVG 1.1//EN" "http://www.w3.org/Graphics/SVG/1.1/DTD/svg11.dtd">
<svg version="1.1" id="Layer_1" xmlns="http://www.w3.org/2000/svg" xmlns:xlink="http://www.w3.org/1999/xlink" x="0px" y="0px" width="16px" height="16px" viewBox="0 0 16 16" enable-background="new 0 0 16 16" xml:space="preserve">
  <g id="icon">
    <circle cx="8" cy="8" r="7.5" fill="#FFFFFF"/>
    <circle cx="8" cy="8" r="7.5" fill="#EEAD56" opacity="0.2"/>
    <path d="M8,16c-4.4112,0,-8,-3.5888,-8,-8S3.5888,0,8,0s8,3.5888,8,8S12.4112,16,8,16zM8,1.0932c-3.8084,0,-6.9068,3.0984,-6.9068,6.9068S4.1916,14.9068,8,14.9068S14.9068,11.8084,14.9068,8S11.8084,1.0932,8,1.0932z" fill="#EEAD56"/>
    <path d="M12.7592,9.0391c0.0039,0.5021,-0.0925,1.6998,-0.2837,2.1641c-2.7612,0.6698,-10.404,-0.3709,-8.9641,-0.0424c-0.1822,-0.4517,-0.2741,-1.6347,-0.2707,-2.1217h0.0359c0,0,4.8261,1.1707,9.4207,0.0228L12.7592,9.0391z" fill="#FFFFFF"/>
    <path d="M12.4756,11.2033c-0.5837,1.3924,-2.0707,2.3576,-4.4641,2.3576c-2.5253,0,-3.8138,-0.7214,-4.5,-2.4C2.0713,10.8323,9.7146,11.873,12.4756,11.2033z" fill="#FFFFFF"/>
    <path d="M13.2092,8.7833c-0.0012,-0.1586,-0.0735,-0.3066,-0.194,-0.3968c-0.1205,-0.0902,-0.2739,-0.1114,-0.4115,-0.0564l-0.0389,0.0155c-4.4214,1.1869,-9.1351,-0.0194,-9.1822,-0.0318c-0.0346,-0.0091,-0.0703,-0.0137,-0.1059,-0.0137h-0.0359c-0.2473,0,-0.4482,0.216,-0.45,0.4836c-0.0039,0.5938,0.0981,1.3741,0.3033,1.9246c0.0001,0.0004,0.0003,0.0007,0.0004,0.001c0.0001,0.0004,0.0002,0.0007,0.0003,0.0011c0.6961,1.8433,2.4881,2.9005,4.9166,2.9005c2.3991,0,4.1775,-1.039,4.8791,-2.8506c0.0002,-0.0004,0.0002,-0.0009,0.0004,-0.0013c0.0002,-0.0005,0.0005,-0.001,0.0007,-0.0016C13.1068,10.1918,13.2136,9.395,13.2092,8.7833zM12.2629,9.4201c-0.0284,0.1813,-0.0698,0.66,-0.124,0.8353c-0.0266,0.0065,-0.0531,0.0134,-0.0796,0.0196c-0.0518,0.0123,-0.1036,0.0241,-0.1554,0.0357c-0.0693,0.0155,-0.1387,0.0305,-0.2081,0.0449c-0.0505,0.0105,-0.101,0.0209,-0.1515,0.0308c-0.0722,0.0142,-0.1444,0.0275,-0.2165,0.0405c-0.0473,0.0085,-0.0946,0.0173,-0.1418,0.0253c-0.0792,0.0135,-0.1583,0.0259,-0.2374,0.038c-0.0399,0.0061,-0.0798,0.0127,-0.1196,0.0185c-0.1049,0.0153,-0.2095,0.0292,-0.3139,0.0423c-0.0138,0.0017,-0.0276,0.0038,-0.0414,0.0055c-0.1204,0.0147,-0.2403,0.0279,-0.3598,0.0398c-0.0257,0.0026,-0.0512,0.0046,-0.0768,0.007c-0.0925,0.0088,-0.1848,0.0171,-0.2766,0.0243c-0.0375,0.0029,-0.0746,0.0053,-0.112,0.008c-0.0801,0.0058,-0.1601,0.0112,-0.2396,0.0159c-0.04,0.0023,-0.0798,0.0043,-0.1197,0.0064c-0.077,0.004,-0.1537,0.0076,-0.2299,0.0105c-0.0394,0.0015,-0.0787,0.0029,-0.1179,0.0042c-0.0773,0.0025,-0.1541,0.0045,-0.2306,0.0061c-0.0367,0.0007,-0.0734,0.0015,-0.1099,0.0021c-0.0807,0.0012,-0.1609,0.0017,-0.2406,0.0019c-0.031,0.0001,-0.0622,0.0003,-0.0931,0.0003c-0.0923,-0.0002,-0.1836,-0.0012,-0.2744,-0.0027c-0.0173,-0.0003,-0.0348,-0.0003,-0.052,-0.0007c-0.2214,-0.0042,-0.438,-0.0119,-0.649,-0.0224c-0.015,-0.0008,-0.0296,-0.0017,-0.0446,-0.0025c-0.088,-0.0046,-0.1752,-0.0096,-0.2612,-0.0151c-0.0256,-0.0016,-0.0507,-0.0035,-0.076,-0.0052c-0.0747,-0.0051,-0.1487,-0.0104,-0.2216,-0.0161c-0.0285,-0.0022,-0.0568,-0.0046,-0.085,-0.0069c-0.0693,-0.0057,-0.1378,-0.0116,-0.2053,-0.0178c-0.0282,-0.0026,-0.0563,-0.0052,-0.0841,-0.0078c-0.0672,-0.0064,-0.1333,-0.0131,-0.1987,-0.0199c-0.0259,-0.0027,-0.052,-0.0054,-0.0776,-0.0081c-0.0681,-0.0074,-0.1349,-0.015,-0.2008,-0.0227c-0.0209,-0.0025,-0.0423,-0.0048,-0.0629,-0.0073c-0.0787,-0.0095,-0.1559,-0.0191,-0.2313,-0.029c-0.0063,-0.0008,-0.0128,-0.0016,-0.0191,-0.0024c-0.1661,-0.0218,-0.3235,-0.0445,-0.472,-0.0673c-0.0208,-0.0032,-0.0405,-0.0064,-0.0609,-0.0096c-0.0506,-0.0079,-0.1007,-0.0159,-0.149,-0.0238c-0.0256,-0.0042,-0.0503,-0.0084,-0.0752,-0.0125c-0.0413,-0.0069,-0.082,-0.0138,-0.1214,-0.0207c-0.0263,-0.0046,-0.052,-0.0091,-0.0774,-0.0136c-0.0354,-0.0063,-0.0699,-0.0125,-0.1036,-0.0187c-0.0261,-0.0048,-0.052,-0.0096,-0.0771,-0.0143c-0.03,-0.0056,-0.059,-0.0112,-0.0875,-0.0167c-0.0256,-0.0049,-0.0515,-0.0099,-0.0759,-0.0147c-0.0244,-0.0048,-0.0472,-0.0094,-0.0704,-0.0141c-0.0254,-0.0051,-0.0515,-0.0103,-0.0754,-0.0152c-0.0156,-0.0032,-0.0296,-0.0062,-0.0446,-0.0093c-0.0677,-0.0141,-0.1302,-0.0275,-0.1839,-0.0394c-0.0506,-0.1694,-0.0893,-0.642,-0.1157,-0.8169C5.0888,9.6714,8.6619,10.2476,12.2629,9.4201zM8.0114,12.6367c-1.5933,0,-3.1489,-0.8082,-3.8861,-1.7228c0.0109,0.002,0.0226,0.004,0.0336,0.006c0.0328,0.0059,0.3658,0.1118,0.3998,0.1177c0.0162,0.0028,0.033,0.0056,0.0495,0.0085c0.0319,0.0055,0.064,0.0109,0.0969,0.0164c0.0177,0.0029,0.0359,0.0059,0.0539,0.0088c0.0326,0.0054,0.0654,0.0107,0.099,0.016c0.019,0.003,0.0383,0.006,0.0576,0.0091c0.0339,0.0053,0.0681,0.0106,0.1029,0.0159c0.0193,0.0029,0.0388,0.0058,0.0583,0.0087c0.0355,0.0053,0.0712,0.0105,0.1076,0.0158c0.0204,0.0029,0.0409,0.0058,0.0615,0.0088c0.0366,0.0052,0.0736,0.0103,0.111,0.0154c0.0208,0.0028,0.0416,0.0056,0.0626,0.0084c0.0389,0.0052,0.0783,0.0103,0.1181,0.0154c0.0203,0.0026,0.0406,0.0052,0.0612,0.0078c0.041,0.0051,0.0826,0.0101,0.1244,0.0151c0.0202,0.0024,0.0403,0.0048,0.0608,0.0072c0.0437,0.0051,0.0881,0.0101,0.1327,0.015c0.0193,0.0021,0.0384,0.0043,0.0579,0.0064c0.0488,0.0053,0.0982,0.0104,0.148,0.0154c0.0156,0.0016,0.0309,0.0032,0.0466,0.0048c0.0611,0.0061,0.1229,0.0119,0.1854,0.0176c0.0047,0.0004,0.0092,0.0009,0.0139,0.0013c0.2062,0.0186,0.4198,0.0349,0.6398,0.0483c0.0136,0.0008,0.0275,0.0015,0.0412,0.0024c0.0582,0.0034,0.1167,0.0067,0.1758,0.0098c0.0209,0.0011,0.042,0.002,0.063,0.003c0.0529,0.0025,0.106,0.005,0.1595,0.0072c0.024,0.001,0.0482,0.0018,0.0723,0.0027c0.0509,0.0019,0.1019,0.0037,0.1533,0.0052c0.0263,0.0008,0.0527,0.0014,0.0791,0.0021c0.05,0.0013,0.1002,0.0025,0.1507,0.0035c0.0279,0.0005,0.0559,0.001,0.084,0.0014c0.0495,0.0007,0.0992,0.0013,0.1491,0.0017c0.0291,0.0002,0.0583,0.0004,0.0876,0.0005c0.0234,0.0001,0.0466,0.0004,0.0701,0.0004c0.0112,0,0.0228,-0.0004,0.034,-0.0004c0.1442,-0.0002,0.2901,-0.002,0.4375,-0.0055c0.0227,-0.0005,0.0453,-0.0011,0.068,-0.0017c0.1488,-0.004,0.299,-0.0099,0.4506,-0.0175c0.0218,-0.0011,0.0436,-0.0022,0.0654,-0.0034c0.1532,-0.0083,0.3077,-0.0186,0.4632,-0.031c0.0211,-0.0017,0.0421,-0.0033,0.0632,-0.005c0.1575,-0.0131,0.3161,-0.0285,0.4755,-0.0461c0.0194,-0.0021,0.0388,-0.0042,0.0583,-0.0064c0.1618,-0.0184,0.3244,-0.0395,0.4877,-0.063c0.0175,-0.0025,0.035,-0.0049,0.0525,-0.0075c0.166,-0.0244,0.3327,-0.0518,0.4997,-0.0818c0.0149,-0.0027,0.0297,-0.0052,0.0445,-0.0079c0.0149,-0.0027,0.3298,-0.1051,0.3447,-0.1079C11.1064,11.8613,9.5902,12.6367,8.0114,12.6367z" fill="#6E6F72"/>
    <path d="M6.6142,6.5541c-0.1725,0,-0.337,-0.0997,-0.4115,-0.2674c-0.2398,-0.5399,-0.8742,-0.7836,-1.4141,-0.5441c-0.2429,0.108,-0.4362,0.3012,-0.5441,0.5441c-0.1009,0.2271,-0.3669,0.3294,-0.5939,0.2285c-0.2271,-0.1009,-0.3294,-0.3668,-0.2285,-0.5939c0.1986,-0.447,0.5541,-0.8025,1.0011,-1.0011c0.9935,-0.4417,2.1606,0.0078,2.602,1.0011c0.1009,0.2271,-0.0014,0.4931,-0.2285,0.5939C6.7373,6.5416,6.6752,6.5541,6.6142,6.5541z" fill="#6E6F72"/>
    <path d="M12.1669,6.5541c-0.1725,0,-0.337,-0.0997,-0.4115,-0.2674c-0.1162,-0.2615,-0.3272,-0.4621,-0.5943,-0.5649c-0.2671,-0.1027,-0.5581,-0.0954,-0.8197,0.0208c-0.2429,0.108,-0.4361,0.3012,-0.5441,0.5441c-0.1009,0.2271,-0.367,0.3294,-0.5939,0.2285c-0.2271,-0.1009,-0.3294,-0.3668,-0.2285,-0.5939c0.1986,-0.447,0.5542,-0.8025,1.0011,-1.0011c0.4813,-0.2138,1.0168,-0.2275,1.5083,-0.0383c0.4915,0.1891,0.8798,0.5583,1.0936,1.0395c0.1009,0.2271,-0.0014,0.493,-0.2286,0.5939C12.29,6.5416,12.2279,6.5541,12.1669,6.5541z" fill="#6E6F72"/>
  </g>
</svg>
