<?xml version="1.0" encoding="UTF-8"?>
<!DOCTYPE svg PUBLIC "-//W3C//DTD SVG 1.1//EN" "http://www.w3.org/Graphics/SVG/1.1/DTD/svg11.dtd">
<svg version="1.1" id="Layer_1" xmlns="http://www.w3.org/2000/svg" xmlns:xlink="http://www.w3.org/1999/xlink" x="0px" y="0px" width="16px" height="16px" viewBox="0 0 16 16" enable-background="new 0 0 16 16" xml:space="preserve">
  <g id="main">
    <g id="icon">
      <path d="M1,12L5.02,12L5.065,11.85L5.375,11.28L5.784,10.79L6.28,10.38L6.849,10.07L7.477,9.869L8.151,9.8L10.96,9.823L11.32,9.803L13,9.801L13,1L1,1zz" fill="#FFFFFF" opacity="0.4"/>
      <path d="M0,13L4.817,13L4.869,12.48L5.02,12L1,12L1,1L13,1L13,9.801L13.86,9.8L14,9.812L14,0L0,0zz" fill="#6D6E71"/>
      <path d="M9.403,1.792L9.073,1.894L8.775,2.056L8.515,2.271L8.3,2.531L8.138,2.829L8.036,3.159L8,3.513L8.036,3.867L8.138,4.197L8.3,4.495L8.515,4.755L8.775,4.97L9.073,5.132L9.403,5.234L9.757,5.27L10.11,5.234L10.44,5.132L10.74,4.97L11,4.755L11.21,4.495L11.38,4.197L11.48,3.867L11.51,3.513L11.48,3.159L11.38,2.829L11.21,2.531L11,2.271L10.74,2.056L10.44,1.894L10.11,1.792L9.757,1.756zz" fill="#EEAC55"/>
      <path d="M1,7.437L1,12L5.02,12L5.065,11.85L5.375,11.28L5.784,10.79L6.28,10.38L6.849,10.07L7.477,9.869L7.893,9.826L3.336,4.925zM7.172,8.22L8.636,9.804L10.96,9.823L11.32,9.803L12.45,9.802L8.971,6.285zz" fill="#52B4C0"/>
    </g>
    <g id="overlay">
      <path d="M8.1369,16c-0.5693,0,-1.1055,-0.2231,-1.5099,-0.6281c-0.4048,-0.4053,-0.6274,-0.9428,-0.6269,-1.5134l0.0005,-0.6985c0.001,-1.19,0.966,-2.1589,2.1512,-2.1599l1.1698,0.0097l-0.4037,0.3559c-0.2242,0.1976,-0.4074,0.432,-0.5444,0.6967l-0.0566,0.1093l-0.1648,-0.0062c-0.5466,0.0003,-0.99,0.4469,-0.9905,0.9953l-0.0004,0.6866c-0.0002,0.2597,0.1022,0.5048,0.2885,0.6902c0.1858,0.185,0.4314,0.2869,0.6915,0.2869l2.4681,-0.0026c0.5422,-0.0004,0.9837,-0.4403,0.9842,-0.9805l-0.0003,-0.1468c-0.0001,-0.1526,-0.0355,-0.3004,-0.1053,-0.4394l-0.091,-0.1817l0.1845,-0.0876c0.1026,-0.0488,0.2115,-0.0735,0.3238,-0.0736l0.7061,0.002l0.0444,0.1409c0.0659,0.2087,0.0993,0.4259,0.0995,0.6456l0.0003,0.1526c-0.001,1.1811,-0.9612,2.143,-2.1404,2.144L8.1369,16L8.1369,16z" fill="#9070B1"/>
      <path d="M12.6154,15.9903l0.4036,-0.3558c0.2242,-0.1976,0.4074,-0.432,0.5445,-0.6967l0.0568,-0.1096l0.2282,0.0065c0.5461,-0.0004,0.9896,-0.447,0.99,-0.9954l0.0004,-0.6866c0.0002,-0.2596,-0.1021,-0.5047,-0.2884,-0.6902c-0.1859,-0.185,-0.4315,-0.2869,-0.6915,-0.2869l-2.5312,0.0026c-0.5422,0.0004,-0.9837,0.4403,-0.9842,0.9805l0.0003,0.1468c0.0001,0.1526,0.0355,0.3004,0.1053,0.4394l0.091,0.1817l-0.1845,0.0876c-0.1026,0.0488,-0.2115,0.0735,-0.3238,0.0736l-0.7061,-0.002l-0.0444,-0.1409c-0.0659,-0.2087,-0.0993,-0.4259,-0.0995,-0.6456l-0.0003,-0.1526c0.001,-1.1811,0.9612,-2.143,2.1404,-2.144L13.8632,11c0.5693,0,1.1055,0.2231,1.5099,0.6281c0.4048,0.4053,0.6274,0.9428,0.6269,1.5134l-0.0005,0.6985c-0.001,1.1899,-0.9659,2.1588,-2.151,2.1599L12.6154,15.9903z" fill="#9070B1"/>
    </g>
  </g>
</svg>
