<?xml version="1.0" encoding="UTF-8"?>
<!DOCTYPE svg PUBLIC "-//W3C//DTD SVG 1.1//EN" "http://www.w3.org/Graphics/SVG/1.1/DTD/svg11.dtd">
<svg version="1.1" id="Layer_1" xmlns="http://www.w3.org/2000/svg" xmlns:xlink="http://www.w3.org/1999/xlink" x="0px" y="0px" width="16px" height="16px" viewBox="0 0 16 16" enable-background="new 0 0 16 16" xml:space="preserve">
  <g id="main">
    <g id="icon">
      <path d="M1,12L7.112,12L6.598,10.91L8.345,9.2L7.3,9.2L7.3,5.8L11.82,5.8L12,5.625L12.18,5.8L13,5.8L13,1L1,1zz" fill="#FFFFFF" opacity="0.4"/>
      <path d="M0,13L7.583,13L7.112,12L1,12L1,1L13,1L13,5.8L14,5.8L14,0L0,0zz" fill="#6D6E71"/>
      <path d="M9.403,1.792L9.073,1.894L8.775,2.056L8.515,2.271L8.3,2.531L8.138,2.829L8.036,3.159L8,3.513L8.036,3.867L8.138,4.197L8.3,4.495L8.515,4.755L8.775,4.97L9.073,5.132L9.403,5.234L9.757,5.27L10.11,5.234L10.44,5.132L10.74,4.97L11,4.755L11.21,4.495L11.38,4.197L11.48,3.867L11.51,3.513L11.48,3.159L11.38,2.829L11.21,2.531L11,2.271L10.74,2.056L10.44,1.894L10.11,1.792L9.757,1.756zz" fill="#EEAC55"/>
      <path d="M1,7.437L1,12L7.112,12L6.598,10.91L7.804,9.73L7.311,9.2L7.3,9.2L7.3,9.188L3.336,4.925zM7.172,8.22L7.3,8.359L7.3,8.082zM8.205,9.338L8.345,9.2L8.078,9.2zz" fill="#52B4C0"/>
    </g>
    <g id="overlay">
      <polygon points="8.0475,11.1699 8.9527,13.0931 11,11.102 11,16 13,16 13,11.102 15.0473,13.0931 15.9525,11.1699 12,7.304" fill="#CB525D" stroke-linejoin="miter"/>
      <rect x="8.5" y="7" width="7.1" height="1" fill="#CB525D"/>
    </g>
  </g>
</svg>
