<?xml version="1.0" encoding="UTF-8"?>
<!DOCTYPE svg PUBLIC "-//W3C//DTD SVG 1.1//EN" "http://www.w3.org/Graphics/SVG/1.1/DTD/svg11.dtd">
<svg version="1.1" id="Layer_1" xmlns="http://www.w3.org/2000/svg" xmlns:xlink="http://www.w3.org/1999/xlink" x="0px" y="0px" width="16px" height="16px" viewBox="0 0 16 16" enable-background="new 0 0 16 16" xml:space="preserve">
  <g id="main">
    <g id="icon">
      <path d="M1,12L5.829,12L5.8,11.5L5.829,10.92L5.916,10.35L6.057,9.807L6.249,9.283L6.489,8.785L6.775,8.315L7.103,7.876L7.471,7.471L7.876,7.103L8.315,6.775L8.785,6.489L9.283,6.249L9.807,6.057L10.35,5.916L10.92,5.829L11.5,5.8L12.18,5.84L12.83,5.956L13,6.008L13,1L1,1zz" fill="#FFFFFF" opacity="0.4"/>
      <path d="M0,13L6.008,13L5.956,12.83L5.84,12.18L5.829,12L1,12L1,1L13,1L13,6.008L13.45,6.145L14,6.382L14,0L0,0zz" fill="#6D6E71"/>
      <path d="M9.403,1.792L9.073,1.894L8.775,2.056L8.515,2.271L8.3,2.531L8.138,2.829L8.036,3.159L8,3.513L8.036,3.867L8.138,4.197L8.3,4.495L8.515,4.755L8.775,4.97L9.073,5.132L9.403,5.234L9.757,5.27L10.11,5.234L10.44,5.132L10.74,4.97L11,4.755L11.21,4.495L11.38,4.197L11.48,3.867L11.51,3.513L11.48,3.159L11.38,2.829L11.21,2.531L11,2.271L10.74,2.056L10.44,1.894L10.11,1.792L9.757,1.756zz" fill="#EEAC55"/>
      <path d="M1,7.437L1,12L5.829,12L5.8,11.5L5.829,10.92L5.916,10.35L6.057,9.807L6.249,9.283L6.489,8.785L6.662,8.502L3.336,4.925zM8.777,6.494L8.785,6.489L9.048,6.362L8.971,6.285zz" fill="#52B4C0"/>
    </g>
    <g id="overlay">
      <path d="M11.5,7c-2.4853,0,-4.5,2.0147,-4.5,4.5s2.0147,4.5,4.5,4.5c2.4853,0,4.5,-2.0147,4.5,-4.5S13.9853,7,11.5,7zM13.7931,12.2652L12.2,10.7114V14.6h-1.4v-3.8886l-1.5931,1.5538l-0.9837,-0.9262L11.5,8.1228l3.2767,3.2161L13.7931,12.2652z" fill="#CB525D"/>
      <polygon points="8.2233,11.3389 9.2069,12.2652 10.8,10.7114 10.8,14.6 12.2,14.6 12.2,10.7114 13.7931,12.2652 14.7767,11.3389 11.5,8.1228" fill="#FFFFFF" stroke-linejoin="miter"/>
    </g>
  </g>
</svg>
