<?xml version="1.0" encoding="UTF-8"?>
<!DOCTYPE svg PUBLIC "-//W3C//DTD SVG 1.1//EN" "http://www.w3.org/Graphics/SVG/1.1/DTD/svg11.dtd">
<svg version="1.1" id="Layer_1" xmlns="http://www.w3.org/2000/svg" xmlns:xlink="http://www.w3.org/1999/xlink" x="0px" y="0px" width="16px" height="16px" viewBox="0 0 16 16" enable-background="new 0 0 16 16" xml:space="preserve">
  <g id="icon">
    <polygon points="3.2824,10.3637 2.5772,9.6547 4.2408,8 0,8 0,7 4.2241,7 2.5772,5.362 3.2824,4.653 6.1532,7.5083" fill="#6485C3" stroke-linejoin="miter"/>
    <path d="M16,14H2v-1h14V14zM16,12H7v-1h9V12zM16,10H7V9h9V10zM16,8H7V7h9V8zM16,6H7V5h9V6zM16,4H7V3h9V4zM16,2H2V1h14V2z" fill="#6D6E71"/>
  </g>
</svg>
