<?xml version="1.0" encoding="UTF-8"?>
<!DOCTYPE svg PUBLIC "-//W3C//DTD SVG 1.1//EN" "http://www.w3.org/Graphics/SVG/1.1/DTD/svg11.dtd">
<svg version="1.1" id="Layer_1" xmlns="http://www.w3.org/2000/svg" xmlns:xlink="http://www.w3.org/1999/xlink" x="0px" y="0px" width="16px" height="16px" viewBox="0 0 16 16" enable-background="new 0 0 16 16" xml:space="preserve">
  <g id="icon">
    <path d="M3.5,3.5H1.5V1.5h2V3.5zM3.5,6.5H1.5v2h2V6.5zM3.5,11.5H1.5v2h2V11.5z" fill="#FFFFFF" opacity="0.5"/>
    <path d="M15,3H5V2h10V3zM4,1H1v3h3V1zM2,2h1v1H2V2zM15,7H5v1h10V7zM4,6H1v3h3V6zM2,7h1v1H2V7zM15,12H5v1h10V12zM4,11H1v3h3V11zM2,12h1v1H2V12z" fill="#6D6E71"/>
  </g>
</svg>
