<?xml version="1.0" encoding="UTF-8"?>
<!DOCTYPE svg PUBLIC "-//W3C//DTD SVG 1.1//EN" "http://www.w3.org/Graphics/SVG/1.1/DTD/svg11.dtd">
<svg version="1.1" id="Layer_1" xmlns="http://www.w3.org/2000/svg" xmlns:xlink="http://www.w3.org/1999/xlink" x="0px" y="0px" width="16px" height="16px" viewBox="0 0 16 16" enable-background="new 0 0 16 16" xml:space="preserve">
  <g id="icon">
    <path d="M15,15H6v-1h9V15zM15,9H6V8h9V9zM15,3H6V2h9V3z" fill="#6D6E71"/>
    <polygon points="3,3.4 3,-0.0083 1.2976,0 1.3024,1 2,0.9966 2,3.4 1.3,3.4 1.3,4.4 3.7,4.4 3.7,3.4" fill="#6485C3" stroke-linejoin="miter"/>
    <path d="M3.9,10H0.7812l0.0186,-0.8942c0.0072,-0.3464,0.1689,-0.6785,0.4438,-0.9112l1.6203,-1.3713c0.0433,-0.0582,0.0664,-0.1084,0.0664,-0.1776c0,-0.2145,-0.2578,-0.3957,-0.563,-0.3957c-0.3253,0,-0.5536,0.1977,-0.5626,0.3824l-0.9988,-0.0489C0.8424,5.8357,1.5283,5.25,2.3672,5.25c0.8618,0,1.563,0.6261,1.563,1.3957c0,0.4532,-0.2385,0.746,-0.3169,0.8422l-0.0292,0.0359l-1.6944,1.434c-0.0156,0.0132,-0.0293,0.0273,-0.0411,0.0421H3.9V10z" fill="#6485C3"/>
    <path d="M2.4704,15.9558c-1.1424,0,-1.5895,-0.7263,-1.627,-1.406l0.9984,-0.0551c0.0119,0.2146,0.094,0.461,0.6286,0.461c0.4354,0,0.6296,-0.1533,0.6296,-0.4971c0,-0.2045,-0.2583,-0.3783,-0.6613,-0.4477h-0.0927v-1h0.0927c0.3101,-0.0528,0.6614,-0.1736,0.6614,-0.4499c0,-0.3438,-0.1942,-0.4971,-0.6296,-0.4971c-0.5345,0,-0.6167,0.2464,-0.6286,0.461l-0.9984,-0.0551c0.0375,-0.6797,0.4846,-1.406,1.627,-1.406c1.2028,0,1.6296,0.8065,1.6296,1.4971c0,0.3816,-0.1479,0.7083,-0.4193,0.9575c0.2682,0.2508,0.4193,0.5748,0.4193,0.9401C4.1,15.1493,3.6732,15.9558,2.4704,15.9558z" fill="#6485C3"/>
  </g>
</svg>
