<?xml version="1.0" encoding="UTF-8"?>
<!DOCTYPE svg PUBLIC "-//W3C//DTD SVG 1.1//EN" "http://www.w3.org/Graphics/SVG/1.1/DTD/svg11.dtd">
<svg version="1.1" id="Layer_1" xmlns="http://www.w3.org/2000/svg" xmlns:xlink="http://www.w3.org/1999/xlink" x="0px" y="0px" width="16px" height="16px" viewBox="0 0 16 16" enable-background="new 0 0 16 16" xml:space="preserve">
  <g id="icon">
    <path d="M7.6446,14.15c-0.3928,0,-0.7826,-0.0495,-1.1587,-0.1471c-0.8078,-0.2097,-1.5675,-0.6831,-2.197,-1.369l-0.1762,-0.1918l0.9261,-0.8499l0.176,0.1919c0.4655,0.507,1.0142,0.8536,1.5869,1.0021c0.2691,0.0699,0.5516,0.1054,0.8395,0.1054c0.4066,0,0.7963,-0.0715,1.1269,-0.2067c0.5927,-0.2424,1.0467,-0.6785,1.2787,-1.2282c0.2021,-0.4789,0.3188,-1.1889,0.0401,-1.7453c-0.2671,-0.5335,-0.8923,-0.8239,-1.4687,-1.0376c-0.255,-0.0945,-0.5257,-0.1807,-0.7875,-0.264c-0.5357,-0.1705,-1.0884,-0.3464,-1.6217,-0.6217c-0.91,-0.4699,-1.4895,-1.2258,-1.6319,-2.1283c-0.1593,-1.0094,0.1444,-2.0351,0.8124,-2.7437c0.6473,-0.6867,1.6085,-1.0648,2.7065,-1.0648c0.0646,0,0.1296,0.0013,0.1952,0.0039c1.0626,0.0426,2.0163,0.4687,2.7579,1.2321l0.1815,0.1868l-0.9015,0.8758l-0.1814,-0.1868c-0.5203,-0.5355,-1.1618,-0.8222,-1.9066,-0.852c-0.0438,-0.0018,-0.0908,-0.0029,-0.1407,-0.0029c-0.5313,0,-1.2743,0.1163,-1.7963,0.67c-0.403,0.4276,-0.5845,1.0578,-0.4854,1.6857c0.1006,0.6372,0.5814,1.0083,0.967,1.2074c0.4388,0.2266,0.9174,0.3789,1.4241,0.5402c0.277,0.0881,0.5625,0.179,0.8455,0.2839c0.8061,0.2988,1.6926,0.7289,2.1556,1.6531c0.4698,0.9384,0.3049,2.06,-0.006,2.7967c-0.362,0.858,-1.0583,1.5338,-1.9608,1.9029C8.7611,14.0457,8.2081,14.15,7.6446,14.15z" fill="#6D6E71"/>
    <rect x="2.9001" y="7.4002" width="10.1997" height="1.2" fill="#6D6E71"/>
  </g>
</svg>
