<?xml version="1.0" encoding="UTF-8"?>
<!DOCTYPE svg PUBLIC "-//W3C//DTD SVG 1.1//EN" "http://www.w3.org/Graphics/SVG/1.1/DTD/svg11.dtd">
<svg version="1.1" id="Layer_1" xmlns="http://www.w3.org/2000/svg" xmlns:xlink="http://www.w3.org/1999/xlink" x="0px" y="0px" width="16px" height="16px" viewBox="0 0 16 16" enable-background="new 0 0 16 16" xml:space="preserve">
  <g id="icon">
    <polygon points="2,13.2608 5.1761,8.9058 2.1508,4.7665 3.052,4.1 5.8872,7.9793 8.7201,4.1001 9.6214,4.7662 6.6067,8.8944 9.7719,13.2625 8.8681,13.9253 5.8949,9.8223 2.9018,13.9264" fill="#6D6E71" stroke-linejoin="miter"/>
    <path d="M9.9279,8v-0.8185l1.9055,-2.044c0.1473,-0.1529,0.2884,-0.3031,0.4203,-0.4473c0.115,-0.1259,0.2171,-0.2553,0.3035,-0.3846c0.0769,-0.1152,0.1387,-0.2368,0.1837,-0.3612c0.0382,-0.1056,0.0575,-0.2242,0.0575,-0.3526c0,-0.1508,-0.022,-0.2736,-0.0653,-0.3648c-0.0455,-0.0955,-0.1003,-0.1695,-0.1676,-0.2263c-0.0716,-0.0602,-0.1523,-0.1037,-0.2467,-0.1328c-0.1117,-0.0345,-0.2267,-0.0519,-0.3418,-0.0519c-0.1309,0,-0.2507,0.0197,-0.356,0.0586c-0.1031,0.0381,-0.1907,0.0899,-0.2677,0.1583c-0.0757,0.0673,-0.137,0.1491,-0.1875,0.25c-0.0535,0.107,-0.0898,0.2326,-0.1078,0.3733l-0.0254,0.1984l-1.1099,-0.1438l0.0254,-0.1982c0.0342,-0.2669,0.1075,-0.5139,0.2178,-0.7344c0.1139,-0.2279,0.2639,-0.4254,0.4457,-0.5869c0.1804,-0.1605,0.39,-0.2856,0.623,-0.3717c0.2294,-0.0848,0.4791,-0.1278,0.7424,-0.1278c0.2265,0,0.4521,0.0342,0.6705,0.1016c0.2366,0.0731,0.4508,0.1895,0.6367,0.3459c0.19,0.1599,0.3443,0.3629,0.4587,0.6034c0.1158,0.2439,0.1745,0.5296,0.1745,0.8491c0,0.2596,-0.042,0.5074,-0.1249,0.7366c-0.0758,0.2098,-0.1789,0.4129,-0.3063,0.6037c-0.1181,0.1767,-0.2555,0.3511,-0.4085,0.5185c-0.1381,0.1511,-0.2841,0.3065,-0.434,0.4622l-0.898,0.9632H14V8H9.9279z" fill="#6485C3"/>
  </g>
</svg>
