<?xml version="1.0" encoding="UTF-8"?>
<!DOCTYPE svg PUBLIC "-//W3C//DTD SVG 1.1//EN" "http://www.w3.org/Graphics/SVG/1.1/DTD/svg11.dtd">
<svg version="1.1" id="Layer_1" xmlns="http://www.w3.org/2000/svg" xmlns:xlink="http://www.w3.org/1999/xlink" x="0px" y="0px" width="16px" height="16px" viewBox="0 0 16 16" enable-background="new 0 0 16 16" xml:space="preserve">
  <g id="icon">
    <polygon points="0,15.2524 4.3182,9.3308 0.2064,3.7044 1.1587,3 5.075,8.359 8.9882,3.0001 9.9408,3.7042 5.8437,9.315 10.1469,15.254 9.1916,15.9545 5.0861,10.2882 0.9531,15.9558" fill="#6D6E71" stroke-linejoin="miter"/>
    <path d="M10.7777,9v-0.8767l2.5602,-2.7465c0.2034,-0.2112,0.3968,-0.4172,0.576,-0.6134c0.1632,-0.1786,0.3085,-0.3626,0.4316,-0.5469c0.113,-0.1693,0.2039,-0.3483,0.2703,-0.5318c0.0592,-0.1636,0.0892,-0.3459,0.0892,-0.5419c0,-0.2325,-0.0357,-0.4255,-0.1062,-0.5739c-0.0731,-0.1538,-0.1629,-0.2742,-0.2744,-0.3682c-0.1161,-0.0977,-0.2465,-0.1681,-0.3984,-0.215c-0.1696,-0.0524,-0.3442,-0.0789,-0.5191,-0.0789c-0.1997,0,-0.384,0.0306,-0.5475,0.0911c-0.1618,0.0599,-0.2998,0.1416,-0.4216,0.2499c-0.1205,0.1072,-0.2175,0.2362,-0.2966,0.3944c-0.0821,0.164,-0.1374,0.3546,-0.1645,0.5666l-0.0126,0.0983l-1.1724,-0.152l0.0126,-0.0983c0.0443,-0.3456,0.1388,-0.665,0.2809,-0.949c0.1459,-0.2918,0.3376,-0.5444,0.5697,-0.7508c0.2305,-0.2051,0.4986,-0.365,0.7969,-0.4753c0.2945,-0.1089,0.6159,-0.164,0.9552,-0.164c0.2925,0,0.5838,0.0441,0.8659,0.1312c0.3015,0.0931,0.5741,0.2412,0.8103,0.44c0.2407,0.2027,0.4366,0.4609,0.5822,0.7671c0.1472,0.3099,0.2218,0.6755,0.2218,1.0868c0,0.335,-0.054,0.6541,-0.1604,0.9485c-0.0991,0.274,-0.2337,0.5392,-0.4,0.7884c-0.1565,0.2342,-0.339,0.4659,-0.5425,0.6886c-0.1866,0.2041,-0.3853,0.4158,-0.5906,0.629l-1.504,1.6134H16V9H10.7777z" fill="#6485C3"/>
  </g>
</svg>
