<?xml version="1.0" encoding="UTF-8"?>
<!DOCTYPE svg PUBLIC "-//W3C//DTD SVG 1.1//EN" "http://www.w3.org/Graphics/SVG/1.1/DTD/svg11.dtd">
<svg version="1.1" id="Layer_1" xmlns="http://www.w3.org/2000/svg" xmlns:xlink="http://www.w3.org/1999/xlink" x="0px" y="0px" width="16px" height="16px" viewBox="0 0 16 16" enable-background="new 0 0 16 16" xml:space="preserve">
  <g id="icon">
    <rect x="2.9122" y="12.8959" width="10.4778" height="1.194" fill="#6D6E71"/>
    <path d="M7.9992,12.09c-0.6128,0,-1.1762,-0.105,-1.6744,-0.3121c-0.5017,-0.2086,-0.9375,-0.4985,-1.2953,-0.8618c-0.3624,-0.3632,-0.6433,-0.7975,-0.8345,-1.2905c-0.1891,-0.4813,-0.285,-1.0044,-0.285,-1.5543V1.91h1.1211v6.1612c0,0.3951,0.0677,0.7677,0.2012,1.1076c0.1317,0.3398,0.3248,0.6384,0.5738,0.888c0.2536,0.2574,0.5668,0.4646,0.9314,0.6162c0.3662,0.1522,0.7906,0.2294,1.2616,0.2294s0.8954,-0.0772,1.2615,-0.2294c0.3683,-0.1524,0.673,-0.3535,0.9315,-0.6146c0.2492,-0.251,0.4418,-0.5495,0.5729,-0.8872c0.1353,-0.3446,0.2038,-0.7179,0.2038,-1.11V1.91H12.09v6.1612c0,0.547,-0.0967,1.0708,-0.2875,1.5567c-0.19,0.4898,-0.4705,0.9239,-0.8335,1.2896c-0.3605,0.3642,-0.7967,0.6538,-1.2962,0.8606C9.1751,11.9851,8.612,12.09,7.9992,12.09z" fill="#6D6E71"/>
  </g>
</svg>
