<?xml version="1.0" encoding="UTF-8"?>
<!DOCTYPE svg PUBLIC "-//W3C//DTD SVG 1.1//EN" "http://www.w3.org/Graphics/SVG/1.1/DTD/svg11.dtd">
<svg version="1.1" id="Layer_1" xmlns="http://www.w3.org/2000/svg" xmlns:xlink="http://www.w3.org/1999/xlink" x="0px" y="0px" width="16px" height="16px" viewBox="0 0 16 16" enable-background="new 0 0 16 16" xml:space="preserve">
  <g id="icon">
    <rect x="1.9" y="13.9" width="12.2" height="1.2" fill="#6D6E71"/>
    <path d="M7.9989,12.9295c-0.7663,0,-1.4697,-0.1235,-2.0908,-0.3671c-0.6254,-0.2453,-1.1684,-0.586,-1.6138,-1.0127c-0.4511,-0.4265,-0.8007,-0.9366,-1.0388,-1.5156C3.0197,9.4673,2.9,8.8513,2.9,8.2034V0.9h1.2v7.3034c0,0.4888,0.089,0.9504,0.2645,1.3719c0.1737,0.4226,0.4284,0.7942,0.7572,1.1051c0.3337,0.3197,0.7456,0.5768,1.2247,0.7647c0.481,0.1887,1.037,0.2843,1.6526,0.2843s1.1716,-0.0957,1.6525,-0.2843c0.4838,-0.189,0.8846,-0.4386,1.2252,-0.7632c0.3288,-0.3125,0.583,-0.684,0.7558,-1.1042C11.81,9.151,11.9,8.6888,11.9,8.2034V0.9h1.2v7.3034c0,0.6444,-0.1207,1.2612,-0.3587,1.8331c-0.2367,0.5756,-0.5857,1.0854,-1.0373,1.5147c-0.449,0.4278,-0.9925,0.7682,-1.6151,1.0114C9.4684,12.8061,8.7652,12.9295,7.9989,12.9295z" fill="#6D6E71"/>
  </g>
</svg>
