<?xml version="1.0" encoding="UTF-8"?>
<!DOCTYPE svg PUBLIC "-//W3C//DTD SVG 1.1//EN" "http://www.w3.org/Graphics/SVG/1.1/DTD/svg11.dtd">
<svg version="1.1" id="Layer_1" xmlns="http://www.w3.org/2000/svg" xmlns:xlink="http://www.w3.org/1999/xlink" x="0px" y="0px" width="16px" height="16px" viewBox="0 0 16 16" enable-background="new 0 0 16 16" xml:space="preserve">
  <g id="icon">
    <path d="M14.5,14.5H1.5c-0.55,0,-1,-0.45,-1,-1V3.5c0,-0.55,0.45,-1,1,-1h13c0.55,0,1,0.45,1,1v10C15.5,14.05,15.05,14.5,14.5,14.5z" id="b" fill="#FFFFFF" opacity="0.5"/>
    <path d="M14.5,15H1.5c-0.8271,0,-1.5,-0.6729,-1.5,-1.5V3.5c0,-0.8271,0.6729,-1.5,1.5,-1.5h13c0.8271,0,1.5,0.6729,1.5,1.5v10C16,14.3271,15.3271,15,14.5,15zM1.5,3c-0.2757,0,-0.5,0.2243,-0.5,0.5v10c0,0.2757,0.2243,0.5,0.5,0.5h13c0.2757,0,0.5,-0.2243,0.5,-0.5V3.5c0,-0.2757,-0.2243,-0.5,-0.5,-0.5H1.5z" fill="#6D6E71"/>
    <path d="M16,7H0V5h16V7z" fill="#6D6E71"/>
    <path d="M11.8191,8.5366c-0.9015,-0.7014,-2.1813,-0.6984,-3.0729,0.0119c-0.3475,0.2768,-0.5983,0.6219,-0.7533,0.9976c-0.9959,-0.0027,-3.8762,-0.0307,-3.8762,-0.0307c-0.0422,0.0002,-0.0825,0.017,-0.1123,0.0467l-0.9612,0.9612l1.1427,1.1427l0.5874,-0.5874l0.5886,0.5886l0.5874,-0.5874l0.4501,0.4501l0.4698,-0.4698l0.4845,-0.0055l-0.005,0.1716c-0.0002,0.0875,0.0674,0.1572,0.1549,0.1596c0,0,0.2441,-0.0034,0.4654,0.0036c0.1405,0.3689,0.3711,0.7119,0.6917,0.9946c0.918,0.8095,2.3065,0.8372,3.2441,0.0542C13.1272,11.4175,13.0968,9.5308,11.8191,8.5366zM10.4751,11.1756c-0.3564,-0.3564,-0.357,-0.9337,-0.0013,-1.2894c0.3557,-0.3557,0.933,-0.3551,1.2894,0.0013c0.3564,0.3564,0.357,0.9337,0.0013,1.2894C11.4088,11.5326,10.8316,11.532,10.4751,11.1756z" fill="#EEAC55"/>
  </g>
</svg>
