<?xml version="1.0" encoding="UTF-8"?>
<!DOCTYPE svg PUBLIC "-//W3C//DTD SVG 1.1//EN" "http://www.w3.org/Graphics/SVG/1.1/DTD/svg11.dtd">
<svg version="1.1" id="Layer_1" xmlns="http://www.w3.org/2000/svg" xmlns:xlink="http://www.w3.org/1999/xlink" x="0px" y="0px" width="16px" height="16px" viewBox="0 0 16 16" enable-background="new 0 0 16 16" xml:space="preserve">
  <g id="main">
    <g id="icon">
      <path d="M5.616,0.5602L5.242,0.6756L4.904,0.8582L4.609,1.1L4.365,1.393L4.182,1.729L4.065,2.101L4.025,2.5L3.3,2.5L2.5,2.5L0.5,2.5L0.5,13.5L6.797,13.5L6.77,13.47L6.403,12.84L6.129,12.17L5.959,11.45L5.9,10.69L5.925,10.19L5.999,9.704L6.285,8.787L6.736,7.957L7.333,7.233L8.057,6.636L8.887,6.185L9.804,5.899L10.29,5.825L10.79,5.8L11.5,5.856L11.5,2.5L9.5,2.5L8.2,2.5L8.011,2.5L7.97,2.101L7.854,1.729L7.67,1.393L7.427,1.1L7.132,0.8582L6.794,0.6756L6.42,0.5602L6.018,0.5199zz" fill="#FFFFFF" opacity="0.5"/>
      <path d="M0,14L7.201,14L6.77,13.47L6.494,13L1,13L1,3L3.3,3L3.495,2.961L3.654,2.854L3.761,2.695L3.8,2.5L3.761,2.305L3.654,2.146L3.495,2.039L3.3,2L0,2zM8.005,2.039L7.846,2.146L7.739,2.305L7.7,2.5L7.739,2.695L7.846,2.854L8.005,2.961L8.2,3L11,3L11,5.817L11.56,5.861L12,5.967L12,2L8.2,2zz" fill="#EEAC55"/>
      <path d="M5.565,0.5836L5.196,0.7406L4.868,0.9744L4.586,1.262L4.356,1.579L4.185,1.904L4.078,2.213L4.041,2.483L2.4,2.483L2.4,4.45L9.5,4.45L9.5,2.483L7.895,2.483L7.858,2.213L7.751,1.904L7.58,1.579L7.35,1.262L7.068,0.9744L6.74,0.7406L6.371,0.5836L5.968,0.526zz" fill="#B7B7B7" opacity="0.4"/>
      <path d="M5.577,0.05879L5.162,0.1707L4.778,0.3488L4.433,0.5867L4.134,0.8775L3.887,1.214L3.698,1.591L3.576,2L2,2L2,5L10,5L10,2L8.46,2L8.337,1.591L8.149,1.214L7.902,0.8775L7.602,0.5867L7.257,0.3488L6.874,0.1707L6.459,0.05879L6.018,0.01992zM6.318,1.05L6.598,1.137L6.852,1.273L7.073,1.454L7.255,1.673L7.393,1.924L7.48,2.202L7.511,2.5L7.511,3L9,3L9,4L3,4L3,3L4.525,3L4.525,2.5L4.555,2.202L4.643,1.924L4.78,1.673L4.963,1.454L5.184,1.273L5.437,1.137L5.717,1.05L6.018,1.02zz" fill="#6D6E71"/>
      <path d="M3,7L7.616,7L8.057,6.636L8.887,6.185L9,6.15L9,6L3,6zM3,9L6.218,9L6.285,8.787L6.712,8L3,8zM3,11L5.924,11L5.9,10.69L5.925,10.19L5.954,10L3,10zz" fill="#6D6E71"/>
      <path d="M1,12L1,13L2,13L6.494,13L6.403,12.84L6.129,12.17L6.09,12L2,12L2,3L1,3zM10,5.869L10.29,5.825L10.79,5.8L11,5.817L11,3L10,3zz" fill="#EEAC55" opacity="0.2"/>
    </g>
    <g id="overlay">
      <path d="M7.7797,10.6726c0,-1.6529,1.3399,-2.9929,2.9929,-2.9929s2.9929,1.3399,2.9929,2.9929s-1.3399,2.9929,-2.9929,2.9929S7.7797,12.3255,7.7797,10.6726z" fill="#FFFFFF" opacity="0.4"/>
      <path d="M12.7639,13.7989c-0.591,0.3775,-1.2694,0.5759,-1.9765,0.5759C8.7542,14.3748,7.1,12.7206,7.1,10.6874S8.7542,7,10.7874,7s3.6874,1.6542,3.6874,3.6874c0,0.7071,-0.1984,1.3854,-0.5759,1.9765L16,14.765L14.865,15.9L12.7639,13.7989zM10.7874,8.2625c-1.3371,0,-2.4249,1.0878,-2.4249,2.4249c0,1.3371,1.0878,2.4249,2.4249,2.4249c1.3371,0,2.4249,-1.0878,2.4249,-2.4249C13.2123,9.3503,12.1245,8.2625,10.7874,8.2625z" fill="#6D6E71"/>
    </g>
  </g>
</svg>
