<?xml version="1.0" encoding="UTF-8"?>
<!DOCTYPE svg PUBLIC "-//W3C//DTD SVG 1.1//EN" "http://www.w3.org/Graphics/SVG/1.1/DTD/svg11.dtd">
<svg version="1.1" id="Layer_1" xmlns="http://www.w3.org/2000/svg" xmlns:xlink="http://www.w3.org/1999/xlink" x="0px" y="0px" width="16px" height="16px" viewBox="0 0 16 16" enable-background="new 0 0 16 16" xml:space="preserve">
  <g id="main">
    <g id="icon">
      <path d="M4.817,0.634L3.758,0.7316L2.835,0.8869L2.057,1.093L1.435,1.344L0.9777,1.633L0.6961,1.954L0.6,2.3L0.6,10.81L0.6961,11.33L0.9777,11.82L1.435,12.26L2.057,12.64L2.835,12.96L3.758,13.2L4.817,13.35L6,13.4L7.183,13.35L7.305,13.33L7.789,12.19L5.55,12.19L9.281,4.8L11.4,4.8L11.4,2.3L11.3,1.954L11.02,1.633L10.57,1.344L9.943,1.093L9.165,0.8869L8.242,0.7316L7.183,0.634L6,0.6zz" fill="#FFFFFF" opacity="0.5"/>
      <path d="M4.881,0.0291L3.797,0.1207L2.784,0.2801L1.876,0.5133L1.108,0.8262L0.5158,1.224L0.2967,1.457L0.1348,1.714L0.03438,1.994L0,2.3L0,10.81L0.03418,11.16L0.1354,11.5L0.3023,11.83L0.5332,12.14L0.8266,12.43L1.181,12.71L2.065,13.19L2.943,13.54L3.846,13.79L4.843,13.95L6,14L7.041,13.95L7.577,12.69L7.149,12.75L6,12.8L4.851,12.75L3.865,12.61L3.038,12.39L2.369,12.12L1.853,11.81L1.488,11.47L1.271,11.14L1.2,10.81L1.2,2.312L1.303,2.169L1.52,1.998L1.864,1.814L2.35,1.631L2.992,1.464L3.805,1.327L4.803,1.234L6,1.2L7.197,1.234L8.195,1.327L9.008,1.464L9.65,1.631L10.14,1.814L10.48,1.998L10.7,2.169L10.8,2.312L10.8,4.8L12,4.8L12,2.3L11.97,1.994L11.87,1.714L11.7,1.457L11.48,1.224L10.89,0.8262L10.12,0.5133L9.216,0.2801L8.203,0.1207L7.119,0.0291L6,0zz" fill="#EEAC55"/>
      <path d="M1.2,2.324L0.1,2.324L0.1396,2.653L0.2545,2.951L0.4377,3.22L0.6824,3.461L1.33,3.866L2.145,4.174L3.072,4.397L4.06,4.543L5.053,4.624L6,4.648L6.947,4.624L7.94,4.543L8.928,4.397L9.855,4.174L10.67,3.866L11.32,3.461L11.56,3.22L11.75,2.951L11.86,2.653L11.9,2.324L10.8,2.324L10.8,2.307L10.71,2.449L10.49,2.622L10.14,2.811L9.652,2.999L9.005,3.173L8.189,3.316L7.192,3.412L6,3.448L4.808,3.412L3.811,3.316L2.995,3.173L2.348,2.999L1.857,2.811L1.511,2.622L1.295,2.449L1.198,2.307zz" fill="#EEAC55"/>
    </g>
    <g id="overlay">
      <path d="M13.084,9.7408h2.4894L7.702,15.9776c-0.0862,0.0665,-0.2029,-0.0262,-0.1614,-0.128l2.0595,-4.8618H7.5002L10.0192,6h5.9695L13.084,9.7408z" fill="#6485C3"/>
    </g>
  </g>
</svg>
