<?xml version="1.0" encoding="UTF-8"?>
<!DOCTYPE svg PUBLIC "-//W3C//DTD SVG 1.1//EN" "http://www.w3.org/Graphics/SVG/1.1/DTD/svg11.dtd">
<svg version="1.1" id="Layer_1" xmlns="http://www.w3.org/2000/svg" xmlns:xlink="http://www.w3.org/1999/xlink" x="0px" y="0px" width="16px" height="16px" viewBox="0 0 16 16" enable-background="new 0 0 16 16" xml:space="preserve">
  <g id="main">
    <g id="icon">
      <path d="M8.325,0.4998L7.677,0.5986L7.052,0.7594L6.452,0.9785L5.882,1.253L5.344,1.579L4.841,1.955L4.378,2.376L3.956,2.838L3.581,3.34L3.254,3.878L2.979,4.448L2.76,5.047L2.599,5.671L2.579,5.8L9.2,5.8L9.2,13.49L9.66,13.47L10.31,13.37L10.93,13.21L11.53,12.99L12.1,12.72L12.64,12.39L13.14,12.02L13.61,11.59L14.03,11.13L14.4,10.63L14.73,10.09L15.01,9.523L15.23,8.924L15.39,8.299L15.49,7.652L15.52,6.985L15.49,6.319L15.39,5.671L15.23,5.047L15.01,4.448L14.73,3.878L14.4,3.34L14.03,2.838L13.61,2.376L13.14,1.955L12.64,1.579L12.1,1.253L11.53,0.9785L10.93,0.7594L10.31,0.5986L9.66,0.4998L8.993,0.4662zz" fill="#FFFFFF" opacity="0.5"/>
      <path d="M8.285,0.03613L7.591,0.1424L6.921,0.3148L6.278,0.5504L5.666,0.8451L5.089,1.196L4.55,1.599L4.053,2.05L3.6,2.547L3.197,3.086L2.846,3.662L2.551,4.273L2.315,4.915L2.142,5.585L2.109,5.8L3.216,5.8L3.361,5.241L3.559,4.699L3.808,4.184L4.104,3.697L4.445,3.243L4.826,2.824L5.246,2.443L5.701,2.103L6.188,1.807L6.704,1.559L7.246,1.36L7.811,1.215L8.397,1.125L9,1.095L9.603,1.125L10.19,1.215L10.75,1.36L11.3,1.559L11.81,1.807L12.3,2.103L12.75,2.443L13.17,2.824L13.56,3.243L13.9,3.697L14.19,4.184L14.44,4.699L14.64,5.241L14.79,5.805L14.87,6.39L14.91,6.993L14.87,7.595L14.79,8.18L14.64,8.745L14.44,9.286L14.19,9.802L13.9,10.29L13.56,10.74L13.17,11.16L12.75,11.54L12.3,11.88L11.81,12.18L11.3,12.43L10.75,12.62L10.19,12.77L9.603,12.86L9.2,12.88L9.2,13.98L9.715,13.95L10.41,13.84L11.08,13.67L11.72,13.43L12.33,13.14L12.91,12.79L13.45,12.39L13.95,11.93L14.4,11.44L14.8,10.9L15.15,10.32L15.45,9.712L15.68,9.07L15.86,8.4L15.96,7.707L16,6.993L15.96,6.279L15.86,5.585L15.68,4.916L15.45,4.273L15.15,3.662L14.8,3.086L14.4,2.547L13.95,2.05L13.45,1.599L12.91,1.196L12.33,0.8453L11.72,0.5504L11.08,0.3148L10.41,0.1424L9.715,0.03613L9,0zz" fill="#6485C3"/>
      <path d="M8.279,0.03613L7.585,0.1422L6.916,0.3146L6.273,0.5498L5.662,0.8443L5.086,1.195L4.547,1.597L4.05,2.048L3.599,2.545L3.196,3.082L2.845,3.658L2.55,4.269L2.315,4.91L2.142,5.579L2.109,5.8L3.051,5.8L3.056,5.767L3.205,5.187L3.409,4.631L3.665,4.103L3.969,3.603L4.318,3.137L4.709,2.707L5.14,2.316L5.607,1.968L6.106,1.664L6.636,1.409L7.193,1.205L7.773,1.056L8.374,0.9637L8.993,0.9324L9.612,0.9637L10.21,1.056L10.79,1.205L11.35,1.409L11.88,1.664L12.38,1.968L12.85,2.316L13.28,2.707L13.67,3.137L14.02,3.603L14.32,4.103L14.58,4.631L14.78,5.187L14.93,5.767L15.02,6.367L15.05,6.985L15.02,7.603L14.93,8.204L14.78,8.783L14.58,9.339L14.32,9.868L14.02,10.37L13.67,10.83L13.28,11.26L12.85,11.65L12.38,12L11.88,12.31L11.35,12.56L10.79,12.77L10.21,12.92L9.612,13.01L9.2,13.03L9.2,13.96L9.707,13.93L10.4,13.83L11.07,13.66L11.71,13.42L12.32,13.13L12.9,12.78L13.44,12.37L13.93,11.92L14.39,11.43L14.79,10.89L15.14,10.31L15.43,9.702L15.67,9.06L15.84,8.391L15.95,7.698L15.99,6.985L15.95,6.272L15.84,5.579L15.67,4.91L15.43,4.269L15.14,3.658L14.79,3.082L14.39,2.545L13.93,2.048L13.44,1.597L12.9,1.195L12.32,0.8443L11.71,0.5498L11.07,0.3146L10.4,0.1422L9.707,0.03613L8.993,0zz" fill="#6485C3"/>
      <path d="M8.407,0.3064L8.098,0.5793L7.524,1.26L7.017,2.087L6.583,3.02L6.232,4.02L5.971,5.046L5.85,5.8L6.789,5.8L6.873,5.27L7.091,4.392L7.378,3.547L7.72,2.762L8.108,2.066L8.53,1.484L8.975,1.046L9.431,1.488L9.864,2.073L10.26,2.771L10.61,3.557L10.91,4.401L11.13,5.278L11.27,6.158L11.32,7.016L11.27,7.887L11.13,8.778L10.9,9.661L10.61,10.51L10.25,11.29L9.85,11.98L9.415,12.55L9.2,12.74L9.2,13.83L9.236,13.89L9.563,13.67L9.877,13.41L10.46,12.74L10.97,11.92L11.41,11L11.77,10L12.03,8.981L12.2,7.973L12.26,7.016L12.2,6.063L12.03,5.055L11.77,4.033L11.41,3.034L10.97,2.101L10.45,1.271L9.863,0.5859L9.219,0.08496L8.974,0.5L8.73,0.08496zz" fill="#6485C3"/>
      <path d="M2.839,5.594L15.05,5.594L15.05,4.662L2.839,4.662zM9.2,9.324L15.05,9.324L15.05,8.391L9.2,8.391zz" fill="#6485C3"/>
    </g>
    <g id="overlay">
      <path d="M7,11H1V8h6V11zM7,12H1v3h6V12z" fill="#FFFFFF" opacity="0.4"/>
      <path d="M8,16H0V7h8V16zM1,15h6v-3H1V15zM1,11h6V8H1V11z" fill="#6D6E71"/>
      <path d="M6,14H2v-1h1l0,0h2l0,0h1V14zM6,10H2V9h1l0,0h2l0,0h1V10z" fill="#EEAC55"/>
    </g>
  </g>
</svg>
