<?xml version="1.0" encoding="UTF-8"?>
<!DOCTYPE svg PUBLIC "-//W3C//DTD SVG 1.1//EN" "http://www.w3.org/Graphics/SVG/1.1/DTD/svg11.dtd">
<svg version="1.1" id="Layer_1" xmlns="http://www.w3.org/2000/svg" xmlns:xlink="http://www.w3.org/1999/xlink" x="0px" y="0px" width="16px" height="16px" viewBox="0 0 16 16" enable-background="new 0 0 16 16" xml:space="preserve">
  <g id="main">
    <g id="icon">
      <path d="M11.5,5.803L12.48,5.883L13.45,6.132L13.45,5.812L13.5,5.812L13.5,4.5L11.5,3.217zM0.5,4.5L0.5,13.49L5.8,13.49L5.8,12.06L5.701,12.06L5.8,11.03L5.8,10.94L5.809,10.94L5.827,10.75L5.902,10.22L6.024,9.714L6.401,8.767L6.572,8.5L4.767,8.5L2.5,6.2L2.5,3.223zz" fill="#FFFFFF" opacity="0.5"/>
      <path d="M11.5,3.811L13,4.773L13,6.016L13.45,6.132L13.45,5.812L14,5.812L14,4.227L11.5,2.623zM0,4.226L0,13.99L5.8,13.99L5.8,12.99L1,12.99L1,4.774L2.5,3.816L2.5,2.63zz" fill="#6D6E71"/>
      <path d="M0.2209,5.215L4.847,9L6.309,9L6.401,8.767L6.892,8L5.153,8L0.7791,4.385zM11.5,5.804L12.48,5.883L12.85,5.977L13.78,5.215L13.22,4.385zz" fill="#6D6E71"/>
      <path d="M3.5,5.513L5.305,7.4L7.435,7.4L7.624,7.2L8.436,6.61L9.357,6.17L10.05,5.982L10.5,5.513L10.5,0.5L3.5,0.5zz" fill="#FFFFFF" opacity="0.5"/>
      <path d="M3,5.177L4,5.849L4,1L10,1L10,5.849L11,5.177L11,0L3,0zz" fill="#6D6E71"/>
      <path d="M5,3L9,3L9,2L5,2zM5,5L9,5L9,4L5,4zz" fill="#6485C3"/>
    </g>
    <g id="overlay">
      <path d="M14.65,7.0121V8.222C13.7217,7.4009,12.6418,7,11.4622,7C9.109,7,7.2359,8.6071,7.021,10.864h1.3595c0.2076,-1.4894,1.4742,-2.5086,3.054,-2.5086c0.9149,0,1.7992,0.4053,2.4808,1.1604h-1.7725v1.3482H16v-3.852H14.65z" fill="#6485C3"/>
      <path d="M14.618,12.148c-0.2127,1.4829,-1.4769,2.4965,-3.0525,2.4965c-0.9149,0,-1.7992,-0.4053,-2.4808,-1.1604h1.7725V12.136H7v3.852h1.35V14.778c0.9283,0.8211,2.0082,1.222,3.1878,1.222c2.349,0,4.2199,-1.6013,4.4402,-3.852H14.618z" fill="#6485C3"/>
    </g>
  </g>
</svg>
