<?xml version="1.0" encoding="UTF-8"?>
<!DOCTYPE svg PUBLIC "-//W3C//DTD SVG 1.1//EN" "http://www.w3.org/Graphics/SVG/1.1/DTD/svg11.dtd">
<svg version="1.1" id="Layer_1" xmlns="http://www.w3.org/2000/svg" xmlns:xlink="http://www.w3.org/1999/xlink" x="0px" y="0px" width="16px" height="16px" viewBox="0 0 16 16" enable-background="new 0 0 16 16" xml:space="preserve">
  <g id="main">
    <g id="icon">
      <path d="M6.325,0.5004L5.677,0.5992L5.052,0.76L4.452,0.9795L3.882,1.254L3.344,1.581L2.841,1.957L2.378,2.378L1.956,2.841L1.581,3.344L1.254,3.882L0.9791,4.452L0.7596,5.052L0.5988,5.677L0.4998,6.325L0.4662,6.993L0.4998,7.66L0.5988,8.308L0.7596,8.933L0.9791,9.533L1.254,10.1L1.581,10.64L1.956,11.14L2.378,11.61L2.841,12.03L3.344,12.4L3.882,12.73L4.452,13.01L4.803,13.13L4.869,12.48L5.065,11.85L5.375,11.28L5.784,10.79L6.28,10.38L6.849,10.07L7.477,9.869L8.151,9.8L10.96,9.823L11.32,9.803L12.88,9.801L13.01,9.533L13.23,8.933L13.39,8.308L13.49,7.66L13.52,6.993L13.49,6.325L13.39,5.677L13.23,5.052L13.01,4.452L12.73,3.882L12.4,3.344L12.03,2.841L11.61,2.378L11.14,1.957L10.64,1.581L10.1,1.254L9.533,0.9795L8.933,0.76L8.308,0.5992L7.66,0.5004L6.993,0.4666zz" fill="#FFFFFF" opacity="0.5"/>
      <path d="M6.285,0.03613L5.591,0.1424L4.921,0.3152L4.278,0.551L3.666,0.8461L3.089,1.197L2.55,1.6L2.053,2.053L1.6,2.55L1.197,3.089L0.8461,3.666L0.551,4.278L0.3152,4.921L0.1424,5.591L0.03613,6.285L0,7L0.03613,7.715L0.1424,8.409L0.3152,9.079L0.551,9.722L0.8461,10.33L1.197,10.91L1.6,11.45L2.053,11.95L2.55,12.4L3.089,12.8L3.666,13.15L4.278,13.45L4.8,13.64L4.801,13.16L4.868,12.5L4.704,12.44L4.188,12.19L3.701,11.89L3.246,11.55L2.826,11.17L2.445,10.75L2.104,10.3L1.808,9.812L1.559,9.296L1.361,8.754L1.215,8.188L1.125,7.603L1.095,7L1.125,6.397L1.215,5.812L1.361,5.246L1.559,4.704L1.808,4.188L2.104,3.701L2.445,3.246L2.826,2.827L3.246,2.446L3.701,2.105L4.188,1.809L4.704,1.561L5.246,1.362L5.811,1.216L6.397,1.126L7,1.096L7.603,1.126L8.189,1.216L8.754,1.362L9.296,1.561L9.812,1.809L10.3,2.105L10.75,2.446L11.17,2.827L11.56,3.246L11.9,3.701L12.19,4.188L12.44,4.704L12.64,5.246L12.79,5.812L12.87,6.397L12.91,7L12.87,7.603L12.79,8.188L12.64,8.754L12.44,9.296L12.2,9.802L13.41,9.8L13.45,9.722L13.68,9.079L13.86,8.409L13.96,7.715L14,7L13.96,6.285L13.86,5.591L13.68,4.921L13.45,4.278L13.15,3.666L12.8,3.089L12.4,2.55L11.95,2.053L11.45,1.6L10.91,1.197L10.33,0.8461L9.722,0.551L9.079,0.3152L8.409,0.1424L7.715,0.03613L7,0zz" fill="#6D6E71"/>
      <path d="M6.389,0.2723L6.004,0.5354L5.264,1.204L4.585,2.03L3.989,2.977L3.09,2.632L2.339,2.272L1.905,3.099L2.668,3.466L3.573,3.821L3.311,4.49L3.102,5.17L2.951,5.852L2.864,6.526L0.6383,6.526L0.6383,7.46L2.859,7.46L2.938,8.129L3.08,8.816L3.282,9.512L3.543,10.2L2.725,10.53L1.905,10.93L2.339,11.76L3.145,11.37L3.946,11.05L3.953,11.06L4.556,12.04L4.885,12.43L5.065,11.85L5.288,11.44L5.233,11.37L4.861,10.77L5.702,10.6L6.047,10.57L6.28,10.38L6.849,10.07L7.477,9.869L8.151,9.8L8.984,9.807L8.474,9.696L7.467,9.585L7.467,7.46L10.14,7.46L10.06,8.073L9.921,8.694L9.533,9.812L10.53,9.82L10.65,9.508L10.85,8.814L10.99,8.128L11.07,7.46L13.39,7.46L13.39,6.526L11.07,6.526L10.98,5.854L10.83,5.174L10.63,4.497L10.37,3.83L11.32,3.466L12.04,3.124L11.61,2.295L10.9,2.629L9.962,2.983L9.371,2.032L8.698,1.203L7.964,0.534L7.581,0.2713L7.191,0.06289L7.006,0.4668L6.967,0.4668L6.782,0.06289zM6.533,3.469L5.695,3.386L4.906,3.236L5.27,2.664L5.667,2.143L6.09,1.684L6.533,1.3zM7.896,1.705L8.307,2.159L8.691,2.674L9.044,3.238L8.28,3.383L7.467,3.466L7.467,1.323zM5.463,4.295L6.533,4.404L6.533,6.526L3.801,6.526L3.886,5.92L4.03,5.306L4.469,4.09zM9.905,5.307L10.05,5.921L10.13,6.526L7.467,6.526L7.467,4.401L8.51,4.291L9.475,4.094zM6.533,7.459L6.533,9.582L5.49,9.693L4.436,9.921L4.009,8.695L3.873,8.074L3.795,7.459zz" fill="#6D6E71"/>
    </g>
    <g id="overlay">
      <path d="M8.1369,16c-0.5693,0,-1.1055,-0.2231,-1.5099,-0.6281c-0.4048,-0.4053,-0.6274,-0.9428,-0.6269,-1.5134l0.0005,-0.6985c0.001,-1.19,0.966,-2.1589,2.1512,-2.1599l1.1698,0.0097l-0.4037,0.3559c-0.2242,0.1976,-0.4074,0.432,-0.5444,0.6967l-0.0566,0.1093l-0.1648,-0.0062c-0.5466,0.0003,-0.99,0.4469,-0.9905,0.9953l-0.0004,0.6866c-0.0002,0.2597,0.1022,0.5048,0.2885,0.6902c0.1858,0.185,0.4314,0.2869,0.6915,0.2869l2.4681,-0.0026c0.5422,-0.0004,0.9837,-0.4403,0.9842,-0.9805l-0.0003,-0.1468c-0.0001,-0.1526,-0.0355,-0.3004,-0.1053,-0.4394l-0.091,-0.1817l0.1845,-0.0876c0.1026,-0.0488,0.2115,-0.0735,0.3238,-0.0736l0.7061,0.002l0.0444,0.1409c0.0659,0.2087,0.0993,0.4259,0.0995,0.6456l0.0003,0.1526c-0.001,1.1811,-0.9612,2.143,-2.1404,2.144L8.1369,16L8.1369,16z" fill="#9070B1"/>
      <path d="M12.6154,15.9903l0.4036,-0.3558c0.2242,-0.1976,0.4074,-0.432,0.5445,-0.6967l0.0568,-0.1096l0.2282,0.0065c0.5461,-0.0004,0.9896,-0.447,0.99,-0.9954l0.0004,-0.6866c0.0002,-0.2596,-0.1021,-0.5047,-0.2884,-0.6902c-0.1859,-0.185,-0.4315,-0.2869,-0.6915,-0.2869l-2.5312,0.0026c-0.5422,0.0004,-0.9837,0.4403,-0.9842,0.9805l0.0003,0.1468c0.0001,0.1526,0.0355,0.3004,0.1053,0.4394l0.091,0.1817l-0.1845,0.0876c-0.1026,0.0488,-0.2115,0.0735,-0.3238,0.0736l-0.7061,-0.002l-0.0444,-0.1409c-0.0659,-0.2087,-0.0993,-0.4259,-0.0995,-0.6456l-0.0003,-0.1526c0.001,-1.1811,0.9612,-2.143,2.1404,-2.144L13.8632,11c0.5693,0,1.1055,0.2231,1.5099,0.6281c0.4048,0.4053,0.6274,0.9428,0.6269,1.5134l-0.0005,0.6985c-0.001,1.1899,-0.9659,2.1588,-2.151,2.1599L12.6154,15.9903z" fill="#9070B1"/>
    </g>
  </g>
</svg>
