<?xml version="1.0" encoding="UTF-8"?>
<!DOCTYPE svg PUBLIC "-//W3C//DTD SVG 1.1//EN" "http://www.w3.org/Graphics/SVG/1.1/DTD/svg11.dtd">
<svg version="1.1" id="Layer_1" xmlns="http://www.w3.org/2000/svg" xmlns:xlink="http://www.w3.org/1999/xlink" x="0px" y="0px" width="16px" height="16px" viewBox="0 0 16 16" enable-background="new 0 0 16 16" xml:space="preserve">
  <g id="icon">
    <path d="M2.5,0.5v7.3494c-0.8033,0.4295,-1.3502,1.2775,-1.3502,2.2537c0,1.0792,0.6685,2.0014,1.6129,2.375l0.0029,0.0051l-0.4334,-0.1299l-1.1816,2.1131l1.0309,0.0122L2.9197,15.1l0.453,-1.5507L4.4833,15.5H15.5V0.5H2.5z" fill="#FFFFFF" opacity="0.5"/>
    <polygon points="16,16 7.9833,16 7.9833,15 15,15 15,1 3,1 3,6.2167 2,6.2167 2,0 16,0" fill="#6D6E71" stroke-linejoin="miter"/>
    <path d="M14,5H4V2h10V5zM5,4h8V3H5V4z" fill="#EEAC55"/>
    <path d="M4.2085,15.9766l-0.512,-1.7528l-0.512,1.7528l-1.188,-1.0001l-1.6928,-0.02l1.416,-2.5322c-0.6544,-0.5604,-1.0698,-1.3931,-1.0698,-2.3211c0,-1.6835,1.367,-3.0531,3.0474,-3.0531s3.0474,1.3696,3.0474,3.0531c0,0.9286,-0.4158,1.7616,-1.0708,2.322l1.4155,2.5313l-1.6928,0.02L4.2085,15.9766zM4.4024,13.0737l0.3358,1.1497l0.2883,-0.2427l0.3691,-0.0043l-0.5781,-1.0338C4.6835,12.9958,4.5449,13.0397,4.4024,13.0737zM1.9975,13.9764l0.3691,0.0043l0.2883,0.2427l0.3359,-1.15c-0.1425,-0.034,-0.281,-0.078,-0.4149,-0.1313L1.9975,13.9764zM3.6973,8.05c-1.129,0,-2.0474,0.921,-2.0474,2.0531s0.9185,2.0531,2.0474,2.0531s2.0474,-0.921,2.0474,-2.0531S4.8262,8.05,3.6973,8.05z" fill="#CB525D"/>
    <path d="M13,7H6V6h7V7zM14,12H8.5v1h5.5V12zM14,10H9v1h5V10zM14,8H8v1h6V8z" fill="#B7B7B7"/>
  </g>
</svg>
