<?xml version="1.0" encoding="UTF-8"?>
<!DOCTYPE svg PUBLIC "-//W3C//DTD SVG 1.1//EN" "http://www.w3.org/Graphics/SVG/1.1/DTD/svg11.dtd">
<svg version="1.1" id="Layer_1" xmlns="http://www.w3.org/2000/svg" xmlns:xlink="http://www.w3.org/1999/xlink" x="0px" y="0px" width="16px" height="16px" viewBox="0 0 16 16" enable-background="new 0 0 16 16" xml:space="preserve">
  <g id="main">
    <g id="icon">
      <path d="M2.5,5.849L1.95,6.246L1.524,6.771L1.248,7.4L1.175,7.744L1.15,8.103L1.18,8.5L1.269,8.877L1.411,9.23L1.602,9.555L1.837,9.847L2.112,10.1L2.422,10.31L2.763,10.48L2.766,10.48L2.332,10.35L1.151,12.47L2.181,12.48L2.92,13.1L3.373,11.55L4.483,13.5L7.233,13.5L7.789,12.19L5.55,12.19L9.281,4.8L13.5,4.8L13.5,0.5L2.5,0.5zz" fill="#FFFFFF" opacity="0.5"/>
      <path d="M2,4.217L3,4.217L3,1L13,1L13,4.8L14,4.8L14,0L2,0zz" fill="#6D6E71"/>
      <path d="M4,4.062L4.638,4.162L5.238,4.356L5.794,4.638L6.297,5L9.18,5L9.281,4.8L12,4.8L12,2L4,2zM11,3L11,4L5,4L5,3zz" fill="#B7B7B7"/>
      <path d="M3.084,5.112L2.512,5.29L1.995,5.572L1.543,5.945L1.171,6.397L0.8898,6.916L0.7119,7.488L0.6498,8.103L0.725,8.779L0.9395,9.402L1.277,9.956L1.72,10.42L0.3037,12.96L1.996,12.98L3.185,13.98L3.696,12.22L4.209,13.98L5.397,12.98L7.089,12.96L6.66,12.19L5.55,12.19L6.076,11.14L5.674,10.43L6.118,9.956L6.455,9.402L6.67,8.779L6.745,8.103L6.683,7.488L6.505,6.916L6.224,6.397L5.851,5.945L5.4,5.572L4.882,5.29L4.311,5.112L3.697,5.05zM4.109,6.092L4.494,6.212L4.841,6.401L5.144,6.652L5.395,6.956L5.584,7.305L5.703,7.69L5.745,8.103L5.703,8.516L5.584,8.902L5.395,9.25L5.144,9.554L4.841,9.805L4.494,9.995L4.109,10.11L3.697,10.16L3.285,10.11L2.901,9.995L2.553,9.805L2.25,9.554L2,9.25L1.811,8.902L1.692,8.516L1.65,8.103L1.692,7.69L1.811,7.305L2,6.956L2.25,6.652L2.553,6.401L2.901,6.212L3.285,6.092L3.697,6.05zM2.991,11.07L2.655,12.22L2.367,11.98L1.997,11.98L2.576,10.94zM5.396,11.98L5.027,11.98L4.738,12.22L4.402,11.07L4.818,10.94zz" fill="#B7B7B7"/>
      <path d="M8,7L8.17,7L8.675,6L8,6zz" fill="#B7B7B7"/>
    </g>
    <g id="overlay">
      <path d="M13.084,9.7408h2.4894L7.702,15.9776c-0.0862,0.0665,-0.2029,-0.0262,-0.1614,-0.128l2.0595,-4.8618H7.5002L10.0192,6h5.9695L13.084,9.7408z" fill="#B7B7B7"/>
    </g>
  </g>
</svg>
