<?xml version="1.0" encoding="UTF-8"?>
<!DOCTYPE svg PUBLIC "-//W3C//DTD SVG 1.1//EN" "http://www.w3.org/Graphics/SVG/1.1/DTD/svg11.dtd">
<svg version="1.1" id="Layer_1" xmlns="http://www.w3.org/2000/svg" xmlns:xlink="http://www.w3.org/1999/xlink" x="0px" y="0px" width="16px" height="16px" viewBox="0 0 16 16" enable-background="new 0 0 16 16" xml:space="preserve">
  <g id="main">
    <g id="icon">
      <path d="M9.113,0.6283L8.963,0.7768L8.317,1.858L7.666,1.728L7,1.684L6.336,1.727L5.686,1.857L5.082,0.7871L4.932,0.633L4.725,0.5764L4.521,0.6314L2.957,1.54L2.837,1.647L2.769,1.787L2.756,1.943L2.805,2.097L3.415,3.178L2.973,3.684L2.604,4.239L2.311,4.838L2.097,5.474L0.8463,5.474L0.6873,5.506L0.5574,5.595L0.4697,5.725L0.4375,5.885L0.4375,7.704L0.4697,7.864L0.5574,7.994L0.6873,8.083L0.8463,8.115L2.097,8.115L2.311,8.751L2.604,9.35L2.974,9.906L3.416,10.41L2.8,11.54L2.752,11.69L2.765,11.85L2.834,11.99L2.955,12.09L4.518,13L4.722,13.06L4.932,13L5.082,12.84L5.688,11.73L5.815,11.76L5.8,11.5L5.829,10.92L5.916,10.35L6.057,9.807L6.249,9.283L6.429,8.91L6.149,8.822L5.778,8.619L5.454,8.35L5.187,8.024L4.985,7.65L4.857,7.238L4.812,6.795L4.857,6.352L4.985,5.939L5.187,5.565L5.454,5.239L5.778,4.97L6.149,4.767L6.56,4.638L7,4.594L7.44,4.638L7.851,4.767L8.222,4.97L8.546,5.239L8.813,5.565L9.015,5.939L9.134,6.321L9.283,6.249L9.807,6.057L10.35,5.916L10.92,5.829L11.5,5.8L12.18,5.84L12.83,5.956L13.45,6.145L13.56,6.193L13.56,5.885L13.53,5.725L13.44,5.595L13.31,5.506L13.15,5.474L11.9,5.474L11.69,4.839L11.4,4.241L11.03,3.685L10.59,3.18L11.23,2.102L11.28,1.95L11.27,1.789L11.2,1.644L11.08,1.538L9.521,0.6289L9.316,0.5736zz" fill="#FFFFFF" opacity="0.5"/>
      <path d="M9.097,0.1627L8.896,0.2459L8.723,0.3771L8.588,0.5498L8.107,1.356L7.56,1.272L7.006,1.244L6.452,1.271L5.905,1.353L5.464,0.5725L5.329,0.3908L5.154,0.2533L4.949,0.1664L4.725,0.1359L4.506,0.165L4.302,0.2504L2.739,1.159L2.49,1.38L2.348,1.671L2.322,1.995L2.425,2.314L2.875,3.113L2.528,3.549L2.226,4.018L1.974,4.514L1.772,5.034L0.8463,5.034L0.5172,5.101L0.2482,5.284L0.0666,5.554L0,5.885L0,7.704L0.0666,8.035L0.2482,8.305L0.5172,8.488L0.8463,8.555L1.772,8.555L1.974,9.076L2.228,9.574L2.531,10.04L2.879,10.48L2.416,11.33L2.317,11.65L2.343,11.97L2.486,12.25L2.736,12.47L4.299,13.38L4.503,13.47L4.722,13.5L4.949,13.47L5.155,13.38L5.331,13.24L5.465,13.05L5.866,12.32L5.84,12.18L5.8,11.5L5.81,11.31L5.801,11.31L5.469,11.22L4.712,12.61L3.198,11.73L3.958,10.33L3.725,10.1L3.322,9.639L2.984,9.13L2.715,8.582L2.52,8.002L2.433,7.675L0.875,7.675L0.875,5.914L2.433,5.914L2.52,5.587L2.715,5.007L2.983,4.46L3.321,3.951L3.724,3.489L3.96,3.252L3.201,1.907L4.714,1.027L5.472,2.37L5.799,2.282L6.394,2.164L7.001,2.125L7.608,2.164L8.204,2.283L8.522,2.369L9.326,1.024L10.84,1.904L10.04,3.248L10.28,3.491L10.68,3.953L11.02,4.461L11.29,5.008L11.48,5.587L11.54,5.802L12.18,5.84L12.59,5.914L13.12,5.914L13.12,6.046L13.45,6.145L14,6.382L14,5.885L13.93,5.554L13.75,5.284L13.48,5.101L13.15,5.034L12.23,5.034L12.03,4.517L11.78,4.023L11.48,3.556L11.13,3.121L11.61,2.325L11.72,2.01L11.7,1.677L11.55,1.377L11.3,1.157L9.739,0.2479L9.535,0.1627L9.316,0.1336zM6.472,4.207L5.979,4.361L5.533,4.605L5.145,4.928L4.824,5.319L4.582,5.768L4.429,6.263L4.375,6.795L4.429,7.326L4.582,7.822L4.824,8.27L5.145,8.661L5.533,8.984L5.979,9.228L6.239,9.309L6.249,9.283L6.489,8.785L6.651,8.52L6.648,8.519L6.32,8.417L6.022,8.254L5.763,8.039L5.549,7.778L5.388,7.479L5.286,7.149L5.25,6.795L5.286,6.44L5.388,6.11L5.549,5.811L5.763,5.55L6.022,5.335L6.32,5.172L6.648,5.07L7,5.034L7.352,5.07L7.68,5.172L7.978,5.335L8.237,5.55L8.451,5.811L8.612,6.11L8.714,6.44L8.723,6.527L8.785,6.489L9.283,6.249L9.538,6.155L9.418,5.768L9.176,5.319L8.855,4.928L8.467,4.605L8.021,4.361L7.528,4.207L7,4.154zM9.341,12.63L9.341,12.63zz" fill="#6D6E71"/>
    </g>
    <g id="overlay">
      <path d="M11.5,7c-2.4853,0,-4.5,2.0147,-4.5,4.5s2.0147,4.5,4.5,4.5c2.4853,0,4.5,-2.0147,4.5,-4.5S13.9853,7,11.5,7zM10.7004,14.1607l-2.4222,-2.4221l1,-1l1.4214,1.4214l2.9821,-2.9071l1.0001,1.0001L10.7004,14.1607z" fill="#B7B7B7"/>
      <polygon points="8.2782,11.7386 9.2783,10.7385 10.6997,12.1599 13.6817,9.2528 14.6819,10.2529 10.7004,14.1607" fill="#FFFFFF" stroke-linejoin="miter"/>
    </g>
  </g>
</svg>
