<?xml version="1.0" encoding="UTF-8"?>
<!DOCTYPE svg PUBLIC "-//W3C//DTD SVG 1.1//EN" "http://www.w3.org/Graphics/SVG/1.1/DTD/svg11.dtd">
<svg version="1.1" id="Layer_1" xmlns="http://www.w3.org/2000/svg" xmlns:xlink="http://www.w3.org/1999/xlink" x="0px" y="0px" width="16px" height="16px" viewBox="0 0 16 16" enable-background="new 0 0 16 16" xml:space="preserve">
  <g id="icon">
    <path d="M10.0661,0.0426C7.6896,0.3391,5.7965,2.2413,5.5276,4.6163c-0.1048,0.9255,0.035,1.8091,0.3622,2.5961C4.4093,8.685,0.0972,12.9141,0.0972,12.9141C0.0348,12.9769,0,13.0616,0,13.1499V16h3.3884v-1.742h1.7455v-1.742h1.3348V11.123l0.7102,-0.7264l0.247,0.2618c0.1295,0.13,0.333,0.1332,0.4664,0.007c0,0,0.3568,-0.367,0.6955,-0.6847c0.7553,0.3388,1.6056,0.5053,2.5003,0.4491c2.5614,-0.1609,4.6611,-2.1786,4.8903,-4.7295C16.2772,2.3745,13.4346,-0.3778,10.0661,0.0426zM11.9863,5.9479c-1.0569,0,-1.9137,-0.8551,-1.9137,-1.9098c0,-1.0548,0.8568,-1.9098,1.9137,-1.9098c1.0569,0,1.9137,0.8551,1.9137,1.9098C13.9,5.0929,13.0432,5.9479,11.9863,5.9479z" fill="#EEAC55"/>
  </g>
</svg>
