<?xml version="1.0" encoding="utf-8"?>
<!-- Generator: Adobe Illustrator 23.0.3, SVG Export Plug-In . SVG Version: 6.00 Build 0)  -->
<svg version="1.1" baseProfile="basic" xmlns="http://www.w3.org/2000/svg" xmlns:xlink="http://www.w3.org/1999/xlink" x="0px"
	 y="0px" viewBox="0 0 150 150" xml:space="preserve">
<g>
	<path fill="#C6AB75" d="M11.3,110c-5.9-11.4-1.8-25.4,9.4-31.9c11.6-6.7,26.5-2.7,33.2,8.8s21.6,15.5,33.2,8.8
		c11.2-6.5,15.3-20.5,9.4-31.9c-0.2-0.4-0.4-0.7-0.6-1.1C82.5,39.6,52.7,31.8,29.5,45.1C6.7,58.3-1.3,87.1,11.3,110z"/>
	<path fill="#CDBC5D" d="M137.3,112.1c-7,10.7-21.3,14.2-32.5,7.7c-11.6-6.7-15.6-21.4-8.9-33c6.7-11.5,2.8-26.3-8.9-33
		c-11.2-6.5-25.5-3-32.5,7.7c-0.2,0.4-0.4,0.7-0.7,1.1c-13.4,23.1-5.5,52.6,17.7,65.9C94.4,141.8,123.6,134.3,137.3,112.1z"/>
	<path fill="#4D728D" d="M76.1,2.4c12.8,0.6,23,11.2,23,24.1c0,13.3-10.9,24.1-24.3,24.1S50.6,61.5,50.6,74.8
		c0,12.9,10.2,23.5,23,24.1c0.4,0,0.8,0,1.2,0c26.8,0,48.6-21.6,48.6-48.3C123.5,24.4,102.4,3.1,76.1,2.4z"/>
	<ellipse fill="#2E5068" cx="74.9" cy="74.8" rx="12.1" ry="12.1"/>
</g>
</svg>
