<?xml version="1.0" encoding="UTF-8"?>
<!DOCTYPE svg PUBLIC "-//W3C//DTD SVG 1.1//EN" "http://www.w3.org/Graphics/SVG/1.1/DTD/svg11.dtd">
<svg version="1.1" id="Layer_1" xmlns="http://www.w3.org/2000/svg" xmlns:xlink="http://www.w3.org/1999/xlink" x="0px" y="0px" width="16px" height="16px" viewBox="0 0 16 16" enable-background="new 0 0 16 16" xml:space="preserve">
  <g id="icon">
    <path d="M8,0C3.5817,0,0,3.5817,0,8c0,4.4183,3.5817,8,8,8s8,-3.5817,8,-8C16,3.5817,12.4183,0,8,0zM9.1788,7.8172v-1.6h2.1991c-0.712,-1.1023,-2.0781,-1.844,-3.4645,-1.844C5.8107,4.3732,4.1,6.0839,4.1,8.1866C4.1,10.2893,5.8107,12,7.9134,12c1.6787,0,3.1828,-1.1229,3.6578,-2.7308l1.5345,0.4533C12.4312,12.0055,10.2961,13.6,7.9134,13.6C4.9285,13.6,2.5,11.1715,2.5,8.1866s2.4285,-5.4134,5.4134,-5.4134c1.645,0,3.2289,0.7261,4.2866,1.8952V3.1h1.6v4.7172H9.1788z" fill="#52B4C0"/>
    <path d="M7.9134,13.6C4.9285,13.6,2.5,11.1715,2.5,8.1866s2.4285,-5.4134,5.4134,-5.4134c1.645,0,3.2289,0.7261,4.2866,1.8952V3.1h1.6v4.7172H9.1788v-1.6h2.1991c-0.712,-1.1023,-2.0781,-1.844,-3.4645,-1.844C5.8107,4.3732,4.1,6.0839,4.1,8.1866C4.1,10.2893,5.8107,12,7.9134,12c1.6787,0,3.1828,-1.1229,3.6578,-2.7308l1.5345,0.4533C12.4312,12.0055,10.2961,13.6,7.9134,13.6z" fill="#FFFFFF"/>
  </g>
</svg>
