<?xml version="1.0" encoding="UTF-8"?>
<!DOCTYPE svg PUBLIC "-//W3C//DTD SVG 1.1//EN" "http://www.w3.org/Graphics/SVG/1.1/DTD/svg11.dtd">
<svg version="1.1" id="Layer_1" xmlns="http://www.w3.org/2000/svg" xmlns:xlink="http://www.w3.org/1999/xlink" x="0px" y="0px" width="16px" height="16px" viewBox="0 0 16 16" enable-background="new 0 0 16 16" xml:space="preserve">
  <g id="icon">
    <path d="M8,13v-2h4.717c-0.1232,-0.1299,-0.2474,-0.2613,-0.3704,-0.392C9.5057,7.5902,6.4642,4.6437,4.4576,4.6437c-0.9568,0,-1.6033,0.2446,-1.9765,0.7476c-0.665,0.8965,-0.6171,2.7563,0.1348,5.2369l0.4286,1.4125l-1.891,0.5738l-0.4282,-1.4113c-0.9657,-3.1857,-0.9087,-5.5381,0.1697,-6.9918c0.761,-1.0261,1.9597,-1.5463,3.5625,-1.5463c2.8583,0,6.0629,3.1097,9.5418,6.8146c0.0004,-0.0002,0.0002,-0.0001,0.0006,-0.0002L14,5h2v8H8z" fill="#6485C3"/>
  </g>
</svg>
