<?xml version="1.0" encoding="UTF-8"?>
<!DOCTYPE svg PUBLIC "-//W3C//DTD SVG 1.1//EN" "http://www.w3.org/Graphics/SVG/1.1/DTD/svg11.dtd">
<svg version="1.1" id="Layer_1" xmlns="http://www.w3.org/2000/svg" xmlns:xlink="http://www.w3.org/1999/xlink" x="0px" y="0px" width="16px" height="16px" viewBox="0 0 16 16" enable-background="new 0 0 16 16" xml:space="preserve">
  <g id="main">
    <g id="icon">
      <path d="M6.859,0.0373L6.071,0.1473L5.318,0.3271L4.602,0.5736L3.926,0.8842L3.294,1.256L2.708,1.685L2.171,2.169L1.686,2.706L1.256,3.292L0.8848,3.924L0.574,4.599L0.3273,5.314L0.1475,6.067L0.0373,6.855L0,7.674L0.03086,8.338L0.1225,8.982L0.2734,9.604L0.4822,10.2L0.7475,10.76L1.068,11.29L1.442,11.78L1.868,12.24L2.338,12.64L2.85,12.99L3.4,13.29L3.985,13.54L4.602,13.74L5.246,13.88L5.913,13.97L6.601,14L7.586,13.95L8,13.89L8,12.29L7.41,12.37L6.601,12.41L5.539,12.32L4.575,12.06L3.721,11.64L2.991,11.09L2.4,10.4L1.961,9.589L1.687,8.677L1.593,7.673L1.622,7.025L1.71,6.401L1.852,5.804L2.048,5.237L2.294,4.702L2.589,4.201L2.929,3.737L3.313,3.312L3.739,2.928L4.204,2.588L4.705,2.293L5.24,2.047L5.808,1.852L6.405,1.709L7.029,1.622L7.679,1.593L8.745,1.668L9.685,1.89L10.5,2.254L11.17,2.756L11.7,3.39L12.09,4.151L12.33,5.036L12.41,6.038L12.36,6.726L12.31,6.951L13.68,8.034L13.74,7.869L13.93,6.979L14,6.038L13.97,5.372L13.89,4.736L13.75,4.13L13.56,3.557L13.31,3.018L13.02,2.515L12.67,2.051L12.27,1.627L11.83,1.251L11.34,0.9236L10.82,0.6443L10.26,0.4143L9.661,0.2342L9.031,0.1045L8.37,0.02617L7.679,0zM7.684,3.134L7.185,3.21L6.241,3.499L5.386,3.958L4.641,4.564L4.026,5.299L3.561,6.142L3.267,7.074L3.191,7.566L3.165,8.073L3.216,8.631L3.363,9.138L3.601,9.588L3.92,9.971L4.313,10.28L4.774,10.51L5.294,10.66L5.867,10.71L6.574,10.63L7.264,10.39L7.924,10L8,9.938L8,7.569L7.859,7.819L7.288,8.47L6.958,8.732L6.607,8.936L6.241,9.067L5.867,9.113L5.392,9.045L5.044,8.845L4.83,8.519L4.758,8.073L4.828,7.395L5.029,6.762L5.346,6.189L5.766,5.69L6.276,5.278L6.86,4.967L7.505,4.77L8,4.721L8,3.522L10.35,5.39L10.75,3.682L9.907,3.368L9.246,3.194L8.772,3.132L8.198,3.109zz" fill="#7B7B7B"/>
    </g>
    <g id="overlay">
      <path d="M13.0188,12.0495l1.6288,3.2573L13.2668,16l-1.6507,-3.2673L9.2,14.7456v-8.737l6.8,5.4051L13.0188,12.0495z" fill="#9070B1"/>
    </g>
  </g>
</svg>
