<?xml version="1.0" encoding="UTF-8"?>
<!DOCTYPE svg PUBLIC "-//W3C//DTD SVG 1.1//EN" "http://www.w3.org/Graphics/SVG/1.1/DTD/svg11.dtd">
<svg version="1.1" id="Layer_1" xmlns="http://www.w3.org/2000/svg" xmlns:xlink="http://www.w3.org/1999/xlink" x="0px" y="0px" width="16px" height="16px" viewBox="0 0 16 16" enable-background="new 0 0 16 16" xml:space="preserve">
  <g id="icon">
    <path d="M7.5546,15.9558c-0.849,0,-1.6425,-0.2898,-2.2771,-0.84C4.4657,14.4117,4,13.3511,4,12.2059V2.754C4,1.2599,5.057,0.0975,6.4586,0.0501c0.666,-0.0233,1.2875,0.2096,1.7468,0.6537C8.7178,1.1992,9,1.9076,9,2.6985v8.777c0,0.7856,-0.4343,1.3987,-1.1064,1.5619c-0.4732,0.1149,-0.9329,0.0217,-1.2945,-0.2626C6.2184,12.4754,6,12.0053,6,11.485V4h1v7.485c0,0.2084,0.0812,0.3967,0.2171,0.5036c0.1187,0.0933,0.2669,0.1192,0.4404,0.077c0.3091,-0.075,0.3424,-0.4377,0.3424,-0.5901v-8.777c0,-0.51,-0.1785,-0.975,-0.4896,-1.2758c-0.2665,-0.2576,-0.619,-0.3866,-1.018,-0.3732C5.6416,1.0783,5,1.811,5,2.754v9.4519c0,0.8551,0.3399,1.6403,0.9327,2.1543c0.5466,0.4739,1.2662,0.6751,2.0265,0.5663C9.299,14.7348,10,13.3942,10,12.169V6h1v6.169c0,1.9311,-1.2193,3.507,-2.8992,3.7474C7.917,15.9427,7.7345,15.9558,7.5546,15.9558z" fill="#6D6E71"/>
  </g>
</svg>
