<?xml version="1.0" encoding="UTF-8"?>
<!DOCTYPE svg PUBLIC "-//W3C//DTD SVG 1.1//EN" "http://www.w3.org/Graphics/SVG/1.1/DTD/svg11.dtd">
<svg version="1.1" id="Layer_1" xmlns="http://www.w3.org/2000/svg" xmlns:xlink="http://www.w3.org/1999/xlink" x="0px" y="0px" width="16px" height="16px" viewBox="0 0 16 16" enable-background="new 0 0 16 16" xml:space="preserve">
  <g id="icon">
    <path d="M5.0083,9.9349l1.2484,1.1074l1.9548,-4.0246H5.1724c-0.0757,0,-0.1277,-0.0727,-0.1005,-0.1402L7.9971,0.0839C8.0175,0.0333,8.0683,0,8.125,0h2.9231c0.1059,0,0.1725,0.1093,0.1202,0.1974L8.547,5.0126h3.0501c0.0833,0,0.1332,0.0885,0.0875,0.1551L7.188,11.5598l1.6091,0.4003c0.0896,0.0127,0.1214,0.1266,0.0513,0.1844L4.2112,15.976c-0.0724,0.0597,-0.1801,0.0002,-0.169,-0.0933l0.7913,-5.8846C4.8437,9.9126,4.9464,9.8755,5.0083,9.9349z" fill="#EEAC55"/>
  </g>
</svg>
