<?xml version="1.0" encoding="UTF-8"?>
<!DOCTYPE svg PUBLIC "-//W3C//DTD SVG 1.1//EN" "http://www.w3.org/Graphics/SVG/1.1/DTD/svg11.dtd">
<svg version="1.1" id="Layer_1" xmlns="http://www.w3.org/2000/svg" xmlns:xlink="http://www.w3.org/1999/xlink" x="0px" y="0px" width="16px" height="16px" viewBox="0 0 16 16" enable-background="new 0 0 16 16" xml:space="preserve">
  <g id="icon">
    <path d="M9.5,12.4c-3.2585,0,-5.9,-2.6415,-5.9,-5.9S6.2415,0.6,9.5,0.6s5.9,2.6415,5.9,5.9S12.7585,12.4,9.5,12.4z" fill="#FFFFFF" opacity="0.4"/>
    <path d="M0.1,14.3615l4.0933,-4.0933c-0.7874,-1.1052,-1.203,-2.4041,-1.203,-3.7633C2.9903,2.9181,5.9084,0,9.4952,0S16,2.9181,16,6.5048s-2.9181,6.5048,-6.5048,6.5048c-1.3592,0,-2.658,-0.4156,-3.7633,-1.203L1.6385,15.9L0.1,14.3615zM9.4952,1.5324c-2.7418,0,-4.9724,2.2306,-4.9724,4.9725c0,2.7418,2.2306,4.9724,4.9724,4.9724c2.7418,0,4.9725,-2.2306,4.9725,-4.9724C14.4676,3.763,12.237,1.5324,9.4952,1.5324z" fill="#6D6E71"/>
  </g>
</svg>
