<?xml version="1.0" encoding="UTF-8"?>
<!DOCTYPE svg PUBLIC "-//W3C//DTD SVG 1.1//EN" "http://www.w3.org/Graphics/SVG/1.1/DTD/svg11.dtd">
<svg version="1.1" id="Layer_1" xmlns="http://www.w3.org/2000/svg" xmlns:xlink="http://www.w3.org/1999/xlink" x="0px" y="0px" width="16px" height="16px" viewBox="0 0 16 16" enable-background="new 0 0 16 16" xml:space="preserve">
  <g id="icon">
    <ellipse cx="8" cy="7.9916" rx="7.4667" ry="7.4582" fill="#FFFFFF" opacity="0.5"/>
    <path d="M8.0084,16C3.5926,16,0,12.4112,0,8S3.5926,0,8.0084,0s8.0084,3.5888,8.0084,8S12.4243,16,8.0084,16zM8.0084,1.2523c-3.7253,0,-6.7561,3.027,-6.7561,6.7477s3.0308,6.7477,6.7561,6.7477s6.7561,-3.027,6.7561,-6.7477S11.7337,1.2523,8.0084,1.2523z" fill="#6485C3"/>
    <path d="M8,15.9831c-4.4112,0,-8,-3.585,-8,-7.9916S3.5888,0,8,0s8,3.585,8,7.9916S12.4112,15.9831,8,15.9831zM8,1.0667c-3.8231,0,-6.9333,3.1065,-6.9333,6.9249S4.1769,14.9165,8,14.9165s6.9333,-3.1065,6.9333,-6.9249S11.8231,1.0667,8,1.0667z" fill="#6485C3"/>
    <path d="M7.6408,15.8914C5.6382,14.7639,4.293,10.9143,4.293,8.0263c0,-2.8003,1.3989,-6.7454,3.4062,-7.9291l0.28,0.4749l0.28,-0.4749c2.0473,1.2073,3.4741,5.1478,3.4741,7.9291c0,2.8001,-1.4187,6.7188,-3.4544,7.8651l-0.3191,-0.5666L7.6408,15.8914zM7.9801,1.1963c-1.3805,1.0925,-2.6204,4.2609,-2.6204,6.83c0,2.6731,1.2152,5.8027,2.6006,6.8045c1.4182,-1.0183,2.7064,-4.2065,2.7064,-6.8045C10.6667,5.474,9.3948,2.3028,7.9801,1.1963z" fill="#6485C3"/>
    <path d="M15,6H1V5h14V6zM15,10H1v1h14V10z" fill="#6485C3"/>
  </g>
</svg>
