<?xml version="1.0" encoding="UTF-8"?>
<!DOCTYPE svg PUBLIC "-//W3C//DTD SVG 1.1//EN" "http://www.w3.org/Graphics/SVG/1.1/DTD/svg11.dtd">
<svg version="1.1" id="Layer_1" xmlns="http://www.w3.org/2000/svg" xmlns:xlink="http://www.w3.org/1999/xlink" x="0px" y="0px" width="16px" height="16px" viewBox="0 0 16 16" enable-background="new 0 0 16 16" xml:space="preserve">
  <g id="icon">
    <path d="M9.7061,13.8123c-0.5519,0.1668,-1.1254,0.2514,-1.7061,0.2514s-1.1542,-0.0845,-1.7061,-0.2514l-0.9264,1.733c-0.0766,0.1433,-0.2537,0.1942,-0.3923,0.1129l-1.9046,-1.1172c-0.1343,-0.0788,-0.1824,-0.2526,-0.1082,-0.3914l0.9334,-1.746c-0.8498,-0.8166,-1.4379,-1.8507,-1.7064,-3.0008H0.2851C0.1276,9.4028,0,9.2725,0,9.1119V6.879c0,-0.1606,0.1276,-0.2908,0.2851,-0.2908h1.9043c0.2686,-1.15,0.8566,-2.1842,1.7064,-3.0008L2.967,1.8991c-0.0765,-0.139,-0.029,-0.315,0.1065,-0.3945L4.9782,0.3874c0.1375,-0.0806,0.313,-0.0313,0.3907,0.1098l0.925,1.6816c0.5518,-0.1668,1.1254,-0.2514,1.7061,-0.2514s1.1543,0.0845,1.7061,0.2514l0.9779,-1.6902c0.0794,-0.1372,0.2522,-0.1837,0.3876,-0.1043l1.9047,1.1173c0.1376,0.0807,0.1841,0.2605,0.1034,0.4l-0.9754,1.686c0.8498,0.8166,1.4379,1.8507,1.7064,3.0008h1.9043c0.1574,0,0.2851,0.1302,0.2851,0.2908v2.2329c0,0.1606,-0.1276,0.2908,-0.2851,0.2908h-1.9043c-0.2685,1.15,-0.8566,2.1842,-1.7064,3.0008l0.9803,1.7436c0.0783,0.1392,0.0312,0.3168,-0.1052,0.3969l-1.9048,1.1173c-0.1366,0.0801,-0.311,0.032,-0.3893,-0.1074L9.7061,13.8123zM8.0001,5.191c-1.5156,0,-2.7487,1.2581,-2.7487,2.8045S6.4845,10.8,8.0001,10.8s2.7487,-1.2581,2.7487,-2.8045S9.5157,5.191,8.0001,5.191z" fill="#6D6E71"/>
  </g>
</svg>
