<?xml version="1.0" encoding="UTF-8"?>
<!DOCTYPE svg PUBLIC "-//W3C//DTD SVG 1.1//EN" "http://www.w3.org/Graphics/SVG/1.1/DTD/svg11.dtd">
<svg version="1.1" id="Layer_1" xmlns="http://www.w3.org/2000/svg" xmlns:xlink="http://www.w3.org/1999/xlink" x="0px" y="0px" width="16px" height="16px" viewBox="0 0 16 16" enable-background="new 0 0 16 16" xml:space="preserve">
  <g id="icon">
    <path d="M8.4861,14.5367c-2.7829,0,-5.2594,-1.7699,-6.1623,-4.4041l-0.0324,-0.0946l1.1227,-0.3848l0.0324,0.0946c0.7385,2.1545,2.7638,3.6021,5.0396,3.6021c0.1629,0,0.3307,-0.0079,0.4987,-0.0235l0.0996,-0.0092l0.1096,1.1816l-0.0995,0.0092C8.8903,14.5271,8.6856,14.5367,8.4861,14.5367zM12.0877,11.9471l0.0724,-0.069c1.0661,-1.0171,1.6532,-2.3891,1.6532,-3.8632c0,-1.4798,-0.5912,-2.8556,-1.6646,-3.8739l-0.0726,-0.0688l0.8167,-0.8609l0.0725,0.0688C14.2774,4.5246,15,6.2061,15,8.0148c0,1.8016,-0.7176,3.4785,-2.0207,4.7219l-0.0724,0.069L12.0877,11.9471zM2.3016,5.9607l0.0329,-0.0944C3.2459,3.2505,5.7181,1.493,8.4861,1.493c0.1969,0,0.3992,0.0094,0.601,0.0279l0.0996,0.0091l-0.1085,1.1818l-0.0996,-0.0092c-0.1657,-0.0152,-0.3314,-0.0229,-0.4926,-0.0229c-2.2637,0,-4.2855,1.4375,-5.0309,3.577l-0.0329,0.0944L2.3016,5.9607z" fill="#6D6E71"/>
    <path d="M2.8949,6.0615C3.828,6.2178,4.5391,7.0259,4.5391,8c0,0.9775,-0.7161,1.788,-1.654,1.9402M2.8949,6.0615c-0.1071,-0.0179,-0.2171,-0.0278,-0.3293,-0.0278C1.4756,6.0337,0.5921,6.9141,0.5921,8c0,1.0859,0.8836,1.9663,1.9735,1.9663c0.1088,0,0.2155,-0.0091,0.3195,-0.026M12.557,3.7104c0.2323,-0.3225,0.3695,-0.7176,0.3695,-1.1448c0,-1.0859,-0.8836,-1.9663,-1.9735,-1.9663c-0.9331,0,-1.7144,0.6454,-1.9201,1.5125M9.0329,2.1118c-0.0346,0.1457,-0.0534,0.2975,-0.0534,0.4538c0,1.0859,0.8836,1.9663,1.9735,1.9663c0.6611,0,1.2459,-0.3242,1.604,-0.8214M9.0396,13.9173c0.2161,0.8524,0.9907,1.4834,1.9134,1.4834c1.0899,0,1.9735,-0.8803,1.9735,-1.9663c0,-0.4194,-0.1322,-0.8078,-0.3568,-1.127M12.5697,12.3074c-0.3569,-0.5073,-0.9477,-0.8392,-1.6167,-0.8392c-1.0899,0,-1.9735,0.8803,-1.9735,1.9663c0,0.1666,0.021,0.3283,0.0602,0.4829" fill="#FFFFFF" opacity="0.5"/>
    <path d="M10.953,15.9927c-1.1433,0,-2.1416,-0.7497,-2.4613,-1.835l-0.0019,0.0005l-0.0484,-0.1911l0.0018,-0.0005c-0.0371,-0.1747,-0.0559,-0.3533,-0.0559,-0.5322c0,-1.4107,1.1509,-2.5583,2.5656,-2.5583c0.802,0,1.5583,0.3762,2.0426,1.011l0.0015,-0.0011l0.1136,0.1613l-0.0016,0.0011c0.2682,0.4137,0.4094,0.8908,0.4094,1.3859C13.5185,14.845,12.3676,15.9927,10.953,15.9927zM10.953,12.0602c-0.7617,0,-1.3815,0.6164,-1.3815,1.3742c0,0.1139,0.0141,0.2274,0.042,0.3374c0.1548,0.6105,0.7056,1.0368,1.3395,1.0368c0.7617,0,1.3815,-0.6165,1.3815,-1.3742c0,-0.2829,-0.0861,-0.5548,-0.249,-0.7864C11.8265,12.28,11.4031,12.0602,10.953,12.0602zM2.5656,10.5583C1.1509,10.5583,0,9.4107,0,8s1.1509,-2.5583,2.5656,-2.5583c0.1088,0,0.2193,0.0072,0.3295,0.0214l0.0003,-0.0018l0.1946,0.0325l-0.0003,0.0019C4.2784,5.7409,5.1311,6.7788,5.1311,8c0,1.2605,-0.9047,2.3223,-2.1511,2.5246C2.8423,10.547,2.7028,10.5583,2.5656,10.5583zM2.5615,6.6258c-0.7594,0,-1.3773,0.6165,-1.3774,1.3742c0,0.7577,0.6197,1.3742,1.3815,1.3742c0.0707,0,0.1428,-0.0056,0.2146,-0.0168l0.0102,-0.0017C3.4605,9.2471,3.947,8.6769,3.947,8c0,-0.6733,-0.4836,-1.243,-1.1499,-1.3546C2.7188,6.6324,2.6395,6.6258,2.5615,6.6258zM10.953,5.1239c-1.4147,0,-2.5656,-1.1476,-2.5656,-2.5583c0,-0.1977,0.0234,-0.3964,0.0694,-0.5905C8.7317,0.8165,9.7581,0.0073,10.953,0.0073c1.4147,0,2.5656,1.1477,2.5656,2.5583c0,0.5054,-0.1466,0.9906,-0.425,1.4097l0.0015,0.0011l-0.1153,0.1601l-0.0015,-0.0011C12.4935,4.7562,11.7438,5.1239,10.953,5.1239zM9.6066,2.2583c-0.0233,0.1015,-0.0351,0.2049,-0.0351,0.3073c0,0.7577,0.6197,1.3742,1.3815,1.3742c0.444,0,0.8641,-0.2151,1.1236,-0.5754c0.1687,-0.2342,0.2579,-0.5104,0.2579,-0.7988c0,-0.7577,-0.6197,-1.3742,-1.3815,-1.3742c-0.6437,0,-1.1963,0.4347,-1.344,1.0571L9.6066,2.2583z" fill="#6485C3"/>
  </g>
</svg>
