<?xml version="1.0" encoding="UTF-8"?>
<!DOCTYPE svg PUBLIC "-//W3C//DTD SVG 1.1//EN" "http://www.w3.org/Graphics/SVG/1.1/DTD/svg11.dtd">
<svg version="1.1" id="Layer_1" xmlns="http://www.w3.org/2000/svg" xmlns:xlink="http://www.w3.org/1999/xlink" x="0px" y="0px" width="16px" height="16px" viewBox="0 0 16 16" enable-background="new 0 0 16 16" xml:space="preserve">
  <g id="icon">
    <path d="M11.3393,2.6867l2.576,-0.935l-0.8212,2.6085l1.6897,2.155l-2.742,0.0253l-0.0001,0L10.51,8.8074l-0.8735,-2.5927L7,5.4607l2.2022,-1.6278L9.1046,1.1l2.2344,1.5867C11.3391,2.6868,11.3392,2.6868,11.3393,2.6867z" id="b" fill="#FFFFFF" opacity="0.5"/>
    <polygon points="8.8565,7.0317 8.1642,6.8337 0.017,15.0934 0.9345,16 9.0918,7.7301" fill="#6D6E71" stroke-linejoin="miter"/>
    <path d="M10.3587,9.9243L9.2465,6.6232l-3.3603,-0.961l2.8069,-2.0747L8.5688,0.1062l2.8461,2.0211l3.2812,-1.191l-1.046,3.3226l2.1537,2.7468l-3.4948,0.0323L10.3587,9.9243zM8.1138,5.2592l1.9126,0.547l0.6349,1.8843l1.1132,-1.6475l1.9893,-0.0184l-1.2257,-1.5633l0.5964,-1.8943l-1.7072,0.6197h-0.206l-0.1403,-0.0701L9.6404,2.0938l0.0708,1.9847L8.1138,5.2592z" fill="#EEAC55"/>
  </g>
</svg>
