<?xml version="1.0" encoding="UTF-8"?>
<!DOCTYPE svg PUBLIC "-//W3C//DTD SVG 1.1//EN" "http://www.w3.org/Graphics/SVG/1.1/DTD/svg11.dtd">
<svg version="1.1" id="Layer_1" xmlns="http://www.w3.org/2000/svg" xmlns:xlink="http://www.w3.org/1999/xlink" x="0px" y="0px" width="16px" height="16px" viewBox="0 0 16 16" enable-background="new 0 0 16 16" xml:space="preserve">
  <g id="main">
    <g id="icon">
      <path d="M6.073,0.05859L5.308,0.2305L4.71,0.5092L4.262,0.8885L3.944,1.362L3.74,1.924L3.631,2.567L3.598,3.286L3.703,4.344L4.005,5.493L4.486,6.613L4.788,7.126L5.129,7.588L5.121,7.854L5.029,8.082L4.838,8.272L4.53,8.429L2.468,9.156L1.753,9.441L1.21,9.717L0.809,10.02L0.5219,10.38L0.3188,10.84L0.1705,11.43L0.1115,11.9L0.1049,12.3L0.1703,12.71L0.3273,13.22L0.433,13.38L0.6256,13.51L1.233,13.72L2.072,13.86L3.065,13.94L5.202,14L6.893,14L8.889,12L6.567,9.679L9.596,6.65L9.616,6.616L10.1,5.495L10.4,4.345L10.51,3.286L10.47,2.567L10.36,1.924L10.14,1.362L9.814,0.8885L9.355,0.5092L8.748,0.2305L7.977,0.05859L7.024,0zz" fill="#6485C3"/>
    </g>
    <g id="overlay">
      <polygon points="8.2645,14.3213 10.5858,12 8.2645,9.6787 9.6787,8.2645 12,10.5858 14.3213,8.2645 15.7355,9.6787 13.4142,12 15.7355,14.3213 14.3213,15.7355 12,13.4142 9.6787,15.7355" fill="#6D6E71" stroke-linejoin="miter"/>
    </g>
  </g>
</svg>
