<?xml version="1.0" encoding="UTF-8"?>
<!DOCTYPE svg PUBLIC "-//W3C//DTD SVG 1.1//EN" "http://www.w3.org/Graphics/SVG/1.1/DTD/svg11.dtd">
<svg version="1.1" id="Layer_1" xmlns="http://www.w3.org/2000/svg" xmlns:xlink="http://www.w3.org/1999/xlink" x="0px" y="0px" width="16px" height="16px" viewBox="0 0 16 16" enable-background="new 0 0 16 16" xml:space="preserve">
  <g id="icon">
    <path d="M6.8254,15.496c-0.4515,0,-0.814,0.0312,-1.1648,-0.0592c-0.475,-0.1225,-0.2871,-0.6101,-0.4352,-0.978c-0.2196,-0.5454,-1.2141,-0.2283,-1.6479,-0.1852c-0.5301,0.0527,-1.2575,0.1378,-1.6319,-0.3211c-0.3945,-0.4835,-0.0548,-0.9792,0.0451,-1.4806c0.0731,-0.3667,-0.269,-0.3889,-0.4338,-0.6314c-0.1736,-0.2554,0.5102,-0.3502,0.5102,-0.4596c0,-0.1093,-0.647,-0.2549,-0.533,-0.8309c0.104,-0.5255,-0.7815,-0.4027,-0.9961,-0.7662c-0.2361,-0.3999,0.6953,-1.4067,0.9087,-1.727c0.178,-0.2671,0.4828,-0.5771,0.5707,-0.8855c0.0429,-0.1505,-0.1442,-0.2592,-0.1871,-0.4008c-0.0628,-0.2071,-0.0141,-0.424,0.0308,-0.629c0.3123,-1.4274,0.8095,-2.7455,1.8707,-3.8358C4.8405,1.1664,6.3593,0.6868,7.9531,0.542c2.8703,-0.2608,6.0454,0.7957,7.1219,3.5277c0.4999,1.2686,0.5818,2.7081,0.1227,3.9977c-0.2234,0.6276,-0.5674,1.2119,-0.9907,1.7375c-0.4852,0.6025,-1.2847,1.0509,-1.2847,1.8302c0,0.4087,-0.0659,0.2893,0.0734,0.8617C13.7159,15.4552,7.215,15.496,6.8254,15.496z" id="b" fill="#FFFFFF" opacity="0.5"/>
    <path d="M6.3121,16.0012c-0.2613,0,-0.5155,-0.013,-0.7763,-0.0802c-0.6588,-0.1699,-0.7105,-0.75,-0.7353,-1.0288c-0.0076,-0.0853,-0.0154,-0.1731,-0.0326,-0.2291c-0.1453,-0.0605,-0.6157,0.0229,-0.7969,0.055c-0.1238,0.022,-0.2407,0.0427,-0.3439,0.053l-0.0388,0.0039c-0.5953,0.0595,-1.4949,0.1494,-2.03,-0.5063c-0.4678,-0.5733,-0.2752,-1.1768,-0.1478,-1.5761c0.0273,-0.0855,0.0535,-0.1675,0.073,-0.2442c-0.0025,-0.0019,-0.005,-0.0037,-0.0074,-0.0054c-0.0953,-0.0694,-0.2258,-0.1644,-0.3326,-0.3214c-0.1116,-0.1641,-0.1433,-0.3543,-0.0893,-0.5354c0.035,-0.1173,0.0982,-0.2093,0.1746,-0.2832c-0.1313,-0.1751,-0.2304,-0.4092,-0.2045,-0.7129c-0.0443,-0.0159,-0.0949,-0.032,-0.1349,-0.0448c-0.251,-0.0802,-0.5947,-0.1901,-0.7818,-0.5071c-0.3607,-0.611,0.2483,-1.3889,0.7376,-2.014c0.0781,-0.0998,0.152,-0.194,0.1854,-0.2444c0.0637,-0.0955,0.1368,-0.1902,0.2076,-0.2818c0.0852,-0.1102,0.1781,-0.2306,0.2391,-0.3348c-0.0452,-0.0637,-0.0946,-0.1457,-0.1255,-0.2473c-0.0999,-0.3295,-0.0338,-0.6314,0.0192,-0.8739c0.2673,-1.2215,0.7348,-2.7824,2.0023,-4.0848C4.4367,0.8645,5.9624,0.2208,7.9079,0.0441c2.9406,-0.267,6.4404,0.8175,7.6323,3.8423c0.568,1.4416,0.6137,2.9859,0.1286,4.3487c-0.2336,0.6562,-0.5944,1.2899,-1.0723,1.8834c-0.162,0.2011,-0.3451,0.3779,-0.5221,0.5488c-0.4057,0.3916,-0.6521,0.6522,-0.6521,0.9679c0,0.1377,-0.0066,0.2259,-0.0115,0.2903c-0.0072,0.0955,-0.0094,0.1243,0.0707,0.4532c0.1633,0.6707,0.0353,1.2979,-0.3701,1.8138c-1.3488,1.7166,-5.473,1.8036,-6.286,1.8036c-0.0929,0,-0.1819,0.0014,-0.2678,0.0027C6.4749,16,6.3931,16.0012,6.3121,16.0012zM5.8139,14.9596c0.2045,0.0473,0.4373,0.0438,0.7285,0.0392c0.0908,-0.0014,0.1849,-0.0028,0.2831,-0.0028c1.516,0,4.6163,-0.2971,5.4998,-1.4214c0.2179,-0.2773,0.2766,-0.5822,0.1848,-0.9595c-0.1029,-0.4226,-0.113,-0.5428,-0.0963,-0.7647c0.0042,-0.0565,0.0086,-0.115,0.0086,-0.2152c0,-0.7631,0.5087,-1.2541,0.9576,-1.6874c0.162,-0.1564,0.315,-0.3042,0.4377,-0.4564c0.4073,-0.5059,0.7132,-1.0414,0.9091,-1.5916c0.4041,-1.135,0.3625,-2.4301,-0.1168,-3.6467C13.6076,1.7097,10.5673,0.8068,7.9983,1.04c-1.7251,0.1567,-3.0035,0.6848,-3.9083,1.6146c-0.8512,0.8747,-1.388,1.9831,-1.7405,3.594c-0.0293,0.1341,-0.0583,0.2665,-0.0465,0.3501c0.0057,0.0074,0.0117,0.0147,0.0174,0.0222c0.0818,0.1057,0.2732,0.3531,0.1779,0.6876c-0.0876,0.3076,-0.2901,0.5696,-0.4688,0.8009c-0.063,0.0815,-0.1225,0.1585,-0.1667,0.2249c-0.0547,0.0821,-0.1322,0.1811,-0.2302,0.3063c-0.1328,0.1696,-0.5019,0.6412,-0.6057,0.8957c0.0526,0.02,0.1171,0.0406,0.1669,0.0565c0.2674,0.0854,0.9776,0.3125,0.8308,1.0544c-0.0099,0.0501,-0.0145,0.073,0.1813,0.1977c0.1262,0.0804,0.3612,0.23,0.3612,0.5362c0,0.2313,-0.1265,0.372,-0.2649,0.4631c0.1336,0.1552,0.2463,0.3871,0.1788,0.7256c-0.0303,0.1521,-0.0749,0.2918,-0.118,0.4269c-0.124,0.3887,-0.1405,0.5045,-0.03,0.6398c0.1954,0.2395,0.7504,0.1839,1.1557,0.1436l0.0394,-0.004c0.0651,-0.0064,0.1638,-0.024,0.2682,-0.0425c0.5468,-0.0971,1.5645,-0.2776,1.8931,0.5384c0.0769,0.1911,0.0937,0.3798,0.1072,0.5315C5.8007,14.8508,5.8064,14.9151,5.8139,14.9596z" fill="#6485C3"/>
    <path d="M12.5,4.0012c-0.5523,0,-1,0.4477,-1,1c0,0.3699,0.2014,0.6921,0.5,0.8651v1.1349h-1V5.9846c0,-0.5422,-0.4411,-0.9833,-0.9833,-0.9833H9.5V3.8663c0.2986,-0.173,0.5,-0.4952,0.5,-0.8651c0,-0.5523,-0.4477,-1,-1,-1s-1,0.4477,-1,1c0,0.3699,0.2014,0.6921,0.5,0.8651v1.1349h-0.5167c-0.5422,0,-0.9833,0.4411,-0.9833,0.9833v0.0167H5.5v-0.6349c0.2986,-0.173,0.5,-0.4952,0.5,-0.8651c0,-0.5523,-0.4477,-1,-1,-1s-1,0.4477,-1,1c0,0.3699,0.2014,0.6921,0.5,0.8651v1.6349h2.5v1.0167c0,0.5422,0.4411,0.9833,0.9833,0.9833H8.5v1H6.8651c-0.173,-0.2986,-0.4952,-0.5,-0.8651,-0.5c-0.5523,0,-1,0.4477,-1,1s0.4477,1,1,1c0.3699,0,0.6921,-0.2014,0.8651,-0.5H9.5v-2h0.5167c0.5422,0,0.9833,-0.4411,0.9833,-0.9833v-0.0167h2V5.8663c0.2986,-0.173,0.5,-0.4952,0.5,-0.8651C13.5,4.4489,13.0523,4.0012,12.5,4.0012zM10,8.0012H8v-2h2V8.0012z" fill="#6486C4"/>
  </g>
</svg>
