<?xml version="1.0" encoding="UTF-8"?>
<!DOCTYPE svg PUBLIC "-//W3C//DTD SVG 1.1//EN" "http://www.w3.org/Graphics/SVG/1.1/DTD/svg11.dtd">
<svg version="1.1" id="Layer_1" xmlns="http://www.w3.org/2000/svg" xmlns:xlink="http://www.w3.org/1999/xlink" x="0px" y="0px" width="16px" height="16px" viewBox="0 0 16 16" enable-background="new 0 0 16 16" xml:space="preserve">
  <g id="icon">
    <path d="M15.5,8.1c0,4.1421,-3.3579,7.5,-7.5,7.5S0.5,12.2421,0.5,8.1S3.8579,0.6,8,0.6S15.5,3.9579,15.5,8.1z" fill="#FFFFFF" opacity="0.5"/>
    <path d="M7.9999,16c-3.9874,0,-7.3954,-2.9712,-7.9273,-6.9113l-0.0132,-0.0979l1.1746,-0.1586l0.0132,0.0979c0.4529,3.3549,3.3559,5.8847,6.7527,5.8847c3.7573,0,6.8142,-3.0516,6.8142,-6.8025s-3.0568,-6.8025,-6.8142,-6.8025c-2.351,0,-4.6726,1.3021,-5.9147,3.3173l-0.2638,0.3036h2.9193v1.1852H0V1.3815h1.1852v2.3519C2.6781,1.4416,5.2717,0.0246,7.9999,0.0246c4.4108,0,7.9993,3.5833,7.9993,7.9877S12.4108,16,7.9999,16z" fill="#6D6E71"/>
    <path d="M7,8.3411V2.8h1.2v5.0106l3.9063,3.5188l-0.8077,0.8875L7,8.3411z" fill="#6485C3"/>
  </g>
</svg>
