<?xml version="1.0" encoding="UTF-8"?>
<!DOCTYPE svg PUBLIC "-//W3C//DTD SVG 1.1//EN" "http://www.w3.org/Graphics/SVG/1.1/DTD/svg11.dtd">
<svg version="1.1" id="Layer_1" xmlns="http://www.w3.org/2000/svg" xmlns:xlink="http://www.w3.org/1999/xlink" x="0px" y="0px" width="16px" height="16px" viewBox="0 0 16 16" enable-background="new 0 0 16 16" xml:space="preserve">
  <g id="icon">
    <path d="M5,3v13h11V6.65L12.3625,3H5zM15,15H6V4h6v3.0125L15,7V15z" fill="#6485C3"/>
    <polygon points="15,15 6,15 6,4 12,4 12,7.0125 15,7" id="b" fill="#FFFFFF" stroke-linejoin="miter" opacity="0.4"/>
    <polygon points="4,12 1,12 1,1 7,1 7,2 9.3557,2 7.3625,0 0,0 0,13 4,13" fill="#6D6E71" stroke-linejoin="miter"/>
    <polygon points="4,2 7,2 7,1 1,1 1,12 4,12" id="b" fill="#FFFFFF" stroke-linejoin="miter" opacity="0.4"/>
  </g>
</svg>
