<?xml version="1.0" encoding="UTF-8"?>
<!DOCTYPE svg PUBLIC "-//W3C//DTD SVG 1.1//EN" "http://www.w3.org/Graphics/SVG/1.1/DTD/svg11.dtd">
<svg version="1.1" id="Layer_1" xmlns="http://www.w3.org/2000/svg" xmlns:xlink="http://www.w3.org/1999/xlink" x="0px" y="0px" width="16px" height="16px" viewBox="0 0 16 16" enable-background="new 0 0 16 16" xml:space="preserve">
  <g id="main">
    <g id="icon">
      <path d="M10.48,3.316L8.982,4.171L8.817,4.337L8.762,4.55L8.817,4.763L8.982,4.929L10.48,5.784L8.568,9.057L7.053,8.191L6.828,8.133L6.617,8.193L6.461,8.346L6.452,8.378L6.915,9.108L7.006,9.275L7.04,9.451L6.951,9.81L6.676,10.14L6.241,10.39L5.246,10.87L4.449,11.41L3.828,12L3.362,12.62L3.028,13.24L2.806,13.84L2.675,14.39L2.612,14.88L2.585,15.21L2.638,15.36L2.786,15.42L15.21,15.42L15.21,15.42L15.36,15.36L15.42,15.21L15.39,14.88L15.33,14.39L15.19,13.84L14.97,13.24L14.64,12.62L14.17,12L13.54,11.41L12.74,10.87L11.75,10.39L11.31,10.14L11.03,9.81L10.94,9.451L10.98,9.275L11.07,9.108L11.35,8.714L11.58,8.298L11.93,7.417L12.13,6.504L12.19,5.596L12.16,4.937L12.06,4.347L11.87,3.833L11.58,3.399L11.16,3.051L10.61,2.795L10.11,2.685zz" fill="#FFFFFF" opacity="0.5"/>
      <path d="M10.48,3.316L10.42,3.351L10.8,3.511L11.14,3.778L11.37,4.12L11.51,4.537L11.59,5.029L11.61,5.596L11.55,6.487L11.35,7.322L11.04,8.081L10.61,8.745L10.6,8.757L10.46,8.998L10.38,9.258L10.36,9.53L10.41,9.807L10.56,10.15L10.8,10.47L11.13,10.73L11.53,10.94L11.54,10.94L12.41,11.35L13.12,11.82L13.67,12.33L14.09,12.86L14.4,13.4L14.61,13.92L14.73,14.4L14.8,14.83L3.201,14.83L3.267,14.4L3.394,13.92L3.601,13.4L3.905,12.86L4.325,12.33L4.877,11.82L5.58,11.35L6.452,10.94L6.458,10.94L6.853,10.73L7.18,10.47L7.425,10.15L7.577,9.808L7.623,9.531L7.604,9.259L7.524,8.999L7.382,8.758L7.373,8.746L7.009,8.18L6.828,8.133L6.617,8.193L6.461,8.346L6.4,8.57L6.4,9.382L6.452,9.462L6.454,9.494L6.4,9.568L6.4,10.2L5.294,10.2L4.932,10.37L4.055,10.97L3.371,11.63L2.857,12.32L2.49,13.01L2.246,13.67L2.1,14.29L2.03,14.83L2.003,15.17L2.043,15.48L2.205,15.75L2.468,15.93L2.782,16L15.22,16L15.53,15.93L15.8,15.75L15.96,15.48L16,15.17L15.97,14.83L15.9,14.29L15.75,13.67L15.51,13.01L15.14,12.32L14.62,11.63L13.94,10.97L13.06,10.37L11.96,9.852L11.75,9.744L11.62,9.63L11.53,9.472L11.53,9.462L12.07,8.636L12.46,7.701L12.7,6.679L12.78,5.596L12.75,4.961L12.66,4.328L12.47,3.723L12.15,3.171L11.67,2.697L11.37,2.497L11.01,2.327L10.6,2.189L10.13,2.087L9.743,2.057zz" fill="#6485C3"/>
    </g>
    <g id="overlay">
      <polygon points="3.8,9 3.8,5.7501 0.8689,7.425 0.1689,6.225 3.1,4.55 0.1689,2.875 0.8689,1.675 3.8,3.3499 3.8,0 5.2,0 5.2,3.3499 8.1311,1.675 8.8311,2.875 5.9,4.55 8.8311,6.225 8.1311,7.425 5.2,5.7501 5.2,9" fill="#EEAC55" stroke-linejoin="miter"/>
    </g>
  </g>
</svg>
