<?xml version="1.0" encoding="UTF-8"?>
<!DOCTYPE svg PUBLIC "-//W3C//DTD SVG 1.1//EN" "http://www.w3.org/Graphics/SVG/1.1/DTD/svg11.dtd">
<svg version="1.1" id="Layer_1" xmlns="http://www.w3.org/2000/svg" xmlns:xlink="http://www.w3.org/1999/xlink" x="0px" y="0px" width="16px" height="16px" viewBox="0 0 16 16" enable-background="new 0 0 16 16" xml:space="preserve">
  <g id="icon">
    <rect x="0.5" y="3.5" width="15" height="9" fill="#FFFFFF" opacity="0.5"/>
    <path d="M16,13H0V3h16V13zM1,12h14V4H1V12z" fill="#6D6E71"/>
    <rect x="8.5" y="3.5" width="7" height="9" fill="#FFFFFF" opacity="0.5"/>
    <path d="M16,13H8V3h8V13zM9,12h6V4H9V12z" fill="#6485C3"/>
    <polygon points="12.0233,9.4145 9.5861,6.9772 10.3639,6.1994 12.0233,7.8588 13.6611,6.221 14.4389,6.9989" fill="#6485C3" stroke-linejoin="miter"/>
    <path d="M5.7333,6h0.5C6.3806,6,6.5,5.8806,6.5,5.7333v-0.4667C6.5,5.1194,6.3806,5,6.2333,5h-0.5c-0.4828,0,-0.9191,0.1977,-1.2333,0.5161C4.1857,5.1977,3.7494,5,3.2667,5h-0.5C2.6194,5,2.5,5.1194,2.5,5.2667v0.4667C2.5,5.8806,2.6194,6,2.7667,6h0.5C3.6717,6,4,6.3283,4,6.7333v2.5333c0,0.405,-0.3283,0.7333,-0.7333,0.7333h-0.5c-0.1473,0,-0.2667,0.1194,-0.2667,0.2667v0.4667c0,0.1473,0.1194,0.2667,0.2667,0.2667h0.5c0.4828,0,0.9191,-0.1977,1.2333,-0.5161c0.3143,0.3184,0.7506,0.5161,1.2333,0.5161h0.5c0.1473,0,0.2667,-0.1194,0.2667,-0.2667v-0.4667c0,-0.1473,-0.1194,-0.2667,-0.2667,-0.2667h-0.5C5.3283,10,5,9.6717,5,9.2667V6.7333C5,6.3283,5.3283,6,5.7333,6z" fill="#6D6E71"/>
  </g>
</svg>
