<?xml version="1.0" encoding="UTF-8"?>
<!DOCTYPE svg PUBLIC "-//W3C//DTD SVG 1.1//EN" "http://www.w3.org/Graphics/SVG/1.1/DTD/svg11.dtd">
<svg version="1.1" id="Layer_1" xmlns="http://www.w3.org/2000/svg" xmlns:xlink="http://www.w3.org/1999/xlink" x="0px" y="0px" width="16px" height="16px" viewBox="0 0 16 16" enable-background="new 0 0 16 16" xml:space="preserve">
  <g id="main">
    <g id="icon">
      <path d="M0.5,10.5L5.894,10.5L5.916,10.35L6.057,9.807L6.249,9.283L6.489,8.785L6.775,8.315L7.103,7.876L7.471,7.471L7.876,7.103L8.315,6.775L8.785,6.489L9.283,6.249L9.807,6.057L10.35,5.916L10.92,5.829L11.5,5.8L12.18,5.84L12.83,5.956L13.45,6.145L13.5,6.166L13.5,1.5L0.5,1.5zz" fill="#FFFFFF" opacity="0.5"/>
      <path d="M0,11L5.825,11L5.829,10.92L5.916,10.35L6.007,10L1,10L1,2L13,2L13,6.008L13.45,6.145L14,6.382L14,1L0,1zz" fill="#6D6E71"/>
      <path d="M10.38,3.036L10.05,3.138L9.757,3.301L9.5,3.516L9.243,3.301L8.946,3.139L8.619,3.036L8.267,3L7.767,3L7.578,3.078L7.5,3.267L7.5,3.733L7.578,3.922L7.767,4L8.267,4L8.552,4.058L8.785,4.215L8.942,4.448L9,4.733L9,6.385L9.283,6.249L9.807,6.057L10,6.007L10,4.733L10.06,4.448L10.21,4.215L10.45,4.058L10.73,4L11.23,4L11.42,3.922L11.5,3.733L11.5,3.267L11.42,3.078L11.23,3L10.73,3zz" fill="#6D6E71"/>
      <path d="M2,8.5L6,8.5L6,3.5L2,3.5zz" fill="#BAD2EE"/>
    </g>
    <g id="overlay">
      <path d="M7.9,11.5c0,-1.9882,1.6118,-3.6,3.6,-3.6s3.6,1.6118,3.6,3.6s-1.6118,3.6,-3.6,3.6S7.9,13.4882,7.9,11.5zM9.3039,14.3525M13.714,14.3388" fill="#FFFFFF" opacity="0.5"/>
      <polygon points="11,11.9047 11,9 12,9 12,11.4854 13.7345,13.0891 13.14,13.7927" fill="#6485C3" stroke-linejoin="miter"/>
      <path d="M11.5,16c-2.4813,0,-4.5,-2.0187,-4.5,-4.5s2.0187,-4.5,4.5,-4.5s4.5,2.0187,4.5,4.5S13.9813,16,11.5,16zM11.5,8.0929c-1.8787,0,-3.4071,1.5284,-3.4071,3.4071S9.6213,14.9071,11.5,14.9071s3.4071,-1.5284,3.4071,-3.4071S13.3787,8.0929,11.5,8.0929z" fill="#6485C3"/>
      <path d="M11.1515,14.2643v-0.6971h0.6971v0.6971H11.1515zM9.4669,13.5672v-0.6971h0.6971v0.6971H9.4669zM13.5912,11.8826v-0.6971h0.6971v0.6971H13.5912zM8.7117,11.8826v-0.6971h0.6971v0.6971H8.7117zM12.8361,10.1399v-0.6971h0.6971v0.6971H12.8361zM9.4669,10.1399v-0.6971h0.6971v0.6971H9.4669z" fill="#6485C3"/>
    </g>
  </g>
</svg>
