<?xml version="1.0" encoding="UTF-8"?>
<!DOCTYPE svg PUBLIC "-//W3C//DTD SVG 1.1//EN" "http://www.w3.org/Graphics/SVG/1.1/DTD/svg11.dtd">
<svg version="1.1" id="Layer_1" xmlns="http://www.w3.org/2000/svg" xmlns:xlink="http://www.w3.org/1999/xlink" x="0px" y="0px" width="16px" height="16px" viewBox="0 0 16 16" enable-background="new 0 0 16 16" xml:space="preserve">
  <g id="main">
    <g id="icon">
      <path d="M2.5,7.034L2.521,7.024L3.204,6.857L3.979,6.8L4.007,6.8L4.783,6.857L5.469,7.024L6.059,7.299L6.55,7.677L6.939,8.155L7.221,8.729L7.393,9.396L7.452,10.15L7.425,10.5L15.5,10.5L15.5,1.5L2.5,1.5zz" fill="#FFFFFF" opacity="0.5"/>
      <path d="M2,7.267L2.521,7.024L3,6.907L3,2L15,2L15,10L7.44,10L7.452,10.15L7.39,10.95L7.379,11L16,11L16,1L2,1zz" fill="#6D6E71"/>
      <path d="M8.5,10.5L15.5,10.5L15.5,1.5L8.5,1.5zz" fill="#FFFFFF" opacity="0.5"/>
      <path d="M8,11L16,11L16,1L8,1zM15,2L15,10L9,10L9,2zz" fill="#6485C3"/>
      <path d="M9.586,4.977L12.02,7.414L14.44,4.999L13.66,4.221L12.02,5.859L10.36,4.199zz" fill="#6485C3"/>
      <path d="M3.578,3.078L3.5,3.267L3.5,3.733L3.578,3.922L3.767,4L4.267,4L4.552,4.058L4.785,4.215L4.942,4.448L5,4.733L5,6.91L5.469,7.024L6.001,7.272L6,7.267L6,4.733L6.058,4.448L6.215,4.215L6.448,4.058L6.733,4L7.233,4L7.422,3.922L7.5,3.733L7.5,3.267L7.422,3.078L7.233,3L6.733,3L6.381,3.036L6.054,3.139L5.757,3.301L5.5,3.516L5.243,3.301L4.946,3.139L4.619,3.036L4.267,3L3.767,3zM6.939,8.155L7.221,8.729L7.285,8.978L7.422,8.922L7.5,8.733L7.5,8.267L7.422,8.078L7.233,8L6.812,8zz" fill="#6D6E71"/>
    </g>
    <g id="overlay">
      <path d="M7.4006,15.5084c0.0639,0,0.1143,-0.0512,0.1095,-0.1112l-0.0148,-0.1843c-0.052,-0.6475,-0.378,-1.827,-1.9768,-2.4507c-0.3674,-0.148,-0.5422,-0.4696,-0.3674,-0.7035c0.4369,-0.5555,0.6109,-1.269,0.6109,-1.92c0,-1.0081,-0.3159,-1.6467,-1.7263,-1.6467h-0.0274c-1.4049,0,-1.7196,0.6386,-1.7196,1.6467c0,0.651,0.1733,1.3645,0.6085,1.92c0.1741,0.2339,0,0.5555,-0.366,0.7035c-1.5925,0.6237,-1.9172,1.8032,-1.969,2.4507l-0.0147,0.1843c-0.0048,0.06,0.0454,0.1112,0.1091,0.1112H7.4006z" fill="#FFFFFF" opacity="0.5"/>
      <path d="M0.6274,16c-0.1763,0,-0.3453,-0.0737,-0.4639,-0.2024c-0.1163,-0.1261,-0.1752,-0.296,-0.1615,-0.4662l0.0147,-0.183c0.0615,-0.763,0.4415,-2.1508,2.2956,-2.8726c0.0211,-0.0085,0.0388,-0.0175,0.0537,-0.0261c-0.4029,-0.5717,-0.6242,-1.3142,-0.6242,-2.0981C1.7418,9.228,1.9737,8,3.9795,8h0.0274c2.0118,0,2.2445,1.228,2.2445,2.1517c0,0.7837,-0.2219,1.526,-0.6259,2.0976c0.0154,0.009,0.034,0.0185,0.0562,0.0274c1.8586,0.7207,2.2398,2.1086,2.3015,2.8717l0.0148,0.183c0.0138,0.1701,-0.0451,0.3399,-0.1614,0.4661c-0.1187,0.1287,-0.288,0.2025,-0.4645,0.2025H0.6274zM6.9126,14.9667c-0.1164,-0.5634,-0.4947,-1.2964,-1.6101,-1.7284c-0.3703,-0.1481,-0.6444,-0.4273,-0.7337,-0.747c-0.0733,-0.2624,-0.0238,-0.5264,0.1395,-0.7433l0.0064,-0.0083c0.3231,-0.4079,0.5008,-0.9716,0.5008,-1.5879c0,-0.8253,-0.1826,-1.1183,-1.2085,-1.1183h-0.0274c-1.0202,0,-1.2017,0.293,-1.2017,1.1183c0,0.6167,0.1767,1.1802,0.4976,1.5868l0.0067,0.0087c0.1635,0.218,0.213,0.4823,0.1396,0.7447c-0.0893,0.3192,-0.3606,0.5974,-0.7259,0.744c-1.115,0.4336,-1.4926,1.1672,-1.6085,1.7308H6.9126z" fill="#6485C3"/>
    </g>
  </g>
</svg>
