<?xml version="1.0" encoding="UTF-8"?>
<!DOCTYPE svg PUBLIC "-//W3C//DTD SVG 1.1//EN" "http://www.w3.org/Graphics/SVG/1.1/DTD/svg11.dtd">
<svg version="1.1" id="Layer_1" xmlns="http://www.w3.org/2000/svg" xmlns:xlink="http://www.w3.org/1999/xlink" x="0px" y="0px" width="16px" height="16px" viewBox="0 0 16 16" enable-background="new 0 0 16 16" xml:space="preserve">
  <g id="main">
    <g id="icon">
      <path d="M0.5,10.5L7.023,10.5L7.034,10.46L7.209,9.978L7.689,9.095L8.325,8.325L9.095,7.689L9.978,7.209L10.46,7.034L10.95,6.906L11.47,6.827L12,6.8L12.59,6.834L13.17,6.932L13.5,7.029L13.5,1.5L0.5,1.5zz" fill="#FFFFFF" opacity="0.5"/>
      <path d="M0,11L6.899,11L6.906,10.95L7.034,10.46L7.201,10L1,10L1,2L13,2L13,6.904L13.17,6.932L13.72,7.092L14,7.209L14,1L0,1zz" fill="#6D6E71"/>
      <path d="M10.38,3.036L10.05,3.138L9.757,3.301L9.5,3.516L9.243,3.301L8.946,3.139L8.619,3.036L8.267,3L7.767,3L7.578,3.078L7.5,3.267L7.5,3.733L7.578,3.922L7.767,4L8.267,4L8.552,4.058L8.785,4.215L8.942,4.448L9,4.733L9,7.267L8.942,7.552L8.785,7.785L8.552,7.942L8.267,8L7.767,8L7.578,8.078L7.5,8.267L7.5,8.733L7.578,8.922L7.767,9L7.767,9L8.325,8.325L9.095,7.689L9.978,7.209L10,7.201L10,4.733L10.06,4.448L10.21,4.215L10.45,4.058L10.73,4L11.23,4L11.42,3.922L11.5,3.733L11.5,3.267L11.42,3.078L11.23,3L10.73,3zz" fill="#6D6E71"/>
      <path d="M2,8.5L6,8.5L6,3.5L2,3.5zz" fill="#6485C3"/>
    </g>
    <g id="overlay">
      <path d="M12.8357,12c0,1.5235,-0.3341,1.8357,-0.8357,1.8357s-0.8357,-0.3122,-0.8357,-1.8357s0.3341,-1.8357,0.8357,-1.8357S12.8357,10.4765,12.8357,12zM16,12c0,2.2056,-1.7944,4,-4,4s-4,-1.7944,-4,-4s1.7944,-4,4,-4S16,9.7944,16,12zM13.6643,12c0,-0.8062,-0.0805,-1.3484,-0.2611,-1.7581c-0.2651,-0.6013,-0.7372,-0.9062,-1.4032,-0.9062c-0.6661,0,-1.1383,0.3049,-1.4033,0.9062c-0.1805,0.4096,-0.261,0.9518,-0.261,1.7581s0.0805,1.3485,0.261,1.7581c0.265,0.6013,0.7371,0.9062,1.4033,0.9062c0.666,0,1.1381,-0.3049,1.4032,-0.9062C13.5838,13.3484,13.6643,12.8062,13.6643,12z" fill="#CB535D"/>
      <path d="M12,14.6643c-0.6661,0,-1.1383,-0.3049,-1.4033,-0.9062c-0.1805,-0.4096,-0.261,-0.9518,-0.261,-1.7581s0.0805,-1.3485,0.261,-1.7581c0.265,-0.6013,0.7371,-0.9062,1.4033,-0.9062c0.666,0,1.1381,0.3049,1.4032,0.9062c0.1806,0.4097,0.2611,0.9519,0.2611,1.7581s-0.0805,1.3484,-0.2611,1.7581C13.1381,14.3594,12.666,14.6643,12,14.6643zM12,10.1643c-0.5016,0,-0.8357,0.3122,-0.8357,1.8357s0.3341,1.8357,0.8357,1.8357s0.8357,-0.3122,0.8357,-1.8357S12.5016,10.1643,12,10.1643z" fill="#FFFFFF" opacity="0.5"/>
    </g>
  </g>
</svg>
