<?xml version="1.0" encoding="UTF-8"?>
<!DOCTYPE svg PUBLIC "-//W3C//DTD SVG 1.1//EN" "http://www.w3.org/Graphics/SVG/1.1/DTD/svg11.dtd">
<svg version="1.1" id="Layer_1" xmlns="http://www.w3.org/2000/svg" xmlns:xlink="http://www.w3.org/1999/xlink" x="0px" y="0px" width="16px" height="16px" viewBox="0 0 16 16" enable-background="new 0 0 16 16" xml:space="preserve">
  <g id="icon">
    <rect x="0.5" y="3.5" width="15" height="9" fill="#FFFFFF" opacity="0.5"/>
    <path d="M16,13H0V3h16V13zM1,12h14V4H1V12z" fill="#6D6E71"/>
    <path d="M13.7333,6h0.2c0.1473,0,0.2667,-0.1194,0.2667,-0.2667v-0.4667c0,-0.1473,-0.1194,-0.2667,-0.2667,-0.2667h-0.2c-0.4828,0,-0.9191,0.1977,-1.2333,0.5161C12.1857,5.1977,11.7494,5,11.2667,5h-0.2c-0.1473,0,-0.2667,0.1194,-0.2667,0.2667v0.4667c0,0.1473,0.1194,0.2667,0.2667,0.2667h0.2c0.405,0,0.7333,0.3283,0.7333,0.7333v2.5333c0,0.405,-0.3283,0.7333,-0.7333,0.7333h-0.2c-0.1473,0,-0.2667,0.1194,-0.2667,0.2667v0.4667c0,0.1473,0.1194,0.2667,0.2667,0.2667h0.2c0.4828,0,0.9191,-0.1977,1.2333,-0.5161c0.3143,0.3184,0.7506,0.5161,1.2333,0.5161h0.2c0.1473,0,0.2667,-0.1194,0.2667,-0.2667v-0.4667c0,-0.1473,-0.1194,-0.2667,-0.2667,-0.2667h-0.2c-0.405,0,-0.7333,-0.3283,-0.7333,-0.7333V6.7333C13,6.3283,13.3283,6,13.7333,6z" fill="#6D6E71"/>
    <path d="M6.6042,10.9792l-0.6265,-1.6318H4.0605l-0.6259,1.6317l-0.9337,-0.3581l1.9993,-5.2112c0.0104,-0.0243,0.0359,-0.0905,0.0359,-0.0905l0.1234,-0.3202L5.3879,5l0.1191,0.3305c0.0005,0.0013,0.0199,0.0556,0.03,0.0801l0.0069,0.017l1.9939,5.1932L6.6042,10.9792zM4.444,8.3474h1.1497l-0.5751,-1.4979L4.444,8.3474z" fill="#6485C3"/>
  </g>
</svg>
