<?xml version="1.0" encoding="UTF-8"?>
<!DOCTYPE svg PUBLIC "-//W3C//DTD SVG 1.1//EN" "http://www.w3.org/Graphics/SVG/1.1/DTD/svg11.dtd">
<svg version="1.1" id="Layer_1" xmlns="http://www.w3.org/2000/svg" xmlns:xlink="http://www.w3.org/1999/xlink" x="0px" y="0px" width="16px" height="16px" viewBox="0 0 16 16" enable-background="new 0 0 16 16" xml:space="preserve">
  <g id="icon">
    <rect x="0.5" y="3.5" width="15" height="9" fill="#FFFFFF" opacity="0.5"/>
    <path d="M16,13H0V3h16V13zM1,12h14V4H1V12z" fill="#6D6E71"/>
    <path d="M11.7333,6h0.5c0.1473,0,0.2667,-0.1194,0.2667,-0.2667v-0.4667c0,-0.1473,-0.1194,-0.2667,-0.2667,-0.2667h-0.5c-0.4828,0,-0.9191,0.1977,-1.2333,0.5161C10.1857,5.1977,9.7494,5,9.2667,5h-0.5C8.6194,5,8.5,5.1194,8.5,5.2667v0.4667C8.5,5.8806,8.6194,6,8.7667,6h0.5c0.405,0,0.7333,0.3283,0.7333,0.7333v2.5333c0,0.405,-0.3283,0.7333,-0.7333,0.7333h-0.5c-0.1473,0,-0.2667,0.1194,-0.2667,0.2667v0.4667c0,0.1473,0.1194,0.2667,0.2667,0.2667h0.5c0.4828,0,0.9191,-0.1977,1.2333,-0.5161c0.3143,0.3184,0.7506,0.5161,1.2333,0.5161h0.5c0.1473,0,0.2667,-0.1194,0.2667,-0.2667v-0.4667c0,-0.1473,-0.1194,-0.2667,-0.2667,-0.2667h-0.5c-0.405,0,-0.7333,-0.3283,-0.7333,-0.7333V6.7333C11,6.3283,11.3283,6,11.7333,6z" fill="#6D6E71"/>
    <rect x="2" y="5.5" width="5" height="5" fill="#BAD2EE"/>
  </g>
</svg>
