<?xml version="1.0" encoding="UTF-8"?>
<!DOCTYPE svg PUBLIC "-//W3C//DTD SVG 1.1//EN" "http://www.w3.org/Graphics/SVG/1.1/DTD/svg11.dtd">
<svg version="1.1" id="Layer_1" xmlns="http://www.w3.org/2000/svg" xmlns:xlink="http://www.w3.org/1999/xlink" x="0px" y="0px" width="16px" height="16px" viewBox="0 0 16 16" enable-background="new 0 0 16 16" xml:space="preserve">
  <g id="icon">
    <path d="M15,15H1V4h14V15z" fill="#FFFFFF" opacity="0.5"/>
    <polygon points="15,15 1,15 1,4 0,4 0,16 16,16 16,4 15,4" fill="#6D6E71" stroke-linejoin="miter"/>
    <path d="M16,4H0V1h16V4z" fill="#9070B1"/>
    <path d="M12,13H9v-1H6v-1h3v-1h3v1h2v1h-2V13zM10,12h1v-1h-1V12zM5,12H2v-1h3V12zM14,9H6V6h8V9zM7,8h6V7H7V8zM5,8H2V7h3V8z" fill="#7B7B7B"/>
  </g>
</svg>
