<?xml version="1.0" encoding="UTF-8"?>
<!DOCTYPE svg PUBLIC "-//W3C//DTD SVG 1.1//EN" "http://www.w3.org/Graphics/SVG/1.1/DTD/svg11.dtd">
<svg version="1.1" id="Layer_1" xmlns="http://www.w3.org/2000/svg" xmlns:xlink="http://www.w3.org/1999/xlink" x="0px" y="0px" width="16px" height="16px" viewBox="0 0 16 16" enable-background="new 0 0 16 16" xml:space="preserve">
  <g id="icon">
    <path d="M15.5,5.5v9H0.5V5.5H15.5z" fill="#FFFFFF" opacity="0.5"/>
    <polygon points="16,5.5 15,5.5 15,14 1,14 1,5.5 0,5.5 0,15 16,15" fill="#6D6E71" stroke-linejoin="miter"/>
    <rect x="0.5" y="1.5" width="15" height="4" fill="#6485C3"/>
    <path d="M16,6H0V1h16V6zM1,5h14V2H1V5z" fill="#6485C3"/>
    <polygon points="7.5,6.5787 4.9311,9.1475 5.6382,9.8546 7,8.4928 7,12 8,12 8,8.4928 9.3618,9.8546 10.0689,9.1475" fill="#9070B1" stroke-linejoin="miter"/>
  </g>
</svg>
