<?xml version="1.0" encoding="UTF-8"?>
<!DOCTYPE svg PUBLIC "-//W3C//DTD SVG 1.1//EN" "http://www.w3.org/Graphics/SVG/1.1/DTD/svg11.dtd">
<svg version="1.1" id="Layer_1" xmlns="http://www.w3.org/2000/svg" xmlns:xlink="http://www.w3.org/1999/xlink" x="0px" y="0px" width="16px" height="16px" viewBox="0 0 16 16" enable-background="new 0 0 16 16" xml:space="preserve">
  <g id="icon">
    <path d="M12.2559,15.4386c0.0807,0,0.1443,-0.0641,0.1382,-0.1393l-0.0187,-0.2309c-0.0656,-0.8111,-0.4771,-2.2885,-2.4951,-3.0698c-0.4638,-0.1854,-0.6844,-0.5883,-0.4638,-0.8812c0.5515,-0.6958,0.7711,-1.5896,0.7711,-2.4051c0,-1.2628,-0.3988,-2.0627,-2.179,-2.0627h-0.0346c-1.7732,0,-2.1705,0.7999,-2.1705,2.0627c0,0.8154,0.2187,1.7093,0.7681,2.4051c0.2197,0.293,0,0.6958,-0.462,0.8812c-2.0101,0.7813,-2.42,2.2587,-2.4853,3.0698l-0.0186,0.2309c-0.0061,0.0752,0.0573,0.1393,0.1377,0.1393H12.2559z" fill="#FFFFFF" opacity="0.5"/>
    <path d="M3.7435,16c-0.1963,0,-0.3848,-0.0822,-0.517,-0.2255c-0.1298,-0.1407,-0.1955,-0.3304,-0.1802,-0.5203l0.0186,-0.2308c0.076,-0.9416,0.5457,-2.6545,2.8393,-3.5471c0.0813,-0.0328,0.1322,-0.0714,0.1605,-0.0979c-0.5306,-0.7139,-0.8224,-1.6588,-0.8224,-2.6661c0,-1.1265,0.2832,-2.6241,2.7318,-2.6241h0.0346c2.4563,0,2.7404,1.4976,2.7404,2.6241c0,1.0051,-0.2927,1.9498,-0.8248,2.6655c0.0297,0.0276,0.0812,0.066,0.1631,0.0989c2.3001,0.8916,2.7714,2.6047,2.8477,3.5463l0.0186,0.2309c0.0154,0.1898,-0.0503,0.3795,-0.1801,0.5202c-0.1323,0.1435,-0.321,0.2258,-0.5177,0.2258H3.7435zM11.7866,14.8773c-0.1076,-0.6403,-0.5286,-1.7434,-2.1089,-2.3552c-0.4402,-0.176,-0.7656,-0.5057,-0.8708,-0.8822c-0.0849,-0.3038,-0.0277,-0.6093,0.1613,-0.8603l0.0074,-0.0095c0.4198,-0.5297,0.6508,-1.2604,0.6508,-2.0578c0,-1.0588,-0.2248,-1.5013,-1.6176,-1.5013h-0.0346c-1.3855,0,-1.6091,0.4426,-1.6091,1.5013c0,0.7978,0.2299,1.5284,0.6473,2.0572l0.0071,0.0092c0.1892,0.2523,0.2465,0.5582,0.1615,0.8619c-0.1052,0.3759,-0.4275,0.7045,-0.8621,0.8789c-1.5793,0.6139,-1.9986,1.7173,-2.1057,2.3578H11.7866z" fill="#6485C3"/>
    <path d="M4.4063,8.2755c0,-1.7619,0.8033,-2.6151,1.801,-2.9954c-0.3139,-0.1858,-0.4419,-0.4865,-0.2657,-0.7141c0.5111,-0.6269,0.7146,-1.4321,0.7146,-2.1668c0,-1.1377,-0.3696,-1.8584,-2.0193,-1.8584h-0.032c-1.6433,0,-2.0114,0.7207,-2.0114,1.8584c0,0.7346,0.2027,1.5399,0.7118,2.1668c0.2036,0.2639,0,0.6269,-0.4281,0.7939C1.0143,6.0638,0.6345,7.3949,0.5739,8.1256l-0.0172,0.208c-0.0056,0.0677,0.0531,0.1255,0.1276,0.1255h3.7254C4.4077,8.3981,4.4063,8.3369,4.4063,8.2755z" fill="#FFFFFF" opacity="0.5"/>
    <path d="M0.6842,9c-0.192,0,-0.3763,-0.0782,-0.5056,-0.2145c-0.1271,-0.1339,-0.1915,-0.3144,-0.1765,-0.4953l0.0172,-0.2079c0.0711,-0.8565,0.5103,-2.4145,2.6541,-3.2255c0.0508,-0.02,0.0877,-0.0425,0.1128,-0.0612c-0.4834,-0.6457,-0.7491,-1.4946,-0.7491,-2.3963C2.0371,1.3693,2.3033,0,4.6049,0h0.032c2.3086,0,2.5756,1.3693,2.5756,2.3992c0,0.8997,-0.2665,1.7486,-0.7514,2.3958c0.0265,0.0198,0.064,0.0421,0.1155,0.0622c0.1418,0.0535,0.279,0.1117,0.4189,0.1777l0.1382,0.0652l-0.1514,0.0248c-0.4807,0.0786,-0.901,0.2268,-1.2494,0.4402l-0.0322,0.0198l-0.0277,-0.0254c-0.1634,-0.15,-0.2779,-0.3274,-0.3312,-0.5132c-0.0818,-0.2844,-0.0266,-0.5705,0.1554,-0.8056l0.0071,-0.0089c0.3842,-0.4713,0.5955,-1.1219,0.5955,-1.8325c0,-0.9723,-0.221,-1.3175,-1.4629,-1.3175h-0.032c-1.2353,0,-1.4551,0.3452,-1.4551,1.3175c0,0.711,0.2103,1.3615,0.5921,1.8316l0.007,0.009c0.1823,0.2361,0.2375,0.5226,0.1557,0.807c-0.1005,0.349,-0.4072,0.6537,-0.8203,0.8149c-1.4204,0.5368,-1.815,1.4961,-1.9218,2.0565h3.3054l-0.0029,0.0504c-0.0066,0.1148,-0.0096,0.2123,-0.0096,0.3068c0,0.222,0.014,0.4478,0.0417,0.6711L4.5037,9H0.6842z" fill="#6485C3"/>
    <path d="M15.426,8.1256c-0.0608,-0.7308,-0.4421,-2.0618,-2.3122,-2.7657c-0.4298,-0.1671,-0.6342,-0.53,-0.4298,-0.7939c0.5111,-0.6269,0.7146,-1.4321,0.7146,-2.1668c0,-1.1377,-0.3696,-1.8584,-2.0193,-1.8584h-0.032c-1.6433,0,-2.0114,0.7207,-2.0114,1.8584c0,0.7346,0.2027,1.5399,0.7118,2.1668c0.1758,0.2278,0.0476,0.5292,-0.266,0.7149c0.9992,0.3807,1.8034,1.2339,1.8034,2.9946c0,0.0614,-0.0014,0.1226,-0.0034,0.1837h3.7335c0.0748,0,0.1337,-0.0578,0.1281,-0.1255L15.426,8.1256z" fill="#FFFFFF" opacity="0.5"/>
    <path d="M11.4875,9l0.0066,-0.0534c0.0278,-0.2234,0.0419,-0.4492,0.0419,-0.6711c0,-0.0949,-0.0031,-0.1924,-0.0097,-0.3067l-0.0029,-0.0504h3.3139c-0.1073,-0.5602,-0.5029,-1.5191,-1.9243,-2.054c-0.4187,-0.1627,-0.7283,-0.4684,-0.8287,-0.818c-0.0818,-0.2845,-0.0266,-0.5706,0.1554,-0.8056l0.0071,-0.0089c0.3842,-0.4713,0.5955,-1.1219,0.5955,-1.8325c0,-0.9723,-0.221,-1.3175,-1.4629,-1.3175h-0.0321c-1.2352,0,-1.455,0.3452,-1.455,1.3175c0,0.711,0.2103,1.3615,0.5921,1.8316l0.007,0.009c0.1822,0.2361,0.2374,0.5225,0.1557,0.807c-0.0536,0.1862,-0.1679,0.3636,-0.3305,0.5133l-0.0277,0.0254l-0.0323,-0.0197c-0.3481,-0.2131,-0.768,-0.3612,-1.248,-0.4402l-0.1506,-0.0248l0.1373,-0.0651c0.1403,-0.0665,0.2778,-0.1251,0.4205,-0.1791c0.0509,-0.02,0.0877,-0.0425,0.1129,-0.0612c-0.4834,-0.6457,-0.7491,-1.4946,-0.7491,-2.3963C8.7795,1.3693,9.0457,0,11.3473,0h0.0321c2.3086,0,2.5756,1.3693,2.5756,2.3992c0,0.8997,-0.2665,1.7486,-0.7513,2.3958c0.0265,0.0197,0.064,0.042,0.1155,0.0622c2.1494,0.8101,2.5901,2.3682,2.6615,3.2247l0.0173,0.208c0.015,0.1808,-0.0493,0.3613,-0.1764,0.4953c-0.1294,0.1365,-0.314,0.2147,-0.5063,0.2147H11.4875z" fill="#6485C3"/>
  </g>
</svg>
