<?xml version="1.0" encoding="UTF-8"?>
<!DOCTYPE svg PUBLIC "-//W3C//DTD SVG 1.1//EN" "http://www.w3.org/Graphics/SVG/1.1/DTD/svg11.dtd">
<svg version="1.1" id="Layer_1" xmlns="http://www.w3.org/2000/svg" xmlns:xlink="http://www.w3.org/1999/xlink" x="0px" y="0px" width="16px" height="16px" viewBox="0 0 16 16" enable-background="new 0 0 16 16" xml:space="preserve">
  <g id="icon">
    <path d="M11.8188,6.8066l3.8189,-1.1934C15.8731,6.367,16,7.1687,16,8s-0.1269,1.633,-0.3622,2.3868l-3.8189,-1.1934C11.9365,8.8165,12,8.4157,12,8S11.9365,7.1835,11.8188,6.8066zM4,8c0,-0.4157,0.0635,-0.8165,0.1812,-1.1934L0.3622,5.6132C0.1269,6.367,0,7.1687,0,8s0.1269,1.633,0.3622,2.3868l3.8189,-1.1934C4.0635,8.8165,4,8.4157,4,8zM10.3868,15.6378l-1.1934,-3.8189C8.8165,11.9365,8.4157,12,8,12s-0.8165,-0.0635,-1.1934,-0.1812l-1.1934,3.8189C6.367,15.8731,7.1687,16,8,16S9.633,15.8731,10.3868,15.6378zM5.6132,0.3622l1.1934,3.8189C7.1835,4.0635,7.5843,4,8,4s0.8165,0.0635,1.1934,0.1812l1.1934,-3.8189C9.633,0.1269,8.8313,0,8,0S6.367,0.1269,5.6132,0.3622z" fill="#FFFFFF" opacity="0.6"/>
    <path d="M4.2051,9.265l-0.8863,0.2954l-0.0278,-0.0887c-0.1488,-0.4753,-0.2243,-0.9705,-0.2243,-1.4717s0.0755,-0.9963,0.2243,-1.4717l0.0278,-0.0887l0.8863,0.2954C4.0726,7.1327,4,7.5578,4,8S4.0726,8.8673,4.2051,9.265zM1.3118,10.0899C1.1005,9.4155,0.9934,8.7124,0.9934,8s0.1071,-1.4155,0.3184,-2.0899l0.0396,-0.1263l-0.9398,-0.3133C0.1464,6.2659,0,7.1155,0,8s0.1464,1.7341,0.4115,2.5295l0.9398,-0.3133L1.3118,10.0899zM14.6882,5.9101c0.2112,0.6744,0.3184,1.3775,0.3184,2.0899s-0.1071,1.4155,-0.3184,2.0899l-0.0396,0.1263l0.9398,0.3133C15.8536,9.7341,16,8.8845,16,8s-0.1464,-1.7341,-0.4115,-2.5295l-0.9398,0.3133L14.6882,5.9101zM9.4717,3.291c-0.4753,-0.1488,-0.9705,-0.2243,-1.4717,-0.2243s-0.9963,0.0755,-1.4717,0.2243l-0.0887,0.0278l0.2954,0.8863C7.1327,4.0726,7.5578,4,8,4s0.8673,0.0726,1.265,0.2051l0.2954,-0.8863L9.4717,3.291zM12.6812,9.5604l0.0278,-0.0887c0.1488,-0.4753,0.2243,-0.9705,0.2243,-1.4717s-0.0755,-0.9963,-0.2243,-1.4717l-0.0278,-0.0887l-0.8863,0.2954C11.9274,7.1327,12,7.5578,12,8s-0.0726,0.8673,-0.2051,1.265L12.6812,9.5604zM10.5295,15.5885l-0.3133,-0.9398l-0.1263,0.0396c-0.6744,0.2112,-1.3775,0.3184,-2.0899,0.3184s-1.4155,-0.1071,-2.0899,-0.3184l-0.1263,-0.0396l-0.3133,0.9398C6.2659,15.8536,7.1155,16,8,16S9.7341,15.8536,10.5295,15.5885zM6.5283,12.709c0.4753,0.1488,0.9705,0.2243,1.4717,0.2243s0.9963,-0.0755,1.4717,-0.2243l0.0887,-0.0278l-0.2954,-0.8863C8.8673,11.9274,8.4422,12,8,12s-0.8673,-0.0726,-1.265,-0.2051l-0.2954,0.8863L6.5283,12.709zM5.4705,0.4115l0.3133,0.9398l0.1263,-0.0396C6.5845,1.1005,7.2876,0.9934,8,0.9934s1.4155,0.1071,2.0899,0.3184l0.1263,0.0396l0.3133,-0.9398C9.7341,0.1464,8.8845,0,8,0S6.2659,0.1464,5.4705,0.4115z" fill="#48484A" opacity="0.5"/>
    <path d="M0.3622,5.6132c0.78,-2.4987,2.7523,-4.471,5.251,-5.251l1.1934,3.8189c-1.2493,0.39,-2.2354,1.3761,-2.6255,2.6255L0.3622,5.6132zM9.1934,4.1812c1.2493,0.39,2.2354,1.3761,2.6255,2.6255l3.8189,-1.1934c-0.78,-2.4987,-2.7523,-4.471,-5.251,-5.251L9.1934,4.1812zM11.8188,9.1934c-0.39,1.2493,-1.3761,2.2354,-2.6255,2.6255l1.1934,3.8189c2.4987,-0.78,4.471,-2.7523,5.251,-5.251L11.8188,9.1934zM6.8066,11.8188c-1.2493,-0.39,-2.2354,-1.3761,-2.6255,-2.6255L0.3622,10.3868c0.78,2.4987,2.7523,4.471,5.251,5.251L6.8066,11.8188z" fill="#CB525D"/>
  </g>
</svg>
