<?xml version="1.0" encoding="UTF-8"?>
<!DOCTYPE svg PUBLIC "-//W3C//DTD SVG 1.1//EN" "http://www.w3.org/Graphics/SVG/1.1/DTD/svg11.dtd">
<svg version="1.1" id="Layer_1" xmlns="http://www.w3.org/2000/svg" xmlns:xlink="http://www.w3.org/1999/xlink" x="0px" y="0px" width="16px" height="16px" viewBox="0 0 16 16" enable-background="new 0 0 16 16" xml:space="preserve">
  <g id="icon">
    <path d="M15.5,0.5v9h-2v2.35l-1.5,-0.9706V4H3.5V0.5H15.5z" fill="#FFFFFF" opacity="0.3"/>
    <path d="M16,0v10h-2v2.7691l-2,-1.2941v-1.1911l1,0.6471V9h2V1H4v3H3V0H16z" fill="#6D6E71"/>
    <path d="M0.5,5.5v8h2v1.65L5.8816,13.5H10.5V5.5H0.5z" fill="#FFFFFF" opacity="0.3"/>
    <path d="M2,15.9503V14H0V5h11v9H5.9971L2,15.9503zM1,13h2v1.3497L5.7662,13H10V6H1V13z" fill="#6D6E71"/>
    <path d="M9,9H2V8h7V9zM9,10H2v1h7V10z" fill="#6485C3"/>
  </g>
</svg>
