<?xml version="1.0" encoding="UTF-8"?>
<!DOCTYPE svg PUBLIC "-//W3C//DTD SVG 1.1//EN" "http://www.w3.org/Graphics/SVG/1.1/DTD/svg11.dtd">
<svg version="1.1" id="Layer_1" xmlns="http://www.w3.org/2000/svg" xmlns:xlink="http://www.w3.org/1999/xlink" x="0px" y="0px" width="16px" height="16px" viewBox="0 0 16 16" enable-background="new 0 0 16 16" xml:space="preserve">
  <g id="icon">
    <path d="M15.3599,10.9818c-0.0804,-0.8895,-0.8536,-2.5097,-3.3257,-3.3666c-0.2241,-0.0802,-0.377,-0.2218,-0.4837,-0.3637c-0.0342,-0.0455,-0.0062,-0.1107,0.0505,-0.1173c0.3164,-0.0367,1.1747,-0.1517,1.5996,-0.4523c0.1099,-0.0778,0.1108,-0.2435,-0.0002,-0.3199c-0.3569,-0.2458,-0.4814,-0.6358,-0.5489,-1.0412c-0.0719,-0.4318,-0.0941,-0.875,-0.1006,-1.3137c-0.0094,-0.6322,-0.0409,-1.2553,-0.246,-1.8627c-0.3782,-1.12,-1.4581,-1.5227,-2.3086,-1.46c-0.2964,0.0219,-0.566,0.1392,-0.8014,0.3296c-0.0586,0.0474,-0.1437,0.0921,-0.215,0.0898c-0.7138,-0.0225,-1.1404,0.3969,-1.3687,0.9518c-0.1384,0.3366,-0.2158,0.6899,-0.2345,1.0487c1.4723,0.3433,3.0103,1.368,3.0103,4.1531c0,0.967,-0.1907,1.9009,-0.5492,2.7294c0.746,0.4114,1.3182,0.8955,1.7578,1.4008h3.6179c0.0988,0,0.1768,-0.0703,0.1693,-0.1528L15.3599,10.9818z" fill="#FFFFFF" opacity="0.5"/>
    <path d="M15.9971,11.1758l-0.0229,-0.2547c-0.0887,-0.9867,-0.791,-2.3859,-2.4959,-3.3536l-0.3026,-0.1717l0.2954,-0.1839c0.0304,-0.0189,0.0595,-0.0382,0.0873,-0.0579c0.2155,-0.1533,0.3432,-0.403,0.3416,-0.6681c-0.0016,-0.2639,-0.1316,-0.5108,-0.348,-0.6607c-0.1491,-0.1032,-0.2337,-0.2891,-0.292,-0.6415c-0.0723,-0.4365,-0.0874,-0.8865,-0.0925,-1.2297c-0.0097,-0.6522,-0.0391,-1.3485,-0.2779,-2.0596C12.42,0.4961,11.1317,0,10.171,0c-0.0731,0,-0.1473,0.0027,-0.2203,0.0081c-0.3716,0.0276,-0.7198,0.1566,-1.0349,0.3836l-0.0494,0.0356l-0.0608,0.0031c-0.8026,0.0419,-1.4295,0.5169,-1.7652,1.3377c-0.1603,0.3918,-0.2532,0.8044,-0.2781,1.2285c0.3976,0.0482,0.8177,0.1386,1.2259,0.2933c0.0002,-0.0397,-0.0003,-0.0794,0.0005,-0.1191c0.0066,-0.3248,0.0716,-0.6402,0.1932,-0.9373c0.2086,-0.5098,0.5042,-0.5752,0.7384,-0.5752c0.0114,0,0.0649,0.001,0.0652,0.0011c0.2763,-0.0001,0.4937,-0.1433,0.5987,-0.2287c0.1445,-0.1175,0.2986,-0.1831,0.4578,-0.1949c0.0367,-0.0027,0.0753,-0.0041,0.1146,-0.0041c0.2021,0,1.227,0.0508,1.5638,1.054c0.1826,0.5436,0.2058,1.1312,0.214,1.6864c0.0057,0.3857,0.0232,0.8948,0.1089,1.4122c0.0334,0.2018,0.0873,0.4674,0.2088,0.7314l0.1088,0.2363l-0.2547,0.0527c-0.185,0.0383,-0.3945,0.0708,-0.6229,0.0964c-0.2298,0.0259,-0.4321,0.1725,-0.528,0.3827c-0.0956,0.2096,-0.0737,0.4579,0.057,0.648c0.2101,0.3049,0.4862,0.5206,0.8189,0.6403c1.8779,0.6544,2.5434,1.7306,2.7729,2.3139l0.1113,0.2827h-3.745c0.4563,0.3912,0.8126,0.8108,1.0903,1.2312h3.153c0.226,0,0.4411,-0.0935,0.59,-0.2565C15.9451,11.5888,16.0157,11.3819,15.9971,11.1758z" fill="#9070B1"/>
    <path d="M11.066,15.3805c0.0974,0,0.1743,-0.0775,0.1669,-0.1683l-0.0226,-0.2788c-0.0793,-0.9795,-0.5761,-2.7637,-3.0131,-3.7072c-0.5601,-0.2239,-0.8265,-0.7104,-0.5601,-1.0642c0.666,-0.8403,0.9312,-1.9197,0.9312,-2.9044c0,-1.525,-0.4816,-2.491,-2.6314,-2.491h-0.0418c-2.1414,0,-2.6211,0.966,-2.6211,2.491c0,0.9847,0.2642,2.0641,0.9275,2.9044c0.2653,0.3538,0,0.8403,-0.5579,1.0642c-2.4275,0.9435,-2.9224,2.7277,-3.0014,3.7072l-0.0225,0.2788c-0.0073,0.0908,0.0692,0.1683,0.1663,0.1683H11.066z" fill="#FFFFFF" opacity="0.5"/>
    <path d="M0.7862,15.9992c-0.2206,0,-0.4323,-0.0923,-0.5808,-0.2533c-0.1456,-0.1578,-0.2193,-0.3704,-0.2021,-0.5834l0.0224,-0.2787c0.0906,-1.1233,0.6515,-3.1669,3.3912,-4.2331c0.1351,-0.0546,0.2141,-0.1245,0.2497,-0.1693c-0.6514,-0.8555,-1.0111,-1.9988,-1.0111,-3.2238c0,-1.3349,0.3358,-3.1097,3.2398,-3.1097h0.0418c2.9132,0,3.2501,1.7747,3.2501,3.1097c0,1.2226,-0.3596,2.3639,-1.0142,3.2233c0.036,0.0441,0.1132,0.1142,0.2522,0.1701c2.748,1.0653,3.3111,3.1091,3.402,4.2325l0.0225,0.2788c0.0172,0.2128,-0.0564,0.4254,-0.202,0.5833c-0.1486,0.1611,-0.3606,0.2536,-0.5816,0.2536H0.7862zM10.5686,14.7619c-0.1227,-0.8373,-0.6362,-2.2005,-2.5947,-2.9587c-0.5165,-0.2065,-0.8939,-0.5891,-1.016,-1.026c-0.0974,-0.3487,-0.0317,-0.6993,0.185,-0.9873l0.0084,-0.0109c0.5151,-0.6499,0.7983,-1.545,0.7983,-2.5213c0,-1.2947,-0.2906,-1.8723,-2.0127,-1.8723h-0.0418c-1.7133,0,-2.0024,0.5776,-2.0024,1.8723c0,0.9768,0.2822,1.8721,0.7945,2.5211l0.0082,0.0107c0.2171,0.2895,0.2824,0.6401,0.1849,0.9887c-0.1221,0.4363,-0.4982,0.8185,-1.0061,1.0223l-0.0064,0.0025c-1.9504,0.7581,-2.4617,2.1215,-2.5838,2.959H10.5686z" fill="#6485C3"/>
  </g>
</svg>
