<?xml version="1.0" encoding="UTF-8"?>
<!DOCTYPE svg PUBLIC "-//W3C//DTD SVG 1.1//EN" "http://www.w3.org/Graphics/SVG/1.1/DTD/svg11.dtd">
<svg version="1.1" id="Layer_1" xmlns="http://www.w3.org/2000/svg" xmlns:xlink="http://www.w3.org/1999/xlink" x="0px" y="0px" width="16px" height="16px" viewBox="0 0 16 16" enable-background="new 0 0 16 16" xml:space="preserve">
  <g id="main">
    <g id="icon">
      <path d="M10.38,2.688L10.18,2.806L10.48,3.316L8.982,4.171L8.817,4.337L8.762,4.55L8.817,4.763L8.901,4.848L8.938,4.859L9.41,5.068L9.854,5.356L10.05,5.539L10.48,5.784L10.39,5.927L10.6,6.209L10.86,6.797L11.03,7.507L11.09,8.351L11.06,8.979L10.97,9.59L10.82,10.18L10.61,10.74L11.48,11.32L12.15,11.96L15.31,11.96L15.42,11.92L15.46,11.83L15.44,11.61L15.38,11.29L15.26,10.93L15.06,10.53L14.77,10.13L14.38,9.72L13.89,9.331L13.27,8.974L12.53,8.664L12.28,8.525L12.11,8.345L12.1,8.281L12.15,8.243L12.82,8.131L13.21,8.015L13.55,7.847L13.62,7.707L13.55,7.567L13.35,7.384L13.22,7.164L13.07,6.656L13.01,6.084L12.98,5.506L12.94,4.683L12.77,3.877L12.62,3.538L12.42,3.256L12.18,3.027L11.91,2.85L11.33,2.638L10.75,2.599zz" fill="#FFFFFF" opacity="0.5"/>
      <path d="M10.71,2.007L10.24,2.11L9.884,2.299L10.43,3.228L10.58,3.132L10.79,3.081L10.89,3.078L11.13,3.098L11.53,3.21L11.74,3.322L11.94,3.486L12.12,3.708L12.26,4L12.41,4.734L12.44,5.476L12.46,6.05L12.54,6.712L12.6,7.011L12.72,7.352L12.82,7.558L12.59,7.604L12.05,7.689L11.77,7.796L11.59,8.024L11.54,8.314L11.64,8.591L11.95,8.932L12.35,9.151L12.92,9.381L13.4,9.637L13.79,9.909L14.11,10.19L14.55,10.72L14.78,11.18L14.88,11.42L11.6,11.42L12.14,11.95L12.55,12.5L15.31,12.5L15.6,12.44L15.83,12.28L15.97,12.04L16,11.78L15.98,11.56L15.81,10.85L15.65,10.47L15.42,10.08L15.12,9.695L14.75,9.316L14.31,8.956L13.79,8.622L13.53,8.471L13.79,8.311L13.86,8.26L14.08,8.004L14.16,7.675L14.08,7.349L13.86,7.097L13.7,6.898L13.6,6.536L13.54,5.967L13.52,5.46L13.48,4.578L13.4,4.121L13.28,3.658L13.09,3.235L12.85,2.882L12.57,2.596L12.25,2.37L11.91,2.202L11.57,2.087L10.9,2zM8.982,4.171L8.817,4.337L8.762,4.55L8.817,4.763L8.907,4.854L8.99,4.879L8.991,4.775L9.038,4.355L9.117,4.094zz" fill="#9070B1"/>
      <path d="M8.568,9.057L7.053,8.191L6.828,8.133L6.617,8.193L6.461,8.346L6.4,8.57L6.4,10.2L5.263,10.2L5.305,10.31L5.677,10.89L5.767,11.14L5.703,11.4L5.503,11.64L5.188,11.82L4.469,12.16L3.892,12.56L3.442,12.99L3.105,13.43L2.863,13.88L2.703,14.32L2.562,15.07L2.543,15.31L2.581,15.41L2.688,15.46L11.68,15.46L11.79,15.41L11.83,15.31L11.81,15.07L11.67,14.32L11.51,13.88L11.27,13.43L10.93,12.99L10.48,12.56L9.896,12.16L9.173,11.82L8.857,11.64L8.657,11.4L8.592,11.14L8.683,10.89L9.056,10.31L9.309,9.669L9.453,9.008L9.498,8.351L9.476,7.874L9.426,7.586zz" fill="#FFFFFF" opacity="0.5"/>
      <path d="M8.953,8.398L8.911,8.976L8.776,9.561L8.557,10.09L8.258,10.56L8.251,10.57L8.133,10.77L8.066,10.98L8.051,11.2L8.089,11.43L8.209,11.71L8.404,11.96L8.663,12.17L8.978,12.33L9.563,12.6L10.04,12.91L10.42,13.25L10.72,13.6L10.93,13.95L11.09,14.3L11.25,14.92L3.124,14.92L3.282,14.3L3.436,13.95L3.654,13.6L3.947,13.25L4.326,12.91L4.802,12.6L5.385,12.33L5.39,12.33L5.7,12.16L5.957,11.95L6.15,11.71L6.271,11.43L6.308,11.2L6.293,10.98L6.226,10.77L6.109,10.57L6.102,10.56L5.873,10.2L4.7,10.2L4.681,10.2L4.83,10.57L5.208,11.17L4.99,11.32L4.177,11.71L3.526,12.15L3.018,12.64L2.637,13.15L2.364,13.67L2.182,14.16L2.074,14.62L2.022,15.02L2.003,15.27L2.038,15.54L2.18,15.78L2.41,15.94L2.688,16L11.68,16L11.96,15.94L12.19,15.78L12.33,15.54L12.37,15.27L12.35,15.02L12.3,14.62L12.19,14.16L12.01,13.67L11.73,13.15L11.35,12.64L10.84,12.15L10.19,11.71L9.372,11.32L9.152,11.17L9.532,10.56L9.81,9.88L9.981,9.137L10.04,8.351L10.02,7.898L9.953,7.433L9.811,6.977L9.797,6.951zz" fill="#6485C3"/>
    </g>
    <g id="overlay">
      <polygon points="3.8,9 3.8,5.7501 0.8689,7.425 0.1689,6.225 3.1,4.55 0.1689,2.875 0.8689,1.675 3.8,3.3499 3.8,0 5.2,0 5.2,3.3499 8.1311,1.675 8.8311,2.875 5.9,4.55 8.8311,6.225 8.1311,7.425 5.2,5.7501 5.2,9" fill="#EEAC55" stroke-linejoin="miter"/>
    </g>
  </g>
</svg>
