<?xml version="1.0" encoding="UTF-8"?>
<!DOCTYPE svg PUBLIC "-//W3C//DTD SVG 1.1//EN" "http://www.w3.org/Graphics/SVG/1.1/DTD/svg11.dtd">
<svg version="1.1" id="Layer_1" xmlns="http://www.w3.org/2000/svg" xmlns:xlink="http://www.w3.org/1999/xlink" x="0px" y="0px" width="16px" height="16px" viewBox="0 0 16 16" enable-background="new 0 0 16 16" xml:space="preserve">
  <g id="main">
    <g id="icon">
      <path d="M6.083,0.6379L5.375,0.7953L4.822,1.051L4.407,1.399L4.114,1.833L3.925,2.347L3.824,2.937L3.794,3.596L3.856,4.504L4.054,5.417L4.402,6.298L4.915,7.108L5.006,7.275L5.04,7.451L4.951,7.81L4.676,8.139L4.241,8.394L3.246,8.866L2.449,9.41L1.828,10L1.362,10.62L1.028,11.24L0.8064,11.84L0.6748,12.39L0.6119,12.88L0.5848,13.21L0.6379,13.36L0.7857,13.42L6.134,13.42L5.956,12.83L5.84,12.18L5.8,11.5L5.829,10.92L5.916,10.35L6.057,9.807L6.249,9.283L6.489,8.785L6.775,8.315L7.103,7.876L7.471,7.471L7.876,7.103L8.315,6.775L8.785,6.489L9.283,6.249L9.658,6.111L9.934,5.417L10.13,4.504L10.19,3.596L10.16,2.937L10.06,2.347L9.873,1.833L9.579,1.399L9.162,1.051L8.607,0.7953L7.896,0.6379L7.013,0.5842L6.963,0.5842zz" fill="#FFFFFF" opacity="0.5"/>
      <path d="M5.847,0.08672L5.381,0.1891L4.973,0.3271L4.619,0.4975L4.314,0.6971L3.839,1.171L3.521,1.723L3.329,2.328L3.235,2.961L3.21,3.596L3.292,4.679L3.531,5.701L3.92,6.636L4.452,7.462L4.454,7.494L4.324,7.672L4.026,7.852L2.932,8.372L2.055,8.974L1.371,9.631L0.8574,10.32L0.4902,11.01L0.2457,11.67L0.1002,12.29L0.03047,12.83L0.00332,13.17L0.04316,13.48L0.2047,13.75L0.468,13.93L0.7857,14L6.382,14L6.145,13.45L5.958,12.83L1.201,12.83L1.267,12.4L1.394,11.92L1.601,11.4L1.905,10.86L2.325,10.33L2.877,9.818L3.58,9.348L4.452,8.938L4.458,8.936L4.853,8.731L5.18,8.466L5.425,8.154L5.577,7.808L5.623,7.531L5.604,7.259L5.524,6.999L5.382,6.758L5.373,6.746L4.946,6.082L4.634,5.323L4.442,4.488L4.377,3.596L4.398,3.029L4.474,2.537L4.619,2.12L4.85,1.778L5.184,1.511L5.637,1.321L6.224,1.206L6.963,1.168L7.013,1.168L7.755,1.206L8.346,1.321L8.8,1.511L9.136,1.778L9.368,2.12L9.514,2.537L9.59,3.029L9.611,3.596L9.546,4.487L9.353,5.322L9.04,6.081L8.771,6.498L8.785,6.489L9.283,6.249L9.807,6.057L10.35,5.916L10.37,5.914L10.46,5.701L10.7,4.679L10.78,3.596L10.75,2.961L10.66,2.328L10.47,1.723L10.15,1.171L9.671,0.6971L9.365,0.4975L9.009,0.3271L8.6,0.1891L8.133,0.08672L7.013,0.0007812L6.963,0.0007812zz" fill="#6485C3"/>
    </g>
    <g id="overlay">
      <path d="M11.5,7c-2.4853,0,-4.5,2.0147,-4.5,4.5c0,2.4853,2.0147,4.5,4.5,4.5s4.5,-2.0147,4.5,-4.5C16,9.0147,13.9853,7,11.5,7zM12.2,15h-1.4v-1h1.4V15zM12.2,13h-1.4V8.5h1.4V13z" fill="#CB525D"/>
      <path d="M12.2,13h-1.4V8.5h1.4V13zM12.2,14h-1.4v1h1.4V14z" fill="#FFFFFF"/>
    </g>
  </g>
</svg>
