<?xml version="1.0" encoding="UTF-8"?>
<!DOCTYPE svg PUBLIC "-//W3C//DTD SVG 1.1//EN" "http://www.w3.org/Graphics/SVG/1.1/DTD/svg11.dtd">
<svg version="1.1" id="Layer_1" xmlns="http://www.w3.org/2000/svg" xmlns:xlink="http://www.w3.org/1999/xlink" x="0px" y="0px" width="16px" height="16px" viewBox="0 0 16 16" enable-background="new 0 0 16 16" xml:space="preserve">
  <g id="icon">
    <path d="M8,3.5039c2.4546,0,4.4444,2.013,4.4444,4.4961S10.4546,12.4961,8,12.4961c-2.4546,0,-4.4444,-2.013,-4.4444,-4.4961S5.5454,3.5039,8,3.5039z" fill="#EEAC55" opacity="0.5"/>
    <path d="M8,13.1928c-2.8319,0,-5.1358,-2.3295,-5.1358,-5.1928S5.1681,2.8072,8,2.8072S13.1358,5.1367,13.1358,8S10.8319,13.1928,8,13.1928zM8,4.4512c-1.933,0,-3.5056,1.592,-3.5056,3.5488S6.067,11.5488,8,11.5488S11.5056,9.9568,11.5056,8S9.933,4.4512,8,4.4512z" fill="#EEAC55"/>
    <path d="M9.0393,14.8201l0.0969,-0.0165c1.6077,-0.273,3.0691,-1.1274,4.1149,-2.4058l0.0633,-0.0774l0.9123,0.7637l-0.0617,0.0753c-1.2272,1.5002,-2.9433,2.5031,-4.8321,2.8239L9.2351,16L9.0393,14.8201zM6.6671,15.9834c-1.8959,-0.322,-3.6164,-1.3303,-4.8446,-2.8391l-0.0614,-0.0755l0.9141,-0.7615l0.0631,0.0775c1.0465,1.2856,2.5116,2.1446,4.1255,2.4187l0.0969,0.0165L6.7649,16L6.6671,15.9834zM14.3547,10.4987l0.0337,-0.0917c0.2829,-0.7694,0.4264,-1.5793,0.4264,-2.407c0,-0.8333,-0.1454,-1.6484,-0.4323,-2.4227l-0.034,-0.0916l1.1095,-0.4206l0.0346,0.0933C15.8293,6.0671,16,7.0232,16,8c0,0.9704,-0.1684,1.9203,-0.5004,2.8232l-0.0343,0.0933L14.3547,10.4987zM0.4935,10.8048C0.166,9.9075,0,8.9639,0,8c0,-0.9704,0.1684,-1.9203,0.5004,-2.8232l0.0343,-0.0933l1.1105,0.4178l-0.0337,0.0917c-0.2829,0.7694,-0.4264,1.5793,-0.4264,2.407c0,0.8222,0.1414,1.6268,0.4204,2.3912l0.0335,0.0918l-1.1115,0.4152L0.4935,10.8048zM1.7733,2.9158l0.0617,-0.0753C3.0623,1.3403,4.7783,0.3374,6.6671,0.0166L6.7649,0l0.1958,1.1799l-0.0969,0.0165c-1.6077,0.273,-3.0691,1.1274,-4.1149,2.4058l-0.0633,0.0774L1.7733,2.9158zM13.2404,3.5893c-1.045,-1.2711,-2.5026,-2.121,-4.1042,-2.3929l-0.0969,-0.0165L9.2351,0l0.0978,0.0166c1.8816,0.3197,3.5932,1.3171,4.8194,2.8087l0.0618,0.0752l-0.9104,0.766L13.2404,3.5893z" fill="#7B7B7B"/>
  </g>
</svg>
