<?xml version="1.0" encoding="UTF-8"?>
<!DOCTYPE svg PUBLIC "-//W3C//DTD SVG 1.1//EN" "http://www.w3.org/Graphics/SVG/1.1/DTD/svg11.dtd">
<svg version="1.1" id="Layer_1" xmlns="http://www.w3.org/2000/svg" xmlns:xlink="http://www.w3.org/1999/xlink" x="0px" y="0px" width="16px" height="16px" viewBox="0 0 16 16" enable-background="new 0 0 16 16" xml:space="preserve">
  <g id="main">
    <g id="icon">
      <path d="M1.5,2.588L1.547,2.5L1.5,2.5zM7.396,3.28L7.576,4.213L8.119,4.498L8.593,4.887L8.999,5.395L9.293,5.981L9.472,6.638L9.532,7.356L9.508,7.8L11.96,7.8L12.62,7.872L13.22,8.078L13.5,8.252L13.5,2.5L7.074,2.5zz" fill="#FFFFFF" opacity="0.4"/>
      <path d="M7.052,2.459L7.304,3L13,3L13,8.004L13.22,8.078L13.75,8.404L14,8.645L14,2L6.728,2zz" fill="#6D6E71"/>
      <path d="M4,1.012L4.318,1L5,1.055L5,0L4,0zM10,2L11,2L11,0L10,0zz" fill="#6D6E71"/>
      <path d="M7.576,4.213L8.119,4.498L8.593,4.887L9,5.396L9,5L11,5L11,6L9.3,6L9.441,6.482L9.518,7L11,7L11,7.8L11.96,7.8L12,7.804L12,4L7.549,4zz" fill="#B7B7B7"/>
      <path d="M1,3L1.318,3L1.645,2.338L2.05,1.836L2.51,1.474L3,1.23L3,0L1,0zM6,1.4L6.416,1.689L6.773,2.053L7.07,2.49L7.304,3L14,3L14,0L12,0L12,2L9,2L9,0L6,0zz" fill="#9070B1"/>
      <path d="M3.468,2.614L3.153,2.706L2.89,2.831L2.673,2.989L2.499,3.176L2.258,3.633L2.133,4.186L2.087,4.821L2.093,6.276L3.901,9.699L3.635,9.123L3.437,8.509L3.314,7.879L3.271,7.256L3.33,6.549L3.504,5.905L3.79,5.332L4.185,4.838L4.641,4.464L5.165,4.189L5.743,4.018L6.363,3.957L6.161,3.371L5.996,3.128L5.78,2.923L5.506,2.759L5.167,2.638L4.756,2.563L4.267,2.538zz" fill="#FFFFFF" opacity="0.5"/>
      <path d="M3.884,1.954L3.469,2.041L3.083,2.204L2.736,2.455L2.438,2.809L2.199,3.278L2.03,3.876L1.941,4.617L1.951,6.626L2.026,7.168L2.154,7.467L1.715,7.626L1.31,7.84L0.9484,8.1L0.6357,8.396L0.3801,8.719L0.1883,9.06L0.06797,9.409L0.02617,9.756L0.05918,10.04L0.1555,10.27L0.3102,10.46L0.5189,10.61L1.081,10.82L1.805,10.92L2.004,10.67L2.311,10.37L2.709,10.08L3.206,9.831L3.808,9.657L3.155,8.419L2.931,7.835L2.853,7.418L3.316,7.198L3.437,7.305L3.497,6.667L3.203,6.269L2.973,5.738L2.824,5.077L2.77,4.295L2.84,4.083L3.028,3.996L3.304,4.004L3.635,4.077L4.338,4.3L4.887,4.427L5.173,4.393L5.4,4.307L5.7,4.086L5.839,3.968L5.874,4.162L5.87,4.33L6.323,4.297L6.655,4.315L6.543,3.66L6.362,3.131L6.121,2.714L5.829,2.4L5.495,2.176L5.126,2.03L4.73,1.951L4.318,1.927zz" fill="#6485C3"/>
      <path d="M5.924,5.247L5.552,5.352L5.215,5.523L4.922,5.762L4.68,6.066L4.497,6.433L4.382,6.864L4.342,7.356L4.382,7.884L4.497,8.41L4.68,8.911L4.922,9.369L5.192,9.729L5.231,9.603L5.501,9.102L5.859,8.665L6.293,8.304L6.79,8.032L7.34,7.86L7.929,7.8L8.27,7.8L8.304,7.356L8.264,6.864L8.148,6.433L7.966,6.066L7.724,5.762L7.431,5.523L7.094,5.352L6.722,5.247L6.323,5.213zM4.691,10.19L4.876,10.7L5,10.92L5,10.75L5.06,10.16L5.125,9.946L5.11,9.932zz" fill="#FFFFFF" opacity="0.5"/>
      <path d="M5.862,4.944L5.433,5.067L5.046,5.267L4.711,5.54L4.421,5.906L4.211,6.335L4.083,6.82L4.04,7.356L4.083,7.921L4.206,8.489L4.404,9.036L4.668,9.537L5.03,10.01L5.088,10.06L5.231,9.603L5.334,9.412L5.144,9.142L4.937,8.729L4.779,8.28L4.679,7.816L4.644,7.356L4.675,6.955L4.765,6.595L4.886,6.778L5.093,6.904L5.382,6.975L5.748,6.998L6.208,6.942L6.536,6.82L6.858,6.697L7.296,6.641L7.735,6.719L7.959,6.887L8.002,7.356L7.968,7.8L8.573,7.8L8.606,7.356L8.563,6.82L8.436,6.335L8.226,5.906L7.936,5.54L7.6,5.267L7.213,5.067L6.784,4.944L6.323,4.902zM3.879,10.26L3.313,10.44L2.838,10.72L2.454,11.08L2.158,11.48L1.949,11.91L1.825,12.34L1.784,12.76L1.81,12.97L1.886,13.16L2.173,13.46L2.62,13.68L3.2,13.82L3.885,13.91L4.651,13.95L5,13.96L5,10.92L4.815,10.57L4.691,10.2L4.54,10.19zz" fill="#6485C3"/>
    </g>
    <g id="overlay">
      <path d="M13.1176,11.6347l2.3059,-1.4681v4.6667l-2.3059,-1.4681M13.1176,13.4167v-1.8333c0,-1.3712,-0.6288,-2,-2,-2H8.7765c-1.3712,0,-2,0.6288,-2,2v1.8333c0,1.3712,0.6288,2,2,2h2.3412C12.4889,15.4167,13.1176,14.7879,13.1176,13.4167z" fill="#FFFFFF" opacity="0.5"/>
      <path d="M7.9294,16C6.9758,16,6.2,15.2149,6.2,14.25v-3.5C6.2,9.7851,6.9758,9,7.9294,9h4.0353c0.8981,0,1.6385,0.6964,1.7216,1.5835l1.7356,-1.105c0.0604,-0.0385,0.1298,-0.0588,0.2006,-0.0588c0.2081,0,0.3774,0.1713,0.3774,0.3818v5.397c0,0.1054,-0.0413,0.2033,-0.1164,0.2758c-0.0707,0.0684,-0.1634,0.106,-0.261,0.106c0,0,0,0,0,0c-0.0708,0,-0.1402,-0.0203,-0.2006,-0.0587l-1.7357,-1.1051c-0.0832,0.8871,-0.8236,1.5835,-1.7216,1.5835H7.9294zM7.8294,10.0667c-0.3179,0,-0.5765,0.2617,-0.5765,0.5833v3.7c0,0.3217,0.2586,0.5833,0.5765,0.5833h4.2353c0.3179,0,0.5765,-0.2617,0.5765,-0.5833v-3.7c0,-0.3217,-0.2586,-0.5833,-0.5765,-0.5833H7.8294zM14.8471,13.7771v-2.5542l-1.6429,0.944v0.6662L14.8471,13.7771z" fill="#9070B1"/>
    </g>
  </g>
</svg>
