<?xml version="1.0" encoding="UTF-8"?>
<!DOCTYPE svg PUBLIC "-//W3C//DTD SVG 1.1//EN" "http://www.w3.org/Graphics/SVG/1.1/DTD/svg11.dtd">
<svg version="1.1" id="Layer_1" xmlns="http://www.w3.org/2000/svg" xmlns:xlink="http://www.w3.org/1999/xlink" x="0px" y="0px" width="16px" height="16px" viewBox="0 0 16 16" enable-background="new 0 0 16 16" xml:space="preserve">
  <g id="main">
    <g id="icon">
      <path d="M6.284,0.03613L5.589,0.1422L4.918,0.3146L4.275,0.55L3.663,0.8449L3.086,1.196L2.547,1.598L2.05,2.05L1.598,2.547L1.196,3.086L0.8449,3.663L0.55,4.275L0.3146,4.918L0.1422,5.589L0.03613,6.284L0,7L0.03613,7.716L0.1422,8.411L0.3146,9.082L0.55,9.725L0.8449,10.34L1.196,10.91L1.598,11.45L2.05,11.95L2.547,12.4L3.086,12.8L3.663,13.16L4.275,13.45L4.918,13.69L5.589,13.86L6.284,13.96L6.456,13.97L10.14,6.646L10.38,6.293L10.7,6.027L11.08,5.859L11.5,5.8L11.92,5.859L12.3,6.027L12.62,6.293L12.86,6.646L13.82,8.555L13.86,8.411L13.96,7.716L14,7L13.96,6.284L13.86,5.589L13.69,4.918L13.45,4.275L13.16,3.663L12.8,3.086L12.4,2.547L11.95,2.05L11.45,1.598L10.91,1.196L10.34,0.8449L9.725,0.55L9.082,0.3146L8.411,0.1422L7.716,0.03613L7,0zM11.68,4.994L5.688,10.99L2.32,7.619L3.681,6.257L5.688,8.264L10.32,3.632zz" fill="#52B250"/>
      <path d="M5.688,8.264L3.681,6.257L2.32,7.619L5.688,10.99L11.68,4.994L10.32,3.632zz" fill="#FFFFFF"/>
    </g>
    <g id="overlay">
      <path d="M15.9604,15.4826l-4.1718,-8.298c-0.1237,-0.2461,-0.4533,-0.2461,-0.5771,0l-4.1718,8.298c-0.1176,0.2338,0.0406,0.5174,0.2885,0.5174h8.3437C15.9198,16,16.0779,15.7164,15.9604,15.4826zM12.2,15h-1.4v-1h1.4V15zM12.2,13h-1.4V9.5h1.4V13z" fill="#EEAC55"/>
      <path d="M12.2,13h-1.4V9.5h1.4V13zM12.2,14h-1.4v1h1.4V14z" fill="#4F4F51"/>
    </g>
  </g>
</svg>
