<?xml version="1.0" encoding="UTF-8"?>
<!DOCTYPE svg PUBLIC "-//W3C//DTD SVG 1.1//EN" "http://www.w3.org/Graphics/SVG/1.1/DTD/svg11.dtd">
<svg version="1.1" id="Layer_1" xmlns="http://www.w3.org/2000/svg" xmlns:xlink="http://www.w3.org/1999/xlink" x="0px" y="0px" width="24px" height="24px" viewBox="0 0 24 24" enable-background="new 0 0 24 24" xml:space="preserve">
  <g id="icon">
    <path d="M4.1,11h16.1l-0.1,12.1H4L4.1,11z" fill="#FFFFFF" opacity="0.5"/>
    <path d="M12,0.05c-2.2783,0,-4.3067,1.2954,-5.3188,3.1856l1.8438,0.7475C9.2327,2.8074,10.5475,2.0137,12,2.0137c2.1629,0,4.0226,1.7586,4.0226,3.9202V10.9H18V5.9339C18,2.6895,15.2533,0.05,12,0.05z" fill="#7B7B7B"/>
    <path d="M3,24V10h18v14H3zM19,22V12H5v10H19zM11,20v-3h2v3H11z" fill="#B7B7B7"/>
  </g>
</svg>
