<?xml version="1.0" encoding="UTF-8"?>
<!DOCTYPE svg PUBLIC "-//W3C//DTD SVG 1.1//EN" "http://www.w3.org/Graphics/SVG/1.1/DTD/svg11.dtd">
<svg version="1.1" id="Layer_1" xmlns="http://www.w3.org/2000/svg" xmlns:xlink="http://www.w3.org/1999/xlink" x="0px" y="0px" width="16px" height="16px" viewBox="0 0 16 16" enable-background="new 0 0 16 16" xml:space="preserve">
  <g id="main">
    <g id="icon">
      <path d="M4.984,1.247L3.64,1.886L2.881,2.168L2.084,2.403L1.262,2.576L0.4289,2.671L0.4928,3.908L0.6623,5.436L0.9338,6.936L1.318,8.294L1.805,9.479L2.383,10.46L3.251,11.56L4.13,12.42L4.581,12.77L5.043,13.06L5.517,13.3L6.006,13.48L6.137,13.43L5.956,12.83L5.84,12.18L5.8,11.5L5.829,10.92L5.916,10.35L6.057,9.807L6.249,9.283L6.489,8.785L6.775,8.315L7.103,7.876L7.471,7.471L7.876,7.103L8.315,6.775L8.785,6.489L9.283,6.249L9.807,6.057L10.35,5.916L10.92,5.829L11.27,5.812L11.34,5.436L11.51,3.908L11.57,2.671L10.74,2.576L9.918,2.403L9.123,2.168L8.367,1.886L7.026,1.247L6.006,0.6125zz" fill="#FFFFFF" opacity="0.5"/>
      <path d="M5.714,0.2113L4.818,0.7779L3.574,1.388L2.855,1.665L2.091,1.899L1.293,2.073L0.4771,2.168L0.006055,2.197L0.0003906,2.684L0.07031,4.024L0.2352,5.516L0.5152,7.073L0.9141,8.488L1.421,9.727L2.024,10.76L2.954,11.94L3.892,12.86L4.369,13.22L4.855,13.52L5.352,13.77L5.861,13.96L6.006,14L6.152,13.96L6.333,13.89L6.145,13.45L5.975,12.89L5.198,12.52L4.411,11.94L3.63,11.15L2.844,10.14L2.307,9.218L1.854,8.096L1.495,6.804L1.24,5.373L1.026,3.168L1.738,3.051L2.442,2.882L3.789,2.422L5,1.86L6.006,1.269L7.011,1.86L8.22,2.422L9.563,2.882L10.26,3.051L10.97,3.168L10.76,5.373L10.67,5.867L10.92,5.829L11.5,5.8L11.71,5.812L11.76,5.516L11.93,4.024L12,2.684L11.99,2.197L11.52,2.168L10.71,2.073L9.916,1.899L9.153,1.665L8.436,1.388L7.194,0.7781L6.298,0.2113L6.006,0zz" fill="#CB525D"/>
    </g>
    <g id="overlay">
      <path d="M14.682,8.318c-1.7574,-1.7574,-4.6066,-1.7574,-6.364,0c-1.7574,1.7574,-1.7574,4.6066,0,6.364c1.7574,1.7574,4.6066,1.7574,6.364,0S16.4393,10.0754,14.682,8.318zM14.6,12.2H8.4v-1.4h6.2V12.2z" fill="#CB525D"/>
      <path d="M14.6,12.2H8.4v-1.4h6.2V12.2z" fill="#FFFFFF"/>
    </g>
  </g>
</svg>
