<?xml version="1.0" encoding="UTF-8"?>
<!DOCTYPE svg PUBLIC "-//W3C//DTD SVG 1.1//EN" "http://www.w3.org/Graphics/SVG/1.1/DTD/svg11.dtd">
<svg version="1.1" id="Layer_1" xmlns="http://www.w3.org/2000/svg" xmlns:xlink="http://www.w3.org/1999/xlink" x="0px" y="0px" width="24px" height="24px" viewBox="0 0 24 24" enable-background="new 0 0 24 24" xml:space="preserve">
  <g id="main">
    <g id="icon">
      <path d="M0.9492,5.903L0.9492,7.591L0.9752,7.98L1.051,8.349L1.173,8.695L1.34,9.011L1.548,9.294L1.794,9.538L2.076,9.738L2.39,9.891L2.39,16L7.713,16L7.532,15.67L7.45,15.3L7.473,14.92L7.608,14.54L7.752,14.28L7.386,13.64L7.16,13.64L6.887,13.61L6.631,13.53L6.4,13.41L6.199,13.24L6.033,13.04L5.907,12.81L5.828,12.55L5.8,12.28L5.8,11.02L5.828,10.75L5.907,10.49L6.033,10.26L6.199,10.06L6.4,9.89L6.631,9.764L6.887,9.685L7.16,9.657L7.386,9.657L7.745,9.03L7.618,8.798L7.51,8.547L7.455,8.288L7.495,7.776L7.722,7.316L7.901,7.122L8.122,6.962L9.193,6.334L9.524,6.195L9.88,6.147L10.24,6.196L10.57,6.337L10.85,6.558L11.07,6.852L11.18,7.047L11.5,7.035L11.84,7.048L11.97,6.825L12.19,6.542L12.47,6.328L12.79,6.193L13.15,6.145L13.5,6.193L13.84,6.332L14.91,6.961L15.17,7.16L15.37,7.409L15.5,7.693L15.57,8L16,8L16,1.031L14.47,1.031L14.04,1.031L11.99,1.031L10.02,1.031L7.895,1.031L7.456,1.031L5.994,1.031zM8.995,5.881L8.992,5.903L8.992,5.881zM13.01,5.881L13.01,5.903L13.01,5.881zM5.061,8.314L5.314,8.953L4.627,8.953L4.88,8.314L4.97,7.591zz" fill="#FFFFFF" opacity="0.5"/>
      <path d="M7.428,2L14.48,2L14.03,0L7.886,0zM1,16L3,16L3,10L1,9zM5,16L6,16L6,15L7.468,15L7.473,14.92L7.608,14.54L7.752,14.28L7.593,14L5,14zz" fill="#7B7B7B"/>
      <path d="M4.587,7.2L4.634,7.8L4.771,8.363L4.989,8.875L5.28,9.323L5.636,9.694L6.05,9.975L6.219,10.04L6.4,9.89L6.631,9.764L6.887,9.685L7.16,9.657L7.386,9.657L7.745,9.03L7.67,8.894L7.603,8.94L7.32,9.052L7.015,9.09L6.711,9.052L6.427,8.94L6.171,8.763L5.946,8.53L5.762,8.247L5.622,7.922L5.534,7.563L5.503,7.179L5.503,6L8.528,6L8.528,6.724L9.193,6.334L9.524,6.195L9.536,6.193L9.536,5L4.587,5zM12.47,6.328L12.47,6.328L12.79,6.193L13.15,6.145L13.48,6.189L13.48,6L16,6L16,5L12.47,5zz" fill="#7B7B7B"/>
      <path d="M0.05,4.813L0.05,7.291L0.1195,7.88L0.3146,8.428L0.6143,8.925L0.998,9.358L1.445,9.715L1.935,9.985L2.447,10.16L2.96,10.22L3.457,10.16L3.928,10L4.359,9.75L4.738,9.412L5.055,8.999L5.296,8.52L5.449,7.984L5.503,7.4L5.503,5.4L8.803,0L5.32,0zM8.551,5.553L8.551,6.711L9.193,6.334L9.524,6.195L9.536,6.193L9.536,6L12.47,6L12.47,6.328L12.47,6.328L12.79,6.193L13.15,6.145L13.45,6.186L13.45,5.562L12.29,0L9.719,0zM16,4.517L16,3.122L15.15,2L16,2L16,0L13.11,0zM6.695,2L4.719,5L2.261,5L5.727,2zM11.81,2L12.38,5L9.62,5L10.29,2zM4.587,6L4.587,7.2L4.552,7.59L4.454,7.946L4.3,8.262L4.098,8.532L3.855,8.752L3.579,8.915L3.278,9.018L2.96,9.053L2.663,9.022L2.419,8.931L2.224,8.783L2.074,8.582L1.964,8.33L1.891,8.03L1.837,7.3L1.837,6zz" fill="#CB525D"/>
    </g>
    <g id="overlay">
      <path d="M12.4597,14.9205c-0.3104,0.0938,-0.633,0.1414,-0.9597,0.1414s-0.6493,-0.0476,-0.9597,-0.1414l-0.5211,0.9748c-0.0431,0.0806,-0.1427,0.1092,-0.2207,0.0635l-1.0714,-0.6284c-0.0756,-0.0443,-0.1026,-0.1421,-0.0608,-0.2202l0.525,-0.9821c-0.478,-0.4593,-0.8088,-1.041,-0.9599,-1.6879H7.1603c-0.0886,0,-0.1603,-0.0732,-0.1603,-0.1636v-1.256c0,-0.0904,0.0718,-0.1636,0.1603,-0.1636h1.0711c0.1511,-0.6469,0.4819,-1.2286,0.9599,-1.6879l-0.5224,-0.9497c-0.043,-0.0782,-0.0163,-0.1772,0.0599,-0.2219l1.0714,-0.6285c0.0773,-0.0454,0.1761,-0.0176,0.2197,0.0618l0.5203,0.9459c0.3104,-0.0938,0.633,-0.1414,0.9597,-0.1414s0.6493,0.0476,0.9597,0.1414l0.5501,-0.9507c0.0447,-0.0772,0.1419,-0.1033,0.218,-0.0587l1.0714,0.6285c0.0774,0.0454,0.1035,0.1465,0.0582,0.225l-0.5487,0.9484c0.478,0.4593,0.8088,1.041,0.9599,1.6879h1.0712c0.0886,0,0.1603,0.0732,0.1603,0.1636v1.256c0,0.0904,-0.0718,0.1636,-0.1603,0.1636h-1.0712c-0.1511,0.6469,-0.4818,1.2286,-0.9599,1.6879l0.5514,0.9808c0.044,0.0783,0.0176,0.1782,-0.0592,0.2232l-1.0714,0.6285c-0.0768,0.0451,-0.1749,0.018,-0.219,-0.0604L12.4597,14.9205zM11.5001,9.9651c-0.9098,0,-1.6499,0.7552,-1.6499,1.6835s0.7402,1.6835,1.6499,1.6835s1.6499,-0.7552,1.6499,-1.6835S12.4098,9.9651,11.5001,9.9651z" fill="#7B7B7B"/>
    </g>
  </g>
</svg>
