<?xml version="1.0" encoding="UTF-8"?>
<!DOCTYPE svg PUBLIC "-//W3C//DTD SVG 1.1//EN" "http://www.w3.org/Graphics/SVG/1.1/DTD/svg11.dtd">
<svg version="1.1" id="Layer_1" xmlns="http://www.w3.org/2000/svg" xmlns:xlink="http://www.w3.org/1999/xlink" x="0px" y="0px" width="16px" height="16px" viewBox="0 0 16 16" enable-background="new 0 0 16 16" xml:space="preserve">
  <g id="icon">
    <path d="M2.5,0h11v8.5H2.5V0zM13,10H4v5h9V10z" fill="#FFFFFF" opacity="0.5"/>
    <path d="M12,2H4v1h8V2zM12,4H4v1h8V4z" fill="#CB525D"/>
    <rect x="5" y="11" width="2" height="3" fill="#6D6E71"/>
    <path d="M13,0v1v7H3V1V0H0v12.9913L3.0598,16H4h8h4V0H13zM2,3H1V2h1V3zM13,15H4v-5h9V15z" fill="#9171B2"/>
  </g>
</svg>
