<?xml version="1.0" encoding="UTF-8"?>
<!DOCTYPE svg PUBLIC "-//W3C//DTD SVG 1.1//EN" "http://www.w3.org/Graphics/SVG/1.1/DTD/svg11.dtd">
<svg version="1.1" id="Layer_1" xmlns="http://www.w3.org/2000/svg" xmlns:xlink="http://www.w3.org/1999/xlink" x="0px" y="0px" width="16px" height="16px" viewBox="0 0 16 16" enable-background="new 0 0 16 16" xml:space="preserve">
  <g id="main">
    <g id="icon">
      <path d="M2.5,6.5L8.767,6.5L8.785,6.489L9.283,6.249L9.807,6.057L10.35,5.916L10.92,5.829L11.5,5.8L11.5,0L2.5,0zM4,13L6.008,13L5.956,12.83L5.84,12.18L5.8,11.5L5.829,10.92L5.916,10.35L6.057,9.807L6.249,9.283L6.489,8.785L6.775,8.315L7.011,8L4,8zz" fill="#FFFFFF" opacity="0.5"/>
      <path d="M4,2L10,2L10,1L4,1zM4,4L10,4L10,3L4,3zz" fill="#CB525D"/>
      <path d="M5,12L5.829,12L5.8,11.5L5.829,10.92L5.916,10.35L6.057,9.807L6.249,9.283L6.385,9L5,9zz" fill="#6D6E71"/>
      <path d="M0,10.99L3.06,14L4,14L6.382,14L6.145,13.45L6.008,13L4,13L4,8L7.011,8L7.103,7.876L7.471,7.471L7.876,7.103L8.315,6.775L8.785,6.489L9.283,6.249L9.807,6.057L10.03,6L3,6L3,1L3,0L0,0zM11,1L11,5.825L11.5,5.8L12.18,5.84L12.83,5.956L13.45,6.145L14,6.382L14,0L11,0zM2,1L2,2L1,2L1,1zz" fill="#9171B2"/>
    </g>
    <g id="overlay">
      <path d="M11.5,7c-2.4853,0,-4.5,2.0147,-4.5,4.5c0,2.4853,2.0147,4.5,4.5,4.5s4.5,-2.0147,4.5,-4.5C16,9.0147,13.9853,7,11.5,7zM14.6,12.2h-2.4v2.4h-1.4v-2.4H8.4v-1.4h2.4V8.4h1.4v2.4h2.4V12.2z" fill="#52B250"/>
      <polygon points="10.8,14.6 10.8,12.2 8.4,12.2 8.4,10.8 10.8,10.8 10.8,8.4 12.2,8.4 12.2,10.8 14.6,10.8 14.6,12.2 12.2,12.2 12.2,14.6" fill="#FFFFFF" stroke-linejoin="miter"/>
    </g>
  </g>
</svg>
