<?xml version="1.0" encoding="UTF-8"?>
<!DOCTYPE svg PUBLIC "-//W3C//DTD SVG 1.1//EN" "http://www.w3.org/Graphics/SVG/1.1/DTD/svg11.dtd">
<svg version="1.1" id="Layer_1" xmlns="http://www.w3.org/2000/svg" xmlns:xlink="http://www.w3.org/1999/xlink" x="0px" y="0px" width="16px" height="16px" viewBox="0 0 16 16" enable-background="new 0 0 16 16" xml:space="preserve">
  <g id="icon">
    <path d="M8,0C3.5817,0,0,3.5817,0,8c0,4.4183,3.5817,8,8,8s8,-3.5817,8,-8C16,3.5817,12.4183,0,8,0zM8.1495,13.2571c-1.41,0,-2.7727,-0.5663,-3.7589,-1.4982V13.3h-1.8V8.3h4.7v1.8H5.3053c0.6538,0.8211,1.7412,1.3571,2.8441,1.3571c1.3769,0,2.6257,-0.8661,3.1075,-2.1553l1.6861,0.6302C12.1997,11.9208,10.2733,13.2571,8.1495,13.2571zM13.4,7.7H8.7V5.9h1.9852c-0.6538,-0.8211,-1.7412,-1.3571,-2.8441,-1.3571c-1.3769,0,-2.6256,0.8662,-3.1075,2.1553l-1.686,-0.6302c0.7434,-1.9889,2.6697,-3.3251,4.7936,-3.3251c1.41,0,2.7727,0.5663,3.7589,1.4982V2.7h1.8V7.7z" fill="#6485C3"/>
    <path d="M4.3905,13.3h-1.8V8.3h4.7v1.8H5.3053c0.6538,0.8211,1.7412,1.3571,2.8441,1.3571c1.3769,0,2.6257,-0.8661,3.1075,-2.1553l1.6861,0.6302c-0.7434,1.9888,-2.6697,3.3251,-4.7936,3.3251c-1.41,0,-2.7727,-0.5663,-3.7589,-1.4982V13.3zM13.4,2.7h-1.8v1.5411c-0.9862,-0.932,-2.3489,-1.4982,-3.7589,-1.4982c-2.1238,0,-4.0502,1.3362,-4.7936,3.3251l1.686,0.6302c0.4819,-1.2891,1.7307,-2.1553,3.1075,-2.1553c1.1029,0,2.1904,0.536,2.8441,1.3571H8.7v1.8h4.7V2.7z" fill="#FFFFFF"/>
  </g>
</svg>
