<?xml version="1.0" encoding="UTF-8"?>
<!DOCTYPE svg PUBLIC "-//W3C//DTD SVG 1.1//EN" "http://www.w3.org/Graphics/SVG/1.1/DTD/svg11.dtd">
<svg version="1.1" id="Layer_1" xmlns="http://www.w3.org/2000/svg" xmlns:xlink="http://www.w3.org/1999/xlink" x="0px" y="0px" width="24px" height="24px" viewBox="0 0 24 24" enable-background="new 0 0 24 24" xml:space="preserve">
  <g id="icon">
    <path d="M1.3,12C1.3,6.0906,6.0906,1.3,12,1.3s10.7,4.7906,10.7,10.7s-4.7906,10.7,-10.7,10.7S1.3,17.9094,1.3,12zM5.4726,20.4781M18.5805,20.4374" fill="#FFFFFF" opacity="0.5"/>
    <path d="M12,24C5.3832,24,0,18.6168,0,12S5.3832,0,12,0s12,5.3832,12,12S18.6168,24,12,24zM12,2.1421c-5.4357,0,-9.8579,4.4222,-9.8579,9.8579S6.5643,21.8579,12,21.8579s9.8579,-4.4222,9.8579,-9.8579S17.4357,2.1421,12,2.1421z" fill="#EEAC55"/>
    <polygon points="11,12.9659 11,3.5 13,3.5 13,12.1104 18.2159,16.6398 16.8542,18.1606" fill="#EEAC55" stroke-linejoin="miter"/>
  </g>
</svg>
