<?xml version="1.0" encoding="UTF-8"?>
<!DOCTYPE svg PUBLIC "-//W3C//DTD SVG 1.1//EN" "http://www.w3.org/Graphics/SVG/1.1/DTD/svg11.dtd">
<svg version="1.1" id="Layer_1" xmlns="http://www.w3.org/2000/svg" xmlns:xlink="http://www.w3.org/1999/xlink" x="0px" y="0px" width="16px" height="16px" viewBox="0 0 16 16" enable-background="new 0 0 16 16" xml:space="preserve">
  <g id="icon">
    <path d="M14.8822,0.9015H9.4285L1,9.1088l5.8381,5.789L15.2,6.6248l-0.1,-5.5076C15.1,0.9983,15.0023,0.9015,14.8822,0.9015zM12.3607,5.0463c-0.7413,0,-1.3422,-0.6113,-1.3422,-1.3654s0.6009,-1.3655,1.3422,-1.3655s1.3422,0.6113,1.3422,1.3655S13.102,5.0463,12.3607,5.0463z" fill="#FFFFFF" opacity="0.5"/>
    <path d="M0,9.1577L9.1217,0h5.4222C15.3468,0,16,0.652,16,1.4534v5.4137L6.8516,16L0,9.1577zM1.629,9.1591l5.2195,5.2124l8.0003,-7.9774V1.4534c0,-0.1679,-0.1368,-0.3044,-0.3049,-0.3044H9.5976L1.629,9.1591z" fill="#6485C3"/>
    <path d="M12.3342,5.4265c-0.9739,0,-1.7663,-0.7916,-1.7663,-1.7645c0,-0.973,0.7923,-1.7646,1.7663,-1.7646s1.7663,0.7916,1.7663,1.7646C14.1005,4.6349,13.3082,5.4265,12.3342,5.4265zM12.3342,2.8298c-0.4594,0,-0.8331,0.3733,-0.8331,0.8321s0.3737,0.8321,0.8331,0.8321s0.8331,-0.3733,0.8331,-0.8321S12.7936,2.8298,12.3342,2.8298z" fill="#6485C3"/>
  </g>
</svg>
