<?xml version="1.0" encoding="UTF-8"?>
<!DOCTYPE svg PUBLIC "-//W3C//DTD SVG 1.1//EN" "http://www.w3.org/Graphics/SVG/1.1/DTD/svg11.dtd">
<svg version="1.1" id="Layer_1" xmlns="http://www.w3.org/2000/svg" xmlns:xlink="http://www.w3.org/1999/xlink" x="0px" y="0px" width="16px" height="16px" viewBox="0 0 16 16" enable-background="new 0 0 16 16" xml:space="preserve">
  <g id="icon">
    <rect x="3.5" y="0.5" width="8" height="15" fill="#FFFFFF" opacity="0.5"/>
    <path d="M11.6104,16H3.3896c-0.2152,0,-0.3896,-0.1744,-0.3896,-0.3896V0.3896C3,0.1744,3.1744,0,3.3896,0h8.2208C11.8256,0,12,0.1744,12,0.3896v15.2208C12,15.8256,11.8256,16,11.6104,16zM4,15h7V1H4V15z" fill="#6D6E71"/>
    <path d="M7.5042,10.075c-1.158,0,-2.1,-0.942,-2.1,-2.1s0.942,-2.1,2.1,-2.1s2.1,0.942,2.1,2.1S8.6621,10.075,7.5042,10.075z" fill="#EEAC55"/>
    <path d="M7.5042,10.5c-1.1028,0,-2,0.8972,-2,2s0.8972,2,2,2s2,-0.8972,2,-2S8.6069,10.5,7.5042,10.5zM7.5042,13.5c-0.5514,0,-1,-0.4486,-1,-1s0.4486,-1,1,-1s1,0.4486,1,1S8.0556,13.5,7.5042,13.5z" fill="#B7B7B7"/>
    <path d="M7.5042,1.525c-1.1028,0,-2,0.8972,-2,2s0.8972,2,2,2s2,-0.8972,2,-2S8.6069,1.525,7.5042,1.525zM7.5042,4.525c-0.5514,0,-1,-0.4486,-1,-1s0.4486,-1,1,-1s1,0.4486,1,1S8.0556,4.525,7.5042,4.525z" fill="#B7B7B7"/>
  </g>
</svg>
