<?xml version="1.0" encoding="UTF-8"?>
<!DOCTYPE svg PUBLIC "-//W3C//DTD SVG 1.1//EN" "http://www.w3.org/Graphics/SVG/1.1/DTD/svg11.dtd">
<svg version="1.1" id="Layer_1" xmlns="http://www.w3.org/2000/svg" xmlns:xlink="http://www.w3.org/1999/xlink" x="0px" y="0px" width="16px" height="16px" viewBox="0 0 16 16" enable-background="new 0 0 16 16" xml:space="preserve">
  <g id="icon">
    <rect x="3.5" y="0.5" width="8" height="15" fill="#FFFFFF" opacity="0.5"/>
    <path d="M12,0.3896v15.2208c0,0.2152,-0.1744,0.3896,-0.3896,0.3896H3.3896c-0.2152,0,-0.3896,-0.1744,-0.3896,-0.3896V0.3896C3,0.1744,3.1744,0,3.3896,0h8.2208C11.8256,0,12,0.1744,12,0.3896zM4,15h7V1H4V15z" fill="#6D6E71"/>
    <path d="M7.5042,1.425c-1.158,0,-2.1,0.942,-2.1,2.1s0.942,2.1,2.1,2.1s2.1,-0.942,2.1,-2.1S8.6621,1.425,7.5042,1.425z" fill="#CB525D"/>
    <path d="M9.5042,8c0,-1.1028,-0.8972,-2,-2,-2s-2,0.8972,-2,2s0.8972,2,2,2S9.5042,9.1028,9.5042,8zM8.5042,8c0,0.5514,-0.4486,1,-1,1s-1,-0.4486,-1,-1s0.4486,-1,1,-1S8.5042,7.4486,8.5042,8z" fill="#B7B7B7"/>
    <path d="M9.5042,12.475c0,-1.1028,-0.8972,-2,-2,-2s-2,0.8972,-2,2s0.8972,2,2,2S9.5042,13.5778,9.5042,12.475zM8.5042,12.475c0,0.5514,-0.4486,1,-1,1s-1,-0.4486,-1,-1s0.4486,-1,1,-1S8.5042,11.9236,8.5042,12.475z" fill="#B7B7B7"/>
  </g>
</svg>
