<?xml version="1.0" encoding="UTF-8"?>
<!DOCTYPE svg PUBLIC "-//W3C//DTD SVG 1.1//EN" "http://www.w3.org/Graphics/SVG/1.1/DTD/svg11.dtd">
<svg version="1.1" id="Layer_1" xmlns="http://www.w3.org/2000/svg" xmlns:xlink="http://www.w3.org/1999/xlink" x="0px" y="0px" width="16px" height="16px" viewBox="0 0 16 16" enable-background="new 0 0 16 16" xml:space="preserve">
  <g id="icon">
    <path d="M11.5,7.0167L15.5,4.5v8l-4,-2.5167M11.5,11.5V5.5c0,-1.1046,-0.8954,-2,-2,-2H2.5C1.3954,3.5,0.5,4.3954,0.5,5.5v6c0,1.1046,0.8954,2,2,2h7C10.6046,13.5,11.5,12.6046,11.5,11.5z" fill="#FFFFFF" opacity="0.5"/>
    <path d="M15.7636,3.7434L12,6.1114V5.5c0,-1.3785,-1.1215,-2.5,-2.5,-2.5H2.5C1.1215,3,0,4.1215,0,5.5v6c0,1.3785,1.1215,2.5,2.5,2.5h7c1.3785,0,2.5,-1.1215,2.5,-2.5v-0.6114l3.7636,2.3679c0.1027,0.0646,0.2364,-0.0092,0.2364,-0.1306V3.874C16,3.7526,15.8663,3.6788,15.7636,3.7434zM11,11.5c0,0.8271,-0.6729,1.5,-1.5,1.5H2.5c-0.8271,0,-1.5,-0.6729,-1.5,-1.5V5.5c0,-0.8271,0.6729,-1.5,1.5,-1.5h7c0.8271,0,1.5,0.6729,1.5,1.5V11.5zM15,11.5947l-3,-1.8875V7.2928l3,-1.8875V11.5947z" fill="#6D6E71"/>
  </g>
</svg>
