<?xml version="1.0" encoding="UTF-8"?>
<!DOCTYPE svg PUBLIC "-//W3C//DTD SVG 1.1//EN" "http://www.w3.org/Graphics/SVG/1.1/DTD/svg11.dtd">
<svg version="1.1" id="Layer_1" xmlns="http://www.w3.org/2000/svg" xmlns:xlink="http://www.w3.org/1999/xlink" x="0px" y="0px" width="16px" height="16px" viewBox="0 0 16 16" enable-background="new 0 0 16 16" xml:space="preserve">
  <g id="icon">
    <path d="M5.5,11.5v2.5042l1.0845,1.202c0.4618,0.4075,1.2106,0.4075,1.6725,0L9.5,14.0042V11.5" fill="#FFFFFF" opacity="0.5"/>
    <path d="M7.4207,16.0142c-0.4199,0,-0.8398,-0.1443,-1.167,-0.433l-0.0405,-0.04L5,14.1965V11.5h1v2.312l0.9339,1.0352c0.2735,0.2238,0.7163,0.2205,0.9848,-0.0094L9,13.7922V11.5h1v2.7163l-1.4123,1.3648C8.2605,15.8699,7.8406,16.0142,7.4207,16.0142z" fill="#6E6F72"/>
    <rect x="5.6" y="13.5" width="3.9" height="1" fill="#6E6F72"/>
    <path d="M7.4741,0.5C5.0036,0.5,3,2.5133,3,5.1194c0,1.4922,0.9993,2.6397,0.9993,2.6397c0.3762,0.4911,0.7375,1.6248,0.7375,2.2573v0.3655c0,0.6319,0.6461,1.118,1.2453,1.118h2.9506c0.5986,0,1.2984,-0.4861,1.2984,-1.118v-0.2987c0,-0.6307,0.3146,-1.7583,0.7001,-2.2426c0,0,1.0689,-1.188,1.0689,-2.7212C12,2.5133,9.9451,0.5,7.4741,0.5z" fill="#FFFFFF" opacity="0.5"/>
    <path d="M8.9326,12H5.982c-0.8255,0,-1.7453,-0.6645,-1.7453,-1.618v-0.3656c0,-0.5321,-0.3269,-1.5427,-0.6273,-1.9439C3.479,7.9176,2.5,6.7027,2.5,5.1193C2.5,2.2487,4.6849,0,7.4741,0C10.2454,0,12.5,2.2965,12.5,5.1194c0,1.6304,-1.0495,2.8865,-1.1846,3.0414c-0.2853,0.368,-0.5845,1.3496,-0.5845,1.9225v0.2988C10.731,11.3081,9.7815,12,8.9326,12zM7.4741,1C5.2456,1,3.5,2.8094,3.5,5.1193c0,1.278,0.8685,2.3023,0.8773,2.3125l0.0189,0.0232c0.432,0.564,0.8405,1.8088,0.8405,2.5614v0.3656c0,0.3328,0.4098,0.618,0.7453,0.618h2.9506c0.3486,0,0.7983,-0.2997,0.7983,-0.618v-0.2988c0,-0.7259,0.3459,-1.9724,0.8089,-2.554l0.0195,-0.023C10.5679,7.4966,11.5,6.4337,11.5,5.1194C11.5,2.8479,9.694,1,7.4741,1z" fill="#EEAD56"/>
  </g>
</svg>
