<?xml version="1.0" encoding="UTF-8"?>
<!DOCTYPE svg PUBLIC "-//W3C//DTD SVG 1.1//EN" "http://www.w3.org/Graphics/SVG/1.1/DTD/svg11.dtd">
<svg version="1.1" id="Layer_1" xmlns="http://www.w3.org/2000/svg" xmlns:xlink="http://www.w3.org/1999/xlink" x="0px" y="0px" width="16px" height="16px" viewBox="0 0 16 16" enable-background="new 0 0 16 16" xml:space="preserve">
  <g id="icon">
    <path d="M3,16V0h4.6281c1.7196,0,3.0551,0.3856,3.9695,1.1462c0.9653,0.8032,1.4755,1.9838,1.4755,3.414c0,0.5198,-0.1006,1.0515,-0.2989,1.5801c-0.1519,0.4039,-0.4422,0.9963,-0.9625,1.5242l-0.0856,0.0868l0.1007,0.0684c0.0831,0.0565,0.1648,0.1161,0.243,0.1774c0.5116,0.4015,0.9149,0.8953,1.1986,1.4677c0.2944,0.5947,0.4315,1.1899,0.4315,1.873c0,0.7348,-0.1254,1.3606,-0.3948,1.9697c-0.2737,0.6188,-0.6791,1.1418,-1.2048,1.5544c-0.4964,0.3896,-1.0972,0.6831,-1.7857,0.8725C9.6751,15.9107,8.9524,16,8.1668,16H3zM5.3127,13.6776h2.854c0.5788,0,1.0958,-0.0615,1.5366,-0.1829c0.3917,-0.1077,0.719,-0.2634,0.973,-0.4626c0.2301,-0.1806,0.3938,-0.3926,0.5154,-0.6673c0.1371,-0.3102,0.1956,-0.6173,0.1956,-1.027c0,-0.3196,-0.0567,-0.5704,-0.1895,-0.8385c-0.1323,-0.2669,-0.3076,-0.4805,-0.552,-0.6722c-0.2576,-0.2022,-0.5883,-0.3628,-0.9828,-0.4771c-0.4327,-0.1253,-0.9293,-0.1888,-1.4759,-0.1888H5.3127V13.6776zM5.3127,6.8388h2.4174c0.6123,0,1.1217,-0.0791,1.514,-0.2352c0.3834,-0.1526,0.6898,-0.3409,0.9106,-0.5597c0.1859,-0.1842,0.3519,-0.4479,0.4554,-0.7232c0.0996,-0.2654,0.1501,-0.5213,0.1501,-0.7605c0,-0.7365,-0.2088,-1.2682,-0.6383,-1.6256c-0.4814,-0.4005,-1.3438,-0.6121,-2.4939,-0.6121H5.3127V6.8388z" fill="#6D6E71"/>
  </g>
</svg>
