<?xml version="1.0" encoding="UTF-8"?>
<!DOCTYPE svg PUBLIC "-//W3C//DTD SVG 1.1//EN" "http://www.w3.org/Graphics/SVG/1.1/DTD/svg11.dtd">
<svg version="1.1" id="Layer_1" xmlns="http://www.w3.org/2000/svg" xmlns:xlink="http://www.w3.org/1999/xlink" x="0px" y="0px" width="16px" height="16px" viewBox="0 0 16 16" enable-background="new 0 0 16 16" xml:space="preserve">
  <g id="icon">
    <path d="M11.7803,13.247c-0.3128,0,-0.6227,-0.0438,-0.921,-0.1303c-0.3151,-0.0912,-0.6013,-0.2331,-0.8503,-0.4216c-0.2618,-0.1978,-0.4746,-0.4515,-0.6322,-0.7537c-0.1612,-0.3091,-0.243,-0.6721,-0.243,-1.0787c0,-0.6368,0.3051,-1.5157,1.7586,-2.0862c0.925,-0.3629,2.2681,-0.5946,3.9076,-0.6759v-0.525c0,-0.3659,-0.0428,-0.6944,-0.1273,-0.9766c-0.0764,-0.2547,-0.1892,-0.4618,-0.3448,-0.6329c-0.1534,-0.1686,-0.3449,-0.2958,-0.5852,-0.389c-0.2553,-0.0988,-0.5735,-0.149,-0.9457,-0.149c-0.5207,0,-0.9774,0.088,-1.3573,0.2616c-0.3655,0.167,-1.0047,0.6202,-1.4249,1.0101l-0.8163,-0.8795c0.4491,-0.4168,1.1918,-0.9705,1.7425,-1.2221c0.5376,-0.2456,1.1621,-0.3701,1.856,-0.3701c0.521,0,0.985,0.0774,1.3791,0.23c0.4121,0.1596,0.7618,0.3953,1.0395,0.7004c0.2752,0.3026,0.4793,0.6713,0.6067,1.0959c0.118,0.3942,0.1778,0.8386,0.1778,1.3211v5.5666h-1.2v-0.8413c-0.2195,0.1541,-0.4542,0.2938,-0.7002,0.4169c-0.3225,0.1611,-0.6761,0.2905,-1.0513,0.3848C12.6672,13.1984,12.2405,13.247,11.7803,13.247zM14.8,9.3023c-1.4675,0.0772,-2.6851,0.2836,-3.4692,0.5913c-0.997,0.3913,-0.997,0.8262,-0.997,0.9691c0,0.2114,0.036,0.3877,0.107,0.5238c0.0757,0.1453,0.1712,0.2602,0.292,0.3514c0.1338,0.1013,0.2842,0.1751,0.4604,0.2261c0.1899,0.055,0.3875,0.0829,0.5872,0.0829c0.3617,0,0.6899,-0.0364,0.9757,-0.1083c0.291,-0.0731,0.5625,-0.1721,0.8071,-0.2943c0.2484,-0.1243,0.4813,-0.2696,0.6917,-0.4319c0.0568,-0.0438,0.1163,-0.0888,0.1768,-0.1346c0.1251,-0.0947,0.2531,-0.1917,0.3684,-0.2861V9.3023z" fill="#6D6E71"/>
    <path d="M7.9262,13.179L6.6451,10.1H2.3878l-1.2316,3.0428l-1.1123,-0.4502l3.8794,-9.5842l1.1101,-0.0054l4.0007,9.615L7.9262,13.179zM2.8735,8.9h3.2722L4.4871,4.9137L2.8735,8.9z" fill="#6D6E71"/>
  </g>
</svg>
