<?xml version="1.0" encoding="UTF-8"?>
<!DOCTYPE svg PUBLIC "-//W3C//DTD SVG 1.1//EN" "http://www.w3.org/Graphics/SVG/1.1/DTD/svg11.dtd">
<svg version="1.1" id="Layer_1" xmlns="http://www.w3.org/2000/svg" xmlns:xlink="http://www.w3.org/1999/xlink" x="0px" y="0px" width="16px" height="16px" viewBox="0 0 16 16" enable-background="new 0 0 16 16" xml:space="preserve">
  <g id="icon">
    <path d="M14.275,13.5H1.7583c-0.6904,0,-1.25,-0.5596,-1.25,-1.25v-8.5c0,-0.6904,0.5596,-1.25,1.25,-1.25H14.275c0.6904,0,1.25,0.5596,1.25,1.25v8.5C15.525,12.9404,14.9654,13.5,14.275,13.5z" fill="#FFFFFF" opacity="0.5"/>
    <path d="M14.275,14H1.7583c-0.9649,0,-1.75,-0.7851,-1.75,-1.75v-8.5c0,-0.9649,0.7851,-1.75,1.75,-1.75H14.275c0.9649,0,1.75,0.7851,1.75,1.75v8.5C16.025,13.2149,15.2399,14,14.275,14zM1.7583,3c-0.4136,0,-0.75,0.3364,-0.75,0.75v8.5c0,0.4136,0.3364,0.75,0.75,0.75H14.275c0.4136,0,0.75,-0.3364,0.75,-0.75v-8.5c0,-0.4136,-0.3364,-0.75,-0.75,-0.75H1.7583z" fill="#7B7B7B"/>
    <path d="M10.7296,11.2071l-0.7057,-0.7086L12.5331,8L10.024,5.5015l0.7057,-0.7086L13.9502,8L10.7296,11.2071zM5.3607,11.207L2.0759,8l3.2848,-3.207l0.6986,0.7155L3.5074,8l2.552,2.4916L5.3607,11.207z" fill="#7B7B7B"/>
  </g>
</svg>
