<?xml version="1.0" encoding="UTF-8"?>
<!DOCTYPE svg PUBLIC "-//W3C//DTD SVG 1.1//EN" "http://www.w3.org/Graphics/SVG/1.1/DTD/svg11.dtd">
<svg version="1.1" id="Layer_1" xmlns="http://www.w3.org/2000/svg" xmlns:xlink="http://www.w3.org/1999/xlink" x="0px" y="0px" width="16px" height="16px" viewBox="0 0 16 16" enable-background="new 0 0 16 16" xml:space="preserve">
  <g id="icon">
    <path d="M8.5,0.5C4.634,0.5,1.5,3.634,1.5,7.5c0,0.5472,0.0648,1.0789,0.1836,1.5899C1.9353,9.0318,2.1972,9,2.4667,9h6.0667C10.4479,9,12,10.5521,12,12.4667v1.0667c0,0.0095,-0.0006,0.0188,-0.0007,0.0283C14.0914,12.3512,15.5,10.0908,15.5,7.5C15.5,3.634,12.366,0.5,8.5,0.5z" fill="#FFFFFF" opacity="0.5"/>
    <path d="M8.5,0C4.3645,0,1,3.3645,1,7.5c0,0.5982,0.0725,1.1796,0.2054,1.7377C1.5964,9.0848,2.0215,9,2.4667,9h-0.29C2.0623,8.5181,2,8.0163,2,7.5s0.0623,-1.0181,0.1766,-1.5h2.0375c-0.1083,0.5168,-0.1671,1.0305,-0.1671,1.5247c0,0.4695,0.0526,0.9669,0.153,1.4753h1.019c-0.1111,-0.5003,-0.1721,-0.9987,-0.1721,-1.4753c0,-0.4901,0.0673,-1.0057,0.1896,-1.5247H8v3h0.5333c0.9493,0,1.8091,0.3819,2.4352,1h0.4504c-0.0421,0.1202,-0.0877,0.2393,-0.1348,0.3579c0.261,0.34,0.4601,0.7297,0.5812,1.1525c0.2419,-0.4923,0.4453,-1.0012,0.6041,-1.5105h2.0298c-0.5131,1.2267,-1.3919,2.2634,-2.4993,2.9737v0.5597c0,0.2141,-0.0204,0.4232,-0.0576,0.6266C14.3502,12.9102,16,10.3949,16,7.5C16,3.3645,12.6355,0,8.5,0zM4.4834,5H2.5007c0.7495,-1.7918,2.2792,-3.178,4.162,-3.7339C5.7322,2.2415,4.9442,3.5945,4.4834,5zM8,5H5.5375C6.0726,3.5359,6.9889,2.1616,8,1.3927V5zM9,1.418c0.985,0.7709,1.8748,2.1312,2.3961,3.582H9V1.418zM11.7056,9H9V6h2.6918c0.1199,0.5185,0.1859,1.0341,0.1859,1.5247C11.8777,8.0013,11.8167,8.4997,11.7056,9zM12.4484,5c-0.4568,-1.4146,-1.2406,-2.7745,-2.166,-3.7495c1.9079,0.545,3.4602,1.9403,4.217,3.7495H12.4484zM12.7247,9c0.1004,-0.5084,0.153,-1.0059,0.153,-1.4753c0,-0.4947,-0.0577,-1.0081,-0.1643,-1.5247h2.1099c0.1143,0.4819,0.1766,0.9837,0.1766,1.5s-0.0623,1.0181,-0.1766,1.5H12.7247z" fill="#6485C3"/>
    <path d="M8.825,16H7.5v-1h1.325c0.6479,0,1.175,-0.5271,1.175,-1.175v-1.65c0,-0.6479,-0.5271,-1.175,-1.175,-1.175h-2.65C5.5271,11,5,11.5271,5,12.175V13.9H4v-1.725C4,10.9757,4.9757,10,6.175,10h2.65c1.1993,0,2.175,0.9757,2.175,2.175v1.65C11,15.0243,10.0243,16,8.825,16zM4.825,16h-2.65C0.9757,16,0,15.0243,0,13.825v-1.65C0,10.9757,0.9757,10,2.175,10H3.6v1H2.175C1.5271,11,1,11.5271,1,12.175v1.65c0,0.6479,0.5271,1.175,1.175,1.175h2.65c0.6479,0,1.175,-0.5271,1.175,-1.175V12.1h1v1.725C7,15.0243,6.0243,16,4.825,16z" fill="#6D6E71"/>
  </g>
</svg>
