<?xml version="1.0" encoding="UTF-8"?>
<!DOCTYPE svg PUBLIC "-//W3C//DTD SVG 1.1//EN" "http://www.w3.org/Graphics/SVG/1.1/DTD/svg11.dtd">
<svg version="1.1" id="Layer_1" xmlns="http://www.w3.org/2000/svg" xmlns:xlink="http://www.w3.org/1999/xlink" x="0px" y="0px" width="16px" height="16px" viewBox="0 0 16 16" enable-background="new 0 0 16 16" xml:space="preserve">
  <g id="icon">
    <path d="M7.5262,16c-0.5067,0,-1.0096,-0.0638,-1.4948,-0.1897c-1.0396,-0.2699,-2.0191,-0.8809,-2.8324,-1.767l-0.0996,-0.1084l0.94,-0.8627l0.0995,0.1084c0.6466,0.7045,1.4119,1.1868,2.2131,1.3947c0.3753,0.0974,0.7687,0.1468,1.1695,0.1468c0.5679,0,1.1137,-0.1004,1.5783,-0.2904c0.8395,-0.3434,1.4836,-0.9631,1.8135,-1.745c0.2868,-0.6796,0.45,-1.6918,0.0481,-2.4944c-0.3874,-0.7736,-1.2626,-1.183,-2.0676,-1.4814c-0.3448,-0.1278,-0.7084,-0.2435,-1.06,-0.3554c-0.7052,-0.2244,-1.4338,-0.4563,-2.1301,-0.8158c-1.1552,-0.5966,-1.8904,-1.5523,-2.0701,-2.6913c-0.2028,-1.2852,0.1827,-2.5899,1.0312,-3.49c0.825,-0.875,2.0549,-1.357,3.4633,-1.357c0.0836,0,0.1676,0.0017,0.2524,0.005c1.3644,0.0547,2.5891,0.6018,3.5417,1.5824l0.1026,0.1056l-0.9151,0.889l-0.1026,-0.1056c-0.7307,-0.7521,-1.6315,-1.1547,-2.6777,-1.1965c-0.0608,-0.0025,-0.1262,-0.004,-0.1957,-0.004c-0.7479,0,-1.7956,0.1659,-2.5407,0.9562c-0.5796,0.6148,-0.841,1.518,-0.6993,2.416c0.1472,0.9323,0.84,1.4697,1.3952,1.7564c0.6004,0.31,1.2468,0.5157,1.9312,0.7335c0.3672,0.1169,0.7448,0.2371,1.1172,0.3752c1.0383,0.3849,2.1788,0.9362,2.7649,2.1063c0.5959,1.1902,0.3838,2.6203,-0.0134,3.5617c-0.462,1.095,-1.352,1.958,-2.506,2.4299C8.963,15.866,8.2518,16,7.5262,16z" fill="#6D6E71"/>
    <rect x="1.4" y="7.4" width="13.2" height="1.2" fill="#6D6E71"/>
  </g>
</svg>
