<?xml version="1.0" encoding="UTF-8"?>
<!DOCTYPE svg PUBLIC "-//W3C//DTD SVG 1.1//EN" "http://www.w3.org/Graphics/SVG/1.1/DTD/svg11.dtd">
<svg version="1.1" id="Layer_1" xmlns="http://www.w3.org/2000/svg" xmlns:xlink="http://www.w3.org/1999/xlink" x="0px" y="0px" width="16px" height="16px" viewBox="0 0 16 16" enable-background="new 0 0 16 16" xml:space="preserve">
  <g id="icon">
    <path d="M10.2901,16v-1.9359l0.2888,-0.1795c1.3624,-0.8471,3.648,-2.8294,3.648,-6.5874c0,-2.9818,-2.3008,-6.0661,-6.151,-6.0661c-4.0939,0,-6.303,3.1725,-6.303,6.1575c0,3.8196,2.5459,5.8152,3.6404,6.4959l0.2888,0.1795V16H0.4772L0.2,14.6093l1.1708,-0.2476l0.0811,0.4071h3.055v-0.0173c-2.461,-1.6608,-3.9292,-4.4104,-3.9292,-7.3628C0.5777,3.8069,3.2057,0,8.0759,0c2.0744,0,3.9676,0.7876,5.331,2.2177c1.2995,1.363,2.0152,3.167,2.0152,5.0795c0,4.17,-2.4516,6.454,-3.9367,7.4544v0.0172h3.0627l0.0811,-0.4071L15.8,14.6093L15.5229,16H10.2901z" fill="#6D6E71"/>
  </g>
</svg>
