<?xml version="1.0" encoding="UTF-8"?>
<!DOCTYPE svg PUBLIC "-//W3C//DTD SVG 1.1//EN" "http://www.w3.org/Graphics/SVG/1.1/DTD/svg11.dtd">
<svg version="1.1" id="Layer_1" xmlns="http://www.w3.org/2000/svg" xmlns:xlink="http://www.w3.org/1999/xlink" x="0px" y="0px" width="16px" height="16px" viewBox="0 0 16 16" enable-background="new 0 0 16 16" xml:space="preserve">
  <g id="icon">
    <rect x="0.5" y="4" width="15" height="11.5" fill="#FFFFFF" opacity="0.5"/>
    <path d="M15,8V7h-4V4h-1v3H6V4H5v3H1v1h4v3H1v1h4v3h1v-3h4v3h1v-3h4v-1h-4V8H15zM10,11H6V8h4V11z" fill="#B7B7B7"/>
    <polygon points="15,4 15,15 1,15 1,4 0,4 0,16 16,16 16,4" fill="#6D6E71" stroke-linejoin="miter"/>
    <rect width="16" height="4" fill="#6485C3"/>
  </g>
</svg>
