<?xml version="1.0" encoding="UTF-8"?>
<!DOCTYPE svg PUBLIC "-//W3C//DTD SVG 1.1//EN" "http://www.w3.org/Graphics/SVG/1.1/DTD/svg11.dtd">
<svg version="1.1" id="Layer_1" xmlns="http://www.w3.org/2000/svg" xmlns:xlink="http://www.w3.org/1999/xlink" x="0px" y="0px" width="16px" height="16px" viewBox="0 0 16 16" enable-background="new 0 0 16 16" xml:space="preserve">
  <g id="icon">
    <rect x="2" y="8" width="12" height="3" fill="#FFFFFF"/>
    <rect x="1" y="8" width="14" height="3" fill="#6485C3" opacity="0.1"/>
    <path d="M16,12H0V7h16V12zM1,11h14V8H1V11z" fill="#6485C3"/>
    <path d="M3,10.4H2V8.6h1V10.4zM14,8.6h-1v1.8h1V8.6zM12,9H4v1h8V9z" fill="#6D6E71"/>
    <path d="M2.5,6V0.5h7.0333L13.5,4.5571V6H2.5zM2.5,13v2.5h11v-2.5H2.5z" fill="#FFFFFF" opacity="0.5"/>
    <path d="M3,6V1h6v4h4v1h1V4.3533L9.7437,0H2v6H3zM14,13v3H2v-3h1v2h10v-2H14z" fill="#6D6E71"/>
    <path d="M8,4H4V3h4V4zM4,14h8v-1H4V14zM8,5H4v1h4V5z" fill="#B7B7B7"/>
  </g>
</svg>
