<?xml version="1.0" encoding="UTF-8"?>
<!DOCTYPE svg PUBLIC "-//W3C//DTD SVG 1.1//EN" "http://www.w3.org/Graphics/SVG/1.1/DTD/svg11.dtd">
<svg version="1.1" id="Layer_1" xmlns="http://www.w3.org/2000/svg" xmlns:xlink="http://www.w3.org/1999/xlink" x="0px" y="0px" width="16px" height="16px" viewBox="0 0 16 16" enable-background="new 0 0 16 16" xml:space="preserve">
  <g id="icon">
    <path d="M2.9,13.4h-0.3483c-0.2706,0,-0.526,-0.0449,-0.7592,-0.1335c-0.2377,-0.0905,-0.4456,-0.2185,-0.6181,-0.3806c-0.1741,-0.1636,-0.3111,-0.3577,-0.4075,-0.5767c-0.0973,-0.2212,-0.1467,-0.4604,-0.1467,-0.711c0,-0.2342,0.0251,-0.4653,0.0747,-0.6868c0.0436,-0.1951,0.0932,-0.3903,0.1472,-0.5803c0.0493,-0.1735,0.0942,-0.3491,0.1335,-0.5216c0.0333,-0.1462,0.0502,-0.3015,0.0502,-0.4617c0,-0.0327,-0.006,-0.0586,-0.0195,-0.0842c-0.0182,-0.0342,-0.0431,-0.063,-0.0783,-0.0902c-0.0453,-0.035,-0.1034,-0.0641,-0.1728,-0.0864C0.6801,9.0627,0.5943,9.0504,0.5,9.0504H0V7.9495h0.5c0.0965,0,0.1843,-0.012,0.2609,-0.0357c0.0673,-0.0208,0.1234,-0.0483,0.1671,-0.0821c0.0352,-0.0272,0.0602,-0.056,0.0785,-0.0907c0.0082,-0.0155,0.0193,-0.0419,0.0193,-0.0888c0,-0.1571,-0.0169,-0.312,-0.0504,-0.4602c-0.0393,-0.1741,-0.0842,-0.3502,-0.1333,-0.5234c-0.054,-0.1896,-0.1035,-0.3848,-0.1472,-0.58c-0.0496,-0.2216,-0.0747,-0.4526,-0.0747,-0.6869c0,-0.2506,0.0494,-0.4898,0.1467,-0.711c0.0963,-0.2189,0.2333,-0.4129,0.4073,-0.5766c0.1727,-0.1623,0.3806,-0.2903,0.618,-0.3807C2.0255,3.6449,2.281,3.6,2.5517,3.6H2.9v1h-0.3483c-0.1488,0,-0.2847,0.0229,-0.4038,0.0683c-0.1163,0.0443,-0.2107,0.1014,-0.2886,0.1746c-0.0765,0.0719,-0.1344,0.154,-0.177,0.2507c-0.0417,0.0949,-0.062,0.1958,-0.062,0.3083c0,0.1609,0.017,0.3186,0.0505,0.4687c0.0395,0.1766,0.0843,0.3531,0.1332,0.5247c0.0542,0.1909,0.1036,0.3849,0.147,0.5768c0.0497,0.2204,0.0749,0.4493,0.0749,0.6803c0,0.1994,-0.0456,0.3867,-0.1356,0.5567c-0.0572,0.1079,-0.1292,0.2061,-0.2149,0.2935c0.0857,0.0873,0.1577,0.1854,0.2147,0.293c0.0902,0.1706,0.1358,0.3562,0.1358,0.5521c0,0.2348,-0.0253,0.4648,-0.0751,0.6837c-0.0432,0.1896,-0.0925,0.3824,-0.1467,0.5731c-0.0489,0.1719,-0.0937,0.3485,-0.1332,0.525c-0.0335,0.15,-0.0505,0.3077,-0.0505,0.4686c0,0.1126,0.0203,0.2135,0.062,0.3083c0.0426,0.0968,0.1005,0.1788,0.1771,0.2508c0.0777,0.0731,0.1722,0.1302,0.2886,0.1745c0.119,0.0453,0.255,0.0683,0.4037,0.0683H2.9V13.4z" fill="#6D6E71"/>
    <path d="M13.4483,13.4H13.1v-1h0.3483c0.1487,0,0.2847,-0.023,0.4039,-0.0683c0.1162,-0.0442,0.2106,-0.1013,0.2885,-0.1745c0.0765,-0.072,0.1344,-0.154,0.177,-0.2507c0.0417,-0.0949,0.062,-0.1958,0.062,-0.3083c0,-0.1609,-0.017,-0.3186,-0.0505,-0.4687c-0.0395,-0.1765,-0.0843,-0.353,-0.1332,-0.5248c-0.0542,-0.1909,-0.1036,-0.3837,-0.1468,-0.5733c-0.0498,-0.2188,-0.0751,-0.4489,-0.0751,-0.6837c0,-0.1959,0.0456,-0.3815,0.1355,-0.5517c0.0572,-0.108,0.1292,-0.2062,0.215,-0.2935c-0.0858,-0.0874,-0.1577,-0.1855,-0.2148,-0.2931c-0.0901,-0.1704,-0.1357,-0.3578,-0.1357,-0.5571c0,-0.2311,0.0252,-0.4599,0.0749,-0.6802c0.0434,-0.192,0.0928,-0.386,0.1469,-0.5766c0.0489,-0.1719,0.0937,-0.3484,0.1332,-0.525c0.0335,-0.15,0.0505,-0.3077,0.0505,-0.4686c0,-0.1126,-0.0203,-0.2135,-0.062,-0.3083c-0.0426,-0.0968,-0.1005,-0.1789,-0.1771,-0.251c-0.0777,-0.0729,-0.1721,-0.13,-0.2885,-0.1743c-0.119,-0.0453,-0.2549,-0.0683,-0.4037,-0.0683H13.1V3.6h0.3483c0.2708,0,0.5262,0.0449,0.7593,0.1336c0.2375,0.0904,0.4454,0.2184,0.6179,0.3804c0.1742,0.1639,0.3112,0.3579,0.4075,0.5769c0.0973,0.2212,0.1467,0.4604,0.1467,0.711c0,0.2342,-0.0251,0.4653,-0.0747,0.6868c-0.0437,0.1952,-0.0932,0.3904,-0.1472,0.5803c-0.0491,0.1729,-0.094,0.349,-0.1333,0.5232c-0.0334,0.1481,-0.0504,0.303,-0.0504,0.4601c0,0.0469,0.0111,0.0733,0.0195,0.0892c0.0182,0.0343,0.0432,0.0631,0.0784,0.0902c0.0437,0.0338,0.0998,0.0614,0.1668,0.082c0.0769,0.0238,0.1647,0.0358,0.2612,0.0358h0.5v1.1009h-0.5c-0.0943,0,-0.1801,0.0123,-0.255,0.0364c-0.0696,0.0224,-0.1278,0.0515,-0.173,0.0864c-0.0352,0.0272,-0.0602,0.056,-0.0786,0.0907c-0.0133,0.025,-0.0193,0.051,-0.0193,0.0837c0,0.1602,0.0169,0.3155,0.0501,0.4617c0.0393,0.1726,0.0842,0.3481,0.1336,0.5218c0.054,0.1898,0.1036,0.385,0.1472,0.5801c0.0496,0.2216,0.0747,0.4526,0.0747,0.6869c0,0.2506,-0.0494,0.4898,-0.1467,0.711c-0.0963,0.219,-0.2334,0.413,-0.4074,0.5766c-0.1726,0.1622,-0.3804,0.2902,-0.618,0.3806C13.9743,13.3551,13.7189,13.4,13.4483,13.4z" fill="#6D6E71"/>
    <path d="M11.5361,9.6528c-0.6418,0,-1.1639,-0.5221,-1.1639,-1.1639c0,-0.6417,0.5221,-1.1639,1.1639,-1.1639c0.6417,0,1.1639,0.5221,1.1639,1.1639C12.7,9.1307,12.1779,9.6528,11.5361,9.6528zM8.0125,9.6528c-0.6417,0,-1.1639,-0.5221,-1.1639,-1.1639c0,-0.6417,0.5221,-1.1639,1.1639,-1.1639s1.1639,0.5221,1.1639,1.1639C9.1764,9.1307,8.6542,9.6528,8.0125,9.6528zM4.4889,9.6528c-0.6417,0,-1.1639,-0.5221,-1.1639,-1.1639c0,-0.6417,0.5221,-1.1639,1.1639,-1.1639c0.6418,0,1.1639,0.5221,1.1639,1.1639C5.6528,9.1307,5.1307,9.6528,4.4889,9.6528z" fill="#6485C3"/>
  </g>
</svg>
