<?xml version="1.0" encoding="UTF-8"?>
<svg id="Livello_1" xmlns="http://www.w3.org/2000/svg" version="1.1" viewBox="0 0 444.517 155.6705">
  <g>
    <polygon points="410.1089 57.113 442.5915 38.3904 437.4751 29.5122 399.4008 51.4563 410.1089 57.113" fill="#3760aa"/>
    <polygon points="404.0653 3.62 393.8189 3.6109 393.7854 47.5587 404.0378 41.1134 404.0653 3.62" fill="#4199d5"/>
    <polygon points="387.1444 38.3701 354.69 19.5989 349.5586 28.4697 387.6008 50.4713 387.1444 38.3701" fill="#7bb929"/>
    <polygon points="376.3234 51.6277 343.8401 70.3504 348.9571 79.2284 387.0328 57.2837 376.3234 51.6277" fill="#fcc10c"/>
    <polygon points="382.367 105.1219 392.6147 105.1299 392.6482 61.1833 382.3945 67.6286 382.367 105.1219" fill="#ed6a2c"/>
    <polygon points="399.2878 70.3708 431.7442 89.1412 436.8737 80.2704 398.8315 58.2686 399.2878 70.3708" fill="#e22f88"/>
  </g>
  <path fill="#e5e5e5" d="M160.1617,89.7817c-5.695,0-10.9396,1.909-15.1782,5.0897v-15.704h-10.1906v61.9205h10.1906v-5.6583c4.2385,3.1808,9.4831,5.0899,15.1782,5.0899,13.9884,0,25.3688-11.3804,25.3688-25.3696s-11.3804-25.368-25.3688-25.368ZM160.1617,130.3286c-8.3691,0-15.1782-6.8098-15.1782-15.1789s6.8091-15.1774,15.1782-15.1774,15.1782,6.8083,15.1782,15.1774-6.8091,15.1789-15.1782,15.1789Z"/>
  <path fill="#e5e5e5" d="M256.4974,89.7817c-13.9884,0-25.3688,11.3804-25.3688,25.368s11.3804,25.3696,25.3688,25.3696,25.3688-11.3804,25.3688-25.3696-11.3804-25.368-25.3688-25.368ZM256.4974,130.3286c-8.3691,0-15.1782-6.8098-15.1782-15.1789s6.8091-15.1774,15.1782-15.1774,15.1782,6.8083,15.1782,15.1774-6.8091,15.1789-15.1782,15.1789Z"/>
  <path fill="#e5e5e5" d="M318.8431,89.7817c-5.695,0-10.9396,1.909-15.1782,5.0897v-4.7323h-10.1906v61.9205h10.1906v-16.6301c4.2385,3.1808,9.4831,5.0899,15.1782,5.0899,13.9884,0,25.3688-11.3804,25.3688-25.3696s-11.3804-25.368-25.3688-25.368ZM318.8431,130.3286c-8.3691,0-15.1782-6.8098-15.1782-15.1789s6.8091-15.1774,15.1782-15.1774,15.1782,6.8083,15.1782,15.1774-6.8091,15.1789-15.1782,15.1789Z"/>
  <polygon fill="#e5e5e5" points="203.3344 79.1673 185.7344 79.1673 185.7344 89.358 203.3344 89.358 203.3344 141.0878 213.525 141.0878 213.525 89.358 231.125 89.358 231.125 79.1673 213.525 79.1673 203.3344 79.1673"/>
  <path fill="#e5e5e5" d="M53.0092,122.6532c0,4.2328-3.4434,7.6754-7.6754,7.6754s-7.6729-3.44-7.6757-7.6705c0-.0015-.0005-.0032-.0005-.0049v-43.6171h-10.1899v43.6171c0,.0017-.0005.0034-.0005.0049-.0028,4.2305-3.4446,7.6705-7.6757,7.6705s-7.6754-3.4426-7.6754-7.6754v-43.6171H1.9255v43.6171c0,9.8514,8.0147,17.8661,17.8661,17.8661,5.0025,0,9.5247-2.0723,12.7711-5.3962,3.2464,3.3239,7.7686,5.3962,12.7711,5.3962,9.8514,0,17.8661-8.0147,17.8661-17.8661v-43.6171h-10.1906v43.6171Z"/>
  <path fill="#e5e5e5" d="M123.8892,111.1639c-.556-3.4588-1.7912-6.686-3.6133-9.5272-4.478-7.1184-12.4302-11.8588-21.448-11.8588-13.9898,0-25.37,11.38-25.37,25.3699,0,1.1736.0772,2.3162.2317,3.4434.4787,3.4743,1.6522,6.7324,3.3971,9.6044,4.4316,7.381,12.5229,12.3221,21.7413,12.3221,8.5545,0,16.1362-4.2464,20.7223-10.7625l-10.1758-3.7058c-2.7331,2.6559-6.4544,4.2773-10.5464,4.2773-4.8022,0-9.0795-2.2391-11.8589-5.7288l27.0377-9.8361,9.8825-3.5979ZM83.6492,114.9626c.0926-8.2765,6.8713-14.9936,15.1787-14.9936,4.5861,0,8.7089,2.0538,11.5038,5.281l-26.6825,9.7126Z"/>
</svg>