<?xml version="1.0" encoding="UTF-8"?>
<!DOCTYPE svg PUBLIC "-//W3C//DTD SVG 1.1//EN" "http://www.w3.org/Graphics/SVG/1.1/DTD/svg11.dtd">
<svg version="1.1" id="Layer_1" xmlns="http://www.w3.org/2000/svg" xmlns:xlink="http://www.w3.org/1999/xlink" x="0px" y="0px" width="16px" height="16px" viewBox="0 0 16 16" enable-background="new 0 0 16 16" xml:space="preserve">
  <g id="icon">
    <path d="M9.5,7H1.5c-0.2761,0,-0.5,-0.2239,-0.5,-0.5s0.2239,-0.5,0.5,-0.5h8c0.2761,0,0.5,0.2239,0.5,0.5S9.7761,7,9.5,7zM15,3.5c0,-0.2761,-0.2239,-0.5,-0.5,-0.5H1.5c-0.2761,0,-0.5,0.2239,-0.5,0.5s0.2239,0.5,0.5,0.5h13C14.7761,4,15,3.7761,15,3.5zM15,9.5c0,-0.2761,-0.2239,-0.5,-0.5,-0.5H1.5c-0.2761,0,-0.5,0.2239,-0.5,0.5s0.2239,0.5,0.5,0.5h13C14.7761,10,15,9.7761,15,9.5zM10,12.5c0,-0.2761,-0.2239,-0.5,-0.5,-0.5H1.5c-0.2761,0,-0.5,0.2239,-0.5,0.5s0.2239,0.5,0.5,0.5h8C9.7761,13,10,12.7761,10,12.5z" id="c1" fill="#404040"/>
  </g>
</svg>
