<?xml version="1.0" encoding="UTF-8"?>
<!DOCTYPE svg PUBLIC "-//W3C//DTD SVG 1.1//EN" "http://www.w3.org/Graphics/SVG/1.1/DTD/svg11.dtd">
<svg version="1.1" id="Layer_1" xmlns="http://www.w3.org/2000/svg" xmlns:xlink="http://www.w3.org/1999/xlink" x="0px" y="0px" width="16px" height="16px" viewBox="0 0 16 16" enable-background="new 0 0 16 16" xml:space="preserve">
  <g id="icon">
    <path d="M4,12.9885V3.0115C4,2.4529,4.4582,2,5.0234,2h2.601c1.3091,0,2.3317,0.2891,3.0395,0.8594c0.5269,0.4249,1.1552,1.2213,1.1552,2.6021c0,0.4247,-0.0859,0.8407,-0.2553,1.2363c-0.1239,0.2891,-0.2853,0.5601,-0.4796,0.8051l-0.1593,0.2008l0.1996,0.1619c0.0292,0.0236,0.0578,0.0478,0.086,0.0722c0.3502,0.3046,0.6231,0.6712,0.8109,1.0897c0.1859,0.4138,0.2802,0.8736,0.2802,1.3667c0,0.5597,-0.1028,1.0728,-0.3057,1.525c-0.2117,0.4726,-0.5254,0.874,-0.9326,1.1931c-0.3837,0.3008,-0.8485,0.5291,-1.3813,0.6784C9.1865,13.9296,8.627,14,8.0192,14H5.0234C4.4582,14,4,13.5471,4,12.9885zM6,12h1.9136c0.4041,0,0.764,-0.042,1.0697,-0.1249c0.2644,-0.0716,0.4839,-0.174,0.6523,-0.3041c0.1456,-0.1127,0.2538,-0.2508,0.331,-0.4223c0.0844,-0.1887,0.129,-0.5328,0.129,-0.8065c0,-0.2153,-0.0411,-0.5064,-0.1223,-0.6679c-0.0849,-0.1686,-0.2024,-0.3093,-0.3593,-0.4306c-0.1717,-0.1329,-0.3942,-0.239,-0.6612,-0.315C8.6537,8.8433,8.3089,8.8,7.9282,8.8H6V12zM6,7h1.5593c0.2259,0,0.4335,-0.016,0.617,-0.0475c0.0124,-0.0021,0.0542,-0.0078,0.0542,-0.0078s0.0402,-0.01,0.0523,-0.0127c0.105,-0.0227,0.2025,-0.0514,0.2892,-0.0853c0.2485,-0.0975,0.4539,-0.2213,0.5942,-0.3582c0.1358,-0.1328,0.233,-0.2747,0.2893,-0.422c0.0643,-0.1691,0.0969,-0.4308,0.0969,-0.5806c0,-0.5957,-0.2287,-0.9521,-0.4007,-1.093C8.9324,4.2136,8.4661,4,7.4878,4H6V7z" id="c1" fill="#404040"/>
  </g>
</svg>
