<?xml version="1.0" encoding="UTF-8"?>
<!DOCTYPE svg PUBLIC "-//W3C//DTD SVG 1.1//EN" "http://www.w3.org/Graphics/SVG/1.1/DTD/svg11.dtd">
<svg version="1.1" id="Layer_1" xmlns="http://www.w3.org/2000/svg" xmlns:xlink="http://www.w3.org/1999/xlink" x="0px" y="0px" width="16px" height="16px" viewBox="0 0 16 16" enable-background="new 0 0 16 16" xml:space="preserve">
  <g id="icon">
    <path d="M11.4167,13.5H4.5833C3.4327,13.5,2.5,12.5673,2.5,11.4167V4.5833C2.5,3.4327,3.4327,2.5,4.5833,2.5h6.8333C12.5673,2.5,13.5,3.4327,13.5,4.5833v6.8333C13.5,12.5673,12.5673,13.5,11.4167,13.5z" id="b" fill="#F5F5F5"/>
    <path d="M11.5,5.5021c0,0.5534,-0.4486,1.0021,-1.0021,1.0021c-0.5534,0,-1.0021,-0.4486,-1.0021,-1.0021S9.9445,4.5,10.4979,4.5C11.0514,4.5,11.5,4.9486,11.5,5.5021zM2,4.5c0,-1.3807,1.1193,-2.5,2.5,-2.5h7c1.3807,0,2.5,1.1193,2.5,2.5v7c0,1.3807,-1.1193,2.5,-2.5,2.5H4.5c-1.3807,0,-2.5,-1.1193,-2.5,-2.5V4.5zM4.5,3c-0.8284,0,-1.5,0.6716,-1.5,1.5v7c0,0.2316,0.0525,0.4509,0.1462,0.6467L6.798,8.495c0.6639,-0.6639,1.7403,-0.6639,2.4042,0l3.6517,3.6517c0.0937,-0.1958,0.1462,-0.4151,0.1462,-0.6467V4.5c0,-0.8284,-0.6716,-1.5,-1.5,-1.5H4.5zM12.1467,12.8538L8.495,9.2021c-0.2734,-0.2734,-0.7166,-0.2734,-0.99,0l-3.6517,3.6517C4.0491,12.9475,4.2684,13,4.5,13h7C11.7316,13,11.9509,12.9475,12.1467,12.8538z" id="c1" fill="#404040"/>
  </g>
</svg>
