<?xml version="1.0" encoding="UTF-8"?>
<!DOCTYPE svg PUBLIC "-//W3C//DTD SVG 1.1//EN" "http://www.w3.org/Graphics/SVG/1.1/DTD/svg11.dtd">
<svg version="1.1" id="Layer_1" xmlns="http://www.w3.org/2000/svg" xmlns:xlink="http://www.w3.org/1999/xlink" x="0px" y="0px" width="16px" height="16px" viewBox="0 0 16 16" enable-background="new 0 0 16 16" xml:space="preserve">
  <g id="icon">
    <path d="M4,8h5c1.86,0,3.4233,1.2697,3.871,2.9895c1.0244,-1.0001,1.6612,-2.3954,1.6612,-3.9401c0,-3.0415,-2.4656,-5.5072,-5.5072,-5.5072S3.5178,4.0079,3.5178,7.0494c0,0.3312,0.0309,0.6551,0.0869,0.9702C3.7348,8.0069,3.8666,8,4,8z" id="b" fill="#F5F5F5"/>
    <path d="M15.0181,6.7582c-0.1447,-3.0434,-2.5951,-5.5216,-5.6368,-5.6984c-0.1196,-0.007,-0.2382,-0.0092,-0.3563,-0.0092c-0.1181,0,-0.2367,0.0023,-0.3563,0.0092c-3.0417,0.1768,-5.4921,2.655,-5.6368,5.6984c-0.0143,0.3013,-0.0056,0.5978,0.0237,0.8883c0.0242,0.2399,0.2413,0.4088,0.4808,0.3807c0.0256,-0.003,0.0587,-0.0058,0.0959,-0.0083c0.244,-0.0165,0.4268,-0.2306,0.4027,-0.474c-0.0161,-0.163,-0.0244,-0.3283,-0.0244,-0.4955c0,-0.5223,0.0805,-1.0262,0.2294,-1.5h2.2642c-0.0583,0.4845,-0.0903,0.986,-0.0903,1.5c0,0.1675,0.0038,0.3335,0.0107,0.498C6.4354,7.8011,6.6468,8,6.9007,8h0c0.2697,0,0.4879,-0.2237,0.4759,-0.4931c-0.0067,-0.1516,-0.0104,-0.3041,-0.0104,-0.4574c0,-0.5111,0.0362,-1.0152,0.1035,-1.5H9.025h1.5553c0.0673,0.4848,0.1035,0.9889,0.1035,1.5c0,0.3143,-0.0144,0.6256,-0.0411,0.9316c-0.0178,0.2048,0.083,0.4046,0.2637,0.5027c0.4083,0.2218,0.7735,0.5126,1.0802,0.8569c0.1174,0.1317,0.284,0.2088,0.4604,0.2088h0.9219c-0.1531,0.2651,-0.3299,0.5148,-0.5272,0.7464c-0.0883,0.1037,-0.113,0.2473,-0.0679,0.3759l0.0037,0.0106c0.1335,0.3812,0.6347,0.4741,0.8906,0.1617C14.5724,9.74,15.0918,8.3093,15.0181,6.7582zM6.6688,4.5494H4.6811c0.6156,-1.0654,1.6109,-1.8844,2.8003,-2.2702C7.1264,2.9251,6.8507,3.6961,6.6688,4.5494zM9.025,4.5494H7.6597c0.2553,-1.0441,0.6639,-1.934,1.1745,-2.5095c0.0634,-0.0024,0.1268,-0.0048,0.1908,-0.0048s0.1274,0.0025,0.1908,0.0048c0.5105,0.5755,0.9192,1.4654,1.1745,2.5095H9.025zM10.5685,2.2792c1.1895,0.3858,2.1848,1.2048,2.8003,2.2702h-1.9876C11.1993,3.6961,10.9236,2.9251,10.5685,2.2792zM13.8099,8.5494h-2.2642c0.0583,-0.4845,0.0903,-0.986,0.0903,-1.5s-0.032,-1.0155,-0.0903,-1.5h2.2642c0.1489,0.4738,0.2294,0.9777,0.2294,1.5C14.0393,7.5718,13.9588,8.0756,13.8099,8.5494z" id="c1" fill="#404040"/>
    <path d="M7.764,15c-0.2909,-0.0002,-0.5286,-0.2309,-0.5299,-0.5146c-0.0011,-0.2498,0.1806,-0.4644,0.4321,-0.5104l0.0953,-0.0093l1.1793,-0.0034c1.1019,0,1.9986,-0.8811,1.9986,-1.964c0,-1.0323,-0.8201,-1.8932,-1.8672,-1.9599l-0.1349,-0.0042l-1.1729,0.0001c-0.2924,0,-0.5303,-0.2319,-0.5303,-0.517c0,-0.2498,0.1828,-0.4637,0.4345,-0.5085L7.7637,9l1.1772,0.0004c1.6868,0,3.0591,1.3448,3.0591,2.9979c0,1.5925,-1.2692,2.9074,-2.8894,2.9935l-0.1647,0.0044L7.764,15zM4.0591,14.9962C2.3723,14.9962,1,13.6513,1,11.9983c0,-1.5926,1.2699,-2.9075,2.8911,-2.9935l0.1706,-0.0044l1.1739,0.0001c0.2924,0,0.5303,0.2319,0.5303,0.5169c0,0.2498,-0.1827,0.4637,-0.4345,0.5086l-0.0952,0.0088l-1.1772,-0.0004c-1.102,0,-1.9984,0.881,-1.9984,1.964c0,1.0323,0.8201,1.8932,1.8671,1.9599l0.135,0.0042l1.1729,-0.0001c0.2924,0,0.5303,0.2319,0.5303,0.517c0,0.2498,-0.1828,0.4637,-0.4345,0.5085l-0.091,0.0085H4.0591zM4.1461,12.5152c-0.1423,-0.0001,-0.2759,-0.0543,-0.3761,-0.1528c-0.0994,-0.0975,-0.154,-0.2269,-0.154,-0.3644c0.0001,-0.2498,0.183,-0.4635,0.4349,-0.5083l0.0951,-0.0088l4.7079,0.0023c0.1423,0,0.2759,0.0542,0.3762,0.1527c0.0993,0.0975,0.154,0.2269,0.1539,0.3644c-0.0001,0.2499,-0.183,0.4636,-0.4348,0.5084l-0.0909,0.0083L4.1461,12.5152z" id="c2" fill="#404040"/>
  </g>
</svg>
