<?xml version="1.0" encoding="UTF-8"?>
<!DOCTYPE svg PUBLIC "-//W3C//DTD SVG 1.1//EN" "http://www.w3.org/Graphics/SVG/1.1/DTD/svg11.dtd">
<svg version="1.1" id="Layer_1" xmlns="http://www.w3.org/2000/svg" xmlns:xlink="http://www.w3.org/1999/xlink" x="0px" y="0px" width="16px" height="16px" viewBox="0 0 16 16" enable-background="new 0 0 16 16" xml:space="preserve">
  <g id="icon">
    <path d="M11.5,3c0.3099,0,0.554,0.282,0.4896,0.6034c-0.0472,0.2357,-0.2681,0.3966,-0.5085,0.3966H5.5189c-0.2403,0,-0.4613,-0.1609,-0.5085,-0.3966C4.946,3.282,5.1901,3,5.5,3H11.5zM14.5,7c0.3099,0,0.554,0.282,0.4896,0.6034c-0.0472,0.2357,-0.2681,0.3966,-0.5085,0.3966H5.5189c-0.2403,0,-0.4613,-0.1609,-0.5085,-0.3966C4.946,7.282,5.1901,7,5.5,7H14.5zM9.5,11c0.31,0,0.5541,0.2821,0.4896,0.6035c-0.0473,0.2356,-0.2682,0.3965,-0.5085,0.3965H5.5189c-0.2403,0,-0.4612,-0.1609,-0.5085,-0.3965C4.9459,11.2821,5.1901,11,5.5,11H9.5zM2.6464,5.5965c0.1953,-0.1953,0.5119,-0.1953,0.7072,0c0.1952,0.1953,0.1952,0.5118,0,0.7071L2.2071,7.45l1.1465,1.1465c0.1952,0.1953,0.1952,0.5118,0,0.7071c-0.1953,0.1953,-0.5119,0.1953,-0.7072,0l-1.5,-1.5c-0.1952,-0.1953,-0.1952,-0.5118,0,-0.7071L2.6464,5.5965z" id="c1" fill="#404040"/>
  </g>
</svg>
