<?xml version="1.0" encoding="UTF-8"?>
<!DOCTYPE svg PUBLIC "-//W3C//DTD SVG 1.1//EN" "http://www.w3.org/Graphics/SVG/1.1/DTD/svg11.dtd">
<svg version="1.1" id="Layer_1" xmlns="http://www.w3.org/2000/svg" xmlns:xlink="http://www.w3.org/1999/xlink" x="0px" y="0px" width="16px" height="16px" viewBox="0 0 16 16" enable-background="new 0 0 16 16" xml:space="preserve">
  <g id="main">
    <g id="icon">
      <path d="M4.163,2.542L3.772,2.664L3.419,2.856L3.11,3.11L2.856,3.419L2.664,3.772L2.542,4.163L2.5,4.583L2.5,11.42L2.542,11.84L2.664,12.23L2.856,12.58L3.11,12.89L3.419,13.14L3.772,13.34L4.163,13.46L4.583,13.5L6.571,13.5L6.562,13.48L6.364,12.85L6.242,12.19L6.2,11.5L6.228,10.94L6.31,10.39L6.443,9.866L6.625,9.361L6.853,8.88L7.123,8.427L7.783,7.613L8.167,7.257L8.583,6.941L9.028,6.665L9.5,6.433L9.996,6.248L10.51,6.112L11.05,6.029L11.6,6L12.27,6.042L12.91,6.165L13.5,6.354L13.5,4.583L13.46,4.163L13.34,3.772L13.14,3.419L12.89,3.11L12.58,2.856L12.23,2.664L11.84,2.542L11.42,2.5L4.583,2.5zz" fill="#F5F5F5"/>
      <path d="M3.996,2.051L3.527,2.196L3.102,2.427L2.732,2.732L2.427,3.102L2.196,3.527L2.051,3.996L2,4.5L2,11.5L2.051,12L2.196,12.47L2.427,12.9L2.732,13.27L3.102,13.57L3.527,13.8L3.996,13.95L4.5,14L6.796,14L6.562,13.48L6.412,13L4.5,13L4.163,12.96L3.853,12.85L6.309,10.4L6.31,10.39L6.443,9.866L6.625,9.361L6.853,8.88L7.123,8.427L7.374,8.117L7.36,8.121L7.065,8.277L6.798,8.495L3.146,12.15L3.038,11.84L3,11.5L3,4.5L3.03,4.198L3.118,3.916L3.256,3.661L3.439,3.439L3.661,3.256L3.916,3.118L4.198,3.03L4.5,3L11.5,3L11.8,3.03L12.08,3.118L12.34,3.256L12.56,3.439L12.74,3.661L12.88,3.916L12.97,4.198L13,4.5L13,6.193L13.53,6.364L14,6.581L14,4.5L13.95,3.996L13.8,3.527L13.57,3.102L13.27,2.732L12.9,2.427L12.47,2.196L12,2.051L11.5,2L4.5,2zM10.11,4.579L9.789,4.794L9.575,5.112L9.496,5.502L9.575,5.892L9.789,6.211L9.898,6.284L9.996,6.248L10.51,6.112L11.05,6.029L11.34,6.013L11.42,5.892L11.5,5.502L11.42,5.112L11.21,4.794L10.89,4.579L10.5,4.5zz" fill="#404040"/>
    </g>
    <g id="overlay">
      <path d="M15.5344,11.5c0,2.2223,-1.7615,4.0238,-3.9344,4.0238S7.6656,13.7223,7.6656,11.5S9.4271,7.4762,11.6,7.4762S15.5344,9.2777,15.5344,11.5z" id="b" fill="#FFFFFF"/>
      <path d="M11.6,7c-2.4261,0,-4.4,2.0187,-4.4,4.5c0,2.4813,1.9739,4.5,4.4,4.5s4.4,-2.0187,4.4,-4.5C16,9.0187,14.0261,7,11.6,7zM14.4466,9.4762h-1.0915c-0.1055,-0.4539,-0.246,-0.8752,-0.4191,-1.2498C13.5482,8.4887,14.0714,8.9259,14.4466,9.4762zM15.0688,11.5c0,0.3733,-0.057,0.7332,-0.1621,1.0714H13.518c0.0394,-0.3468,0.0609,-0.705,0.0609,-1.0714s-0.0215,-0.7247,-0.0609,-1.0715h1.3887C15.0118,10.7668,15.0688,11.1267,15.0688,11.5zM11.6,15.0476c-0.0274,0,-0.0545,-0.0015,-0.0818,-0.0021c-0.3035,-0.3642,-0.553,-0.8959,-0.7256,-1.5217h1.615c-0.1727,0.6258,-0.4221,1.1575,-0.7256,1.5217C11.6545,15.0462,11.6274,15.0476,11.6,15.0476zM10.6,12.5714c-0.0464,-0.3461,-0.0716,-0.7061,-0.0716,-1.0714s0.0252,-0.7253,0.0716,-1.0715h2c0.0464,0.3461,0.0716,0.7061,0.0716,1.0715s-0.0252,0.7253,-0.0716,1.0714H10.6zM8.1312,11.5c0,-0.3733,0.057,-0.7332,0.1621,-1.0715H9.682c-0.0394,0.3468,-0.0609,0.705,-0.0609,1.0715s0.0215,0.7247,0.0609,1.0714H8.2933C8.1883,12.2332,8.1312,11.8733,8.1312,11.5zM11.6,7.9524c0.0274,0,0.0545,0.0015,0.0818,0.0021c0.3035,0.3642,0.553,0.8959,0.7257,1.5217h-1.615c0.1727,-0.6258,0.4221,-1.1575,0.7257,-1.5217C11.5455,7.9538,11.5726,7.9524,11.6,7.9524zM10.264,8.2264c-0.1731,0.3746,-0.3136,0.7959,-0.4191,1.2498H8.7534C9.1286,8.9259,9.6518,8.4887,10.264,8.2264zM8.7534,13.5238h1.0915c0.1055,0.4539,0.246,0.8752,0.4191,1.2498C9.6518,14.5113,9.1286,14.0741,8.7534,13.5238zM12.936,14.7736c0.1731,-0.3746,0.3136,-0.7959,0.4191,-1.2498h1.0915C14.0714,14.0741,13.5482,14.5113,12.936,14.7736z" id="c1" fill="#212121"/>
    </g>
  </g>
</svg>
