<?xml version="1.0" encoding="UTF-8"?>
<!DOCTYPE svg PUBLIC "-//W3C//DTD SVG 1.1//EN" "http://www.w3.org/Graphics/SVG/1.1/DTD/svg11.dtd">
<svg version="1.1" id="Layer_1" xmlns="http://www.w3.org/2000/svg" xmlns:xlink="http://www.w3.org/1999/xlink" x="0px" y="0px" width="16px" height="16px" viewBox="0 0 16 16" enable-background="new 0 0 16 16" xml:space="preserve">
  <g id="icon">
    <path d="M3.9,13c-0.31,0,-0.5541,0.2821,-0.4896,0.6035c0.0473,0.2356,0.2682,0.3965,0.5085,0.3965h7.1622c0.2403,0,0.4612,-0.1609,0.5085,-0.3965c0.0645,-0.3214,-0.1797,-0.6035,-0.4896,-0.6035H3.9z" id="c1" fill="#404040"/>
    <path d="M7.5,12c-1.9299,0,-3.5,-1.4953,-3.5,-3.3333V2.5c0,-0.2761,0.2239,-0.5,0.5,-0.5s0.5,0.2239,0.5,0.5v6.1667C5,9.9533,6.1215,11,7.5,11s2.5,-1.0467,2.5,-2.3333V2.5c0,-0.2761,0.2239,-0.5,0.5,-0.5s0.5,0.2239,0.5,0.5v6.1667C11,10.5047,9.4299,12,7.5,12z" id="c1" fill="#404040"/>
  </g>
</svg>
