<?xml version="1.0" encoding="UTF-8"?>
<!DOCTYPE svg PUBLIC "-//W3C//DTD SVG 1.1//EN" "http://www.w3.org/Graphics/SVG/1.1/DTD/svg11.dtd">
<svg version="1.1" id="Layer_1" xmlns="http://www.w3.org/2000/svg" xmlns:xlink="http://www.w3.org/1999/xlink" x="0px" y="0px" width="16px" height="16px" viewBox="0 0 16 16" enable-background="new 0 0 16 16" xml:space="preserve">
  <g id="icon">
    <path d="M12.6348,12h-0.2798c-0.2761,0,-0.5,-0.2239,-0.5,-0.5s0.2239,-0.5,0.5,-0.5h0.2798c0.1297,0,0.2478,-0.0199,0.351,-0.0591c0.1,-0.038,0.1809,-0.0869,0.2474,-0.1493c0.065,-0.0611,0.1142,-0.1308,0.1503,-0.213c0.0354,-0.0804,0.0526,-0.1661,0.0526,-0.2621c0,-0.1431,-0.0151,-0.283,-0.0449,-0.416c-0.0358,-0.1604,-0.0763,-0.3201,-0.1204,-0.4747c-0.0494,-0.174,-0.0945,-0.35,-0.134,-0.5235c-0.0461,-0.2023,-0.0694,-0.4148,-0.0694,-0.6317c0,-0.1858,0.0433,-0.3618,0.1286,-0.5229c0.0472,-0.0891,0.1051,-0.1711,0.1729,-0.2454c-0.0679,-0.0744,-0.1257,-0.1563,-0.1728,-0.2452c-0.0854,-0.1612,-0.1287,-0.3388,-0.1287,-0.5277c0,-0.2134,0.0233,-0.4248,0.0692,-0.6284c0.0397,-0.1757,0.0848,-0.3528,0.1342,-0.5267c0.0441,-0.1549,0.0846,-0.3146,0.1204,-0.4747c0.0298,-0.1331,0.0449,-0.2731,0.0449,-0.4161c0,-0.0959,-0.0172,-0.1816,-0.0525,-0.2619c-0.0362,-0.0823,-0.0854,-0.1521,-0.1505,-0.2133c-0.0663,-0.0623,-0.1472,-0.1111,-0.2473,-0.1492c-0.1031,-0.0392,-0.2211,-0.0591,-0.3509,-0.0591h-0.2798c-0.2761,0,-0.5,-0.2239,-0.5,-0.5s0.2239,-0.5,0.5,-0.5h0.2798c0.2516,0,0.4893,0.0418,0.7063,0.1244c0.2216,0.0843,0.4156,0.2039,0.5768,0.3554c0.1628,0.1531,0.2909,0.3345,0.381,0.5392c0.091,0.2068,0.1372,0.4304,0.1372,0.6646c0,0.2164,-0.0232,0.4298,-0.069,0.6344c-0.0399,0.1786,-0.0852,0.357,-0.1344,0.53c-0.0444,0.1561,-0.085,0.3154,-0.1207,0.4732c-0.0296,0.1313,-0.0446,0.2687,-0.0446,0.4082c0,0.0321,0.0066,0.0487,0.0124,0.0596c0.0135,0.0255,0.0323,0.0471,0.059,0.0677c0.0352,0.0272,0.0814,0.0498,0.1371,0.0669c0.0657,0.0203,0.141,0.0305,0.2241,0.0305c0.2761,0,0.5,0.2239,0.5,0.5v0.0917c0,0.2761,-0.2239,0.5,-0.5,0.5c-0.081,0,-0.1543,0.0104,-0.218,0.031c-0.0583,0.0188,-0.1064,0.0427,-0.1434,0.0712c-0.0266,0.0206,-0.0454,0.0422,-0.059,0.0679c-0.006,0.0113,-0.0123,0.0269,-0.0123,0.0548c0,0.1422,0.0149,0.2801,0.0444,0.4096c0.0356,0.1563,0.0763,0.3152,0.1209,0.472c0.0492,0.1727,0.0944,0.3511,0.1344,0.53c0.0458,0.2044,0.069,0.4178,0.069,0.6343c0,0.2342,-0.0462,0.4578,-0.1372,0.6647c-0.09,0.2045,-0.2181,0.3859,-0.3808,0.539c-0.1614,0.1516,-0.3554,0.2711,-0.5768,0.3554C13.1241,11.9582,12.8864,12,12.6348,12zM3.645,12h-0.2798c-0.2516,0,-0.4893,-0.0418,-0.7063,-0.1244c-0.2215,-0.0843,-0.4155,-0.2038,-0.5768,-0.3553c-0.1628,-0.1532,-0.291,-0.3346,-0.381,-0.5393c-0.091,-0.2068,-0.1372,-0.4304,-0.1372,-0.6646c0,-0.2165,0.0232,-0.4299,0.069,-0.6344c0.04,-0.1788,0.0852,-0.3571,0.1344,-0.53c0.0445,-0.1566,0.0852,-0.3155,0.1208,-0.4719c0.0295,-0.1294,0.0444,-0.2673,0.0444,-0.4095c0,-0.0279,-0.0062,-0.0435,-0.0124,-0.0551c-0.0135,-0.0254,-0.0323,-0.047,-0.059,-0.0676c-0.0368,-0.0285,-0.085,-0.0524,-0.1431,-0.0711c-0.0639,-0.0206,-0.1372,-0.031,-0.2182,-0.031c-0.2761,0,-0.5,-0.2239,-0.5,-0.5v-0.0917c0,-0.2761,0.2239,-0.5,0.5,-0.5c0.0832,0,0.1584,-0.0103,0.2237,-0.0304c0.0561,-0.0173,0.1023,-0.0398,0.1377,-0.0672c0.0265,-0.0205,0.0453,-0.042,0.0588,-0.0676c0.0057,-0.0108,0.0123,-0.0273,0.0123,-0.0595c0,-0.1395,-0.015,-0.2769,-0.0447,-0.4083c-0.0356,-0.1577,-0.0762,-0.317,-0.1207,-0.4733c-0.0492,-0.1728,-0.0944,-0.3511,-0.1344,-0.5299c-0.0458,-0.2044,-0.069,-0.4179,-0.069,-0.6343c0,-0.2342,0.0462,-0.4578,0.1372,-0.6647c0.09,-0.2045,0.2181,-0.3859,0.3808,-0.539c0.1613,-0.1516,0.3553,-0.2711,0.5768,-0.3554C2.8759,3.0418,3.1136,3,3.3652,3h0.2798c0.2761,0,0.5,0.2239,0.5,0.5s-0.2239,0.5,-0.5,0.5h-0.2798c-0.1297,0,-0.2478,0.0199,-0.351,0.0591c-0.1,0.038,-0.181,0.0869,-0.2473,0.1492c-0.065,0.0612,-0.1143,0.1309,-0.1504,0.2131c-0.0354,0.0804,-0.0526,0.1661,-0.0526,0.2621c0,0.143,0.0151,0.283,0.0449,0.416c0.0358,0.1603,0.0763,0.3199,0.1204,0.4746c0.0495,0.1741,0.0946,0.3512,0.1342,0.5268c0.0459,0.2037,0.0692,0.4151,0.0692,0.6285c0,0.189,-0.0433,0.3665,-0.1287,0.5276c-0.0472,0.089,-0.105,0.171,-0.1729,0.2453c0.0678,0.0743,0.1256,0.1562,0.1728,0.2451c0.0855,0.1615,0.1288,0.3374,0.1288,0.5232c0,0.2168,-0.0233,0.4293,-0.0694,0.6316c-0.0395,0.1735,-0.0846,0.3496,-0.134,0.5234c-0.0441,0.1547,-0.0846,0.3144,-0.1204,0.4747c-0.0298,0.1331,-0.0449,0.273,-0.0449,0.4161c0,0.0959,0.0172,0.1816,0.0525,0.2619c0.0362,0.0823,0.0854,0.1521,0.1505,0.2133c0.0663,0.0623,0.1473,0.1112,0.2473,0.1492c0.1031,0.0392,0.2211,0.0591,0.3509,0.0591h0.2798c0.2761,0,0.5,0.2239,0.5,0.5S3.9211,12,3.645,12z" id="c1" fill="#404040"/>
    <path d="M11.5,8h-1c-0.2761,0,-0.5,-0.2239,-0.5,-0.5s0.2239,-0.5,0.5,-0.5h1c0.2761,0,0.5,0.2239,0.5,0.5S11.7761,8,11.5,8zM8.475,8H7.51c-0.2761,0,-0.5,-0.2239,-0.5,-0.5s0.2239,-0.5,0.5,-0.5h0.965c0.2761,0,0.5,0.2239,0.5,0.5S8.7511,8,8.475,8zM5.5,8H4.5c-0.2761,0,-0.5,-0.2239,-0.5,-0.5s0.2239,-0.5,0.5,-0.5h1c0.2761,0,0.5,0.2239,0.5,0.5S5.7761,8,5.5,8z" id="c2" fill="#404040"/>
  </g>
</svg>
