<?xml version="1.0" encoding="UTF-8"?>
<!DOCTYPE svg PUBLIC "-//W3C//DTD SVG 1.1//EN" "http://www.w3.org/Graphics/SVG/1.1/DTD/svg11.dtd">
<svg version="1.1" id="Layer_1" xmlns="http://www.w3.org/2000/svg" xmlns:xlink="http://www.w3.org/1999/xlink" x="0px" y="0px" width="16px" height="16px" viewBox="0 0 16 16" enable-background="new 0 0 16 16" xml:space="preserve">
  <g id="icon">
    <path d="M12.525,14.5h-8.95C2.429,14.5,1.5,13.571,1.5,12.425v-7.85C1.5,3.429,2.429,2.5,3.575,2.5h8.95C13.671,2.5,14.6,3.429,14.6,4.575v7.85C14.6,13.571,13.671,14.5,12.525,14.5z" id="b" fill="#262626"/>
    <path d="M3.5,2c-1.3807,0,-2.5,1.1193,-2.5,2.5v8c0,1.3807,1.1193,2.5,2.5,2.5h9c1.3807,0,2.5,-1.1193,2.5,-2.5V4.5c0,-1.3807,-1.1193,-2.5,-2.5,-2.5H3.5zM14,5H2v-0.5c0,-0.8284,0.6716,-1.5,1.5,-1.5h9c0.8284,0,1.5,0.6716,1.5,1.5V5zM2,6h12v6.5c0,0.8284,-0.6716,1.5,-1.5,1.5H3.5c-0.8284,0,-1.5,-0.6716,-1.5,-1.5V6z" id="c1" fill="#d4d4d4"/>
    <path d="M13,4.5h-1V3.5h1V4.5zM11,3.5h-1v1h1V3.5zM9,3.5H8v1h1V3.5z" id="c2" fill="#d4d4d4"/>
    <path d="M3.9313,12.0062c-0.1328,0,-0.2652,-0.0525,-0.3636,-0.1566c-0.1896,-0.2008,-0.1806,-0.5172,0.0201,-0.7068l1.2402,-1.1881L3.5879,8.7666c-0.2007,-0.1896,-0.2098,-0.5061,-0.0201,-0.7068c0.1895,-0.2007,0.5059,-0.2099,0.7068,-0.0201l1.625,1.5516c0.1,0.0944,0.1566,0.2259,0.1566,0.3635s-0.0567,0.269,-0.1566,0.3635l-1.625,1.5516C4.178,11.961,4.0545,12.0062,3.9313,12.0062z" id="c2" fill="#d4d4d4"/>
    <path d="M9.5,12H6.5c-0.2761,0,-0.5,-0.2239,-0.5,-0.5v0c0,-0.2761,0.2239,-0.5,0.5,-0.5h3c0.2761,0,0.5,0.2239,0.5,0.5v0C10,11.7761,9.7761,12,9.5,12z" id="c2" fill="#d4d4d4"/>
  </g>
</svg>
