<?xml version="1.0" encoding="UTF-8"?>
<!DOCTYPE svg PUBLIC "-//W3C//DTD SVG 1.1//EN" "http://www.w3.org/Graphics/SVG/1.1/DTD/svg11.dtd">
<svg version="1.1" id="Layer_1" xmlns="http://www.w3.org/2000/svg" xmlns:xlink="http://www.w3.org/1999/xlink" x="0px" y="0px" width="16px" height="16px" viewBox="0 0 16 16" enable-background="new 0 0 16 16" xml:space="preserve">
  <g id="icon">
    <path d="M11.9309,1.116l-7.4,2.2857C4.2125,3.5155,4,3.8171,4,4.1552v7.0561c-0.3362,-0.1944,-0.7343,-0.2938,-1.1575,-0.2615c-0.9713,0.0743,-1.7604,0.8621,-1.8362,1.8332c-0.0958,1.2269,0.9165,2.2438,2.142,2.1554C4.2019,14.8624,5,13.949,5,12.8927V7.2961l7,-2.1429v5.058c-0.3361,-0.1943,-0.734,-0.2938,-1.157,-0.2615c-0.9713,0.0741,-1.7605,0.8617,-1.8366,1.8328c-0.0961,1.2271,0.9162,2.2441,2.1418,2.1559c1.0537,-0.0759,1.8518,-0.9893,1.8518,-2.0457V1.8694C13,1.3162,12.4519,0.93,11.9309,1.116z" id="c1" fill="#d4d4d4"/>
  </g>
</svg>
