<?xml version="1.0" encoding="UTF-8"?>
<!DOCTYPE svg PUBLIC "-//W3C//DTD SVG 1.1//EN" "http://www.w3.org/Graphics/SVG/1.1/DTD/svg11.dtd">
<svg version="1.1" id="Layer_1" xmlns="http://www.w3.org/2000/svg" xmlns:xlink="http://www.w3.org/1999/xlink" x="0px" y="0px" width="16px" height="16px" viewBox="0 0 16 16" enable-background="new 0 0 16 16" xml:space="preserve">
  <g id="icon">
    <path d="M13.225,12.5H2.875C2.1708,12.5,1.6,11.9292,1.6,11.225v-6.35C1.6,4.1708,2.1708,3.6,2.875,3.6h10.35c0.7042,0,1.275,0.5708,1.275,1.275v6.35C14.5,11.9292,13.9292,12.5,13.225,12.5z" id="b" fill="#262626"/>
    <path d="M1,4.75C1,3.7835,1.7835,3,2.75,3h10.5c0.9665,0,1.75,0.7835,1.75,1.75v6.5c0,0.9665,-0.7835,1.75,-1.75,1.75h-10.5c-0.9665,0,-1.75,-0.7835,-1.75,-1.75V4.75zM2.75,4c-0.4142,0,-0.75,0.3358,-0.75,0.75v6.5c0,0.4142,0.3358,0.75,0.75,0.75h10.5c0.4142,0,0.75,-0.3358,0.75,-0.75v-6.5c0,-0.4142,-0.3358,-0.75,-0.75,-0.75H2.75zM9.5,6c-0.2761,0,-0.5,0.2239,-0.5,0.5c0,0.2761,0.2239,0.5,0.5,0.5h3c0.2761,0,0.5,-0.2239,0.5,-0.5c0,-0.2761,-0.2239,-0.5,-0.5,-0.5H9.5zM9.5,9c-0.2761,0,-0.5,0.2239,-0.5,0.5s0.2239,0.5,0.5,0.5h3c0.2761,0,0.5,-0.2239,0.5,-0.5s-0.2239,-0.5,-0.5,-0.5H9.5zM5.2614,7.7137c0.7494,0,1.3568,-0.6075,1.3568,-1.3568S6.0107,5,5.2614,5c-0.7493,0,-1.3568,0.6075,-1.3568,1.3568S4.512,7.7137,5.2614,7.7137zM3.8582,8.3921c-0.474,0,-0.8582,0.3843,-0.8582,0.8582c0,0.7664,0.5216,1.4344,1.2651,1.6203l0.0534,0.0133c0.6191,0.1548,1.2668,0.1548,1.8859,0l0.0534,-0.0133c0.7435,-0.1859,1.2651,-0.8539,1.2651,-1.6203c0,-0.474,-0.3842,-0.8582,-0.8582,-0.8582H3.8582z" id="c1" fill="#d4d4d4"/>
  </g>
</svg>
