<?xml version="1.0" encoding="UTF-8"?>
<!DOCTYPE svg PUBLIC "-//W3C//DTD SVG 1.1//EN" "http://www.w3.org/Graphics/SVG/1.1/DTD/svg11.dtd">
<svg version="1.1" id="Layer_1" xmlns="http://www.w3.org/2000/svg" xmlns:xlink="http://www.w3.org/1999/xlink" x="0px" y="0px" width="16px" height="16px" viewBox="0 0 16 16" enable-background="new 0 0 16 16" xml:space="preserve">
  <g id="icon">
    <path d="M12.5167,14.3h-6.475C4.7484,14.3,3.7,13.2516,3.7,11.9583v-9.475C3.7,2.0507,4.0507,1.7,4.4833,1.7H10.25L13.3,4.8v8.7167C13.3,13.9493,12.9493,14.3,12.5167,14.3z" id="b" fill="#262626"/>
    <path d="M13.5607,4.3535l-2.9143,-2.9142C10.3651,1.158,9.9836,1,9.5858,1H5c-1.1046,0,-2,0.8954,-2,2v3.1c0,0.2761,0.2239,0.5,0.5,0.5h0c0.2761,0,0.5,-0.2239,0.5,-0.5V3c0,-0.5523,0.4477,-1,1,-1h4v2.5c0,0.8284,0.6716,1.5,1.5,1.5h2.5v7c0,0.5523,-0.4477,1,-1,1H9.5c-0.2761,0,-0.5,0.2239,-0.5,0.5l0,0c0,0.2761,0.2239,0.5,0.5,0.5h2.5c1.1046,0,2,-0.8954,2,-2V5.4141C14,5.0163,13.842,4.6348,13.5607,4.3535zM10.5,5c-0.2761,0,-0.5,-0.2239,-0.5,-0.5V2.2071L12.7929,5H10.5z" id="c1" fill="#d4d4d4"/>
    <path d="M5.5,15H1.5c-0.2761,0,-0.5,-0.2239,-0.5,-0.5l0,0c0,-0.2761,0.2239,-0.5,0.5,-0.5h4c0.2761,0,0.5,0.2239,0.5,0.5l0,0C6,14.7761,5.7761,15,5.5,15zM8,12.5L8,12.5c0,-0.2761,-0.2239,-0.5,-0.5,-0.5H1.5c-0.2761,0,-0.5,0.2239,-0.5,0.5v0c0,0.2761,0.2239,0.5,0.5,0.5h6C7.7761,13,8,12.7761,8,12.5zM3,10.5L3,10.5c0,-0.2761,-0.2239,-0.5,-0.5,-0.5H1.5c-0.2761,0,-0.5,0.2239,-0.5,0.5v0c0,0.2761,0.2239,0.5,0.5,0.5h1C2.7761,11,3,10.7761,3,10.5zM3,8.5L3,8.5c0,-0.2761,-0.2239,-0.5,-0.5,-0.5H1.5c-0.2761,0,-0.5,0.2239,-0.5,0.5v0c0,0.2761,0.2239,0.5,0.5,0.5h1C2.7761,9,3,8.7761,3,8.5z" id="c2" fill="#d4d4d4"/>
    <path d="M6.9917,11H5.0083C4.4523,11,4,10.5477,4,9.9917v-0.9833C4,8.4523,4.4523,8,5.0083,8h1.9833C7.5477,8,8,8.4523,8,9.0083v0.9833C8,10.5477,7.5477,11,6.9917,11zM5.0083,9C5.0038,9,5,9.0038,5,9.0083v0.9833c0,0.0046,0.0038,0.0083,0.0083,0.0083h1.9833C6.9962,10,7,9.9962,7,9.9917v-0.9833C7,9.0038,6.9962,9,6.9917,9H5.0083z" id="c2" fill="#d4d4d4"/>
  </g>
</svg>
