<?xml version="1.0" encoding="UTF-8"?>
<!DOCTYPE svg PUBLIC "-//W3C//DTD SVG 1.1//EN" "http://www.w3.org/Graphics/SVG/1.1/DTD/svg11.dtd">
<svg version="1.1" id="Layer_1" xmlns="http://www.w3.org/2000/svg" xmlns:xlink="http://www.w3.org/1999/xlink" x="0px" y="0px" width="16px" height="16px" viewBox="0 0 16 16" enable-background="new 0 0 16 16" xml:space="preserve">
  <g id="icon">
    <path d="M12.5167,14.3h-6.475C4.7484,14.3,3.7,13.2516,3.7,11.9583v-9.475C3.7,2.0507,4.0507,1.7,4.4833,1.7H10.25L13.3,4.8v8.7167C13.3,13.9493,12.9493,14.3,12.5167,14.3z" id="b" fill="#262626"/>
    <path d="M13.5607,4.3535l-2.9143,-2.9142C10.3651,1.158,9.9836,1,9.5858,1H5c-1.1046,0,-2,0.8954,-2,2v2.5c0,0.2761,0.2239,0.5,0.5,0.5h0c0.2761,0,0.5,-0.2239,0.5,-0.5V3c0,-0.5523,0.4477,-1,1,-1h4v2.5c0,0.8284,0.6716,1.5,1.5,1.5h2.5v7c0,0.5523,-0.4477,1,-1,1h-1.9c-0.2761,0,-0.5,0.2239,-0.5,0.5l0,0c0,0.2761,0.2239,0.5,0.5,0.5h1.9c1.1046,0,2,-0.8954,2,-2V5.4141C14,5.0163,13.842,4.6348,13.5607,4.3535zM10.5,5c-0.2761,0,-0.5,-0.2239,-0.5,-0.5V2.2071L12.7929,5H10.5z" id="c1" fill="#d4d4d4"/>
    <path d="M3.377,13.6c-0.1813,0,-0.377,-0.1462,-0.377,-0.3825v-3.435C3,9.5463,3.1957,9.4,3.377,9.4c0.064,0,0.1258,0.0168,0.1838,0.0499l3.0104,1.7176c0.1201,0.0685,0.1918,0.1929,0.1918,0.3327c0,0.1398,-0.0717,0.2641,-0.1918,0.3326l-3.0104,1.7174C3.5028,13.5832,3.441,13.6,3.377,13.6z" id="b" fill="#262626"/>
    <path d="M4.5,7C2.0147,7,0,9.0147,0,11.5c0,2.4853,2.0147,4.5,4.5,4.5s4.5,-2.0147,4.5,-4.5C9,9.0147,6.9853,7,4.5,7zM6.5712,11.8327l-3.0104,1.7174C3.5028,13.5832,3.441,13.6,3.377,13.6c-0.1813,0,-0.377,-0.1462,-0.377,-0.3825v-3.435C3,9.5463,3.1957,9.4,3.377,9.4c0.064,0,0.1258,0.0168,0.1838,0.0498l3.0104,1.7176c0.1201,0.0685,0.1918,0.1929,0.1918,0.3327C6.763,11.6399,6.6913,11.7642,6.5712,11.8327z" id="c2" fill="#d4d4d4"/>
  </g>
</svg>
