<?xml version="1.0" encoding="UTF-8"?>
<!DOCTYPE svg PUBLIC "-//W3C//DTD SVG 1.1//EN" "http://www.w3.org/Graphics/SVG/1.1/DTD/svg11.dtd">
<svg version="1.1" id="Layer_1" xmlns="http://www.w3.org/2000/svg" xmlns:xlink="http://www.w3.org/1999/xlink" x="0px" y="0px" width="16px" height="16px" viewBox="0 0 16 16" enable-background="new 0 0 16 16" xml:space="preserve">
  <g id="icon">
    <path d="M12.5167,14.3h-6.475C4.7484,14.3,3.7,13.2516,3.7,11.9583v-9.475C3.7,2.0507,4.0507,1.7,4.4833,1.7H10.25L13.3,4.8v8.7167C13.3,13.9493,12.9493,14.3,12.5167,14.3z" id="b" fill="#262626"/>
    <path d="M13.5607,4.3535l-2.9143,-2.9142C10.3651,1.158,9.9836,1,9.5858,1H5c-1.1046,0,-2,0.8954,-2,2v2.7c0,0.2761,0.2239,0.5,0.5,0.5h0c0.2761,0,0.5,-0.2239,0.5,-0.5V3c0,-0.5523,0.4477,-1,1,-1h4v2.5c0,0.8284,0.6716,1.5,1.5,1.5h2.5v7c0,0.5523,-0.4477,1,-1,1H9.5c-0.2761,0,-0.5,0.2239,-0.5,0.5l0,0c0,0.2761,0.2239,0.5,0.5,0.5h2.5c1.1046,0,2,-0.8954,2,-2V5.4141C14,5.0163,13.842,4.6348,13.5607,4.3535zM10.5,5c-0.2761,0,-0.5,-0.2239,-0.5,-0.5V2.2071L12.7929,5H10.5z" id="c1" fill="#d4d4d4"/>
    <path d="M6.4492,15c-0.2381,0,-0.4455,-0.1613,-0.5045,-0.3924L4.8072,10.15l-1.1207,4.4558c-0.0585,0.2321,-0.2661,0.3942,-0.505,0.3942h-0.0445c-0.2405,0,-0.4485,-0.1634,-0.5058,-0.3975L1.0152,7.9958c-0.0331,-0.1353,-0.0116,-0.2754,0.0605,-0.3946c0.0721,-0.1191,0.1863,-0.203,0.3213,-0.2362c0.0408,-0.01,0.0826,-0.0151,0.1242,-0.0151c0.2403,0,0.4482,0.1635,0.5055,0.3975l1.1394,4.6577L4.2768,7.989c0.0585,-0.2321,0.2661,-0.3942,0.505,-0.3942h0.044c0.2381,0,0.4455,0.1613,0.5045,0.3924l1.1339,4.4436L7.618,7.7675c0.0577,-0.2333,0.2653,-0.3962,0.5049,-0.3962c0.0422,0,0.0845,0.0052,0.1258,0.0155c0.135,0.0335,0.2488,0.1177,0.3206,0.237c0.0718,0.1193,0.0929,0.2595,0.0594,0.3948l-1.6296,6.5854c-0.0577,0.2332,-0.2655,0.3961,-0.5053,0.3961H6.4492z" id="c2" fill="#d4d4d4"/>
  </g>
</svg>
