<?xml version="1.0" encoding="UTF-8"?>
<!DOCTYPE svg PUBLIC "-//W3C//DTD SVG 1.1//EN" "http://www.w3.org/Graphics/SVG/1.1/DTD/svg11.dtd">
<svg version="1.1" id="Layer_1" xmlns="http://www.w3.org/2000/svg" xmlns:xlink="http://www.w3.org/1999/xlink" x="0px" y="0px" width="16px" height="16px" viewBox="0 0 16 16" enable-background="new 0 0 16 16" xml:space="preserve">
  <g id="icon">
    <rect x="2.7" y="1.8" width="9.5" height="10.4" id="b" fill="#262626"/>
    <path d="M4,1h7c1.1046,0,2,0.8954,2,2v9.4969c0,0.2762,-0.2239,0.5,-0.5,0.5H3V13c0,0.5523,0.4477,1,1,1h8.5c0.2761,0,0.5,0.2239,0.5,0.5s-0.2239,0.5,-0.5,0.5H4c-1.1046,0,-2,-0.8954,-2,-2V3C2,1.8954,2.8954,1,4,1zM3,3v8.9969h9V3c0,-0.5523,-0.4477,-1,-1,-1H4C3.4477,2,3,2.4477,3,3z" id="c1" fill="#d4d4d4"/>
    <path d="M9.5,5H5.5c-0.2761,0,-0.5,-0.2239,-0.5,-0.5v0c0,-0.2761,0.2239,-0.5,0.5,-0.5h4c0.2761,0,0.5,0.2239,0.5,0.5v0C10,4.7761,9.7761,5,9.5,5zM10,6.5L10,6.5c0,-0.2761,-0.2239,-0.5,-0.5,-0.5H5.5c-0.2761,0,-0.5,0.2239,-0.5,0.5v0c0,0.2761,0.2239,0.5,0.5,0.5h4C9.7761,7,10,6.7761,10,6.5z" id="c2" fill="#d4d4d4"/>
  </g>
</svg>
