<?xml version="1.0" encoding="UTF-8"?>
<!DOCTYPE svg PUBLIC "-//W3C//DTD SVG 1.1//EN" "http://www.w3.org/Graphics/SVG/1.1/DTD/svg11.dtd">
<svg version="1.1" id="Layer_1" xmlns="http://www.w3.org/2000/svg" xmlns:xlink="http://www.w3.org/1999/xlink" x="0px" y="0px" width="16px" height="16px" viewBox="0 0 16 16" enable-background="new 0 0 16 16" xml:space="preserve">
  <g id="icon">
    <path d="M12.5167,14.3h-6.475C4.7484,14.3,3.7,13.2516,3.7,11.9583v-9.475C3.7,2.0507,4.0507,1.7,4.4833,1.7H10.25L13.3,4.8v8.7167C13.3,13.9493,12.9493,14.3,12.5167,14.3z" id="b" fill="#262626"/>
    <path d="M13.5607,4.3535l-2.9143,-2.9142C10.3651,1.158,9.9836,1,9.5858,1H5c-1.1046,0,-2,0.8954,-2,2v2.7c0,0.2761,0.2239,0.5,0.5,0.5h0c0.2761,0,0.5,-0.2239,0.5,-0.5V3c0,-0.5523,0.4477,-1,1,-1h4v2.5c0,0.8284,0.6716,1.5,1.5,1.5h2.5v7c0,0.5523,-0.4477,1,-1,1h-1.7c-0.2761,0,-0.5,0.2239,-0.5,0.5l0,0c0,0.2761,0.2239,0.5,0.5,0.5h1.7c1.1046,0,2,-0.8954,2,-2V5.4141C14,5.0163,13.842,4.6348,13.5607,4.3535zM10.5,5c-0.2761,0,-0.5,-0.2239,-0.5,-0.5V2.2071L12.7929,5H10.5z" id="c1" fill="#d4d4d4"/>
    <path d="M1.3148,7.6945c0.1188,-0.0511,1.0445,-0.1911,1.0042,-0.1868c0.03,0.0317,0.0752,0.0746,0.1353,0.1283c0.6078,0.5434,0.8292,1.2052,0.8304,1.2107c0.008,0.0406,0.0407,0.07,0.0775,0.07h3.2391c0.0062,0.2504,0.0259,0.6158,0.0669,0.8805c-0.0142,-0.0105,-0.0298,-0.0177,-0.0457,-0.0177h-3.711c-0.219,0,-0.3393,-0.3941,-0.3709,-0.4843c-0.2416,-0.6881,-0.5319,-1.074,-1.1949,-1.5883C1.3354,7.6991,1.3248,7.6961,1.3148,7.6945zM1.592,15.9082c0.0295,-0.0246,0.0614,-0.0512,0.0936,-0.0794l0.0107,-0.0089c0.1724,-0.1545,0.7407,-0.7247,0.8928,-1.6436c0.011,-0.0968,0.0083,-0.1976,-0.0038,-0.3013h-0.8215c0.0458,0.0572,0.0723,0.0592,0.0875,0.0614c0.0005,0.0141,0.0003,0.0328,0.0001,0.049l-0.0003,0.0398c-0.0006,0,-0.1521,0.9241,-0.8917,1.4602l-0.0026,0.0019c0.0046,0.0204,0.1256,0.5127,1.062,0.5127c0.037,0,0.073,0,0.1093,0c-0.2114,0,-0.4498,-0.0243,-0.58,-0.055C1.563,15.9324,1.5783,15.9197,1.592,15.9082zM6.2,14.4375H4.4375c-0.2761,0,-0.5,-0.2239,-0.5,-0.5v-0.0625c0,-0.2761,0.2239,-0.5,0.5,-0.5H6.2c0.2761,0,0.5,0.2239,0.5,0.5v0.0625C6.7,14.2136,6.4761,14.4375,6.2,14.4375zM6.1688,11.8125V11.75c0,-0.2761,-0.2239,-0.5,-0.5,-0.5H3.9062c-0.2761,0,-0.5,0.2239,-0.5,0.5v0.0625c0,0.2761,0.2239,0.5,0.5,0.5h1.7625C5.9449,12.3125,6.1688,12.0886,6.1688,11.8125z" id="b" fill="#262626"/>
    <path d="M1.8511,14.0251c-0.0006,0,-0.1521,0.9241,-0.8917,1.4602l-0.0071,0.0052l-0.0062,0.0063c-0.0227,0.0228,-0.0347,0.0313,-0.0398,0.0343c-0.0076,-0.0022,-0.0246,-0.0096,-0.0629,-0.0328c-0.611,-0.3993,-0.7978,-1.2337,-0.8404,-1.4473c-0.0097,-0.0456,0.0044,-0.0935,0.0537,-0.1142c0.0049,-0.0021,0.0143,-0.0045,0.031,-0.0617h1.6761c0.0458,0.0572,0.0723,0.0592,0.0875,0.0614c0.0005,0.0141,0.0003,0.0328,0.0001,0.049L1.8511,14.0251zM3.2846,8.8466c0.008,0.0406,0.0407,0.07,0.0775,0.07h5.0337c0.0145,0,0.0223,-0.002,0.0262,-0.0036c0.0454,-0.0188,0.0598,-0.066,0.0542,-0.1014C8.4738,8.7985,8.1706,7.5,7.0593,7.5c0,0,-4.7,0.0034,-4.7403,0.0077c0.03,0.0317,0.0752,0.0746,0.1353,0.1283C3.0621,8.1794,3.2835,8.8411,3.2846,8.8466zM8.5,14.1156c0,1.7121,-1.3678,1.8808,-1.4055,1.8844H2.1281c-0.2114,0,-0.4498,-0.0243,-0.58,-0.055c0.0149,-0.0127,0.0302,-0.0254,0.0439,-0.0368c0.0295,-0.0246,0.0614,-0.0512,0.0936,-0.0794l0.0107,-0.0089c0.1724,-0.1545,0.7407,-0.7247,0.8928,-1.6436c0.0735,-0.6461,-0.4068,-1.4542,-0.9152,-2.3098c-0.0681,-0.1145,-0.1362,-0.2291,-0.2028,-0.3433C0.9504,10.6318,0.4587,9.7899,0.4587,9.1145c0,-1.1022,0.6075,-1.3378,0.8072,-1.4153c0.0111,-0.0043,0.0231,-0.0065,0.0346,-0.0065c0.0122,0,0.0299,0.0024,0.045,0.0143c0.663,0.5142,0.9534,0.9002,1.1949,1.5883c0.0316,0.0901,0.1519,0.4843,0.3709,0.4843h3.711c0.0382,0,0.0771,0.0353,0.0886,0.0805c0.1518,0.5938,0.5125,1.4001,0.8974,2.1553c0.0798,0.1566,0.1617,0.3115,0.242,0.4635C8.1831,13.1085,8.4973,13.7031,8.5,14.1156zM3.9375,12.3125h1.7c0.2934,0,0.5312,-0.2378,0.5312,-0.5312s-0.2378,-0.5312,-0.5312,-0.5312h-1.7c-0.2934,0,-0.5312,0.2378,-0.5312,0.5312S3.6441,12.3125,3.9375,12.3125zM6.7,13.9062c0,-0.2934,-0.2378,-0.5312,-0.5312,-0.5312h-1.7c-0.2934,0,-0.5312,0.2378,-0.5312,0.5312s0.2378,0.5312,0.5312,0.5312h1.7C6.4622,14.4375,6.7,14.1997,6.7,13.9062z" id="c2" fill="#d4d4d4"/>
  </g>
</svg>
