<?xml version="1.0" encoding="UTF-8"?>
<!DOCTYPE svg PUBLIC "-//W3C//DTD SVG 1.1//EN" "http://www.w3.org/Graphics/SVG/1.1/DTD/svg11.dtd">
<svg version="1.1" id="Layer_1" xmlns="http://www.w3.org/2000/svg" xmlns:xlink="http://www.w3.org/1999/xlink" x="0px" y="0px" width="16px" height="16px" viewBox="0 0 16 16" enable-background="new 0 0 16 16" xml:space="preserve">
  <g id="icon">
    <path d="M11.5167,14.3H3.4833c-0.4326,0,-0.7833,-0.3507,-0.7833,-0.7833V2.4833C2.7,2.0507,3.0507,1.7,3.4833,1.7H9.25L12.3,4.8v8.7167C12.3,13.9493,11.9493,14.3,11.5167,14.3z" id="b" fill="#262626"/>
    <path d="M4,1c-1.1046,0,-2,0.8954,-2,2v10c0,1.1046,0.8954,2,2,2h7c1.1046,0,2,-0.8954,2,-2V5.4142c0,-0.3978,-0.158,-0.7793,-0.4393,-1.0607L9.6465,1.4393C9.3651,1.158,8.9836,1,8.5858,1H4zM3,3c0,-0.5523,0.4477,-1,1,-1h4v2.5c0,0.8284,0.6716,1.5,1.5,1.5h2.5v7c0,0.5523,-0.4477,1,-1,1H4c-0.5523,0,-1,-0.4477,-1,-1V3zM11.7929,5H9.5c-0.2761,0,-0.5,-0.2239,-0.5,-0.5V2.2071L11.7929,5z" id="c1" fill="#d4d4d4"/>
    <path d="M10.5,11.5L10.5,11.5c0,-0.2761,-0.2239,-0.5,-0.5,-0.5H5c-0.2761,0,-0.5,0.2239,-0.5,0.5v0c0,0.2761,0.2239,0.5,0.5,0.5h5C10.2761,12,10.5,11.7761,10.5,11.5zM10.5,9.5L10.5,9.5c0,-0.2761,-0.2239,-0.5,-0.5,-0.5H5c-0.2761,0,-0.5,0.2239,-0.5,0.5v0c0,0.2761,0.2239,0.5,0.5,0.5h5C10.2761,10,10.5,9.7761,10.5,9.5zM10.5,7.5L10.5,7.5c0,-0.2761,-0.2239,-0.5,-0.5,-0.5H5c-0.2761,0,-0.5,0.2239,-0.5,0.5v0c0,0.2761,0.2239,0.5,0.5,0.5h5C10.2761,8,10.5,7.7761,10.5,7.5z" id="c2" fill="#d4d4d4"/>
  </g>
</svg>
