<?xml version="1.0" encoding="UTF-8"?>
<!DOCTYPE svg PUBLIC "-//W3C//DTD SVG 1.1//EN" "http://www.w3.org/Graphics/SVG/1.1/DTD/svg11.dtd">
<svg version="1.1" id="Layer_1" xmlns="http://www.w3.org/2000/svg" xmlns:xlink="http://www.w3.org/1999/xlink" x="0px" y="0px" width="16px" height="16px" viewBox="0 0 16 16" enable-background="new 0 0 16 16" xml:space="preserve">
  <g id="icon">
    <path d="M10.7,7H5.3c-0.1657,0,-0.3,-0.1343,-0.3,-0.3V2.3c0,-0.1657,0.1343,-0.3,0.3,-0.3h5.4c0.1657,0,0.3,0.1343,0.3,0.3v4.4C11,6.8657,10.8657,7,10.7,7zM10.7,8H5.3c-0.1657,0,-0.3,0.1343,-0.3,0.3v4.4c0,0.1657,0.1343,0.3,0.3,0.3h5.4c0.1657,0,0.3,-0.1343,0.3,-0.3V8.3C11,8.1343,10.8657,8,10.7,8zM3.7,7h-0.4c-0.1657,0,-0.3,-0.1343,-0.3,-0.3v-0.4c0,-0.1657,0.1343,-0.3,0.3,-0.3h0.4c0.1657,0,0.3,0.1343,0.3,0.3v0.4C4,6.8657,3.8657,7,3.7,7zM3.7,8h-0.4c-0.1657,0,-0.3,0.1343,-0.3,0.3v0.4c0,0.1657,0.1343,0.3,0.3,0.3h0.4c0.1657,0,0.3,-0.1343,0.3,-0.3v-0.4C4,8.1343,3.8657,8,3.7,8zM3.7,10h-0.4c-0.1657,0,-0.3,0.1343,-0.3,0.3v0.4c0,0.1657,0.1343,0.3,0.3,0.3h0.4c0.1657,0,0.3,-0.1343,0.3,-0.3v-0.4C4,10.1343,3.8657,10,3.7,10zM3.7,12h-0.4c-0.1657,0,-0.3,0.1343,-0.3,0.3v0.4c0,0.1657,0.1343,0.3,0.3,0.3h0.4c0.1657,0,0.3,-0.1343,0.3,-0.3v-0.4C4,12.1343,3.8657,12,3.7,12zM3.7,4h-0.4c-0.1657,0,-0.3,0.1343,-0.3,0.3v0.4c0,0.1657,0.1343,0.3,0.3,0.3h0.4c0.1657,0,0.3,-0.1343,0.3,-0.3v-0.4C4,4.1343,3.8657,4,3.7,4zM3.7,2h-0.4c-0.1657,0,-0.3,0.1343,-0.3,0.3v0.4c0,0.1657,0.1343,0.3,0.3,0.3h0.4c0.1657,0,0.3,-0.1343,0.3,-0.3v-0.4C4,2.1343,3.8657,2,3.7,2zM12.7,7h-0.4c-0.1657,0,-0.3,-0.1343,-0.3,-0.3v-0.4c0,-0.1657,0.1343,-0.3,0.3,-0.3h0.4c0.1657,0,0.3,0.1343,0.3,0.3v0.4C13,6.8657,12.8657,7,12.7,7zM12.7,8h-0.4c-0.1657,0,-0.3,0.1343,-0.3,0.3v0.4c0,0.1657,0.1343,0.3,0.3,0.3h0.4c0.1657,0,0.3,-0.1343,0.3,-0.3v-0.4C13,8.1343,12.8657,8,12.7,8zM12.7,10h-0.4c-0.1657,0,-0.3,0.1343,-0.3,0.3v0.4c0,0.1657,0.1343,0.3,0.3,0.3h0.4c0.1657,0,0.3,-0.1343,0.3,-0.3v-0.4C13,10.1343,12.8657,10,12.7,10zM12.7,12h-0.4c-0.1657,0,-0.3,0.1343,-0.3,0.3v0.4c0,0.1657,0.1343,0.3,0.3,0.3h0.4c0.1657,0,0.3,-0.1343,0.3,-0.3v-0.4C13,12.1343,12.8657,12,12.7,12zM12.7,4h-0.4c-0.1657,0,-0.3,0.1343,-0.3,0.3v0.4c0,0.1657,0.1343,0.3,0.3,0.3h0.4c0.1657,0,0.3,-0.1343,0.3,-0.3v-0.4C13,4.1343,12.8657,4,12.7,4zM12.7,2h-0.4c-0.1657,0,-0.3,0.1343,-0.3,0.3v0.4c0,0.1657,0.1343,0.3,0.3,0.3h0.4c0.1657,0,0.3,-0.1343,0.3,-0.3v-0.4C13,2.1343,12.8657,2,12.7,2z" id="b" fill="#262626"/>
    <path d="M13.025,1H2.975C2.4365,1,2,1.4365,2,1.975v11.05c0,0.5385,0.4365,0.975,0.975,0.975h10.05c0.5385,0,0.975,-0.4365,0.975,-0.975V1.975C14,1.4365,13.5635,1,13.025,1zM4,12.7c0,0.1657,-0.1343,0.3,-0.3,0.3h-0.4c-0.1657,0,-0.3,-0.1343,-0.3,-0.3v-0.4c0,-0.1657,0.1343,-0.3,0.3,-0.3h0.4c0.1657,0,0.3,0.1343,0.3,0.3V12.7zM4,10.7c0,0.1657,-0.1343,0.3,-0.3,0.3h-0.4c-0.1657,0,-0.3,-0.1343,-0.3,-0.3v-0.4c0,-0.1657,0.1343,-0.3,0.3,-0.3h0.4c0.1657,0,0.3,0.1343,0.3,0.3V10.7zM4,8.7c0,0.1657,-0.1343,0.3,-0.3,0.3h-0.4c-0.1657,0,-0.3,-0.1343,-0.3,-0.3v-0.4c0,-0.1657,0.1343,-0.3,0.3,-0.3h0.4c0.1657,0,0.3,0.1343,0.3,0.3V8.7zM4,6.7c0,0.1657,-0.1343,0.3,-0.3,0.3h-0.4c-0.1657,0,-0.3,-0.1343,-0.3,-0.3v-0.4c0,-0.1657,0.1343,-0.3,0.3,-0.3h0.4c0.1657,0,0.3,0.1343,0.3,0.3V6.7zM4,4.7c0,0.1657,-0.1343,0.3,-0.3,0.3h-0.4c-0.1657,0,-0.3,-0.1343,-0.3,-0.3v-0.4c0,-0.1657,0.1343,-0.3,0.3,-0.3h0.4c0.1657,0,0.3,0.1343,0.3,0.3V4.7zM4,2.7c0,0.1657,-0.1343,0.3,-0.3,0.3h-0.4c-0.1657,0,-0.3,-0.1343,-0.3,-0.3v-0.4c0,-0.1657,0.1343,-0.3,0.3,-0.3h0.4c0.1657,0,0.3,0.1343,0.3,0.3V2.7zM11,12.7c0,0.1657,-0.1343,0.3,-0.3,0.3H5.3c-0.1657,0,-0.3,-0.1343,-0.3,-0.3V8.3c0,-0.1657,0.1343,-0.3,0.3,-0.3h5.4c0.1657,0,0.3,0.1343,0.3,0.3V12.7zM11,6.7c0,0.1657,-0.1343,0.3,-0.3,0.3H5.3c-0.1657,0,-0.3,-0.1343,-0.3,-0.3V2.3c0,-0.1657,0.1343,-0.3,0.3,-0.3h5.4c0.1657,0,0.3,0.1343,0.3,0.3V6.7zM13,12.7c0,0.1657,-0.1343,0.3,-0.3,0.3h-0.4c-0.1657,0,-0.3,-0.1343,-0.3,-0.3v-0.4c0,-0.1657,0.1343,-0.3,0.3,-0.3h0.4c0.1657,0,0.3,0.1343,0.3,0.3V12.7zM13,10.7c0,0.1657,-0.1343,0.3,-0.3,0.3h-0.4c-0.1657,0,-0.3,-0.1343,-0.3,-0.3v-0.4c0,-0.1657,0.1343,-0.3,0.3,-0.3h0.4c0.1657,0,0.3,0.1343,0.3,0.3V10.7zM13,8.7c0,0.1657,-0.1343,0.3,-0.3,0.3h-0.4c-0.1657,0,-0.3,-0.1343,-0.3,-0.3v-0.4c0,-0.1657,0.1343,-0.3,0.3,-0.3h0.4c0.1657,0,0.3,0.1343,0.3,0.3V8.7zM13,6.7c0,0.1657,-0.1343,0.3,-0.3,0.3h-0.4c-0.1657,0,-0.3,-0.1343,-0.3,-0.3v-0.4c0,-0.1657,0.1343,-0.3,0.3,-0.3h0.4c0.1657,0,0.3,0.1343,0.3,0.3V6.7zM13,4.7c0,0.1657,-0.1343,0.3,-0.3,0.3h-0.4c-0.1657,0,-0.3,-0.1343,-0.3,-0.3v-0.4c0,-0.1657,0.1343,-0.3,0.3,-0.3h0.4c0.1657,0,0.3,0.1343,0.3,0.3V4.7zM13,2.7c0,0.1657,-0.1343,0.3,-0.3,0.3h-0.4c-0.1657,0,-0.3,-0.1343,-0.3,-0.3v-0.4c0,-0.1657,0.1343,-0.3,0.3,-0.3h0.4c0.1657,0,0.3,0.1343,0.3,0.3V2.7z" id="c1" fill="#d4d4d4"/>
  </g>
</svg>
