<?xml version="1.0" encoding="UTF-8"?>
<!DOCTYPE svg PUBLIC "-//W3C//DTD SVG 1.1//EN" "http://www.w3.org/Graphics/SVG/1.1/DTD/svg11.dtd">
<svg version="1.1" id="Layer_1" xmlns="http://www.w3.org/2000/svg" xmlns:xlink="http://www.w3.org/1999/xlink" x="0px" y="0px" width="16px" height="16px" viewBox="0 0 16 16" enable-background="new 0 0 16 16" xml:space="preserve">
  <g id="icon">
    <path d="M13.4917,5.8h-2.0984c0.0032,-0.022,0.0067,-0.0438,0.0067,-0.0667V3.1667c0,-0.2577,-0.2089,-0.4667,-0.4667,-0.4667H5.0667C4.8089,2.7,4.6,2.9089,4.6,3.1667v2.5667c0,0.0228,0.0036,0.0447,0.0067,0.0667H2.5083C2.0067,5.8,1.6,6.2067,1.6,6.7083v3.8833c0,0.5017,0.4067,0.9083,0.9083,0.9083H4.4v2.2667c0,0.405,0.3283,0.7333,0.7333,0.7333h5.5333c0.405,0,0.7333,-0.3283,0.7333,-0.7333V11.5h2.0917c0.5017,0,0.9083,-0.4067,0.9083,-0.9083V6.7083C14.4,6.2067,13.9933,5.8,13.4917,5.8z" id="b" fill="#262626"/>
    <path d="M4.0001,3.5c0,-0.8284,0.6716,-1.5,1.5,-1.5h5c0.8284,0,1.5,0.6716,1.5,1.5v1.5H13c1.1046,0,2,0.8954,2,2v3.5c0,0.8284,-0.6716,1.5,-1.5,1.5h-1.5v1.5c0,0.8284,-0.6716,1.5,-1.5,1.5H5.5001c-0.8284,0,-1.5,-0.6716,-1.5,-1.5v-1.5H2.5c-0.8284,0,-1.5,-0.6716,-1.5,-1.5V7c0,-1.1046,0.8954,-2,2,-2h1.0001V3.5zM11,5V3.5c0,-0.2761,-0.2239,-0.5,-0.5,-0.5H5.5c-0.2761,0,-0.5,0.2239,-0.5,0.5v1.5H11zM4.0001,6H3c-0.5523,0,-1,0.4477,-1,1v3.5c0,0.2761,0.2239,0.5,0.5,0.5h1.5001v-0.5c0,-0.8285,0.6716,-1.5,1.5,-1.5H10.5c0.8284,0,1.5,0.6716,1.5,1.5v0.5h1.5c0.2761,0,0.5,-0.2239,0.5,-0.5V7c0,-0.5523,-0.4477,-1,-1,-1h-0.9999H4.0001zM5.5001,10c-0.2761,0,-0.5,0.2238,-0.5,0.5v3c0,0.2761,0.2239,0.5,0.5,0.5H10.5c0.2761,0,0.5,-0.2239,0.5,-0.5v-3c0,-0.2762,-0.2239,-0.5,-0.5,-0.5H5.5001z" id="c1" fill="#d4d4d4"/>
  </g>
</svg>
