<?xml version="1.0" encoding="UTF-8"?>
<!DOCTYPE svg PUBLIC "-//W3C//DTD SVG 1.1//EN" "http://www.w3.org/Graphics/SVG/1.1/DTD/svg11.dtd">
<svg version="1.1" id="Layer_1" xmlns="http://www.w3.org/2000/svg" xmlns:xlink="http://www.w3.org/1999/xlink" x="0px" y="0px" width="16px" height="16px" viewBox="0 0 16 16" enable-background="new 0 0 16 16" xml:space="preserve">
  <g id="main">
    <g id="icon">
      <path d="M3.146,2.583L2.81,2.81L2.583,3.146L2.5,3.558L2.5,12.44L2.583,12.85L2.81,13.19L3.146,13.42L3.558,13.5L12.44,13.5L12.85,13.42L13.19,13.19L13.42,12.85L13.5,12.44L13.5,6.059L10.86,8.695L10.44,9.029L9.955,9.256L7.953,9.924L7.484,10L7.483,10L7.192,9.971L6.915,9.888L6.661,9.752L6.435,9.566L6.255,9.348L6.157,9.333L6.188,9.24L6.067,8.96L6.006,8.661L6.009,8.354L6.077,8.047L6.744,6.045L6.972,5.558L7.305,5.137L9.942,2.5L3.558,2.5zz" fill="#262626"/>
      <path d="M3.245,2.032L2.952,2.123L2.688,2.267L2.457,2.457L2.267,2.688L2.123,2.952L2.032,3.245L2,3.558L2,12.44L2.032,12.76L2.123,13.05L2.267,13.31L2.457,13.54L2.688,13.73L2.952,13.88L3.245,13.97L3.558,14L12.44,14L12.76,13.97L13.05,13.88L13.31,13.73L13.54,13.54L13.73,13.31L13.88,13.05L13.97,12.76L14,12.44L14,5.559L13,6.559L13,12.44L12.96,12.66L12.84,12.84L12.66,12.96L12.44,13L3.558,13L3.341,12.96L3.164,12.84L3.044,12.66L3,12.44L3,3.558L3.044,3.341L3.164,3.164L3.341,3.044L3.558,3L9.442,3L10.44,2L3.558,2zz" fill="#d4d4d4"/>
    </g>
    <g id="overlay">
      <path d="M7.4834,8.5167l0.6679,-2.003c0.041,-0.1229,0.111,-0.2363,0.2027,-0.3279l5.4004,-5.4c0.1951,-0.1951,0.4545,-0.3025,0.7303,-0.3025c0.2759,0,0.5352,0.1074,0.7303,0.3025c0.4027,0.4027,0.4026,1.0579,-0.0001,1.4606L9.8145,7.6464c-0.0916,0.0916,-0.205,0.1616,-0.3279,0.2026l-2.003,0.6677l0.0001,0L7.4834,8.5167z" id="b" fill="#171717"/>
      <path d="M7.4837,9c-0.1291,0,-0.2505,-0.0503,-0.3418,-0.1416c-0.1303,-0.1303,-0.1751,-0.3198,-0.1167,-0.4946l0.6676,-2.003c0.0646,-0.1937,0.1751,-0.3724,0.3195,-0.5169l5.4004,-5.4C13.699,0.1577,14.0797,0,14.4847,0s0.7857,0.1577,1.072,0.444c0.5911,0.5912,0.5911,1.5531,0,2.1442l-5.4004,5.4c-0.1445,0.1444,-0.3232,0.2549,-0.5168,0.3194l-2.003,0.6676C7.5871,8.9916,7.5357,9,7.4837,9L7.4837,9zM14.4846,0.9666c-0.1467,0,-0.2847,0.0572,-0.3884,0.1609l-5.4004,5.4c-0.0388,0.0388,-0.0686,0.0869,-0.086,0.1391l-0.3619,1.0859l1.086,-0.362c0.0521,-0.0174,0.1001,-0.0471,0.139,-0.086l4.6074,-4.6074l0.0139,-0.0134l0.779,-0.7792c0.1038,-0.1038,0.161,-0.2417,0.161,-0.3885s-0.0572,-0.2847,-0.161,-0.3885C14.7693,1.0238,14.6313,0.9666,14.4846,0.9666z" fill="#06b6d4"/>
    </g>
  </g>
</svg>
