<?xml version="1.0" encoding="UTF-8"?>
<!DOCTYPE svg PUBLIC "-//W3C//DTD SVG 1.1//EN" "http://www.w3.org/Graphics/SVG/1.1/DTD/svg11.dtd">
<svg version="1.1" id="Layer_1" xmlns="http://www.w3.org/2000/svg" xmlns:xlink="http://www.w3.org/1999/xlink" x="0px" y="0px" width="16px" height="16px" viewBox="0 0 16 16" enable-background="new 0 0 16 16" xml:space="preserve">
  <g id="main">
    <g id="icon">
      <path d="M7.469,1.635L7.02,1.775L6.614,1.997L6.26,2.291L5.968,2.647L5.748,3.056L5.608,3.507L5.56,3.991L5.608,4.475L5.748,4.926L5.968,5.334L6.26,5.69L6.614,5.984L7.02,6.206L7.469,6.346L7.95,6.395L8.431,6.346L8.88,6.206L9.286,5.984L9.64,5.69L9.932,5.334L10.15,4.926L10.29,4.475L10.34,3.991L10.29,3.507L10.15,3.056L9.932,2.647L9.64,2.291L9.286,1.997L8.88,1.775L8.431,1.635L7.95,1.586zM3.711,8.682L3.387,8.9L3.168,9.223L3.088,9.619L3.088,10.17L3.173,10.87L3.423,11.55L3.832,12.19L4.391,12.77L5.095,13.26L5.936,13.64L6.506,13.78L6.368,13.48L6.167,12.85L6.043,12.19L6,11.5L6.029,10.94L6.112,10.39L6.248,9.866L6.433,9.361L6.665,8.88L6.834,8.602L4.106,8.602zz" fill="#262626"/>
      <path d="M7.352,1.061L6.795,1.235L6.291,1.512L5.851,1.877L5.488,2.32L5.214,2.828L5.041,3.389L4.98,3.991L5.041,4.593L5.214,5.154L5.488,5.662L5.851,6.105L6.291,6.47L6.795,6.746L7.352,6.921L7.95,6.982L8.442,6.932L8.88,6.665L9.361,6.433L9.866,6.248L9.882,6.244L10.05,6.105L10.41,5.662L10.69,5.154L10.86,4.593L10.92,3.991L10.86,3.389L10.69,2.828L10.41,2.32L10.05,1.877L9.609,1.512L9.105,1.235L8.548,1.061L7.95,1zM8.351,2.027L8.724,2.144L9.062,2.329L9.357,2.574L9.6,2.871L9.784,3.211L9.9,3.587L9.94,3.991L9.9,4.394L9.784,4.77L9.6,5.111L9.357,5.408L9.062,5.653L8.724,5.838L8.351,5.955L7.95,5.995L7.549,5.955L7.176,5.838L6.838,5.653L6.543,5.408L6.3,5.111L6.116,4.77L6,4.394L5.96,3.991L6,3.587L6.116,3.211L6.3,2.871L6.543,2.574L6.838,2.329L7.176,2.144L7.549,2.027L7.95,1.986zM3.783,8.048L3.482,8.142L3.209,8.29L2.971,8.486L2.775,8.723L2.626,8.995L2.533,9.296L2.5,9.619L2.5,10.17L2.595,10.98L2.875,11.77L3.332,12.51L3.959,13.17L4.747,13.73L5.688,14.17L6.214,14.33L6.775,14.45L6.88,14.47L6.641,14.07L6.368,13.48L6.319,13.32L6.104,13.27L5.331,12.93L4.685,12.5L4.171,11.98L3.796,11.41L3.566,10.8L3.488,10.17L3.488,9.619L3.537,9.379L3.67,9.183L3.866,9.05L4.106,9.002L6.606,9.002L6.665,8.88L6.941,8.427L7.248,8.016L4.106,8.016zz" fill="#d4d4d4"/>
    </g>
    <g id="overlay">
      <path d="M15.5361,11.5c0,2.2291,-1.807,4.0361,-4.0361,4.0361S7.4639,13.7291,7.4639,11.5S9.2709,7.4639,11.5,7.4639S15.5361,9.2709,15.5361,11.5z" fill="#262626"/>
      <path d="M11.5,16c-2.4813,0,-4.5,-2.0187,-4.5,-4.5s2.0187,-4.5,4.5,-4.5s4.5,2.0187,4.5,4.5S13.9813,16,11.5,16zM11.5,7.9648c-1.9493,0,-3.5352,1.5859,-3.5352,3.5352S9.5507,15.0352,11.5,15.0352s3.5352,-1.5859,3.5352,-3.5352S13.4493,7.9648,11.5,7.9648z" fill="#d4d4d4"/>
      <path d="M13.0545,13.5421c-0.1303,0,-0.2528,-0.0507,-0.3449,-0.1427L11.5,12.1898l-1.2096,1.2096c-0.092,0.092,-0.2145,0.1427,-0.3449,0.1427c-0.1661,0,-0.3199,-0.084,-0.4112,-0.2247c-0.1235,-0.1903,-0.0926,-0.4488,0.0734,-0.6148L10.8102,11.5l-1.2026,-1.2026c-0.166,-0.1659,-0.1969,-0.4245,-0.0734,-0.6148c0.0913,-0.1407,0.245,-0.2247,0.4112,-0.2247c0.1304,0,0.2528,0.0507,0.3449,0.1427L11.5,10.8102l1.2026,-1.2026c0.0946,-0.0947,0.2248,-0.149,0.3572,-0.149c0.0923,0,0.1814,0.0262,0.2576,0.0757c0.1256,0.0815,0.2065,0.2127,0.222,0.3599c0.0155,0.1473,-0.0355,0.2917,-0.14,0.3962L12.1898,11.5l1.2026,1.2026c0.166,0.1659,0.1969,0.4245,0.0734,0.6148C13.3744,13.4581,13.2207,13.5421,13.0545,13.5421z" fill="#fda4af"/>
    </g>
  </g>
</svg>
