<?xml version="1.0" encoding="UTF-8"?>
<!DOCTYPE svg PUBLIC "-//W3C//DTD SVG 1.1//EN" "http://www.w3.org/Graphics/SVG/1.1/DTD/svg11.dtd">
<svg version="1.1" id="Layer_1" xmlns="http://www.w3.org/2000/svg" xmlns:xlink="http://www.w3.org/1999/xlink" x="0px" y="0px" width="16px" height="16px" viewBox="0 0 16 16" enable-background="new 0 0 16 16" xml:space="preserve">
  <g id="icon">
    <path d="M10.6752,14.7c-0.21,0,-0.4191,-0.0287,-0.6217,-0.0852c-1.8168,-0.5071,-3.5,-2.0839,-5.0026,-4.6864C3.5462,7.3222,3.0229,5.0737,3.4956,3.2452c0.2009,-0.7774,0.8034,-1.4043,1.5722,-1.636l0.8133,-0.2452c0.1521,-0.0458,0.3091,-0.0691,0.4667,-0.0691c0.635,0,1.2137,0.3745,1.4742,0.954l0.6284,1.3978c0.2838,0.6314,0.1344,1.3729,-0.3719,1.8451L7.037,6.4629c-0.0829,0.0771,-0.1354,0.1817,-0.1479,0.2944c-0.041,0.3674,0.1701,0.9554,0.6273,1.7475c0.3264,0.5653,0.6298,0.9742,0.9018,1.2155c0.1934,0.1715,0.3425,0.2479,0.4835,0.2479c0.0352,0,0.0696,-0.0049,0.1022,-0.0146l1.4032,-0.429c0.1536,-0.047,0.3126,-0.0708,0.4725,-0.0708c0.5179,0,1.008,0.2507,1.311,0.6708l0.8926,1.237c0.4718,0.6539,0.3861,1.5651,-0.1994,2.1196l-0.6177,0.585C11.8346,14.475,11.2696,14.7,10.6752,14.7z" id="b" fill="#262626"/>
    <path d="M4.9811,1.3219l0.8133,-0.2451c0.9217,-0.2778,1.9064,0.1712,2.3011,1.0491l0.6284,1.3978c0.3364,0.7484,0.1591,1.6279,-0.4409,2.1875l-1.0414,0.9711c-0.0305,0.0284,-0.0498,0.0667,-0.0544,0.1081c-0.0309,0.2767,0.1567,0.8157,0.589,1.5644c0.3144,0.5445,0.5989,0.9263,0.841,1.1411c0.1687,0.1496,0.2616,0.182,0.3012,0.1702l1.401,-0.4283c0.7844,-0.2398,1.6345,0.0461,2.1145,0.7113l0.8925,1.237c0.5618,0.7786,0.4608,1.8527,-0.2363,2.5129l-0.6177,0.585c-0.6665,0.6313,-1.6154,0.8665,-2.4996,0.6197c-1.9194,-0.5357,-3.6403,-2.1555,-5.1817,-4.8254c-1.5436,-2.6736,-2.0853,-4.9766,-1.586,-6.9083C3.4336,2.2861,4.1069,1.5854,4.9811,1.3219zM5.2828,2.3228c-0.5245,0.1581,-0.9285,0.5785,-1.0656,1.1089c-0.42,1.6249,0.0601,3.666,1.4792,6.124c1.4172,2.4546,2.9427,3.8904,4.5575,4.3411c0.5305,0.1481,1.0998,0.007,1.4998,-0.3718l0.6177,-0.585c0.3169,-0.3001,0.3628,-0.7883,0.1075,-1.1422l-0.8925,-1.237c-0.2182,-0.3023,-0.6046,-0.4324,-0.9612,-0.3233l-1.4045,0.4294c-0.8152,0.243,-1.5551,-0.4131,-2.3496,-1.7893c-0.5354,-0.9274,-0.785,-1.6443,-0.7226,-2.2031c0.0323,-0.2896,0.1672,-0.5579,0.3803,-0.7566l1.0414,-0.9711c0.2728,-0.2544,0.3533,-0.6541,0.2004,-0.9943l-0.6284,-1.3978c-0.1794,-0.3991,-0.627,-0.6032,-1.046,-0.4769L5.2828,2.3228z" id="c1" fill="#d4d4d4"/>
  </g>
</svg>
