<?xml version="1.0" encoding="UTF-8"?>
<!DOCTYPE svg PUBLIC "-//W3C//DTD SVG 1.1//EN" "http://www.w3.org/Graphics/SVG/1.1/DTD/svg11.dtd">
<svg version="1.1" id="Layer_1" xmlns="http://www.w3.org/2000/svg" xmlns:xlink="http://www.w3.org/1999/xlink" x="0px" y="0px" width="16px" height="16px" viewBox="0 0 16 16" enable-background="new 0 0 16 16" xml:space="preserve">
  <g id="icon">
    <path d="M3,15c-0.0224,0,-0.0452,-0.0011,-0.0681,-0.0035c-0.3543,-0.0362,-0.6319,-0.3736,-0.6319,-0.7681v-3.4777c-0.0004,-0.3031,0.1723,-0.5764,0.4288,-0.6922l0.0296,-0.042l0.0192,0.0004l0.0143,-0.0153l0.0722,0.0126c0.0123,-0.0026,0.0246,-0.0048,0.037,-0.0067l0.0474,-0.034L3.0201,10l3.4125,-0.0051c0.2119,0,0.4142,0.0897,0.5561,0.2461c0.1418,0.1563,0.2118,0.3672,0.1919,0.5787c-0.0358,0.3809,-0.3728,0.6797,-0.7672,0.6803l-1.8396,0.0027c0.885,0.9171,2.1219,1.4519,3.4021,1.4519c2.6048,0,4.7241,-2.1255,4.7241,-4.7382l-0.0003,-0.0497c-0.0009,-0.1449,0.0315,-0.2904,0.1081,-0.4134c0.1439,-0.2309,0.3826,-0.362,0.6419,-0.362c0.4083,0,0.7449,0.3332,0.7503,0.7428l0.0005,0.1381c0,3.4312,-2.7915,6.2226,-6.2227,6.2226c-1.5993,0,-3.1262,-0.6143,-4.2779,-1.7041V14.25C3.7,14.6636,3.386,15,3,15zM2.5503,8.6088c-0.4083,0,-0.7449,-0.3332,-0.7503,-0.7428l-0.0005,-0.1382c0,-3.4312,2.7915,-6.2226,6.2227,-6.2226c1.5993,0,3.1262,0.6143,4.2779,1.7041v-1.434c0,-0.3811,0.3084,-0.7429,0.6883,-0.7728c0.044,-0.0035,0.0889,-0.0033,0.1346,0.001c0.3796,0.0362,0.6771,0.3736,0.6771,0.7681v3.4777c0.0004,0.3031,-0.1846,0.5764,-0.4594,0.6922l-0.0317,0.042l-0.0206,-0.0004l-0.0153,0.0153l-0.0774,-0.0126c-0.0131,0.0026,-0.0263,0.0048,-0.0396,0.0067l-0.0507,0.034L13.0284,6l-3.461,0.0051c-0.2119,0,-0.4142,-0.0897,-0.5561,-0.2461c-0.1418,-0.1563,-0.2118,-0.3672,-0.1919,-0.5787c0.0358,-0.3809,0.3728,-0.6797,0.7672,-0.6803l1.8396,-0.0027c-0.885,-0.9171,-2.1219,-1.452,-3.4021,-1.452C5.4192,3.0453,3.3,5.1709,3.3,7.7837l0.0003,0.0497c0.0009,0.1449,-0.0315,0.2904,-0.1081,0.4134C3.0483,8.4778,2.8096,8.6088,2.5503,8.6088z" id="c1" fill="#d4d4d4"/>
  </g>
</svg>
