<?xml version="1.0" encoding="UTF-8"?>
<!DOCTYPE svg PUBLIC "-//W3C//DTD SVG 1.1//EN" "http://www.w3.org/Graphics/SVG/1.1/DTD/svg11.dtd">
<svg version="1.1" id="Layer_1" xmlns="http://www.w3.org/2000/svg" xmlns:xlink="http://www.w3.org/1999/xlink" x="0px" y="0px" width="16px" height="16px" viewBox="0 0 16 16" enable-background="new 0 0 16 16" xml:space="preserve">
  <g id="icon">
    <path d="M6.25,14.4997L1.6182,9.8518c-0.1066,-0.107,-0.1801,-1.9706,-0.0737,-2.0773l5.39,-5.408c0.2671,-0.268,0.6223,-0.4156,1.0003,-0.4156c0.3787,0,0.7348,0.1481,1.0027,0.4169L10.15,3.5844l1.8273,-1.8333c0.303,-0.304,0.7061,-0.4714,1.1349,-0.4714c0.4296,0,0.8336,0.168,1.1376,0.4729c0.627,0.629,0.6277,1.652,0.0015,2.2803L12.4241,5.866l1.2122,1.2163c0.5527,0.5545,0.5532,1.4561,0.0013,2.0098l-5.39,5.408C8.1962,14.5517,6.3017,14.5515,6.25,14.4997z" id="b" fill="#262626"/>
    <path d="M7.2119,15c-0.5279,0,-1.0243,-0.2038,-1.3976,-0.5739l-4.2282,-4.265c-0.7711,-0.7643,-0.7827,-2.0222,-0.026,-2.8041l5.2124,-5.1979c0.3119,-0.3128,0.7266,-0.485,1.1678,-0.485c0.4419,0,0.8575,0.1727,1.1701,0.4863l1.0614,1.0643l1.6787,-1.6835c0.3481,-0.349,0.8109,-0.5411,1.3033,-0.5411c0.4932,0,0.957,0.1927,1.3059,0.5426c0.7199,0.7219,0.7205,1.8958,0.0015,2.6169l-1.6786,1.6834l1.061,1.0641c0.645,0.6468,0.6455,1.6986,0.0013,2.3447L8.618,14.4178C8.2437,14.7932,7.7443,15,7.2119,15L7.2119,15zM2.2637,8.049c-0.3772,0.3951,-0.3689,1.0283,0.0181,1.412l4.2283,4.2651c0.1867,0.1851,0.4355,0.2869,0.7006,0.2869c0.269,0,0.5213,-0.1044,0.7104,-0.2941l3.5025,-3.4641L5.7723,4.5874L2.2637,8.049zM7.9415,2.6812c-0.1732,0,-0.3361,0.0676,-0.4585,0.1904L6.4819,3.8756l5.6513,5.6674l1.0012,-1.004c0.2529,-0.2536,0.2527,-0.6665,-0.0004,-0.9203l-1.4164,-1.4204c-0.1959,-0.1965,-0.1961,-0.516,-0.0004,-0.7122l2.0335,-2.0393c0.3277,-0.3286,0.3274,-0.8635,-0.0005,-1.1924c-0.159,-0.1595,-0.3704,-0.2473,-0.5952,-0.2473c-0.2245,0,-0.4355,0.0877,-0.5941,0.2468l-2.0335,2.0393c-0.0947,0.0949,-0.2206,0.1472,-0.3546,0.1472c-0.1342,0,-0.2604,-0.0524,-0.3554,-0.1477L8.4009,2.8722C8.2781,2.749,8.115,2.6812,7.9415,2.6812z" fill="#d4d4d4"/>
  </g>
</svg>
