<?xml version="1.0" encoding="UTF-8"?>
<!DOCTYPE svg PUBLIC "-//W3C//DTD SVG 1.1//EN" "http://www.w3.org/Graphics/SVG/1.1/DTD/svg11.dtd">
<svg version="1.1" id="Layer_1" xmlns="http://www.w3.org/2000/svg" xmlns:xlink="http://www.w3.org/1999/xlink" x="0px" y="0px" width="16px" height="16px" viewBox="0 0 16 16" enable-background="new 0 0 16 16" xml:space="preserve">
  <g id="icon">
    <path d="M3,10c-0.5523,0,-1,-0.4477,-1,-1V3c0,-0.5523,0.4477,-1,1,-1h2v1.5c0,0.8284,0.6716,1.5,1.5,1.5h1.5v4c0,0.5523,-0.4477,1,-1,1H3zM7.7929,4L6,2.2071V3.5c0,0.2761,0.2239,0.5,0.5,0.5H7.7929z" id="b" fill="#262626" opacity="0.3"/>
    <path d="M3,1c-1.1046,0,-2,0.8954,-2,2v6c0,1.1046,0.8954,2,2,2h4c1.1046,0,2,-0.8954,2,-2V4.4142c0,-0.3978,-0.158,-0.7793,-0.4393,-1.0607L6.6465,1.4393C6.3651,1.158,5.9836,1,5.5858,1H3zM2,3c0,-0.5523,0.4477,-1,1,-1h2v1.5c0,0.8284,0.6716,1.5,1.5,1.5h1.5v4c0,0.5523,-0.4477,1,-1,1H3c-0.5523,0,-1,-0.4477,-1,-1V3zM7.7929,4H6.5c-0.2761,0,-0.5,-0.2239,-0.5,-0.5V2.2071L7.7929,4z" id="c1" fill="#d4d4d4" opacity="0.3"/>
    <path d="M12.25,1.7H8.4833c-0.0505,0,-0.0998,0.0052,-0.1477,0.0144l0.9321,0.9321c0.4722,0.4722,0.7322,1.1,0.7322,1.7678V9c0,0.4655,-0.1066,0.9065,-0.2966,1.3h3.8132c0.4326,0,0.7833,-0.3507,0.7833,-0.7833V3.8L12.25,1.7z" id="b" fill="#262626"/>
    <path d="M14.5606,3.3535l-1.9142,-1.9141C12.3651,1.158,11.9836,1,11.5858,1H9c-0.0833,0,-0.1654,0.0052,-0.246,0.0152c-0.4037,0.0502,-0.5656,0.552,-0.2779,0.8396l0.0101,0.0101c0.1085,0.1085,0.2605,0.1561,0.4131,0.1403C8.9324,2.0018,8.966,2,9,2h2v1.5c0,0.8284,0.6716,1.5,1.5,1.5h1.5v4c0,0.5523,-0.4477,1,-1,1h-2.8426c-0.1897,0,-0.3636,0.1081,-0.4448,0.2796c-0.0017,0.0035,-0.0034,0.0071,-0.005,0.0106c-0.1574,0.3292,0.0798,0.7098,0.4448,0.7098H13c1.1046,0,2,-0.8954,2,-2V4.4142C15,4.0164,14.8419,3.6348,14.5606,3.3535zM12.5,4c-0.2761,0,-0.5,-0.2239,-0.5,-0.5V2.2071L13.7929,4H12.5z" id="c1" fill="#d4d4d4"/>
    <path d="M10.75,15.675c-0.128,0,-0.2559,-0.0488,-0.3536,-0.1464c-0.1953,-0.1953,-0.1953,-0.5119,0,-0.7071l0.7964,-0.7964H3.5c-0.2761,0,-0.5,-0.2239,-0.5,-0.5s0.2239,-0.5,0.5,-0.5h7.6929l-0.7964,-0.7964c-0.1953,-0.1953,-0.1953,-0.5119,0,-0.7071c0.1953,-0.1952,0.5118,-0.1952,0.7071,0l1.65,1.65c0.1953,0.1953,0.1953,0.5119,0,0.7071l-1.65,1.65C11.0059,15.6262,10.878,15.675,10.75,15.675z" id="c2" fill="#d4d4d4"/>
  </g>
</svg>
