<?xml version="1.0" encoding="UTF-8"?>
<!DOCTYPE svg PUBLIC "-//W3C//DTD SVG 1.1//EN" "http://www.w3.org/Graphics/SVG/1.1/DTD/svg11.dtd">
<svg version="1.1" id="Layer_1" xmlns="http://www.w3.org/2000/svg" xmlns:xlink="http://www.w3.org/1999/xlink" x="0px" y="0px" width="16px" height="16px" viewBox="0 0 16 16" enable-background="new 0 0 16 16" xml:space="preserve">
  <g id="icon">
    <path d="M9.6752,14.5H6.4248c-1.0359,0,-1.9033,-0.785,-2.0064,-1.8158L3.6,4.5h8.9l-0.8184,8.1842C11.5785,13.715,10.7111,14.5,9.6752,14.5z" id="b" fill="#262626"/>
    <path d="M13.5,4h-1h-1.5v-0.5083C11,2.3935,10.1065,1.5,9.0083,1.5H6.9917C5.8935,1.5,5,2.3935,5,3.4917V4H3.5H2.5c-0.2761,0,-0.5,0.2239,-0.5,0.5s0.2239,0.5,0.5,0.5h0.5475l0.783,7.8294C3.9542,14.0668,4.9853,15,6.2289,15h3.5422c1.2436,0,2.2747,-0.9332,2.3984,-2.1706L12.9525,5H13.5c0.2761,0,0.5,-0.2239,0.5,-0.5S13.7761,4,13.5,4zM6,3.4917C6,2.9449,6.4449,2.5,6.9917,2.5h2.0167c0.5468,0,0.9917,0.4449,0.9917,0.9917V4H6V3.4917zM11.1745,12.7299C11.1021,13.454,10.4988,14,9.7711,14H6.2289c-0.7277,0,-1.331,-0.546,-1.4034,-1.2701L4.0525,5H5.5h5h1.4475L11.1745,12.7299z" id="c1" fill="#d4d4d4"/>
  </g>
</svg>
