<?xml version="1.0" encoding="UTF-8"?>
<!DOCTYPE svg PUBLIC "-//W3C//DTD SVG 1.1//EN" "http://www.w3.org/Graphics/SVG/1.1/DTD/svg11.dtd">
<svg version="1.1" id="Layer_1" xmlns="http://www.w3.org/2000/svg" xmlns:xlink="http://www.w3.org/1999/xlink" x="0px" y="0px" width="16px" height="16px" viewBox="0 0 16 16" enable-background="new 0 0 16 16" xml:space="preserve">
  <g id="icon">
    <path d="M7.3623,3.138c1.5158,-1.5172,3.9753,-1.5172,5.4923,-0.0003c1.478,1.4781,1.5159,3.8509,0.1137,5.3748l-0.1218,0.1278l-5.6971,5.6959l-0.0237,0.0196c-0.946,0.8524,-2.4052,0.8235,-3.3163,-0.0877c-0.8539,-0.8539,-0.933,-2.1893,-0.2372,-3.1324c0.0151,-0.0294,0.0334,-0.0577,0.0549,-0.0843l0.0347,-0.0386l0.0563,-0.0568l0.0913,-0.0958l0.0019,0.0019L8.625,6.0363c0.1721,-0.1726,0.4418,-0.1886,0.6321,-0.0479l0.0546,0.0469c0.1726,0.1721,0.1886,0.4419,0.0478,0.6321l-0.0469,0.0545l-4.9168,4.9287c-0.4646,0.5669,-0.4323,1.4048,0.0969,1.934c0.5367,0.5367,1.3911,0.5623,1.9581,0.0767l5.7183,-5.7169c1.1365,-1.1379,1.1365,-2.9825,-0.0012,-4.1202c-1.1021,-1.1022,-2.8677,-1.1366,-4.0113,-0.1033l-0.1086,0.1033l-0.0082,0.0093l-6.1738,6.1738c-0.1896,0.1896,-0.497,0.1896,-0.6867,0c-0.1724,-0.1723,-0.188,-0.4421,-0.047,-0.6322l0.047,-0.0544l6.1819,-6.1831L7.3623,3.138z" id="c1" fill="#d4d4d4"/>
  </g>
</svg>
