<?xml version="1.0" encoding="UTF-8"?>
<!DOCTYPE svg PUBLIC "-//W3C//DTD SVG 1.1//EN" "http://www.w3.org/Graphics/SVG/1.1/DTD/svg11.dtd">
<svg version="1.1" id="Layer_1" xmlns="http://www.w3.org/2000/svg" xmlns:xlink="http://www.w3.org/1999/xlink" x="0px" y="0px" width="16px" height="16px" viewBox="0 0 16 16" enable-background="new 0 0 16 16" xml:space="preserve">
  <g id="icon">
    <path d="M9.9917,14.5H3.0083C2.1753,14.5,1.5,13.8247,1.5,12.9917V7.0083C1.5,6.1753,2.1753,5.5,3.0083,5.5h6.9833C10.8247,5.5,11.5,6.1753,11.5,7.0083v5.9833C11.5,13.8247,10.8247,14.5,9.9917,14.5z" id="b" fill="#262626"/>
    <path d="M9.9917,15H3.0083C1.9009,15,1,14.0991,1,12.9917V7.0083C1,5.9009,1.9009,5,3.0083,5h6.9833C11.0991,5,12,5.9009,12,7.0083v5.9833C12,14.0991,11.0991,15,9.9917,15zM3.0083,6C2.4523,6,2,6.4523,2,7.0083v5.9833C2,13.5477,2.4523,14,3.0083,14h6.9833c0.556,0,1.0083,-0.4523,1.0083,-1.0083V7.0083C11,6.4523,10.5477,6,9.9917,6H3.0083z" id="c1" fill="#d4d4d4"/>
    <path d="M12.9917,1.5H6.0083C5.1753,1.5,4.5,2.1753,4.5,3.0083V4h5.4917C11.6504,4,13,5.3496,13,7.0083v3.4912c0.8291,-0.0045,1.5,-0.6777,1.5,-1.5079V3.0083C14.5,2.1753,13.8247,1.5,12.9917,1.5z" id="b" fill="#262626"/>
    <path d="M12.9917,1H6.0083C4.9009,1,4,1.9009,4,3.0083V4h1v-0.9917C5,2.4523,5.4523,2,6.0083,2h6.9833C13.5477,2,14,2.4523,14,3.0083v5.9833c0,0.5532,-0.4479,1.0034,-1,1.0079v1c1.1036,-0.0046,2,-0.9033,2,-2.0079V3.0083C15,1.9009,14.0991,1,12.9917,1z" id="c1" fill="#d4d4d4"/>
  </g>
</svg>
