<?xml version="1.0" encoding="UTF-8"?>
<!DOCTYPE svg PUBLIC "-//W3C//DTD SVG 1.1//EN" "http://www.w3.org/Graphics/SVG/1.1/DTD/svg11.dtd">
<svg version="1.1" id="Layer_1" xmlns="http://www.w3.org/2000/svg" xmlns:xlink="http://www.w3.org/1999/xlink" x="0px" y="0px" width="16px" height="16px" viewBox="0 0 16 16" enable-background="new 0 0 16 16" xml:space="preserve">
  <g id="icon">
    <path d="M14.5,3.5c0,1.1046,-0.8954,2,-2,2s-2,-0.8954,-2,-2s0.8954,-2,2,-2S14.5,2.3954,14.5,3.5zM12.5,10.5c-1.1046,0,-2,0.8954,-2,2s0.8954,2,2,2s2,-0.8954,2,-2S13.6046,10.5,12.5,10.5zM3.5,6c-1.1046,0,-2,0.8954,-2,2s0.8954,2,2,2s2,-0.8954,2,-2S4.6046,6,3.5,6z" id="b" fill="#262626"/>
    <path d="M12.5,15c-1.3785,0,-2.5,-1.1215,-2.5,-2.5s1.1215,-2.5,2.5,-2.5s2.5,1.1215,2.5,2.5S13.8785,15,12.5,15zM12.5,11c-0.8271,0,-1.5,0.6729,-1.5,1.5s0.6729,1.5,1.5,1.5s1.5,-0.6729,1.5,-1.5S13.3271,11,12.5,11zM3.5,10.5c-1.3785,0,-2.5,-1.1215,-2.5,-2.5s1.1215,-2.5,2.5,-2.5s2.5,1.1215,2.5,2.5S4.8785,10.5,3.5,10.5zM3.5,6.5c-0.8271,0,-1.5,0.6729,-1.5,1.5s0.6729,1.5,1.5,1.5s1.5,-0.6729,1.5,-1.5S4.3271,6.5,3.5,6.5zM12.5,6c-1.3785,0,-2.5,-1.1215,-2.5,-2.5s1.1215,-2.5,2.5,-2.5s2.5,1.1215,2.5,2.5S13.8785,6,12.5,6zM12.5,2c-0.8271,0,-1.5,0.6729,-1.5,1.5s0.6729,1.5,1.5,1.5s1.5,-0.6729,1.5,-1.5S13.3271,2,12.5,2z" id="c2" fill="#d4d4d4"/>
    <path d="M10.3106,11.9464c-0.0783,0,-0.1578,-0.0185,-0.2319,-0.0574l-4.622,-2.4258c-0.2445,-0.1283,-0.3387,-0.4306,-0.2104,-0.6751c0.1284,-0.2446,0.4306,-0.3386,0.6751,-0.2104l4.622,2.4258c0.2445,0.1283,0.3387,0.4306,0.2104,0.6751C10.6644,11.849,10.4906,11.9464,10.3106,11.9464zM5.6893,7.4353c-0.1799,0,-0.3538,-0.0974,-0.4432,-0.2677c-0.1283,-0.2445,-0.0341,-0.5468,0.2104,-0.6751l4.6223,-2.426c0.2447,-0.1283,0.5468,-0.0341,0.6751,0.2104c0.1283,0.2445,0.0341,0.5468,-0.2104,0.6751l-4.6223,2.426C5.8471,7.4168,5.7676,7.4353,5.6893,7.4353z" id="c1" fill="#d4d4d4"/>
  </g>
</svg>
