<?xml version="1.0" encoding="UTF-8"?>
<!DOCTYPE svg PUBLIC "-//W3C//DTD SVG 1.1//EN" "http://www.w3.org/Graphics/SVG/1.1/DTD/svg11.dtd">
<svg version="1.1" id="Layer_1" xmlns="http://www.w3.org/2000/svg" xmlns:xlink="http://www.w3.org/1999/xlink" x="0px" y="0px" width="16px" height="16px" viewBox="0 0 16 16" enable-background="new 0 0 16 16" xml:space="preserve">
  <g id="icon">
    <path d="M10.6864,6.483c-0.0479,0,-0.0867,-0.0388,-0.0867,-0.0867l0,-0.6385c0,-0.0661,0.039,-0.1246,0.0981,-0.1541c0.781,-0.3888,1.2942,-1.2344,1.1881,-2.1869c-0.1107,-0.9938,-0.9121,-1.7933,-1.906,-1.9031c-1.3073,-0.1444,-2.4137,0.8744,-2.4137,2.1514c0,0.8478,0.4878,1.5813,1.1982,1.9367c0.0614,0.0307,0.1019,0.0911,0.1019,0.1598c0,0.1685,0,0.4834,0,0.6352c0,0.0479,-0.0388,0.0862,-0.0867,0.0862H7.4995c-0.5523,0,-1,0.4477,-1,1v1.299c0,0,-0.0384,0.0866,-0.0861,0.0724h-0.6385c-0.0654,0.0142,-0.1254,-0.0226,-0.1545,-0.0812c-0.3676,-0.7401,-1.145,-1.198,-2.0358,-1.1622c-1.0332,0.0415,-1.9118,0.8205,-2.0607,1.8437c-0.1956,1.3439,0.842,2.4974,2.1493,2.4974c0.8526,0,1.5901,-0.5342,1.946,-1.2483c0.0299,-0.0601,0.0912,-0.0979,0.1582,-0.1121h0.5493c0.0477,0.0142,0.1728,0.1008,0.1728,0.1008V12.5c0,0.5523,0.4477,1,1,1L12.5,13.5c0.5523,0,1,-0.4477,1,-1V7.483c0,-0.5523,-0.4477,-1,-1,-1H10.6864z" id="b" fill="#262626"/>
    <path d="M12.5,14H7.4995c-0.8271,0,-1.5,-0.6729,-1.5,-1.5v-1.4085h-0.0221c-0.4867,0.832,-1.3723,1.3604,-2.3043,1.3604c-0.7771,0,-1.5144,-0.3372,-2.0229,-0.9251c-0.5077,-0.587,-0.7341,-1.3685,-0.6212,-2.1443c0.184,-1.2644,1.2503,-2.2196,2.5354,-2.2713C4.5694,7.0717,5.466,7.5427,5.96,8.3544h0.0396V7.483c0,-0.8271,0.6729,-1.5,1.5,-1.5h0.8668v-0.0293c-0.8067,-0.4798,-1.3001,-1.3396,-1.3001,-2.2886c0,-0.7564,0.3235,-1.48,0.8875,-1.9852c0.5642,-0.5053,1.3231,-0.7472,2.0811,-0.6632c1.2243,0.1352,2.2118,1.1213,2.3481,2.3447c0.1163,1.0437,-0.3943,2.0601,-1.2832,2.5919v0.0297H12.5c0.8271,0,1.5,0.6729,1.5,1.5V12.5C14,13.3271,13.3271,14,12.5,14zM5.7773,10.0915h0.5493c0.0481,0,0.096,0.0069,0.1421,0.0207c0.034,0.0101,0.1245,0.0369,0.3153,0.169c0.1349,0.0934,0.2154,0.247,0.2154,0.4111V12.5c0,0.2757,0.2243,0.5,0.5,0.5H12.5c0.2757,0,0.5,-0.2243,0.5,-0.5V7.483c0,-0.2757,-0.2243,-0.5,-0.5,-0.5h-1.8136c-0.3235,0,-0.5867,-0.2632,-0.5867,-0.5867v-0.6386c0,-0.2558,0.1438,-0.4863,0.3751,-0.6016c0.6342,-0.3157,0.993,-0.9767,0.9142,-1.684c-0.085,-0.7625,-0.7007,-1.3771,-1.464,-1.4615c-0.4837,-0.0537,-0.9464,0.0937,-1.3042,0.4142c-0.3525,0.3157,-0.5546,0.7678,-0.5546,1.2403c0,0.6343,0.3532,1.2051,0.9218,1.4895c0.2334,0.1169,0.3783,0.3494,0.3783,0.607v0.6352c0,0.3232,-0.2632,0.5862,-0.5867,0.5862H7.4995c-0.2757,0,-0.5,0.2243,-0.5,0.5v1.2989c0,0.0698,-0.0146,0.1389,-0.043,0.2028c-0.111,0.2502,-0.3396,0.3915,-0.5782,0.3697h-0.5702c-0.2604,0.025,-0.5145,-0.1151,-0.6355,-0.3587c-0.2848,-0.5735,-0.8849,-0.9122,-1.568,-0.8852c-0.7913,0.0318,-1.4731,0.6406,-1.586,1.4161c-0.0721,0.4954,0.0657,0.9734,0.388,1.346c0.3184,0.3682,0.7801,0.5793,1.2666,0.5793c0.6162,0,1.2044,-0.3813,1.4985,-0.9713c0.0965,-0.1934,0.2796,-0.3312,0.5024,-0.3783C5.708,10.0951,5.7426,10.0915,5.7773,10.0915zM5.6697,8.3656c-0.0002,0,-0.0004,0.0001,-0.0006,0.0001C5.6693,8.3657,5.6695,8.3656,5.6697,8.3656z" id="c1" fill="#d4d4d4"/>
    <path d="M3.6662,10.4178c-0.3751,0,-0.6792,-0.3047,-0.6792,-0.6807c0,-0.3759,0.3041,-0.6807,0.6792,-0.6807c0.3751,0,0.6792,0.3047,0.6792,0.6807C4.3455,10.113,4.0414,10.4178,3.6662,10.4178zM9.7333,4.3379c-0.3751,0,-0.6792,-0.3047,-0.6792,-0.6807c0,-0.3759,0.3041,-0.6807,0.6792,-0.6807c0.3751,0,0.6792,0.3047,0.6792,0.6807C10.4125,4.0331,10.1084,4.3379,9.7333,4.3379z" id="c2" fill="#d4d4d4"/>
  </g>
</svg>
