<?xml version="1.0" encoding="UTF-8"?>
<!DOCTYPE svg PUBLIC "-//W3C//DTD SVG 1.1//EN" "http://www.w3.org/Graphics/SVG/1.1/DTD/svg11.dtd">
<svg version="1.1" id="Layer_1" xmlns="http://www.w3.org/2000/svg" xmlns:xlink="http://www.w3.org/1999/xlink" x="0px" y="0px" width="16px" height="16px" viewBox="0 0 16 16" enable-background="new 0 0 16 16" xml:space="preserve">
  <g id="icon">
    <path d="M8.5,1.5v1.8c0,0.2761,-0.2239,0.5,-0.5,0.5s-0.5,-0.2239,-0.5,-0.5V1.5c0,-0.2761,0.2239,-0.5,0.5,-0.5S8.5,1.2239,8.5,1.5zM10.5,1c-0.2761,0,-0.5,0.2239,-0.5,0.5v1.8c0,0.2761,0.2239,0.5,0.5,0.5s0.5,-0.2239,0.5,-0.5V1.5C11,1.2239,10.7761,1,10.5,1zM5.5,1c-0.2761,0,-0.5,0.2239,-0.5,0.5v1.8c0,0.2761,0.2239,0.5,0.5,0.5s0.5,-0.2239,0.5,-0.5V1.5C6,1.2239,5.7761,1,5.5,1zM8.5,12.7v1.8c0,0.2761,-0.2239,0.5,-0.5,0.5s-0.5,-0.2239,-0.5,-0.5v-1.8c0,-0.2761,0.2239,-0.5,0.5,-0.5S8.5,12.4239,8.5,12.7zM10.5,12.2c-0.2761,0,-0.5,0.2239,-0.5,0.5v1.8c0,0.2761,0.2239,0.5,0.5,0.5s0.5,-0.2239,0.5,-0.5v-1.8C11,12.4239,10.7761,12.2,10.5,12.2zM5.5,12.2c-0.2761,0,-0.5,0.2239,-0.5,0.5v1.8c0,0.2761,0.2239,0.5,0.5,0.5s0.5,-0.2239,0.5,-0.5v-1.8C6,12.4239,5.7761,12.2,5.5,12.2zM1.5,7.5h1.8c0.2761,0,0.5,0.2239,0.5,0.5s-0.2239,0.5,-0.5,0.5H1.5c-0.2761,0,-0.5,-0.2239,-0.5,-0.5S1.2239,7.5,1.5,7.5zM1,5.5c0,0.2761,0.2239,0.5,0.5,0.5h1.8c0.2761,0,0.5,-0.2239,0.5,-0.5s-0.2239,-0.5,-0.5,-0.5H1.5C1.2239,5,1,5.2239,1,5.5zM1,10.5c0,0.2761,0.2239,0.5,0.5,0.5h1.8c0.2761,0,0.5,-0.2239,0.5,-0.5s-0.2239,-0.5,-0.5,-0.5H1.5C1.2239,10,1,10.2239,1,10.5zM12.7,7.5h1.8c0.2761,0,0.5,0.2239,0.5,0.5s-0.2239,0.5,-0.5,0.5h-1.8c-0.2761,0,-0.5,-0.2239,-0.5,-0.5S12.4239,7.5,12.7,7.5zM12.2,5.5c0,0.2761,0.2239,0.5,0.5,0.5h1.8c0.2761,0,0.5,-0.2239,0.5,-0.5s-0.2239,-0.5,-0.5,-0.5h-1.8C12.4239,5,12.2,5.2239,12.2,5.5zM12.2,10.5c0,0.2761,0.2239,0.5,0.5,0.5h1.8c0.2761,0,0.5,-0.2239,0.5,-0.5s-0.2239,-0.5,-0.5,-0.5h-1.8C12.4239,10,12.2,10.2239,12.2,10.5z" id="c1" fill="#d4d4d4"/>
    <path d="M11.4333,12.5H4.5667C3.9776,12.5,3.5,12.0224,3.5,11.4333V4.5667C3.5,3.9776,3.9776,3.5,4.5667,3.5h6.8667C12.0224,3.5,12.5,3.9776,12.5,4.5667v6.8667C12.5,12.0224,12.0224,12.5,11.4333,12.5z" id="b" fill="#262626"/>
    <path d="M11.4333,13H4.5667C3.7028,13,3,12.2972,3,11.4333V4.5667C3,3.7028,3.7028,3,4.5667,3h6.8667C12.2972,3,13,3.7028,13,4.5667v6.8667C13,12.2972,12.2972,13,11.4333,13zM4.5667,4C4.2542,4,4,4.2542,4,4.5667v6.8667c0,0.3125,0.2542,0.5667,0.5667,0.5667h6.8667c0.3125,0,0.5667,-0.2542,0.5667,-0.5667V4.5667c0,-0.3125,-0.2542,-0.5667,-0.5667,-0.5667H4.5667z" id="c1" fill="#d4d4d4"/>
    <path d="M8.8592,9.7035L7.2306,5.8072C7.1528,5.6211,6.9709,5.5,6.7692,5.5h-0.0226c-0.2016,0,-0.3836,0.1211,-0.4613,0.3072L4.6535,9.7107c-0.0978,0.234,-0.0074,0.5188,0.2511,0.6462c0.0543,0.0268,0.1145,0.0386,0.1751,0.0417c0.2154,-0.0072,0.4032,-0.1398,0.4812,-0.3396L6.0031,9h1.5098l0.4423,1.0596c0.076,0.1976,0.2582,0.3288,0.4689,0.3385c0.2328,-0.0098,0.4397,-0.1807,0.4746,-0.4378C8.9104,9.8732,8.8931,9.7846,8.8592,9.7035zM6.4479,8l0.3101,-0.7425l0.31,0.7425H6.4479zM10,10.4L10,10.4c-0.2761,0,-0.5,-0.2239,-0.5,-0.5V6c0,-0.2761,0.2239,-0.5,0.5,-0.5h0c0.2761,0,0.5,0.2239,0.5,0.5v3.9C10.5,10.1761,10.2761,10.4,10,10.4z" id="c2" fill="#d4d4d4"/>
  </g>
</svg>
