<?xml version="1.0" encoding="UTF-8"?>
<!DOCTYPE svg PUBLIC "-//W3C//DTD SVG 1.1//EN" "http://www.w3.org/Graphics/SVG/1.1/DTD/svg11.dtd">
<svg version="1.1" id="Layer_1" xmlns="http://www.w3.org/2000/svg" xmlns:xlink="http://www.w3.org/1999/xlink" x="0px" y="0px" width="16px" height="16px" viewBox="0 0 16 16" enable-background="new 0 0 16 16" xml:space="preserve">
  <g id="icon">
    <circle cx="8" cy="8" r="6.4" id="b" fill="#262626"/>
    <path d="M14.92,8c0,3.8157,-3.1043,6.92,-6.92,6.92S1.08,11.8157,1.08,8c0,-0.2775,0.2258,-0.5034,0.5034,-0.5034s0.5033,0.2258,0.5033,0.5034c0,3.2606,2.6527,5.9133,5.9133,5.9133S13.9133,11.2606,13.9133,8S11.2606,2.0867,8,2.0867c-1.8772,0,-3.6015,0.8619,-4.7306,2.3646L3.2293,4.5h1.8632c0.2628,0,0.4992,0.1914,0.5232,0.4531C5.643,5.2498,5.4091,5.5,5.1178,5.5H2.5034C2.2254,5.5,2,5.2746,2,4.9966v-3.048c0,-0.2628,0.1914,-0.4992,0.4531,-0.5232C2.7498,1.3982,3,1.6321,3,1.9233v1.2826l0.3867,-0.3638C4.6564,1.7058,6.2947,1.08,8,1.08C11.8157,1.08,14.92,4.1843,14.92,8zM7.4531,4.5254C7.1914,4.5494,7,4.7859,7,5.0486v3.448C7,8.7746,7.2254,9,7.5034,9h2.5145c0.2912,0,0.5251,-0.2502,0.4979,-0.5469c-0.024,-0.2616,-0.2605,-0.4531,-0.5232,-0.4531H8V5.0233C8,4.7321,7.7498,4.4982,7.4531,4.5254z" id="c1" fill="#d4d4d4"/>
  </g>
</svg>
