<?xml version="1.0" encoding="UTF-8"?>
<!DOCTYPE svg PUBLIC "-//W3C//DTD SVG 1.1//EN" "http://www.w3.org/Graphics/SVG/1.1/DTD/svg11.dtd">
<svg version="1.1" id="Layer_1" xmlns="http://www.w3.org/2000/svg" xmlns:xlink="http://www.w3.org/1999/xlink" x="0px" y="0px" width="16px" height="16px" viewBox="0 0 16 16" enable-background="new 0 0 16 16" xml:space="preserve">
  <g id="icon">
    <path d="M7.0333,12.5C6.1865,12.5,5.5,11.8135,5.5,10.9667V3.5H4.0833C3.2089,3.5,2.5,4.2089,2.5,5.0833v7.8333C2.5,13.7911,3.2089,14.5,4.0833,14.5h5.8333c0.8745,0,1.5833,-0.7089,1.5833,-1.5833V12.5H7.0333z" id="b" fill="#262626"/>
    <path d="M11,12.5v0.4167C11,13.514,10.514,14,9.9167,14H4.0833C3.486,14,3,13.514,3,12.9167V5.0833C3,4.486,3.486,4,4.0833,4H5.5V3H4.0833C2.9346,3,2,3.9346,2,5.0833v7.8333C2,14.0654,2.9346,15,4.0833,15h5.8333c1.1488,0,2.0833,-0.9346,2.0833,-2.0833V12.5H11z" id="c1" fill="#d4d4d4"/>
    <path d="M13.5167,12.3H6.4833c-0.4326,0,-0.7833,-0.3507,-0.7833,-0.7833V2.4833C5.7,2.0507,6.0507,1.7,6.4833,1.7H12.25L14.3,3.8v7.7167C14.3,11.9493,13.9493,12.3,13.5167,12.3z" id="b" fill="#262626"/>
    <path d="M7,1c-1.1046,0,-2,0.8954,-2,2v8c0,1.1046,0.8954,2,2,2h6c1.1046,0,2,-0.8954,2,-2V4.4142c0,-0.3978,-0.158,-0.7793,-0.4393,-1.0607l-1.9143,-1.9142C12.3651,1.158,11.9836,1,11.5858,1H7zM6,3c0,-0.5523,0.4477,-1,1,-1h4v1.5c0,0.8284,0.6716,1.5,1.5,1.5h1.5v6c0,0.5523,-0.4477,1,-1,1H7c-0.5523,0,-1,-0.4477,-1,-1V3zM13.7929,4H12.5c-0.2761,0,-0.5,-0.2239,-0.5,-0.5V2.2071L13.7929,4z" id="c1" fill="#d4d4d4"/>
  </g>
</svg>
