<?xml version="1.0" encoding="UTF-8"?>
<!DOCTYPE svg PUBLIC "-//W3C//DTD SVG 1.1//EN" "http://www.w3.org/Graphics/SVG/1.1/DTD/svg11.dtd">
<svg version="1.1" id="Layer_1" xmlns="http://www.w3.org/2000/svg" xmlns:xlink="http://www.w3.org/1999/xlink" x="0px" y="0px" width="16px" height="16px" viewBox="0 0 16 16" enable-background="new 0 0 16 16" xml:space="preserve">
  <g id="icon">
    <path d="M14.6,4.575v6.85c0,1.146,-0.929,2.075,-2.075,2.075h-3.14c0.4223,-0.7377,0.665,-1.5908,0.665,-2.5c0,-2.7846,-2.2654,-5.05,-5.05,-5.05c-0.5221,0,-1.0259,0.0796,-1.5,0.2274V4.575C3.5,3.429,4.429,2.5,5.575,2.5h6.95C13.671,2.5,14.6,3.429,14.6,4.575z" id="b" fill="#262626"/>
    <path d="M12.5,2H5.5c-1.3807,0,-2.5,1.1193,-2.5,2.5v1.3302c0,0.2531,0.2467,0.4276,0.4882,0.3516c0.167,-0.0526,0.3378,-0.0968,0.5118,-0.1319V6h0.2971c0.2299,-0.0322,0.4643,-0.05,0.7029,-0.05s0.4731,0.0178,0.7029,0.05H14v5.5c0,0.8284,-0.6716,1.5,-1.5,1.5H9.6361c-0.0668,0.1543,-0.1411,0.3047,-0.2224,0.4507c-0.1373,0.2465,0.0416,0.5493,0.3238,0.5493H12.5c1.3807,0,2.5,-1.1193,2.5,-2.5V4.5C15,3.1193,13.8807,2,12.5,2zM14,5H4v-0.5c0,-0.8284,0.6716,-1.5,1.5,-1.5h7c0.8284,0,1.5,0.6716,1.5,1.5V5z" id="c1" fill="#d4d4d4"/>
    <path d="M6.5,4L6.5,4c-0.2761,0,-0.5,-0.2239,-0.5,-0.5V1.5c0,-0.2761,0.2239,-0.5,0.5,-0.5h0c0.2761,0,0.5,0.2239,0.5,0.5v2C7,3.7761,6.7761,4,6.5,4zM12,3.5V1.5c0,-0.2761,-0.2239,-0.5,-0.5,-0.5h0c-0.2761,0,-0.5,0.2239,-0.5,0.5v2c0,0.2761,0.2239,0.5,0.5,0.5h0C11.7761,4,12,3.7761,12,3.5z" id="c1" fill="#d4d4d4"/>
    <path d="M8.3587,7.2331C8.5323,7.0877,8.7558,7,9,7c0.5523,0,1,0.4477,1,1c0,0.3453,-0.175,0.6497,-0.4411,0.8294C9.2675,8.2199,8.8573,7.6781,8.3587,7.2331zM12,7c-0.5523,0,-1,0.4477,-1,1c0,0.5523,0.4477,1,1,1s1,-0.4477,1,-1C13,7.4477,12.5523,7,12,7z" id="c1" fill="#d4d4d4"/>
    <circle cx="5" cy="11" r="3.5564" id="b" fill="#262626"/>
    <path d="M5,15.05c-2.2332,0,-4.05,-1.8168,-4.05,-4.05S2.7668,6.95,5,6.95S9.05,8.7668,9.05,11S7.2332,15.05,5,15.05zM5,7.9317c-1.6918,0,-3.0683,1.3764,-3.0683,3.0683S3.3082,14.0683,5,14.0683S8.0683,12.6918,8.0683,11S6.6918,7.9317,5,7.9317zM6.6368,11.4936l0.0559,-0.0042c0.1187,-0.0161,0.226,-0.0866,0.3024,-0.1986c0.0881,-0.1292,0.12,-0.2916,0.0851,-0.4342c-0.0503,-0.2062,-0.2385,-0.3501,-0.4576,-0.3501h-1.129l-0.0001,-1.4413l-0.0042,-0.0542c-0.0335,-0.2479,-0.2939,-0.4013,-0.5158,-0.4013c-0.0402,0,-0.0795,0.0046,-0.1169,0.0138c-0.2061,0.0502,-0.3501,0.2384,-0.3501,0.4576l0.0001,1.8944l0.0026,0.1035l0.0016,0.0133c0.031,0.2288,0.2286,0.4013,0.4597,0.4013H6.6368z" id="c2" fill="#d4d4d4"/>
  </g>
</svg>
