<?xml version="1.0" encoding="UTF-8"?>
<!DOCTYPE svg PUBLIC "-//W3C//DTD SVG 1.1//EN" "http://www.w3.org/Graphics/SVG/1.1/DTD/svg11.dtd">
<svg version="1.1" id="Layer_1" xmlns="http://www.w3.org/2000/svg" xmlns:xlink="http://www.w3.org/1999/xlink" x="0px" y="0px" width="16px" height="16px" viewBox="0 0 16 16" enable-background="new 0 0 16 16" xml:space="preserve">
  <g id="icon">
    <path d="M11.5417,13.6H4.5583C3.4215,13.6,2.5,12.6785,2.5,11.5417V4.5583C2.5,3.4215,3.4215,2.5,4.5583,2.5h6.9833C12.6785,2.5,13.6,3.4215,13.6,4.5583v6.9833C13.6,12.6785,12.6785,13.6,11.5417,13.6z" id="b" fill="#262626"/>
    <path d="M4.5,2c-1.3807,0,-2.5,1.1193,-2.5,2.5v7c0,1.3807,1.1193,2.5,2.5,2.5h7c1.3807,0,2.5,-1.1193,2.5,-2.5V4.5c0,-1.3807,-1.1193,-2.5,-2.5,-2.5H4.5zM3,4.5c0,-0.8284,0.6716,-1.5,1.5,-1.5h7c0.8284,0,1.5,0.6716,1.5,1.5v7c0,0.8284,-0.6716,1.5,-1.5,1.5H4.5c-0.8284,0,-1.5,-0.6716,-1.5,-1.5V4.5z" id="c1" fill="#d4d4d4"/>
    <path d="M10.8536,6.8535c0.1952,-0.1953,0.1952,-0.5118,0,-0.7071c-0.1953,-0.1953,-0.5119,-0.1953,-0.7072,0L7,9.2929L5.8535,8.1465c-0.1953,-0.1953,-0.5118,-0.1953,-0.7071,0c-0.1953,0.1953,-0.1953,0.5118,0,0.7071l1.5,1.5c0.1953,0.1952,0.5118,0.1952,0.7071,0L10.8536,6.8535z" id="c2" fill="#d4d4d4"/>
  </g>
</svg>
