<?xml version="1.0" encoding="UTF-8"?>
<!DOCTYPE svg PUBLIC "-//W3C//DTD SVG 1.1//EN" "http://www.w3.org/Graphics/SVG/1.1/DTD/svg11.dtd">
<svg version="1.1" id="Layer_1" xmlns="http://www.w3.org/2000/svg" xmlns:xlink="http://www.w3.org/1999/xlink" x="0px" y="0px" width="16px" height="16px" viewBox="0 0 16 16" enable-background="new 0 0 16 16" xml:space="preserve">
  <g id="icon">
    <path d="M14.5,11.9917V5.0083C14.5,4.1753,13.8247,3.5,12.9917,3.5H3.0083C2.1753,3.5,1.5,4.1753,1.5,5.0083v6.9833C1.5,12.8247,2.1753,13.5,3.0083,13.5h9.9833C13.8247,13.5,14.5,12.8247,14.5,11.9917z" id="b" fill="#262626"/>
    <path d="M12.9917,14H3.0083C1.9009,14,1,13.0991,1,11.9917V5.0083C1,3.9009,1.9009,3,3.0083,3h9.9833C14.0991,3,15,3.9009,15,5.0083v6.9833C15,13.0991,14.0991,14,12.9917,14zM2,11.9917C2,12.5477,2.4523,13,3.0083,13h9.9833c0.556,0,1.0083,-0.4523,1.0083,-1.0083V5.0083C14,4.4523,13.5477,4,12.9917,4H3.0083C2.4523,4,2,4.4523,2,5.0083V11.9917z" id="c1" fill="#d4d4d4"/>
    <path d="M12.2333,6.5h0.5c0.1473,0,0.2667,-0.1194,0.2667,-0.2667v-0.4667c0,-0.1473,-0.1194,-0.2667,-0.2667,-0.2667h-0.5c-0.4828,0,-0.9191,0.1977,-1.2333,0.5161C10.6857,5.6977,10.2494,5.5,9.7667,5.5h-0.5C9.1194,5.5,9,5.6194,9,5.7667v0.4667C9,6.3806,9.1194,6.5,9.2667,6.5h0.5c0.405,0,0.7333,0.3283,0.7333,0.7333v2.5333c0,0.405,-0.3283,0.7333,-0.7333,0.7333h-0.5c-0.1473,0,-0.2667,0.1194,-0.2667,0.2667v0.4667c0,0.1473,0.1194,0.2667,0.2667,0.2667h0.5c0.4828,0,0.9191,-0.1977,1.2333,-0.5161c0.3143,0.3184,0.7506,0.5161,1.2333,0.5161h0.5c0.1473,0,0.2667,-0.1194,0.2667,-0.2667v-0.4667c0,-0.1473,-0.1194,-0.2667,-0.2667,-0.2667h-0.5c-0.405,0,-0.7333,-0.3283,-0.7333,-0.7333V7.2333C11.5,6.8283,11.8283,6.5,12.2333,6.5z" id="c2" fill="#d4d4d4"/>
    <path d="M7.1583,11H3.8417c-0.4648,0,-0.8417,-0.3768,-0.8417,-0.8417V6.8417C3,6.3768,3.3768,6,3.8417,6h3.3167C7.6232,6,8,6.3768,8,6.8417v3.3167C8,10.6232,7.6232,11,7.1583,11z" id="c2" fill="#d4d4d4" opacity="0.3"/>
  </g>
</svg>
