<?xml version="1.0" encoding="UTF-8"?>
<!DOCTYPE svg PUBLIC "-//W3C//DTD SVG 1.1//EN" "http://www.w3.org/Graphics/SVG/1.1/DTD/svg11.dtd">
<svg version="1.1" id="Layer_1" xmlns="http://www.w3.org/2000/svg" xmlns:xlink="http://www.w3.org/1999/xlink" x="0px" y="0px" width="16px" height="16px" viewBox="0 0 16 16" enable-background="new 0 0 16 16" xml:space="preserve">
  <g id="icon">
    <path d="M13.5001,1.5H2.4999C1.9477,1.5,1.5,1.9477,1.5,2.4999v2.0002C1.5,5.0523,1.9477,5.5,2.4999,5.5H3.5v7.0001c0,0.5522,0.4477,0.9999,0.9999,0.9999h9.0002c0.5522,0,0.9999,-0.4477,0.9999,-0.9999V5.5v-0.5V2.4999C14.5,1.9477,14.0523,1.5,13.5001,1.5z" id="b" fill="#262626"/>
    <path d="M13.5001,1H2.4999C1.6715,1,1,1.6715,1,2.4999v2.0003C1,5.3285,1.6715,6,2.4999,6H3v6.5002C3,13.3285,3.6715,14,4.4999,14h9.0003c0.8283,0,1.4999,-0.6715,1.4999,-1.4998V5.5v-0.5V2.4999C15,1.6715,14.3285,1,13.5001,1zM2,4.5V2.5c0,-0.2761,0.2238,-0.5,0.5,-0.5h11.0001c0.2761,0,0.4999,0.2238,0.4999,0.5v2.5H2.5C2.2238,5,2,4.7762,2,4.5zM13.5001,13H4.5c-0.2761,0,-0.5,-0.2238,-0.5,-0.4999V6h10v6.5001C14,12.7762,13.7762,13,13.5001,13z" id="c1" fill="#d4d4d4"/>
    <path d="M7.3,8.15c0,0.4694,-0.3806,0.85,-0.85,0.85S5.6,8.6194,5.6,8.15s0.3806,-0.85,0.85,-0.85S7.3,7.6806,7.3,8.15zM10,8.15c0,0.4694,-0.3806,0.85,-0.85,0.85S8.3,8.6194,8.3,8.15s0.3806,-0.85,0.85,-0.85S10,7.6806,10,8.15zM12.6,8.15c0,0.4694,-0.3806,0.85,-0.85,0.85s-0.85,-0.3806,-0.85,-0.85s0.3806,-0.85,0.85,-0.85S12.6,7.6806,12.6,8.15zM7.3,10.85c0,0.4694,-0.3806,0.85,-0.85,0.85s-0.85,-0.3806,-0.85,-0.85s0.3806,-0.85,0.85,-0.85S7.3,10.3806,7.3,10.85zM10,10.85c0,0.4694,-0.3806,0.85,-0.85,0.85s-0.85,-0.3806,-0.85,-0.85s0.3806,-0.85,0.85,-0.85S10,10.3806,10,10.85z" id="c2" fill="#d4d4d4"/>
    <path d="M13.3202,2.7131c0.1953,0.1953,0.1953,0.5119,0,0.7071l-0.9333,0.9333C12.2932,4.4473,12.166,4.5,12.0333,4.5s-0.2598,-0.0527,-0.3536,-0.1464l-0.9333,-0.9333c-0.1953,-0.1953,-0.1953,-0.5119,0,-0.7071c0.1953,-0.1952,0.5118,-0.1952,0.7071,0l0.5798,0.5798l0.5797,-0.5798C12.8083,2.5179,13.1249,2.5179,13.3202,2.7131z" id="c1" fill="#d4d4d4"/>
  </g>
</svg>
