<?xml version="1.0" encoding="UTF-8"?>
<!DOCTYPE svg PUBLIC "-//W3C//DTD SVG 1.1//EN" "http://www.w3.org/Graphics/SVG/1.1/DTD/svg11.dtd">
<svg version="1.1" id="Layer_1" xmlns="http://www.w3.org/2000/svg" xmlns:xlink="http://www.w3.org/1999/xlink" x="0px" y="0px" width="16px" height="16px" viewBox="0 0 16 16" enable-background="new 0 0 16 16" xml:space="preserve">
  <g id="main">
    <g id="icon">
      <path d="M2.704,3.531L2.421,3.619L2.165,3.758L1.942,3.942L1.758,4.165L1.619,4.421L1.531,4.704L1.5,5.008L1.5,11.99L1.531,12.3L1.619,12.58L1.758,12.83L1.942,13.06L2.165,13.24L2.421,13.38L2.704,13.47L3.008,13.5L6.378,13.5L6.368,13.48L6.167,12.85L6.043,12.19L6,11.5L6.029,10.94L6.112,10.39L6.248,9.866L6.433,9.361L6.665,8.88L6.941,8.427L7.257,8.004L7.613,7.613L8.004,7.257L8.427,6.941L8.88,6.665L9.361,6.433L9.866,6.248L10.39,6.112L10.94,6.029L11.5,6L12.19,6.043L12.85,6.167L13.48,6.368L14.07,6.641L14.5,6.901L14.5,5.008L14.47,4.704L14.38,4.421L14.24,4.165L14.06,3.942L13.83,3.758L13.58,3.619L13.3,3.531L12.99,3.5L3.008,3.5zz" fill="#262626"/>
      <path d="M2.604,3.041L2.227,3.158L1.886,3.343L1.589,3.589L1.343,3.886L1.158,4.227L1.041,4.604L1,5.008L1,11.99L1.041,12.4L1.158,12.77L1.343,13.11L1.589,13.41L1.886,13.66L2.227,13.84L2.604,13.96L3.008,14L6.607,14L6.368,13.48L6.216,13L3.008,13L2.616,12.92L2.296,12.7L2.079,12.38L2,11.99L2,5.008L2.079,4.616L2.296,4.296L2.616,4.079L3.008,4L12.99,4L13.38,4.079L13.7,4.296L13.92,4.616L14,5.008L14,6.607L14.07,6.641L14.63,6.98L15,7.272L15,5.008L14.96,4.604L14.84,4.227L14.66,3.886L14.41,3.589L14.11,3.343L13.77,3.158L13.4,3.041L12.99,3L3.008,3zz" fill="#d4d4d4"/>
      <path d="M11.88,5.536L11.55,5.638L11.26,5.801L11,6.016L10.74,5.801L10.45,5.639L10.12,5.536L9.767,5.5L9.267,5.5L9.078,5.578L9,5.767L9,6.233L9.078,6.422L9.243,6.49L9.361,6.433L9.866,6.248L10.39,6.112L10.94,6.029L11.5,6L12.19,6.043L12.85,6.167L13,6.216L13,5.767L12.92,5.578L12.73,5.5L12.23,5.5zz" fill="#d4d4d4"/>
      <path d="M3.514,6.066L3.246,6.246L3.066,6.514L3,6.842L3,10.16L3.066,10.49L3.246,10.75L3.514,10.93L3.842,11L6.025,11L6.029,10.94L6.112,10.39L6.248,9.866L6.433,9.361L6.665,8.88L6.941,8.427L7.257,8.004L7.613,7.613L8,7.261L8,6.842L7.934,6.514L7.754,6.246L7.486,6.066L7.158,6L3.842,6zz" fill="#d4d4d4" opacity="0.3"/>
    </g>
    <g id="overlay">
      <path d="M11.5,14.3286c-1.625,0,-1.625,-1.974,-1.625,-2.8169c0,-0.8429,0,-2.8169,1.625,-2.8169s1.625,1.974,1.625,2.8169C13.125,12.3546,13.125,14.3286,11.5,14.3286zM11.5,9.5306c-0.3819,0,-0.7893,0.1531,-0.7893,1.9812c0,1.828,0.4074,1.9811,0.7893,1.9811s0.7893,-0.1531,0.7893,-1.9811C12.2893,9.6837,11.8819,9.5306,11.5,9.5306z" id="b" fill="#171717"/>
      <path d="M12.2893,11.5117c0,1.828,-0.4074,1.9811,-0.7893,1.9811s-0.7893,-0.1531,-0.7893,-1.9811c0,-1.8281,0.4074,-1.9812,0.7893,-1.9812S12.2893,9.6837,12.2893,11.5117zM16,11.5c0,2.4813,-2.0187,4.5,-4.5,4.5s-4.5,-2.0187,-4.5,-4.5s2.0187,-4.5,4.5,-4.5S16,9.0187,16,11.5zM13.125,11.5117c0,-0.8429,0,-2.8169,-1.625,-2.8169s-1.625,1.974,-1.625,2.8169c0,0.8429,0,2.8169,1.625,2.8169S13.125,12.3546,13.125,11.5117z" id="c1" fill="#d4d4d4"/>
    </g>
  </g>
</svg>
