<?xml version="1.0" encoding="UTF-8"?>
<!DOCTYPE svg PUBLIC "-//W3C//DTD SVG 1.1//EN" "http://www.w3.org/Graphics/SVG/1.1/DTD/svg11.dtd">
<svg version="1.1" id="Layer_1" xmlns="http://www.w3.org/2000/svg" xmlns:xlink="http://www.w3.org/1999/xlink" x="0px" y="0px" width="16px" height="16px" viewBox="0 0 16 16" enable-background="new 0 0 16 16" xml:space="preserve">
  <g id="icon">
    <path d="M12.3,13.5H3.7c-0.6627,0,-1.2,-0.5373,-1.2,-1.2V3.7c0,-0.6627,0.5373,-1.2,1.2,-1.2h8.6c0.6627,0,1.2,0.5373,1.2,1.2v8.6C13.5,12.9627,12.9627,13.5,12.3,13.5z" id="b" fill="#262626"/>
    <path d="M12.3,2H3.7c-0.9374,0,-1.7,0.7626,-1.7,1.7v5.3v1v2.3c0,0.9374,0.7626,1.7,1.7,1.7h8.6c0.9374,0,1.7,-0.7626,1.7,-1.7v-2.3V9V3.7C14,2.7626,13.2374,2,12.3,2zM13,12.3c0,0.386,-0.314,0.7,-0.7,0.7H3.7c-0.386,0,-0.7,-0.314,-0.7,-0.7v-2.3h10V12.3zM3,9V3.7c0,-0.386,0.314,-0.7,0.7,-0.7h8.6c0.386,0,0.7,0.314,0.7,0.7v5.3H3z" id="c1" fill="#06b6d4"/>
    <path d="M7.6284,8.2418L5.8693,6.4707c-0.1964,-0.2004,-0.1993,-0.5229,0,-0.7203c0.1993,-0.1974,0.5201,-0.2005,0.7165,0L7.5,6.655l0,-2.4391c0,-0.244,0.1667,-0.4661,0.4059,-0.5077C8.2288,3.6521,8.5,3.8905,8.5,4.2026l0,2.4524l0.8542,-0.8717c0.1968,-0.2001,0.5176,-0.1977,0.7165,0c0.199,0.1978,0.1967,0.5202,0,0.7203L8.3449,8.2418C8.13,8.4579,7.8567,8.4698,7.6284,8.2418z" id="c2" fill="#06b6d4"/>
  </g>
</svg>
