<?xml version="1.0" encoding="UTF-8"?>
<!DOCTYPE svg PUBLIC "-//W3C//DTD SVG 1.1//EN" "http://www.w3.org/Graphics/SVG/1.1/DTD/svg11.dtd">
<svg version="1.1" id="Layer_1" xmlns="http://www.w3.org/2000/svg" xmlns:xlink="http://www.w3.org/1999/xlink" x="0px" y="0px" width="16px" height="16px" viewBox="0 0 16 16" enable-background="new 0 0 16 16" xml:space="preserve">
  <g id="icon">
    <path d="M3.7,2.5h8.6c0.6627,0,1.2,0.5373,1.2,1.2v8.6c0,0.6627,-0.5373,1.2,-1.2,1.2H3.7c-0.6627,0,-1.2,-0.5373,-1.2,-1.2V3.7C2.5,3.0373,3.0373,2.5,3.7,2.5z" id="b" fill="#262626"/>
    <path d="M3.7,14h8.6c0.9374,0,1.7,-0.7626,1.7,-1.7V7V6V3.7c0,-0.9374,-0.7626,-1.7,-1.7,-1.7H3.7c-0.9374,0,-1.7,0.7626,-1.7,1.7v2.3v1v5.3C2,13.2374,2.7626,14,3.7,14zM3,3.7c0,-0.386,0.314,-0.7,0.7,-0.7h8.6c0.386,0,0.7,0.314,0.7,0.7v2.3H3V3.7zM13,7v5.3c0,0.386,-0.314,0.7,-0.7,0.7H3.7c-0.386,0,-0.7,-0.314,-0.7,-0.7V7H13z" id="c1" fill="#06b6d4"/>
  </g>
</svg>
