<?xml version="1.0" encoding="UTF-8"?>
<!DOCTYPE svg PUBLIC "-//W3C//DTD SVG 1.1//EN" "http://www.w3.org/Graphics/SVG/1.1/DTD/svg11.dtd">
<svg version="1.1" id="Layer_1" xmlns="http://www.w3.org/2000/svg" xmlns:xlink="http://www.w3.org/1999/xlink" x="0px" y="0px" width="16px" height="16px" viewBox="0 0 16 16" enable-background="new 0 0 16 16" xml:space="preserve">
  <g id="icon">
    <path d="M3.7,2.5h8.6c0.6627,0,1.2,0.5373,1.2,1.2v8.6c0,0.6627,-0.5373,1.2,-1.2,1.2H3.7c-0.6627,0,-1.2,-0.5373,-1.2,-1.2V3.7C2.5,3.0373,3.0373,2.5,3.7,2.5z" id="b" fill="#262626"/>
    <path d="M3.7,14h8.6c0.9374,0,1.7,-0.7626,1.7,-1.7V7V6V3.7c0,-0.9374,-0.7626,-1.7,-1.7,-1.7H3.7c-0.9374,0,-1.7,0.7626,-1.7,1.7v2.3v1v5.3C2,13.2374,2.7626,14,3.7,14zM3,3.7c0,-0.386,0.314,-0.7,0.7,-0.7h8.6c0.386,0,0.7,0.314,0.7,0.7v2.3H3V3.7zM13,7v5.3c0,0.386,-0.314,0.7,-0.7,0.7H3.7c-0.386,0,-0.7,-0.314,-0.7,-0.7V7H13z" id="c1" fill="#d4d4d4"/>
    <path d="M8.3716,7.7582l1.7591,1.7711c0.1964,0.2004,0.1993,0.5229,0,0.7203c-0.1993,0.1974,-0.5201,0.2005,-0.7165,0L8.5,9.345l0,2.4391c0,0.244,-0.1667,0.4661,-0.4059,0.5077c-0.3229,0.0561,-0.5941,-0.1823,-0.5941,-0.4944l0,-2.4524l-0.8542,0.8717c-0.1968,0.2001,-0.5176,0.1977,-0.7165,0c-0.199,-0.1978,-0.1967,-0.5202,0,-0.7203l1.7258,-1.7381C7.87,7.5421,8.1433,7.5302,8.3716,7.7582z" id="c2" fill="#d4d4d4"/>
  </g>
</svg>
