<?xml version="1.0" encoding="UTF-8"?>
<!DOCTYPE svg PUBLIC "-//W3C//DTD SVG 1.1//EN" "http://www.w3.org/Graphics/SVG/1.1/DTD/svg11.dtd">
<svg version="1.1" id="Layer_1" xmlns="http://www.w3.org/2000/svg" xmlns:xlink="http://www.w3.org/1999/xlink" x="0px" y="0px" width="16px" height="16px" viewBox="0 0 16 16" enable-background="new 0 0 16 16" xml:space="preserve">
  <g id="icon">
    <path d="M2.5,12.3V3.7c0,-0.6627,0.5373,-1.2,1.2,-1.2h8.6c0.6627,0,1.2,0.5373,1.2,1.2v8.6c0,0.6627,-0.5373,1.2,-1.2,1.2H3.7C3.0373,13.5,2.5,12.9627,2.5,12.3z" id="b" fill="#262626"/>
    <path d="M14,12.3V3.7c0,-0.9374,-0.7626,-1.7,-1.7,-1.7H7H6H3.7c-0.9374,0,-1.7,0.7626,-1.7,1.7v8.6c0,0.9374,0.7626,1.7,1.7,1.7h2.3h1h5.3C13.2374,14,14,13.2374,14,12.3zM3.7,13c-0.386,0,-0.7,-0.314,-0.7,-0.7V3.7c0,-0.386,0.314,-0.7,0.7,-0.7h2.3v10H3.7zM7,3h5.3c0.386,0,0.7,0.314,0.7,0.7v8.6c0,0.386,-0.314,0.7,-0.7,0.7H7V3z" id="c1" fill="#d4d4d4"/>
    <path d="M7.7582,7.6284l1.7711,-1.7591c0.2004,-0.1964,0.5229,-0.1993,0.7203,0c0.1974,0.1993,0.2005,0.5201,0,0.7165L9.345,7.5l2.4391,0c0.244,0,0.4661,0.1667,0.5077,0.4059c0.0561,0.3229,-0.1823,0.5941,-0.4944,0.5941L9.345,8.5l0.8717,0.8542c0.2001,0.1968,0.1977,0.5176,0,0.7165c-0.1978,0.199,-0.5202,0.1967,-0.7203,0L7.7582,8.3449C7.5421,8.13,7.5302,7.8567,7.7582,7.6284z" id="c2" fill="#d4d4d4"/>
  </g>
</svg>
