<?xml version="1.0" encoding="UTF-8"?>
<!DOCTYPE svg PUBLIC "-//W3C//DTD SVG 1.1//EN" "http://www.w3.org/Graphics/SVG/1.1/DTD/svg11.dtd">
<svg version="1.1" id="Layer_1" xmlns="http://www.w3.org/2000/svg" xmlns:xlink="http://www.w3.org/1999/xlink" x="0px" y="0px" width="16px" height="16px" viewBox="0 0 16 16" enable-background="new 0 0 16 16" xml:space="preserve">
  <g id="icon">
    <path d="M14.5,8c0,3.5899,-2.9101,6.5,-6.5,6.5s-6.5,-2.9101,-6.5,-6.5s2.9101,-6.5,6.5,-6.5S14.5,4.4101,14.5,8z" id="b" fill="#262626"/>
    <path d="M8,1c3.85,0,7,3.15,7,7s-3.15,7,-7,7s-7,-3.15,-7,-7S4.15,1,8,1zM8,2.05c-3.29,0,-5.95,2.66,-5.95,5.95s2.66,5.95,5.95,5.95s5.95,-2.66,5.95,-5.95S11.29,2.05,8,2.05zM5.55,9.96c0.56,0.77,1.47,1.19,2.45,1.19s1.89,-0.42,2.45,-1.19c0.21,-0.21,0.49,-0.28,0.77,-0.07c0.21,0.21,0.28,0.49,0.07,0.77C10.52,11.57,9.33,12.2,8,12.2s-2.52,-0.63,-3.29,-1.61c-0.21,-0.21,-0.14,-0.56,0.07,-0.77C4.99,9.68,5.34,9.75,5.55,9.96zM5.9,5.76c0.49,0,0.84,0.42,0.84,0.84s-0.35,0.84,-0.84,0.84s-0.84,-0.42,-0.84,-0.84S5.41,5.76,5.9,5.76zM10.1,5.76c0.49,0,0.84,0.42,0.84,0.84s-0.42,0.84,-0.84,0.84c-0.49,0,-0.84,-0.42,-0.84,-0.84S9.61,5.76,10.1,5.76z" id="c1" fill="#d4d4d4"/>
  </g>
</svg>
