<?xml version="1.0" encoding="UTF-8"?>
<!DOCTYPE svg PUBLIC "-//W3C//DTD SVG 1.1//EN" "http://www.w3.org/Graphics/SVG/1.1/DTD/svg11.dtd">
<svg version="1.1" id="Layer_1" xmlns="http://www.w3.org/2000/svg" xmlns:xlink="http://www.w3.org/1999/xlink" x="0px" y="0px" width="16px" height="16px" viewBox="0 0 16 16" enable-background="new 0 0 16 16" xml:space="preserve">
  <g id="icon">
    <path d="M5.8069,14.4c-0.1463,0,-0.2737,-0.0777,-0.3684,-0.2246l-0.0433,-0.0672l-0.059,-0.0305c-0.0163,-0.0246,-0.0404,-0.0988,-0.0365,-0.1972L5.3,11.7H4.0795C3.0978,11.6597,2.3,10.8589,2.3,9.9124V4.1477C2.3,3.1807,3.1484,2.3,4.08,2.3h8.775c0.9829,0,1.845,0.8634,1.845,1.8477v5.7047c0,1.0015,-0.8151,1.8477,-1.78,1.8477H9.4244l-3.3137,2.5968C6.0105,14.3644,5.9056,14.4,5.8069,14.4z" id="b" fill="#262626"/>
    <path d="M4.0736,12C2.972,11.9581,2,11.0523,2,9.9124V4.1477C2,3.0067,2.975,2,4.08,2h8.775C14.025,2,15,3.0067,15,4.1477v5.7047c0,1.2081,-0.975,2.1477,-2.08,2.1477H9.528l-3.24,2.5391c-0.3888,0.2682,-0.8424,0.2012,-1.1016,-0.2012c-0.1296,-0.0671,-0.1944,-0.2682,-0.1864,-0.4694V12H4.0736zM9.215,11h3.6205c0.6469,0,1.1645,-0.5355,1.1645,-1.205V4.105c0,-0.6694,-0.5175,-1.105,-1.1645,-1.105H4.07C3.42,3,3,3.4355,3,4.105V9.795c0,0.6694,0.42,1.205,1.07,1.205H6v0.3686v2.1083L9.215,11z" id="c1" fill="#d4d4d4"/>
    <path d="M8,9.0383V7.8661l-1.0379,0.5992c-0.076,0.0439,-0.1624,0.0671,-0.2498,0.0671c-0.1782,0,-0.3442,-0.0958,-0.4333,-0.2501c-0.0766,-0.1326,-0.0887,-0.2905,-0.0313,-0.4359c0.0441,-0.1117,0.1328,-0.2001,0.2368,-0.2601L7.5,7l-1.0154,-0.5863c-0.104,-0.06,-0.1927,-0.1484,-0.2368,-0.2601c-0.0574,-0.1454,-0.0453,-0.3032,0.0313,-0.4359c0.0891,-0.1542,0.2551,-0.2501,0.4333,-0.2501c0.0874,0,0.1738,0.0232,0.2497,0.067L8,6.1339V4.9617c0,-0.2633,0.1917,-0.5007,0.454,-0.5243c0.2963,-0.0266,0.546,0.207,0.546,0.4979V6.134l1.038,-0.5993c0.076,-0.0439,0.1624,-0.0671,0.2497,-0.0671c0.1782,0,0.3442,0.0958,0.4333,0.2501c0.0766,0.1326,0.0887,0.2905,0.0313,0.4359c-0.0441,0.1117,-0.1328,0.2001,-0.2368,0.2601L9.5,7l1.0154,0.5863c0.104,0.06,0.1927,0.1484,0.2368,0.2601c0.0574,0.1454,0.0453,0.3032,-0.0313,0.4359c-0.0891,0.1542,-0.2551,0.2501,-0.4332,0.2501c-0.0875,0,-0.1738,-0.0232,-0.2498,-0.0671L9,7.866v1.1986c0,0.2909,-0.2497,0.5246,-0.546,0.4979C8.1917,9.5389,8,9.3016,8,9.0383z" id="c2" fill="#d4d4d4"/>
  </g>
</svg>
