<?xml version="1.0" encoding="UTF-8"?>
<!DOCTYPE svg PUBLIC "-//W3C//DTD SVG 1.1//EN" "http://www.w3.org/Graphics/SVG/1.1/DTD/svg11.dtd">
<svg version="1.1" id="Layer_1" xmlns="http://www.w3.org/2000/svg" xmlns:xlink="http://www.w3.org/1999/xlink" x="0px" y="0px" width="16px" height="16px" viewBox="0 0 16 16" enable-background="new 0 0 16 16" xml:space="preserve">
  <g id="icon">
    <path d="M3,13.4c-0.8271,0,-1.5,-0.6729,-1.5,-1.5V5c0,-0.8271,0.6729,-1.5,1.5,-1.5h2.85L8,5.5h2.7714c0.9883,0.157,1.6028,0.7934,1.9286,1.8c0.8271,0,1.8,-0.3271,1.8,0.5l-1.1,4.1c0,0.8271,-0.6729,1.5,-1.5,1.5H3z" id="b" fill="#262626"/>
    <path d="M14.7762,7.4599c-0.2243,-0.2923,-0.5815,-0.4599,-0.98,-0.4599h-0.8173c-0.1513,-1.1275,-1.1189,-2,-2.2871,-2h-2.366c-0.1455,0,-0.2868,-0.0603,-0.3875,-0.1653L6.6337,3.4734C6.3454,3.1726,5.941,3,5.5243,3h-2.216C2.0355,3,1,4.0355,1,5.3083v6.3833C1,12.9645,2.0355,14,3.3083,14h0.2955h7.0878h1.2289c0.7379,0,1.4692,-0.5681,1.6727,-1.2964l1.3667,-4.1039l0.0086,-0.0286C15.0771,8.1657,15.007,7.7607,14.7762,7.4599zM3.3083,4h2.216c0.1455,0,0.2868,0.0603,0.3875,0.1653l1.3045,1.3612C7.5046,5.8274,7.909,6,8.3257,6h2.366c0.6151,0,1.131,0.4271,1.2701,1H4.6795c-0.7379,0,-1.4692,0.5681,-1.6727,1.2964L2,11.3198V5.3083C2,4.5869,2.5869,4,3.3083,4zM14.0057,8.3l-1.3655,4.1003l-0.0086,0.0286c-0.0801,0.2989,-0.419,0.571,-0.711,0.571h-1.2289H9.1H3.3083c-0.0899,0,-0.1776,-0.0091,-0.2625,-0.0265c-0.0651,-0.0224,-0.1434,-0.0635,-0.2287,-0.1422c-0.1291,-0.1192,-0.1409,-0.3339,-0.1172,-0.4313l1.2599,-3.8003l0.0086,-0.0286c0.0801,-0.2989,0.419,-0.571,0.711,-0.571h9.1167c0.05,0,0.1408,0.0089,0.1867,0.0687C14.0212,8.1188,14.0294,8.2026,14.0057,8.3z" id="c1" fill="#d4d4d4"/>
  </g>
</svg>
