<?xml version="1.0" encoding="UTF-8"?>
<!DOCTYPE svg PUBLIC "-//W3C//DTD SVG 1.1//EN" "http://www.w3.org/Graphics/SVG/1.1/DTD/svg11.dtd">
<svg version="1.1" id="Layer_1" xmlns="http://www.w3.org/2000/svg" xmlns:xlink="http://www.w3.org/1999/xlink" x="0px" y="0px" width="16px" height="16px" viewBox="0 0 16 16" enable-background="new 0 0 16 16" xml:space="preserve">
  <g id="icon">
    <path d="M2.4923,14.5067l3.0347,-0.8467l0.0314,0.0175c0.8758,0.4883,1.872,0.7464,2.881,0.7464c3.2668,0,5.9245,-2.6577,5.9245,-5.9245s-2.6577,-5.9246,-5.9245,-5.9246S2.5149,5.2327,2.5149,8.4995c0,1.0103,0.2587,2.0076,0.7481,2.8842l0.0176,0.0314l-0.8471,3.033L2.4923,14.5067z" id="b" fill="#262626"/>
    <path d="M8.4395,2c3.5895,0,6.4995,2.9099,6.4995,6.4995c0,3.5895,-2.9099,6.4995,-6.4995,6.4995c-1.0518,0,-2.0682,-0.2505,-2.9814,-0.7227l-2.4866,0.6937c-0.4322,0.1207,-0.8803,-0.1318,-1.001,-0.564c-0.0399,-0.143,-0.0399,-0.2942,0,-0.4371l0.6939,-2.4847c-0.4733,-0.914,-0.7244,-1.9316,-0.7244,-2.9847C1.94,4.9099,4.8499,2,8.4395,2zM8.4395,2.9749c-3.0511,0,-5.5245,2.4734,-5.5245,5.5245c0,0.9552,0.2423,1.8741,0.6974,2.6891l0.0979,0.1753l-0.7232,2.5895l2.5911,-0.7229l0.1752,0.0977c0.8144,0.4541,1.7322,0.6958,2.6862,0.6958c3.0511,0,5.5245,-2.4734,5.5245,-5.5245C13.964,5.4483,11.4906,2.9749,8.4395,2.9749z" id="c1" fill="#d4d4d4"/>
    <path d="M6.2895,9h2.9956c0.2078,0,0.4028,0.1237,0.4718,0.3198c0.1152,0.3277,-0.1004,0.6349,-0.4007,0.6756L9.2884,10H6.2952c-0.2093,0,-0.4064,-0.1243,-0.475,-0.3221c-0.1134,-0.3268,0.1019,-0.6327,0.4014,-0.6734L6.2895,9h2.9989H6.2895zM6.2727,7h4.3331c0.2078,0,0.4028,0.1237,0.4718,0.3198c0.1152,0.3277,-0.1004,0.6349,-0.4006,0.6756L10.6091,8H6.2784c-0.2093,0,-0.4064,-0.1244,-0.475,-0.3221c-0.1133,-0.3268,0.1019,-0.6327,0.4014,-0.6733L6.2727,7h4.3363H6.2727z" id="c2" fill="#d4d4d4"/>
  </g>
</svg>
