<?xml version="1.0" encoding="UTF-8"?>
<!DOCTYPE svg PUBLIC "-//W3C//DTD SVG 1.1//EN" "http://www.w3.org/Graphics/SVG/1.1/DTD/svg11.dtd">
<svg version="1.1" id="Layer_1" xmlns="http://www.w3.org/2000/svg" xmlns:xlink="http://www.w3.org/1999/xlink" x="0px" y="0px" width="16px" height="16px" viewBox="0 0 16 16" enable-background="new 0 0 16 16" xml:space="preserve">
  <g id="main">
    <g id="icon">
      <path d="M7.835,2.605L7.247,2.695L6.679,2.842L6.136,3.041L5.618,3.291L5.129,3.588L4.673,3.929L4.252,4.312L3.87,4.733L3.528,5.189L3.231,5.678L2.981,6.196L2.782,6.74L2.636,7.307L2.546,7.895L2.515,8.499L2.563,9.253L2.705,9.992L2.94,10.71L3.263,11.38L3.281,11.42L2.434,14.45L2.492,14.51L5.527,13.66L5.558,13.68L6.236,14L6.949,14.23L7.687,14.38L8.435,14.42L8.261,14.01L8.118,13.53L8.03,13.02L8,12.5L8.092,11.59L8.354,10.75L8.77,9.986L9.32,9.32L9.986,8.77L10.75,8.354L11.59,8.092L12.5,8L13.02,8.03L13.53,8.118L14.01,8.261L14.36,8.408L14.33,7.895L14.24,7.307L14.1,6.74L13.9,6.196L13.65,5.678L13.35,5.189L13.01,4.733L12.63,4.312L12.21,3.929L11.75,3.588L11.26,3.291L10.74,3.041L10.2,2.842L9.632,2.695L9.044,2.605L8.439,2.575zz" fill="#262626"/>
      <path d="M7.775,2.034L7.13,2.132L6.507,2.292L5.91,2.511L5.341,2.784L4.805,3.11L4.305,3.484L3.844,3.904L3.424,4.365L3.05,4.866L2.724,5.401L2.451,5.97L2.232,6.567L2.072,7.19L1.974,7.835L1.94,8.499L1.987,9.282L2.125,10.04L2.352,10.78L2.664,11.48L1.971,13.97L1.941,14.19L1.971,14.41L2.117,14.69L2.354,14.9L2.65,14.99L2.971,14.97L5.458,14.28L6.161,14.59L6.897,14.81L7.658,14.95L8.439,15L8.755,14.98L8.697,14.9L8.455,14.47L8.262,14.01L7.732,13.98L7.044,13.85L6.383,13.63L5.753,13.33L5.578,13.23L2.987,13.95L3.71,11.36L3.612,11.19L3.312,10.56L3.093,9.896L2.96,9.208L2.915,8.499L2.944,7.935L3.027,7.386L3.163,6.857L3.349,6.349L3.582,5.866L3.859,5.411L4.177,4.985L4.533,4.593L4.925,4.237L5.351,3.918L5.806,3.642L6.289,3.409L6.797,3.223L7.326,3.087L7.875,3.004L8.439,2.975L9.004,3.004L9.553,3.087L10.08,3.223L10.59,3.409L11.07,3.642L11.53,3.918L11.95,4.237L12.35,4.593L12.7,4.985L13.02,5.411L13.3,5.866L13.53,6.349L13.72,6.857L13.85,7.386L13.94,7.935L13.95,8.243L14.01,8.261L14.47,8.455L14.9,8.697L14.93,8.715L14.94,8.499L14.91,7.835L14.81,7.19L14.65,6.567L14.43,5.97L14.15,5.401L13.83,4.866L13.45,4.365L13.04,3.904L12.57,3.484L12.07,3.11L11.54,2.784L10.97,2.511L10.37,2.292L9.749,2.132L9.104,2.034L8.439,2zz" fill="#d4d4d4"/>
      <path d="M6.205,7.005L6,7.081L5.849,7.234L5.776,7.441L5.803,7.678L5.877,7.812L5.988,7.913L6.278,8L10.61,8L10.68,7.995L10.88,7.919L11.03,7.765L11.11,7.558L11.08,7.32L11,7.187L10.89,7.086L10.61,7L6.273,7zM6.222,9.004L6.017,9.081L5.866,9.234L5.793,9.441L5.82,9.678L5.894,9.812L6.005,9.913L6.295,10L8.762,10L8.77,9.986L9.32,9.32L9.587,9.099L9.573,9.086L9.285,9L6.289,9zz" fill="#d4d4d4"/>
    </g>
    <g id="overlay">
      <path d="M16,12.5c0,1.933,-1.567,3.5,-3.5,3.5s-3.5,-1.567,-3.5,-3.5s1.567,-3.5,3.5,-3.5S16,10.567,16,12.5z" id="c1" fill="#fda4af"/>
    </g>
  </g>
</svg>
