<?xml version="1.0" encoding="UTF-8"?>
<!DOCTYPE svg PUBLIC "-//W3C//DTD SVG 1.1//EN" "http://www.w3.org/Graphics/SVG/1.1/DTD/svg11.dtd">
<svg version="1.1" id="Layer_1" xmlns="http://www.w3.org/2000/svg" xmlns:xlink="http://www.w3.org/1999/xlink" x="0px" y="0px" width="16px" height="16px" viewBox="0 0 16 16" enable-background="new 0 0 16 16" xml:space="preserve">
  <g id="main">
    <g id="icon">
      <path d="M9.385,1.542L8.796,1.664L8.237,1.86L7.714,2.125L7.234,2.454L6.8,2.84L6.419,3.279L6.097,3.764L6.44,3.975L6.755,4.231L7.036,4.529L7.28,4.867L7.34,4.962L7.895,4.912L8.516,4.975L9.095,5.156L9.618,5.443L10.08,5.823L10.45,6.283L10.72,6.788L10.79,6.662L10.98,6.44L11.2,6.256L11.45,6.118L11.73,6.03L12.04,6L12.34,6.03L12.62,6.118L12.87,6.256L13.1,6.44L13.28,6.662L13.42,6.917L13.51,7.198L13.54,7.5L13.54,8.902L14.05,8.604L13.94,8.19L14.02,8.018L14.23,7.539L14.38,7.038L14.47,6.523L14.5,6L14.41,5.094L14.15,4.25L13.73,3.486L13.18,2.819L12.51,2.27L11.75,1.854L10.91,1.592L10,1.5zz" fill="#262626"/>
      <path d="M9.31,1.047L8.648,1.186L8.021,1.409L7.436,1.71L6.898,2.082L6.414,2.52L5.991,3.017L5.635,3.566L6.109,3.77L6.543,4.052L6.827,3.619L7.163,3.227L7.546,2.882L7.972,2.589L8.435,2.352L8.931,2.177L9.454,2.068L10,2.03L10.8,2.111L11.54,2.343L12.22,2.709L12.81,3.194L13.29,3.782L13.66,4.456L13.89,5.201L13.97,6L13.94,6.504L13.84,6.999L13.69,7.477L13.54,7.791L13.54,8.728L13.58,8.878L14.5,8.346L14.47,8.242L14.7,7.71L14.87,7.154L14.97,6.581L15,6L14.97,5.489L14.9,4.993L14.61,4.055L14.14,3.206L13.53,2.466L12.79,1.855L11.94,1.394L11.01,1.102L10.51,1.026L10,1zM8.222,4.077L8.058,4.187L7.947,4.351L7.907,4.551L7.989,4.794L8.202,4.927L8.469,4.966L11.58,4.966L11.78,4.941L11.94,4.865L12.05,4.736L12.09,4.551L12.06,4.368L11.96,4.213L11.82,4.099L11.65,4.041L11.58,4.036L8.422,4.036zM10.57,6.473L10.72,6.797L10.79,6.662L10.98,6.44L11.2,6.256L11.45,6.118L11.68,6.048L11.65,6.038L11.58,6.033L10.27,6.033zz" fill="#d4d4d4"/>
      <path d="M4.271,4.552L3.898,4.67L3.561,4.855L3.268,5.1L3.025,5.398L2.842,5.739L2.726,6.116L2.686,6.52L2.726,6.924L2.842,7.301L3.025,7.642L3.268,7.94L3.561,8.185L3.898,8.371L4.271,8.488L4.67,8.529L4.953,8.508L4.912,8.02L4.938,7.619L5.015,7.234L5.307,6.525L5.76,5.921L6.347,5.45L6.036,5.066L5.641,4.77L5.18,4.579L4.67,4.512zM7.496,6.053L7.123,6.17L6.786,6.355L6.492,6.601L6.25,6.898L6.067,7.239L5.951,7.616L5.911,8.02L5.951,8.424L6.067,8.801L6.25,9.142L6.492,9.44L6.786,9.685L7.12,9.869L7.076,9.604L7.083,9.314L7.148,9.027L7.273,8.75L7.513,8.438L7.822,8.202L8.181,8.052L8.572,8L8.96,8.051L9.322,8.201L9.82,8.488L9.839,8.424L9.88,8.02L9.839,7.616L9.723,7.239L9.54,6.898L9.298,6.601L9.004,6.355L8.667,6.17L8.295,6.053L7.895,6.012zM1.669,9.089L1.321,9.33L1.086,9.689L1,10.13L1,10.5L1.043,10.95L1.168,11.4L1.374,11.83L1.657,12.23L2.014,12.6L2.443,12.91L2.94,13.17L3.503,13.36L3.296,12.69L3.226,12L3.226,11.63L3.268,11.2L3.389,10.8L3.58,10.45L3.833,10.13L4.14,9.871L4.492,9.674L4.881,9.548L5.299,9.501L5.075,9L2.094,9zM4.894,10.59L4.546,10.83L4.311,11.19L4.225,11.63L4.225,12L4.288,12.55L4.473,13.09L4.776,13.6L5.19,14.05L5.711,14.44L6.334,14.74L7.053,14.93L7.862,15L8.296,14.96L8.181,14.95L7.822,14.8L7.513,14.56L7.272,14.25L7.148,13.97L7.083,13.69L7.076,13.4L7.123,13.11L7.224,12.84L7.375,12.59L7.575,12.38L7.822,12.2L9.036,11.5L7.822,10.8L7.576,10.62L7.463,10.5L5.319,10.5zM9.598,14.64L10.01,14.44L10.26,14.26zz" fill="#d4d4d4"/>
    </g>
    <g id="overlay">
      <path d="M15.7499,13.067L13.0358,11.5l2.7141,-1.567c0.2391,-0.1381,0.3211,-0.4439,0.183,-0.683c-0.1381,-0.2391,-0.4439,-0.3211,-0.683,-0.183l-2.7141,1.567V7.5c0,-0.2761,-0.2239,-0.5,-0.5,-0.5s-0.5,0.2239,-0.5,0.5v3.134L8.8217,9.067c-0.2391,-0.1381,-0.5449,-0.0561,-0.683,0.183c-0.1381,0.2391,-0.0561,0.5449,0.183,0.683L11.0358,11.5l-2.7141,1.567c-0.2391,0.1381,-0.3211,0.4439,-0.183,0.683c0.1381,0.2391,0.4439,0.3211,0.683,0.183l2.7141,-1.567V15.5c0,0.2761,0.2239,0.5,0.5,0.5s0.5,-0.2239,0.5,-0.5v-3.134l2.7141,1.567c0.2391,0.1381,0.5449,0.0561,0.683,-0.183C16.071,13.5109,15.9891,13.2051,15.7499,13.067z" fill="#fcd34d"/>
    </g>
  </g>
</svg>
