<?xml version="1.0" encoding="UTF-8"?>
<!DOCTYPE svg PUBLIC "-//W3C//DTD SVG 1.1//EN" "http://www.w3.org/Graphics/SVG/1.1/DTD/svg11.dtd">
<svg version="1.1" id="Layer_1" xmlns="http://www.w3.org/2000/svg" xmlns:xlink="http://www.w3.org/1999/xlink" x="0px" y="0px" width="16px" height="16px" viewBox="0 0 16 16" enable-background="new 0 0 16 16" xml:space="preserve">
  <g id="icon">
    <path d="M14.49,10.1731c0.0127,0.0454,0.0127,0.0932,0,0.1385c-0.031,0.1109,-0.1328,0.1884,-0.2477,0.1884c-0.0233,0,-0.0467,-0.0032,-0.0695,-0.0096l-1.9843,-0.5535l-0.1726,0.0866c-0.6152,0.3086,-1.3057,0.4724,-1.9981,0.4752c-0.3541,-0.8421,-1.1867,-1.4335,-2.1575,-1.4335h-0.0725c-0.0095,0,-0.0152,-0.0103,-0.01,-0.0184c0.3358,-0.5236,0.5308,-1.1471,0.5308,-1.8157c0,-1.5071,-0.9914,-2.785,-2.3511,-3.2063C6.6904,2.5311,8.2268,1.5,10,1.5c2.4813,0,4.5,2.0185,4.5,4.4996c0,0.6993,-0.1649,1.3971,-0.4769,2.0181l-0.0868,0.1728L14.49,10.1731z" id="b" fill="#262626"/>
    <path d="M14.9716,10.0386c0.0373,0.1332,0.0373,0.2741,0.0001,0.4075c-0.0911,0.3261,-0.391,0.5539,-0.7293,0.5539c-0.0688,0,-0.1375,-0.0094,-0.2042,-0.0281l-1.798,-0.5015c-0.6416,0.3218,-1.3553,0.5002,-2.0768,0.524c-0.0686,-0.3874,-0.2323,-0.7417,-0.4665,-1.0382c0.1002,0.0076,0.201,0.0127,0.303,0.0127c0.6762,0,1.3436,-0.1729,1.9301,-0.4998l0.1851,-0.1032l1.734,0.4837l-0.484,-1.7328l0.1035,-0.1852c0.3277,-0.587,0.501,-1.2551,0.501,-1.9321c0,-2.1887,-1.7808,-3.9694,-3.9697,-3.9694c-1.5505,0,-2.8954,0.894,-3.5485,2.1932c-0.3074,-0.1533,-0.6414,-0.26,-0.9932,-0.311C6.2508,2.1952,7.9879,1,10,1c2.757,0,5,2.2428,5,4.9996c0,0.7779,-0.1831,1.5519,-0.5301,2.2425L14.9716,10.0386zM12.0909,6.548c0,-0.2565,-0.1915,-0.4759,-0.4454,-0.5104l-0.0647,-0.0047H9.3947c-0.2841,0,-0.5151,0.2311,-0.5151,0.5151c0,0.2565,0.1915,0.3759,0.4454,0.4104l0.0646,0.0047h2.1861C11.8598,6.9631,12.0909,6.832,12.0909,6.548zM11.6455,4.0408l-0.0647,-0.0047H8.422c-0.284,0,-0.5151,0.2311,-0.5151,0.5151c0,0.2566,0.1915,0.376,0.4454,0.4104l0.0646,0.0047h3.1588c0.2841,0,0.5152,-0.1311,0.5152,-0.4151C12.0909,4.2946,11.8994,4.0752,11.6455,4.0408z" id="c1" fill="#d4d4d4"/>
    <path d="M2.7553,7.2312c0,-1.2427,0.9989,-2.2537,2.2268,-2.2537c1.2278,0,2.2267,1.011,2.2267,2.2537c0,1.2427,-0.9989,2.2537,-2.2267,2.2537C3.7542,9.4849,2.7553,8.4738,2.7553,7.2312zM7.8726,10.1652H2.1648c-0.6768,0,-1.2275,0.5502,-1.2275,1.2266v0.4074c0,1.6042,1.5267,3.2635,4.0814,3.2635S9.1,13.4034,9.1,11.7992v-0.4074C9.1,10.7154,8.5494,10.1652,7.8726,10.1652z" id="c2" fill="#d4d4d4"/>
  </g>
</svg>
