<?xml version="1.0" encoding="UTF-8"?>
<!DOCTYPE svg PUBLIC "-//W3C//DTD SVG 1.1//EN" "http://www.w3.org/Graphics/SVG/1.1/DTD/svg11.dtd">
<svg version="1.1" id="Layer_1" xmlns="http://www.w3.org/2000/svg" xmlns:xlink="http://www.w3.org/1999/xlink" x="0px" y="0px" width="16px" height="16px" viewBox="0 0 16 16" enable-background="new 0 0 16 16" xml:space="preserve">
  <g id="icon">
    <circle cx="8.5" cy="8.5" r="6" id="b" fill="#262626"/>
    <path d="M8.5,15c-3.5841,0,-6.5,-2.9159,-6.5,-6.5s2.9159,-6.5,6.5,-6.5s6.5,2.9159,6.5,6.5S12.0841,15,8.5,15zM8.5,2.9909c-3.0377,0,-5.5091,2.4714,-5.5091,5.5091S5.4623,14.0091,8.5,14.0091S14.0091,11.5378,14.0091,8.5S11.5378,2.9909,8.5,2.9909z" fill="#fcd34d"/>
    <path d="M8,4.6627c0,-0.2078,0.135,-0.3996,0.3369,-0.4489c0.2757,-0.0673,0.6244,0.1201,0.659,0.3751L9,4.65V8l2.2373,0c0.2078,0,0.3996,0.135,0.4488,0.3369c0.0673,0.2757,-0.12,0.6244,-0.3752,0.659L11.25,9h-2.8c-0.2277,0,-0.4161,-0.1694,-0.4459,-0.389L8,8.45L8,4.6627z" id="c2" fill="#fcd34d"/>
  </g>
</svg>
