<?xml version="1.0" encoding="UTF-8"?>
<!DOCTYPE svg PUBLIC "-//W3C//DTD SVG 1.1//EN" "http://www.w3.org/Graphics/SVG/1.1/DTD/svg11.dtd">
<svg version="1.1" id="Layer_1" xmlns="http://www.w3.org/2000/svg" xmlns:xlink="http://www.w3.org/1999/xlink" x="0px" y="0px" width="16px" height="16px" viewBox="0 0 16 16" enable-background="new 0 0 16 16" xml:space="preserve">
  <g id="main">
    <g id="icon">
      <path d="M7.835,2.605L7.247,2.695L6.679,2.842L6.136,3.041L5.618,3.291L5.129,3.588L4.673,3.929L4.252,4.312L3.87,4.733L3.528,5.189L3.231,5.678L2.981,6.196L2.782,6.74L2.636,7.307L2.546,7.895L2.515,8.499L2.563,9.253L2.705,9.992L2.94,10.71L3.263,11.38L3.281,11.42L2.434,14.45L2.492,14.51L5.527,13.66L5.558,13.68L6.236,14L6.686,14.15L6.641,14.07L6.368,13.48L6.167,12.85L6.043,12.19L6,11.5L6.029,10.94L6.112,10.39L6.248,9.866L6.433,9.361L6.665,8.88L6.941,8.427L7.257,8.004L7.613,7.613L8.004,7.257L8.427,6.941L8.88,6.665L9.361,6.433L9.866,6.248L10.39,6.112L10.94,6.029L11.5,6L12.19,6.043L12.85,6.167L13.48,6.368L14.06,6.634L13.9,6.196L13.65,5.678L13.35,5.189L13.01,4.733L12.63,4.312L12.21,3.929L11.75,3.588L11.26,3.291L10.74,3.041L10.2,2.842L9.632,2.695L9.044,2.605L8.439,2.575zz" fill="#262626"/>
      <path d="M7.775,2.034L7.13,2.132L6.507,2.292L5.91,2.511L5.341,2.784L4.805,3.11L4.305,3.484L3.844,3.904L3.424,4.365L3.05,4.866L2.724,5.401L2.451,5.97L2.232,6.567L2.072,7.19L1.974,7.835L1.94,8.499L1.987,9.282L2.125,10.04L2.352,10.78L2.664,11.48L1.971,13.97L1.941,14.19L1.971,14.41L2.117,14.69L2.354,14.9L2.65,14.99L2.971,14.97L5.458,14.28L6.161,14.59L6.897,14.81L7.164,14.86L6.98,14.63L6.641,14.07L6.447,13.65L6.383,13.63L5.753,13.33L5.578,13.23L2.987,13.95L3.71,11.36L3.612,11.19L3.312,10.56L3.093,9.896L2.96,9.208L2.915,8.499L2.944,7.935L3.027,7.386L3.163,6.857L3.349,6.349L3.582,5.866L3.859,5.411L4.177,4.985L4.533,4.593L4.925,4.237L5.351,3.918L5.806,3.642L6.289,3.409L6.797,3.223L7.326,3.087L7.875,3.004L8.439,2.975L9.004,3.004L9.553,3.087L10.08,3.223L10.59,3.409L11.07,3.642L11.53,3.918L11.95,4.237L12.35,4.593L12.7,4.985L13.02,5.411L13.3,5.866L13.53,6.349L13.55,6.401L14.07,6.641L14.63,6.98L14.78,7.103L14.65,6.567L14.43,5.97L14.15,5.401L13.83,4.866L13.45,4.365L13.04,3.904L12.57,3.484L12.07,3.11L11.54,2.784L10.97,2.511L10.37,2.292L9.749,2.132L9.104,2.034L8.439,2zz" fill="#d4d4d4"/>
      <path d="M6.205,7.005L6,7.081L5.849,7.234L5.776,7.441L5.803,7.678L5.877,7.812L5.988,7.913L6.278,8L7.261,8L7.613,7.613L8.004,7.257L8.348,7L6.273,7zM6.222,9.004L6.017,9.081L5.866,9.234L5.793,9.441L5.82,9.678L5.894,9.812L6.005,9.913L6.219,9.977L6.248,9.866L6.433,9.361L6.607,9L6.289,9zz" fill="#d4d4d4"/>
    </g>
    <g id="overlay">
      <path d="M15.5423,11.5c0,2.2325,-1.8098,4.0423,-4.0423,4.0423S7.4577,13.7325,7.4577,11.5S9.2675,7.4577,11.5,7.4577S15.5423,9.2675,15.5423,11.5z" id="b" fill="#171717"/>
      <path d="M11.5,16c-2.4813,0,-4.5,-2.0187,-4.5,-4.5s2.0187,-4.5,4.5,-4.5s4.5,2.0187,4.5,4.5S13.9813,16,11.5,16zM11.5,7.9525c-1.9561,0,-3.5475,1.5914,-3.5475,3.5475S9.5439,15.0475,11.5,15.0475s3.5475,-1.5914,3.5475,-3.5475S13.4561,7.9525,11.5,7.9525z" id="c3" fill="#6ee7b7"/>
      <path d="M10.9559,13.0615c-0.1024,0,-0.1998,-0.0321,-0.2817,-0.0929l-0.0084,-0.0067l-0.0407,-0.0352l-1.0921,-1.0921c-0.0894,-0.0894,-0.1386,-0.2082,-0.1386,-0.3346s0.0492,-0.2452,0.1386,-0.3346c0.0893,-0.0894,0.2082,-0.1386,0.3346,-0.1386c0.1024,0,0.1998,0.0321,0.2817,0.0929l0.0086,0.0068l0.0406,0.0351l0.7575,0.7574l1.842,-1.842c0.0893,-0.0894,0.2082,-0.1386,0.3346,-0.1386c0.1264,0,0.2453,0.0492,0.3347,0.1386c0.1646,0.1646,0.1842,0.4295,0.0457,0.6163l-0.0068,0.0086l-0.0351,0.0406l-2.1804,2.1804C11.2011,13.0123,11.0823,13.0615,10.9559,13.0615z" id="c3" fill="#6ee7b7"/>
    </g>
  </g>
</svg>
