<?xml version="1.0" encoding="UTF-8"?>
<!DOCTYPE svg PUBLIC "-//W3C//DTD SVG 1.1//EN" "http://www.w3.org/Graphics/SVG/1.1/DTD/svg11.dtd">
<svg version="1.1" id="Layer_1" xmlns="http://www.w3.org/2000/svg" xmlns:xlink="http://www.w3.org/1999/xlink" x="0px" y="0px" width="16px" height="16px" viewBox="0 0 16 16" enable-background="new 0 0 16 16" xml:space="preserve">
  <g id="icon">
    <path d="M5.662,13.5H2.338c-0.4628,0,-0.838,-0.3752,-0.838,-0.838V9.338c0,-0.4628,0.3752,-0.838,0.838,-0.838H5.662c0.4628,0,0.838,0.3752,0.838,0.838v3.3241C6.5,13.1248,6.1248,13.5,5.662,13.5zM13.5,12.662V9.338c0,-0.4628,-0.3752,-0.838,-0.838,-0.838H9.338C8.8752,8.5,8.5,8.8752,8.5,9.338v3.3241c0,0.4628,0.3752,0.838,0.838,0.838h3.3241C13.1248,13.5,13.5,13.1248,13.5,12.662zM13.5,5.662V2.338c0,-0.4628,-0.3752,-0.838,-0.838,-0.838H9.338C8.8752,1.5,8.5,1.8752,8.5,2.338V5.662c0,0.4628,0.3752,0.838,0.838,0.838h3.3241C13.1248,6.5,13.5,6.1248,13.5,5.662z" id="b" fill="#262626"/>
    <path d="M12.6621,14H9.3379C8.6002,14,8,13.3998,8,12.6621V9.3379C8,8.6002,8.6002,8,9.3379,8h3.3241C13.3998,8,14,8.6002,14,9.3379v3.3241C14,13.3998,13.3998,14,12.6621,14zM9.3379,9C9.1516,9,9,9.1516,9,9.3379v3.3241c0,0.1863,0.1516,0.3379,0.3379,0.3379h3.3241c0.1863,0,0.3379,-0.1516,0.3379,-0.3379V9.3379c0,-0.1863,-0.1516,-0.3379,-0.3379,-0.3379H9.3379zM5.6621,14H2.3379C1.6002,14,1,13.3998,1,12.6621V9.3379C1,8.6002,1.6002,8,2.3379,8h3.3241C6.3998,8,7,8.6002,7,9.3379v3.3241C7,13.3998,6.3998,14,5.6621,14zM2.3379,9C2.1516,9,2,9.1516,2,9.3379v3.3241c0,0.1863,0.1516,0.3379,0.3379,0.3379h3.3241c0.1863,0,0.3379,-0.1516,0.3379,-0.3379V9.3379C6,9.1516,5.8484,9,5.6621,9H2.3379zM12.6621,7H9.3379C8.6002,7,8,6.3998,8,5.6621V2.3379C8,1.6002,8.6002,1,9.3379,1h3.3241C13.3998,1,14,1.6002,14,2.3379v3.3241C14,6.3998,13.3998,7,12.6621,7zM9.3379,2C9.1516,2,9,2.1516,9,2.3379v3.3241C9,5.8484,9.1516,6,9.3379,6h3.3241c0.1863,0,0.3379,-0.1516,0.3379,-0.3379V2.3379c0,-0.1863,-0.1516,-0.3379,-0.3379,-0.3379H9.3379z" id="c1" fill="#06b6d4"/>
  </g>
</svg>
