<?xml version="1.0" encoding="UTF-8"?>
<!DOCTYPE svg PUBLIC "-//W3C//DTD SVG 1.1//EN" "http://www.w3.org/Graphics/SVG/1.1/DTD/svg11.dtd">
<svg version="1.1" id="Layer_1" xmlns="http://www.w3.org/2000/svg" xmlns:xlink="http://www.w3.org/1999/xlink" x="0px" y="0px" width="16px" height="16px" viewBox="0 0 16 16" enable-background="new 0 0 16 16" xml:space="preserve">
  <g id="icon">
    <path d="M13.5924,11.4564L12.6,8.695V5.9542c0,-1.204,-0.4836,-2.3419,-1.3617,-3.2043c-0.8754,-0.8597,-2.0249,-1.3332,-3.2367,-1.3332c-0.1946,0,-0.3918,0.0125,-0.5864,0.0374C5.1637,1.741,3.4,3.7505,3.4,6.0288V8.695l-0.9924,2.7612c-0.0163,0.0412,-0.0081,0.0986,0.0469,0.1342c0.0041,0.0027,0.022,0.0096,0.0548,0.0096h3.9715C6.429,11.7574,6.4,11.9252,6.4,12.1c0,0.8837,0.7163,1.6,1.6,1.6s1.6,-0.7163,1.6,-1.6c0,-0.1748,-0.029,-0.3426,-0.0808,-0.5h3.9717c0.0327,0,0.0504,-0.0068,0.0544,-0.0095C13.6004,11.5548,13.6087,11.4974,13.5924,11.4564z" id="b" fill="#262626"/>
    <path d="M2.2374,11.9264c0.0804,0.052,0.1765,0.0736,0.2719,0.0736h3.3624h0.9899h2.2768h0.9899h3.3626c0.0955,0,0.1917,-0.0217,0.272,-0.0738c0.2154,-0.1396,0.2881,-0.3986,0.2013,-0.6174L13,8.6253V5.9542c0,-2.9332,-2.6515,-5.2772,-5.6354,-4.8969C4.9114,1.3699,3,3.5309,3,6.0288v2.5965l-0.9642,2.6834C1.9489,11.5278,2.0218,11.7869,2.2374,11.9264zM3.9539,8.9181c0.0238,-0.0597,0.036,-0.1235,0.036,-0.1879v-2.701c0,-1.9623,1.502,-3.6708,3.4244,-3.9529c2.4148,-0.3544,4.5958,1.5262,4.5958,3.8861v2.7677c0,0.0644,0.0122,0.1282,0.036,0.188L12.7739,11H3.226L3.9539,8.9181z" id="c1" fill="#d4d4d4"/>
    <path d="M9.1384,12.0183c0,0.6016,-0.4405,1.131,-1.0337,1.1852c-0.6746,0.0617,-1.2431,-0.4796,-1.2431,-1.1535V12h-0.9899v0.05c0,1.2605,1.0628,2.273,2.324,2.1577c1.1052,-0.1011,1.9326,-1.0749,1.9326,-2.1959V12h-0.9899V12.0183z" id="c2" fill="#d4d4d4"/>
  </g>
</svg>
