<?xml version="1.0" encoding="UTF-8"?>
<!DOCTYPE svg PUBLIC "-//W3C//DTD SVG 1.1//EN" "http://www.w3.org/Graphics/SVG/1.1/DTD/svg11.dtd">
<svg version="1.1" id="Layer_1" xmlns="http://www.w3.org/2000/svg" xmlns:xlink="http://www.w3.org/1999/xlink" x="0px" y="0px" width="16px" height="16px" viewBox="0 0 16 16" enable-background="new 0 0 16 16" xml:space="preserve">
  <g id="icon">
    <path d="M14.5,8c0,3.5899,-2.9101,6.5,-6.5,6.5s-6.5,-2.9101,-6.5,-6.5s2.9101,-6.5,6.5,-6.5S14.5,4.4101,14.5,8z" id="b" fill="#262626"/>
    <path d="M8,15c-3.8598,0,-7,-3.1402,-7,-7s3.1402,-7,7,-7s7,3.1402,7,7S11.8598,15,8,15zM8,2.0597c-3.2755,0,-5.9403,2.6648,-5.9403,5.9403S4.7245,13.9403,8,13.9403S13.9403,11.2755,13.9403,8S11.2755,2.0597,8,2.0597z" id="c1" fill="#6ee7b7"/>
    <path d="M7.125,9.0075l3.1288,-3.1287c0.205,-0.205,0.5374,-0.205,0.7424,0c0.1864,0.1864,0.2034,0.4781,0.0508,0.6836l-0.0508,0.0589l-3.5,3.5c-0.1863,0.1864,-0.478,0.2034,-0.6836,0.0508l-0.0589,-0.0508l-1.75,-1.75c-0.205,-0.205,-0.205,-0.5374,0,-0.7424c0.1864,-0.1864,0.4781,-0.2034,0.6836,-0.0508l0.0589,0.0508L7.125,9.0075l3.1288,-3.1287L7.125,9.0075z" id="c2" fill="#6ee7b7"/>
  </g>
</svg>
