<?xml version="1.0" encoding="UTF-8"?>
<!DOCTYPE svg PUBLIC "-//W3C//DTD SVG 1.1//EN" "http://www.w3.org/Graphics/SVG/1.1/DTD/svg11.dtd">
<svg version="1.1" id="Layer_1" xmlns="http://www.w3.org/2000/svg" xmlns:xlink="http://www.w3.org/1999/xlink" x="0px" y="0px" width="16px" height="16px" viewBox="0 0 16 16" enable-background="new 0 0 16 16" xml:space="preserve">
  <g id="icon">
    <path d="M11.5083,14.5H4.3917c-0.4925,0,-0.8917,-0.3992,-0.8917,-0.8917V7.4917C3.5,6.9992,3.8992,6.6,4.3917,6.6h7.1167c0.4925,0,0.8917,0.3992,0.8917,0.8917v6.1167C12.4,14.1008,12.0008,14.5,11.5083,14.5z" id="b" fill="#262626"/>
    <circle cx="8" cy="10.525" r="1" id="c2" fill="#a3a3a3"/>
    <path d="M11.5,6h-0.5V4c0,-1.6542,-1.3458,-3,-3,-3S5,2.3458,5,4v2h-0.5c-0.8284,0,-1.5,0.6716,-1.5,1.5v6c0,0.8284,0.6716,1.5,1.5,1.5h7c0.8284,0,1.5,-0.6716,1.5,-1.5V7.5C13,6.6716,12.3284,6,11.5,6zM6,4c0,-1.1028,0.8972,-2,2,-2s2,0.8972,2,2v2h-0.5H6.5h-0.5V4zM12,13.5c0,0.2761,-0.2239,0.5,-0.5,0.5H4.5c-0.2761,0,-0.5,-0.2239,-0.5,-0.5V7.5c0,-0.2761,0.2239,-0.5,0.5,-0.5h1h5h1c0.2761,0,0.5,0.2239,0.5,0.5V13.5z" id="c1" fill="#a3a3a3"/>
  </g>
</svg>
