<?xml version="1.0" encoding="UTF-8"?>
<!DOCTYPE svg PUBLIC "-//W3C//DTD SVG 1.1//EN" "http://www.w3.org/Graphics/SVG/1.1/DTD/svg11.dtd">
<svg version="1.1" id="Layer_1" xmlns="http://www.w3.org/2000/svg" xmlns:xlink="http://www.w3.org/1999/xlink" x="0px" y="0px" width="16px" height="16px" viewBox="0 0 16 16" enable-background="new 0 0 16 16" xml:space="preserve">
  <g id="icon">
    <path d="M2.0992,14.6c-0.3855,0,-0.6992,-0.3102,-0.6992,-0.6914v-1.6149c0,-0.1841,0.0724,-0.3574,0.2037,-0.4878l4.7699,-4.7357l-0.0812,-0.2748c-0.114,-0.3846,-0.1718,-0.7845,-0.1718,-1.1889C6.1206,3.2871,8.0225,1.4,10.3603,1.4S14.6,3.2871,14.6,5.6065c0,2.3195,-1.9019,4.2066,-4.2397,4.2066H8.5992v1.6521c0,0.0582,-0.049,0.1055,-0.1091,0.1055H6.929v0.9662c0,0.0582,-0.049,0.1056,-0.1091,0.1056H5.1588v1.2662c0,0.3812,-0.3137,0.6914,-0.6992,0.6914H2.0992z" id="b" fill="#262626"/>
    <path d="M10.1739,4.5985c0,-0.6471,0.5284,-1.1717,1.1802,-1.1717c0.6518,0,1.1802,0.5246,1.1802,1.1717s-0.5284,1.1717,-1.1802,1.1717C10.7022,5.7702,10.1739,5.2456,10.1739,4.5985zM4.4595,15c0.6061,0,1.0992,-0.4896,1.0992,-1.0914v-0.8662h1.2611c0.2807,0,0.5091,-0.2268,0.5091,-0.5055v-0.5662h1.1611c0.2807,0,0.5091,-0.2268,0.5091,-0.5056v-1.252h1.3611c2.5583,0,4.6397,-2.0665,4.6397,-4.6066S12.9187,1,10.3603,1S5.7206,3.0665,5.7206,5.6065c0,0.4428,0.0633,0.8809,0.1882,1.3022l0.0135,0.0458L1.3219,11.522c-0.2076,0.2061,-0.3219,0.4801,-0.3219,0.7717v1.6149C1,14.5104,1.4931,15,2.0992,15H4.4595zM13.9817,5.6065c0,1.9826,-1.6245,3.5955,-3.6214,3.5955H8.4901c-0.2807,0,-0.5092,0.2268,-0.5092,0.5056v1.252h-1.161c-0.2807,0,-0.5092,0.2268,-0.5092,0.5055v0.5662h-1.261c-0.2807,0,-0.5092,0.2268,-0.5092,0.5055v1.4521H2.0183v-1.7286l4.8493,-4.8146c0.1425,-0.1416,0.1876,-0.3536,0.1147,-0.5402c-0.1615,-0.4137,-0.2434,-0.8507,-0.2434,-1.299c0,-1.9826,1.6245,-3.5955,3.6214,-3.5955S13.9817,3.624,13.9817,5.6065z" id="c1" fill="#d4d4d4"/>
  </g>
</svg>
