<?xml version="1.0" encoding="UTF-8"?>
<!DOCTYPE svg PUBLIC "-//W3C//DTD SVG 1.1//EN" "http://www.w3.org/Graphics/SVG/1.1/DTD/svg11.dtd">
<svg version="1.1" id="Layer_1" xmlns="http://www.w3.org/2000/svg" xmlns:xlink="http://www.w3.org/1999/xlink" x="0px" y="0px" width="16px" height="16px" viewBox="0 0 16 16" enable-background="new 0 0 16 16" xml:space="preserve">
  <g id="icon">
    <path d="M14.5,12.55v0.9c0,0.5799,-0.4701,1.05,-1.05,1.05h-4.9c-0.5799,0,-1.05,-0.4701,-1.05,-1.05v-0.9c0,-0.5799,0.4701,-1.05,1.05,-1.05h4.9C14.0299,11.5,14.5,11.9701,14.5,12.55zM10.5,3.45v-0.9c0,-0.5799,-0.4701,-1.05,-1.05,-1.05h-6.9C1.9701,1.5,1.5,1.9701,1.5,2.55v0.9C1.5,4.0299,1.9701,4.5,2.55,4.5h6.9C10.0299,4.5,10.5,4.0299,10.5,3.45zM13.45,6.5h-4.9C7.9701,6.5,7.5,6.9701,7.5,7.55v0.9C7.5,9.0299,7.9701,9.5,8.55,9.5h4.9c0.5799,0,1.05,-0.4701,1.05,-1.05v-0.9C14.5,6.9701,14.0299,6.5,13.45,6.5zM4,12c-0.5523,0,-1,0.4477,-1,1c0,0.5523,0.4477,1,1,1s1,-0.4477,1,-1C5,12.4477,4.5523,12,4,12zM4,7c-0.5523,0,-1,0.4477,-1,1c0,0.5523,0.4477,1,1,1s1,-0.4477,1,-1C5,7.4477,4.5523,7,4,7z" id="b" fill="#262626"/>
    <path d="M13.45,15h-4.9c-0.8547,0,-1.55,-0.6953,-1.55,-1.55v-0.9c0,-0.8547,0.6953,-1.55,1.55,-1.55h4.9c0.8547,0,1.55,0.6953,1.55,1.55v0.9C15,14.3047,14.3047,15,13.45,15zM8.55,12c-0.3033,0,-0.55,0.2467,-0.55,0.55v0.9c0,0.3033,0.2467,0.55,0.55,0.55h4.9c0.3033,0,0.55,-0.2467,0.55,-0.55v-0.9c0,-0.3033,-0.2467,-0.55,-0.55,-0.55H8.55zM13.45,10h-4.9C7.6953,10,7,9.3047,7,8.45v-0.9C7,6.6953,7.6953,6,8.55,6h4.9c0.8547,0,1.55,0.6953,1.55,1.55v0.9C15,9.3047,14.3047,10,13.45,10zM8.55,7c-0.3033,0,-0.55,0.2467,-0.55,0.55v0.9c0,0.3033,0.2467,0.55,0.55,0.55h4.9c0.3033,0,0.55,-0.2467,0.55,-0.55v-0.9c0,-0.3033,-0.2467,-0.55,-0.55,-0.55H8.55zM9.45,5h-6.9C1.6953,5,1,4.3047,1,3.45v-0.9C1,1.6953,1.6953,1,2.55,1h6.9c0.8547,0,1.55,0.6953,1.55,1.55v0.9C11,4.3047,10.3047,5,9.45,5zM2.55,2c-0.3033,0,-0.55,0.2467,-0.55,0.55v0.9c0,0.3033,0.2467,0.55,0.55,0.55h6.9c0.3033,0,0.55,-0.2467,0.55,-0.55v-0.9c0,-0.3033,-0.2467,-0.55,-0.55,-0.55H2.55z" id="c2" fill="#d4d4d4"/>
    <path d="M5.4125,8.5H7.5c0.2761,0,0.5,-0.2239,0.5,-0.5s-0.2239,-0.5,-0.5,-0.5H5.4125c-0.1509,-0.425,-0.4875,-0.7615,-0.9125,-0.9125V4.5c0,-0.2761,-0.2239,-0.5,-0.5,-0.5s-0.5,0.2239,-0.5,0.5v2.0875C2.9184,6.7941,2.5,7.3484,2.5,8s0.4184,1.2059,1,1.4125v2.175c-0.5816,0.2066,-1,0.7609,-1,1.4125c0,0.8271,0.6729,1.5,1.5,1.5c0.6516,0,1.2059,-0.4184,1.4125,-1H7.35c0.2761,0,0.5,-0.2239,0.5,-0.5s-0.2239,-0.5,-0.5,-0.5H5.4125c-0.1509,-0.425,-0.4875,-0.7615,-0.9125,-0.9125v-2.175C4.925,9.2615,5.2615,8.925,5.4125,8.5zM4,7.5c0.2757,0,0.5,0.2243,0.5,0.5s-0.2243,0.5,-0.5,0.5s-0.5,-0.2243,-0.5,-0.5S3.7243,7.5,4,7.5zM4,13.5c-0.2757,0,-0.5,-0.2243,-0.5,-0.5s0.2243,-0.5,0.5,-0.5s0.5,0.2243,0.5,0.5S4.2757,13.5,4,13.5z" id="c1" fill="#d4d4d4"/>
  </g>
</svg>
