<?xml version="1.0" encoding="UTF-8"?>
<!DOCTYPE svg PUBLIC "-//W3C//DTD SVG 1.1//EN" "http://www.w3.org/Graphics/SVG/1.1/DTD/svg11.dtd">
<svg version="1.1" id="Layer_1" xmlns="http://www.w3.org/2000/svg" xmlns:xlink="http://www.w3.org/1999/xlink" x="0px" y="0px" width="16px" height="16px" viewBox="0 0 16 16" enable-background="new 0 0 16 16" xml:space="preserve">
  <g id="icon">
    <path d="M14.5,8c0,3.5899,-2.9101,6.5,-6.5,6.5s-6.5,-2.9101,-6.5,-6.5s2.9101,-6.5,6.5,-6.5S14.5,4.4101,14.5,8z" id="b" fill="#262626"/>
    <path d="M1.0014,7.9999c0,-3.8651,3.1333,-6.9985,6.9985,-6.9985c3.8651,0,6.9984,3.1333,6.9984,6.9985s-3.1333,6.9984,-6.9984,6.9984C4.1347,14.9983,1.0014,11.865,1.0014,7.9999zM7.9998,2.0014l-0.0494,0.0002c0.0913,0.1789,0.1913,0.3948,0.2814,0.6342c0.2431,0.6458,0.4636,1.5916,0.071,2.4276c-0.3617,0.7702,-0.9849,0.9697,-1.4504,1.09l-0.0673,0.0173c-0.4526,0.1166,-0.6403,0.1649,-0.7754,0.37c-0.1264,0.1919,-0.1036,0.4327,0.0399,0.9002c0.0102,0.0333,0.0212,0.0684,0.0327,0.1048c0.057,0.1815,0.125,0.3982,0.1604,0.602c0.0441,0.2533,0.0558,0.5718,-0.1042,0.8789c-0.1603,0.3075,-0.3721,0.5162,-0.6218,0.6522c-0.2351,0.1281,-0.4791,0.1769,-0.6641,0.2097l-0.0686,0.0121c-0.3582,0.063,-0.5399,0.0949,-0.7146,0.2821c-0.1368,0.1466,-0.222,0.4013,-0.2714,0.7719c-0.0202,0.1512,-0.0323,0.3012,-0.0448,0.4554l-0.0067,0.0821c-0.014,0.1704,-0.0313,0.3644,-0.0691,0.5304l-0.0251,0.1103c1.0928,1.1492,2.6365,1.8655,4.3474,1.8655c1.1152,0,2.1593,-0.3043,3.0538,-0.8345c-0.0794,-0.078,-0.1696,-0.1745,-0.2582,-0.286c-0.237,-0.2984,-0.5437,-0.8076,-0.4373,-1.4064c0.051,-0.2871,0.2051,-0.5286,0.3559,-0.7156c0.1536,-0.1903,0.3393,-0.3666,0.5027,-0.517c0.0386,-0.0355,0.0757,-0.0694,0.1113,-0.1019c0.1253,-0.1144,0.2326,-0.2123,0.3242,-0.3084c0.0566,-0.0592,0.0969,-0.1074,0.1242,-0.1462c0.0231,-0.0329,0.0303,-0.0498,0.0314,-0.0524c-0.0001,0,0.0001,-0.0002,0,0c0.0507,-0.1678,-0.0109,-0.2909,-0.0839,-0.3473c-0.0548,-0.0424,-0.1952,-0.1054,-0.4457,0.0533c-0.0974,0.0617,-0.1841,0.1165,-0.2539,0.157c-0.0523,0.0304,-0.1584,0.092,-0.2743,0.1174c-0.0632,0.0138,-0.2019,0.034,-0.3531,-0.0371c-0.1709,-0.0803,-0.2493,-0.2236,-0.2809,-0.3221c-0.0277,-0.0865,-0.0288,-0.1636,-0.0285,-0.1998c0.0003,-0.0423,0.004,-0.0827,0.0071,-0.112c0.0026,-0.0243,0.0057,-0.0502,0.0091,-0.0778c0.0256,-0.2106,0.0633,-0.5204,-0.057,-0.9822c-0.0968,-0.3714,-0.2377,-0.6539,-0.3815,-0.9423c-0.0663,-0.1329,-0.1333,-0.2672,-0.1968,-0.412c-0.0876,-0.1995,-0.1838,-0.4593,-0.1669,-0.7359c0.0196,-0.3196,0.1816,-0.5803,0.4428,-0.7762c0.317,-0.2378,0.7158,-0.7821,1.0608,-1.3333c0.165,-0.2637,0.3063,-0.51,0.4064,-0.6905c0.0079,-0.0143,0.0156,-0.0282,0.023,-0.0417C10.3012,2.3487,9.1911,2.0014,7.9998,2.0014zM12.0365,3.5629c-0.1013,0.1801,-0.2329,0.4064,-0.3837,0.6473c-0.3387,0.541,-0.8239,1.2393,-1.3085,1.6028c-0.027,0.0202,-0.0397,0.0342,-0.0448,0.0407c-0.0005,0.0268,0.0105,0.1008,0.0846,0.2695c0.0323,0.0737,0.0777,0.165,0.1302,0.2705c0.1562,0.3142,0.3754,0.7548,0.5001,1.2336c0.0666,0.2559,0.098,0.4846,0.1098,0.6815c0.436,-0.1445,0.8741,-0.0781,1.2114,0.1827c0.4182,0.3234,0.5936,0.8846,0.4293,1.4281c-0.0748,0.2476,-0.2497,0.4532,-0.3893,0.5994c-0.1179,0.1235,-0.2592,0.2524,-0.3882,0.3701c-0.0321,0.0292,-0.0635,0.0579,-0.0935,0.0855c-0.1615,0.1487,-0.2987,0.2816,-0.4015,0.4091c-0.1056,0.1309,-0.1415,0.2159,-0.1498,0.2626c-0.0293,0.1651,0.0515,0.3774,0.2358,0.6095c0.0841,0.1059,0.1735,0.1949,0.2428,0.2578c0.0252,0.0229,0.0471,0.0418,0.0643,0.0561c1.2927,-1.1002,2.1127,-2.7393,2.1127,-4.5698C13.9982,6.2416,13.2417,4.66,12.0365,3.5629zM2.0014,7.9999c0,1.0818,0.2864,2.0966,0.7874,2.9729c0.0054,-0.0497,0.0114,-0.1,0.0181,-0.1504c0.0539,-0.4046,0.1685,-0.933,0.5316,-1.3221c0.4147,-0.4443,0.9231,-0.5277,1.2482,-0.581c0.0324,-0.0053,0.063,-0.0103,0.0915,-0.0154c0.1743,-0.0309,0.2786,-0.0587,0.3603,-0.1032c0.067,-0.0365,0.1405,-0.0964,0.2134,-0.2362c0.0143,-0.0275,0.0328,-0.0899,0.0058,-0.2453c-0.0231,-0.1327,-0.0664,-0.2716,-0.1224,-0.451c-0.0132,-0.0422,-0.0271,-0.0867,-0.0415,-0.1339c-0.1304,-0.4249,-0.3334,-1.1145,0.081,-1.7436c0.3602,-0.5468,0.9387,-0.6867,1.3134,-0.7773c0.0406,-0.0098,0.0788,-0.0191,0.1141,-0.0282c0.3972,-0.1026,0.6326,-0.2,0.7954,-0.5468c0.2123,-0.452,0.1196,-1.0622,-0.1018,-1.6502c-0.1053,-0.2796,-0.2287,-0.5252,-0.3264,-0.7014c-0.0405,-0.0731,-0.0761,-0.1333,-0.1035,-0.1782C4.0952,2.6385,2.0014,5.0746,2.0014,7.9999z" fill="#d4d4d4"/>
  </g>
</svg>
