<?xml version="1.0" encoding="UTF-8"?>
<!DOCTYPE svg PUBLIC "-//W3C//DTD SVG 1.1//EN" "http://www.w3.org/Graphics/SVG/1.1/DTD/svg11.dtd">
<svg version="1.1" id="Layer_1" xmlns="http://www.w3.org/2000/svg" xmlns:xlink="http://www.w3.org/1999/xlink" x="0px" y="0px" width="16px" height="16px" viewBox="0 0 16 16" enable-background="new 0 0 16 16" xml:space="preserve">
  <g id="icon">
    <path d="M11.3,11.5H4.7c-1.215,0,-2.2,-0.985,-2.2,-2.2V2.9h11v6.4C13.5,10.515,12.515,11.5,11.3,11.5z" id="b" fill="#262626"/>
    <path d="M2,2c-0.5523,0,-1,0.4477,-1,1s0.4477,1,1,1v5.5c0,1.3807,1.1193,2.5,2.5,2.5h3v2H5.5c-0.2761,0,-0.5,0.2239,-0.5,0.5s0.2239,0.5,0.5,0.5h5c0.2761,0,0.5,-0.2239,0.5,-0.5s-0.2239,-0.5,-0.5,-0.5H8.5v-2h3c1.3807,0,2.5,-1.1193,2.5,-2.5V4c0.5523,0,1,-0.4477,1,-1s-0.4477,-1,-1,-1H2zM3,4h10v5.5c0,0.8284,-0.6716,1.5,-1.5,1.5H4.5c-0.8284,0,-1.5,-0.6716,-1.5,-1.5V4z" id="c1" fill="#d4d4d4"/>
    <path d="M6.0167,5.4855V9.369c0,0.2226,0.279,0.3594,0.4965,0.2433l3.3233,-1.7745c0.3514,-0.1876,0.3514,-0.6334,0,-0.821L6.5131,5.2423C6.2957,5.1262,6.0167,5.2629,6.0167,5.4855z" id="c2" fill="#d4d4d4"/>
  </g>
</svg>
