<?xml version="1.0" encoding="UTF-8"?>
<!DOCTYPE svg PUBLIC "-//W3C//DTD SVG 1.1//EN" "http://www.w3.org/Graphics/SVG/1.1/DTD/svg11.dtd">
<svg version="1.1" id="Layer_1" xmlns="http://www.w3.org/2000/svg" xmlns:xlink="http://www.w3.org/1999/xlink" x="0px" y="0px" width="16px" height="16px" viewBox="0 0 16 16" enable-background="new 0 0 16 16" xml:space="preserve">
  <g id="main">
    <g id="icon">
      <path d="M7.375,1.561L6.793,1.735L6.267,2.01L5.808,2.375L5.429,2.818L5.144,3.325L4.963,3.887L4.9,4.489L4.963,5.091L5.144,5.652L5.429,6.16L5.808,6.602L6.267,6.967L6.793,7.243L7.375,7.417L8,7.478L8.625,7.417L9.207,7.243L9.733,6.967L10.19,6.602L10.57,6.16L10.86,5.652L11.04,5.091L11.1,4.489L11.04,3.887L10.86,3.325L10.57,2.818L10.19,2.375L9.733,2.01L9.207,1.735L8.625,1.561L8,1.5zM4.515,9.037L4.159,9.142L3.837,9.309L3.556,9.53L3.324,9.798L3.149,10.11L3.038,10.45L3,10.81L3.053,11.4L3.206,11.97L3.452,12.5L3.782,12.98L4.19,13.4L4.667,13.76L5.205,14.03L5.797,14.23L5.915,14.26L6,14.27L6,14.17L6.035,13.81L6.139,13.47L6.308,13.15L6.539,12.87L8.961,10.47L8.935,10.01L9.017,9.204L9.08,9L4.898,9zz" fill="#262626"/>
      <path d="M7.289,8.539L7.17,8.642L7.108,8.787L7.116,8.952L7.502,10.26L7.298,12.12L8.602,10.83L8.54,10.26L8.925,8.952L8.934,8.787L8.871,8.642L8.753,8.539L8.594,8.5L7.448,8.5zz" fill="#d4d4d4"/>
      <path d="M7.275,1.071L6.6,1.275L5.989,1.597L5.456,2.023L5.016,2.539L4.683,3.132L4.473,3.787L4.4,4.489L4.473,5.191L4.683,5.846L5.016,6.438L5.456,6.954L5.989,7.381L6.6,7.703L7.275,7.907L8,7.978L8.725,7.907L9.4,7.703L9.898,7.441L10.12,7.176L10.71,6.686L10.82,6.627L10.98,6.438L11.32,5.846L11.53,5.191L11.6,4.489L11.53,3.787L11.32,3.132L10.98,2.539L10.54,2.023L10.01,1.597L9.4,1.275L8.725,1.071L8,1zM8.523,2.051L9.011,2.196L9.453,2.426L9.838,2.73L10.16,3.098L10.4,3.521L10.55,3.988L10.6,4.489L10.55,4.99L10.4,5.457L10.16,5.879L9.838,6.248L9.453,6.552L9.011,6.782L8.523,6.927L8,6.978L7.477,6.927L6.989,6.782L6.547,6.552L6.162,6.248L5.845,5.879L5.605,5.457L5.453,4.99L5.4,4.489L5.453,3.988L5.605,3.521L5.845,3.098L6.162,2.73L6.547,2.426L6.989,2.196L7.477,2.051L8,2zM4.415,8.547L3.965,8.682L3.558,8.895L3.203,9.177L2.91,9.519L2.689,9.912L2.549,10.35L2.5,10.81L2.56,11.49L2.734,12.14L3.013,12.74L3.388,13.29L3.852,13.77L4.394,14.18L5.007,14.49L5.681,14.71L5.799,14.74L6,14.78L6,14.17L6.035,13.81L6.047,13.77L6.031,13.77L5.913,13.74L5.402,13.57L4.937,13.33L4.525,13.03L4.174,12.67L3.889,12.26L3.677,11.81L3.546,11.32L3.5,10.81L3.529,10.55L3.61,10.3L3.739,10.08L3.91,9.884L4.354,9.603L4.616,9.527L4.898,9.5L5.7,9.5L5.895,9.461L6.054,9.354L6.161,9.195L6.2,9L6.161,8.805L6.054,8.646L5.895,8.539L5.7,8.5L4.898,8.5zz" fill="#d4d4d4"/>
    </g>
    <g id="overlay">
      <path d="M7.8317,15.603c-0.2397,0,-0.4347,-0.1928,-0.4347,-0.4298v-1.004c0,-0.1145,0.045,-0.2222,0.1266,-0.3032l2.9653,-2.944l-0.0505,-0.1708c-0.0709,-0.2391,-0.1068,-0.4877,-0.1068,-0.7391c0,-1.4419,1.1823,-2.6151,2.6357,-2.6151s2.6357,1.1731,2.6357,2.6151c0,1.442,-1.1823,2.6151,-2.6357,2.6151h-1.0948v1.027c0,0.0362,-0.0304,0.0656,-0.0678,0.0656h-0.9705v0.6006c0,0.0362,-0.0304,0.0656,-0.0678,0.0656H9.7337v0.7872c0,0.237,-0.195,0.4298,-0.4347,0.4298H7.8317z" id="b" fill="#171717"/>
      <path d="M7.8317,16c-0.4586,0,-0.8317,-0.3709,-0.8317,-0.8268v-1.004c0,-0.221,0.0866,-0.4288,0.244,-0.585l2.7975,-2.7774c-0.0709,-0.2581,-0.1068,-0.5252,-0.1068,-0.7947C9.9346,8.3512,11.2951,7,12.9673,7C14.6395,7,16,8.3512,16,10.0121s-1.3605,3.0121,-3.0327,3.0121h-0.6978v0.63c0,0.2551,-0.2085,0.4626,-0.4649,0.4626h-0.5735v0.2036c0,0.2551,-0.2085,0.4626,-0.4649,0.4626h-0.6356v0.3901c0,0.4559,-0.3731,0.8268,-0.8317,0.8268H7.8317zM9.201,15.0748v-0.7544c0,-0.2551,0.2086,-0.4626,0.4649,-0.4626h0.6356v-0.2036c0,-0.2551,0.2086,-0.4626,0.4649,-0.4626h0.5734v-0.63c0,-0.2551,0.2086,-0.4626,0.4649,-0.4626h1.1627c1.1595,0,2.1029,-0.9361,2.1029,-2.0868s-0.9434,-2.0869,-2.1029,-2.0869c-1.1596,0,-2.103,0.9362,-2.103,2.0869c0,0.26,0.0475,0.5135,0.1412,0.7536c0.0668,0.171,0.0256,0.3653,-0.1049,0.495l-2.9708,2.9496v0.8645H9.201zM13.3851,10.4622c-0.4863,0,-0.882,-0.3933,-0.882,-0.8768s0.3957,-0.8768,0.882,-0.8768c0.4863,0,0.882,0.3933,0.882,0.8768S13.8714,10.4622,13.3851,10.4622z" id="c1" fill="#d4d4d4"/>
    </g>
  </g>
</svg>
