<?xml version="1.0" encoding="UTF-8"?>
<!DOCTYPE svg PUBLIC "-//W3C//DTD SVG 1.1//EN" "http://www.w3.org/Graphics/SVG/1.1/DTD/svg11.dtd">
<svg version="1.1" id="Layer_1" xmlns="http://www.w3.org/2000/svg" xmlns:xlink="http://www.w3.org/1999/xlink" x="0px" y="0px" width="16px" height="16px" viewBox="0 0 16 16" enable-background="new 0 0 16 16" xml:space="preserve">
  <g id="icon">
    <path d="M12.375,13.5h-8.65C3.1037,13.5,2.6,12.9963,2.6,12.375v-8.65C2.6,3.1037,3.1037,2.6,3.725,2.6h6.809c0.2984,0,0.5845,0.1185,0.7955,0.3295l1.841,1.841c0.211,0.211,0.3295,0.4971,0.3295,0.7955v6.809C13.5,12.9963,12.9963,13.5,12.375,13.5z" id="b" fill="#262626"/>
    <path d="M4,3c-0.5523,0,-1,0.4477,-1,1v8c0,0.5523,0.4477,1,1,1V9.5c0,-0.8284,0.6716,-1.5,1.5,-1.5h5c0.8284,0,1.5,0.6716,1.5,1.5v3.5c0.5523,0,1,-0.4477,1,-1V5.6213c0,-0.2652,-0.1054,-0.5196,-0.2929,-0.7071l-1.6213,-1.6213c-0.1876,-0.1875,-0.4419,-0.2929,-0.7071,-0.2929H10v1.5c0,0.8284,-0.6716,1.5,-1.5,1.5H6.5c-0.8284,0,-1.5,-0.6716,-1.5,-1.5V3H4zM6,3v1.5c0,0.2761,0.2239,0.5,0.5,0.5h2c0.2761,0,0.5,-0.2239,0.5,-0.5V3H6zM11,13V9.5c0,-0.2761,-0.2239,-0.5,-0.5,-0.5H5.5c-0.2761,0,-0.5,0.2239,-0.5,0.5v3.5H11zM2,4c0,-1.1046,0.8954,-2,2,-2h6.3787c0.5304,0,1.0391,0.2107,1.4142,0.5858l1.6213,1.6213c0.3751,0.3751,0.5858,0.8838,0.5858,1.4142V12c0,1.1046,-0.8954,2,-2,2H4c-1.1046,0,-2,-0.8954,-2,-2V4z" id="c1" fill="#d4d4d4"/>
  </g>
</svg>
