<?xml version="1.0" encoding="UTF-8"?>
<!DOCTYPE svg PUBLIC "-//W3C//DTD SVG 1.1//EN" "http://www.w3.org/Graphics/SVG/1.1/DTD/svg11.dtd">
<svg version="1.1" id="Layer_1" xmlns="http://www.w3.org/2000/svg" xmlns:xlink="http://www.w3.org/1999/xlink" x="0px" y="0px" width="16px" height="16px" viewBox="0 0 16 16" enable-background="new 0 0 16 16" xml:space="preserve">
  <g id="icon">
    <path d="M13.375,12.5h-8.65C4.1037,12.5,3.6,11.9963,3.6,11.375v-8.65C3.6,2.1037,4.1037,1.6,4.725,1.6h6.809c0.2984,0,0.5845,0.1185,0.7955,0.3295l1.841,1.841c0.211,0.211,0.3295,0.4971,0.3295,0.7955v6.809C14.5,11.9963,13.9963,12.5,13.375,12.5z" id="b" fill="#262626"/>
    <path d="M5,2c-0.5523,0,-1,0.4477,-1,1v8c0,0.5523,0.4477,1,1,1V8.5c0,-0.8284,0.6716,-1.5,1.5,-1.5h5c0.8284,0,1.5,0.6716,1.5,1.5v3.5c0.5523,0,1,-0.4477,1,-1V4.6213c0,-0.2652,-0.1054,-0.5196,-0.2929,-0.7071l-1.6213,-1.6213c-0.1876,-0.1875,-0.4419,-0.2929,-0.7071,-0.2929H11v1.5c0,0.8284,-0.6716,1.5,-1.5,1.5H7.5c-0.8284,0,-1.5,-0.6716,-1.5,-1.5V2H5zM7,2v1.5c0,0.2761,0.2239,0.5,0.5,0.5h2c0.2761,0,0.5,-0.2239,0.5,-0.5V2H7zM12,12V8.5c0,-0.2761,-0.2239,-0.5,-0.5,-0.5H6.5c-0.2761,0,-0.5,0.2239,-0.5,0.5v3.5H12zM3,3c0,-1.1046,0.8954,-2,2,-2h6.3787c0.5304,0,1.0391,0.2107,1.4142,0.5858l1.6213,1.6213c0.3751,0.3751,0.5858,0.8838,0.5858,1.4142V11c0,1.1046,-0.8954,2,-2,2H5c-1.1046,0,-2,-0.8954,-2,-2V3z" id="c1" fill="#d4d4d4"/>
    <path d="M4.4652,15C2.5514,15,1,13.4486,1,11.5348V5.1652c0,-0.5601,0.1341,-1.0842,0.3736,-1.5443C1.5342,3.3122,2,3.4233,2,3.7712l0,1.3939V10v1.5348C2,12.8963,3.1037,14,4.4652,14H7h3.9303l1.3213,0c0.3324,0,0.4475,0.4486,0.1528,0.6024c-0.4092,0.2135,-0.8659,0.3507,-1.3506,0.3908L10.9716,15H4.4652z" id="c2" fill="#d4d4d4"/>
  </g>
</svg>
