<?xml version="1.0" encoding="UTF-8"?>
<!DOCTYPE svg PUBLIC "-//W3C//DTD SVG 1.1//EN" "http://www.w3.org/Graphics/SVG/1.1/DTD/svg11.dtd">
<svg version="1.1" id="Layer_1" xmlns="http://www.w3.org/2000/svg" xmlns:xlink="http://www.w3.org/1999/xlink" x="0px" y="0px" width="16px" height="16px" viewBox="0 0 16 16" enable-background="new 0 0 16 16" xml:space="preserve">
  <g id="main">
    <g id="icon">
      <path d="M3.287,2.688L2.929,2.929L2.688,3.287L2.6,3.725L2.6,12.38L2.688,12.81L2.929,13.17L3.287,13.41L3.725,13.5L12.38,13.5L12.81,13.41L13.17,13.17L13.41,12.81L13.5,12.38L13.5,8.819L13.42,9.083L13.28,9.338L13.1,9.56L12.87,9.744L12.62,9.882L12.34,9.97L12.04,10L11.73,9.97L11.45,9.882L11.2,9.744L10.98,9.56L10.79,9.338L10.65,9.083L10.57,8.802L10.54,8.5L10.54,7.098L9.322,7.799L8.96,7.949L8.572,8L8.181,7.948L7.822,7.798L7.513,7.562L7.272,7.25L7.148,6.973L7.083,6.686L7.076,6.396L7.123,6.112L7.224,5.842L7.375,5.595L7.575,5.378L7.822,5.201L9.036,4.5L7.822,3.799L7.576,3.622L7.376,3.405L7.224,3.158L7.123,2.888L7.076,2.604L7.076,2.6L3.725,2.6zz" fill="#262626"/>
      <path d="M3.597,2.041L3.221,2.157L2.882,2.342L2.586,2.586L2.342,2.882L2.157,3.221L2.041,3.597L2,4L2,12L2.041,12.4L2.157,12.78L2.342,13.12L2.586,13.41L2.882,13.66L3.221,13.84L3.597,13.96L4,14L12,14L12.4,13.96L12.78,13.84L13.12,13.66L13.41,13.41L13.66,13.12L13.84,12.78L13.96,12.4L14,12L14,7.366L13.54,7.098L13.54,8.5L13.51,8.802L13.42,9.083L13.28,9.338L13.1,9.56L13,9.639L13,12L12.92,12.39L12.71,12.71L12.39,12.92L12,13L12,9.996L11.73,9.97L11.45,9.882L11.2,9.744L11,9.58L11,13L5,13L5,9.5L5.039,9.305L5.146,9.146L5.305,9.039L5.5,9L10.5,9L10.64,9.028L10.57,8.802L10.54,8.5L10.54,8.004L10.5,8L8.574,8L8.572,8L8.571,8L5.5,8L5.198,8.03L4.916,8.118L4.661,8.256L4.439,8.439L4.256,8.661L4.118,8.916L4.03,9.198L4,9.5L4,13L3.611,12.92L3.293,12.71L3.079,12.39L3,12L3,4L3.079,3.611L3.293,3.293L3.611,3.079L4,3L5,3L5,4.5L5.03,4.802L5.118,5.084L5.256,5.339L5.439,5.561L5.661,5.744L5.916,5.882L6.198,5.97L6.5,6L7.165,6L7.224,5.842L7.375,5.595L7.575,5.378L7.822,5.201L8.17,5L6.5,5L6.305,4.961L6.146,4.854L6.039,4.695L6,4.5L6,3L7.165,3L7.123,2.888L7.076,2.604L7.083,2.314L7.148,2.027L7.16,2L4,2zM9,4.5L8.995,4.523L9.036,4.5L9,4.479zz" fill="#d4d4d4"/>
    </g>
    <g id="overlay">
      <path d="M15.7499,6.067L13.0358,4.5l2.7141,-1.567c0.2391,-0.1381,0.3211,-0.4439,0.183,-0.683c-0.1381,-0.2391,-0.4439,-0.3211,-0.683,-0.183l-2.7141,1.567V0.5c0,-0.2761,-0.2239,-0.5,-0.5,-0.5s-0.5,0.2239,-0.5,0.5v3.134L8.8217,2.067c-0.2391,-0.1381,-0.5449,-0.0561,-0.683,0.183c-0.1381,0.2391,-0.0561,0.5449,0.183,0.683L11.0358,4.5L8.3217,6.067c-0.2391,0.1381,-0.3211,0.4439,-0.183,0.683c0.1381,0.2391,0.4439,0.3211,0.683,0.183l2.7141,-1.567V8.5c0,0.2761,0.2239,0.5,0.5,0.5s0.5,-0.2239,0.5,-0.5V5.366l2.7141,1.567c0.2391,0.1381,0.5449,0.0561,0.683,-0.183C16.071,6.5109,15.9891,6.2051,15.7499,6.067z" fill="#fcd34d"/>
    </g>
  </g>
</svg>
