<?xml version="1.0" encoding="UTF-8"?>
<!DOCTYPE svg PUBLIC "-//W3C//DTD SVG 1.1//EN" "http://www.w3.org/Graphics/SVG/1.1/DTD/svg11.dtd">
<svg version="1.1" id="Layer_1" xmlns="http://www.w3.org/2000/svg" xmlns:xlink="http://www.w3.org/1999/xlink" x="0px" y="0px" width="16px" height="16px" viewBox="0 0 16 16" enable-background="new 0 0 16 16" xml:space="preserve">
  <g id="main">
    <g id="icon">
      <path d="M3.287,2.688L2.929,2.929L2.688,3.287L2.6,3.725L2.6,12.38L2.688,12.81L2.929,13.17L3.287,13.41L3.725,13.5L6.378,13.5L6.368,13.48L6.167,12.85L6.043,12.19L6,11.5L6.029,10.94L6.112,10.39L6.248,9.866L6.433,9.361L6.665,8.88L6.941,8.427L7.257,8.004L7.613,7.613L8.004,7.257L8.427,6.941L8.88,6.665L9.361,6.433L9.866,6.248L10.39,6.112L10.94,6.029L11.5,6L12.19,6.043L12.85,6.167L13.48,6.368L13.5,6.378L13.5,5.566L13.41,5.136L13.17,4.771L11.33,2.929L10.96,2.686L10.53,2.6L3.725,2.6zz" fill="#262626"/>
      <path d="M3.597,2.041L3.221,2.157L2.882,2.342L2.586,2.586L2.342,2.882L2.157,3.221L2.041,3.597L2,4L2,12L2.041,12.4L2.157,12.78L2.342,13.12L2.586,13.41L2.882,13.66L3.221,13.84L3.597,13.96L4,14L6.607,14L6.368,13.48L6.216,13L5,13L5,9.5L5.039,9.305L5.146,9.146L5.305,9.039L5.5,9L6.607,9L6.665,8.88L6.941,8.427L7.257,8.004L7.261,8L5.5,8L5.198,8.03L4.916,8.118L4.661,8.256L4.439,8.439L4.256,8.661L4.118,8.916L4.03,9.198L4,9.5L4,13L3.611,12.92L3.293,12.71L3.079,12.39L3,12L3,4L3.079,3.611L3.293,3.293L3.611,3.079L4,3L5,3L5,4.5L5.03,4.802L5.118,5.084L5.256,5.339L5.439,5.561L5.661,5.744L5.916,5.882L6.198,5.97L6.5,6L8.5,6L8.802,5.97L9.084,5.882L9.339,5.744L9.561,5.561L9.744,5.339L9.882,5.084L9.97,4.802L10,4.5L10,3L10.38,3L10.76,3.076L11.09,3.293L12.71,4.914L12.92,5.239L13,5.621L13,6.216L13.48,6.368L14,6.607L14,5.621L13.96,5.229L13.85,4.856L13.66,4.512L13.41,4.207L11.79,2.586L11.49,2.336L11.14,2.152L10.77,2.039L10.38,2L4,2zM9,3L9,4.5L8.961,4.695L8.854,4.854L8.695,4.961L8.5,5L6.5,5L6.305,4.961L6.146,4.854L6.039,4.695L6,4.5L6,3zz" fill="#d4d4d4"/>
    </g>
    <g id="overlay">
      <circle cx="11.5" cy="11.5" r="4" id="b" fill="#171717"/>
      <path d="M11.5,7c-2.4853,0,-4.5,2.0147,-4.5,4.5c0,2.4853,2.0147,4.5,4.5,4.5c2.4853,0,4.5,-2.0147,4.5,-4.5C16,9.0147,13.9853,7,11.5,7zM11.5,15c-1.933,0,-3.5,-1.567,-3.5,-3.5s1.567,-3.5,3.5,-3.5s3.5,1.567,3.5,3.5S13.433,15,11.5,15z" id="c3" fill="#6ee7b7"/>
      <path d="M13.5,11h-1.5V9.5c0,-0.2761,-0.2239,-0.5,-0.5,-0.5s-0.5,0.2239,-0.5,0.5v1.5H9.5c-0.2761,0,-0.5,0.2239,-0.5,0.5s0.2239,0.5,0.5,0.5h1.5v1.5c0,0.2761,0.2239,0.5,0.5,0.5s0.5,-0.2239,0.5,-0.5v-1.5h1.5c0.2761,0,0.5,-0.2239,0.5,-0.5S13.7761,11,13.5,11z" id="c3" fill="#6ee7b7"/>
    </g>
  </g>
</svg>
