<?xml version="1.0" encoding="UTF-8"?>
<!DOCTYPE svg PUBLIC "-//W3C//DTD SVG 1.1//EN" "http://www.w3.org/Graphics/SVG/1.1/DTD/svg11.dtd">
<svg version="1.1" id="Layer_1" xmlns="http://www.w3.org/2000/svg" xmlns:xlink="http://www.w3.org/1999/xlink" x="0px" y="0px" width="16px" height="16px" viewBox="0 0 16 16" enable-background="new 0 0 16 16" xml:space="preserve">
  <g id="icon">
    <path d="M6.5,6.5H2.5V2.5h4V6.5zM13.5,2.5H9.5v4h4V2.5zM13.5,9.5H9.5v4h4V9.5zM6.5,9.5H2.5v4h4V9.5z" id="b" fill="#262626"/>
    <path d="M6.5,7H2.5c-0.2761,0,-0.5,-0.2239,-0.5,-0.5V2.5c0,-0.2761,0.2239,-0.5,0.5,-0.5h4c0.2761,0,0.5,0.2239,0.5,0.5v4C7,6.7761,6.7761,7,6.5,7zM3,6h3V3H3V6zM13.5,7H9.5c-0.2761,0,-0.5,-0.2239,-0.5,-0.5V2.5c0,-0.2761,0.2239,-0.5,0.5,-0.5h4c0.2761,0,0.5,0.2239,0.5,0.5v4C14,6.7761,13.7761,7,13.5,7zM10,6h3V3h-3V6zM13.5,14H9.5c-0.2761,0,-0.5,-0.2239,-0.5,-0.5V9.5c0,-0.2761,0.2239,-0.5,0.5,-0.5h4c0.2761,0,0.5,0.2239,0.5,0.5v4C14,13.7761,13.7761,14,13.5,14zM10,13h3v-3h-3V13zM6.5,14H2.5c-0.2761,0,-0.5,-0.2239,-0.5,-0.5V9.5c0,-0.2761,0.2239,-0.5,0.5,-0.5h4c0.2761,0,0.5,0.2239,0.5,0.5v4C7,13.7761,6.7761,14,6.5,14zM3,13h3v-3H3V13z" id="c1" fill="#06b6d4"/>
  </g>
</svg>
