<?xml version="1.0" encoding="utf-8"?>
<!-- Created with: Axialis IconVectors - www.axialis.com -->
<svg version="1.1" xmlns="http://www.w3.org/2000/svg" xmlns:xlink="http://www.w3.org/1999/xlink" id="Layer_1" x="0px" y="0px" width="16" height="16" viewBox="0 0 16 16" xml:space="preserve">
  <g id="icon">
    <path id="b" fill="#262626" visibility="visible" d="M6.5,6.5H2.5V2.5h4V6.5zM13.5,2.5H9.5v4h4V2.5zM13.5,9.5H9.5v4h4V9.5zM6.5,9.5H2.5v4h4V9.5z"/>
    <path id="c1" fill="#d4d4d4" fill-rule="evenodd" visibility="visible" d="M 2.305 2.039 C 1.823 2.291 2.055 2.914 2 3.35 C 2.013 4.432 1.974 5.519 2.02 6.598 C 2.123 7.124 2.756 6.984 3.15 7 C 4.299 6.987 5.453 7.026 6.598 6.98 C 7.124 6.877 6.984 6.244 7 5.85 C 6.987 4.701 7.026 3.547 6.98 2.402 C 6.877 1.876 6.244 2.016 5.85 2 C 4.701 2.013 3.547 1.974 2.402 2.02 L 2.353 2.029 L 2.305 2.039 z M 6 3 C 6 4 6 5 6 6 C 5 6 4 6 3 6 C 3 5 3 4 3 3 C 4 3 5 3 6 3 z  M 9.305 2.039 C 8.823 2.291 9.055 2.914 9 3.35 C 9.013 4.432 8.974 5.519 9.02 6.598 C 9.123 7.124 9.756 6.984 10.15 7 C 11.3 6.987 12.45 7.026 13.6 6.98 C 14.12 6.877 13.98 6.244 14 5.85 C 13.99 4.701 14.03 3.547 13.98 2.402 C 13.88 1.876 13.24 2.016 12.85 2 C 11.7 2.013 10.55 1.974 9.402 2.02 L 9.353 2.029 L 9.305 2.039 z M 13 3 C 13 4 13 5 13 6 C 12 6 11 6 10 6 C 10 5 10 4 10 3 C 11 3 12 3 13 3 z  M 2.305 9.039 C 1.823 9.291 2.055 9.914 2 10.35 C 2.013 11.43 1.974 12.52 2.02 13.6 C 2.123 14.12 2.756 13.98 3.15 14 C 4.299 13.99 5.453 14.03 6.598 13.98 C 7.124 13.88 6.984 13.24 7 12.85 C 6.987 11.7 7.026 10.55 6.98 9.402 C 6.877 8.876 6.244 9.016 5.85 9 C 4.701 9.013 3.547 8.974 2.402 9.02 L 2.353 9.029 L 2.305 9.039 z M 6 10 C 6 11 6 12 6 13 C 5 13 4 13 3 13 C 3 12 3 11 3 10 C 4 10 5 10 6 10 z "/>
    <path id="c1" fill="#06b6d4" visibility="visible" d="M 9.305 9.039 C 8.823 9.291 9.055 9.914 9 10.35 C 9.013 11.43 8.974 12.52 9.02 13.6 C 9.123 14.12 9.756 13.98 10.15 14 C 11.3 13.99 12.45 14.03 13.6 13.98 C 14.12 13.88 13.98 13.24 14 12.85 C 13.99 11.7 14.03 10.55 13.98 9.402 C 13.88 8.876 13.24 9.016 12.85 9 C 11.7 9.013 10.55 8.974 9.402 9.02 L 9.353 9.029 L 9.305 9.039 z M 13 10 C 13 11 13 12 13 13 C 12 13 11 13 10 13 C 10 12 10 11 10 10 C 11 10 12 10 13 10 z "/>
  </g>
</svg>
