<?xml version="1.0" encoding="UTF-8"?>
<!DOCTYPE svg PUBLIC "-//W3C//DTD SVG 1.1//EN" "http://www.w3.org/Graphics/SVG/1.1/DTD/svg11.dtd">
<svg version="1.1" id="Layer_1" xmlns="http://www.w3.org/2000/svg" xmlns:xlink="http://www.w3.org/1999/xlink" x="0px" y="0px" width="16px" height="16px" viewBox="0 0 16 16" enable-background="new 0 0 16 16" xml:space="preserve">
  <g id="icon">
    <path d="M5.8069,14.4c-0.1463,0,-0.2737,-0.0777,-0.3684,-0.2246l-0.0433,-0.0672l-0.059,-0.0305c-0.0163,-0.0246,-0.0404,-0.0988,-0.0365,-0.1972L5.3,11.7H4.0795C3.0978,11.6597,2.3,10.8589,2.3,9.9124V4.1477C2.3,3.1807,3.1484,2.3,4.08,2.3h8.775c0.9829,0,1.845,0.8634,1.845,1.8477v5.7047c0,1.0015,-0.8151,1.8477,-1.78,1.8477H9.4244l-3.3137,2.5968C6.0105,14.3644,5.9056,14.4,5.8069,14.4z" id="b" fill="#262626"/>
    <path d="M4.0736,12C2.972,11.9581,2,11.0523,2,9.9124V4.1477C2,3.0067,2.975,2,4.08,2h8.775C14.025,2,15,3.0067,15,4.1477v5.7047c0,1.2081,-0.975,2.1477,-2.08,2.1477H9.528l-3.24,2.5391c-0.3888,0.2682,-0.8424,0.2012,-1.1016,-0.2012c-0.1296,-0.0671,-0.1944,-0.2682,-0.1864,-0.4694V12H4.0736zM9.215,11h3.6205c0.6469,0,1.1645,-0.5355,1.1645,-1.205V4.105c0,-0.6694,-0.5175,-1.105,-1.1645,-1.105H4.07C3.42,3,3,3.4355,3,4.105V9.795c0,0.6694,0.42,1.205,1.07,1.205H6v0.3686v2.1083L9.215,11z" id="c1" fill="#d4d4d4"/>
    <path d="M11.5,6H5.5c-0.2761,0,-0.5,-0.2239,-0.5,-0.5v0c0,-0.2761,0.2239,-0.5,0.5,-0.5h6c0.2761,0,0.5,0.2239,0.5,0.5v0C12,5.7761,11.7761,6,11.5,6zM10,7.5L10,7.5c0,-0.2761,-0.2239,-0.5,-0.5,-0.5H5.5c-0.2761,0,-0.5,0.2239,-0.5,0.5v0c0,0.2761,0.2239,0.5,0.5,0.5h4C9.7761,8,10,7.7761,10,7.5z" id="c2" fill="#d4d4d4"/>
  </g>
</svg>
