<?xml version="1.0" encoding="UTF-8"?>
<!DOCTYPE svg PUBLIC "-//W3C//DTD SVG 1.1//EN" "http://www.w3.org/Graphics/SVG/1.1/DTD/svg11.dtd">
<svg version="1.1" id="Layer_1" xmlns="http://www.w3.org/2000/svg" xmlns:xlink="http://www.w3.org/1999/xlink" x="0px" y="0px" width="16px" height="16px" viewBox="0 0 16 16" enable-background="new 0 0 16 16" xml:space="preserve">
  <g id="icon">
    <path d="M12.5167,14.3h-6.475C4.7484,14.3,3.7,13.2516,3.7,11.9583v-9.475C3.7,2.0507,4.0507,1.7,4.4833,1.7H10.25L13.3,4.8v8.7167C13.3,13.9493,12.9493,14.3,12.5167,14.3z" id="b" fill="#262626"/>
    <path d="M8.2852,15.6c-0.1586,0,-0.3146,-0.0753,-0.4117,-0.2157l-0.3758,-0.5435c-0.0293,0.0107,-0.059,0.0206,-0.0889,0.0298c-0.1771,0.0545,-0.366,0.0821,-0.5614,0.0821c-0.3288,0,-0.6356,-0.0787,-0.9119,-0.234c-0.2679,-0.1505,-0.4992,-0.3659,-0.6875,-0.64c-0.177,-0.2574,-0.3149,-0.5684,-0.4101,-0.9242C4.7465,12.8124,4.7,12.425,4.7,12.0032c0,-0.4193,0.0464,-0.8061,0.138,-1.1495c0.0949,-0.3563,0.2327,-0.6683,0.4095,-0.927c0.1879,-0.275,0.4188,-0.4915,0.6862,-0.6433c0.2768,-0.1571,0.5842,-0.2367,0.9138,-0.2367c0.3302,0,0.638,0.0786,0.9149,0.2335c0.2694,0.1508,0.5016,0.3672,0.6901,0.6432c0.1766,0.2584,0.3144,0.5703,0.4095,0.9269c0.0916,0.344,0.138,0.7318,0.138,1.153c0,0.2849,-0.0212,0.5552,-0.0631,0.8036c-0.0426,0.2532,-0.1059,0.4904,-0.188,0.7047c-0.0854,0.2227,-0.1921,0.4247,-0.3174,0.6003c-0.0375,0.0525,-0.0767,0.1029,-0.1175,0.1511l0.3821,0.5526c0.157,0.2271,0.1002,0.5386,-0.1269,0.6957C8.4824,15.5712,8.3833,15.6,8.2852,15.6zM6.8475,10.0467c-0.1566,0,-0.294,0.0348,-0.4201,0.1063c-0.1356,0.077,-0.2515,0.1875,-0.3542,0.3379c-0.1127,0.1649,-0.2031,0.3735,-0.2688,0.6203c-0.0692,0.2596,-0.1043,0.5597,-0.1043,0.892c0,0.3345,0.0351,0.6349,0.1042,0.893c0.0656,0.2456,0.1559,0.4528,0.2682,0.6163c0.1024,0.1492,0.2179,0.2585,0.3531,0.3345c0.1267,0.0712,0.2646,0.1058,0.422,0.1058c0.0956,0,0.1855,-0.0127,0.2673,-0.0379c0.0815,-0.025,0.1562,-0.061,0.2284,-0.1099l0.0429,-0.0303c0.084,-0.0642,0.1617,-0.1461,0.2312,-0.2435c0.0762,-0.1067,0.1427,-0.2337,0.1978,-0.3774c0.0584,-0.1525,0.1041,-0.3251,0.1357,-0.5131c0.0327,-0.1937,0.0492,-0.4082,0.0492,-0.6375c0,-0.3343,-0.0351,-0.6355,-0.1043,-0.8955c-0.0658,-0.2467,-0.1562,-0.4554,-0.2688,-0.6202c-0.1021,-0.1495,-0.2176,-0.259,-0.3529,-0.3348C7.1463,10.0814,7.0068,10.0467,6.8475,10.0467zM12.0179,14.9605H9.9843c-0.2761,0,-0.5,-0.2239,-0.5,-0.5V9.5c0,-0.2761,0.2239,-0.5,0.5,-0.5s0.5,0.2239,0.5,0.5v4.4605h1.5336c0.2761,0,0.5,0.2239,0.5,0.5S12.294,14.9605,12.0179,14.9605zM2.519,14.8911c-0.1852,0,-0.3562,-0.0196,-0.5085,-0.0583c-0.1475,-0.0374,-0.2836,-0.0875,-0.4041,-0.1489c-0.1191,-0.0607,-0.2246,-0.1286,-0.3135,-0.2017c-0.0744,-0.0611,-0.1408,-0.1213,-0.1969,-0.1787c-0.0519,-0.0529,-0.0927,-0.0964,-0.1226,-0.1306c-0.1817,-0.2079,-0.1605,-0.5238,0.0474,-0.7055c0.2079,-0.1817,0.5237,-0.1604,0.7055,0.0474c0.0203,0.0232,0.0484,0.0527,0.0839,0.0889c0.0312,0.0318,0.0708,0.0674,0.1177,0.106c0.0333,0.0274,0.0778,0.0553,0.1327,0.0833c0.0543,0.0277,0.1201,0.0514,0.1958,0.0706c0.0722,0.0184,0.1604,0.0276,0.2625,0.0276c0.1428,0,0.2667,-0.0221,0.3683,-0.0658c0.1036,-0.0445,0.1873,-0.1009,0.2557,-0.1725c0.0683,-0.0714,0.1192,-0.1534,0.1557,-0.2505c0.0393,-0.1045,0.0583,-0.2142,0.0583,-0.3355c0,-0.106,-0.0164,-0.1685,-0.0302,-0.2021c-0.0206,-0.0505,-0.0461,-0.0911,-0.0781,-0.1241c-0.042,-0.0434,-0.0911,-0.0802,-0.1496,-0.1125c-0.0813,-0.0448,-0.1704,-0.086,-0.2646,-0.1223c-0.1053,-0.0405,-0.2145,-0.0786,-0.3242,-0.113c-0.1319,-0.0414,-0.2625,-0.0876,-0.3882,-0.1374c-0.1367,-0.0539,-0.2685,-0.1169,-0.391,-0.1872c-0.1463,-0.084,-0.2764,-0.1878,-0.3873,-0.3088c-0.1183,-0.1291,-0.2124,-0.2824,-0.2795,-0.4556c-0.067,-0.1727,-0.101,-0.3714,-0.101,-0.5907c0,-0.2149,0.039,-0.4242,0.116,-0.6221c0.0788,-0.2029,0.1958,-0.3847,0.3476,-0.5403c0.152,-0.1557,0.3385,-0.28,0.5545,-0.3698c0.2146,-0.0892,0.4573,-0.1343,0.7215,-0.1343c0.2917,0,0.5585,0.0523,0.7932,0.1556c0.2346,0.1031,0.4537,0.2647,0.651,0.4801c0.1865,0.2036,0.1727,0.5199,-0.031,0.7064c-0.2036,0.1866,-0.52,0.1727,-0.7064,-0.031c-0.103,-0.1125,-0.2094,-0.1933,-0.3162,-0.2402c-0.1071,-0.0471,-0.2385,-0.0709,-0.3907,-0.0709c-0.1318,0,-0.2455,0.0194,-0.3378,0.0578c-0.0919,0.0382,-0.1647,0.0855,-0.2226,0.1449c-0.058,0.0593,-0.1008,0.1261,-0.1311,0.204c-0.0324,0.0833,-0.048,0.1682,-0.048,0.2599c0,0.0936,0.0115,0.1728,0.0333,0.2291c0.0224,0.0577,0.05,0.1039,0.0844,0.1415c0.042,0.0458,0.0903,0.0841,0.1477,0.1171c0.0805,0.0461,0.1683,0.088,0.2607,0.1245c0.1039,0.0411,0.2115,0.0792,0.3205,0.1133c0.1296,0.0407,0.2588,0.0857,0.3839,0.1338c0.1367,0.0527,0.2672,0.1131,0.3881,0.1798c0.1444,0.0796,0.2738,0.1778,0.3847,0.292c0.1211,0.125,0.2173,0.2737,0.2861,0.4423c0.0692,0.1696,0.1043,0.3648,0.1043,0.5801c0,0.2401,-0.0411,0.4712,-0.1221,0.687c-0.0836,0.2228,-0.2078,0.4213,-0.3689,0.59c-0.161,0.1685,-0.3575,0.3032,-0.5839,0.4004C3.055,14.8416,2.7983,14.8911,2.519,14.8911z" id="c2" fill="#d4d4d4"/>
    <path d="M13.5,13.7L13.5,13.7c0.2761,0,0.5,-0.2239,0.5,-0.5V5.4141c0,-0.3978,-0.158,-0.7793,-0.4393,-1.0606l-2.9143,-2.9142C10.3651,1.158,9.9836,1,9.5858,1H5c-1.1046,0,-2,0.8954,-2,2l0,4.3785c0,0.2611,0.1909,0.4943,0.4509,0.5191C3.7491,7.9261,4,7.6923,4,7.4V3c0,-0.5523,0.4477,-1,1,-1h4v2.5c0,0.8284,0.6716,1.5,1.5,1.5h2.5v7.2C13,13.4761,13.2239,13.7,13.5,13.7zM10.5,5c-0.2761,0,-0.5,-0.2239,-0.5,-0.5V2.2071L12.7929,5H10.5z" id="c1" fill="#d4d4d4"/>
  </g>
</svg>
