<?xml version="1.0" encoding="UTF-8"?>
<!DOCTYPE svg PUBLIC "-//W3C//DTD SVG 1.1//EN" "http://www.w3.org/Graphics/SVG/1.1/DTD/svg11.dtd">
<svg version="1.1" id="Layer_1" xmlns="http://www.w3.org/2000/svg" xmlns:xlink="http://www.w3.org/1999/xlink" x="0px" y="0px" width="16px" height="16px" viewBox="0 0 16 16" enable-background="new 0 0 16 16" xml:space="preserve">
  <g id="icon">
    <path d="M14.5,8c0,3.5899,-2.9101,6.5,-6.5,6.5s-6.5,-2.9101,-6.5,-6.5s2.9101,-6.5,6.5,-6.5S14.5,4.4101,14.5,8z" fill="#262626"/>
    <path d="M8,15c-3.8598,0,-7,-3.1402,-7,-7s3.1402,-7,7,-7s7,3.1402,7,7S11.8598,15,8,15zM8,2.0597c-3.2755,0,-5.9403,2.6648,-5.9403,5.9403S4.7245,13.9403,8,13.9403S13.9403,11.2755,13.9403,8S11.2755,2.0597,8,2.0597z" fill="#fda4af"/>
    <path d="M11.0635,7.6557c-0.205,-0.205,-0.5374,-0.205,-0.7424,0L8.5385,9.4383v-4.346c0,-0.2974,-0.2411,-0.5385,-0.5385,-0.5385s-0.5385,0.2411,-0.5385,0.5385v4.346L5.6789,7.6557c-0.205,-0.205,-0.5374,-0.205,-0.7425,0c-0.205,0.2051,-0.205,0.5374,0,0.7424l2.6923,2.6923c0.205,0.205,0.5374,0.205,0.7424,0l2.6923,-2.6923C11.2686,8.1931,11.2686,7.8607,11.0635,7.6557z" fill="#fda4af"/>
  </g>
</svg>
