<?xml version="1.0" encoding="UTF-8"?>
<!DOCTYPE svg PUBLIC "-//W3C//DTD SVG 1.1//EN" "http://www.w3.org/Graphics/SVG/1.1/DTD/svg11.dtd">
<svg version="1.1" id="Layer_1" xmlns="http://www.w3.org/2000/svg" xmlns:xlink="http://www.w3.org/1999/xlink" x="0px" y="0px" width="16px" height="16px" viewBox="0 0 16 16" enable-background="new 0 0 16 16" xml:space="preserve">
  <g id="icon">
    <path d="M14.5,8c0,3.5899,-2.9101,6.5,-6.5,6.5s-6.5,-2.9101,-6.5,-6.5s2.9101,-6.5,6.5,-6.5S14.5,4.4101,14.5,8z" id="b" fill="#171717"/>
    <path d="M8,15c-3.8598,0,-7,-3.1402,-7,-7s3.1402,-7,7,-7s7,3.1402,7,7S11.8598,15,8,15zM8,2.0597c-3.2755,0,-5.9403,2.6648,-5.9403,5.9403S4.7245,13.9403,8,13.9403S13.9403,11.2755,13.9403,8S11.2755,2.0597,8,2.0597z" id="c1" fill="#06b6d4"/>
    <path d="M10.8923,5.1596c0,-0.2899,0.2351,-0.525,0.525,-0.525s0.525,0.2351,0.525,0.525v2.275c0,0.2899,-0.2351,0.525,-0.525,0.525h-1.925c-0.2899,0,-0.525,-0.2351,-0.525,-0.525s0.2351,-0.525,0.525,-0.525h0.8894c-0.3522,-0.9209,-1.2447,-1.575,-2.2893,-1.575c-0.7652,0,-1.4258,0.3245,-1.8713,0.8606c-0.1853,0.223,-0.5163,0.2536,-0.7393,0.0682c-0.223,-0.1853,-0.2535,-0.5163,-0.0682,-0.7393c0.6459,-0.7772,1.603,-1.2394,2.6788,-1.2394c1.1451,0,2.1615,0.5497,2.7999,1.3997V5.1596zM5.1077,10.1v0.525c0,0.2899,-0.2351,0.525,-0.525,0.525s-0.525,-0.2351,-0.525,-0.525v-2.1c0,-0.2899,0.2351,-0.525,0.525,-0.525h1.925c0.2899,0,0.525,0.2351,0.525,0.525s-0.2351,0.525,-0.525,0.525h-0.8143c0.3933,0.828,1.2376,1.4,2.2144,1.4c0.7494,0,1.4257,-0.3357,1.875,-0.8642c0.1878,-0.2209,0.5191,-0.2478,0.74,-0.06c0.2209,0.1878,0.2477,0.5191,0.0599,0.74C9.9406,11.0212,8.9753,11.5,7.9078,11.5C6.7624,11.5,5.746,10.95,5.1077,10.1z" id="c2" fill="#06b6d4"/>
  </g>
</svg>
