<?xml version="1.0" encoding="utf-8"?>
<!-- Created with: Axialis IconVectors - www.axialis.com -->
<svg xmlns="http://www.w3.org/2000/svg" version="1.1" xmlns:xlink="http://www.w3.org/1999/xlink" id="Layer_1" viewBox="0 0 16 16">
  <g id="icon">
    <path id="b" fill="#262626" d="M5,11.5C3.07,11.5,1.5,9.93,1.5,8C1.5,6.07,3.07,4.5,5,4.5L11,4.5C12.93,4.5,14.5,6.07,14.5,8C14.5,9.93,12.93,11.5,11,11.5L5,11.5z"/>
    <path id="c1" fill="#a3a3a3" d="M15,8 C15,5.79 13.21,4 11,4 L5,4 C2.79,4 1,5.79 1,8 C1,10.21 2.79,12 5,12 L11,12 C13.21,12 15,10.21 15,8 Z M11,5 C12.66,5 14,6.34 14,8 C14,9.66 12.66,11 11,11 L5,11 C3.34,11 2,9.66 2,8 C2,6.34 3.34,5 5,5 L11,5 Z"/>
  </g>
  <g id="overlay">
    <path id="b" fill="#171717" d="M9.49,8C9.49,10.48,7.48,12.49,5,12.49C2.52,12.49,.51,10.48,.51,8C.51,5.52,2.52,3.51,5,3.51C7.48,3.51,9.49,5.52,9.49,8z"/>
    <path id="c3" fill="#d4d4d4" d="M5,13 C2.24,13 0,10.76 0,8 C0,5.24 2.24,3 5,3 C7.76,3 10,5.24 10,8 C10,10.76 7.76,13 5,13 Z M5,4.06 C2.82,4.06 1.06,5.82 1.06,8 C1.06,10.18 2.82,11.94 5,11.94 C7.18,11.94 8.94,10.18 8.94,8 C8.94,5.82 7.18,4.06 5,4.06 Z"/>
    <path id="c3" fill="#6ee7b7" d="M4.4,9.73C4.28,9.73,4.18,9.7,4.08,9.63L4.08,9.62L4.03,9.59L2.81,8.37C2.71,8.28,2.66,8.14,2.66,8C2.66,7.86,2.71,7.72,2.81,7.63C2.91,7.53,3.04,7.48,3.19,7.48C3.3,7.48,3.41,7.51,3.5,7.58L3.51,7.59L3.56,7.62L4.4,8.47L6.44,6.42C6.54,6.32,6.68,6.27,6.81,6.27C6.96,6.27,7.09,6.32,7.19,6.42C7.37,6.6,7.39,6.9,7.23,7.1L7.23,7.11L7.19,7.16L4.77,9.58C4.67,9.68,4.53,9.73,4.4,9.73z"/>
  </g>
</svg>
