<?xml version="1.0" encoding="utf-8"?>
<!-- Created with: Axialis IconVectors - www.axialis.com -->
<svg xmlns="http://www.w3.org/2000/svg" version="1.1" xmlns:xlink="http://www.w3.org/1999/xlink" id="Layer_1" viewBox="0 0 16 16">
  <g id="icon">
    <path id="b" fill="#262626" d="M5,11.5C3.07,11.5,1.5,9.93,1.5,8C1.5,6.07,3.07,4.5,5,4.5L11,4.5C12.93,4.5,14.5,6.07,14.5,8C14.5,9.93,12.93,11.5,11,11.5L5,11.5z"/>
    <path id="c1" fill="#a3a3a3" d="M15,8 C15,5.79 13.21,4 11,4 L5,4 C2.79,4 1,5.79 1,8 C1,10.21 2.79,12 5,12 L11,12 C13.21,12 15,10.21 15,8 Z M11,5 C12.66,5 14,6.34 14,8 C14,9.66 12.66,11 11,11 L5,11 C3.34,11 2,9.66 2,8 C2,6.34 3.34,5 5,5 L11,5 Z"/>
  </g>
  <g id="overlay">
    <path id="b" fill="#171717" d="M15.49,8C15.49,10.48,13.48,12.49,11,12.49C8.52,12.49,6.51,10.48,6.51,8C6.51,5.52,8.52,3.51,11,3.51C13.48,3.51,15.49,5.52,15.49,8z"/>
    <path id="c3" fill="#d4d4d4" d="M11,13 C8.24,13 6,10.76 6,8 C6,5.24 8.24,3 11,3 C13.76,3 16,5.24 16,8 C16,10.76 13.76,13 11,13 Z M11,4.06 C8.82,4.06 7.06,5.82 7.06,8 C7.06,10.18 8.82,11.94 11,11.94 C13.18,11.94 14.94,10.18 14.94,8 C14.94,5.82 13.18,4.06 11,4.06 Z"/>
    <path id="c3" fill="#6ee7b7" d="M10.4,9.73C10.28,9.73,10.18,9.7,10.08,9.63L10.08,9.62L10.03,9.59L8.81,8.37C8.71,8.28,8.66,8.14,8.66,8C8.66,7.86,8.71,7.72,8.81,7.63C8.91,7.53,9.04,7.48,9.19,7.48C9.3,7.48,9.41,7.51,9.5,7.58L9.51,7.59L9.56,7.62L10.4,8.47L12.44,6.42C12.54,6.32,12.68,6.27,12.81,6.27C12.96,6.27,13.09,6.32,13.19,6.42C13.37,6.6,13.39,6.9,13.23,7.1L13.23,7.11L13.19,7.16L10.77,9.58C10.67,9.68,10.53,9.73,10.4,9.73z"/>
  </g>
</svg>
