<?xml version="1.0" encoding="UTF-8"?>
<!DOCTYPE svg PUBLIC "-//W3C//DTD SVG 1.1//EN" "http://www.w3.org/Graphics/SVG/1.1/DTD/svg11.dtd">
<svg version="1.1" id="Layer_1" xmlns="http://www.w3.org/2000/svg" xmlns:xlink="http://www.w3.org/1999/xlink" x="0px" y="0px" width="16px" height="16px" viewBox="0 0 16 16" enable-background="new 0 0 16 16" xml:space="preserve">
  <g id="icon">
    <path d="M9.9917,14.5H5.0083C4.1753,14.5,3.5,13.8247,3.5,12.9917V3.0083C3.5,2.1753,4.1753,1.5,5.0083,1.5h4.9833C10.8247,1.5,11.5,2.1753,11.5,3.0083v9.9833C11.5,13.8247,10.8247,14.5,9.9917,14.5z" id="b" fill="#262626"/>
    <path d="M9.9917,15H5.0083C3.9009,15,3,14.0991,3,12.9917V3.0083C3,1.9009,3.9009,1,5.0083,1h4.9833C11.0991,1,12,1.9009,12,3.0083v9.9833C12,14.0991,11.0991,15,9.9917,15zM5.0083,2C4.4523,2,4,2.4523,4,3.0083v9.9833C4,13.5477,4.4523,14,5.0083,14h4.9833c0.556,0,1.0083,-0.4523,1.0083,-1.0083V3.0083C11,2.4523,10.5477,2,9.9917,2H5.0083z" id="c1" fill="#d4d4d4"/>
    <path d="M7.5042,13.4903c-0.8799,0,-1.5958,-0.7159,-1.5958,-1.5959s0.7159,-1.5958,1.5958,-1.5958S9.1,11.0145,9.1,11.8945S8.3841,13.4903,7.5042,13.4903zM7.5042,11.0965c-0.44,0,-0.7979,0.3579,-0.7979,0.7979s0.3579,0.7979,0.7979,0.7979s0.7979,-0.3579,0.7979,-0.7979S7.9441,11.0965,7.5042,11.0965z" id="c1" fill="#d4d4d4"/>
    <path d="M7.5042,9.8903c-0.8799,0,-1.5958,-0.7159,-1.5958,-1.5958s0.7159,-1.5958,1.5958,-1.5958S9.1,7.4145,9.1,8.2945S8.3841,9.8903,7.5042,9.8903zM7.5042,7.4965c-0.44,0,-0.7979,0.3579,-0.7979,0.7979s0.3579,0.7979,0.7979,0.7979s0.7979,-0.3579,0.7979,-0.7979S7.9441,7.4965,7.5042,7.4965z" id="c1" fill="#d4d4d4"/>
    <circle cx="7.5042" cy="4.3055" r="1.8958" id="c2" fill="#fda4af"/>
  </g>
</svg>
