<?xml version="1.0" encoding="UTF-8"?>
<!DOCTYPE svg PUBLIC "-//W3C//DTD SVG 1.1//EN" "http://www.w3.org/Graphics/SVG/1.1/DTD/svg11.dtd">
<svg version="1.1" id="Layer_1" xmlns="http://www.w3.org/2000/svg" xmlns:xlink="http://www.w3.org/1999/xlink" x="0px" y="0px" width="16px" height="16px" viewBox="0 0 16 16" enable-background="new 0 0 16 16" xml:space="preserve">
  <g id="icon">
    <path d="M14.6,4.4333v7.0333c0,0.5707,-0.4626,1.0333,-1.0333,1.0333H6.8561l-0.3461,-0.5085c-0.3029,-0.445,-0.7788,-0.7289,-1.3067,-0.779c-0.0546,-0.0051,-0.11,-0.0077,-0.1645,-0.0077c-0.0507,0,-0.102,0.0022,-0.1504,0.0065c-0.0721,0.0062,-0.1443,0.017,-0.2145,0.032l-0.0273,0.0058l-0.1357,0.0371l-0.3239,0.108c-0.0881,-0.1052,-0.1687,-0.2208,-0.2426,-0.3481c-0.071,-0.1222,-0.1293,-0.2445,-0.1745,-0.3661l0.3048,-0.2894c0.5075,-0.4816,0.701,-1.2301,0.493,-1.9068l-0.0076,-0.0246l-0.0485,-0.1331l-0.3355,-0.7911c-0.285,-0.6721,-0.9306,-1.1064,-1.6448,-1.1064c-0.1195,0,-0.2396,0.0124,-0.3568,0.0368l-0.0252,0.0053l-0.1269,0.0333L1.59,6.6423c-0.0304,0.0097,-0.0601,0.0211,-0.09,0.0322V4.4333C1.5,3.8626,1.9626,3.4,2.5333,3.4h11.0333C14.1374,3.4,14.6,3.8626,14.6,4.4333z" id="b" fill="#262626"/>
    <path d="M8.0108,8.6743c-1.003,0,-1.819,-0.8259,-1.819,-1.841c0,-1.0151,0.816,-1.841,1.819,-1.841c1.003,0,1.819,0.8259,1.819,1.841C9.8298,7.8484,9.0138,8.6743,8.0108,8.6743zM13.25,3h-10.5C1.7835,3,1,3.7835,1,4.75v2.1893c0.1793,-0.1274,0.3773,-0.229,0.59,-0.297l0.41,-0.131V4.75c0,-0.4142,0.3358,-0.75,0.75,-0.75h10.5c0.4142,0,0.75,0.3358,0.75,0.75v6.5c0,0.4142,-0.3358,0.75,-0.75,0.75H12.8h-1.5487c0.1631,-0.341,0.2487,-0.7036,0.2487,-1.0633v-0.3582C11.5,9.9838,11.0278,9.5,10.4474,9.5H5.5526C4.9722,9.5,4.5,9.9838,4.5,10.5785v0.3582c0,0.115,0.0097,0.2303,0.027,0.3451l0.1197,-0.0327l0.0273,-0.0058c0.0702,-0.015,0.1423,-0.0258,0.2145,-0.032c0.0484,-0.0043,0.0997,-0.0065,0.1504,-0.0065c0.0545,0,0.1098,0.0026,0.1645,0.0077c0.5279,0.05,1.0038,0.3339,1.3067,0.779l0.4812,0.7069l0.0723,0.1191l0.0121,0.0223c0.0283,0.0524,0.053,0.106,0.0759,0.1602H13.25c0.9665,0,1.75,-0.7835,1.75,-1.75v-6.5C15,3.7835,14.2165,3,13.25,3z" id="c1" fill="#d4d4d4"/>
    <path d="M1.8945,7.5948l0.4076,-0.1302l0.0767,-0.0202c0.3586,-0.0747,0.7242,0.1211,0.8768,0.481l0.3255,0.7675l0.0309,0.0847c0.0966,0.3143,0.0108,0.6634,-0.2255,0.8876l-0.7171,0.6806l0.0246,0.1742c0.0606,0.3474,0.1893,0.6903,0.386,1.0286c0.2294,0.3946,0.516,0.722,0.8597,0.9821l0.8613,-0.2872l0.0821,-0.0224c0.0304,-0.0065,0.061,-0.011,0.0915,-0.0136c0.0453,-0.004,0.0906,-0.0037,0.1354,0.0005c0.2246,0.0213,0.4357,0.1437,0.5734,0.346l0.4665,0.6854l0.0457,0.0752c0.1799,0.3333,0.1246,0.7593,-0.1436,1.0286l-0.3096,0.3108l-0.0797,0.0732c-0.3016,0.2532,-0.7025,0.3378,-1.0757,0.2214c-0.8058,-0.2514,-1.5572,-0.9177,-2.2542,-1.9988c0,0,0.0001,0,0,0c-0.1343,-0.2084,-0.2666,-0.4323,-0.3969,-0.6715c-0.6207,-1.1395,-0.9326,-2.1463,-0.9359,-3.0203v-0.028c0.001,-0.253,0.0279,-0.4947,0.0809,-0.7253C1.1809,8.0702,1.4904,7.724,1.8945,7.5948z" id="c2" fill="#d4d4d4"/>
  </g>
</svg>
