<?xml version="1.0" encoding="UTF-8"?>
<!DOCTYPE svg PUBLIC "-//W3C//DTD SVG 1.1//EN" "http://www.w3.org/Graphics/SVG/1.1/DTD/svg11.dtd">
<svg version="1.1" id="Layer_1" xmlns="http://www.w3.org/2000/svg" xmlns:xlink="http://www.w3.org/1999/xlink" x="0px" y="0px" width="16px" height="16px" viewBox="0 0 16 16" enable-background="new 0 0 16 16" xml:space="preserve">
  <g id="icon">
    <path d="M7.3,14.5c-0.2242,0,-0.4997,-0.1013,-0.737,-0.271c-0.1983,-0.1418,-0.3433,-0.3359,-0.4191,-0.5612l-0.0012,-0.0037l-0.8525,-3.5777l-0.107,-0.1118C3.9554,8.6933,3.3572,7.521,3.3005,6.2851v-0.0006c0.0434,-1.3331,0.5404,-2.5435,1.4,-3.4158C5.5703,1.986,6.7475,1.5,8.0153,1.5c1.2633,0,2.4502,0.4784,3.3421,1.347c0.8881,0.8649,1.3773,2.0139,1.3773,3.2351c0,1.3055,-0.5805,2.5258,-1.7254,3.627l-0.116,0.1116l-0.9781,3.7484c-0.0564,0.2367,-0.1865,0.4458,-0.3761,0.6046c-0.2243,0.1879,-0.4591,0.3032,-0.6637,0.3264H7.3z" id="b" fill="#262626"/>
    <path d="M7.3,15c-0.3607,0,-0.7373,-0.1565,-1.0279,-0.3644c-0.2842,-0.2033,-0.4924,-0.4828,-0.6021,-0.8083l-0.0085,-0.0252l-0.8263,-3.468l-0.0132,-0.0138C3.5057,8.9468,2.8636,7.6718,2.801,6.308L2.8,6.2854l0.0008,-0.0172c0.0457,-1.4548,0.5939,-2.7868,1.5436,-3.7506C5.3089,1.539,6.6126,1,8.0154,1c1.3943,0,2.7051,0.5287,3.6909,1.4888c0.9856,0.9599,1.5285,2.236,1.5285,3.5933c0,1.4467,-0.6321,2.7882,-1.8788,3.9873l-0.0143,0.0138l-0.94,3.6018c-0.0817,0.3426,-0.2687,0.6436,-0.5414,0.8719c-0.2682,0.2247,-0.6087,0.4126,-0.9603,0.4431l0,0H7.3L7.3,15zM6.6553,13.6114c0.0448,0.1177,0.1193,0.2126,0.2183,0.2833c0.1138,0.0814,0.2831,0.1049,0.4265,0.1052h1.5c0.1387,-0.0162,0.298,-0.053,0.3964,-0.1355c0.1017,-0.0851,0.1708,-0.296,0.1999,-0.4206l0.0035,-0.0151L9.7,12H6.3L6.6553,13.6114zM6.1,11h3.9l0.4172,-1.4684l0.1112,-0.1027c1.1099,-1.0256,1.6727,-2.1516,1.6727,-3.3468c0,-1.076,-0.4319,-2.0891,-1.216,-2.8527c-0.7917,-0.771,-1.8463,-1.1957,-2.9697,-1.1957c-1.1237,0,-2.1659,0.4296,-2.9346,1.2096c-0.7612,0.7724,-1.2037,1.8499,-1.246,3.0341c0.059,1.1428,0.6263,2.2007,1.8392,3.4365l0.1006,0.1025L6.1,11z" id="c1" fill="#d4d4d4"/>
  </g>
</svg>
