<?xml version="1.0" encoding="UTF-8"?>
<!DOCTYPE svg PUBLIC "-//W3C//DTD SVG 1.1//EN" "http://www.w3.org/Graphics/SVG/1.1/DTD/svg11.dtd">
<svg version="1.1" id="Layer_1" xmlns="http://www.w3.org/2000/svg" xmlns:xlink="http://www.w3.org/1999/xlink" x="0px" y="0px" width="16px" height="16px" viewBox="0 0 16 16" enable-background="new 0 0 16 16" xml:space="preserve">
  <g id="main">
    <g id="icon">
      <path d="M0.5,11.91L0.5311,12.18L0.6219,12.44L0.7697,12.68L0.9715,12.92L1.525,13.36L2.257,13.74L3.145,14.06L4.164,14.3L5.291,14.45L5.8,14.47L5.8,11.84L5.8,10.83L5.8,10.8L5.805,10.8L5.828,10.64L6.068,9.634L6.475,8.719L7.033,7.903L7.725,7.204L8.532,6.634L9.438,6.209L10.42,5.943L11.48,5.851L12.04,5.887L12.5,5.971L12.5,2.328L0.5,2.328zz" fill="#F7DA8E"/>
      <path d="M0.265,1.887L0.03848,2.136L0,2.328L0,11.91L0,11.94L0.00332,11.97L0.03438,12.24L0.04082,12.29L0.05957,12.35L0.1506,12.6L0.1672,12.65L0.1926,12.69L0.3402,12.94L0.3617,12.97L0.3887,13.01L0.5904,13.24L0.6221,13.28L0.6605,13.31L1.214,13.75L1.251,13.78L1.293,13.8L2.026,14.19L2.057,14.2L2.09,14.21L2.978,14.53L3.004,14.54L3.031,14.55L4.051,14.78L4.074,14.79L4.098,14.79L5.224,14.94L5.247,14.95L5.269,14.95L5.8,14.97L5.8,13.97L5.333,13.95L4.254,13.8L3.287,13.58L2.457,13.28L1.799,12.94L1.321,12.56L1.178,12.39L1.077,12.22L1.021,12.06L1,11.88L1,2.328L0.8867,2.011L0.598,1.838zM12.27,1.887L12.04,2.136L12,2.328L12,5.884L12.04,5.887L12.61,5.991L13,6.114L13,2.328L12.89,2.011L12.6,1.838zz" fill="#E57428"/>
      <path d="M5.291,0.535L4.164,0.6355L3.145,0.7943L2.257,1.005L1.525,1.26L0.9715,1.553L0.6219,1.877L0.5311,2.048L0.5,2.224L0.5311,2.4L0.6219,2.571L0.9715,2.895L1.525,3.188L2.257,3.443L3.145,3.654L4.164,3.812L5.291,3.913L6.5,3.948L7.709,3.913L8.836,3.812L9.855,3.654L10.74,3.443L11.48,3.188L12.03,2.895L12.38,2.571L12.47,2.4L12.5,2.224L12.47,2.048L12.38,1.877L12.03,1.553L11.48,1.26L10.74,1.005L9.855,0.7943L8.836,0.6355L7.709,0.535L6.5,0.5zz" fill="#F7DA8E"/>
      <path d="M6.486,0.0001953L5.276,0.03516L5.261,0.03574L5.246,0.03691L4.12,0.1375L4.104,0.1389L4.088,0.1414L3.068,0.3004L3.049,0.3033L3.03,0.308L2.142,0.5184L2.117,0.5244L2.093,0.5328L1.36,0.7879L1.324,0.8004L1.291,0.8182L0.7375,1.111L0.6799,1.142L0.6318,1.186L0.2822,1.51L0.2201,1.567L0.1803,1.642L0.08945,1.813L0.05215,1.883L0.03848,1.961L0.007617,2.138L-0,2.181L0,2.267L0.007617,2.311L0.03848,2.487L0.05215,2.565L0.08945,2.635L0.1803,2.806L0.2201,2.881L0.2822,2.938L0.6318,3.262L0.6799,3.306L0.7375,3.337L1.291,3.63L1.324,3.648L1.36,3.66L2.093,3.915L2.117,3.924L2.142,3.929L3.03,4.14L3.049,4.145L3.068,4.148L4.088,4.307L4.104,4.309L4.12,4.311L5.246,4.411L5.261,4.412L5.276,4.413L6.486,4.448L6.5,4.448L6.514,4.448L7.724,4.413L7.739,4.412L7.754,4.411L8.88,4.311L8.896,4.309L8.912,4.307L9.932,4.148L9.951,4.145L9.97,4.14L10.86,3.929L10.88,3.924L10.91,3.915L11.64,3.66L11.68,3.648L11.71,3.63L12.26,3.337L12.32,3.306L12.37,3.262L12.72,2.938L12.78,2.881L12.82,2.806L12.91,2.635L12.95,2.565L12.96,2.487L12.99,2.311L13.01,2.224L12.99,2.138L12.96,1.961L12.95,1.883L12.91,1.813L12.82,1.642L12.78,1.567L12.72,1.51L12.37,1.186L12.32,1.142L12.26,1.111L11.71,0.8182L11.68,0.8004L11.64,0.7879L10.91,0.5328L10.88,0.5244L10.86,0.5184L9.97,0.308L9.951,0.3033L9.932,0.3004L8.912,0.1414L8.896,0.1389L8.88,0.1375L7.754,0.03691L7.739,0.03574L7.724,0.03516L6.514,0.0001953L6.507,0L6.493,0zM7.68,1.034L8.776,1.132L9.76,1.286L10.6,1.485L11.27,1.72L11.74,1.964L11.98,2.186L11.99,2.212L11.99,2.224L11.99,2.236L11.98,2.262L11.74,2.484L11.28,2.728L10.6,2.962L9.757,3.163L8.776,3.316L7.68,3.414L6.5,3.448L5.32,3.414L4.224,3.316L3.243,3.163L2.397,2.962L1.724,2.728L1.263,2.484L1.024,2.262L1.01,2.236L1.008,2.224L1.01,2.212L1.024,2.186L1.263,1.964L1.725,1.72L2.399,1.485L3.24,1.286L4.224,1.132L5.32,1.034L6.5,1zz" fill="#E57428"/>
    </g>
    <g id="overlay">
      <path d="M15.45,7.4v3.05H15M12.3,10.45h2.7M15.061,10.233c-0.634,-1.312,-2.009,-2.631,-3.585,-2.631c-1.993,0,-3.645,1.407,-3.916,3.285" fill="none" stroke="#228BCB" stroke-width="1.1" stroke-miterlimit="10"/>
      <path d="M7.55,15.6v-3.05H8M10.6,12.55H7.9M7.861,12.733c0.634,1.312,2.109,2.631,3.685,2.631c2.003,0,3.662,-1.321,3.92,-3.214" fill="none" stroke="#228BCB" stroke-width="1.1" stroke-miterlimit="10"/>
    </g>
  </g>
</svg>
