<?xml version="1.0" encoding="UTF-8"?>
<!DOCTYPE svg PUBLIC "-//W3C//DTD SVG 1.1//EN" "http://www.w3.org/Graphics/SVG/1.1/DTD/svg11.dtd">
<svg version="1.1" id="Layer_1" xmlns="http://www.w3.org/2000/svg" xmlns:xlink="http://www.w3.org/1999/xlink" x="0px" y="0px" width="16px" height="16px" viewBox="0 0 16 16" enable-background="new 0 0 16 16" xml:space="preserve">
  <g id="main">
    <g id="icon">
      <path d="M6.784,0.5361L6.089,0.6422L5.418,0.8146L4.775,1.05L4.163,1.345L3.586,1.696L3.047,2.098L2.55,2.55L2.098,3.047L1.696,3.586L1.345,4.163L1.05,4.775L0.8146,5.418L0.6422,6.089L0.5361,6.784L0.5,7.5L0.5361,8.216L0.6422,8.911L0.8146,9.582L1.05,10.22L1.345,10.84L1.696,11.41L2.098,11.95L2.55,12.45L3.047,12.9L3.586,13.3L4.163,13.66L4.775,13.95L5.418,14.19L6.089,14.36L6.628,14.44L6.401,14.04L6.145,13.45L5.956,12.83L5.84,12.18L5.8,11.5L5.829,10.92L5.916,10.35L6.057,9.807L6.249,9.283L6.489,8.785L6.775,8.315L7.103,7.876L7.471,7.471L7.876,7.103L8.315,6.775L8.785,6.489L9.283,6.249L9.807,6.057L10.35,5.916L10.92,5.829L11.5,5.8L12.18,5.84L12.83,5.956L13.45,6.145L14.04,6.401L14.44,6.628L14.36,6.089L14.19,5.418L13.95,4.775L13.66,4.163L13.3,3.586L12.9,3.047L12.45,2.55L11.95,2.098L11.41,1.696L10.84,1.345L10.22,1.05L9.582,0.8146L8.911,0.6422L8.216,0.5361L7.5,0.5zz" fill="#FFFFFF"/>
      <path d="M7.475,0.0005859L6.759,0.03672L6.734,0.03809L6.709,0.0418L6.014,0.1479L5.989,0.1518L5.965,0.158L5.294,0.3305L5.27,0.3367L5.246,0.3451L4.604,0.5805L4.58,0.5891L4.558,0.5996L3.946,0.8943L3.925,0.9049L3.904,0.9176L3.327,1.268L3.306,1.281L3.287,1.295L2.748,1.698L2.729,1.712L2.711,1.729L2.214,2.18L2.196,2.196L2.18,2.214L1.729,2.711L1.712,2.729L1.698,2.748L1.295,3.287L1.281,3.306L1.268,3.327L0.9176,3.904L0.9049,3.925L0.8943,3.946L0.5996,4.558L0.5891,4.58L0.5805,4.604L0.3451,5.246L0.3367,5.27L0.3305,5.294L0.158,5.965L0.1518,5.989L0.1479,6.014L0.0418,6.709L0.03809,6.734L0.03672,6.759L0.0005859,7.475L-0,7.488L0,7.512L0.0005859,7.525L0.03672,8.241L0.03809,8.266L0.0418,8.291L0.1479,8.986L0.1518,9.011L0.158,9.035L0.3305,9.706L0.3367,9.73L0.3451,9.754L0.5805,10.4L0.5891,10.42L0.5996,10.44L0.8943,11.05L0.9049,11.08L0.9176,11.1L1.268,11.67L1.281,11.69L1.295,11.71L1.698,12.25L1.712,12.27L1.729,12.29L2.18,12.79L2.196,12.8L2.214,12.82L2.711,13.27L2.729,13.29L2.748,13.3L3.287,13.7L3.306,13.72L3.327,13.73L3.904,14.08L3.925,14.1L3.946,14.11L4.558,14.4L4.58,14.41L4.604,14.42L5.246,14.65L5.27,14.66L5.294,14.67L5.965,14.84L5.989,14.85L6.014,14.85L6.709,14.96L6.734,14.96L6.759,14.96L6.996,14.98L6.72,14.6L6.401,14.04L6.334,13.89L6.188,13.87L5.566,13.71L4.97,13.49L4.403,13.22L3.866,12.89L3.366,12.52L2.904,12.1L2.484,11.63L2.111,11.13L1.785,10.6L1.512,10.03L1.293,9.434L1.133,8.812L1.034,8.165L1.001,7.5L1.034,6.835L1.133,6.188L1.293,5.566L1.512,4.97L1.785,4.403L2.111,3.866L2.484,3.366L2.904,2.904L3.366,2.484L3.866,2.111L4.403,1.785L4.97,1.512L5.566,1.293L6.188,1.133L6.835,1.034L7.5,1.001L8.165,1.034L8.812,1.133L9.434,1.293L10.03,1.512L10.6,1.785L11.13,2.111L11.63,2.484L12.1,2.904L12.52,3.366L12.89,3.866L13.22,4.403L13.49,4.97L13.71,5.566L13.87,6.188L13.89,6.334L14.04,6.401L14.6,6.72L14.98,6.996L14.96,6.759L14.96,6.734L14.96,6.709L14.85,6.014L14.85,5.989L14.84,5.965L14.67,5.294L14.66,5.27L14.65,5.246L14.42,4.604L14.41,4.58L14.4,4.558L14.11,3.946L14.1,3.925L14.08,3.904L13.73,3.327L13.72,3.306L13.7,3.287L13.3,2.748L13.29,2.729L13.27,2.711L12.82,2.214L12.8,2.196L12.79,2.18L12.29,1.729L12.27,1.712L12.25,1.698L11.71,1.295L11.69,1.281L11.67,1.268L11.1,0.9176L11.08,0.9049L11.05,0.8943L10.44,0.5996L10.42,0.5891L10.4,0.5805L9.754,0.3451L9.73,0.3367L9.706,0.3305L9.035,0.158L9.011,0.1518L8.986,0.1479L8.291,0.0418L8.266,0.03809L8.241,0.03672L7.525,0.0005859L7.512,0L7.488,0zz" fill="#228BCB"/>
      <path d="M6.851,0.2885L6.826,0.3016L6.804,0.317L6.423,0.5777L6.395,0.5973L6.369,0.6205L5.642,1.282L5.615,1.307L5.591,1.336L4.925,2.152L4.906,2.176L4.889,2.202L4.303,3.134L4.288,3.158L4.276,3.183L3.788,4.193L3.776,4.218L3.767,4.244L3.499,5L0.9,5L0.9,6L3.233,6L3.142,6.402L3.135,6.436L3.132,6.471L3.049,7.484L3.045,7.524L3.048,7.564L3.127,8.567L3.129,8.6L3.137,8.633L3.216,9L0.9,9L0.9,10L3.468,10L3.732,10.77L3.741,10.8L3.752,10.82L4.223,11.83L4.235,11.85L4.249,11.88L4.819,12.8L4.836,12.83L4.856,12.86L5.509,13.67L5.534,13.7L5.562,13.72L6.284,14.38L6.311,14.4L6.341,14.42L6.722,14.68L6.746,14.69L6.772,14.71L6.813,14.73L6.72,14.6L6.401,14.04L6.145,13.45L5.956,12.83L5.911,12.57L5.654,12.25L5.115,11.38L4.67,10.43L4.525,10L6.007,10L6.057,9.807L6.249,9.283L6.385,9L4.238,9L4.121,8.456L4.049,7.526L4.125,6.587L4.258,6L7,6L7,8.014L7.103,7.876L7.471,7.471L7.876,7.103L8,7.011L8,6L10.03,6L10.35,5.916L10.92,5.829L11.5,5.8L12.18,5.84L12.83,5.956L12.97,6L14.1,6L14.1,5L11.44,5L11.17,4.247L11.17,4.221L11.15,4.197L10.67,3.186L10.66,3.161L10.65,3.137L10.07,2.205L10.05,2.178L10.03,2.154L9.375,1.338L9.352,1.309L9.324,1.283L8.602,0.6217L8.577,0.598L8.548,0.5783L8.169,0.3176L8.146,0.3018L8.121,0.2887L7.733,0.08105L7.509,0.5L7.463,0.5L7.239,0.08086zM7,5L4.56,5L4.7,4.604L5.165,3.643L5.72,2.759L6.342,1.997L7,1.398zM8.621,1.996L9.236,2.758L9.782,3.64L10.24,4.6L10.38,5L8,5L8,1.426zz" fill="#228BCB"/>
    </g>
    <g id="overlay">
      <path d="M11.5,7.5c-2.209,0,-4,1.791,-4,4c0,2.209,1.791,4,4,4s4,-1.791,4,-4C15.5,9.291,13.709,7.5,11.5,7.5zM13.654,12.946l-0.707,0.707L11.5,12.207l-1.446,1.446l-0.707,-0.707L10.793,11.5l-1.446,-1.446l0.707,-0.707L11.5,10.793l1.446,-1.446l0.707,0.707L12.207,11.5L13.654,12.946z" fill="#F7BFBF"/>
      <path d="M11.5,7.5c-2.209,0,-4,1.791,-4,4c0,2.209,1.791,4,4,4s4,-1.791,4,-4C15.5,9.291,13.709,7.5,11.5,7.5zM13.654,12.946l-0.707,0.707L11.5,12.207l-1.446,1.446l-0.707,-0.707L10.793,11.5l-1.446,-1.446l0.707,-0.707L11.5,10.793l1.446,-1.446l0.707,0.707L12.207,11.5L13.654,12.946z" fill="#DB2E2A" opacity="0.3"/>
      <path d="M11.5,16c-2.481,0,-4.5,-2.019,-4.5,-4.5s2.019,-4.5,4.5,-4.5s4.5,2.019,4.5,4.5S13.981,16,11.5,16zM11.5,8c-1.93,0,-3.5,1.57,-3.5,3.5s1.57,3.5,3.5,3.5s3.5,-1.57,3.5,-3.5S13.43,8,11.5,8z" fill="#DB2E2A"/>
      <polygon points="12.946,13.654 11.5,12.207 10.054,13.654 9.346,12.946 10.793,11.5 9.346,10.054 10.054,9.346 11.5,10.793 12.946,9.346 13.654,10.054 12.207,11.5 13.654,12.946" fill="#FFFFFF" stroke-linejoin="miter"/>
    </g>
  </g>
</svg>
