<?xml version="1.0" encoding="UTF-8"?>
<!DOCTYPE svg PUBLIC "-//W3C//DTD SVG 1.1//EN" "http://www.w3.org/Graphics/SVG/1.1/DTD/svg11.dtd">
<svg version="1.1" id="Layer_1" xmlns="http://www.w3.org/2000/svg" xmlns:xlink="http://www.w3.org/1999/xlink" x="0px" y="0px" width="16px" height="16px" viewBox="0 0 16 16" enable-background="new 0 0 16 16" xml:space="preserve">
  <g id="main">
    <g id="icon">
      <path d="M6.784,0.5361L6.089,0.6422L5.418,0.8146L4.775,1.05L4.163,1.345L3.586,1.696L3.047,2.098L2.55,2.55L2.098,3.047L1.696,3.586L1.345,4.163L1.05,4.775L0.8146,5.418L0.6422,6.089L0.5361,6.784L0.5,7.5L0.5361,8.216L0.6422,8.911L0.8146,9.582L1.05,10.22L1.345,10.84L1.696,11.41L2.098,11.95L2.55,12.45L3.047,12.9L3.586,13.3L4.163,13.66L4.673,13.9L5.079,12.93L5.494,12.06L5.748,11.64L5.917,11.44L12.92,4.403L13.21,4.166L13.53,3.993L13.55,3.988L13.3,3.586L12.9,3.047L12.45,2.55L11.95,2.098L11.41,1.696L10.84,1.345L10.22,1.05L9.582,0.8146L8.911,0.6422L8.216,0.5361L7.5,0.5zM11.37,13.33L11.41,13.3L11.95,12.9L12.45,12.45L12.9,11.95L13.3,11.41L13.34,11.35zz" fill="#FFFFFF"/>
      <path d="M7.475,0.0005859L6.759,0.03672L6.734,0.03809L6.709,0.0418L6.014,0.1479L5.989,0.1518L5.965,0.158L5.294,0.3305L5.27,0.3367L5.246,0.3451L4.604,0.5805L4.58,0.5891L4.558,0.5996L3.946,0.8943L3.925,0.9049L3.904,0.9176L3.327,1.268L3.306,1.281L3.287,1.295L2.748,1.698L2.729,1.712L2.711,1.729L2.214,2.18L2.196,2.196L2.18,2.214L1.729,2.711L1.712,2.729L1.698,2.748L1.295,3.287L1.281,3.306L1.268,3.327L0.9176,3.904L0.9049,3.925L0.8943,3.946L0.5996,4.558L0.5891,4.58L0.5805,4.604L0.3451,5.246L0.3367,5.27L0.3305,5.294L0.158,5.965L0.1518,5.989L0.1479,6.014L0.0418,6.709L0.03809,6.734L0.03672,6.759L0.0005859,7.475L-0,7.488L0,7.512L0.0005859,7.525L0.03672,8.241L0.03809,8.266L0.0418,8.291L0.1479,8.986L0.1518,9.011L0.158,9.035L0.3305,9.706L0.3367,9.73L0.3451,9.754L0.5805,10.4L0.5891,10.42L0.5996,10.44L0.8943,11.05L0.9049,11.08L0.9176,11.1L1.268,11.67L1.281,11.69L1.295,11.71L1.698,12.25L1.712,12.27L1.729,12.29L2.18,12.79L2.196,12.8L2.214,12.82L2.711,13.27L2.729,13.29L2.748,13.3L3.287,13.7L3.306,13.72L3.327,13.73L3.904,14.08L3.925,14.1L3.946,14.11L4.479,14.36L4.867,13.44L4.403,13.22L3.866,12.89L3.366,12.52L2.904,12.1L2.484,11.63L2.111,11.13L1.785,10.6L1.512,10.03L1.293,9.434L1.133,8.812L1.034,8.165L1.001,7.5L1.034,6.835L1.133,6.188L1.293,5.566L1.512,4.97L1.785,4.403L2.111,3.866L2.484,3.366L2.904,2.904L3.366,2.484L3.866,2.111L4.403,1.785L4.97,1.512L5.566,1.293L6.188,1.133L6.835,1.034L7.5,1.001L8.165,1.034L8.812,1.133L9.434,1.293L10.03,1.512L10.6,1.785L11.13,2.111L11.63,2.484L12.1,2.904L12.52,3.366L12.89,3.866L13.12,4.241L13.21,4.166L13.53,3.993L13.89,3.886L14.06,3.869L13.73,3.327L13.72,3.306L13.7,3.287L13.3,2.748L13.29,2.729L13.27,2.711L12.82,2.214L12.8,2.196L12.79,2.18L12.29,1.729L12.27,1.712L12.25,1.698L11.71,1.295L11.69,1.281L11.67,1.268L11.1,0.9176L11.08,0.9049L11.05,0.8943L10.44,0.5996L10.42,0.5891L10.4,0.5805L9.754,0.3451L9.73,0.3367L9.706,0.3305L9.035,0.158L9.011,0.1518L8.986,0.1479L8.291,0.0418L8.266,0.03809L8.241,0.03672L7.525,0.0005859L7.512,0L7.488,0zM10.23,14.48L10.4,14.42L10.42,14.41L10.44,14.4L11.05,14.11L11.08,14.1L11.1,14.08L11.67,13.73L11.69,13.72L11.71,13.7L12.25,13.3L12.27,13.29L12.29,13.27L12.79,12.82L12.8,12.8L12.82,12.79L13.27,12.29L13.29,12.27L13.3,12.25L13.7,11.71L13.72,11.69L13.73,11.67L14.08,11.1L14.1,11.08L14.11,11.05L14.4,10.44L14.41,10.42L14.42,10.4L14.49,10.19zz" fill="#228BCB"/>
      <path d="M6.851,0.2885L6.826,0.3016L6.804,0.317L6.423,0.5777L6.395,0.5973L6.369,0.6205L5.642,1.282L5.615,1.307L5.591,1.336L4.925,2.152L4.906,2.176L4.889,2.202L4.303,3.134L4.288,3.158L4.276,3.183L3.788,4.193L3.776,4.218L3.767,4.244L3.499,5L0.9,5L0.9,6L3.233,6L3.142,6.402L3.135,6.436L3.132,6.471L3.049,7.484L3.045,7.524L3.048,7.564L3.127,8.567L3.129,8.6L3.137,8.633L3.216,9L0.9,9L0.9,10L3.468,10L3.732,10.77L3.741,10.8L3.752,10.82L4.223,11.83L4.235,11.85L4.249,11.88L4.819,12.8L4.836,12.83L4.856,12.86L5.024,13.07L5.079,12.93L5.494,12.06L5.514,12.03L5.115,11.38L4.67,10.43L4.525,10L7,10L7,10.35L8.347,9L8,9L8,6L10.67,6L10.79,6.542L12.33,5L11.44,5L11.17,4.247L11.17,4.221L11.15,4.197L10.67,3.186L10.66,3.161L10.65,3.137L10.07,2.205L10.05,2.178L10.03,2.154L9.375,1.338L9.352,1.309L9.324,1.283L8.602,0.6217L8.577,0.598L8.548,0.5783L8.169,0.3176L8.146,0.3018L8.121,0.2887L7.733,0.08105L7.509,0.5L7.463,0.5L7.239,0.08086zM7,5L4.56,5L4.7,4.604L5.165,3.643L5.72,2.759L6.342,1.997L7,1.398zM8.621,1.996L9.236,2.758L9.782,3.64L10.24,4.6L10.38,5L8,5L8,1.426zM7,6L7,9L4.238,9L4.121,8.456L4.049,7.526L4.125,6.587L4.258,6zz" fill="#228BCB"/>
    </g>
    <g id="overlay">
      <path d="M7.084,12.61l7.005,-7.044c0.376,-0.376,1.722,0.969,1.345,1.345l-7.009,7.04C8.231,14.146,5.958,15.1,5.958,15.1S6.889,12.805,7.084,12.61zM13.07,6.592l1.307,1.293M7.131,12.591l1.344,1.344" fill="#FEFEFF" stroke="#E29B0A" stroke-width="0.9" stroke-miterlimit="10"/>
    </g>
  </g>
</svg>
