<?xml version="1.0" encoding="UTF-8"?>
<!DOCTYPE svg PUBLIC "-//W3C//DTD SVG 1.1//EN" "http://www.w3.org/Graphics/SVG/1.1/DTD/svg11.dtd">
<svg version="1.1" id="Layer_1" xmlns="http://www.w3.org/2000/svg" xmlns:xlink="http://www.w3.org/1999/xlink" x="0px" y="0px" width="16px" height="16px" viewBox="0 0 16 16" enable-background="new 0 0 16 16" xml:space="preserve">
  <g id="icon">
    <path d="M10.26,0.506C7.104,0.361,4.5,2.876,4.5,6h5c0.276,0,0.5,0.224,0.5,0.5v5c3.124,0,5.639,-2.604,5.494,-5.76C15.364,2.923,13.077,0.636,10.26,0.506z" fill="#FFFFFF"/>
    <path d="M10.287,0.007C6.849,-0.154,4,2.597,4,6h1c0,-0.342,0.035,-0.677,0.101,-1H6.49c-0.061,0.339,-0.094,0.675,-0.095,1h1c0.002,-0.321,0.042,-0.658,0.115,-1H9.5v1h0c0.276,0,0.5,0.224,0.5,0.5v5.5c3.403,0,6.154,-2.849,5.993,-6.287C15.85,2.643,13.357,0.15,10.287,0.007zM6.745,4H5.419c0.535,-1.22,1.543,-2.187,2.791,-2.667C7.588,2.075,7.067,3.022,6.745,4zM9.5,4H7.809C8.197,2.985,8.817,2.026,9.5,1.431V4zM14.581,4h-1.388c-0.312,-0.962,-0.814,-1.924,-1.443,-2.683C13.017,1.792,14.041,2.767,14.581,4zM10.5,1.448c0.675,0.596,1.276,1.541,1.65,2.552H10.5V1.448zM10.5,5h1.938c0.071,0.347,0.109,0.692,0.109,1.021c0,0.317,-0.035,0.646,-0.099,0.979H10.5V5zM10.5,10.58V8h1.67C11.798,9.033,11.186,9.995,10.5,10.58zM11.825,10.654c0.618,-0.752,1.101,-1.702,1.395,-2.654h1.361C14.051,9.209,13.057,10.169,11.825,10.654zM13.46,7c0.057,-0.338,0.087,-0.668,0.087,-0.979c0,-0.323,-0.034,-0.667,-0.099,-1.021h1.451c0.066,0.323,0.101,0.658,0.101,1s-0.035,0.677,-0.101,1H13.46z" fill="#228BCB"/>
    <path d="M8.5,11.5H0.5V7.5h8V11.5zM8.5,11.5H0.5v4h8V11.5z" fill="#FFFFFF" stroke="#383838" stroke-width="1" stroke-miterlimit="10"/>
    <path d="M7,10H5V9h2V10zM7,13H5v1h2V13z" fill="#238BCB"/>
  </g>
</svg>
