<?xml version="1.0" encoding="UTF-8"?>
<!DOCTYPE svg PUBLIC "-//W3C//DTD SVG 1.1//EN" "http://www.w3.org/Graphics/SVG/1.1/DTD/svg11.dtd">
<svg version="1.1" id="Layer_1" xmlns="http://www.w3.org/2000/svg" xmlns:xlink="http://www.w3.org/1999/xlink" x="0px" y="0px" width="16px" height="16px" viewBox="0 0 16 16" enable-background="new 0 0 16 16" xml:space="preserve">
  <g id="main">
    <g id="icon">
      <path d="M12.5,5.971L12.61,5.991L13.16,6.164L13.7,6.401L13.7,6.4L14.5,6.4L14.5,5.5L12.5,4.217zM0.5,5.5L0.5,14.49L5.8,14.49L5.8,11.84L5.8,10.83L5.8,10.8L5.805,10.8L5.828,10.64L6.068,9.634L6.128,9.5L5.767,9.5L2.5,7.2L2.5,4.223zz" fill="#F7DA8E"/>
      <path d="M12.5,4.811L14,5.773L14,6.4L15,6.4L15,5.227L12.5,3.623zM0,5.226L0,14.99L5.8,14.99L5.8,13.99L1,13.99L1,5.774L2.5,4.816L2.5,3.63zz" fill="#E57428"/>
      <path d="M0.2211,6.215L5.847,10L5.98,10L6.068,9.634L6.35,9L6.153,9L0.7789,5.385zM13.09,6.143L13.16,6.164L13.7,6.401L13.7,6.4L14.5,6.4L14.78,6.215L14.22,5.385zz" fill="#E57428"/>
      <path d="M3.5,6.513L6.305,8.4L6.693,8.4L7.033,7.903L7.725,7.204L8.532,6.634L9.438,6.209L10.42,5.943L11.48,5.851L11.5,5.853L11.5,0.5L3.5,0.5zz" fill="#FFFFFF"/>
      <path d="M3,6.177L4,6.849L4,1L11,1L11,5.893L11.48,5.851L12,5.884L12,0L3,0zz" fill="#383838"/>
      <path d="M5,3L10,3L10,2L5,2zM5,5L10,5L10,4L5,4zM5,7L8.013,7L8.532,6.634L9.438,6.209L10,6.057L10,6L5,6zz" fill="#787979"/>
    </g>
    <g id="overlay">
      <path d="M15.45,7.4v3.05H15M12.3,10.45h2.7M15.061,10.233c-0.634,-1.312,-2.009,-2.631,-3.585,-2.631c-1.993,0,-3.645,1.407,-3.916,3.285" fill="none" stroke="#228BCB" stroke-width="1.1" stroke-miterlimit="10"/>
      <path d="M7.55,15.6v-3.05H8M10.6,12.55H7.9M7.861,12.733c0.634,1.312,2.109,2.631,3.685,2.631c2.003,0,3.662,-1.321,3.92,-3.214" fill="none" stroke="#228BCB" stroke-width="1.1" stroke-miterlimit="10"/>
    </g>
  </g>
</svg>
