<?xml version="1.0" encoding="UTF-8"?>
<!DOCTYPE svg PUBLIC "-//W3C//DTD SVG 1.1//EN" "http://www.w3.org/Graphics/SVG/1.1/DTD/svg11.dtd">
<svg version="1.1" id="Layer_1" xmlns="http://www.w3.org/2000/svg" xmlns:xlink="http://www.w3.org/1999/xlink" x="0px" y="0px" width="16px" height="16px" viewBox="0 0 16 16" enable-background="new 0 0 16 16" xml:space="preserve">
  <g id="icon">
    <path d="M7.953,6.5c-1.34,0,-2.426,1.098,-2.426,2.451s1.086,2.451,2.426,2.451s2.426,-1.098,2.426,-2.451S9.293,6.5,7.953,6.5zM11.88,15.999c0,-2.364,-1.76,-4.586,-3.932,-4.586s-3.932,2.223,-3.932,4.586" fill="#FFFFFF" stroke="#228BCB" stroke-width="1" stroke-miterlimit="10"/>
    <path d="M11.683,5.207c2.08,0,3.766,2.129,3.766,4.393h-3.525c0.035,-0.213,0.054,-0.43,0.054,-0.649c0,-1.4,-0.709,-2.636,-1.785,-3.364C10.651,5.345,11.154,5.207,11.683,5.207zM11.688,5.197c1.283,0,2.324,-1.051,2.324,-2.348c0,-1.297,-1.04,-2.348,-2.324,-2.348S9.364,1.551,9.364,2.848C9.364,4.145,10.404,5.197,11.688,5.197zM4.288,5.197c1.283,0,2.324,-1.051,2.324,-2.348C6.611,1.551,5.571,0.5,4.288,0.5S1.964,1.551,1.964,2.848C1.964,4.145,3.004,5.197,4.288,5.197zM3.928,8.951c0,-1.411,0.721,-2.656,1.812,-3.381c-0.448,-0.232,-0.94,-0.363,-1.457,-0.363C2.203,5.207,0.517,7.336,0.517,9.6h3.465C3.947,9.387,3.928,9.17,3.928,8.951z" fill="#FFFFFF"/>
    <path d="M5.293,5.914c0.285,-0.253,0.606,-0.467,0.955,-0.632c-0.088,-0.055,-0.177,-0.107,-0.268,-0.155c0.687,-0.52,1.132,-1.348,1.132,-2.28C7.111,1.278,5.845,0,4.288,0C2.731,0,1.464,1.278,1.464,2.848c0,0.929,0.444,1.756,1.128,2.277c-0.498,0.258,-0.958,0.631,-1.356,1.108C0.461,7.161,0.017,8.388,0.017,9.6h1c0,-2.074,1.526,-3.893,3.266,-3.893C4.632,5.707,4.972,5.781,5.293,5.914zM2.464,2.848C2.464,1.829,3.282,1,4.288,1s1.824,0.829,1.824,1.848s-0.818,1.848,-1.824,1.848S2.464,3.868,2.464,2.848zM14.73,6.233c-0.397,-0.475,-0.855,-0.848,-1.351,-1.106c0.687,-0.52,1.132,-1.348,1.132,-2.28C14.511,1.278,13.245,0,11.688,0c-1.557,0,-2.824,1.278,-2.824,2.848c0,0.929,0.444,1.756,1.128,2.277c-0.102,0.053,-0.201,0.111,-0.299,0.173c0.343,0.166,0.659,0.38,0.94,0.633c0.333,-0.144,0.687,-0.225,1.05,-0.225c1.74,0,3.266,1.819,3.266,3.893h1C15.949,8.388,15.505,7.161,14.73,6.233zM11.688,4.697c-1.006,0,-1.824,-0.829,-1.824,-1.848S10.682,1,11.688,1s1.824,0.829,1.824,1.848S12.693,4.697,11.688,4.697z" fill="#228BCB"/>
  </g>
</svg>
