<?xml version="1.0" encoding="UTF-8"?>
<!DOCTYPE svg PUBLIC "-//W3C//DTD SVG 1.1//EN" "http://www.w3.org/Graphics/SVG/1.1/DTD/svg11.dtd">
<svg version="1.1" id="Layer_1" xmlns="http://www.w3.org/2000/svg" xmlns:xlink="http://www.w3.org/1999/xlink" x="0px" y="0px" width="16px" height="16px" viewBox="0 0 16 16" enable-background="new 0 0 16 16" xml:space="preserve">
  <g id="main">
    <g id="icon">
      <path d="M6.784,0.5361L6.089,0.642L5.418,0.8143L4.775,1.049L4.163,1.344L3.586,1.694L3.047,2.097L2.55,2.548L2.098,3.045L1.696,3.583L1.345,4.159L1.05,4.77L0.8146,5.413L0.6422,6.083L0.5361,6.777L0.5,7.492L0.5361,8.207L0.6422,8.901L0.8146,9.571L1.05,10.21L1.345,10.82L1.696,11.4L2.098,11.94L2.55,12.44L3.047,12.89L3.586,13.29L3.802,13.42L3.8,13.4L3.8,12.6L3.877,11.84L4.099,11.12L4.45,10.48L4.914,9.914L5.477,9.45L6.123,9.099L6.836,8.877L7.601,8.8L9.8,8.8L11.6,8.8L13.4,8.8L14.13,8.871L14.35,8.936L14.36,8.901L14.46,8.207L14.5,7.492L14.46,6.777L14.36,6.083L14.19,5.413L13.95,4.77L13.66,4.159L13.3,3.583L12.9,3.045L12.45,2.548L11.95,2.097L11.41,1.694L10.84,1.344L10.22,1.049L9.582,0.8143L8.911,0.642L8.216,0.5361L7.5,0.5zz" fill="#FFFFFF"/>
      <path d="M7.475,0.0005859L6.759,0.03672L6.734,0.03809L6.709,0.0418L6.014,0.1479L5.989,0.1516L5.965,0.1578L5.294,0.3301L5.27,0.3363L5.247,0.3447L4.604,0.5799L4.581,0.5883L4.558,0.5988L3.947,0.8934L3.925,0.9039L3.904,0.9164L3.327,1.267L3.306,1.279L3.287,1.294L2.748,1.696L2.729,1.71L2.711,1.726L2.214,2.178L2.196,2.194L2.18,2.211L1.729,2.708L1.712,2.726L1.698,2.745L1.295,3.283L1.281,3.302L1.268,3.323L0.9176,3.899L0.9051,3.92L0.8945,3.942L0.5998,4.553L0.5891,4.575L0.5807,4.598L0.3453,5.241L0.3367,5.264L0.3305,5.288L0.158,5.958L0.1518,5.983L0.148,6.007L0.0418,6.702L0.03809,6.727L0.03672,6.752L0.0005859,7.467L-0,7.479L0,7.505L0.0005859,7.517L0.03672,8.232L0.03809,8.257L0.0418,8.282L0.148,8.977L0.1518,9.002L0.158,9.026L0.3305,9.696L0.3367,9.72L0.3453,9.743L0.5807,10.39L0.5891,10.41L0.5998,10.43L0.8945,11.04L0.9051,11.06L0.9176,11.08L1.268,11.66L1.281,11.68L1.295,11.7L1.698,12.24L1.712,12.26L1.729,12.28L2.18,12.77L2.196,12.79L2.214,12.81L2.711,13.26L2.729,13.27L2.748,13.29L3.287,13.69L3.306,13.7L3.327,13.72L3.862,14.04L3.8,13.4L3.8,12.83L3.365,12.5L2.904,12.08L2.484,11.62L2.11,11.12L1.785,10.59L1.511,10.02L1.293,9.422L1.133,8.802L1.034,8.156L1.001,7.492L1.034,6.828L1.133,6.182L1.293,5.562L1.511,4.965L1.785,4.397L2.11,3.863L2.484,3.364L2.904,2.902L3.365,2.483L3.866,2.109L4.401,1.785L4.969,1.511L5.567,1.292L6.19,1.132L6.835,1.034L7.5,1.001L8.165,1.034L8.81,1.132L9.433,1.292L10.03,1.511L10.6,1.785L11.13,2.109L11.63,2.483L12.1,2.902L12.52,3.364L12.89,3.863L13.21,4.397L13.49,4.965L13.71,5.562L13.87,6.182L13.97,6.828L14,7.492L13.97,8.156L13.87,8.802L13.86,8.845L14.13,8.871L14.82,9.077L14.83,9.08L14.84,9.026L14.85,9.002L14.85,8.977L14.96,8.282L14.96,8.257L14.96,8.232L15,7.517L15,7.492L15,7.467L14.96,6.752L14.96,6.727L14.96,6.702L14.85,6.007L14.85,5.983L14.84,5.958L14.67,5.288L14.66,5.264L14.65,5.241L14.42,4.598L14.41,4.575L14.4,4.553L14.11,3.942L14.09,3.92L14.08,3.899L13.73,3.323L13.72,3.302L13.7,3.283L13.3,2.745L13.29,2.726L13.27,2.708L12.82,2.211L12.8,2.194L12.79,2.178L12.29,1.726L12.27,1.71L12.25,1.696L11.71,1.294L11.69,1.279L11.67,1.267L11.1,0.9164L11.08,0.9039L11.05,0.8934L10.44,0.5988L10.42,0.5883L10.4,0.5799L9.753,0.3447L9.73,0.3363L9.706,0.3301L9.035,0.1578L9.011,0.1516L8.986,0.1479L8.291,0.0418L8.266,0.03809L8.241,0.03672L7.525,0.0005859L7.512,0L7.488,0zz" fill="#383838"/>
      <path d="M6.851,0.2885L6.826,0.3016L6.804,0.317L6.423,0.5777L6.395,0.5973L6.369,0.6205L5.642,1.282L5.615,1.307L5.591,1.336L4.925,2.152L4.906,2.176L4.889,2.202L4.303,3.134L4.288,3.158L4.281,3.172L3.575,2.93L2.483,2.423L2.062,3.33L3.177,3.848L3.2,3.859L3.225,3.867L3.843,4.079L3.788,4.193L3.776,4.218L3.767,4.244L3.395,5.294L3.385,5.322L3.379,5.351L3.142,6.402L3.135,6.436L3.132,6.471L3.089,6.992L0.684,6.992L0.684,7.992L3.082,7.992L3.127,8.567L3.129,8.6L3.137,8.633L3.361,9.676L3.367,9.704L3.377,9.731L3.732,10.77L3.741,10.8L3.752,10.82L3.81,10.95L3.22,11.16L3.197,11.17L3.175,11.18L2.061,11.7L2.487,12.61L3.579,12.09L3.862,11.99L3.877,11.84L4.099,11.12L4.45,10.48L4.618,10.27L4.332,9.436L4.121,8.456L4.085,7.992L7,7.992L7,8.861L7.601,8.8L8,8.8L8,7.992L10.84,7.992L10.8,8.456L10.73,8.8L11.6,8.8L11.75,8.8L11.79,8.633L11.8,8.6L11.8,8.567L11.84,7.992L14.34,7.992L14.34,6.992L11.84,6.992L11.8,6.472L11.79,6.438L11.79,6.404L11.55,5.354L11.55,5.325L11.54,5.297L11.17,4.247L11.17,4.221L11.15,4.197L11.1,4.089L11.72,3.883L11.74,3.875L11.76,3.864L12.88,3.358L12.47,2.448L11.38,2.943L10.67,3.179L10.66,3.161L10.65,3.137L10.07,2.205L10.05,2.178L10.03,2.154L9.375,1.338L9.352,1.309L9.324,1.283L8.602,0.6217L8.577,0.598L8.548,0.5783L8.169,0.3176L8.146,0.3018L8.121,0.2887L7.733,0.08105L7.509,0.5L7.463,0.5L7.239,0.08086zM7,3.71L6.771,3.702L6.094,3.626L5.285,3.452L5.72,2.759L6.342,1.997L7,1.398zM8.621,1.996L9.236,2.758L9.667,3.454L8.845,3.627L8.171,3.702L8,3.709L8,1.426zM5.907,4.609L5.932,4.614L5.957,4.617L6.678,4.697L6.696,4.7L6.714,4.7L7,4.711L7,6.992L4.092,6.992L4.125,6.587L4.348,5.6L4.7,4.604L4.812,4.373zM10.24,4.6L10.58,5.598L10.8,6.585L10.83,6.992L8,6.992L8,4.709L8.227,4.701L8.245,4.7L8.263,4.698L8.981,4.619L9.005,4.616L9.029,4.611L10.13,4.378zz" fill="#383838" opacity="0.8"/>
    </g>
    <g id="overlay">
      <path d="M9.5,14v-1.399c0,-1.155,0.945,-2.101,2.101,-2.101h1.799c1.155,0,2.101,0.945,2.101,2.101v0.799c0,1.155,-0.945,2.101,-2.101,2.101H12.4M8.6,10.5h-0.999C6.445,10.5,5.5,11.445,5.5,12.601v0.799C5.5,14.555,6.445,15.5,7.601,15.5h1.799c1.155,0,2.101,-0.945,2.101,-2.101V12" fill="none" stroke="#228BCB" stroke-width="1" stroke-miterlimit="10"/>
    </g>
  </g>
</svg>
