<?xml version="1.0" encoding="UTF-8"?>
<!DOCTYPE svg PUBLIC "-//W3C//DTD SVG 1.1//EN" "http://www.w3.org/Graphics/SVG/1.1/DTD/svg11.dtd">
<svg version="1.1" id="Layer_1" xmlns="http://www.w3.org/2000/svg" xmlns:xlink="http://www.w3.org/1999/xlink" x="0px" y="0px" width="16px" height="16px" viewBox="0 0 16 16" enable-background="new 0 0 16 16" xml:space="preserve">
  <g id="icon">
    <path d="M2.5,12.017V0.5h13v15H4.483L2.5,12.017z" fill="#FFFFFF"/>
    <polygon points="16,16 7.983,16 7.983,15 15,15 15,1 3,1 3,6.217 2,6.217 2,0 16,0" fill="#383838" stroke-linejoin="miter"/>
    <rect x="4.5" y="2.5" width="9" height="2" fill="#F7DA8E" stroke="#E57428" stroke-width="1" stroke-linecap="round" stroke-miterlimit="10"/>
    <path d="M5.061,12.353l1.182,2.113l-1.031,0.012L4.473,15.1l-0.69,-2.364M2.332,12.353l-1.182,2.113l1.031,0.012L2.92,15.1l0.69,-2.364M1.15,10.103c0,1.41,1.141,2.553,2.547,2.553s2.547,-1.143,2.547,-2.553S5.104,7.55,3.697,7.55S1.15,8.693,1.15,10.103z" fill="#F3B8B8" stroke="#E42D2C" stroke-width="1" stroke-linecap="round" stroke-miterlimit="10"/>
    <path d="M6,6.5h7" fill="none" stroke="#787979" stroke-width="1" stroke-miterlimit="10"/>
    <path d="M8,8.5h6M5.2,9.5M9,10.5h5M4.7,11.5M8.5,12.5h5.5" fill="none" stroke="#787979" stroke-width="1" stroke-miterlimit="10"/>
  </g>
</svg>
