<?xml version="1.0" encoding="UTF-8"?>
<!DOCTYPE svg PUBLIC "-//W3C//DTD SVG 1.1//EN" "http://www.w3.org/Graphics/SVG/1.1/DTD/svg11.dtd">
<svg version="1.1" id="Layer_1" xmlns="http://www.w3.org/2000/svg" xmlns:xlink="http://www.w3.org/1999/xlink" x="0px" y="0px" width="16px" height="16px" viewBox="0 0 16 16" enable-background="new 0 0 16 16" xml:space="preserve">
  <g id="main">
    <g id="icon">
      <path d="M2.5,12.02L4.483,14.5L7.559,14.5L7.605,14.37L7.746,14.1L7.384,13.47L7.16,13.47L6.886,13.45L6.631,13.37L6.4,13.24L6.199,13.07L6.033,12.87L5.907,12.64L5.828,12.38L5.8,12.11L5.8,10.86L5.828,10.58L5.907,10.33L6.033,10.1L6.199,9.896L6.4,9.729L6.631,9.603L6.886,9.524L7.16,9.496L7.384,9.496L7.74,8.876L7.615,8.648L7.507,8.397L7.452,8.139L7.491,7.627L7.719,7.166L7.898,6.972L8.119,6.812L9.188,6.186L9.519,6.047L9.874,6L10.24,6.049L10.57,6.189L10.85,6.411L11.07,6.704L11.17,6.896L11.49,6.885L11.83,6.898L11.96,6.678L12.18,6.396L12.46,6.182L12.78,6.047L13.13,6L13.49,6.047L13.82,6.186L14.5,6.585L14.5,0.5L2.5,0.5zz" fill="#FFFFFE"/>
      <path d="M2,5.217L3,5.217L3,1L14,1L14,6.292L14.89,6.812L15,6.894L15,0L2,0zz" fill="#31363E"/>
      <path d="M4.5,4.5L12.5,4.5L12.5,2.5L4.5,2.5zz" fill="#BBC1C9"/>
      <path d="M4,2.5L4,4.5L4,5L4.5,5L12.5,5L13,5L13,4.5L13,2.5L13,2L12.5,2L4.5,2L4,2zM12,3L12,4L5,4L5,3zz" fill="#788494"/>
      <path d="M3.184,6.602L2.705,6.751L2.273,6.986L1.896,7.298L1.585,7.676L1.35,8.109L1.202,8.588L1.15,9.103L1.202,9.618L1.35,10.1L1.585,10.53L1.896,10.91L2.273,11.22L2.706,11.46L3.184,11.6L3.697,11.66L4.21,11.6L4.688,11.46L5.121,11.22L5.498,10.91L5.809,10.53L5.892,10.38L5.907,10.33L6.033,10.1L6.05,10.08L6.192,9.618L6.244,9.103L6.192,8.588L6.044,8.109L5.809,7.676L5.498,7.298L5.121,6.986L4.688,6.751L4.21,6.602L3.697,6.55zM1.15,13.47L2.181,13.48L2.92,14.1L3.61,11.74L2.332,11.35zM3.783,11.74L4.473,14.1L5.212,13.48L6.243,13.47L5.061,11.35zz" fill="#D0D4DA"/>
      <path d="M3.647,6.053L3.133,6.104L3.083,6.109L3.035,6.124L2.557,6.273L2.51,6.288L2.466,6.311L2.034,6.547L1.991,6.57L1.954,6.601L1.577,6.912L1.54,6.943L1.51,6.98L1.199,7.358L1.168,7.395L1.145,7.438L0.9104,7.871L0.8871,7.914L0.8725,7.961L0.724,8.441L0.7092,8.488L0.7043,8.538L0.6525,9.053L0.6475,9.103L0.6525,9.153L0.7043,9.668L0.7094,9.718L0.7242,9.765L0.8727,10.24L0.8871,10.29L0.9105,10.33L1.146,10.77L1.169,10.81L1.199,10.85L1.51,11.23L1.541,11.26L1.578,11.29L1.724,11.42L0.7137,13.22L0.3029,13.96L1.144,13.97L1.996,13.98L2.598,14.48L3.185,14.98L3.4,14.24L3.696,13.22L3.993,14.24L4.208,14.98L4.795,14.48L5.397,13.98L6.249,13.97L7.09,13.96L6.787,13.41L6.631,13.37L6.4,13.24L6.199,13.07L6.033,12.87L5.907,12.64L5.828,12.38L5.8,12.11L5.8,11.65L5.669,11.42L5.8,11.31L5.8,10.86L5.828,10.58L5.907,10.33L6.033,10.1L6.199,9.896L6.4,9.729L6.631,9.603L6.698,9.582L6.741,9.153L6.746,9.103L6.741,9.053L6.69,8.538L6.685,8.488L6.67,8.441L6.521,7.961L6.507,7.914L6.484,7.871L6.249,7.438L6.226,7.395L6.195,7.358L5.884,6.98L5.854,6.943L5.817,6.912L5.44,6.601L5.403,6.57L5.36,6.547L4.928,6.311L4.884,6.288L4.837,6.273L4.359,6.124L4.311,6.109L4.261,6.104L3.747,6.053L3.697,6.047zM4.11,7.094L4.493,7.213L4.84,7.402L5.143,7.653L5.392,7.956L5.581,8.304L5.7,8.688L5.741,9.103L5.7,9.518L5.581,9.901L5.392,10.25L5.142,10.55L4.839,10.8L4.493,10.99L4.11,11.11L3.697,11.15L3.284,11.11L2.901,10.99L2.554,10.8L2.252,10.55L2.002,10.25L1.813,9.902L1.694,9.518L1.653,9.103L1.694,8.688L1.813,8.304L2.002,7.956L2.251,7.653L2.554,7.402L2.901,7.213L3.284,7.094L3.697,7.053zM2.991,12.07L2.655,13.22L2.503,13.1L2.366,12.98L2.187,12.98L1.997,12.98L2.572,11.95zM5.396,12.98L5.206,12.98L5.027,12.98L4.89,13.1L4.738,13.22L4.402,12.07L4.821,11.95zz" fill="#7A8595"/>
      <path d="M7.4,7L7.872,7L7.898,6.972L8.119,6.812L9.188,6.186L9.519,6.047L9.874,6L7.4,6zM9.874,6L10.24,6.049L10.57,6.189L10.85,6.411L11.07,6.704L11.17,6.896L11.49,6.885L11.83,6.898L11.96,6.678L12,6.625L12,6L9.874,6zz" fill="#6A7686"/>
    </g>
    <g id="overlay">
      <path d="M12.447,14.743c-0.31,0.093,-0.632,0.141,-0.957,0.141c-0.326,0,-0.648,-0.047,-0.957,-0.141l-0.52,0.971c-0.043,0.08,-0.142,0.109,-0.22,0.063l-1.069,-0.626c-0.075,-0.044,-0.102,-0.141,-0.061,-0.219l0.524,-0.978c-0.477,-0.457,-0.807,-1.037,-0.958,-1.681H7.16c-0.088,0,-0.16,-0.073,-0.16,-0.163v-1.251c0,-0.09,0.072,-0.163,0.16,-0.163h1.069c0.151,-0.644,0.481,-1.223,0.958,-1.681l-0.521,-0.946c-0.043,-0.078,-0.016,-0.176,0.06,-0.221l1.069,-0.626c0.077,-0.045,0.176,-0.018,0.219,0.061l0.519,0.942c0.31,-0.093,0.632,-0.141,0.957,-0.141c0.326,0,0.648,0.047,0.957,0.141l0.549,-0.947c0.045,-0.077,0.142,-0.103,0.217,-0.058l1.069,0.626c0.077,0.045,0.103,0.146,0.058,0.224l-0.547,0.944c0.477,0.457,0.807,1.037,0.958,1.681h1.069c0.088,0,0.16,0.073,0.16,0.163v1.251c0,0.09,-0.072,0.163,-0.16,0.163H14.75c-0.151,0.644,-0.481,1.223,-0.958,1.681l0.55,0.977c0.044,0.078,0.018,0.177,-0.059,0.222l-1.069,0.626c-0.077,0.045,-0.175,0.018,-0.218,-0.06L12.447,14.743zM11.49,9.369c-1.145,0,-2.077,0.949,-2.077,2.115S10.344,13.6,11.49,13.6s2.077,-0.949,2.077,-2.115S12.635,9.369,11.49,9.369z" fill="#31363E"/>
    </g>
  </g>
</svg>
