<?xml version="1.0" encoding="UTF-8"?>
<!DOCTYPE svg PUBLIC "-//W3C//DTD SVG 1.1//EN" "http://www.w3.org/Graphics/SVG/1.1/DTD/svg11.dtd">
<svg version="1.1" id="Layer_1" xmlns="http://www.w3.org/2000/svg" xmlns:xlink="http://www.w3.org/1999/xlink" x="0px" y="0px" width="16px" height="16px" viewBox="0 0 16 16" enable-background="new 0 0 16 16" xml:space="preserve">
  <g id="main">
    <g id="icon">
      <path d="M1.5,14.5L8.165,14.5L7.86,14.33L7.169,13.76L6.598,13.07L6.167,12.28L5.895,11.41L5.8,10.47L5.895,9.527L6.168,8.652L6.599,7.859L7.169,7.169L7.861,6.599L8.654,6.168L9.529,5.896L10.47,5.801L11.41,5.896L12.28,6.168L12.5,6.285L12.5,0.5L1.5,0.5zz" fill="#FFFFFF"/>
      <path d="M1,0.5L1,14.5L1,15L1.5,15L9.409,15L8.653,14.76L7.86,14.33L7.455,14L2,14L2,1L12,1L12,6.08L12.28,6.168L13,6.557L13,0.5L13,0L12.5,0L1.5,0L1,0zM11.53,15L12.5,15L12.59,15L12.34,14.74zz" fill="#383838"/>
      <path d="M10.5,3.5L3.5,3.5zM10.5,5.5L3.5,5.5zz" fill="#FFFFFF"/>
      <path d="M3.5,4L10.5,4L10.5,3L3.5,3zM3.5,6L9.195,6L9.529,5.896L10.47,5.801L10.5,5.804L10.5,5L3.5,5zM3.5,8L6.522,8L6.599,7.859L7.169,7.169L7.374,7L3.5,7zM3.5,10L5.847,10L5.895,9.527L6.059,9L3.5,9zM3.5,12L6.08,12L5.895,11.41L5.854,11L3.5,11zz" fill="#228BCB"/>
    </g>
    <g id="overlay">
      <path d="M7.503,10.466c0,-1.637,1.328,-2.964,2.966,-2.964s2.966,1.327,2.966,2.964s-1.328,2.964,-2.966,2.964S7.503,12.103,7.503,10.466zM12.585,12.585l3.06,3.06" fill="#FFFFFF"/>
      <path d="M12.537,13.247c-0.578,0.43,-1.294,0.685,-2.068,0.685c-1.912,0,-3.468,-1.555,-3.468,-3.466S8.556,7,10.468,7s3.468,1.555,3.468,3.466c0,0.776,-0.256,1.493,-0.688,2.071L16,15.289l-0.711,0.711L12.537,13.247zM8.005,10.466c0,1.357,1.105,2.461,2.463,2.461s2.463,-1.104,2.463,-2.461s-1.105,-2.461,-2.463,-2.461S8.005,9.109,8.005,10.466z" fill="#383838"/>
    </g>
  </g>
</svg>
