<?xml version="1.0" encoding="UTF-8"?>
<!DOCTYPE svg PUBLIC "-//W3C//DTD SVG 1.1//EN" "http://www.w3.org/Graphics/SVG/1.1/DTD/svg11.dtd">
<svg version="1.1" id="Layer_1" xmlns="http://www.w3.org/2000/svg" xmlns:xlink="http://www.w3.org/1999/xlink" x="0px" y="0px" width="16px" height="16px" viewBox="0 0 16 16" enable-background="new 0 0 16 16" xml:space="preserve">
  <g id="main">
    <g id="icon">
      <path d="M9.754,0.9912L9.594,1.149L8.905,2.298L8.21,2.159L7.5,2.113L6.791,2.159L6.098,2.297L5.454,1.16L5.294,0.9963L5.073,0.9359L4.855,0.9949L3.188,1.961L3.059,2.074L2.986,2.223L2.973,2.389L3.025,2.552L3.676,3.7L3.205,4.238L2.811,4.828L2.498,5.465L2.27,6.14L0.9359,6.14L0.7666,6.174L0.6279,6.268L0.5344,6.407L0.5,6.577L0.5,8.509L0.5344,8.679L0.6279,8.818L0.7666,8.911L0.9359,8.945L2.27,8.945L2.498,9.621L2.811,10.26L3.206,10.85L3.677,11.39L3.02,12.58L2.969,12.75L2.982,12.91L3.056,13.06L3.185,13.17L4.852,14.14L5.07,14.2L5.294,14.14L5.454,13.97L6.1,12.79L6.793,12.93L7.382,12.97L11.08,6.227L11.23,6.074L11.42,6.022L11.62,6.071L11.77,6.223L13.3,8.947L14.06,8.947L14.23,8.913L14.37,8.819L14.46,8.68L14.5,8.51L14.5,6.578L14.46,6.408L14.37,6.269L14.23,6.175L14.06,6.141L12.73,6.141L12.5,5.466L12.19,4.83L11.8,4.24L11.32,3.703L12.01,2.558L12.07,2.396L12.06,2.225L11.98,2.071L11.86,1.958L10.19,0.992L9.97,0.933zM7.97,5.253L8.407,5.389L8.804,5.605L9.149,5.891L9.434,6.237L9.649,6.634L9.786,7.072L9.833,7.543L9.786,8.013L9.649,8.452L9.434,8.849L9.149,9.195L8.803,9.481L8.407,9.697L7.97,9.833L7.5,9.881L7.03,9.833L6.593,9.697L6.197,9.481L5.851,9.195L5.566,8.849L5.351,8.452L5.214,8.013L5.167,7.543L5.214,7.072L5.351,6.634L5.566,6.237L5.851,5.891L6.196,5.605L6.593,5.389L7.03,5.253L7.5,5.205zz" fill="#C8C6C4"/>
      <path d="M9.84,0.4502L9.624,0.5082L9.496,0.5426L9.402,0.6357L9.242,0.7936L9.197,0.8379L9.165,0.8918L8.657,1.739L8.308,1.669L8.275,1.662L8.243,1.66L7.533,1.614L7.5,1.612L7.467,1.614L6.759,1.66L6.726,1.662L6.694,1.669L6.355,1.736L5.889,0.9137L5.857,0.857L5.812,0.8104L5.651,0.6467L5.556,0.5496L5.425,0.5139L5.204,0.4537L5.073,0.418L4.942,0.4533L4.724,0.5123L4.661,0.5295L4.604,0.5623L2.937,1.528L2.895,1.553L2.858,1.586L2.729,1.698L2.655,1.764L2.611,1.853L2.538,2.003L2.495,2.088L2.488,2.184L2.475,2.349L2.467,2.447L2.497,2.541L2.549,2.704L2.564,2.754L2.59,2.799L3.066,3.638L2.829,3.908L2.807,3.933L2.789,3.96L2.395,4.551L2.376,4.578L2.362,4.608L2.049,5.244L2.034,5.274L2.024,5.305L1.911,5.64L0.9359,5.64L0.8857,5.64L0.8365,5.65L0.6672,5.684L0.5693,5.704L0.4865,5.76L0.3479,5.854L0.2676,5.908L0.2133,5.989L0.1197,6.128L0.06406,6.21L0.04434,6.308L0.009961,6.478L0,6.527L0,6.577L0,8.509L0,8.559L0.009961,8.608L0.04434,8.778L0.06406,8.876L0.1199,8.959L0.2135,9.097L0.268,9.178L0.3486,9.232L0.4871,9.326L0.5703,9.382L0.6688,9.402L0.8381,9.435L0.8865,9.445L0.9359,9.445L1.911,9.445L2.024,9.781L2.035,9.812L2.049,9.842L2.362,10.48L2.377,10.51L2.395,10.54L2.79,11.13L2.808,11.15L2.83,11.18L3.07,11.45L2.581,12.34L2.558,12.39L2.543,12.44L2.492,12.6L2.462,12.69L2.471,12.79L2.484,12.95L2.492,13.05L2.536,13.14L2.609,13.28L2.654,13.37L2.727,13.44L2.856,13.55L2.893,13.58L2.934,13.6L4.601,14.57L4.658,14.6L4.721,14.62L4.939,14.68L5.071,14.72L5.203,14.68L5.427,14.62L5.56,14.58L5.655,14.48L5.815,14.31L5.861,14.27L5.893,14.21L6.362,13.35L6.695,13.42L6.727,13.42L6.76,13.43L7.117,13.45L7.659,12.46L7.5,12.47L6.857,12.43L6.197,12.3L5.838,12.23L5.662,12.55L5.047,13.67L5.045,13.67L3.489,12.77L4.115,11.63L4.284,11.32L4.053,11.06L3.603,10.54L3.245,10.01L2.961,9.43L2.744,8.785L2.629,8.445L2.27,8.445L1,8.445L1,6.64L2.27,6.64L2.629,6.64L2.744,6.3L2.961,5.656L3.245,5.079L3.603,4.542L4.052,4.03L4.286,3.762L4.111,3.453L3.492,2.362L5.049,1.461L5.051,1.463L5.663,2.543L5.841,2.858L6.196,2.788L6.856,2.656L7.5,2.614L8.144,2.656L8.807,2.788L9.153,2.857L9.334,2.555L9.99,1.46L9.993,1.457L9.994,1.457L11.55,2.358L10.9,3.446L10.71,3.758L10.95,4.032L11.4,4.545L11.75,5.08L12.04,5.657L12.26,6.301L12.37,6.641L12.73,6.641L14,6.641L14,8.447L13.02,8.447L13.58,9.447L14.06,9.447L14.11,9.447L14.16,9.437L14.33,9.403L14.43,9.383L14.51,9.327L14.65,9.233L14.73,9.179L14.79,9.098L14.88,8.959L14.93,8.877L14.95,8.779L14.99,8.609L15,8.56L15,8.51L15,6.578L15,6.528L14.99,6.479L14.95,6.309L14.93,6.211L14.88,6.129L14.79,5.99L14.73,5.909L14.65,5.855L14.51,5.761L14.43,5.705L14.33,5.685L14.16,5.651L14.11,5.641L14.06,5.641L13.09,5.641L12.98,5.306L12.96,5.275L12.95,5.246L12.64,4.61L12.62,4.58L12.6,4.553L12.21,3.963L12.19,3.935L12.17,3.911L11.94,3.648L12.44,2.815L12.47,2.771L12.48,2.723L12.54,2.561L12.57,2.466L12.57,2.365L12.56,2.194L12.55,2.096L12.51,2.007L12.43,1.853L12.39,1.763L12.31,1.696L12.19,1.583L12.15,1.55L12.11,1.525L10.44,0.5594L10.38,0.5266L10.32,0.5094L10.1,0.4504L9.971,0.4152zM7.45,4.708L6.98,4.755L6.93,4.76L6.881,4.775L6.444,4.912L6.397,4.926L6.353,4.95L5.957,5.166L5.915,5.189L5.878,5.22L5.532,5.505L5.495,5.536L5.465,5.573L5.18,5.919L5.149,5.956L5.126,5.998L4.911,6.396L4.888,6.439L4.873,6.486L4.737,6.924L4.722,6.972L4.717,7.022L4.67,7.493L4.664,7.543L4.67,7.593L4.717,8.064L4.722,8.114L4.737,8.162L4.873,8.6L4.888,8.647L4.911,8.69L5.127,9.088L5.15,9.13L5.18,9.167L5.465,9.513L5.496,9.55L5.533,9.581L5.878,9.866L5.915,9.897L5.957,9.92L6.354,10.14L6.397,10.16L6.444,10.17L6.882,10.31L6.93,10.33L6.98,10.33L7.45,10.38L7.5,10.38L7.55,10.38L8.02,10.33L8.07,10.33L8.118,10.31L8.556,10.17L8.603,10.16L8.646,10.14L9.043,9.92L9.055,9.913L10.33,7.586L10.34,7.543L10.33,7.493L10.28,7.022L10.28,6.972L10.26,6.924L10.13,6.486L10.11,6.439L10.09,6.396L9.874,5.998L9.851,5.956L9.82,5.919L9.535,5.573L9.505,5.536L9.468,5.505L9.122,5.22L9.085,5.189L9.043,5.166L8.647,4.95L8.603,4.926L8.556,4.912L8.119,4.775L8.07,4.76L8.02,4.755L7.55,4.708L7.5,4.702zM7.869,5.745L8.212,5.852L8.522,6.021L8.793,6.245L9.018,6.517L9.186,6.829L9.293,7.173L9.33,7.543L9.293,7.913L9.187,8.256L9.017,8.569L8.793,8.84L8.522,9.065L8.212,9.234L7.869,9.341L7.5,9.379L7.131,9.341L6.788,9.234L6.478,9.065L6.207,8.84L5.983,8.569L5.813,8.256L5.707,7.913L5.67,7.543L5.707,7.173L5.814,6.829L5.982,6.517L6.207,6.245L6.478,6.021L6.788,5.852L7.131,5.745L7.5,5.708zz" fill="#383838"/>
    </g>
    <g id="overlay">
      <path d="M11.438,8.95l3.763,6.6H7.775L11.438,8.95z" fill="#F7DA8E" stroke="#E57428" stroke-width="0.9" stroke-linecap="round" stroke-miterlimit="10"/>
      <path d="M11.5,11.5v2M11.5,14v0.7" fill="#FFFFFF" stroke="#383838" stroke-width="1" stroke-miterlimit="10"/>
    </g>
  </g>
</svg>
