<?xml version="1.0" encoding="UTF-8"?>
<!DOCTYPE svg PUBLIC "-//W3C//DTD SVG 1.1//EN" "http://www.w3.org/Graphics/SVG/1.1/DTD/svg11.dtd">
<svg version="1.1" id="Layer_1" xmlns="http://www.w3.org/2000/svg" xmlns:xlink="http://www.w3.org/1999/xlink" x="0px" y="0px" width="16px" height="16px" viewBox="0 0 16 16" enable-background="new 0 0 16 16" xml:space="preserve">
  <g id="main">
    <g id="icon">
      <path d="M1.5,14.5L7.559,14.5L7.605,14.37L7.746,14.1L7.384,13.47L7.16,13.47L6.886,13.45L6.631,13.37L6.4,13.24L6.199,13.07L6.033,12.87L5.907,12.64L5.828,12.38L5.8,12.11L5.8,10.86L5.828,10.58L5.907,10.33L6.033,10.1L6.199,9.896L6.4,9.729L6.631,9.603L6.886,9.524L7.16,9.496L7.384,9.496L7.74,8.876L7.615,8.648L7.507,8.397L7.452,8.139L7.491,7.627L7.719,7.166L7.898,6.972L8.119,6.812L9.188,6.186L9.519,6.047L9.874,6L10.24,6.049L10.57,6.189L10.85,6.411L11.07,6.704L11.17,6.896L11.49,6.885L11.83,6.898L11.96,6.678L12.18,6.396L12.46,6.182L12.78,6.047L13.13,6L13.49,6.047L13.5,6.052L13.5,5.6L1.5,5.6zz" fill="#FFFFFF"/>
      <path d="M1,5.6L1,14.5L1,15L1.5,15L7.46,15L7.459,14.8L7.605,14.37L7.746,14.1L7.687,14L2,14L2,6.1L9.393,6.1L9.519,6.047L9.874,6L10.24,6.049L10.36,6.1L12.65,6.1L12.78,6.047L13.13,6L13.49,6.047L13.82,6.186L14,6.292L14,5.6L14,5.1L13.5,5.1L1.5,5.1L1,5.1zz" fill="#383838"/>
      <path d="M3.5,14.5L5.5,14.5L5.5,9.5L3.5,9.5zz" fill="#C8C6C4"/>
      <path d="M3,9.5L3,14.5L3,15L3.5,15L5.5,15L6,15L6,14.5L6,12.81L5.907,12.64L5.828,12.38L5.8,12.11L5.8,10.86L5.828,10.58L5.907,10.33L6,10.16L6,9.5L6,9L5.5,9L3.5,9L3,9zM5,10L5,14L4,14L4,10zz" fill="#383838"/>
      <path d="M7.5,9.294L7.74,8.876L7.615,8.648L7.551,8.5L7.5,8.5zz" fill="#92CBEE"/>
      <path d="M7,8.5L7,9.512L7.16,9.496L7.384,9.496L7.74,8.876L7.615,8.648L7.507,8.397L7.452,8.139L7.462,8L7,8zz" fill="#0964B0"/>
      <path d="M2.995,3.5L11.96,3.5L9.918,0.5L5.031,0.5zz" fill="#C8C6C4"/>
      <path d="M3.3,4.669L3.329,5.004L3.411,5.317L3.54,5.601L3.711,5.848L3.919,6.053L4.156,6.207L4.419,6.305L4.7,6.339L4.981,6.305L5.244,6.207L5.481,6.053L5.689,5.849L5.86,5.601L5.989,5.318L6.071,5.005L6.1,4.669L6.1,3.5L3.3,3.5zM8.9,4.669L8.929,5.005L9.011,5.318L9.14,5.601L9.311,5.849L9.515,6.049L9.519,6.047L9.874,6L10.24,6.049L10.57,6.189L10.67,6.272L10.84,6.207L11.08,6.053L11.29,5.848L11.46,5.601L11.59,5.317L11.67,5.004L11.7,4.669L11.7,3.5L8.9,3.5zz" fill="#C8C6C4"/>
      <path d="M2.8,3.5L2.8,4.669L2.8,4.69L2.802,4.712L2.83,5.047L2.834,5.089L2.845,5.131L2.927,5.444L2.938,5.486L2.956,5.525L3.085,5.808L3.104,5.849L3.129,5.885L3.3,6.133L3.327,6.171L3.36,6.204L3.568,6.409L3.604,6.444L3.646,6.472L3.884,6.626L3.93,6.656L3.982,6.676L4.244,6.773L4.3,6.794L4.359,6.801L4.64,6.835L4.7,6.843L4.76,6.835L5.041,6.801L5.1,6.794L5.156,6.774L5.418,6.676L5.47,6.657L5.516,6.627L5.754,6.472L5.796,6.445L5.832,6.409L6.04,6.205L6.073,6.172L6.1,6.133L6.271,5.886L6.296,5.849L6.315,5.809L6.444,5.525L6.462,5.486L6.473,5.444L6.555,5.131L6.566,5.09L6.57,5.047L6.598,4.711L6.6,4.69L6.6,4.669L6.6,3.5L6.6,3L6.1,3L3.3,3L2.8,3zM8.4,3.5L8.4,4.669L8.4,4.69L8.402,4.711L8.43,5.047L8.434,5.09L8.445,5.131L8.527,5.444L8.538,5.486L8.556,5.525L8.685,5.809L8.704,5.849L8.729,5.886L8.9,6.133L8.927,6.172L8.96,6.205L9.033,6.277L9.188,6.186L9.519,6.047L9.874,6L10.24,6.049L10.57,6.189L10.85,6.411L11.04,6.668L11.07,6.656L11.12,6.626L11.35,6.472L11.4,6.444L11.43,6.409L11.64,6.204L11.67,6.171L11.7,6.133L11.87,5.885L11.9,5.849L11.91,5.808L12.04,5.525L12.06,5.486L12.07,5.444L12.16,5.131L12.17,5.089L12.17,5.047L12.2,4.712L12.2,4.69L12.2,4.669L12.2,3.5L12.2,3L11.7,3L8.9,3L8.4,3zM5.6,4L5.6,4.647L5.577,4.92L5.517,5.149L5.424,5.353L5.304,5.525L5.167,5.661L5.018,5.758L4.862,5.816L4.7,5.835L4.538,5.816L4.383,5.758L4.234,5.661L4.095,5.525L3.976,5.353L3.883,5.149L3.823,4.919L3.8,4.647L3.8,4zM11.2,4L11.2,4.647L11.18,4.919L11.12,5.149L11.02,5.353L10.9,5.525L10.77,5.661L10.62,5.758L10.46,5.816L10.3,5.835L10.14,5.816L9.982,5.758L9.833,5.661L9.696,5.525L9.576,5.353L9.483,5.149L9.423,4.92L9.4,4.647L9.4,4zz" fill="#383838"/>
      <path d="M5.353,1L9.647,1L9.647,0L5.353,0zz" fill="#383838"/>
      <path d="M0.5,3.515L0.5,4.669L0.5285,5.005L0.6105,5.318L0.7398,5.601L0.9113,5.849L1.119,6.053L1.356,6.207L1.619,6.305L1.9,6.339L2.181,6.305L2.444,6.207L2.681,6.053L2.889,5.849L3.06,5.601L3.189,5.318L3.271,5.005L3.3,4.669L3.3,3.515L5.337,0.5L4.013,0.5zM6.1,3.515L6.1,4.669L6.129,5.005L6.211,5.318L6.34,5.601L6.511,5.849L6.719,6.053L6.956,6.207L7.219,6.305L7.5,6.339L7.781,6.305L8.044,6.207L8.281,6.053L8.489,5.848L8.66,5.601L8.789,5.317L8.871,5.004L8.9,4.669L8.9,3.515L8.187,0.5L6.813,0.5zM11.7,3.515L11.7,4.669L11.73,5.005L11.81,5.318L11.94,5.601L12.11,5.849L12.32,6.053L12.49,6.166L12.78,6.047L13.13,6L13.49,6.047L13.73,6.15L13.88,6.053L14.09,5.848L14.26,5.601L14.39,5.317L14.47,5.004L14.5,4.669L14.5,3.515L11.04,0.5L9.613,0.5zz" fill="#F3B8B8"/>
      <path d="M3.687,0.1205L0.1744,3.136L0,3.285L0,3.515L0,4.669L0,4.69L0.001758,4.711L0.03047,5.047L0.03398,5.09L0.04492,5.131L0.1268,5.444L0.1377,5.486L0.1557,5.525L0.2852,5.809L0.3035,5.849L0.3289,5.886L0.5002,6.133L0.527,6.172L0.5604,6.205L0.7678,6.409L0.8039,6.445L0.8463,6.472L1.084,6.627L1.13,6.657L1.182,6.676L1.444,6.774L1.5,6.794L1.559,6.801L1.84,6.835L1.9,6.843L1.96,6.835L2.241,6.801L2.3,6.794L2.356,6.774L2.618,6.676L2.67,6.657L2.716,6.627L2.954,6.472L2.996,6.445L3.032,6.409L3.24,6.205L3.273,6.172L3.3,6.133L3.471,5.886L3.496,5.849L3.515,5.809L3.644,5.525L3.662,5.486L3.673,5.444L3.755,5.131L3.766,5.09L3.77,5.047L3.798,4.711L3.8,4.69L3.8,4.669L3.8,3.668L5.751,0.7799L5.337,0L4.013,0L3.828,0zM6.326,0.385L5.613,3.4L5.6,3.457L5.6,3.515L5.6,4.669L5.6,4.69L5.602,4.711L5.63,5.047L5.634,5.09L5.645,5.131L5.727,5.444L5.738,5.486L5.756,5.525L5.885,5.809L5.904,5.849L5.929,5.886L6.1,6.133L6.127,6.172L6.16,6.205L6.368,6.409L6.404,6.445L6.446,6.472L6.684,6.627L6.73,6.657L6.782,6.676L7.044,6.774L7.1,6.794L7.159,6.801L7.44,6.835L7.5,6.843L7.56,6.835L7.841,6.801L7.9,6.794L7.956,6.773L8.218,6.676L8.27,6.656L8.316,6.626L8.554,6.472L8.596,6.444L8.632,6.409L8.84,6.204L8.873,6.171L8.9,6.133L9.071,5.885L9.096,5.849L9.115,5.808L9.244,5.525L9.262,5.486L9.273,5.444L9.355,5.131L9.366,5.089L9.37,5.047L9.398,4.712L9.4,4.69L9.4,4.669L9.4,3.515L9.4,3.457L9.387,3.4L8.674,0.385L8.583,0L8.187,0L6.813,0L6.417,0zM9.202,0.7846L11.2,3.671L11.2,4.669L11.2,4.69L11.2,4.711L11.23,5.047L11.23,5.09L11.24,5.131L11.33,5.444L11.34,5.486L11.36,5.525L11.49,5.809L11.5,5.849L11.53,5.886L11.7,6.133L11.73,6.172L11.76,6.205L11.97,6.409L12,6.445L12.05,6.472L12.09,6.503L12.18,6.396L12.46,6.182L12.78,6.047L13.13,6L13.49,6.047L13.82,6.186L14.22,6.421L14.23,6.409L14.44,6.204L14.47,6.171L14.5,6.133L14.67,5.885L14.7,5.849L14.71,5.808L14.84,5.525L14.86,5.486L14.87,5.444L14.96,5.131L14.97,5.089L14.97,5.047L15,4.712L15,4.69L15,4.669L15,3.515L15,3.288L14.83,3.138L11.37,0.1229L11.23,0L11.04,0L9.613,0zM4.396,1L2.886,3.235L2.8,3.362L2.8,3.515L2.8,4.647L2.777,4.92L2.717,5.149L2.624,5.353L2.504,5.525L2.367,5.661L2.218,5.758L2.062,5.816L1.9,5.835L1.738,5.816L1.582,5.758L1.433,5.661L1.296,5.525L1.176,5.353L1.083,5.149L1.023,4.92L1,4.647L1,3.745L4.198,1zM7.791,1L8.4,3.573L8.4,4.647L8.377,4.919L8.317,5.149L8.224,5.353L8.105,5.525L7.966,5.661L7.817,5.758L7.662,5.816L7.5,5.835L7.338,5.816L7.182,5.758L7.033,5.661L6.896,5.525L6.776,5.353L6.683,5.149L6.623,4.92L6.6,4.647L6.6,3.573L7.209,1zM10.85,1L14,3.743L14,4.647L13.98,4.919L13.92,5.149L13.82,5.353L13.7,5.525L13.57,5.661L13.42,5.758L13.26,5.816L13.1,5.835L12.94,5.816L12.78,5.758L12.63,5.661L12.5,5.525L12.38,5.353L12.28,5.149L12.22,4.92L12.2,4.647L12.2,3.515L12.2,3.359L12.11,3.23L10.57,1zz" fill="#E42D2C"/>
      <path d="M0.5,4L3.207,4L3.207,3L0.5,3zM6.193,4L8.806,4L8.806,3L6.193,3zM11.7,4L14.31,4L14.31,3L11.7,3zz" fill="#EE3D3B"/>
    </g>
    <g id="overlay">
      <path d="M12.447,14.743c-0.31,0.093,-0.632,0.141,-0.957,0.141c-0.326,0,-0.648,-0.047,-0.957,-0.141l-0.52,0.971c-0.043,0.08,-0.142,0.109,-0.22,0.063l-1.069,-0.626c-0.075,-0.044,-0.102,-0.141,-0.061,-0.219l0.524,-0.978c-0.477,-0.457,-0.807,-1.037,-0.958,-1.681H7.16c-0.088,0,-0.16,-0.073,-0.16,-0.163v-1.251c0,-0.09,0.072,-0.163,0.16,-0.163h1.069c0.151,-0.644,0.481,-1.223,0.958,-1.681l-0.521,-0.946c-0.043,-0.078,-0.016,-0.176,0.06,-0.221l1.069,-0.626c0.077,-0.045,0.176,-0.018,0.219,0.061l0.519,0.942c0.31,-0.093,0.632,-0.141,0.957,-0.141c0.326,0,0.648,0.047,0.957,0.141l0.549,-0.947c0.045,-0.077,0.142,-0.103,0.217,-0.058l1.069,0.626c0.077,0.045,0.103,0.146,0.058,0.224l-0.547,0.944c0.477,0.457,0.807,1.037,0.958,1.681h1.069c0.088,0,0.16,0.073,0.16,0.163v1.251c0,0.09,-0.072,0.163,-0.16,0.163H14.75c-0.151,0.644,-0.481,1.223,-0.958,1.681l0.55,0.977c0.044,0.078,0.018,0.177,-0.059,0.222l-1.069,0.626c-0.077,0.045,-0.175,0.018,-0.218,-0.06L12.447,14.743zM11.49,9.369c-1.145,0,-2.077,0.949,-2.077,2.115S10.344,13.6,11.49,13.6s2.077,-0.949,2.077,-2.115S12.635,9.369,11.49,9.369z" fill="#383838"/>
    </g>
  </g>
</svg>
