<?xml version="1.0" encoding="UTF-8"?>
<!DOCTYPE svg PUBLIC "-//W3C//DTD SVG 1.1//EN" "http://www.w3.org/Graphics/SVG/1.1/DTD/svg11.dtd">
<svg version="1.1" id="Layer_1" xmlns="http://www.w3.org/2000/svg" xmlns:xlink="http://www.w3.org/1999/xlink" x="0px" y="0px" width="16px" height="16px" viewBox="0 0 16 16" enable-background="new 0 0 16 16" xml:space="preserve">
  <g id="icon">
    <path d="M15.427,10.186c0,0,-3.234,-3.172,-4.344,-4.276c0.245,-0.59,0.35,-1.253,0.272,-1.947C11.153,2.181,9.733,0.754,7.95,0.532C5.597,0.238,3.587,2.009,3.504,4.269c0.47,-0.179,0.982,-0.278,1.522,-0.278c0.195,0,0.386,0.014,0.573,0.039c-0.082,-0.149,-0.129,-0.319,-0.129,-0.501c0,-0.574,0.466,-1.039,1.041,-1.039c0.575,0,1.041,0.465,1.041,1.039c0,0.409,-0.237,0.761,-0.58,0.931c1.321,0.684,2.211,2.052,2.238,3.669c0.199,0.193,0.372,0.37,0.372,0.37c0.1,0.095,0.253,0.092,0.35,-0.005l0.185,-0.196l0.533,0.545v1.045h1.001v1.306h1.309V12.5H15.5v-2.138C15.5,10.296,15.474,10.233,15.427,10.186z" fill="#F7DA8E"/>
    <path d="M6.51,1.989c-0.85,0,-1.541,0.691,-1.541,1.539c0,0.161,0.025,0.317,0.072,0.463c0.904,0.003,1.731,0.281,2.407,0.756c0.367,-0.282,0.604,-0.723,0.604,-1.219C8.052,2.68,7.36,1.989,6.51,1.989zM6.51,4.068c-0.298,0,-0.541,-0.242,-0.541,-0.539s0.243,-0.539,0.541,-0.539s0.541,0.242,0.541,0.539S6.809,4.068,6.51,4.068zM16,10.362V13h-3.541v-1.306H11.15v-1.306h-1.001V9.046l-0.057,-0.058c-0.275,0.141,-0.616,0.1,-0.854,-0.125l-0.015,-0.015c-0.001,-0.001,-0.02,-0.021,-0.053,-0.054c0.027,-0.194,0.041,-0.392,0.041,-0.591c0,-0.275,-0.026,-0.542,-0.074,-0.801l0.021,-0.009l0.243,0.228c0.123,0.116,0.249,0.239,0.347,0.337l0.361,-0.382l1.039,1.063v0.749h1.001v1.306h1.309V12H15v-1.533c-0.484,-0.475,-3.264,-3.203,-4.27,-4.203l-0.238,-0.237l0.129,-0.31c0.224,-0.538,0.303,-1.109,0.237,-1.699c-0.174,-1.54,-1.423,-2.798,-2.969,-2.99c-1.056,-0.131,-2.093,0.211,-2.847,0.939c-0.596,0.575,-0.953,1.334,-1.026,2.144c-0.359,0.086,-0.699,0.218,-1.013,0.389c-0.022,-1.224,0.457,-2.394,1.344,-3.251c0.973,-0.94,2.309,-1.382,3.666,-1.212c1.999,0.249,3.613,1.877,3.839,3.87c0.072,0.635,0.007,1.276,-0.188,1.875c1.256,1.244,4.084,4.018,4.114,4.048C15.923,9.975,16,10.163,16,10.362z" fill="#E57428"/>
    <path d="M7.711,8.203c0,1.498,-1.147,2.712,-2.686,2.712S2.34,9.701,2.34,8.203s1.147,-2.712,2.686,-2.712S7.711,6.705,7.711,8.203zM9.535,16c0,-2.615,-2.021,-5.074,-4.515,-5.074S0.505,13.385,0.505,16" fill="#FFFFFF"/>
    <path d="M10.035,16h-1c0,-2.436,-1.876,-4.574,-4.015,-4.574S1.005,13.564,1.005,16h-1c0,-1.386,0.527,-2.787,1.445,-3.845c0.505,-0.582,1.092,-1.027,1.727,-1.32c-0.814,-0.576,-1.337,-1.531,-1.337,-2.632c0,-1.801,1.399,-3.212,3.186,-3.212s3.186,1.411,3.186,3.212c0,1.103,-0.525,2.059,-1.341,2.635c0.633,0.293,1.217,0.737,1.72,1.317C9.508,13.213,10.035,14.614,10.035,16zM5.025,5.991C3.8,5.991,2.84,6.963,2.84,8.203s0.96,2.212,2.186,2.212s2.186,-0.972,2.186,-2.212S6.251,5.991,5.025,5.991z" fill="#383838"/>
  </g>
</svg>
