<?xml version="1.0" encoding="UTF-8"?>
<!DOCTYPE svg PUBLIC "-//W3C//DTD SVG 1.1//EN" "http://www.w3.org/Graphics/SVG/1.1/DTD/svg11.dtd">
<svg version="1.1" id="Layer_1" xmlns="http://www.w3.org/2000/svg" xmlns:xlink="http://www.w3.org/1999/xlink" x="0px" y="0px" width="16px" height="16px" viewBox="0 0 16 16" enable-background="new 0 0 16 16" xml:space="preserve">
  <g id="main">
    <g id="icon">
      <path d="M0.5,14.5L5.352,14.5L5.352,14.49L5.419,13.99L5.577,13.52L5.822,13.08L6.148,12.68L9.243,9.589L9.258,8.751L9.459,7.935L9.838,7.17L10.39,6.487L10.98,6.006L11.64,5.65L12.36,5.429L13.1,5.353L13.91,5.442L14.5,5.646L14.5,2.5L0.5,2.5zz" fill="#FFFFFF"/>
      <path d="M0,2.5L0,14.5L0,15L0.5,15L5.387,15L5.367,14.9L5.352,14.49L5.418,14L1,14L1,3L14,3L14,5.472L14.68,5.707L15,5.86L15,2.5L15,2L14.5,2L0.5,2L0,2zz" fill="#383838"/>
      <path d="M0.5,2.5L14.5,2.5L14.5,0.5L0.5,0.5zz" fill="#92CBEE"/>
      <path d="M0,0.5L0,2.5L0,3L0.5,3L14.5,3L15,3L15,2.5L15,0.5L15,0L14.5,0L0.5,0L0,0zM14,1L14,2L1,2L1,1zz" fill="#0964B0"/>
      <path d="M2,6L3,6L3,5L2,5zM4,6L7,6L7,5L4,5zM8,6L9,6L9,5L8,5zM10,6L10.99,6L11.64,5.65L12.36,5.429L13,5.363L13,5L10,5zM2,8L3,8L3,7L2,7zM4,8L7,8L7,7L4,7zM8,8L9,8L9,7L8,7zM2,10L3,10L3,9L2,9zM4,10L7,10L7,9L4,9zM8,10L8.832,10L9,9.832L9,9L8,9zM2,12L3,12L3,11L2,11zM4,12L6.832,12L7,11.83L7,11L4,11zz" fill="#787979"/>
    </g>
    <g id="overlay">
      <path d="M14.846,10.946c-0.681,0.681,-1.673,0.852,-2.443,0.486l-3.754,3.754c-0.398,0.398,-1.019,0.422,-1.388,0.053l0,0c-0.369,-0.369,-0.345,-0.99,0.053,-1.388l3.754,-3.754c-0.367,-0.77,-0.195,-1.763,0.486,-2.443c0.681,-0.681,1.644,-0.823,2.414,-0.457l-1.196,1.196c-0.398,0.398,-0.422,1.019,-0.053,1.388l0,0c0.369,0.369,0.99,0.345,1.388,-0.053l1.196,-1.196C15.67,9.301,15.527,10.265,14.846,10.946z" fill="#92CBEE" stroke="#0964B0" stroke-width="0.9" stroke-miterlimit="10"/>
    </g>
  </g>
</svg>
