<?xml version="1.0" encoding="UTF-8"?>
<!DOCTYPE svg PUBLIC "-//W3C//DTD SVG 1.1//EN" "http://www.w3.org/Graphics/SVG/1.1/DTD/svg11.dtd">
<svg version="1.1" id="Layer_1" xmlns="http://www.w3.org/2000/svg" xmlns:xlink="http://www.w3.org/1999/xlink" x="0px" y="0px" width="16px" height="16px" viewBox="0 0 16 16" enable-background="new 0 0 16 16" xml:space="preserve">
  <g id="main">
    <g id="icon">
      <path d="M0.5,14.5L7.8,14.5L7.8,4.865L7.859,4.663L8.007,4.533L8.2,4.495L8.396,4.572L14.5,9.27L14.5,0.5L0.5,0.5zz" fill="#FFFFFF"/>
      <path d="M0,0.5L0,14.5L0,15L0.5,15L7.8,15L7.8,14L1,14L1,1L14,1L14,8.886L15,9.655L15,0.5L15,0L14.5,0L0.5,0L0,0zz" fill="#383838"/>
      <path d="M3,3L1,3L1,4L3,4L3,7L1,7L1,8L3,8L3,11L1,11L1,12L3,12L3,14L4,14L4,12L7,12L7,14L7.8,14L7.8,4.865L7.859,4.663L8,4.539L8,4L11,4L11,6.576L12.85,8L14,8L14,7L12,7L12,4L14,4L14,3L12,3L12,1L11,1L11,3L8,3L8,1L7,1L7,3L4,3L4,1L3,1zM7,4L7,7L4,7L4,4zM7,8L7,11L4,11L4,8zz" fill="#787979" opacity="0.6"/>
      <path d="M3.5,11.5L7.8,11.5L7.8,4.865L7.859,4.663L8.007,4.533L8.2,4.495L8.396,4.572L11.5,6.961L11.5,3.5L3.5,3.5zz" fill="#92CBEE"/>
      <path d="M3,3.5L3,11.5L3,12L3.5,12L7.8,12L7.8,11L4,11L4,4L11,4L11,6.576L12,7.346L12,3.5L12,3L11.5,3L3.5,3L3,3zz" fill="#0964B0"/>
      <path d="M2,2.5L2,12.5L2,13L2.5,13L7.8,13L7.8,12L3,12L3,3L12,3L12,7.346L13,8.116L13,2.5L13,2L12.5,2L2.5,2L2,2zz" fill="#FFFFFF" opacity="0.5"/>
      <path d="M7,7L4,7L4,8L7,8L7,11L7.8,11L7.8,4.865L7.859,4.663L8,4.539L8,4L7,4zz" fill="#238BCB"/>
    </g>
    <g id="overlay">
      <path d="M9.5,14.367v-6.8l5.382,4.143l-2.259,0.513l1.127,2.522L12.378,15.3l-1.132,-2.503L9.5,14.367z" fill="#FFFFFF" stroke="#383838" stroke-width="1" stroke-miterlimit="10"/>
    </g>
  </g>
</svg>
