<?xml version="1.0" encoding="UTF-8"?>
<!DOCTYPE svg PUBLIC "-//W3C//DTD SVG 1.1//EN" "http://www.w3.org/Graphics/SVG/1.1/DTD/svg11.dtd">
<svg version="1.1" id="Layer_1" xmlns="http://www.w3.org/2000/svg" xmlns:xlink="http://www.w3.org/1999/xlink" x="0px" y="0px" width="16px" height="16px" viewBox="0 0 16 16" enable-background="new 0 0 16 16" xml:space="preserve">
  <g id="main">
    <g id="icon">
      <path d="M0.5,14.5L7.8,14.5L7.8,4.865L7.859,4.663L8.007,4.533L8.2,4.495L8.396,4.572L14.5,9.27L14.5,0.5L0.5,0.5zz" fill="#FFFFFF"/>
      <path d="M0,0.5L0,14.5L0,15L0.5,15L7.8,15L7.8,14L1,14L1,1L14,1L14,8.886L15,9.655L15,0.5L15,0L14.5,0L0.5,0L0,0zz" fill="#383838"/>
      <path d="M4,4L1,4L1,5L4,5L4,9L1,9L1,10L4,10L4,14L5,14L5,10L7.8,10L7.8,9L5,9L5,5L7.8,5L7.8,4.865L7.859,4.663L8.007,4.533L8.2,4.495L8.396,4.572L8.952,5L9,5L9,5.037L10,5.807L10,5L14,5L14,4L10,4L10,1L9,1L9,4L5,4L5,1L4,1zz" fill="#787979" opacity="0.6"/>
      <path d="M0,3.5L0,10.5L0,11L0.5,11L7.8,11L7.8,10L1,10L1,4L14,4L14,8.886L15,9.655L15,3.5L15,3L14.5,3L0.5,3L0,3zz" fill="#FFFFFF" opacity="0.5"/>
      <path d="M0.5,9.5L7.8,9.5L7.8,4.865L7.859,4.663L8.007,4.533L8.176,4.5L0.5,4.5zM8.396,4.572L14.5,9.27L14.5,4.5L8.212,4.5zz" fill="#92CBEE"/>
      <path d="M0,4.5L0,9.5L0,10L0.5,10L7.8,10L7.8,9L1,9L1,5L7.8,5L7.8,4.865L7.859,4.663L8.007,4.533L8.2,4.495L8.396,4.572L8.952,5L14,5L14,8.886L15,9.655L15,9.5L15,4.5L15,4L14.5,4L0.5,4L0,4zz" fill="#0964B0"/>
    </g>
    <g id="overlay">
      <path d="M9.5,14.367v-6.8l5.382,4.143l-2.259,0.513l1.127,2.522L12.378,15.3l-1.132,-2.503L9.5,14.367z" fill="#FFFFFF" stroke="#383838" stroke-width="1" stroke-miterlimit="10"/>
    </g>
  </g>
</svg>
