<?xml version="1.0" encoding="UTF-8"?>
<!DOCTYPE svg PUBLIC "-//W3C//DTD SVG 1.1//EN" "http://www.w3.org/Graphics/SVG/1.1/DTD/svg11.dtd">
<svg version="1.1" id="Layer_1" xmlns="http://www.w3.org/2000/svg" xmlns:xlink="http://www.w3.org/1999/xlink" x="0px" y="0px" width="16px" height="16px" viewBox="0 0 16 16" enable-background="new 0 0 16 16" xml:space="preserve">
  <g id="main">
    <g id="icon">
      <path d="M0.5,9.5L2.5,9.5L2.5,11.5L4.5,11.5L4.5,13.5L6.165,13.5L6.145,13.45L5.956,12.83L5.84,12.18L5.8,11.5L5.829,10.92L5.916,10.35L6.057,9.807L6.249,9.283L6.489,8.785L6.775,8.315L7.103,7.876L7.471,7.471L7.876,7.103L8.315,6.775L8.785,6.489L9.283,6.249L9.807,6.057L10.35,5.916L10.92,5.829L11.5,5.8L12.18,5.84L12.83,5.956L13.45,6.145L14.04,6.401L14.5,6.663L14.5,0.5L0.5,0.5zz" fill="#FFFFFF"/>
      <path d="M0,0.5L0,9.5L0,10L0.5,10L2,10L2,11.5L2,12L2.5,12L4,12L4,13.5L4,14L4.5,14L6.382,14L6.145,13.45L6.008,13L5,13L5,11.5L5,11L4.5,11L3,11L3,9.5L3,9L2.5,9L1,9L1,1L14,1L14,6.382L14.04,6.401L14.6,6.72L15,7.014L15,0.5L15,0L14.5,0L0.5,0L0,0zz" fill="#ED8730"/>
      <path d="M2,5L3,5L3,2L2,2zM4,5L5,5L5,2L4,2zM6,5L7,5L7,2L6,2zM8,5L9,5L9,2L8,2zM10,5L11,5L11,2L10,2zM12,5L13,5L13,2L12,2zz" fill="#787979"/>
    </g>
    <g id="overlay">
      <path d="M11.5,7.5c-2.209,0,-4,1.791,-4,4c0,2.209,1.791,4,4,4s4,-1.791,4,-4C15.5,9.291,13.709,7.5,11.5,7.5zM10.714,14.007l-2.01,-2.01l0.707,-0.707l1.303,1.303l2.932,-2.932l0.707,0.707L10.714,14.007z" fill="#B2DBB4"/>
      <path d="M11.5,7.5c-2.209,0,-4,1.791,-4,4c0,2.209,1.791,4,4,4s4,-1.791,4,-4C15.5,9.291,13.709,7.5,11.5,7.5zM10.714,14.007l-2.01,-2.01l0.707,-0.707l1.303,1.303l2.932,-2.932l0.707,0.707L10.714,14.007z" fill="#009949" opacity="0.2"/>
      <path d="M11.5,16c-2.481,0,-4.5,-2.019,-4.5,-4.5s2.019,-4.5,4.5,-4.5s4.5,2.019,4.5,4.5S13.981,16,11.5,16zM11.5,8c-1.93,0,-3.5,1.57,-3.5,3.5s1.57,3.5,3.5,3.5s3.5,-1.57,3.5,-3.5S13.43,8,11.5,8z" fill="#009949"/>
      <polygon points="10.714,14.007 8.704,11.997 9.411,11.29 10.714,12.593 13.646,9.661 14.353,10.368" fill="#FFFFFF" stroke-linejoin="miter"/>
    </g>
  </g>
</svg>
