<?xml version="1.0" encoding="UTF-8"?>
<!DOCTYPE svg PUBLIC "-//W3C//DTD SVG 1.1//EN" "http://www.w3.org/Graphics/SVG/1.1/DTD/svg11.dtd">
<svg version="1.1" id="Layer_1" xmlns="http://www.w3.org/2000/svg" xmlns:xlink="http://www.w3.org/1999/xlink" x="0px" y="0px" width="16px" height="16px" viewBox="0 0 16 16" enable-background="new 0 0 16 16" xml:space="preserve">
  <g id="main">
    <g id="icon">
      <path d="M8.23,0.05059L7.413,0.0877L7.387,0.08887L7.362,0.09258L6.576,0.2021L6.55,0.2059L6.525,0.2119L5.774,0.391L5.748,0.3973L5.722,0.4061L5.008,0.652L4.983,0.6607L4.958,0.6721L4.284,0.9816L4.259,0.9932L4.235,1.007L3.605,1.377L3.581,1.391L3.558,1.408L2.974,1.836L2.952,1.853L2.931,1.871L2.396,2.354L2.375,2.373L2.356,2.394L1.873,2.929L1.854,2.949L1.837,2.972L1.409,3.556L1.393,3.578L1.378,3.602L1.008,4.232L0.9939,4.256L0.9824,4.281L0.6727,4.954L0.6611,4.979L0.6523,5.005L0.4064,5.718L0.3977,5.743L0.3914,5.77L0.2121,6.52L0.2059,6.546L0.2023,6.572L0.09258,7.357L0.08906,7.382L0.08789,7.408L0.05059,8.224L0.04941,8.249L0.05059,8.274L0.08125,8.94L0.08262,8.966L0.08613,8.992L0.177,9.631L0.1809,9.657L0.1871,9.684L0.3357,10.29L0.3424,10.32L0.3516,10.35L0.5559,10.92L0.5652,10.95L0.5773,10.97L0.835,11.52L0.8473,11.54L0.8621,11.57L1.171,12.07L1.186,12.1L1.204,12.12L1.561,12.59L1.579,12.61L1.599,12.63L2.003,13.06L2.023,13.08L2.045,13.1L2.493,13.49L2.515,13.5L2.538,13.52L3.029,13.86L3.052,13.88L3.077,13.89L3.608,14.18L3.632,14.2L3.657,14.21L4.226,14.45L4.25,14.46L4.275,14.47L4.88,14.67L4.905,14.67L4.93,14.68L5.568,14.82L5.592,14.83L5.617,14.83L6.287,14.92L6.31,14.92L6.334,14.92L7.033,14.95L7.057,14.95L7.081,14.95L7.8,14.92L7.8,13.82L7.056,13.85L6.405,13.82L5.783,13.74L5.193,13.61L4.636,13.43L4.117,13.21L3.634,12.94L3.188,12.63L2.783,12.28L2.417,11.9L2.095,11.48L1.817,11.02L1.583,10.53L1.397,10L1.262,9.448L1.179,8.863L1.151,8.249L1.186,7.484L1.288,6.75L1.455,6.051L1.683,5.389L1.97,4.765L2.313,4.184L2.708,3.645L3.153,3.152L3.646,2.707L4.187,2.311L4.768,1.97L5.392,1.683L6.055,1.455L6.754,1.288L7.487,1.186L8.257,1.15L8.906,1.175L9.519,1.246L10.1,1.364L10.63,1.524L11.13,1.727L11.58,1.968L12,2.249L12.37,2.567L12.7,2.919L13,3.311L13.25,3.738L13.46,4.203L13.63,4.704L13.75,5.242L13.82,5.819L13.85,6.422L13.79,7.31L13.61,8.095L13.46,8.471L14.37,9.169L14.65,8.459L14.66,8.419L14.67,8.377L14.87,7.511L14.88,7.471L14.88,7.43L14.95,6.47L14.95,6.438L14.95,6.407L14.92,5.749L14.92,5.725L14.92,5.701L14.84,5.076L14.83,5.051L14.83,5.026L14.69,4.435L14.69,4.409L14.68,4.383L14.49,3.828L14.49,3.801L14.47,3.775L14.24,3.257L14.23,3.23L14.21,3.205L13.93,2.725L13.91,2.699L13.89,2.675L13.56,2.235L13.55,2.211L13.52,2.188L13.15,1.789L13.13,1.767L13.1,1.747L12.68,1.39L12.66,1.371L12.64,1.354L12.17,1.041L12.15,1.025L12.12,1.011L11.62,0.7422L11.59,0.7291L11.57,0.7186L11.02,0.4961L11,0.4861L10.97,0.4785L10.39,0.3031L10.36,0.2959L10.34,0.291L9.717,0.1641L9.694,0.1594L9.671,0.1568L9.012,0.07969L8.991,0.07715L8.969,0.07637L8.276,0.05039L8.253,0.04961zM8.778,3.511L7.829,3.605L7.775,3.611L7.723,3.626L6.839,3.897L6.788,3.913L6.74,3.938L5.94,4.366L5.894,4.391L5.853,4.424L5.155,4.991L5.114,5.024L5.08,5.064L4.504,5.75L4.47,5.791L4.445,5.838L4.01,6.625L3.983,6.673L3.966,6.725L3.692,7.595L3.675,7.649L3.669,7.705L3.573,8.638L3.568,8.689L3.572,8.741L3.61,9.185L3.615,9.237L3.629,9.287L3.741,9.685L3.756,9.74L3.782,9.79L3.963,10.14L3.99,10.19L4.029,10.24L4.274,10.53L4.313,10.58L4.36,10.62L4.667,10.85L4.712,10.89L4.764,10.91L5.127,11.09L5.175,11.11L5.227,11.12L5.64,11.23L5.687,11.24L5.735,11.25L6.196,11.29L6.255,11.29L6.313,11.28L6.991,11.19L7.058,11.18L7.12,11.16L7.76,10.91L7.8,10.89L7.8,9.582L7.306,9.902L6.779,10.11L6.225,10.18L5.871,10.16L5.556,10.07L5.294,9.947L5.081,9.782L4.912,9.579L4.784,9.333L4.702,9.039L4.672,8.699L4.757,7.872L4.999,7.109L5.381,6.417L5.889,5.811L6.505,5.311L7.212,4.933L7.836,4.742L7.859,4.663L8.007,4.533L8.2,4.495L8.396,4.572L8.49,4.645L8.837,4.61L9.705,4.677L9.579,5.483L10.73,6.367L11.17,4.494L11.28,4.021L10.82,3.852L10.62,3.775L10.59,3.765L10.56,3.759L9.958,3.602L9.911,3.59L9.862,3.586L8.875,3.51L8.826,3.506zM9.979,4.744L9.915,5.013L9.872,4.716zz" fill="#697483"/>
    </g>
    <g id="overlay">
      <path d="M9.5,14.367v-6.8l5.382,4.143l-2.259,0.513l1.127,2.522L12.378,15.3l-1.132,-2.503L9.5,14.367z" fill="#FFFFFF" stroke="#0C4C63" stroke-width="1" stroke-miterlimit="10"/>
    </g>
  </g>
</svg>
