<?xml version="1.0" encoding="UTF-8"?>
<!DOCTYPE svg PUBLIC "-//W3C//DTD SVG 1.1//EN" "http://www.w3.org/Graphics/SVG/1.1/DTD/svg11.dtd">
<svg version="1.1" id="Layer_1" xmlns="http://www.w3.org/2000/svg" xmlns:xlink="http://www.w3.org/1999/xlink" x="0px" y="0px" width="16px" height="16px" viewBox="0 0 16 16" enable-background="new 0 0 16 16" xml:space="preserve">
  <g id="icon">
    <path d="M0,8v-0.132C0,3.4436,3.4788,-0.0222,7.9199,-0.0222c2.3054,0,4.5297,1.0168,6.0801,2.7211V0h2v6.5H9.5V4.5h3.4331c-1.1683,-1.5386,-3.0455,-2.4972,-4.9879,-2.4972C4.6114,2.0028,2,4.5793,2,7.8685V8H0zM13.9027,8c-0.0187,3.2884,-2.5744,5.8591,-5.8347,5.8591c-1.9016,0,-3.6091,-0.8028,-4.7745,-2.3591H6.6V9.5H0v6.5h2v-2.9405c1.543,1.7168,3.7989,2.873,6.068,2.873c2.1105,0,4.1775,-0.9194,5.6388,-2.4074c1.4424,-1.4687,2.2397,-3.4297,2.2488,-5.5252H13.9027z" fill="#6485C3"/>
  </g>
</svg>
