<?xml version="1.0" encoding="UTF-8"?>
<!DOCTYPE svg PUBLIC "-//W3C//DTD SVG 1.1//EN" "http://www.w3.org/Graphics/SVG/1.1/DTD/svg11.dtd">
<svg version="1.1" id="Layer_1" xmlns="http://www.w3.org/2000/svg" xmlns:xlink="http://www.w3.org/1999/xlink" x="0px" y="0px" width="16px" height="16px" viewBox="0 0 16 16" enable-background="new 0 0 16 16" xml:space="preserve">
  <g id="icon">
    <path d="M13.7806,8.2987c0,3.159,-2.5826,5.729,-5.7571,5.729s-5.7571,-2.57,-5.7571,-5.729s2.5826,-5.729,5.7571,-5.729S13.7806,5.1397,13.7806,8.2987z" fill="#FFFFFF" opacity="0.4"/>
    <path d="M8.0154,15.1597c-3.8025,0,-6.8961,-3.082,-6.8961,-6.8704s3.0936,-6.8704,6.8961,-6.8704s6.8961,3.082,6.8961,6.8704S11.8179,15.1597,8.0154,15.1597zM8.0154,2.557c-3.176,0,-5.7598,2.5715,-5.7598,5.7322c0,3.1608,2.5838,5.7323,5.7598,5.7323s5.7598,-2.5715,5.7598,-5.7323C13.7752,5.1285,11.1914,2.557,8.0154,2.557z" fill="#6D6E71"/>
    <path d="M0.7675,5.2c0.8718,-1.962,2.4896,-3.4796,4.4543,-4.1827C4.7098,0.4351,3.9872,0.052,3.1694,0.0049C1.5124,-0.0905,0.0954,1.2268,0.0046,2.9472C-0.0408,3.8075,0.2542,4.6052,0.7675,5.2zM15.9954,2.9472c-0.0909,-1.7204,-1.5078,-3.0378,-3.1648,-2.9424c-0.8178,0.0471,-1.5404,0.4302,-2.0523,1.0125c1.9646,0.703,3.5824,2.2207,4.4543,4.1827C15.7458,4.6052,16.0408,3.8075,15.9954,2.9472z" fill="#EEAC55"/>
    <polygon points="7,8.8039 7,4 8.1,4 8.1,8.3329 10.5663,10.8572 9.7906,11.6602" fill="#CB525D" stroke-linejoin="miter"/>
    <path d="M4.6437,13.4527c0.5396,0.3503,0.6367,1.1599,0.217,1.8083s-1.1974,0.8901,-1.737,0.5398s-0.6367,-1.1599,-0.217,-1.8083S4.1041,13.1024,4.6437,13.4527zM13.5099,13.9925c0.4197,0.6484,0.3226,1.458,-0.217,1.8083c-0.5396,0.3503,-1.3173,0.1086,-1.737,-0.5398c-0.4197,-0.6484,-0.3226,-1.458,0.217,-1.8083S13.0902,13.3441,13.5099,13.9925z" fill="#6D6E71"/>
  </g>
</svg>
