<?xml version="1.0" encoding="UTF-8"?>
<!DOCTYPE svg PUBLIC "-//W3C//DTD SVG 1.1//EN" "http://www.w3.org/Graphics/SVG/1.1/DTD/svg11.dtd">
<svg version="1.1" id="Layer_1" xmlns="http://www.w3.org/2000/svg" xmlns:xlink="http://www.w3.org/1999/xlink" x="0px" y="0px" width="16px" height="16px" viewBox="0 0 16 16" enable-background="new 0 0 16 16" xml:space="preserve">
  <g id="icon">
    <path d="M12.7924,15.4069c-0.7108,-0.0371,-1.3659,-0.2076,-1.9985,-0.4718c-1.0453,-0.4365,-1.995,-1.0422,-2.8944,-1.731c-1.2689,-0.9717,-2.4348,-2.0617,-3.531,-3.2303c-0.9827,-1.0476,-1.8964,-2.152,-2.6439,-3.3883c-0.4952,-0.819,-0.9051,-1.6813,-1.0771,-2.6359c-0.0514,-0.2855,-0.0804,-0.5961,-0.0229,-0.8743c0.0481,-0.2329,0.2156,-0.4529,0.368,-0.6481c0.4859,-0.6221,1.0711,-1.1419,1.697,-1.6122c0.3116,-0.2342,0.6691,-0.2869,1.0316,-0.1375c0.1276,0.0526,0.2592,0.1508,0.337,0.2648c0.6607,0.9684,1.3051,1.9484,1.964,2.9181c0.2516,0.3702,0.1993,0.7414,0.0283,1.1045c-0.2094,0.4445,-0.4407,0.8791,-0.6822,1.3064c-0.0862,0.1525,-0.0723,0.2539,0.0355,0.373c0.633,0.6993,1.2403,1.4247,1.9023,2.0941c0.5672,0.5735,1.1913,1.0893,1.7994,1.6197c0.4263,0.3718,0.434,0.3652,0.9197,0.0853c0.2953,-0.1701,0.5836,-0.3531,0.882,-0.5171c0.2979,-0.1637,0.611,-0.2792,0.958,-0.1743c0.0744,0.0225,0.1481,0.0568,0.2136,0.0992c0.9419,0.6101,1.8728,1.2384,2.8265,1.8286c0.5959,0.3688,0.6224,1.0048,0.2817,1.4973c-0.4747,0.6861,-0.9901,1.3425,-1.6407,1.8713C13.3174,15.2345,13.075,15.3965,12.7924,15.4069z" fill="#FFFFFF" opacity="0.5"/>
    <path d="M12.7878,16l-0.0263,-0.0014c-0.737,-0.0384,-1.4553,-0.2075,-2.196,-0.5168c-0.9863,-0.4119,-1.9762,-1.0031,-3.0263,-1.8073c-1.2224,-0.9361,-2.4009,-2.0141,-3.6028,-3.2953c-1.1716,-1.249,-2.0355,-2.3571,-2.7188,-3.4871C0.5937,5.8604,0.2272,4.9587,0.0643,4.0547c-0.0786,-0.436,-0.085,-0.7853,-0.0201,-1.0993c0.0777,-0.376,0.311,-0.6747,0.4813,-0.8928C0.9932,1.4638,1.5677,0.9169,2.3336,0.3414c0.4858,-0.365,1.0588,-0.4402,1.6133,-0.2117c0.2424,0.0999,0.4613,0.2743,0.6008,0.4786c0.3505,0.5138,0.7015,1.0383,1.0408,1.5455c0.3068,0.4586,0.6137,0.9172,0.9238,1.3736c0.3411,0.5019,0.3661,1.0705,0.0743,1.6901c-0.1732,0.3676,-0.3731,0.7547,-0.6089,1.1787c0.1577,0.1759,0.3138,0.3528,0.47,0.5297c0.4132,0.4679,0.8404,0.9518,1.2798,1.396c0.4315,0.4363,0.9138,0.8523,1.3802,1.2546c0.1294,0.1116,0.2587,0.2231,0.3874,0.3353c0.0299,0.0261,0.0691,0.0602,0.1061,0.0917c0.039,-0.0219,0.0821,-0.0467,0.123,-0.0703c0.1219,-0.0702,0.2374,-0.1395,0.3529,-0.2087c0.1757,-0.1054,0.3575,-0.2143,0.5448,-0.3172c0.3275,-0.1802,0.8308,-0.399,1.415,-0.2222c0.1268,0.0383,0.2527,0.0969,0.3643,0.1692c0.3061,0.1983,0.6112,0.3985,0.9163,0.5988c0.6203,0.4072,1.2618,0.8283,1.8997,1.2231c0.4025,0.2491,0.662,0.605,0.7504,1.0291c0.0915,0.4386,-0.0127,0.9035,-0.2933,1.3091c-0.4182,0.6044,-0.9956,1.3773,-1.7543,1.994c-0.2868,0.2331,-0.6424,0.4737,-1.1059,0.4908L12.7878,16zM3.3165,1.1865c-0.0921,0,-0.1798,0.0337,-0.271,0.1022c-0.6803,0.5112,-1.1843,0.9889,-1.586,1.5033c-0.0871,0.1116,-0.2331,0.2985,-0.2547,0.4032c-0.0328,0.1587,-0.0244,0.3711,0.0258,0.6493c0.1364,0.757,0.4545,1.5306,1.001,2.4344c0.6393,1.0573,1.4556,2.1025,2.569,3.2895c1.1572,1.2335,2.2886,2.2689,3.4591,3.1652c0.968,0.7414,1.8716,1.2826,2.7624,1.6546c0.6011,0.251,1.1793,0.3902,1.7663,0.425c0.1133,-0.0148,0.2637,-0.1268,0.384,-0.2246c0.6389,-0.5193,1.1305,-1.1754,1.5272,-1.7487c0.0926,-0.1339,0.1319,-0.2771,0.1078,-0.3928c-0.0208,-0.0998,-0.0928,-0.1884,-0.214,-0.2634c-0.6514,-0.4031,-1.2996,-0.8286,-1.9264,-1.2401c-0.3031,-0.199,-0.6062,-0.3979,-0.9104,-0.595c-0.019,-0.0123,-0.042,-0.023,-0.0631,-0.0294c-0.1047,-0.0316,-0.2301,-0.0223,-0.5008,0.1264c-0.1678,0.0922,-0.3322,0.1908,-0.5062,0.2951c-0.1214,0.0728,-0.2428,0.1455,-0.3654,0.2162c-0.7094,0.4089,-0.9935,0.3813,-1.6051,-0.1521c-0.1269,-0.1108,-0.2546,-0.2208,-0.3823,-0.331c-0.484,-0.4174,-0.9844,-0.849,-1.4489,-1.3187c-0.4629,-0.468,-0.9015,-0.9646,-1.3256,-1.445c-0.1974,-0.2235,-0.3948,-0.4471,-0.5948,-0.6681c-0.2828,-0.3125,-0.3226,-0.6896,-0.1122,-1.0621c0.2625,-0.4645,0.4791,-0.879,0.6621,-1.2675c0.14,-0.2973,0.0882,-0.4152,0.0177,-0.519c-0.3117,-0.4587,-0.6202,-0.9197,-0.9286,-1.3807c-0.3379,-0.505,-0.6873,-1.0272,-1.0348,-1.5365c-0.009,-0.0116,-0.0429,-0.0384,-0.0733,-0.0509C3.4328,1.1995,3.3738,1.1865,3.3165,1.1865z" fill="#6485C3"/>
  </g>
</svg>
