<?xml version="1.0" encoding="UTF-8"?>
<!DOCTYPE svg PUBLIC "-//W3C//DTD SVG 1.1//EN" "http://www.w3.org/Graphics/SVG/1.1/DTD/svg11.dtd">
<svg version="1.1" id="Layer_1" xmlns="http://www.w3.org/2000/svg" xmlns:xlink="http://www.w3.org/1999/xlink" x="0px" y="0px" width="16px" height="16px" viewBox="0 0 16 16" enable-background="new 0 0 16 16" xml:space="preserve">
  <g id="main">
    <g id="icon">
      <path d="M2.5,5.882L2.67,5.857L4.038,5.8L5.55,5.873L6.739,6.075L7.645,6.377L8.303,6.754L8.751,7.176L9.025,7.618L9.162,8.052L9.2,8.449L9.2,9.5L15.5,9.5L15.5,2.5L2.5,2.5zz" fill="#FFFFFF" opacity="0.5"/>
      <path d="M2,5.953L2.67,5.857L3,5.843L3,3L15,3L15,9L9.2,9L9.2,10L16,10L16,2L2,2zz" fill="#6D6E71"/>
      <path d="M11.19,4.414L12.86,5.99L11.2,7.477L11.87,8.223L14.34,6.01L11.88,3.686zM3.91,5.805L4.038,5.8L5.279,5.86L6.755,4.406L6.053,3.694zz" fill="#6485C3"/>
    </g>
    <g id="overlay">
      <path d="M6.9685,9.8645c-0.7993,0.2449,-1.8536,0.3798,-2.9685,0.3798s-2.1691,-0.1349,-2.9685,-0.3798C0.55,9.7169,0.2213,9.549,0,9.3783v4.8365c0,0.5344,0.4721,1.0097,1.3294,1.3383c0.7517,0.2881,1.584,0.4468,2.6495,0.4468s1.94,-0.1587,2.6916,-0.4468C7.5279,15.2245,8,14.7492,8,14.2149V9.3783C7.7787,9.549,7.45,9.7169,6.9685,9.8645z" fill="#EEAC55"/>
      <ellipse cx="4" cy="8.2256" rx="4" ry="1.2256" fill="#EEAC55"/>
    </g>
  </g>
</svg>
