<?xml version="1.0" encoding="UTF-8"?>
<!DOCTYPE svg PUBLIC "-//W3C//DTD SVG 1.1//EN" "http://www.w3.org/Graphics/SVG/1.1/DTD/svg11.dtd">
<svg version="1.1" id="Layer_1" xmlns="http://www.w3.org/2000/svg" xmlns:xlink="http://www.w3.org/1999/xlink" x="0px" y="0px" width="16px" height="16px" viewBox="0 0 16 16" enable-background="new 0 0 16 16" xml:space="preserve">
  <g id="main">
    <g id="icon">
      <path d="M10.48,3.316L8.982,4.171L8.817,4.337L8.762,4.55L8.817,4.763L8.982,4.929L10.48,5.784L8.568,9.057L7.053,8.191L6.828,8.133L6.617,8.193L6.461,8.346L6.426,8.474L6.486,8.613L6.788,9.126L7.129,9.588L7.121,9.854L7.029,10.08L6.838,10.27L6.53,10.43L4.468,11.16L3.753,11.44L3.21,11.72L2.809,12.02L2.522,12.38L2.319,12.84L2.171,13.43L2.112,13.9L2.105,14.3L2.17,14.71L2.327,15.22L2.433,15.38L2.626,15.51L3.233,15.72L4.072,15.86L5.065,15.94L7.202,16L9.024,15.99L10.85,16L13.01,15.94L14.01,15.86L14.86,15.72L15.47,15.51L15.67,15.38L15.77,15.23L15.93,14.71L16,14.3L15.99,13.9L15.93,13.43L15.78,12.84L15.58,12.38L15.29,12.02L14.89,11.72L14.35,11.44L13.63,11.16L11.57,10.43L11.26,10.27L11.07,10.08L10.98,9.858L10.97,9.591L11.31,9.13L11.62,8.616L12.1,7.495L12.4,6.345L12.51,5.286L12.47,4.567L12.36,3.924L12.14,3.362L11.81,2.888L11.36,2.509L10.75,2.23L9.977,2.059L9.735,2.044zz" fill="#6485C3"/>
    </g>
    <g id="overlay">
      <polygon points="3.8,9 3.8,5.7501 0.8689,7.425 0.1689,6.225 3.1,4.55 0.1689,2.875 0.8689,1.675 3.8,3.3499 3.8,0 5.2,0 5.2,3.3499 8.1311,1.675 8.8311,2.875 5.9,4.55 8.8311,6.225 8.1311,7.425 5.2,5.7501 5.2,9" fill="#EEAC55" stroke-linejoin="miter"/>
    </g>
  </g>
</svg>
