<?xml version="1.0" encoding="UTF-8"?>
<!DOCTYPE svg PUBLIC "-//W3C//DTD SVG 1.1//EN" "http://www.w3.org/Graphics/SVG/1.1/DTD/svg11.dtd">
<svg version="1.1" id="Layer_1" xmlns="http://www.w3.org/2000/svg" xmlns:xlink="http://www.w3.org/1999/xlink" x="0px" y="0px" width="16px" height="16px" viewBox="0 0 16 16" enable-background="new 0 0 16 16" xml:space="preserve">
  <g id="main">
    <g id="icon">
      <path d="M2.5,5.882L2.67,5.857L4.038,5.8L5.55,5.873L6.739,6.075L7.645,6.377L8.303,6.754L8.751,7.176L9.025,7.618L9.162,8.052L9.2,8.449L9.2,10.5L15.5,10.5L15.5,1.5L2.5,1.5zz" fill="#FFFFFF" opacity="0.5"/>
      <path d="M2,5.953L2.67,5.857L3,5.843L3,2L15,2L15,10L9.2,10L9.2,11L16,11L16,1L2,1zz" fill="#6D6E71"/>
      <path d="M8.5,6.939L8.751,7.176L9.025,7.618L9.162,8.052L9.2,8.449L9.2,10.5L15.5,10.5L15.5,1.5L8.5,1.5zz" fill="#FFFFFF" opacity="0.5"/>
      <path d="M8,6.58L8.303,6.754L8.751,7.176L9,7.578L9,2L15,2L15,10L9.2,10L9.2,11L16,11L16,1L8,1zz" fill="#6485C3"/>
      <path d="M9.586,4.977L12.02,7.414L14.44,4.999L13.66,4.221L12.02,5.859L10.36,4.199zz" fill="#6485C3"/>
      <path d="M3.578,3.078L3.5,3.267L3.5,3.733L3.578,3.922L3.767,4L4.267,4L4.552,4.058L4.785,4.215L4.942,4.448L5,4.733L5,5.847L5.55,5.873L6,5.95L6,4.733L6.058,4.448L6.215,4.215L6.448,4.058L6.733,4L7.233,4L7.422,3.922L7.5,3.733L7.5,3.267L7.422,3.078L7.233,3L6.733,3L6.381,3.036L6.054,3.139L5.757,3.301L5.5,3.516L5.243,3.301L4.946,3.139L4.619,3.036L4.267,3L3.767,3zz" fill="#6D6E71"/>
    </g>
    <g id="overlay">
      <path d="M6.9685,9.8645c-0.7993,0.2449,-1.8536,0.3798,-2.9685,0.3798s-2.1691,-0.1349,-2.9685,-0.3798C0.55,9.7169,0.2213,9.549,0,9.3783v4.8365c0,0.5344,0.4721,1.0097,1.3294,1.3383c0.7517,0.2881,1.584,0.4468,2.6495,0.4468s1.94,-0.1587,2.6916,-0.4468C7.5279,15.2245,8,14.7492,8,14.2149V9.3783C7.7787,9.549,7.45,9.7169,6.9685,9.8645z" fill="#EEAC55"/>
      <ellipse cx="4" cy="8.2256" rx="4" ry="1.2256" fill="#EEAC55"/>
    </g>
  </g>
</svg>
