<?xml version="1.0" encoding="UTF-8"?>
<!DOCTYPE svg PUBLIC "-//W3C//DTD SVG 1.1//EN" "http://www.w3.org/Graphics/SVG/1.1/DTD/svg11.dtd">
<svg version="1.1" id="Layer_1" xmlns="http://www.w3.org/2000/svg" xmlns:xlink="http://www.w3.org/1999/xlink" x="0px" y="0px" width="16px" height="16px" viewBox="0 0 16 16" enable-background="new 0 0 16 16" xml:space="preserve">
  <g id="main">
    <g id="icon">
      <path d="M6.329,0.4713L5.677,0.5709L5.048,0.7326L4.446,0.9531L3.872,1.229L3.331,1.558L2.826,1.936L2.36,2.36L1.936,2.826L1.558,3.331L1.229,3.872L0.9531,4.446L0.7326,5.048L0.5709,5.677L0.4713,6.329L0.4375,7L0.4713,7.671L0.5709,8.323L0.7326,8.952L0.9531,9.554L1.229,10.13L1.558,10.67L1.936,11.17L2.36,11.64L2.826,12.06L3.331,12.44L3.872,12.77L4.446,13.05L5.048,13.27L5.677,13.43L6.329,13.53L6.8,13.55L6.8,7.8L13.51,7.8L13.53,7.671L13.56,7L13.53,6.329L13.43,5.677L13.27,5.048L13.05,4.446L12.77,3.872L12.44,3.331L12.06,2.826L11.64,2.36L11.17,1.936L10.67,1.558L10.13,1.229L9.554,0.9531L8.952,0.7326L8.323,0.5709L7.671,0.4713L7,0.4375zz" fill="#FFFFFF" opacity="0.5"/>
      <path d="M6.285,0.03613L5.591,0.1424L4.921,0.3152L4.278,0.551L3.666,0.8461L3.089,1.197L2.55,1.6L2.053,2.053L1.6,2.55L1.197,3.089L0.8461,3.666L0.551,4.278L0.3152,4.921L0.1424,5.591L0.03613,6.285L0,7L0.03613,7.715L0.1424,8.409L0.3152,9.079L0.551,9.722L0.8461,10.33L1.197,10.91L1.6,11.45L2.053,11.95L2.55,12.4L3.089,12.8L3.666,13.15L4.278,13.45L4.921,13.68L5.591,13.86L6.285,13.96L6.8,13.99L6.8,13.03L6.383,13.01L5.784,12.92L5.205,12.77L4.65,12.57L4.122,12.31L3.623,12.01L3.158,11.66L2.729,11.27L2.338,10.84L1.99,10.38L1.687,9.878L1.432,9.35L1.229,8.795L1.079,8.216L0.9877,7.617L0.9564,7L0.9877,6.383L1.079,5.784L1.229,5.205L1.432,4.65L1.687,4.122L1.99,3.623L2.338,3.158L2.729,2.729L3.158,2.338L3.623,1.99L4.122,1.687L4.65,1.432L5.205,1.229L5.784,1.079L6.383,0.9877L7,0.9564L7.617,0.9877L8.216,1.079L8.795,1.229L9.35,1.432L9.878,1.687L10.38,1.99L10.84,2.338L11.27,2.729L11.66,3.158L12.01,3.623L12.31,4.122L12.57,4.65L12.77,5.205L12.92,5.784L13.01,6.383L13.04,7L13.01,7.617L12.98,7.8L13.95,7.8L13.96,7.715L14,7L13.96,6.285L13.86,5.591L13.68,4.921L13.45,4.278L13.15,3.666L12.8,3.089L12.4,2.55L11.95,2.053L11.45,1.6L10.91,1.197L10.33,0.8461L9.722,0.551L9.079,0.3152L8.409,0.1424L7.715,0.03613L7,0zz" fill="#6D6E71"/>
      <path d="M6.296,3.571L5.639,3.775L5.045,4.099L4.526,4.526L4.099,5.045L3.775,5.639L3.571,6.296L3.5,7L3.571,7.704L3.775,8.361L4.099,8.955L4.526,9.474L5.045,9.901L5.639,10.22L6.296,10.43L6.8,10.48L6.8,7.8L10.4,7.8L10.43,7.704L10.5,7L10.43,6.296L10.22,5.639L9.901,5.045L9.474,4.526L8.955,4.099L8.361,3.775L7.704,3.571L7,3.5zz" fill="#6485C3"/>
    </g>
    <g id="overlay">
      <polygon points="8.5,14 8.5,15.5 15.5,15.5 15.5,14 15.5,9.5 8.5,9.5" fill="#FFFFFF" stroke-linejoin="miter" opacity="0.5"/>
      <path d="M14,13.5h-2v1h2V13.5zM14,10.5h-2v1h2V10.5z" fill="#9070B1"/>
      <path d="M8,9v4v2v1l0,0h8l0,0v-1v-2V9H8zM15,15H9v-2h6V15zM15,12H9v-2h6V12z" fill="#9070B1"/>
    </g>
  </g>
</svg>
