<?xml version="1.0" encoding="UTF-8"?>
<!DOCTYPE svg PUBLIC "-//W3C//DTD SVG 1.1//EN" "http://www.w3.org/Graphics/SVG/1.1/DTD/svg11.dtd">
<svg version="1.1" id="Layer_1" xmlns="http://www.w3.org/2000/svg" xmlns:xlink="http://www.w3.org/1999/xlink" x="0px" y="0px" width="16px" height="16px" viewBox="0 0 16 16" enable-background="new 0 0 16 16" xml:space="preserve">
  <g id="icon">
    <circle cx="8" cy="8" r="7.5" fill="#FFFFFF"/>
    <circle cx="8" cy="8" r="7.5" fill="#EEAD56" opacity="0.2"/>
    <path d="M8,16c-4.4112,0,-8,-3.5888,-8,-8S3.5888,0,8,0s8,3.5888,8,8S12.4112,16,8,16zM8,1.0932c-3.8084,0,-6.9068,3.0984,-6.9068,6.9068S4.1916,14.9068,8,14.9068S14.9068,11.8084,14.9068,8S11.8084,1.0932,8,1.0932z" fill="#EEAD56"/>
    <path d="M8,11.9497c-1.2082,0,-2.3999,-0.3121,-3.4462,-0.9025c-0.2405,-0.1357,-0.3254,-0.4407,-0.1897,-0.6812c0.1357,-0.2405,0.4409,-0.3255,0.6812,-0.1897c0.8967,0.506,1.9185,0.7734,2.9548,0.7734c1.0363,0,2.0581,-0.2674,2.9548,-0.7734c0.2404,-0.1356,0.5454,-0.0507,0.6812,0.1897c0.1357,0.2405,0.0508,0.5455,-0.1897,0.6812C10.3999,11.6376,9.2082,11.9497,8,11.9497zM6.0435,6.0695c0,-0.5397,-0.4385,-0.9783,-0.9783,-0.9783c-0.5398,0,-0.9783,0.4385,-0.9783,0.9783c0,0.5402,0.4385,0.9783,0.9783,0.9783C5.6049,7.0478,6.0435,6.6098,6.0435,6.0695M11.913,6.0695c0,-0.5397,-0.4385,-0.9783,-0.9783,-0.9783c-0.5398,0,-0.9783,0.4385,-0.9783,0.9783c0,0.5402,0.4385,0.9783,0.9783,0.9783C11.4745,7.0478,11.913,6.6098,11.913,6.0695" fill="#6D6E71"/>
  </g>
</svg>
