<?xml version="1.0" encoding="UTF-8"?>
<!DOCTYPE svg PUBLIC "-//W3C//DTD SVG 1.1//EN" "http://www.w3.org/Graphics/SVG/1.1/DTD/svg11.dtd">
<svg version="1.1" id="Layer_1" xmlns="http://www.w3.org/2000/svg" xmlns:xlink="http://www.w3.org/1999/xlink" x="0px" y="0px" width="16px" height="16px" viewBox="0 0 16 16" enable-background="new 0 0 16 16" xml:space="preserve">
  <g id="main">
    <g id="icon">
      <path d="M0,14L6.382,14L6.145,13.45L6.008,13L1,13L1,1L7,1L7,5.012L11,5L11,5.825L11.5,5.8L12,5.829L12,4.65L7.362,0L0,0zz" fill="#6D6E71"/>
      <path d="M1,13L6.008,13L5.956,12.83L5.84,12.18L5.8,11.5L5.829,10.92L5.916,10.35L6.057,9.807L6.249,9.283L6.489,8.785L6.775,8.315L7.103,7.876L7.471,7.471L7.876,7.103L8.315,6.775L8.785,6.489L9.283,6.249L9.807,6.057L10.35,5.916L10.92,5.829L11,5.825L11,5L7,5.012L7,1L1,1zz" fill="#FFFFFF" opacity="0.5"/>
    </g>
    <g id="overlay">
      <path d="M11.5,7c-2.4853,0,-4.5,2.0147,-4.5,4.5s2.0147,4.5,4.5,4.5c2.4853,0,4.5,-2.0147,4.5,-4.5S13.9853,7,11.5,7zM13.7931,12.2652L12.2,10.7114V14.6h-1.4v-3.8886l-1.5931,1.5538l-0.9837,-0.9262L11.5,8.1228l3.2767,3.2161L13.7931,12.2652z" fill="#CB525D"/>
      <polygon points="8.2233,11.3389 9.2069,12.2652 10.8,10.7114 10.8,14.6 12.2,14.6 12.2,10.7114 13.7931,12.2652 14.7767,11.3389 11.5,8.1228" fill="#FFFFFF" stroke-linejoin="miter"/>
    </g>
  </g>
</svg>
