<?xml version="1.0" encoding="UTF-8"?>
<!DOCTYPE svg PUBLIC "-//W3C//DTD SVG 1.1//EN" "http://www.w3.org/Graphics/SVG/1.1/DTD/svg11.dtd">
<svg version="1.1" id="Layer_1" xmlns="http://www.w3.org/2000/svg" xmlns:xlink="http://www.w3.org/1999/xlink" x="0px" y="0px" width="16px" height="16px" viewBox="0 0 16 16" enable-background="new 0 0 16 16" xml:space="preserve">
  <g id="main">
    <g id="icon">
      <path d="M8.377,0.6879L8.046,0.8873L7.858,0.966L7.435,1.02L7.1,1.193L6.844,1.461L6.66,1.799L6.518,2.25L6.455,2.717L6.938,2.859L7.41,3.068L7.854,3.356L8.255,3.732L8.595,4.209L8.859,4.797L9.029,5.507L9.088,6.343L9.283,6.249L9.807,6.057L10.35,5.916L10.92,5.829L11.5,5.8L11.57,5.804L11.62,5.707L11.55,5.567L11.35,5.384L11.22,5.164L11.07,4.656L11.01,4.084L10.98,3.506L10.94,2.683L10.77,1.877L10.62,1.538L10.42,1.256L10.18,1.027L9.912,0.8498L9.33,0.6377L8.747,0.599zz" fill="#FFFFFF" opacity="0.5"/>
      <path d="M8.707,0.007031L8.236,0.1096L7.802,0.3428L7.759,0.3738L7.705,0.3766L7.209,0.474L6.78,0.7062L6.427,1.066L6.161,1.547L5.995,2.074L5.917,2.622L6.45,2.716L6.99,2.879L6.991,2.775L7.038,2.355L7.16,1.954L7.309,1.688L7.474,1.536L7.644,1.467L7.806,1.451L7.863,1.452L8.181,1.38L8.387,1.252L8.582,1.132L8.787,1.081L8.888,1.078L9.135,1.098L9.528,1.21L9.74,1.322L9.943,1.486L10.12,1.708L10.26,2L10.41,2.734L10.44,3.476L10.46,4.05L10.54,4.712L10.6,5.011L10.72,5.352L10.82,5.558L10.59,5.604L10.05,5.689L9.774,5.796L9.587,6.024L9.566,6.145L9.807,6.057L10.35,5.916L10.92,5.829L11.5,5.8L12.12,5.837L12.16,5.675L12.08,5.349L11.86,5.097L11.7,4.898L11.6,4.536L11.54,3.967L11.52,3.46L11.48,2.578L11.4,2.121L11.28,1.658L11.09,1.235L10.85,0.8824L10.57,0.5955L10.25,0.3699L9.914,0.202L9.569,0.08691L8.9,0zz" fill="#9070B1"/>
      <path d="M4.522,4.21L4.01,4.324L3.61,4.509L3.309,4.761L3.097,5.075L2.96,5.447L2.887,5.874L2.865,6.351L2.91,7.008L3.053,7.669L3.305,8.306L3.677,8.892L3.767,9.141L3.703,9.4L3.503,9.639L3.188,9.823L2.469,10.16L1.892,10.56L1.442,10.99L1.105,11.43L0.8635,11.88L0.7029,12.32L0.5621,13.07L0.5426,13.31L0.5811,13.41L0.6881,13.46L6.148,13.46L6.145,13.45L5.956,12.83L5.84,12.18L5.8,11.5L5.829,10.92L5.916,10.35L6.057,9.807L6.249,9.283L6.489,8.785L6.775,8.315L7.103,7.876L7.314,7.644L7.453,7.008L7.498,6.351L7.476,5.874L7.403,5.447L7.265,5.075L7.052,4.761L6.75,4.509L6.349,4.324L5.834,4.21L5.195,4.171L5.159,4.171zz" fill="#FFFFFF" opacity="0.5"/>
      <path d="M4.307,3.699L3.644,3.891L3.145,4.183L2.788,4.552L2.551,4.977L2.409,5.433L2.341,5.898L2.324,6.351L2.382,7.138L2.552,7.882L2.83,8.566L3.208,9.172L2.99,9.32L2.177,9.707L1.526,10.15L1.018,10.64L0.6369,11.15L0.3641,11.67L0.1824,12.16L0.07441,12.62L0.02246,13.02L0.00293,13.27L0.03789,13.54L0.1799,13.78L0.4102,13.94L0.6881,14L0.6881,14L6.382,14L6.145,13.45L5.983,12.92L1.124,12.92L1.282,12.3L1.436,11.95L1.654,11.6L1.947,11.25L2.326,10.91L2.802,10.6L3.385,10.33L3.39,10.33L3.7,10.16L3.957,9.955L4.15,9.707L4.271,9.431L4.308,9.203L4.293,8.979L4.226,8.765L4.109,8.566L4.102,8.557L3.804,8.093L3.586,7.561L3.452,6.976L3.406,6.351L3.469,5.617L3.565,5.335L3.72,5.107L3.945,4.932L4.252,4.809L4.653,4.736L5.159,4.712L5.195,4.712L5.704,4.736L6.106,4.809L6.415,4.932L6.641,5.107L6.796,5.335L6.893,5.617L6.956,6.351L6.911,6.976L6.776,7.561L6.557,8.093L6.258,8.557L6.251,8.567L6.133,8.765L6.066,8.979L6.051,9.202L6.089,9.43L6.146,9.562L6.249,9.283L6.489,8.785L6.775,8.315L7.103,7.876L7.471,7.471L7.876,7.103L7.99,7.018L8.039,6.351L8.021,5.898L7.953,5.433L7.811,4.977L7.573,4.552L7.215,4.183L6.715,3.891L6.049,3.699L5.195,3.63L5.159,3.63zz" fill="#6485C3"/>
    </g>
    <g id="overlay">
      <path d="M11.5,7c-2.4853,0,-4.5,2.0147,-4.5,4.5c0,2.4853,2.0147,4.5,4.5,4.5s4.5,-2.0147,4.5,-4.5C16,9.0147,13.9853,7,11.5,7zM12.2,15h-1.4v-1h1.4V15zM12.2,13h-1.4V8.5h1.4V13z" fill="#CB525D"/>
      <path d="M12.2,13h-1.4V8.5h1.4V13zM12.2,14h-1.4v1h1.4V14z" fill="#FFFFFF"/>
    </g>
  </g>
</svg>
