<?xml version="1.0" encoding="UTF-8"?>
<!DOCTYPE svg PUBLIC "-//W3C//DTD SVG 1.1//EN" "http://www.w3.org/Graphics/SVG/1.1/DTD/svg11.dtd">
<svg version="1.1" id="Layer_1" xmlns="http://www.w3.org/2000/svg" xmlns:xlink="http://www.w3.org/1999/xlink" x="0px" y="0px" width="16px" height="16px" viewBox="0 0 16 16" enable-background="new 0 0 16 16" xml:space="preserve">
  <g id="main">
    <g id="icon">
      <path d="M4.5,3L10,3L10,6.007L10.35,5.916L10.92,5.829L11.5,5.8L12.18,5.84L12.83,5.956L13.45,6.145L13.5,6.166L13.5,0.5L4.5,0.5zz" fill="#FFFFFF" opacity="0.3"/>
      <path d="M4,3L5,3L5,1L13,1L13,6.008L13.45,6.145L14,6.382L14,0L4,0zz" fill="#6D6E71"/>
      <path d="M0.5,11.5L2.5,11.5L2.5,13.15L5.802,11.54L5.8,11.5L5.829,10.92L5.916,10.35L6.057,9.807L6.249,9.283L6.489,8.785L6.775,8.315L7.103,7.876L7.471,7.471L7.876,7.103L8.315,6.775L8.5,6.662L8.5,4.5L0.5,4.5zz" fill="#FFFFFF" opacity="0.3"/>
      <path d="M0,12L2,12L2,13.95L5.834,12.08L5.8,11.5L5.825,11L5.766,11L3,12.35L3,11L1,11L1,5L8,5L8,7.011L8.315,6.775L8.785,6.489L9,6.385L9,4L0,4zz" fill="#6D6E71"/>
      <path d="M2,7L7,7L7,6L2,6zM2,9L6.385,9L6.489,8.785L6.775,8.315L7,8.014L7,8L2,8zz" fill="#6485C3"/>
    </g>
    <g id="overlay">
      <path d="M11.5,7c-2.4853,0,-4.5,2.0147,-4.5,4.5s2.0147,4.5,4.5,4.5c2.4853,0,4.5,-2.0147,4.5,-4.5S13.9853,7,11.5,7zM10.7004,14.1607l-2.4222,-2.4221l1,-1l1.4214,1.4214l2.9821,-2.9071l1.0001,1.0001L10.7004,14.1607z" fill="#52B250"/>
      <polygon points="8.2782,11.7386 9.2783,10.7385 10.6997,12.1599 13.6817,9.2528 14.6819,10.2529 10.7004,14.1607" fill="#FFFFFF" stroke-linejoin="miter"/>
    </g>
  </g>
</svg>
