<?xml version="1.0" encoding="UTF-8"?>
<!DOCTYPE svg PUBLIC "-//W3C//DTD SVG 1.1//EN" "http://www.w3.org/Graphics/SVG/1.1/DTD/svg11.dtd">
<svg version="1.1" id="Layer_1" xmlns="http://www.w3.org/2000/svg" xmlns:xlink="http://www.w3.org/1999/xlink" x="0px" y="0px" width="16px" height="16px" viewBox="0 0 16 16" enable-background="new 0 0 16 16" xml:space="preserve">
  <g id="icon">
    <path d="M10.3339,13.6657c0,1.4166,-1.1754,2.34,-2.5364,2.34c-1.361,0,-2.5004,-0.9234,-2.5004,-2.34" fill="#6D6E71"/>
    <path d="M15.2148,11.997c-1.0567,-1.1484,-2.8405,-3.6372,-2.8405,-5.5565c0,-1.8137,-1.1988,-3.3599,-2.8814,-3.9578c0.0144,-0.0861,0.0234,-0.1742,0.0234,-0.2646c0,-0.848,-0.6604,-1.5354,-1.4751,-1.5354s-1.4751,0.6874,-1.4751,1.5354c0,0.0703,0.0061,0.1389,0.0149,0.2066c-1.7743,0.5499,-3.0573,2.1395,-3.0573,4.0157c0,2.687,-1.76,4.3248,-2.7477,5.6046c-0.9965,1.0436,5.212,1.5059,7.2191,1.5059S16.2716,13.1454,15.2148,11.997z" fill="#FFFFFF" opacity="0.4"/>
    <path d="M7.9951,14c-0.9729,0,-2.7677,-0.1005,-4.3155,-0.2925c-3.2396,-0.402,-3.4773,-0.9513,-3.605,-1.2464c-0.1306,-0.3016,-0.0664,-0.6284,0.1759,-0.8968c0.16,-0.2034,0.3272,-0.4028,0.5042,-0.6138c0.9547,-1.1387,2.143,-2.5558,2.143,-4.6267c0,-1.9084,1.1897,-3.6314,3.031,-4.3897l0.0548,-0.0226l0.0068,-0.0583C6.1132,0.7967,6.9951,0,8.0417,0c1.0706,0,1.9752,0.8499,2.0593,1.9348l0.0045,0.0581l0.0535,0.0248c1.7253,0.7983,2.8401,2.4885,2.8401,4.306c0,1.6495,1.6282,3.9969,2.7225,5.1722c0.2673,0.2871,0.3422,0.649,0.2005,0.9682c-0.1916,0.4314,-0.7722,0.9187,-3.6262,1.2621C10.7321,13.9143,8.9702,14,7.9951,14zM6.734,2.8496c-1.6088,0.4928,-2.6897,1.8889,-2.6897,3.4741c0,2.4793,-1.391,4.1383,-2.4067,5.3496c-0.0824,0.0982,-0.1625,0.1938,-0.2394,0.2868l-0.091,0.1101l0.1357,0.0475c0.3752,0.1312,1.1411,0.3243,2.6588,0.4988c1.4964,0.172,3.0672,0.2504,3.8934,0.2504c0.8613,0,2.4489,-0.0736,3.8995,-0.2351c1.5393,-0.1714,2.3043,-0.37,2.6749,-0.5064l0.1361,-0.0501l-0.0947,-0.1088c-1.3335,-1.5321,-2.7584,-3.8189,-2.7584,-5.6426c0,-1.5154,-1.0183,-2.8912,-2.5339,-3.4234l-0.4529,-0.159l0.0794,-0.4685c0.0106,-0.0626,0.0158,-0.1186,0.0158,-0.171c0,-0.5341,-0.4123,-0.9686,-0.9191,-0.9686s-0.9191,0.4345,-0.9191,0.9686c0,0.0376,0.0033,0.0801,0.0103,0.134l0.0619,0.4727L6.734,2.8496z" fill="#EEAC55"/>
  </g>
</svg>
