<?xml version="1.0" encoding="UTF-8"?>
<!DOCTYPE svg PUBLIC "-//W3C//DTD SVG 1.1//EN" "http://www.w3.org/Graphics/SVG/1.1/DTD/svg11.dtd">
<svg version="1.1" id="Layer_1" xmlns="http://www.w3.org/2000/svg" xmlns:xlink="http://www.w3.org/1999/xlink" x="0px" y="0px" width="16px" height="16px" viewBox="0 0 16 16" enable-background="new 0 0 16 16" xml:space="preserve">
  <g id="icon">
    <path d="M10.6498,15.1169c-0.1675,0,-0.3231,-0.0903,-0.4061,-0.2357l-0.7404,-1.2728c-0.4885,0.1309,-0.9934,0.1972,-1.5033,0.1972c-0.5087,0,-1.0125,-0.066,-1.4999,-0.1962l-0.6922,1.2602c-0.0818,0.1508,-0.2393,0.2444,-0.4109,0.2444c-0.0817,0,-0.1625,-0.0217,-0.2335,-0.0627l-1.7862,-1.0325c-0.2208,-0.1275,-0.2984,-0.4031,-0.1769,-0.6272l0.704,-1.2817C3.1774,11.3846,2.6594,10.4879,2.3966,9.5H0.9672C0.7096,9.5,0.5,9.2904,0.5,9.0328V6.9672C0.5,6.7096,0.7096,6.5,0.9672,6.5h1.4293c0.2626,-0.9873,0.7802,-1.8835,1.5063,-2.6084l-0.6971,-1.2277c-0.1237,-0.2217,-0.0456,-0.5054,0.1742,-0.6323L5.1663,0.9991c0.071,-0.0411,0.1518,-0.0627,0.2335,-0.0627c0.1693,0,0.3257,0.0917,0.4082,0.2395l0.6901,1.2153c0.488,-0.1307,0.9924,-0.1968,1.5019,-0.1968c0.5106,0,1.0162,0.0665,1.5052,0.1977l0.7385,-1.228c0.0836,-0.1423,0.238,-0.2307,0.4032,-0.2307c0.0817,0,0.1625,0.0217,0.2335,0.0627l1.7863,1.0325c0.1085,0.0627,0.186,0.1641,0.218,0.2854c0.032,0.1213,0.0146,0.2476,-0.0489,0.3558l-0.7363,1.2242c0.7249,0.7245,1.2415,1.6198,1.5039,2.606h1.4293c0.2576,0,0.4672,0.2096,0.4672,0.4672v2.0655c0,0.2576,-0.2096,0.4672,-0.4672,0.4672h-1.4293c-0.2625,0.9868,-0.7797,1.8827,-1.5053,2.6074l0.7435,1.2782c0.127,0.2225,0.0498,0.5078,-0.172,0.636l-1.7863,1.0325C10.8123,15.0952,10.7315,15.1169,10.6498,15.1169zM8,5.5c-1.3785,0,-2.5,1.1215,-2.5,2.5c0,1.3785,1.1215,2.5,2.5,2.5s2.5,-1.1215,2.5,-2.5C10.5,6.6215,9.3785,5.5,8,5.5z" fill="#FFFFFF" opacity="0.5"/>
    <path d="M10.6498,15.6169c-0.3466,0,-0.6687,-0.187,-0.8403,-0.4879l-0.5522,-0.9493c-0.8204,0.1664,-1.6805,0.1674,-2.5014,0.0026l-0.5097,0.928c-0.168,0.3098,-0.4939,0.5037,-0.8492,0.5037c-0.1693,0,-0.3365,-0.0448,-0.4835,-0.1297L3.127,14.4517c-0.4569,-0.264,-0.6179,-0.8344,-0.3663,-1.2984l0.5301,-0.9653c-0.5659,-0.6369,-0.9973,-1.3824,-1.2662,-2.188H0.9672C0.4339,10,0,9.5661,0,9.0328V6.9672C0,6.4339,0.4339,6,0.9672,6h1.0575c0.2681,-0.8033,0.6977,-1.5467,1.2612,-2.1824l-0.5149,-0.9068c-0.2579,-0.4623,-0.096,-1.0494,0.3589,-1.3121L4.9161,0.5662c0.147,-0.0849,0.3143,-0.1298,0.4837,-0.1298c0.3504,0,0.6741,0.19,0.8448,0.4958l0.5038,0.887c0.8252,-0.1667,1.691,-0.1658,2.5164,0.0027l0.5505,-0.9154c0.1704,-0.2901,0.49,-0.473,0.8316,-0.473c0.1695,0,0.3368,0.0449,0.4837,0.1298l1.7863,1.0325c0.2248,0.1299,0.385,0.3397,0.4512,0.5907c0.0662,0.2511,0.0303,0.5127,-0.1012,0.7365l-0.544,0.9046c0.5591,0.6334,0.9856,1.3733,1.2523,2.1724h1.0575c0.5333,0,0.9672,0.4339,0.9672,0.9672v2.0655c0,0.5333,-0.4339,0.9672,-0.9672,0.9672h-1.0575c-0.2675,0.8015,-0.6958,1.5435,-1.2575,2.1783l0.5561,0.9559c0.2649,0.4642,0.1052,1.0549,-0.354,1.3203l-1.7864,1.0326C10.9865,15.572,10.8192,15.6169,10.6498,15.6169zM5.3685,14.6309c0,0.0001,-0.0001,0.0002,-0.0001,0.0003L5.3685,14.6309zM10.6757,14.6295l0.0001,0.0002C10.6758,14.6297,10.6758,14.6296,10.6757,14.6295zM9.7433,13.0265l0.9182,1.5784l1.7295,-0.9997l-0.9187,-1.5793l0.2725,-0.2722c0.6608,-0.6601,1.1365,-1.4838,1.3754,-2.3822L13.219,9H15V7h-1.781l-0.0988,-0.3714c-0.2389,-0.8979,-0.714,-1.7212,-1.3741,-2.3809l-0.2765,-0.2764l0.918,-1.5264l-1.7295,-0.9997l-0.9186,1.5274l-0.3639,-0.0977c-0.8924,-0.2395,-1.8564,-0.2396,-2.7482,-0.0008l-0.3733,0.1l-0.8664,-1.5256l-1.7295,0.9997l0.8675,1.5279l-0.2697,0.2693c-0.6613,0.6602,-1.1373,1.4843,-1.3764,2.3832L2.781,7H1v2h1.781l0.0988,0.3715c0.2393,0.8994,0.7156,1.7239,1.3776,2.3844l0.266,0.2653l-0.8682,1.5808l1.7294,0.9996l0.866,-1.5765l0.3787,0.1012c0.8913,0.2382,1.8537,0.2379,2.7447,-0.0008L9.7433,13.0265zM5.3732,1.4228c0,0.0001,0,0.0002,0.0001,0.0002L5.3732,1.4228zM10.6748,1.4174l-0.0004,0.0007C10.6745,1.4179,10.6747,1.4176,10.6748,1.4174zM8,11c-1.6542,0,-3,-1.3458,-3,-3c0,-1.6542,1.3458,-3,3,-3s3,1.3458,3,3C11,9.6542,9.6542,11,8,11zM8,6c-1.1028,0,-2,0.8972,-2,2c0,1.1028,0.8972,2,2,2s2,-0.8972,2,-2C10,6.8972,9.1028,6,8,6z" fill="#6D6E71"/>
  </g>
</svg>
