<?xml version="1.0" encoding="UTF-8"?>
<!DOCTYPE svg PUBLIC "-//W3C//DTD SVG 1.1//EN" "http://www.w3.org/Graphics/SVG/1.1/DTD/svg11.dtd">
<svg version="1.1" id="Layer_1" xmlns="http://www.w3.org/2000/svg" xmlns:xlink="http://www.w3.org/1999/xlink" x="0px" y="0px" width="16px" height="16px" viewBox="0 0 16 16" enable-background="new 0 0 16 16" xml:space="preserve">
  <g id="icon">
    <path d="M9.9131,0.6318C7.7126,0.9065,5.9596,2.6677,5.7107,4.8669c-0.097,0.857,0.0324,1.6751,0.3354,2.4038C4.6752,8.6343,0.6824,12.5501,0.6824,12.5501c-0.0577,0.0582,-0.09,0.1366,-0.09,0.2183v2.6391h3.1375v-1.613h1.6163v-1.613h1.236v-1.2899l0.6576,-0.6726l0.2287,0.2424c0.1199,0.1204,0.3084,0.1233,0.4318,0.0065c0,0,0.3304,-0.3398,0.644,-0.634c0.6994,0.3137,1.4867,0.4679,2.3152,0.4158c2.3717,-0.149,4.3159,-2.0172,4.5282,-4.3793C15.6642,2.791,13.0321,0.2426,9.9131,0.6318zM11.6911,5.6145c-0.71,0,-1.2857,-0.5744,-1.2857,-1.2831c0,-0.7086,0.5756,-1.283,1.2857,-1.283c0.7101,0,1.2857,0.5744,1.2857,1.283C12.9767,5.0401,12.4011,5.6145,11.6911,5.6145z" fill="#FFFFFF" opacity="0.5"/>
    <path d="M-0.0002,16.0002v-3.2317c0,-0.2398,0.093,-0.4656,0.262,-0.6358l0.0262,-0.0257c0.6046,-0.5931,3.664,-3.5952,5.0698,-4.9881c-0.2427,-0.7384,-0.3243,-1.5387,-0.236,-2.3186C5.3991,2.3508,7.3833,0.3503,9.8397,0.0438c0.2319,-0.0289,0.4672,-0.0436,0.6993,-0.0436c1.4308,0,2.7826,0.5446,3.8063,1.5336c1.1852,1.1449,1.7802,2.7449,1.6324,4.3897c-0.2369,2.6364,-2.4214,4.7506,-5.0813,4.9178c-0.115,0.0072,-0.2319,0.0109,-0.3474,0.0109c-0.6427,0,-1.2716,-0.1094,-1.8705,-0.3253c-0.1786,0.1754,-0.3236,0.3236,-0.3528,0.3535l-0.0168,0.0167c-0.171,0.1617,-0.3911,0.2499,-0.6215,0.25c-0.1482,0,-0.2927,-0.0365,-0.4226,-0.106l-0.0902,0.0923v1.641H5.9388v1.613H4.3225v1.613H-0.0002zM3.1373,14.815v-1.613h1.6163v-1.613h1.2359v-0.9389l1.2578,-1.2866l0.4451,0.4718c0.1251,-0.1249,0.287,-0.2841,0.4463,-0.4336l0.2879,-0.27l0.3601,0.1615c0.5533,0.2482,1.1427,0.374,1.7519,0.374c0.0937,0,0.1891,-0.003,0.2836,-0.009c2.0812,-0.1307,3.7901,-1.782,3.9751,-3.8409c0.1156,-1.286,-0.3493,-2.5367,-1.2754,-3.4313c-0.8015,-0.7742,-1.8614,-1.2006,-2.9844,-1.2006c-0.1829,0,-0.3682,0.0116,-0.5509,0.0343c-1.9199,0.2396,-3.4705,1.8015,-3.687,3.7137c-0.0829,0.7318,0.016,1.4416,0.2937,2.1096l0.1527,0.3672l-0.282,0.2804c-1.2177,1.2113,-4.5443,4.4757,-5.2789,5.1964v1.9277H3.1373zM11.6911,6.2071c-1.0357,0,-1.8782,-0.8414,-1.8782,-1.8757s0.8426,-1.8757,1.8782,-1.8757s1.8783,0.8414,1.8783,1.8757S12.7267,6.2071,11.6911,6.2071zM11.6911,3.641c-0.3821,0,-0.693,0.3098,-0.693,0.6905c0,0.3807,0.3109,0.6905,0.693,0.6905s0.6931,-0.3098,0.6931,-0.6905C12.3841,3.9508,12.0732,3.641,11.6911,3.641z" fill="#EEAC55"/>
  </g>
</svg>
