<?xml version="1.0" encoding="UTF-8"?>
<!DOCTYPE svg PUBLIC "-//W3C//DTD SVG 1.1//EN" "http://www.w3.org/Graphics/SVG/1.1/DTD/svg11.dtd">
<svg version="1.1" id="Layer_1" xmlns="http://www.w3.org/2000/svg" xmlns:xlink="http://www.w3.org/1999/xlink" x="0px" y="0px" width="16px" height="16px" viewBox="0 0 16 16" enable-background="new 0 0 16 16" xml:space="preserve">
  <g id="icon">
    <path d="M3,3v3.4068c0.0145,-0.0002,0.0294,-0.0012,0.0438,-0.0012c0.1653,0,0.3196,0.0101,0.4644,0.0277c0.3845,-1.0646,1.2983,-2.0806,2.9902,-2.4071l1.0299,-0.1989c0.3109,-0.06,0.6064,0.1594,0.6389,0.4744l0.1075,1.0436c0.0096,0.0936,0.0561,0.6447,-0.0987,1.3177c1.0165,0.4198,1.6563,1.2173,1.7479,1.3367l0.6835,0.8885c0.2189,0.2846,0.1247,0.6982,-0.1959,0.8599l-0.9766,0.4926c-0.0656,0.0415,-0.2957,0.2113,-0.2957,0.5539c0,0.4529,0.368,0.6549,0.4586,0.6978l0.8624,0.3438c0.2978,0.1187,0.44,0.4588,0.3153,0.7542L10.6026,13H15V3H3z" fill="#FFFFFF" opacity="0.4"/>
    <path d="M6,4.1506V3h1v0.9294l-0.5016,0.0969C6.3234,4.06,6.1587,4.1028,6,4.1506z" fill="#6D6E71"/>
    <path d="M2,0v3h14V0H2zM11,2h-1V1h1V2zM13,2h-1V1h1V2zM15,2h-1V1h1V2z" fill="#6485C3"/>
    <path d="M12,1h1v1h-1V1zM10,2h1V1h-1V2zM14,1v1h1V1H14z" fill="#FFFFFF" opacity="0.5"/>
    <path d="M8.8142,7H14v1H9.9242l-0.0003,-0.0003C9.8533,7.9078,9.4566,7.4141,8.8142,7zM10.4115,9.7481L9.9121,10H14V9h-3.3251C10.7993,9.2721,10.6921,9.6065,10.4115,9.7481zM8.2391,5l0.0356,0.3453c0.0062,0.0599,0.0271,0.3078,0.001,0.6547H14V5H8.2391z" fill="#6D6E71"/>
    <path d="M2,6.5815V3h1v3.4068C2.6865,6.4117,2.3461,6.4695,2,6.5815zM15,3v10h-4.3974l-0.1952,0.4624c-0.0648,0.1535,-0.1471,0.337,-0.2458,0.5376H16V3H15z" fill="#6D6E71"/>
    <path d="M7.6392,10.7947c0,-1.3282,1.0955,-1.8808,1.0955,-1.8808s-0.7756,-1.0083,-1.8226,-1.0083c-0.9986,0,-1.3573,0.446,-2.0359,0.446c-0.5914,0,-0.9792,-0.446,-1.8323,-0.446c-0.8725,0,-2.5594,0.8241,-2.5594,3.1024c0,1.5803,1.3282,4.4887,2.7533,4.4887c0.9501,0,0.7659,-0.4363,1.7645,-0.4363c0.9598,0,0.9307,0.4367,1.6675,0.4367c1.2506,0,2.3559,-2.6181,2.3559,-2.6181S7.6392,12.3264,7.6392,10.7947zM6.7826,5.499C4.5722,5.9256,4.7951,7.884,4.7951,7.884C7.0153,7.7579,6.7826,5.499,6.7826,5.499z" fill="#FFFFFF" opacity="0.5"/>
    <path d="M6.6697,15.9971c-0.47,0,-0.7344,-0.1422,-0.9468,-0.2564c-0.1872,-0.1007,-0.3351,-0.1803,-0.7208,-0.1803c-0.3766,0,-0.4979,0.067,-0.666,0.1599c-0.2229,0.1231,-0.5004,0.2764,-1.0984,0.2764c-1.8468,0,-3.2533,-3.3249,-3.2533,-4.9887c0,-2.4575,1.8256,-3.6024,3.0594,-3.6024c0.5419,0,0.9292,0.1489,1.2413,0.2754c0.0052,-0.8861,0.4951,-2.3047,2.4028,-2.6729l0.5361,-0.1035l0.056,0.5432c0.0049,0.0476,0.1066,1.1166,-0.5042,1.9603c0.0443,-0.0017,0.0897,-0.0025,0.1363,-0.0025c1.2786,0,2.1812,1.1543,2.219,1.2035l0.3685,0.4791l-0.5396,0.2722c-0.0299,0.0158,-0.8208,0.4438,-0.8208,1.4343c0,1.1792,1.0608,1.6157,1.0715,1.62l0.4739,0.1889l-0.1984,0.47C9.2801,13.5617,8.1757,15.9971,6.6697,15.9971zM5.0021,14.5604c0.6375,0,0.9595,0.1732,1.1945,0.2996c0.1643,0.0884,0.2548,0.1371,0.473,0.1371c0.5392,0,1.2653,-1.0282,1.708,-1.9095c-0.5044,-0.3418,-1.2385,-1.0524,-1.2385,-2.293c0,-0.9484,0.4519,-1.575,0.8371,-1.9368c-0.2616,-0.2173,-0.642,-0.4522,-1.0642,-0.4522c-0.4562,0,-0.7431,0.1083,-1.0468,0.2229c-0.2907,0.1097,-0.5913,0.2231,-0.9891,0.2231c-0.3663,0,-0.6662,-0.1218,-0.9308,-0.2292c-0.2744,-0.1115,-0.5336,-0.2167,-0.9015,-0.2167c-0.6452,0,-2.0594,0.6553,-2.0594,2.6024c0,1.4798,1.2807,3.9887,2.2533,3.9887c0.3402,0,0.4495,-0.0604,0.6149,-0.1518C4.1345,14.6893,4.4155,14.5604,5.0021,14.5604zM6.2336,6.1981c-0.5753,0.2814,-0.8051,0.7249,-0.8938,1.0808c0.2309,-0.0809,0.4176,-0.2066,0.5644,-0.3788C6.0848,6.6881,6.182,6.4309,6.2336,6.1981z" fill="#52B4C0"/>
  </g>
</svg>
