<?xml version="1.0" encoding="UTF-8"?>
<!DOCTYPE svg PUBLIC "-//W3C//DTD SVG 1.1//EN" "http://www.w3.org/Graphics/SVG/1.1/DTD/svg11.dtd">
<svg version="1.1" id="Layer_1" xmlns="http://www.w3.org/2000/svg" xmlns:xlink="http://www.w3.org/1999/xlink" x="0px" y="0px" width="16px" height="16px" viewBox="0 0 16 16" enable-background="new 0 0 16 16" xml:space="preserve">
  <g id="icon">
    <path d="M10.3339,13.6657c0,1.4166,-1.1754,2.34,-2.5364,2.34c-1.361,0,-2.5004,-0.9234,-2.5004,-2.34" fill="#6D6E71"/>
    <path d="M15.7054,11.5456L15.7054,11.5456c-1.071,-1.1639,-2.6644,-3.484,-2.6644,-5.1051c0,-1.8751,-1.1327,-3.586,-2.8647,-4.397C10.0895,0.9106,9.165,0.0161,8.0412,0.0161c-1.0954,0,-2.0014,0.8498,-2.1269,1.9419C4.0667,2.7279,2.857,4.4736,2.857,6.4405c0,2.035,-1.1617,3.4369,-2.0951,4.5634c-0.1759,0.2123,-0.3425,0.4133,-0.496,0.6112c-0.2632,0.2949,-0.3349,0.667,-0.1912,1.0028c0.1857,0.4341,0.6357,0.9289,3.6426,1.3064c1.5338,0.1926,3.313,0.2934,4.2778,0.2934c0.9668,0,2.7132,-0.0859,4.263,-0.2746c2.863,-0.3485,3.4527,-0.841,3.6635,-1.3213C16.0781,12.2651,15.9973,11.8628,15.7054,11.5456zM15.2148,11.997L15.2148,11.997L15.2148,11.997L15.2148,11.997z" fill="#EEAC55"/>
  </g>
</svg>
