<?xml version="1.0" encoding="UTF-8"?>
<!DOCTYPE svg PUBLIC "-//W3C//DTD SVG 1.1//EN" "http://www.w3.org/Graphics/SVG/1.1/DTD/svg11.dtd">
<svg version="1.1" id="Layer_1" xmlns="http://www.w3.org/2000/svg" xmlns:xlink="http://www.w3.org/1999/xlink" x="0px" y="0px" width="24px" height="24px" viewBox="0 0 24 24" enable-background="new 0 0 24 24" xml:space="preserve">
  <g id="icon">
    <path d="M17.5442,1.0313h-1.755h-0.4786h-2.2336h-2.1539H8.6097H8.131H6.5356L1.0313,6.9032v1.6879c0,1.058,0.6132,1.962,1.4625,2.2996v12.078h19.0125v-12.078c0.8493,-0.3376,1.4625,-1.2416,1.4625,-2.2996V6.9032L17.5442,1.0313zM14.1938,6.8813v0.0219l-0.0042,-0.0219H14.1938zM9.8104,6.8813l-0.0042,0.0219v-0.0219H9.8104zM5.0439,9.9525c0.2364,-0.3897,0.3748,-0.8584,0.3748,-1.3614c0,0.503,0.1384,0.9717,0.3748,1.3614H5.0439zM9.4314,9.9525c0.2364,-0.3897,0.3748,-0.8584,0.3748,-1.3614c0,0.503,0.1384,0.9717,0.3748,1.3614H9.4314zM13.8189,9.9525c0.2364,-0.3897,0.3748,-0.8584,0.3748,-1.3614c0,0.503,0.1384,0.9717,0.3748,1.3614H13.8189zM18.2064,9.9525c0.2364,-0.3897,0.3748,-0.8584,0.3748,-1.3614c0,0.503,0.1384,0.9717,0.3748,1.3614H18.2064z" fill="#FFFFFF" opacity="0.5"/>
    <path d="M19,20h-8v-6h8V20zM12,19h6v-4h-6V19z" fill="#6485C3"/>
    <path d="M21,11v11H9v-7H5v7H3V11l-2,-1v14h3.6875H9.075H23V10.1L21,11zM6,22v-6h2v6H6zM15.8,2H8.1l0.5,-2h6.7L15.8,2z" fill="#7B7B7B"/>
    <path d="M16.35,11.2154c-1.5164,0,-2.75,-1.3343,-2.75,-2.9743V6h5.4v2.2411C19.1,9.8812,17.8664,11.2154,16.35,11.2154zM14.7,8.1786c0,1.0542,0.7402,1.9118,1.65,1.9118S18,9.2328,18,8.1786V7h-3.3V8.1786zM7.65,11.2154C6.1336,11.2154,5,9.84,5,8.2V6h5.4v2.2411C10.4,9.8812,9.1664,11.2154,7.65,11.2154zM6,8.1786c0,1.0542,0.7402,1.9118,1.65,1.9118S9.3,9.2328,9.3,8.1786V7H6V8.1786z" fill="#7B7B7B"/>
    <path d="M20.775,11.2154C19.3,11.2154,18,9.8125,18,8.2V6.3L14.3,0h4l5.7,5.7v2.6C24,9.9125,22.25,11.2154,20.775,11.2154zM19.0625,8.2911c0,1.0817,0.7682,1.9618,1.7125,1.9618S22,9.3817,22,8.3V7h-3L19.0625,8.2911zM19,6h2.6487l-3.8151,-4h-1.3042L19,6zM12,11.2154c-1.475,0,-2.675,-1.3119,-2.675,-2.9243v-1.738L10.6,0h2.8l1.2759,6.5625l-0.0009,1.7287C14.675,9.9036,13.475,11.2154,12,11.2154zM10.4,8.3c0,1.0817,0.6557,1.9529,1.6,1.9529S13.6,9.3817,13.6,8.3V7h-3.2V8.3zM10.4918,6h3.0163l-0.6295,-4h-1.6572L10.4918,6zM3.225,11.2154c-1.475,0,-3.175,-1.3119,-3.175,-2.9243V5.8129L5.8,0h3.8L6,6.4v2C6,10.0125,4.7,11.2154,3.225,11.2154zM2,8.3c0,1.0817,0.2807,1.7529,1.225,1.7529S5,9.2817,5,8.2V7H2V8.3zM2.4625,6h2.6819l2.156,-4H6.244L2.4625,6z" fill="#CB525D"/>
  </g>
</svg>
