<?xml version="1.0" encoding="UTF-8"?>
<!DOCTYPE svg PUBLIC "-//W3C//DTD SVG 1.1//EN" "http://www.w3.org/Graphics/SVG/1.1/DTD/svg11.dtd">
<svg version="1.1" id="Layer_1" xmlns="http://www.w3.org/2000/svg" xmlns:xlink="http://www.w3.org/1999/xlink" x="0px" y="0px" width="16px" height="16px" viewBox="0 0 16 16" enable-background="new 0 0 16 16" xml:space="preserve">
  <g id="main">
    <g id="icon">
      <path d="M4.072,7.788L3.431,8.093L2.8,8.458L2.198,8.873L1.644,9.325L1.136,9.824L0.6662,10.42L0.3211,11.07L0.2223,11.42L0.1869,11.78L0.2186,12.14L0.3129,12.47L0.4695,12.76L0.6881,13.01L0.9844,13.23L1.335,13.41L2.169,13.64L3.128,13.74L4.15,13.77L5.509,13.75L6.977,13.73L8.105,13.73L9.198,13.74L9.199,13.74L9.551,13.73L9.551,12.22L9.158,11.87L8.81,11.49L8.51,11.06L8.26,10.61L8.062,10.12L7.918,9.6L7.83,9.058L7.8,8.497L7.874,7.77zz" fill="#FFFFFF" opacity="0.5"/>
      <path d="M6.421,8.783L6.322,8.916L6.289,9.232L6.364,9.543L6.572,9.858L6.289,13.17L6.99,13.18L7.689,13.17L7.537,11.33L7.46,9.859L7.675,9.546L7.711,9.231L7.703,8.915L7.614,8.783L7.401,8.758L7.018,8.766L6.636,8.758zz" fill="#6485C3"/>
      <path d="M3.456,7.818L2.763,8.207L2.098,8.657L1.489,9.151L0.9533,9.679L0.4584,10.31L0.09492,11.02L-0,11.36L0,12.22L0.09805,12.56L0.2777,12.89L0.5285,13.18L0.8324,13.42L1.186,13.6L1.585,13.74L2.028,13.85L3.025,13.97L4.151,14L5.514,13.98L6.977,13.96L8.103,13.97L9.551,13.97L9.551,12.94L8.115,12.93L6.977,12.93L5.49,12.95L4.177,12.97L2.959,12.93L1.955,12.77L1.571,12.63L1.284,12.44L1.119,12.22L1.058,12.03L1.034,11.78L1.125,11.32L1.38,10.84L1.771,10.35L2.27,9.866L2.847,9.409L3.477,8.997L4.129,8.647L4.777,8.379L4.704,8.188L4.526,7.989L4.152,7.503zz" fill="#6D6E71"/>
      <path d="M6.412,0.8041L5.931,0.8922L5.511,1.039L5.152,1.245L4.853,1.51L4.614,1.835L4.433,2.221L4.311,2.667L4.245,3.214L4.339,4.207L4.623,5.183L5.1,6.146L5.773,7.105L6.024,7.359L6.314,7.545L6.635,7.661L6.98,7.703L6.994,7.703L7.338,7.661L7.66,7.545L7.95,7.359L7.958,7.35L8.17,6.67L8.604,5.873L9.179,5.177L9.407,4.989L9.635,4.207L9.729,3.214L9.663,2.667L9.541,2.221L9.36,1.835L9.121,1.51L8.822,1.245L8.462,1.039L8.043,0.8922L7.562,0.8041L7.019,0.7742L6.954,0.7742zz" fill-rule="evenodd" fill="#FFFFFF" opacity="0.5"/>
      <path d="M6.234,0.04258L5.589,0.1674L5.019,0.373L4.526,0.6586L4.112,1.023L3.778,1.465L3.526,1.983L3.357,2.577L3.274,3.275L3.301,3.837L3.38,4.391L3.514,4.939L3.702,5.481L3.944,6.018L4.241,6.552L5.001,7.611L5.407,8.008L5.88,8.299L6.407,8.481L6.978,8.546L6.978,8.546L6.999,8.546L6.999,8.546L7.568,8.48L7.81,8.397L7.896,7.551L8.069,6.994L7.86,7.2L7.597,7.365L7.306,7.468L6.994,7.505L6.982,7.505L6.669,7.468L6.377,7.365L6.114,7.2L5.886,6.976L5.228,6.062L4.761,5.145L4.483,4.218L4.39,3.275L4.454,2.77L4.569,2.362L4.739,2.01L4.965,1.713L5.248,1.471L5.588,1.283L5.985,1.149L6.441,1.069L6.955,1.041L7.019,1.041L7.533,1.068L7.989,1.149L8.386,1.283L8.726,1.471L9.008,1.713L9.235,2.01L9.405,2.362L9.52,2.77L9.583,3.275L9.491,4.218L9.213,5.145L9.209,5.152L9.875,4.603L10.62,4.198L10.67,3.837L10.7,3.275L10.62,2.577L10.45,1.984L10.2,1.465L9.862,1.023L9.447,0.6586L8.954,0.373L8.385,0.1674L7.739,0.04258L7.02,0L6.954,0zz" fill="#6D6E71"/>
      <path d="M6.286,0.151L5.686,0.2688L5.157,0.4633L4.7,0.7332L4.315,1.078L4.005,1.495L3.772,1.985L3.616,2.547L3.538,3.214L3.601,4.074L4.308,4.074L4.81,3.963L5.548,3.795L6.228,3.588L6.849,3.303L7.444,2.974L7.961,2.686L8.04,2.644L8.115,2.691L8.755,3.051L9.582,3.532L9.728,3.668L9.841,3.85L10.4,3.85L10.44,3.214L10.36,2.547L10.2,1.985L9.968,1.495L9.659,1.078L9.274,0.7332L8.817,0.4633L8.288,0.2688L7.688,0.151L7.02,0.1107L6.954,0.1107zz" fill="#6D6E71"/>
    </g>
    <g id="overlay">
      <path d="M16.0053,8.4968c0,-1.9312,-1.5682,-3.4968,-3.5027,-3.4968S9,6.5656,9,8.4968c0,1.3394,0.6437,2.4834,1.7513,3.0707c0,1.5762,0,2.5936,0,2.5936s0.088,0.1746,0.1386,0.2246L12.5237,16l1.7109,-1.9511l-0.7985,-0.789l-0.0093,-0.7358l0.2916,0.0084c0.1488,0.0003,0.2672,-0.1132,0.2714,-0.2602c0,0,-0.0044,-0.282,0.0026,-0.6106C15.1817,11.1029,16.0053,9.8961,16.0053,8.4968zM12.5027,8.3275c-0.6287,0,-1.1384,-0.5097,-1.1384,-1.1384s0.5097,-1.1384,1.1384,-1.1384c0.6287,0,1.1384,0.5097,1.1384,1.1384S13.1314,8.3275,12.5027,8.3275z" fill="#EEAC55"/>
    </g>
  </g>
</svg>
