<?xml version="1.0" encoding="UTF-8"?>
<!DOCTYPE svg PUBLIC "-//W3C//DTD SVG 1.1//EN" "http://www.w3.org/Graphics/SVG/1.1/DTD/svg11.dtd">
<svg version="1.1" id="Layer_1" xmlns="http://www.w3.org/2000/svg" xmlns:xlink="http://www.w3.org/1999/xlink" x="0px" y="0px" width="16px" height="16px" viewBox="0 0 16 16" enable-background="new 0 0 16 16" xml:space="preserve">
  <g id="main">
    <g id="icon">
      <path d="M1,13L6.494,13L6.403,12.84L6.129,12.17L5.959,11.45L5.9,10.69L5.925,10.19L5.999,9.704L6.285,8.787L6.736,7.957L7.333,7.233L8.057,6.636L8.887,6.185L9.804,5.899L10.29,5.825L10.79,5.8L11.56,5.861L12.29,6.038L12.98,6.321L13,6.332L13,3L1,3zz" fill="#FFFFFF" opacity="0.4"/>
      <path d="M0,14L7.201,14L6.77,13.47L6.494,13L1,13L1,3L13,3L13,6.332L13.61,6.7L14,7.023L14,2L0,2zz" fill="#6D6E71"/>
      <path d="M0,3L14,3L14,0L0,0zz" fill="#6485C3"/>
      <path d="M3,6L9.48,6L9.804,5.899L10.29,5.825L10.79,5.8L11,5.817L11,5L3,5zM3,8L6.712,8L6.736,7.957L7.333,7.233L7.616,7L3,7zM3,10L5.954,10L5.999,9.704L6.218,9L3,9zM3,12L6.09,12L5.959,11.45L5.924,11L3,11zz" fill="#7B7B7B"/>
    </g>
    <g id="overlay">
      <path d="M7.7797,10.6726c0,-1.6529,1.3399,-2.9929,2.9929,-2.9929s2.9929,1.3399,2.9929,2.9929s-1.3399,2.9929,-2.9929,2.9929S7.7797,12.3255,7.7797,10.6726z" fill="#FFFFFF" opacity="0.4"/>
      <path d="M12.7639,13.7989c-0.591,0.3775,-1.2694,0.5759,-1.9765,0.5759C8.7542,14.3748,7.1,12.7206,7.1,10.6874S8.7542,7,10.7874,7s3.6874,1.6542,3.6874,3.6874c0,0.7071,-0.1984,1.3854,-0.5759,1.9765L16,14.765L14.865,15.9L12.7639,13.7989zM10.7874,8.2625c-1.3371,0,-2.4249,1.0878,-2.4249,2.4249c0,1.3371,1.0878,2.4249,2.4249,2.4249c1.3371,0,2.4249,-1.0878,2.4249,-2.4249C13.2123,9.3503,12.1245,8.2625,10.7874,8.2625z" fill="#6D6E71"/>
    </g>
  </g>
</svg>
