<?xml version="1.0" encoding="UTF-8"?>
<!DOCTYPE svg PUBLIC "-//W3C//DTD SVG 1.1//EN" "http://www.w3.org/Graphics/SVG/1.1/DTD/svg11.dtd">
<svg version="1.1" id="Layer_1" xmlns="http://www.w3.org/2000/svg" xmlns:xlink="http://www.w3.org/1999/xlink" x="0px" y="0px" width="16px" height="16px" viewBox="0 0 16 16" enable-background="new 0 0 16 16" xml:space="preserve">
  <g id="icon">
    <path d="M6,6H1V1h5V6zM15,6h-5V1h5V6zM15,15h-5v-5h5V15zM6,15H1v-5h5V15z" fill="#FFFFFF" opacity="0.5"/>
    <path d="M0,0v7h7V0H0zM5,5H2V2h3V5z" fill="#6485C3"/>
    <path d="M9,9v7h7V9H9zM14,14h-3v-3h3V14z" fill="#6485C3"/>
    <path d="M0,9v7h7V9H0zM5,14H2v-3h3V14z" fill="#6485C3"/>
    <path d="M9,0v7h7V0H9zM14,5h-3V2h3V5z" fill="#6485C3"/>
  </g>
</svg>
