<?xml version="1.0" encoding="UTF-8"?>
<!DOCTYPE svg PUBLIC "-//W3C//DTD SVG 1.1//EN" "http://www.w3.org/Graphics/SVG/1.1/DTD/svg11.dtd">
<svg version="1.1" id="Layer_1" xmlns="http://www.w3.org/2000/svg" xmlns:xlink="http://www.w3.org/1999/xlink" x="0px" y="0px" width="16px" height="16px" viewBox="0 0 16 16" enable-background="new 0 0 16 16" xml:space="preserve">
  <g id="main">
    <g id="icon">
      <path d="M6.325,0.5004L5.677,0.5992L5.052,0.76L4.452,0.9795L3.882,1.254L3.344,1.581L2.841,1.957L2.378,2.378L1.956,2.841L1.581,3.344L1.254,3.882L0.9791,4.452L0.7596,5.052L0.5988,5.677L0.4998,6.325L0.4662,6.993L0.4998,7.66L0.5988,8.308L0.7596,8.933L0.9791,9.533L1.254,10.1L1.581,10.64L1.956,11.14L2.378,11.61L2.841,12.03L3.344,12.4L3.882,12.73L4.452,13.01L5.052,13.23L5.677,13.39L6.325,13.48L6.993,13.52L7.465,13.49L7.144,13.07L6.904,12.49L6.819,11.85L6.845,11.5L6.92,11.16L7.203,10.54L7.639,10.03L8.199,9.648L8.522,9.119L8.908,8.641L9.349,8.219L9.838,7.856L10.37,7.558L10.94,7.329L11.53,7.173L12.14,7.095L12.49,6.847L12.88,6.663L13.3,6.547L13.5,6.529L13.49,6.325L13.39,5.677L13.23,5.052L13.01,4.452L12.73,3.882L12.4,3.344L12.03,2.841L11.61,2.378L11.14,1.957L10.64,1.581L10.1,1.254L9.533,0.9795L8.933,0.76L8.308,0.5992L7.66,0.5004L6.993,0.4666zz" fill="#FFFFFF" opacity="0.5"/>
      <path d="M6.285,0.03613L5.591,0.1424L4.921,0.3152L4.278,0.551L3.666,0.8461L3.089,1.197L2.55,1.6L2.053,2.053L1.6,2.55L1.197,3.089L0.8461,3.666L0.551,4.278L0.3152,4.921L0.1424,5.591L0.03613,6.285L0,7L0.03613,7.715L0.1424,8.409L0.3152,9.079L0.551,9.722L0.8461,10.33L1.197,10.91L1.6,11.45L2.053,11.95L2.55,12.4L3.089,12.8L3.666,13.15L4.278,13.45L4.921,13.68L5.591,13.86L6.285,13.96L7,14L7.715,13.96L7.97,13.92L7.517,13.56L7.144,13.07L7.073,12.9L7,12.9L6.397,12.87L5.811,12.78L5.246,12.64L4.704,12.44L4.188,12.19L3.701,11.89L3.246,11.55L2.826,11.17L2.445,10.75L2.104,10.3L1.808,9.812L1.559,9.296L1.361,8.754L1.215,8.188L1.125,7.603L1.095,7L1.125,6.397L1.215,5.812L1.361,5.246L1.559,4.704L1.808,4.188L2.104,3.701L2.445,3.246L2.826,2.827L3.246,2.446L3.701,2.105L4.188,1.809L4.704,1.561L5.246,1.362L5.811,1.216L6.397,1.126L7,1.096L7.603,1.126L8.189,1.216L8.754,1.362L9.296,1.561L9.812,1.809L10.3,2.105L10.75,2.446L11.17,2.827L11.56,3.246L11.9,3.701L12.19,4.188L12.44,4.704L12.64,5.246L12.79,5.812L12.87,6.397L12.89,6.66L13.3,6.547L13.74,6.507L13.98,6.527L13.96,6.285L13.86,5.591L13.68,4.921L13.45,4.278L13.15,3.666L12.8,3.089L12.4,2.55L11.95,2.053L11.45,1.6L10.91,1.197L10.33,0.8461L9.722,0.551L9.079,0.3152L8.409,0.1424L7.715,0.03613L7,0zz" fill="#6D6E71"/>
      <path d="M6.389,0.2723L6.004,0.5354L5.264,1.204L4.585,2.03L3.989,2.977L3.09,2.632L2.339,2.272L1.905,3.099L2.668,3.466L3.573,3.821L3.311,4.49L3.102,5.17L2.951,5.852L2.864,6.526L0.6383,6.526L0.6383,7.46L2.859,7.46L2.938,8.129L3.08,8.816L3.282,9.512L3.543,10.2L2.725,10.53L1.905,10.93L2.339,11.76L3.145,11.37L3.946,11.05L3.953,11.06L4.556,12.04L5.229,12.85L5.953,13.49L6.713,13.93L6.885,13.53L7.045,13.53L7.216,13.93L7.654,13.67L7.517,13.56L7.144,13.07L6.904,12.49L6.819,11.85L6.845,11.5L6.92,11.16L7.203,10.54L7.639,10.03L8.177,9.663L7.467,9.585L7.467,7.46L10.14,7.46L10.1,7.707L10.37,7.558L10.94,7.329L11.53,7.173L12.14,7.095L12.49,6.847L12.88,6.663L13.3,6.547L13.39,6.539L13.39,6.526L11.07,6.526L10.98,5.854L10.83,5.174L10.63,4.497L10.37,3.83L11.32,3.466L12.04,3.124L11.61,2.295L10.9,2.629L9.962,2.983L9.371,2.032L8.698,1.203L7.964,0.534L7.581,0.2713L7.191,0.06289L7.006,0.4668L6.967,0.4668L6.782,0.06289zM6.533,3.469L5.695,3.386L4.906,3.236L5.27,2.664L5.667,2.143L6.09,1.684L6.533,1.3zM7.896,1.705L8.307,2.159L8.691,2.674L9.044,3.238L8.28,3.383L7.467,3.466L7.467,1.323zM5.463,4.295L6.533,4.404L6.533,6.526L3.801,6.526L3.886,5.92L4.03,5.306L4.469,4.09zM9.905,5.307L10.05,5.921L10.13,6.526L7.467,6.526L7.467,4.401L8.51,4.291L9.475,4.094zM6.533,7.459L6.533,9.582L5.49,9.693L4.436,9.921L4.009,8.695L3.873,8.074L3.795,7.459zM6.533,12.75L6.077,12.37L5.641,11.91L5.233,11.37L4.861,10.77L5.702,10.6L6.533,10.52zz" fill="#6D6E71"/>
    </g>
    <g id="overlay">
      <path d="M12.3837,15.4373c-1.382,-0.0169,-2.6196,-0.829,-3.1945,-2.0655c0.0292,0.0017,0.0586,0.0027,0.0882,0.0027c0.0814,0,0.1642,-0.0067,0.2461,-0.02c0.185,-0.03,0.3573,-0.0919,0.5117,-0.1795c0.4406,0.8052,1.2626,1.3417,2.1886,1.4109c-0.0055,0.0524,-0.0084,0.1055,-0.0084,0.1593c0,0.1062,0.0112,0.2126,0.0327,0.3135l0.005,0.0251l0.0146,0.0576l0.0097,0.0338C12.3046,15.2669,12.3409,15.3542,12.3837,15.4373zM15.1476,9.5451c-0.037,0.0886,-0.0816,0.1743,-0.1355,0.2554l-0.0193,0.0287l-0.0348,0.0482l-0.0161,0.0202c-0.0961,0.123,-0.211,0.2291,-0.3386,0.3162c0.3582,0.4712,0.5523,1.0422,0.5523,1.6477c0,0.6009,-0.1913,1.1681,-0.5444,1.6374c0.1294,0.0897,0.2457,0.199,0.3427,0.3261l0.0177,0.0231l0.0372,0.0528l0.0141,0.0223c0.0513,0.0791,0.0939,0.1629,0.1293,0.2496c0.5483,-0.6445,0.8478,-1.4515,0.8478,-2.3112C16,10.9991,15.6989,10.1904,15.1476,9.5451zM9.2775,10.3328c0.0647,0,0.1306,0.0043,0.1958,0.0127l0.0332,0.0045l0.0594,0.0099l0.0255,0.0055c0.1628,0.0336,0.3137,0.0925,0.4509,0.1706c0.4427,-0.7987,1.2628,-1.3306,2.1838,-1.3989c-0.0066,-0.0575,-0.0104,-0.1158,-0.0104,-0.175c0,-0.1175,0.0139,-0.2356,0.0412,-0.351c0.0272,-0.1148,0.0679,-0.2231,0.1183,-0.3251c-1.3704,0.0202,-2.6009,0.8248,-3.178,2.0489C9.2237,10.3335,9.2505,10.3328,9.2775,10.3328z" fill="#7B7B7B"/>
      <path d="M13.7402,16c-0.5549,0,-1.0514,-0.3701,-1.2075,-0.9l-0.007,-0.024l-0.013,-0.0512l-0.0037,-0.0186c-0.0182,-0.0857,-0.0274,-0.1735,-0.0274,-0.2611c0,-0.6919,0.5646,-1.2548,1.2587,-1.2548c0.3906,0,0.7653,0.1854,1.0022,0.496l0.0146,0.0191l0.0305,0.0433l0.0107,0.0168c0.1313,0.2026,0.2007,0.4375,0.2007,0.6795C14.9989,15.4371,14.4343,16,13.7402,16zM9.2775,13.1085c-0.694,0,-1.2587,-0.5629,-1.2587,-1.2548s0.5646,-1.2548,1.2587,-1.2548c0.0533,0,0.1077,0.0035,0.1616,0.0105l0.0236,0.0031l0.053,0.0088l0.0191,0.0042c0.5896,0.1216,1.0014,0.6267,1.0014,1.2283c0,0.6183,-0.4438,1.139,-1.0552,1.2383C9.4132,13.1029,9.3447,13.1085,9.2775,13.1085zM13.7402,10.2169c-0.694,0,-1.2587,-0.5629,-1.2587,-1.2548c0,-0.0969,0.0115,-0.1943,0.0341,-0.2897c0.1348,-0.5682,0.6384,-0.9652,1.2246,-0.9652c0.694,0,1.2587,0.5629,1.2587,1.2548c0,0.247,-0.072,0.486,-0.2084,0.6912l-0.0135,0.0203l-0.031,0.043l-0.0121,0.0152C14.4968,10.0356,14.1253,10.2169,13.7402,10.2169z" fill="#6485C3"/>
    </g>
  </g>
</svg>
