<?xml version="1.0" encoding="UTF-8"?>
<!DOCTYPE svg PUBLIC "-//W3C//DTD SVG 1.1//EN" "http://www.w3.org/Graphics/SVG/1.1/DTD/svg11.dtd">
<svg version="1.1" id="Layer_1" xmlns="http://www.w3.org/2000/svg" xmlns:xlink="http://www.w3.org/1999/xlink" x="0px" y="0px" width="16px" height="16px" viewBox="0 0 16 16" enable-background="new 0 0 16 16" xml:space="preserve">
  <g id="icon">
    <path d="M10.173,12.7348l-0.8039,-1.048c-0.0965,0.0396,-0.1954,0.0737,-0.2963,0.1021c-0.2447,0.0687,-0.506,0.1035,-0.7767,0.1035c-0.4549,0,-0.8793,-0.0994,-1.2615,-0.2955c-0.3785,-0.1941,-0.7071,-0.4742,-0.9767,-0.8324c-0.2592,-0.3443,-0.4619,-0.762,-0.6022,-1.2413C5.3192,9.0577,5.25,8.53,5.25,7.9547c0,-0.5718,0.0692,-1.0985,0.2056,-1.5657c0.1401,-0.4803,0.3425,-0.8994,0.6015,-1.2453c0.2692,-0.3596,0.5974,-0.6412,0.9755,-0.8372c0.383,-0.1984,0.8081,-0.2989,1.2635,-0.2989c0.4569,0,0.883,0.0993,1.2664,0.2951c0.3806,0.1943,0.7104,0.4757,0.9803,0.8362c0.2588,0.3457,0.4612,0.7647,0.6015,1.2453c0.1365,0.4674,0.2057,0.9958,0.2057,1.5704c0,0.3888,-0.0317,0.7576,-0.0942,1.0962c-0.0635,0.3441,-0.1575,0.6655,-0.2792,0.9552c-0.1252,0.2983,-0.2813,0.5681,-0.464,0.8018c-0.0725,0.0928,-0.1493,0.1804,-0.2301,0.2623l0.7632,0.995L10.173,12.7348zM8.2961,5.1077c-0.2815,0,-0.5293,0.0575,-0.7575,0.1756c-0.2329,0.1207,-0.4295,0.2907,-0.601,0.5197c-0.1796,0.2399,-0.323,0.5408,-0.4262,0.8942c-0.1072,0.367,-0.1615,0.79,-0.1615,1.2574c0,0.4704,0.0543,0.894,0.1613,1.259c0.103,0.3519,0.2461,0.6509,0.4255,0.8891c0.1711,0.2274,0.3674,0.3959,0.5999,0.5152c0.2285,0.1172,0.477,0.1742,0.7594,0.1742c0.1702,0,0.3314,-0.021,0.4792,-0.0625c0.1446,-0.0406,0.2822,-0.101,0.4089,-0.1796l0.07,-0.0451c0.1436,-0.0997,0.2753,-0.2256,0.3916,-0.3745c0.1226,-0.1568,0.2291,-0.3419,0.3165,-0.5503c0.0912,-0.2171,0.1624,-0.4624,0.2116,-0.7291c0.0504,-0.2729,0.0759,-0.5746,0.0759,-0.8965c0,-0.4703,-0.0543,-0.8949,-0.1616,-1.2621c-0.1032,-0.3537,-0.2466,-0.6545,-0.4262,-0.8943c-0.1708,-0.2282,-0.3671,-0.3969,-0.6001,-0.5159C8.832,5.1648,8.5814,5.1077,8.2961,5.1077zM2.2191,12.05c-0.2686,0,-0.515,-0.0257,-0.7326,-0.0764c-0.2133,-0.0495,-0.409,-0.1155,-0.5814,-0.196c-0.1718,-0.0802,-0.3232,-0.1693,-0.4499,-0.2647c-0.1113,-0.0837,-0.21,-0.1657,-0.2929,-0.2433c-0.0798,-0.0746,-0.1387,-0.132,-0.185,-0.1805l0.7954,-0.7598c0.0342,0.0357,0.0812,0.0811,0.1408,0.1367c0.0546,0.0512,0.123,0.1076,0.2034,0.1681c0.0659,0.0496,0.1511,0.0989,0.2538,0.1468c0.1032,0.0482,0.2259,0.089,0.365,0.1212c0.1363,0.0318,0.2988,0.0478,0.4835,0.0478c0.2637,0,0.4961,-0.0389,0.6909,-0.1155c0.1922,-0.0756,0.3547,-0.1763,0.483,-0.2992c0.1261,-0.1209,0.2195,-0.2579,0.2854,-0.4188c0.0681,-0.1662,0.1012,-0.3396,0.1012,-0.5302c0,-0.1395,-0.0197,-0.2543,-0.0584,-0.3414c-0.0412,-0.0924,-0.0943,-0.1687,-0.1624,-0.2329c-0.0814,-0.077,-0.1796,-0.1447,-0.2918,-0.2014c-0.1384,-0.0699,-0.2897,-0.134,-0.4498,-0.1905c-0.1713,-0.0604,-0.3489,-0.1171,-0.5278,-0.1686c-0.2021,-0.0581,-0.4019,-0.1229,-0.5938,-0.1924c-0.2048,-0.074,-0.4012,-0.1602,-0.5832,-0.2558c-0.2088,-0.1098,-0.3954,-0.2461,-0.5545,-0.4053c-0.1704,-0.1702,-0.3066,-0.3741,-0.4047,-0.6059c-0.0992,-0.2341,-0.1496,-0.5056,-0.1496,-0.8067c0,-0.2948,0.0583,-0.5815,0.1731,-0.852c0.1155,-0.2726,0.2862,-0.5163,0.5073,-0.7239c0.2175,-0.2041,0.4845,-0.3671,0.7937,-0.4849c0.305,-0.116,0.6519,-0.1748,1.0312,-0.1748c0.4207,0,0.8039,0.0685,1.1391,0.2034c0.3384,0.1363,0.6568,0.3522,0.9464,0.6417l-0.7777,0.7779c-0.1843,-0.1843,-0.3793,-0.3187,-0.5796,-0.3993c-0.204,-0.0821,-0.449,-0.1238,-0.7282,-0.1238c-0.2452,0,-0.4604,0.0346,-0.6399,0.1029c-0.1745,0.0665,-0.32,0.1536,-0.4322,0.2588c-0.1101,0.1034,-0.1911,0.2184,-0.2475,0.3514c-0.0577,0.136,-0.0857,0.2741,-0.0857,0.4225c0,0.1529,0.021,0.28,0.0625,0.3778c0.0433,0.1022,0.0986,0.1861,0.1693,0.2567c0.0811,0.081,0.1782,0.1515,0.2889,0.2097c0.1375,0.0723,0.2875,0.1379,0.4457,0.1951c0.1691,0.0613,0.3452,0.1183,0.5237,0.1697c0.1995,0.0574,0.3978,0.1208,0.5895,0.1883c0.2045,0.0722,0.3995,0.1549,0.5798,0.2459c0.207,0.1046,0.3925,0.2336,0.5513,0.3836c0.1731,0.1636,0.3117,0.3604,0.4118,0.585c0.102,0.229,0.1537,0.4943,0.1537,0.789c0,0.3318,-0.0617,0.6505,-0.1833,0.9473c-0.1236,0.3017,-0.306,0.5694,-0.542,0.7958c-0.2322,0.2226,-0.5153,0.4005,-0.8414,0.5287C2.9893,11.9854,2.6212,12.05,2.2191,12.05zM16,12h-4V4h1.1v6.9h2.9V12z" fill="#6485C3"/>
  </g>
</svg>
