<?xml version="1.0" encoding="UTF-8"?>
<!DOCTYPE svg PUBLIC "-//W3C//DTD SVG 1.1//EN" "http://www.w3.org/Graphics/SVG/1.1/DTD/svg11.dtd">
<svg version="1.1" id="Layer_1" xmlns="http://www.w3.org/2000/svg" xmlns:xlink="http://www.w3.org/1999/xlink" x="0px" y="0px" width="16px" height="16px" viewBox="0 0 16 16" enable-background="new 0 0 16 16" xml:space="preserve">
  <g id="icon">
    <path d="M8,0C3.5817,0,0,3.5817,0,8c0,4.4183,3.5817,8,8,8c4.4183,0,8,-3.5817,8,-8C16,3.5817,12.4183,0,8,0zM12.359,9.0953L9,5.7736V13.5H7V5.8521L3.7204,9.0953l-1.3132,-1.328l5.6326,-5.5701l5.6326,5.5701L12.359,9.0953z" fill="#6485C3"/>
    <polygon points="13.6723,7.7673 12.359,9.0953 9,5.7736 9,13.5 7,13.5 7,5.8521 3.7204,9.0953 2.4071,7.7673 8.0397,2.1972" fill="#FFFFFF" stroke-linejoin="miter"/>
  </g>
</svg>
