<?xml version="1.0" encoding="UTF-8"?>
<!DOCTYPE svg PUBLIC "-//W3C//DTD SVG 1.1//EN" "http://www.w3.org/Graphics/SVG/1.1/DTD/svg11.dtd">
<svg version="1.1" id="Layer_1" xmlns="http://www.w3.org/2000/svg" xmlns:xlink="http://www.w3.org/1999/xlink" x="0px" y="0px" width="24px" height="24px" viewBox="0 0 24 24" enable-background="new 0 0 24 24" xml:space="preserve">
  <g id="main">
    <g id="icon">
      <path d="M9.946,0.7408L8.922,0.8971L7.933,1.151L6.986,1.498L6.084,1.932L5.234,2.449L4.44,3.042L3.708,3.708L3.042,4.44L2.449,5.234L1.932,6.084L1.498,6.986L1.151,7.933L0.8971,8.922L0.7408,9.946L0.6875,11L0.7408,12.05L0.8971,13.08L1.151,14.07L1.498,15.01L1.932,15.92L2.449,16.77L3.042,17.56L3.708,18.29L4.44,18.96L5.234,19.55L6.084,20.07L6.986,20.5L7.933,20.85L8.922,21.1L9.221,21.15L12.47,17.97L9.593,15.08L10.65,14.02L11.53,13.27L11.99,12.97L12.46,12.72L12.94,12.53L13.43,12.39L13.92,12.3L14.41,12.27L15.22,12.36L15.99,12.6L16.17,12.42L16.09,11.96L16.08,11.48L16.14,10.99L16.26,10.5L16.46,10.01L16.72,9.536L17.05,9.074L17.44,8.633L18.5,7.568L21.28,10.35L21.26,9.946L21.1,8.922L20.85,7.933L20.5,6.986L20.07,6.084L19.55,5.234L18.96,4.44L18.29,3.708L17.56,3.042L16.77,2.449L15.92,1.932L15.01,1.498L14.07,1.151L13.08,0.8971L12.05,0.7408L11,0.6875zz" fill="#FFFFFF" opacity="0.5"/>
      <path d="M9.877,0.05684L8.786,0.2238L7.733,0.4953L6.722,0.8658L5.761,1.33L4.854,1.881L4.007,2.515L3.225,3.225L2.515,4.007L1.881,4.854L1.33,5.761L0.8658,6.722L0.4953,7.733L0.2238,8.786L0.05684,9.877L0,11L0.05684,12.12L0.2238,13.21L0.4953,14.27L0.8658,15.28L1.33,16.24L1.881,17.15L2.515,17.99L3.225,18.77L4.007,19.48L4.854,20.12L5.761,20.67L6.722,21.13L7.733,21.5L8.622,21.73L10.35,20.05L10.07,20.03L9.173,19.89L8.303,19.67L7.47,19.36L6.676,18.98L5.928,18.53L5.229,18L4.583,17.42L3.997,16.77L3.474,16.07L3.019,15.32L2.636,14.53L2.33,13.7L2.106,12.83L1.968,11.93L1.921,11L1.968,10.07L2.106,9.173L2.33,8.303L2.636,7.47L3.019,6.676L3.474,5.928L3.997,5.229L4.583,4.583L5.229,3.997L5.928,3.474L6.676,3.019L7.47,2.636L8.303,2.33L9.173,2.106L10.07,1.968L11,1.921L11.93,1.968L12.83,2.106L13.7,2.33L14.53,2.636L15.32,3.019L16.07,3.474L16.77,3.997L17.42,4.583L18,5.229L18.53,5.928L18.98,6.676L19.36,7.47L19.67,8.303L19.82,8.888L22,11.07L22,11L21.94,9.877L21.78,8.786L21.5,7.733L21.13,6.722L20.67,5.761L20.12,4.854L19.48,4.007L18.77,3.225L17.99,2.515L17.15,1.881L16.24,1.33L15.28,0.8658L14.27,0.4953L13.21,0.2238L12.12,0.05684L11,0zz" fill="#7B7B7B"/>
      <path d="M10.44,5.529L9.893,5.612L9.366,5.748L8.861,5.933L8.38,6.165L7.927,6.441L7.504,6.757L7.113,7.113L6.757,7.504L6.441,7.927L6.165,8.38L5.933,8.861L5.748,9.366L5.612,9.893L5.529,10.44L5.5,11L5.529,11.56L5.612,12.11L5.748,12.63L5.933,13.14L6.165,13.62L6.441,14.07L6.757,14.5L7.113,14.89L7.504,15.24L7.927,15.56L8.38,15.84L8.861,16.07L9.366,16.25L9.893,16.39L10.44,16.47L11,16.5L11.01,16.5L9.593,15.08L9.78,14.89L9.407,14.77L8.711,14.4L8.105,13.9L7.604,13.29L7.226,12.59L6.987,11.82L6.904,11L6.987,10.18L7.226,9.407L7.604,8.711L8.105,8.105L8.711,7.604L9.407,7.226L10.18,6.987L11,6.904L11.82,6.987L12.59,7.226L13.29,7.604L13.9,8.105L14.4,8.711L14.77,9.407L15.01,10.18L15.1,11L15.01,11.82L14.86,12.32L15.22,12.36L15.99,12.6L16.17,12.42L16.09,11.96L16.08,11.48L16.14,10.99L16.26,10.5L16.42,10.11L16.39,9.893L16.25,9.366L16.07,8.861L15.84,8.38L15.56,7.927L15.24,7.504L14.89,7.113L14.5,6.757L14.07,6.441L13.62,6.165L13.14,5.933L12.63,5.748L12.11,5.612L11.56,5.529L11,5.5zz" fill="#6485C3"/>
    </g>
    <g id="overlay">
      <polygon points="9.7,22.7774 14.1059,18.4702 15.3585,19.7228 10.9527,24.03" fill="#6D6E71" stroke-linejoin="miter"/>
      <path d="M11.7107,15.0783c1.4363,-1.4406,3.2431,-1.7825,4.4736,-0.5483l1.8091,-1.8161c-0.837,-0.8395,-0.3308,-2.1774,0.5108,-3.0214L24,15.2044c-0.8415,0.844,-2.1755,1.3517,-3.0125,0.5123l-1.8091,1.8161c1.4363,1.4406,0.7013,3.2701,-0.5293,4.5042L11.7107,15.0783z" fill="#6485C3"/>
    </g>
  </g>
</svg>
