<?xml version="1.0" encoding="UTF-8"?>
<!DOCTYPE svg PUBLIC "-//W3C//DTD SVG 1.1//EN" "http://www.w3.org/Graphics/SVG/1.1/DTD/svg11.dtd">
<svg version="1.1" id="Layer_1" xmlns="http://www.w3.org/2000/svg" xmlns:xlink="http://www.w3.org/1999/xlink" x="0px" y="0px" width="24px" height="24px" viewBox="0 0 24 24" enable-background="new 0 0 24 24" xml:space="preserve">
  <g id="icon">
    <path d="M12,0C5.3726,0,0,5.3726,0,12s5.3726,12,12,12s12,-5.3726,12,-12S18.6274,0,12,0zM12.4242,19.6357c-2.261,0,-4.4379,-1.0004,-5.8884,-2.61V19.75h-2.2V12.7h6.6v2.2h-3.264c0.9737,1.5153,2.8491,2.5357,4.7524,2.5357c2.169,0,4.1364,-1.3645,4.8954,-3.3954l2.0607,0.7702C18.3017,17.6966,15.5063,19.6357,12.4242,19.6357zM19.65,11.3h-6.6V9.1h3.264c-0.9737,-1.5153,-2.8491,-2.5357,-4.7524,-2.5357c-2.169,0,-4.1363,1.3645,-4.8954,3.3954l-2.0607,-0.7702c1.0787,-2.8861,3.8742,-4.8252,6.9562,-4.8252c2.261,0,4.4379,1.0004,5.8884,2.61V4.25h2.2V11.3z" fill="#6485C3"/>
    <path d="M6.5358,19.75h-2.2V12.7h6.6v2.2h-3.264c0.9737,1.5153,2.8491,2.5357,4.7524,2.5357c2.169,0,4.1364,-1.3645,4.8954,-3.3954l2.0607,0.7702c-1.0787,2.8861,-3.8741,4.8252,-6.9562,4.8252c-2.261,0,-4.4379,-1.0004,-5.8884,-2.61V19.75zM19.65,4.25h-2.2v2.7243c-1.4505,-1.6096,-3.6274,-2.61,-5.8884,-2.61c-3.082,0,-5.8774,1.9391,-6.9562,4.8252l2.0607,0.7702c0.7591,-2.0309,2.7264,-3.3954,4.8954,-3.3954c1.9033,0,3.7787,1.0204,4.7524,2.5357H13.05v2.2h6.6V4.25z" fill="#FFFFFF"/>
  </g>
</svg>
