<?xml version="1.0" encoding="UTF-8"?>
<!DOCTYPE svg PUBLIC "-//W3C//DTD SVG 1.1//EN" "http://www.w3.org/Graphics/SVG/1.1/DTD/svg11.dtd">
<svg version="1.1" id="Layer_1" xmlns="http://www.w3.org/2000/svg" xmlns:xlink="http://www.w3.org/1999/xlink" x="0px" y="0px" width="16px" height="16px" viewBox="0 0 16 16" enable-background="new 0 0 16 16" xml:space="preserve">
  <g id="main">
    <g id="icon">
      <path d="M9.931,2.379L10.48,3.316L8.982,4.171L8.817,4.337L8.762,4.55L8.817,4.763L8.982,4.929L10.48,5.784L8.568,9.057L7.053,8.191L6.828,8.133L6.617,8.193L6.461,8.346L6.4,8.57L6.4,10.2L4.7,10.2L2.6,10.2L2.1,10.2L2.028,10.27L7.753,16L16,7.693L16,2.791L15.94,2.483L15.77,2.232L15.52,2.062L15.21,2L10.31,2zM13.81,3.584L14.18,3.83L14.42,4.194L14.51,4.64L14.42,5.086L14.18,5.45L13.81,5.696L13.37,5.786L12.92,5.696L12.56,5.45L12.31,5.086L12.22,4.64L12.31,4.194L12.56,3.83L12.92,3.584L13.37,3.494zz" fill="#6485C3"/>
    </g>
    <g id="overlay">
      <polygon points="3.8,9 3.8,5.7501 0.8689,7.425 0.1689,6.225 3.1,4.55 0.1689,2.875 0.8689,1.675 3.8,3.3499 3.8,0 5.2,0 5.2,3.3499 8.1311,1.675 8.8311,2.875 5.9,4.55 8.8311,6.225 8.1311,7.425 5.2,5.7501 5.2,9" fill="#EEAC55" stroke-linejoin="miter"/>
    </g>
  </g>
</svg>
