<?xml version="1.0" encoding="UTF-8"?>
<!DOCTYPE svg PUBLIC "-//W3C//DTD SVG 1.1//EN" "http://www.w3.org/Graphics/SVG/1.1/DTD/svg11.dtd">
<svg version="1.1" id="Layer_1" xmlns="http://www.w3.org/2000/svg" xmlns:xlink="http://www.w3.org/1999/xlink" x="0px" y="0px" width="16px" height="16px" viewBox="0 0 16 16" enable-background="new 0 0 16 16" xml:space="preserve">
  <g id="main">
    <g id="icon">
      <path d="M10.2,2.838L10.48,3.316L8.982,4.171L8.817,4.337L8.762,4.55L8.817,4.763L8.982,4.929L10.48,5.784L8.568,9.057L7.053,8.191L6.828,8.133L6.617,8.193L6.461,8.346L6.4,8.57L6.4,10.2L4.7,10.2L3.107,10.2L7.983,15.04L15.3,7.797L15.21,2.978L15.16,2.844L15.02,2.789L10.25,2.789zM13.27,4.12L13.65,4.376L13.9,4.756L13.99,5.221L13.9,5.686L13.65,6.066L13.27,6.322L12.82,6.415L12.36,6.322L11.99,6.066L11.73,5.686L11.64,5.221L11.73,4.756L11.99,4.376L12.36,4.12L12.82,4.026zz" fill="#FFFFFF" opacity="0.5"/>
      <path d="M9.81,2.172L10.33,3.07L10.4,3.005L14.73,3.005L14.91,3.083L14.99,3.272L14.99,7.595L7.993,14.58L3.611,10.2L2.6,10.2L2.187,10.2L7.995,16L16,8.009L16,3.272L15.97,3.016L15.9,2.777L15.63,2.373L15.22,2.1L14.98,2.026L14.73,2L9.981,2zM8.982,4.171L8.817,4.337L8.762,4.55L8.782,4.629L9.576,3.831zz" fill="#6485C3"/>
      <path d="M12.48,3.692L12.19,3.782L11.93,3.924L11.7,4.113L11.51,4.342L11.37,4.604L11.28,4.894L11.25,5.204L11.28,5.515L11.37,5.805L11.51,6.067L11.7,6.296L11.93,6.484L12.19,6.627L12.48,6.717L12.79,6.748L13.1,6.717L13.39,6.627L13.66,6.484L13.88,6.296L14.07,6.067L14.22,5.805L14.31,5.515L14.34,5.204L14.31,4.894L14.22,4.604L14.07,4.342L13.88,4.113L13.66,3.924L13.39,3.782L13.1,3.692L12.79,3.66zM13.08,4.533L13.31,4.69L13.46,4.921L13.52,5.204L13.46,5.487L13.31,5.719L13.08,5.875L12.79,5.932L12.51,5.875L12.28,5.719L12.12,5.487L12.06,5.204L12.12,4.921L12.28,4.69L12.51,4.533L12.79,4.476zz" fill="#6485C3"/>
    </g>
    <g id="overlay">
      <polygon points="3.8,9 3.8,5.7501 0.8689,7.425 0.1689,6.225 3.1,4.55 0.1689,2.875 0.8689,1.675 3.8,3.3499 3.8,0 5.2,0 5.2,3.3499 8.1311,1.675 8.8311,2.875 5.9,4.55 8.8311,6.225 8.1311,7.425 5.2,5.7501 5.2,9" fill="#EEAC55" stroke-linejoin="miter"/>
    </g>
  </g>
</svg>
