<?xml version="1.0" encoding="UTF-8"?>
<!DOCTYPE svg PUBLIC "-//W3C//DTD SVG 1.1//EN" "http://www.w3.org/Graphics/SVG/1.1/DTD/svg11.dtd">
<svg version="1.1" id="Layer_1" xmlns="http://www.w3.org/2000/svg" xmlns:xlink="http://www.w3.org/1999/xlink" x="0px" y="0px" width="16px" height="16px" viewBox="0 0 16 16" enable-background="new 0 0 16 16" xml:space="preserve">
  <g id="icon">
    <path d="M15,15H1V4h14V15z" fill="#FFFFFF"/>
    <path d="M12,3.5h-1V1.5083c0,-0.2803,-0.228,-0.5083,-0.5083,-0.5083H5.5083C5.228,1,5,1.228,5,1.5083V3.5H4V1.5083C4,0.6767,4.6767,0,5.5083,0h4.9833C11.3233,0,12,0.6767,12,1.5083V3.5z" fill="#6D6E71"/>
    <path d="M0,3v13h16V3H0zM15,15H1V4h14V15z" fill="#6D6E71"/>
    <rect y="9" width="16" height="1" fill="#6D6E71"/>
    <rect x="3" y="8" width="3" height="4" fill="#6485C3"/>
    <rect x="10" y="8" width="3" height="4" fill="#6485C3"/>
  </g>
</svg>
