<?xml version="1.0" encoding="UTF-8"?>
<!DOCTYPE svg PUBLIC "-//W3C//DTD SVG 1.1//EN" "http://www.w3.org/Graphics/SVG/1.1/DTD/svg11.dtd">
<svg version="1.1" id="Layer_1" xmlns="http://www.w3.org/2000/svg" xmlns:xlink="http://www.w3.org/1999/xlink" x="0px" y="0px" width="16px" height="16px" viewBox="0 0 16 16" enable-background="new 0 0 16 16" xml:space="preserve">
  <g id="icon">
    <path d="M8.9326,12.8H5.982c-0.3302,0,-0.6664,-0.0707,-0.982,-0.2013v1.5978l1.2132,1.3447l0.0405,0.04c0.3272,0.2887,0.7471,0.433,1.167,0.433c0.4199,0,0.8398,-0.1443,1.167,-0.4331L10,14.2163v-1.6536C9.6569,12.716,9.2889,12.8,8.9326,12.8z" fill="#6E6F72"/>
    <path d="M7.4741,0C4.6849,0,2.5,2.2487,2.5,5.1193c0,1.5833,0.979,2.7983,1.1094,2.9531c0.3005,0.4012,0.6273,1.4118,0.6273,1.9439v0.3656c0,0.9535,0.9198,1.618,1.7453,1.618h2.9506c0.8489,0,1.7983,-0.6919,1.7983,-1.618v-0.2988c0,-0.5729,0.2992,-1.5544,0.5845,-1.9225C11.4505,8.0059,12.5,6.7498,12.5,5.1194C12.5,2.2965,10.2454,0,7.4741,0z" fill="#EEAD56"/>
  </g>
</svg>
