<?xml version="1.0" encoding="UTF-8"?>
<!DOCTYPE svg PUBLIC "-//W3C//DTD SVG 1.1//EN" "http://www.w3.org/Graphics/SVG/1.1/DTD/svg11.dtd">
<svg version="1.1" id="Layer_1" xmlns="http://www.w3.org/2000/svg" xmlns:xlink="http://www.w3.org/1999/xlink" x="0px" y="0px" width="32px" height="32px" viewBox="0 0 32 32" enable-background="new 0 0 32 32" xml:space="preserve">
  <g id="icon">
    <path d="M23.5048,8.6343l-0.2165,-0.0974c-1.3368,-0.6011,-3.208,-0.96,-5.0054,-0.96c-3.0739,0,-5.9149,1.1687,-7.9996,3.2907c-1.9794,2.0149,-3.1146,4.7653,-3.1146,7.5458c0,3.8745,2.63,5.9017,5.228,5.9017c2.6161,0,4.6792,-1.126,6.2873,-3.4372c0.075,0.9212,0.3534,1.6354,0.831,2.1292c0.5588,0.5776,1.3701,0.8583,2.4803,0.8583c3.9389,0,7.9263,-3.535,7.9263,-10.2913c0,-3.5052,-1.2519,-6.6763,-3.525,-8.9292C24.0567,2.3258,20.8512,1.1,17.1266,1.1c-4.5842,0,-8.7288,1.7524,-11.6705,4.9346C2.647,9.0732,1.1,13.1671,1.1,17.5623c0,3.9483,1.373,7.3458,3.9707,9.8252c2.442,2.3309,5.7749,3.6146,9.3846,3.6146c3.0938,0,5.5014,-0.5281,7.8065,-1.7123l0.239,-0.1229l-0.9079,-2.3771l-0.3016,0.1647c-1.7146,0.9372,-3.9146,1.4325,-6.3622,1.4325c-6.4438,0,-10.7732,-4.4513,-10.7732,-11.0766c0,-7.9264,5.31,-13.6793,12.626,-13.6793c6.2465,0,10.1269,3.9226,10.1269,10.237c0,4.5348,-2.2113,7.3419,-4.2602,7.3421c-0.0273,0,-0.0544,-0.0005,-0.0843,-0.0016c-0.4767,-0.0141,-0.6611,-0.1786,-0.7583,-0.3011c-0.3892,-0.4905,-0.3578,-1.7212,0.1024,-3.9932L23.5048,8.6343zM19.411,11.0868l-0.8561,4.4487c-0.4696,2.5788,-2.6912,5.463,-4.9614,5.463c-1.6166,0,-2.5437,-1.0535,-2.5437,-2.8905c0,-3.9333,2.9999,-7.2564,6.5508,-7.2564C18.4623,10.8517,19.0678,10.9832,19.411,11.0868z" fill="#3E79B4"/>
  </g>
</svg>
