<?xml version="1.0" encoding="UTF-8"?>
<!DOCTYPE svg PUBLIC "-//W3C//DTD SVG 1.1//EN" "http://www.w3.org/Graphics/SVG/1.1/DTD/svg11.dtd">
<svg version="1.1" id="Layer_1" xmlns="http://www.w3.org/2000/svg" xmlns:xlink="http://www.w3.org/1999/xlink" x="0px" y="0px" width="16px" height="16px" viewBox="0 0 16 16" enable-background="new 0 0 16 16" xml:space="preserve">
  <g id="icon">
    <path d="M12.5167,14.3h-6.475C4.7484,14.3,3.7,13.2516,3.7,11.9583v-9.475C3.7,2.0507,4.0507,1.7,4.4833,1.7H10.25L13.3,4.8v8.7167C13.3,13.9493,12.9493,14.3,12.5167,14.3z" id="b" fill="#F5F5F5"/>
    <path d="M13.5607,4.3535l-2.9143,-2.9142C10.3651,1.158,9.9836,1,9.5858,1H5c-1.1046,0,-2,0.8954,-2,2v1.5c0,0.2761,0.2239,0.5,0.5,0.5h0c0.2761,0,0.5,-0.2239,0.5,-0.5V3c0,-0.5523,0.4477,-1,1,-1h4v2.5c0,0.8284,0.6716,1.5,1.5,1.5h2.5v7c0,0.5523,-0.4477,1,-1,1h-2c-0.2761,0,-0.5,0.2239,-0.5,0.5l0,0c0,0.2761,0.2239,0.5,0.5,0.5h2c1.1046,0,2,-0.8954,2,-2V5.4141C14,5.0163,13.842,4.6348,13.5607,4.3535zM10.5,5c-0.2761,0,-0.5,-0.2239,-0.5,-0.5V2.2071L12.7929,5H10.5z" id="c1" fill="#404040"/>
    <path d="M1.9467,14.9996c-0.2764,0,-0.5233,-0.1035,-0.7138,-0.3135c-0.1657,-0.1827,-0.2457,-0.4062,-0.2313,-0.6461c0.0308,-0.5133,0.4988,-0.9191,0.7502,-1.1372l0.0371,-0.0323c0.5706,-0.4997,1.2258,-0.853,1.8668,-1.1331c0.042,-0.0959,0.0824,-0.1902,0.1216,-0.2816c0.2971,-0.6925,0.5162,-1.3327,0.6621,-1.9375c-0.0259,-0.04,-0.0513,-0.0802,-0.076,-0.1208c-0.2699,-0.4431,-0.4694,-0.9205,-0.5929,-1.419c-0.1082,-0.4367,-0.2165,-1.0708,0.0912,-1.533c0.1577,-0.2369,0.3971,-0.3863,0.6922,-0.4319c0.3749,-0.0582,0.6275,0.0794,0.7736,0.2047c0.3683,0.316,0.4153,0.8438,0.415,1.2684c-0.0003,0.5152,-0.0303,0.974,-0.0916,1.4026c-0.0186,0.1298,-0.0403,0.2607,-0.0652,0.3928c0.3893,0.5001,0.8802,0.9569,1.3429,1.3744c0.1139,-0.0283,0.2301,-0.0565,0.3487,-0.0845c0.5271,-0.1248,1.2489,-0.2957,1.9231,-0.0195c0.5371,0.2202,0.7169,0.5616,0.7732,0.8092c0.0596,0.2624,0.0156,0.5246,-0.1238,0.7384c-0.1412,0.2166,-0.3678,0.3648,-0.6381,0.4173c-0.9471,0.1838,-1.9041,-0.2154,-2.5491,-0.6856c-0.6453,0.1738,-1.2145,0.355,-1.7499,0.556c-0.1482,0.0556,-0.3003,0.1137,-0.4541,0.1754c-0.3122,0.6663,-0.7146,1.37,-1.328,1.9043C2.7264,14.8199,2.311,14.9996,1.9467,14.9996zM5.2639,10.5435c-0.0691,0.2171,-0.1461,0.438,-0.231,0.6634c0.2187,-0.0748,0.4437,-0.147,0.6773,-0.2175C5.5609,10.847,5.4107,10.6982,5.2639,10.5435z" id="c2" fill="#404040"/>
  </g>
</svg>
