<?xml version="1.0" encoding="UTF-8"?>
<!DOCTYPE svg PUBLIC "-//W3C//DTD SVG 1.1//EN" "http://www.w3.org/Graphics/SVG/1.1/DTD/svg11.dtd">
<svg version="1.1" id="Layer_1" xmlns="http://www.w3.org/2000/svg" xmlns:xlink="http://www.w3.org/1999/xlink" x="0px" y="0px" width="16px" height="16px" viewBox="0 0 16 16" enable-background="new 0 0 16 16" xml:space="preserve">
  <g id="icon">
    <path d="M11.5,13.5H4.5c-1.1046,0,-2,-0.8954,-2,-2V4.5c0,-1.1046,0.8954,-2,2,-2h7c1.1046,0,2,0.8954,2,2v7C13.5,12.6046,12.6046,13.5,11.5,13.5z" id="b" fill="#F5F5F5"/>
    <path d="M11.5,14H4.5c-1.3785,0,-2.5,-1.1215,-2.5,-2.5V4.5c0,-1.3785,1.1215,-2.5,2.5,-2.5h7c1.3785,0,2.5,1.1215,2.5,2.5v7C14,12.8785,12.8785,14,11.5,14zM4.5,3c-0.8271,0,-1.5,0.6729,-1.5,1.5v7c0,0.8271,0.6729,1.5,1.5,1.5h7c0.8271,0,1.5,-0.6729,1.5,-1.5V4.5c0,-0.8271,-0.6729,-1.5,-1.5,-1.5H4.5z" id="c1" fill="#404040"/>
    <path d="M11.5,5.5021c0,0.5534,-0.4486,1.0021,-1.0021,1.0021c-0.5534,0,-1.0021,-0.4486,-1.0021,-1.0021S9.9445,4.5,10.4979,4.5C11.0514,4.5,11.5,4.9486,11.5,5.5021z" id="c2" fill="#404040"/>
    <path d="M10.005,12.2749c-0.0913,0,-0.1836,-0.025,-0.2666,-0.0773c-0.9225,-0.5828,-1.6812,-1.4148,-2.3505,-2.1489c-0.8498,-0.9319,-1.5837,-1.7366,-2.2829,-1.6723c-0.5908,0.0544,-1.2941,0.7323,-2.0906,2.0148c-0.1457,0.2346,-0.454,0.3066,-0.6885,0.161c-0.2346,-0.1457,-0.3067,-0.4539,-0.161,-0.6885c0.9979,-1.607,1.903,-2.396,2.8484,-2.4831c1.1788,-0.109,2.1039,0.8873,3.0774,1.9547c0.6572,-0.6029,1.3112,-0.9018,1.9891,-0.9113c1.3342,-0.0166,2.4258,1.0891,3.5821,2.262l0.0545,0.0553c0.1939,0.1966,0.1917,0.5132,-0.0049,0.7071c-0.1966,0.1938,-0.5131,0.1917,-0.7071,-0.0049l-0.0546,-0.0554c-0.9957,-1.0099,-1.9366,-1.9643,-2.8382,-1.9643c-0.006,0,-0.0119,0,-0.0178,0.0001c-0.4216,0.0059,-0.8569,0.2174,-1.3232,0.6445c0.4635,0.482,0.953,0.9369,1.502,1.2837c0.2334,0.1475,0.3032,0.4563,0.1557,0.6897C10.3331,12.1924,10.1708,12.2749,10.005,12.2749z" id="c2" fill="#404040"/>
  </g>
</svg>
