<?xml version="1.0" encoding="UTF-8"?>
<!DOCTYPE svg PUBLIC "-//W3C//DTD SVG 1.1//EN" "http://www.w3.org/Graphics/SVG/1.1/DTD/svg11.dtd">
<svg version="1.1" id="Layer_1" xmlns="http://www.w3.org/2000/svg" xmlns:xlink="http://www.w3.org/1999/xlink" x="0px" y="0px" width="16px" height="16px" viewBox="0 0 16 16" enable-background="new 0 0 16 16" xml:space="preserve">
  <g id="icon">
    <path d="M14.5,4v8c0,0.8284,-0.6716,1.5,-1.5,1.5H3c-0.8284,0,-1.5,-0.6716,-1.5,-1.5V4c0,-0.8284,0.6716,-1.5,1.5,-1.5h10C13.8284,2.5,14.5,3.1716,14.5,4z" id="b" fill="#F5F5F5"/>
    <path d="M15,4v8c0,1.1028,-0.8972,2,-2,2H3c-1.1028,0,-2,-0.8972,-2,-2V4c0,-1.1028,0.8972,-2,2,-2h10C14.1028,2,15,2.8972,15,4zM2,12c0,0.5514,0.4486,1,1,1h10c0.5514,0,1,-0.4486,1,-1V4c0,-0.5514,-0.4486,-1,-1,-1H3c-0.5514,0,-1,0.4486,-1,1V12z" id="c1" fill="#404040"/>
    <path d="M12.5,12H3.5c-0.2761,0,-0.5,-0.2239,-0.5,-0.5V8.5c0,-0.2761,0.2239,-0.5,0.5,-0.5h9c0.2761,0,0.5,0.2239,0.5,0.5v3C13,11.7761,12.7761,12,12.5,12zM4,11h8V9H4V11zM12.5,7h-1c-0.2761,0,-0.5,-0.2239,-0.5,-0.5V4.5c0,-0.2761,0.2239,-0.5,0.5,-0.5h1c0.2761,0,0.5,0.2239,0.5,0.5v2C13,6.7761,12.7761,7,12.5,7zM8,7H3.5c-0.2761,0,-0.5,-0.2239,-0.5,-0.5s0.2239,-0.5,0.5,-0.5h4.5c0.2761,0,0.5,0.2239,0.5,0.5S8.2761,7,8,7zM9,5H3.5c-0.2761,0,-0.5,-0.2239,-0.5,-0.5s0.2239,-0.5,0.5,-0.5h5.5c0.2761,0,0.5,0.2239,0.5,0.5S9.2761,5,9,5z" id="c2" fill="#404040"/>
  </g>
</svg>
