<?xml version="1.0" encoding="UTF-8"?>
<!DOCTYPE svg PUBLIC "-//W3C//DTD SVG 1.1//EN" "http://www.w3.org/Graphics/SVG/1.1/DTD/svg11.dtd">
<svg version="1.1" id="Layer_1" xmlns="http://www.w3.org/2000/svg" xmlns:xlink="http://www.w3.org/1999/xlink" x="0px" y="0px" width="16px" height="16px" viewBox="0 0 16 16" enable-background="new 0 0 16 16" xml:space="preserve">
  <g id="icon">
    <path d="M12.5167,14.3h-6.475C4.7484,14.3,3.7,13.2516,3.7,11.9583v-9.475C3.7,2.0507,4.0507,1.7,4.4833,1.7H10.25L13.3,4.8v8.7167C13.3,13.9493,12.9493,14.3,12.5167,14.3z" id="b" fill="#F5F5F5"/>
    <path d="M13.5607,4.3535l-2.9143,-2.9142C10.3651,1.158,9.9836,1,9.5858,1H5c-1.1046,0,-2,0.8954,-2,2v6c0,0.2761,0.2239,0.5,0.5,0.5h0c0.2761,0,0.5,-0.2239,0.5,-0.5V3c0,-0.5523,0.4477,-1,1,-1h4v2.5c0,0.8284,0.6716,1.5,1.5,1.5h2.5v7c0,0.5523,-0.4477,1,-1,1h0c-0.2761,0,-0.5,0.2239,-0.5,0.5l0,0c0,0.2761,0.2239,0.5,0.5,0.5h0c1.1046,0,2,-0.8954,2,-2V5.4141C14,5.0163,13.842,4.6348,13.5607,4.3535zM10.5,5c-0.2761,0,-0.5,-0.2239,-0.5,-0.5V2.2071L12.7929,5H10.5z" id="c1" fill="#404040"/>
    <path d="M4.2119,16.1c-0.0823,0,-0.1642,-0.0217,-0.2368,-0.0627c-0.2393,-0.1353,-0.3291,-0.4483,-0.2,-0.6978l2.1551,-4.1677c0.0867,-0.1676,0.2543,-0.2717,0.4375,-0.2717c0.0823,0,0.1642,0.0217,0.2368,0.0627c0.2394,0.1353,0.3292,0.4483,0.2001,0.6979l-2.1552,4.1677C4.5628,15.9958,4.3952,16.1,4.2119,16.1L4.2119,16.1zM7.8357,16.0059c-0.1474,0,-0.2861,-0.0673,-0.3806,-0.1846c-0.1742,-0.2161,-0.1482,-0.5408,0.058,-0.7239l1.7915,-1.5907l-1.7953,-1.5942c-0.2062,-0.1831,-0.2323,-0.5079,-0.058,-0.7239c0.0945,-0.1173,0.2333,-0.1846,0.3807,-0.1846c0.118,0,0.2324,0.0439,0.3222,0.1237l2.2374,1.9866c0.1105,0.0981,0.174,0.2411,0.174,0.3923s-0.0634,0.2942,-0.174,0.3924L8.158,15.8822C8.0681,15.9619,7.9537,16.0059,7.8357,16.0059C7.8357,16.0059,7.8357,16.0059,7.8357,16.0059zM2.7746,16.0059c-0.118,0,-0.2324,-0.0439,-0.3223,-0.1237L0.215,13.8956c-0.1105,-0.0981,-0.174,-0.2411,-0.174,-0.3923s0.0634,-0.2942,0.174,-0.3924l2.2334,-1.9831c0.0898,-0.0797,0.2042,-0.1237,0.3223,-0.1237c0.1474,0,0.2861,0.0673,0.3806,0.1846c0.1743,0.2161,0.1482,0.5408,-0.058,0.7239l-1.7915,1.5907l1.7954,1.5942c0.2062,0.1831,0.2322,0.5079,0.058,0.7239C3.0606,15.9386,2.9219,16.0059,2.7746,16.0059z" id="c2" fill="#404040"/>
  </g>
</svg>
