<?xml version="1.0" encoding="UTF-8"?>
<!DOCTYPE svg PUBLIC "-//W3C//DTD SVG 1.1//EN" "http://www.w3.org/Graphics/SVG/1.1/DTD/svg11.dtd">
<svg version="1.1" id="Layer_1" xmlns="http://www.w3.org/2000/svg" xmlns:xlink="http://www.w3.org/1999/xlink" x="0px" y="0px" width="32px" height="32px" viewBox="0 0 32 32" enable-background="new 0 0 32 32" xml:space="preserve">
  <g id="icon">
    <rect x="1.5" y="8.5" width="29" height="21" fill="#FFFFFF" stroke="#383838" stroke-width="1" stroke-miterlimit="10"/>
    <rect x="1.5" y="3.5" width="29" height="5" fill="#92CBEE" stroke="#0964B0" stroke-width="1" stroke-linecap="round" stroke-miterlimit="10"/>
    <path d="M26,5h2v2h-2V5zM22,7h2V5h-2V7zM18,7h2V5h-2V7z" fill="#383838"/>
    <path d="M2,9v20h28V9H2zM5.654,25.625l-0.707,-0.707l4.432,-4.432l-4.432,-4.432l0.707,-0.707l5.139,5.139L5.654,25.625zM18.3,26h-6v-1h6V26z" fill="#78797A"/>
    <path d="M5.3,25.271l4.786,-4.786L5.3,15.7M12.3,25.5h6" fill="none" stroke="#FFFFFF" stroke-width="1" stroke-miterlimit="10"/>
  </g>
</svg>
