<?xml version="1.0" encoding="UTF-8"?>
<!DOCTYPE svg PUBLIC "-//W3C//DTD SVG 1.1//EN" "http://www.w3.org/Graphics/SVG/1.1/DTD/svg11.dtd">
<svg version="1.1" id="Layer_1" xmlns="http://www.w3.org/2000/svg" xmlns:xlink="http://www.w3.org/1999/xlink" x="0px" y="0px" width="32px" height="32px" viewBox="0 0 32 32" enable-background="new 0 0 32 32" xml:space="preserve">
  <g id="main">
    <g id="icon">
      <path d="M0.5,28.5L18.24,28.5L17.91,27.93L17.42,27.88L16.97,27.73L16.56,27.5L16.2,27.21L15.91,26.85L15.69,26.43L15.55,25.98L15.5,25.49L15.5,23.57L15.55,23.08L15.69,22.62L15.91,22.21L16.2,21.85L16.56,21.55L16.97,21.33L17.42,21.18L17.91,21.13L18.27,20.51L18.08,20.06L17.99,19.6L17.98,19.14L18.06,18.68L18.23,18.25L18.47,17.85L18.79,17.51L19.19,17.23L20.85,16.26L21.44,16.02L22.07,15.94L22.7,16.02L23.27,16.25L23.77,16.63L24.16,17.12L24.5,17.11L24.88,17.12L25.27,16.63L25.77,16.25L26.34,16.02L26.97,15.93L27.6,16.02L28.19,16.26L29.5,17.02L29.5,7.5L0.5,7.5zz" fill="#FFFFFF"/>
      <path d="M0,7.5L0,28.5L0,29L0.5,29L18.1,29L18.26,28.61L18.28,28.57L17.95,28L1,28L1,8L29,8L29,16.73L29.86,17.22L30,17.33L30,7.5L30,7L29.5,7L0.5,7L0,7zz" fill="#383838"/>
      <path d="M0.5,7.5L29.5,7.5L29.5,2.5L0.5,2.5zz" fill="#92CBEE"/>
      <path d="M0,2.5L0,7.5L0,8L0.5,8L29.5,8L30,8L30,7.5L30,2.5L30,2L29.5,2L0.5,2L0,2zM29,3L29,7L1,7L1,3zz" fill="#0964B0"/>
      <path d="M17,6L19,6L19,4L17,4zM21,6L23,6L23,4L21,4zM25,6L27,6L27,4L25,4zz" fill="#383838"/>
    </g>
    <g id="overlay">
      <path d="M26.973,31.171c-0.156,0,-0.302,-0.084,-0.379,-0.22l-0.691,-1.188c-0.456,0.122,-0.927,0.184,-1.403,0.184c-0.475,0,-0.945,-0.062,-1.4,-0.183l-0.646,1.176c-0.076,0.141,-0.223,0.228,-0.384,0.228c-0.076,0,-0.152,-0.02,-0.218,-0.059l-1.667,-0.964c-0.206,-0.119,-0.279,-0.376,-0.165,-0.585l0.657,-1.196c-0.678,-0.677,-1.162,-1.514,-1.407,-2.436h-1.334c-0.24,0,-0.436,-0.196,-0.436,-0.436v-1.928c0,-0.24,0.196,-0.436,0.436,-0.436h1.334c0.245,-0.921,0.728,-1.758,1.406,-2.435l-0.651,-1.146c-0.115,-0.207,-0.043,-0.472,0.163,-0.59l1.667,-0.964c0.066,-0.038,0.142,-0.059,0.218,-0.059c0.158,0,0.304,0.086,0.381,0.224l0.644,1.134c0.455,-0.122,0.926,-0.184,1.402,-0.184c0.477,0,0.948,0.062,1.405,0.184l0.689,-1.146c0.078,-0.133,0.222,-0.215,0.376,-0.215c0.076,0,0.152,0.02,0.218,0.059l1.667,0.964c0.101,0.059,0.174,0.153,0.203,0.266c0.03,0.113,0.014,0.231,-0.046,0.332l-0.687,1.143c0.677,0.676,1.159,1.512,1.404,2.432h1.334c0.24,0,0.436,0.196,0.436,0.436v1.928c0,0.24,-0.196,0.436,-0.436,0.436H29.73c-0.245,0.921,-0.728,1.757,-1.405,2.434l0.694,1.193c0.118,0.208,0.046,0.474,-0.161,0.594l-1.667,0.964C27.125,31.151,27.049,31.171,26.973,31.171zM24.5,22.196c-1.287,0,-2.333,1.047,-2.333,2.333c0,1.287,1.047,2.333,2.333,2.333s2.333,-1.047,2.333,-2.333C26.833,23.242,25.787,22.196,24.5,22.196z" fill="#C8C6C4" stroke="#383838" stroke-width="1" stroke-miterlimit="10"/>
    </g>
  </g>
</svg>
