<?xml version="1.0" encoding="UTF-8"?>
<!DOCTYPE svg PUBLIC "-//W3C//DTD SVG 1.1//EN" "http://www.w3.org/Graphics/SVG/1.1/DTD/svg11.dtd">
<svg version="1.1" id="Layer_1" xmlns="http://www.w3.org/2000/svg" xmlns:xlink="http://www.w3.org/1999/xlink" x="0px" y="0px" width="16px" height="16px" viewBox="0 0 16 16" enable-background="new 0 0 16 16" xml:space="preserve">
  <g id="icon">
    <polygon points="13.5,15.5 2.5,15.5 2.5,0.5 10.533,0.5 13.5,3.557" fill="#FFFFFF" stroke-linejoin="miter"/>
    <path d="M6,2.5h3M6,4.5h3M6,6.5h3M7.5,0.5v8.2" fill="#FFFFFF" stroke="#ED8730" stroke-width="1" stroke-miterlimit="10"/>
    <path d="M7.5,12.5L7.5,12.5c-0.75,0,-1.335,-0.647,-1.261,-1.393L6.5,8.5h2l0.261,2.607C8.835,11.853,8.25,12.5,7.5,12.5z" fill="#FFFFFF" stroke="#ED8730" stroke-width="1" stroke-miterlimit="10"/>
    <path d="M10.744,0H2v16h12V3.353L10.744,0zM11,1.693L12.256,3H11V1.693zM3,15V1h7v3h3v11H3z" fill="#383838"/>
  </g>
</svg>
