<?xml version="1.0" encoding="UTF-8"?>
<!DOCTYPE svg PUBLIC "-//W3C//DTD SVG 1.1//EN" "http://www.w3.org/Graphics/SVG/1.1/DTD/svg11.dtd">
<svg version="1.1" id="Layer_1" xmlns="http://www.w3.org/2000/svg" xmlns:xlink="http://www.w3.org/1999/xlink" x="0px" y="0px" width="32px" height="32px" viewBox="0 0 32 32" enable-background="new 0 0 32 32" xml:space="preserve">
  <g id="icon">
    <polygon points="30.5,30.5 8.5,30.5 8.5,1.5 23.5,1.5 30.5,8.5" fill="#FFFFFF" stroke-linejoin="miter"/>
    <path d="M23.707,1H8v13.5h1V2h14v7h7v21H9v-1.5H8v2.5h23V8.293L23.707,1zM24,8V2.707L29.293,8H24z" fill="#383838"/>
    <polyline points="1,17.5 3.587,17.5 3.587,26" fill="none" stroke="#228BCB" stroke-width="1" stroke-miterlimit="10" stroke-linejoin="miter"/>
    <polyline points="14.522,17.5 17.109,17.5 17.109,26" fill="none" stroke="#228BCB" stroke-width="1" stroke-miterlimit="10" stroke-linejoin="miter"/>
    <path d="M9.609,25.63L9.609,25.63c-1.633,0,-2.957,-1.324,-2.957,-2.957v-2.217c0,-1.633,1.324,-2.957,2.957,-2.957h0c1.633,0,2.957,1.324,2.957,2.957v2.217C12.565,24.307,11.242,25.63,9.609,25.63z" fill="none" stroke="#228BCB" stroke-width="1" stroke-miterlimit="10"/>
    <path d="M22.609,25.63L22.609,25.63c-1.633,0,-2.957,-1.324,-2.957,-2.957v-2.217c0,-1.633,1.324,-2.957,2.957,-2.957h0c1.633,0,2.957,1.324,2.957,2.957v2.217C25.565,24.307,24.242,25.63,22.609,25.63z" fill="none" stroke="#228BCB" stroke-width="1" stroke-miterlimit="10"/>
  </g>
</svg>
