<?xml version="1.0" encoding="UTF-8"?>
<!DOCTYPE svg PUBLIC "-//W3C//DTD SVG 1.1//EN" "http://www.w3.org/Graphics/SVG/1.1/DTD/svg11.dtd">
<svg version="1.1" id="Layer_1" xmlns="http://www.w3.org/2000/svg" xmlns:xlink="http://www.w3.org/1999/xlink" x="0px" y="0px" width="16px" height="16px" viewBox="0 0 16 16" enable-background="new 0 0 16 16" xml:space="preserve">
  <g id="icon">
    <polygon points="11.6,0.5 3.5,0.5 3.5,15.5 15.5,15.5 15.5,4.4" fill="#FFFFFF" stroke-linejoin="miter"/>
    <path d="M11.803,0H3v9h1V1h7v4h4v10h-3v1h4V4.189L11.803,0zM12,1.588L14.373,4H12V1.588z" fill="#383838"/>
    <path d="M0,10.5h1.5v5.5M10.5,16v-5.5H9M7.5,13.6v-1c0,-1.105,-0.895,-2,-2,-2h0c-1.105,0,-2,0.895,-2,2v1c0,1.105,0.895,2,2,2h0C6.605,15.6,7.5,14.705,7.5,13.6z" fill="#FFFFFF" stroke="#228BCB" stroke-width="1" stroke-miterlimit="10"/>
  </g>
</svg>
