<?xml version="1.0" encoding="UTF-8"?>
<!DOCTYPE svg PUBLIC "-//W3C//DTD SVG 1.1//EN" "http://www.w3.org/Graphics/SVG/1.1/DTD/svg11.dtd">
<svg version="1.1" id="Layer_1" xmlns="http://www.w3.org/2000/svg" xmlns:xlink="http://www.w3.org/1999/xlink" x="0px" y="0px" width="16px" height="16px" viewBox="0 0 16 16" enable-background="new 0 0 16 16" xml:space="preserve">
  <g id="icon">
    <path d="M0.5,4.5v10h15V4.5H0.5z" fill="#FFFFFF" stroke="#383838" stroke-width="1" stroke-miterlimit="50"/>
    <rect x="0.5" y="1.5" width="15" height="3" fill="#C8C6C4" stroke="#383838" stroke-width="1" stroke-linecap="round" stroke-miterlimit="50"/>
    <path d="M3.5,0v3M12.5,0v3" fill="none" stroke="#383838" stroke-width="1" stroke-miterlimit="50"/>
    <path d="M3.519,8.04c0.031,-0.237,0.096,-0.451,0.194,-0.641c0.098,-0.19,0.224,-0.352,0.377,-0.484c0.154,-0.133,0.331,-0.235,0.531,-0.307c0.2,-0.072,0.419,-0.108,0.655,-0.108c0.205,0,0.406,0.03,0.604,0.089c0.198,0.059,0.373,0.152,0.527,0.277c0.154,0.126,0.278,0.286,0.373,0.48c0.095,0.195,0.143,0.429,0.143,0.702c0,0.226,-0.036,0.436,-0.109,0.63c-0.073,0.195,-0.17,0.381,-0.292,0.558c-0.122,0.178,-0.264,0.352,-0.424,0.522c-0.161,0.171,-0.329,0.345,-0.505,0.522L3.5,12.46v0.04h3.9" fill="#FFFFFF" stroke="#A0519F" stroke-width="1" stroke-miterlimit="50"/>
    <path d="M9.1,11.043c0.006,0.02,0.033,0.137,0.051,0.211c0.018,0.075,0.05,0.163,0.094,0.265c0.044,0.102,0.106,0.209,0.185,0.323c0.079,0.113,0.184,0.218,0.313,0.314c0.129,0.096,0.286,0.176,0.47,0.239c0.184,0.063,0.406,0.095,0.664,0.095c0.292,0,0.548,-0.049,0.766,-0.148c0.219,-0.099,0.401,-0.225,0.547,-0.379c0.146,-0.153,0.256,-0.323,0.33,-0.508c0.074,-0.185,0.111,-0.365,0.111,-0.54c0,-0.207,-0.036,-0.399,-0.106,-0.577c-0.071,-0.178,-0.183,-0.333,-0.336,-0.465c-0.153,-0.132,-0.349,-0.236,-0.588,-0.312c-0.238,-0.076,-0.509,-0.129,-0.844,-0.132v-0.02c0.261,-0.009,0.482,-0.084,0.695,-0.157c0.213,-0.073,0.394,-0.174,0.543,-0.301c0.149,-0.128,0.264,-0.278,0.345,-0.452c0.081,-0.174,0.121,-0.366,0.121,-0.579c0,-0.25,-0.042,-0.464,-0.126,-0.643c-0.084,-0.179,-0.196,-0.326,-0.336,-0.441c-0.14,-0.115,-0.302,-0.199,-0.483,-0.254c-0.182,-0.054,-0.369,-0.082,-0.562,-0.082c-0.221,0,-0.426,0.034,-0.613,0.103c-0.187,0.069,-0.352,0.166,-0.494,0.29c-0.142,0.125,-0.26,0.273,-0.353,0.445c-0.094,0.172,-0.18,0.428,-0.214,0.637" fill="#FFFFFF" stroke="#A0519F" stroke-width="1" stroke-miterlimit="50"/>
  </g>
</svg>
