<?xml version="1.0" encoding="UTF-8"?>
<!DOCTYPE svg PUBLIC "-//W3C//DTD SVG 1.1//EN" "http://www.w3.org/Graphics/SVG/1.1/DTD/svg11.dtd">
<svg version="1.1" id="Layer_1" xmlns="http://www.w3.org/2000/svg" xmlns:xlink="http://www.w3.org/1999/xlink" x="0px" y="0px" width="32px" height="32px" viewBox="0 0 32 32" enable-background="new 0 0 32 32" xml:space="preserve">
  <g id="icon">
    <path d="M0.5,8.5v22h30V8.5H0.5z" fill="#FFFFFF" stroke="#383838" stroke-width="1" stroke-miterlimit="50"/>
    <rect x="0.5" y="3.5" width="30" height="5" fill="#C8C6C4" stroke="#383838" stroke-width="1" stroke-linecap="round" stroke-miterlimit="50"/>
    <path d="M7.5,1v5M25.5,1v5" fill="#FFFFFF" stroke="#383838" stroke-width="1" stroke-miterlimit="50"/>
    <path d="M5.544,16.048c0.073,-0.555,0.225,-1.056,0.455,-1.502c0.23,-0.446,0.525,-0.824,0.885,-1.135c0.36,-0.311,0.775,-0.55,1.244,-0.719c0.47,-0.169,0.981,-0.253,1.534,-0.253c0.48,0,0.951,0.069,1.414,0.208c0.463,0.139,0.875,0.355,1.234,0.649c0.36,0.294,0.651,0.669,0.875,1.125c0.223,0.456,0.335,1.005,0.335,1.646c0,0.529,-0.085,1.021,-0.255,1.477c-0.17,0.456,-0.398,0.892,-0.685,1.309c-0.287,0.416,-0.618,0.825,-0.995,1.224c-0.377,0.4,-0.771,0.808,-1.184,1.224L5.5,26.407V26.5h9.1" fill="#FFFFFF" stroke="#A0519F" stroke-width="1.2" stroke-miterlimit="50"/>
    <path d="M17.1,23.047c0.014,0.047,0.081,0.321,0.127,0.495c0.046,0.175,0.124,0.382,0.233,0.62c0.109,0.239,0.263,0.491,0.461,0.756c0.198,0.266,0.457,0.511,0.779,0.736c0.321,0.225,0.712,0.412,1.171,0.56c0.459,0.148,1.011,0.222,1.654,0.222c0.728,0,1.364,-0.116,1.908,-0.348c0.544,-0.232,0.998,-0.528,1.362,-0.887c0.364,-0.36,0.638,-0.756,0.822,-1.19c0.184,-0.434,0.276,-0.855,0.276,-1.265c0,-0.484,-0.088,-0.934,-0.265,-1.351c-0.177,-0.417,-0.456,-0.78,-0.837,-1.089c-0.382,-0.309,-0.869,-0.553,-1.463,-0.731c-0.594,-0.178,-1.268,-0.303,-2.102,-0.31v-0.047c0.65,-0.02,1.201,-0.197,1.731,-0.369c0.53,-0.171,0.981,-0.407,1.352,-0.706c0.371,-0.299,0.657,-0.652,0.859,-1.059c0.201,-0.407,0.302,-0.859,0.302,-1.356c0,-0.585,-0.104,-1.087,-0.313,-1.507c-0.209,-0.42,-0.488,-0.765,-0.837,-1.034c-0.35,-0.269,-0.751,-0.467,-1.203,-0.595c-0.452,-0.128,-0.919,-0.192,-1.399,-0.192c-0.551,0,-1.06,0.081,-1.526,0.242c-0.466,0.161,-0.876,0.388,-1.23,0.681c-0.353,0.292,-0.647,0.64,-0.88,1.044c-0.233,0.403,-0.448,1.003,-0.533,1.494" fill="#FFFFFF" stroke="#A0519F" stroke-width="1.2" stroke-miterlimit="50"/>
  </g>
</svg>
