<?xml version="1.0" encoding="UTF-8"?>
<!DOCTYPE svg PUBLIC "-//W3C//DTD SVG 1.1//EN" "http://www.w3.org/Graphics/SVG/1.1/DTD/svg11.dtd">
<svg version="1.1" id="Layer_1" xmlns="http://www.w3.org/2000/svg" xmlns:xlink="http://www.w3.org/1999/xlink" x="0px" y="0px" width="16px" height="16px" viewBox="0 0 16 16" enable-background="new 0 0 16 16" xml:space="preserve">
  <g id="icon">
    <polygon points="14.5,15.5 2.5,15.5 2.5,0.5 10.533,0.5 14.5,4.557" fill="#FFFFFF" stroke-linejoin="miter"/>
    <path d="M10.744,0H2v16h13V4.353L10.744,0zM11,1.693L13.256,4H11V1.693zM3,15V1h7v4h4v10H3z" fill="#383838"/>
    <path d="M9,4H4V3h5V4zM9,5H4v1h5V5zM13,7H4v1h9V7zM13,9h-3v1h3V9zM13,11h-3v1h3V11zM13,13h-3v1h3V13z" fill="#78797A" opacity="0.5"/>
    <rect x="4.5" y="9.5" width="4" height="4" fill="#92CBEE" stroke="#0964B0" stroke-width="1" stroke-linecap="round" stroke-miterlimit="10"/>
  </g>
</svg>
