<?xml version="1.0" encoding="UTF-8"?>
<!DOCTYPE svg PUBLIC "-//W3C//DTD SVG 1.1//EN" "http://www.w3.org/Graphics/SVG/1.1/DTD/svg11.dtd">
<svg version="1.1" id="Layer_1" xmlns="http://www.w3.org/2000/svg" xmlns:xlink="http://www.w3.org/1999/xlink" x="0px" y="0px" width="32px" height="32px" viewBox="0 0 32 32" enable-background="new 0 0 32 32" xml:space="preserve">
  <g id="icon">
    <polygon points="23.5,1.5 8.5,1.5 8.5,10 8.5,10 8.5,29 8.5,29 8.5,30.5 30.5,30.5 30.5,8.5" fill="#FFFFFF" stroke-linejoin="miter"/>
    <path d="M23.707,1H8v8.5h1V2h14v7h7v21H9v-1.5H8v2.5h23V8.293L23.707,1zM24,8V2.707L29.293,8H24z" fill="#383838"/>
    <rect x="2.5" y="12.5" width="14" height="11" fill="#FFFFFF"/>
    <path d="M8.581,23.355L6.04,26.7M9.5,23.4v3.6M13.048,26.7l-2.497,-3.346M2.5,12.5v11h14V12.5M1,12.5h17M9.5,12.4v-1.4" fill="none" stroke="#787979" stroke-width="1" stroke-miterlimit="10"/>
    <polygon points="6.5,20.8 12.795,18.005 6.5,15.266" fill="#FFFFFF" stroke="#228BCB" stroke-width="1" stroke-miterlimit="10" stroke-linejoin="miter"/>
  </g>
</svg>
