<?xml version="1.0" encoding="UTF-8"?>
<!DOCTYPE svg PUBLIC "-//W3C//DTD SVG 1.1//EN" "http://www.w3.org/Graphics/SVG/1.1/DTD/svg11.dtd">
<svg version="1.1" id="Layer_1" xmlns="http://www.w3.org/2000/svg" xmlns:xlink="http://www.w3.org/1999/xlink" x="0px" y="0px" width="32px" height="32px" viewBox="0 0 32 32" enable-background="new 0 0 32 32" xml:space="preserve">
  <g id="main">
    <g id="icon">
      <path d="M6.5,29.5L15.5,29.5L15.5,15.5L29.5,15.5L29.5,8.5L21.5,0.5L6.5,0.5zz" fill="#FFFFFF"/>
      <path d="M6,7L7,7L7,1L21,1L21,9L29,9L29,15.5L30,15.5L30,8.293L21.71,0L6,0zM28.29,8L22,8L22,1.707zM6,30L15.5,30L15.5,29L7,29L7,27L6,27zz" fill="#383838"/>
      <path d="M0.5,24.5L15.5,24.5L15.5,15.5L18.5,15.5L18.5,9.5L0.5,9.5zz" fill="#FFFFFF"/>
      <path d="M0,9.5L0,24.5L0,25L0.5,25L15.5,25L15.5,24L1,24L1,10L18,10L18,15.5L19,15.5L19,9.5L19,9L18.5,9L0.5,9L0,9zz" fill="#4EA17E"/>
      <path d="M6,12L1,12L1,13L6,13L6,15L1,15L1,16L6,16L6,18L1,18L1,19L6,19L6,21L1,21L1,22L6,22L6,24L7,24L7,22L12,22L12,24L13,24L13,22L15.5,22L15.5,21L13,21L13,19L15.5,19L15.5,18L13,18L13,16L15.5,16L15.5,15.5L18,15.5L18,15L13,15L13,13L18,13L18,12L13,12L13,10L12,10L12,12L7,12L7,10L6,10zM12,13L12,15L7,15L7,13zM12,16L12,18L7,18L7,16zM12,19L12,21L7,21L7,19zz" fill="#4EA17E" opacity="0.3"/>
    </g>
    <g id="overlay">
      <rect x="17.5" y="17.5" width="14" height="14" fill="#FFFFFF" stroke="#17AB4F" stroke-width="1" stroke-miterlimit="10"/>
      <path d="M21.098,19.6l6.815,9.888M27.913,19.6l-6.815,9.888" fill="#FFFFFF" stroke="#17AB4F" stroke-width="1.2" stroke-miterlimit="10"/>
    </g>
  </g>
</svg>
