<?xml version="1.0" encoding="UTF-8"?>
<!DOCTYPE svg PUBLIC "-//W3C//DTD SVG 1.1//EN" "http://www.w3.org/Graphics/SVG/1.1/DTD/svg11.dtd">
<svg version="1.1" id="Layer_1" xmlns="http://www.w3.org/2000/svg" xmlns:xlink="http://www.w3.org/1999/xlink" x="0px" y="0px" width="16px" height="16px" viewBox="0 0 16 16" enable-background="new 0 0 16 16" xml:space="preserve">
  <g id="main">
    <g id="icon">
      <path d="M3.5,2.933L3.5,12.03L3.5,14.5L5.8,14.5L5.8,5.8L14.5,5.8L14.5,4.557L10.53,0.5L3.5,0.5zz" fill="#FFFFFF"/>
      <path d="M3,0.5L3,2.933L4,2.933L4,1L10.32,1L14,4.761L14,5.8L15,5.8L15,4.557L15,4.353L14.86,4.207L10.89,0.1504L10.74,0L10.53,0L3.5,0L3,0zM3,14.5L3,15L3.5,15L5.8,15L5.8,14L4,14L4,12.03L3,12.03zz" fill="#383838"/>
      <path d="M10,4.5L10,5L10.5,5L14.5,5L14.5,4L11,4L11,0.5L10,0.5zz" fill="#383838"/>
      <path d="M0,5L8,5L8,4L0,4zM0,7L5.8,7L5.8,6L0,6zM0,9L5.8,9L5.8,8L0,8zM0,11L5.8,11L5.8,10L0,10zz" fill="#228BCB"/>
    </g>
    <g id="overlay">
      <rect x="7.5" y="7.5" width="8" height="8" fill="#FFFFFF" stroke="#0964B0" stroke-width="1" stroke-linecap="round" stroke-miterlimit="10"/>
      <path d="M14.108,8.718L12.845,14h-0.035l-1.258,-4.902h-0.034L10.278,14h-0.035L8.991,8.7" fill="none" stroke="#0964B0" stroke-width="1" stroke-miterlimit="10"/>
    </g>
  </g>
</svg>
