<?xml version="1.0" encoding="UTF-8"?>
<!DOCTYPE svg PUBLIC "-//W3C//DTD SVG 1.1//EN" "http://www.w3.org/Graphics/SVG/1.1/DTD/svg11.dtd">
<svg version="1.1" id="Layer_1" xmlns="http://www.w3.org/2000/svg" xmlns:xlink="http://www.w3.org/1999/xlink" x="0px" y="0px" width="32px" height="32px" viewBox="0 0 32 32" enable-background="new 0 0 32 32" xml:space="preserve">
  <g id="icon">
    <polygon points="30.5,30.5 7.5,30.5 7.5,1.5 22.5,1.5 30.5,9.5" fill="#FFFFFF" stroke-linejoin="miter"/>
    <path d="M22.707,1H7v7h1V2h14v8h8v20H8v-2H7v3h24V9.293L22.707,1zM23,9V2.707L29.293,9H23z" fill="#383838"/>
    <rect x="1.5" y="10.5" width="18" height="15" fill="#FFFFFF" stroke="#228BCB" stroke-width="1" stroke-miterlimit="10"/>
    <path d="M19,13.5" fill="none" stroke="#0964B0" stroke-width="1" stroke-miterlimit="10"/>
    <path d="M7.5,11v14M13.5,11v14M2,13.5h17M2,16.5h17M2,19.5h17M2,22.5h17" fill="none" stroke="#228BCB" stroke-width="1" stroke-miterlimit="10" opacity="0.3"/>
  </g>
</svg>
