<?xml version="1.0" encoding="UTF-8"?>
<!DOCTYPE svg PUBLIC "-//W3C//DTD SVG 1.1//EN" "http://www.w3.org/Graphics/SVG/1.1/DTD/svg11.dtd">
<svg version="1.1" id="Layer_1" xmlns="http://www.w3.org/2000/svg" xmlns:xlink="http://www.w3.org/1999/xlink" x="0px" y="0px" width="16px" height="16px" viewBox="0 0 16 16" enable-background="new 0 0 16 16" xml:space="preserve">
  <g id="main">
    <g id="icon">
      <path d="M1.5,14.5L5.8,14.5L5.8,5.8L13.5,5.8L13.5,4.557L9.533,0.5L1.5,0.5zz" fill="#FFFFFF"/>
      <path d="M1,15L5.8,15L5.8,14L2,14L2,1L9,1L9,5L13,5L13,5.8L14,5.8L14,4.353L9.744,0L1,0zM12.26,4L10,4L10,1.693zz" fill="#383838"/>
      <path d="M3,10L5.8,10L5.8,9L3,9zM3,12L5.8,12L5.8,11L3,11zz" fill="#78797A" opacity="0.5"/>
      <path d="M5.189,2.306L2.967,7.589L3.889,7.977L4.549,6.407L5.8,6.407L5.8,5.8L7.686,5.8L6.184,2.303L6.054,2L5.725,2L5.65,2L5.318,2zM6.429,5.407L4.97,5.407L5.692,3.69zz" fill="#228BCB"/>
    </g>
    <g id="overlay">
      <rect x="7.5" y="7.5" width="8" height="8" fill="#FFFFFF" stroke="#0964B0" stroke-width="1" stroke-linecap="round" stroke-miterlimit="10"/>
      <path d="M14.108,8.718L12.845,14h-0.035l-1.258,-4.902h-0.034L10.278,14h-0.035L8.991,8.7" fill="none" stroke="#0964B0" stroke-width="1" stroke-miterlimit="10"/>
    </g>
  </g>
</svg>
