<?xml version="1.0" encoding="UTF-8"?>
<!DOCTYPE svg PUBLIC "-//W3C//DTD SVG 1.1//EN" "http://www.w3.org/Graphics/SVG/1.1/DTD/svg11.dtd">
<svg version="1.1" id="Layer_1" xmlns="http://www.w3.org/2000/svg" xmlns:xlink="http://www.w3.org/1999/xlink" x="0px" y="0px" width="32px" height="32px" viewBox="0 0 32 32" enable-background="new 0 0 32 32" xml:space="preserve">
  <g id="icon">
    <path d="M23.5,1.5H7.5v7.897c0.145,-0.047,0.296,-0.083,0.451,-0.108c0.161,-0.026,0.323,-0.039,0.48,-0.039c0.647,0,1.243,0.217,1.724,0.626c1.013,0.864,1.143,2.217,1.142,3.299c-0.001,1.153,-0.066,2.183,-0.199,3.148c-0.028,0.204,-0.06,0.411,-0.095,0.619c0.632,0.817,1.362,1.529,2.283,2.391c0.113,-0.028,0.228,-0.057,0.342,-0.085c0.703,-0.172,1.577,-0.387,2.534,-0.387c0.725,0,1.395,0.129,1.993,0.382c1.41,0.599,1.888,1.554,2.04,2.25c0.166,0.755,0.034,1.512,-0.371,2.132c-0.081,0.124,-0.171,0.239,-0.27,0.347c0.182,0.223,0.328,0.381,-0.082,0.464c-0.208,0.042,-0.421,0.073,-0.636,0.094c-0.247,0.133,-0.517,0.23,-0.803,0.288c-0.38,0.077,-0.775,0.115,-1.174,0.115c-1.937,0,-3.569,-0.888,-4.491,-1.526c-1.186,0.34,-2.259,0.699,-3.267,1.091c-0.256,0.1,-0.478,0.188,-0.682,0.27c-0.257,0.553,-0.558,1.147,-0.919,1.74V30.5h23V8.5L23.5,1.5z" fill="#FFFFFF"/>
    <path d="M23.707,1H7v8.613c0.289,-0.159,0.609,-0.269,0.951,-0.324c0.016,-0.003,0.033,-0.004,0.049,-0.006V2h15v7h7v21H8v-4.38c-0.284,0.544,-0.613,1.106,-1,1.651V31h24V8.293L23.707,1zM24,8V2.707L29.293,8H24z" fill="#383838"/>
    <path d="M8.243,11.116c1.152,-0.185,1.203,1.313,1.203,2.058c-0.001,0.967,-0.049,1.937,-0.182,2.896c-0.294,2.126,-0.972,4.246,-1.793,6.227c-0.764,1.845,-1.63,3.866,-3.14,5.229c-0.515,0.465,-1.753,1.336,-2.421,0.573c-0.687,-0.784,0.593,-1.856,1.079,-2.297c1.561,-1.417,3.495,-2.27,5.441,-3.027c1.853,-0.721,3.71,-1.257,5.638,-1.73c1.066,-0.262,2.305,-0.548,3.363,-0.098c0.424,0.18,0.852,0.468,0.956,0.943c0.121,0.55,-0.178,1.006,-0.72,1.115c-1.753,0.353,-3.76,-0.565,-5.013,-1.731c-1.678,-1.563,-2.957,-2.729,-4.021,-4.538c-0.51,-0.866,-0.884,-1.792,-1.117,-2.769C7.322,13.157,6.965,11.32,8.243,11.116z" fill="none" stroke="#EE3D3B" stroke-width="1.3" stroke-miterlimit="10"/>
  </g>
</svg>
