<?xml version="1.0" encoding="UTF-8"?>
<!DOCTYPE svg PUBLIC "-//W3C//DTD SVG 1.1//EN" "http://www.w3.org/Graphics/SVG/1.1/DTD/svg11.dtd">
<svg version="1.1" id="Layer_1" xmlns="http://www.w3.org/2000/svg" xmlns:xlink="http://www.w3.org/1999/xlink" x="0px" y="0px" width="16px" height="16px" viewBox="0 0 16 16" enable-background="new 0 0 16 16" xml:space="preserve">
  <g id="icon">
    <polygon points="15.5,15.5 3.5,15.5 3.5,0.5 11.533,0.5 15.5,4.557" fill="#FFFFFF" stroke-linejoin="miter"/>
    <path d="M11.744,0H3v5h1V1h7v4h4v10h-5v1h6V4.353L11.744,0zM12,4V1.693L14.256,4H12z" fill="#383838"/>
    <rect x="1.5" y="7.5" width="7" height="6" fill="#FFFFFF"/>
    <path d="M4.54,13.377L2.67,15.65M5,13.4v2.6M7.274,15.65l-1.748,-2.273M1.5,7.5v6h7V7.5M0,7.5h10M5,7.9V6" fill="none" stroke="#787979" stroke-width="1" stroke-miterlimit="10"/>
    <polygon points="3.5,11.9 6.148,10.503 3.5,9.133" fill="#FFFFFF" stroke="#228BCB" stroke-width="1" stroke-miterlimit="10" stroke-linejoin="miter"/>
  </g>
</svg>
