<?xml version="1.0" encoding="UTF-8"?>
<!DOCTYPE svg PUBLIC "-//W3C//DTD SVG 1.1//EN" "http://www.w3.org/Graphics/SVG/1.1/DTD/svg11.dtd">
<svg version="1.1" id="Layer_1" xmlns="http://www.w3.org/2000/svg" xmlns:xlink="http://www.w3.org/1999/xlink" x="0px" y="0px" width="32px" height="32px" viewBox="0 0 32 32" enable-background="new 0 0 32 32" xml:space="preserve">
  <g id="main">
    <g id="icon">
      <path d="M3.5,29.5L15.5,29.5L15.5,15.5L26.5,15.5L26.5,8.5L18.5,0.5L3.5,0.5zz" fill="#FFFFFF"/>
      <path d="M3,30L15.5,30L15.5,29L4,29L4,1L18,1L18,9L26,9L26,15.5L27,15.5L27,8.293L18.71,0L3,0zM25.29,8L19,8L19,1.707zz" fill="#383838"/>
      <path d="M18,14L23.5,14L23.5,13L18,13zM6.5,17L15.5,17L15.5,16L6.5,16zM6.5,20L15.5,20L15.5,19L6.5,19zM6.5,23L15.5,23L15.5,22L6.5,22zM6.5,26L15.5,26L15.5,25L6.5,25zz" fill="#78797A" opacity="0.5"/>
      <path d="M10.82,3.308L6.466,13.77L7.39,14.16L8.808,10.75L13.96,10.75L15.43,14.2L16.35,13.8L11.89,3.305L11.76,3L11.43,3L11.28,3L10.95,3zM13.54,9.749L9.224,9.749L11.36,4.615zz" fill="#228BCB"/>
    </g>
    <g id="overlay">
      <rect x="17.5" y="17.5" width="14" height="14" fill="#FFFFFF" stroke="#0964B0" stroke-width="1" stroke-linecap="round" stroke-miterlimit="10"/>
      <path d="M29.064,19.631l-2.21,9.419h-0.061l-2.202,-8.928h-0.06l-2.17,8.928h-0.06L20.109,19.6" fill="none" stroke="#0964B0" stroke-width="1.2" stroke-miterlimit="10"/>
    </g>
  </g>
</svg>
