<?xml version="1.0" encoding="UTF-8"?>
<!DOCTYPE svg PUBLIC "-//W3C//DTD SVG 1.1//EN" "http://www.w3.org/Graphics/SVG/1.1/DTD/svg11.dtd">
<svg version="1.1" id="Layer_1" xmlns="http://www.w3.org/2000/svg" xmlns:xlink="http://www.w3.org/1999/xlink" x="0px" y="0px" width="32px" height="32px" viewBox="0 0 32 32" enable-background="new 0 0 32 32" xml:space="preserve">
  <g id="main">
    <g id="icon">
      <path d="M4.5,29.5L15.5,29.5L15.5,15.5L25.5,15.5L25.5,8.5L18.5,1.5L4.5,1.5zz" fill="#FFFFFF"/>
      <path d="M4,1.5L4,29.5L4,30L4.5,30L15.5,30L15.5,29L5,29L5,2L18.29,2L25,8.707L25,15.5L26,15.5L26,8.5L26,8.293L25.85,8.146L18.85,1.146L18.71,1L18.5,1L4.5,1L4,1zz" fill="#383838"/>
      <path d="M18,8.5L18,9L18.5,9L25.5,9L25.5,8L19,8L19,1.5L18,1.5zz" fill="#383838"/>
      <path d="M22,11.5L8,11.5zM22,14.5L8,14.5zz" fill="#FFFFFF"/>
      <path d="M8,12L22,12L22,11L8,11zM8,15L22,15L22,14L8,14zM8,18L15.5,18L15.5,17L8,17zM8,21L15.5,21L15.5,20L8,20zM8,24L15.5,24L15.5,23L8,23zz" fill="#228BCB"/>
    </g>
    <g id="overlay">
      <rect x="17.5" y="17.5" width="14" height="14" fill="#FFFFFF" stroke="#EE3D3B" stroke-width="1" stroke-miterlimit="10"/>
      <path d="M23.632,19.345c0.688,-0.11,0.718,0.784,0.718,1.229c0,0.577,-0.029,1.156,-0.108,1.729c-0.175,1.269,-0.58,2.534,-1.07,3.717c-0.456,1.101,-0.973,2.308,-1.875,3.121c-0.307,0.277,-1.046,0.797,-1.445,0.342c-0.41,-0.468,0.354,-1.108,0.644,-1.371c0.932,-0.846,2.086,-1.355,3.248,-1.807c1.106,-0.43,2.215,-0.751,3.365,-1.033c0.636,-0.156,1.376,-0.327,2.007,-0.059c0.253,0.108,0.509,0.279,0.571,0.563c0.072,0.328,-0.106,0.601,-0.43,0.666c-1.046,0.211,-2.245,-0.337,-2.992,-1.033c-0.866,-0.806,-1.798,-1.684,-2.4,-2.709c-0.304,-0.517,-0.527,-1.07,-0.667,-1.653C23.083,20.564,22.869,19.467,23.632,19.345z" fill="none" stroke="#EE3D3B" stroke-width="1.1" stroke-miterlimit="10"/>
    </g>
  </g>
</svg>
