<?xml version="1.0" encoding="UTF-8"?>
<!DOCTYPE svg PUBLIC "-//W3C//DTD SVG 1.1//EN" "http://www.w3.org/Graphics/SVG/1.1/DTD/svg11.dtd">
<svg version="1.1" id="Layer_1" xmlns="http://www.w3.org/2000/svg" xmlns:xlink="http://www.w3.org/1999/xlink" x="0px" y="0px" width="16px" height="16px" viewBox="0 0 16 16" enable-background="new 0 0 16 16" xml:space="preserve">
  <g id="main">
    <g id="icon">
      <path d="M3.5,2.933L3.5,12.03L3.5,14.5L5.8,14.5L5.8,5.8L14.5,5.8L14.5,4.557L10.53,0.5L3.5,0.5zz" fill="#FFFFFF"/>
      <path d="M3,0.5L3,2.933L4,2.933L4,1L10.32,1L14,4.761L14,5.8L15,5.8L15,4.557L15,4.353L14.86,4.207L10.89,0.1504L10.74,0L10.53,0L3.5,0L3,0zM3,14.5L3,15L3.5,15L5.8,15L5.8,14L4,14L4,12.03L3,12.03zz" fill="#383838"/>
      <path d="M10,4.5L10,5L10.5,5L14.5,5L14.5,4L11,4L11,0.5L10,0.5zz" fill="#383838"/>
      <path d="M0,5L8,5L8,4L0,4zM0,7L5.8,7L5.8,6L0,6zM0,9L5.8,9L5.8,8L0,8zM0,11L5.8,11L5.8,10L0,10zz" fill="#228BCB"/>
    </g>
    <g id="overlay">
      <rect x="7.5" y="7.5" width="8" height="8" fill="#FFFFFF" stroke="#EE3D3B" stroke-width="1" stroke-miterlimit="10"/>
      <path d="M11.064,8.837c0.355,-0.057,0.371,0.405,0.371,0.635c0,0.298,-0.015,0.597,-0.056,0.893c-0.091,0.656,-0.3,1.309,-0.553,1.92c-0.236,0.569,-0.503,1.192,-0.968,1.612c-0.159,0.143,-0.54,0.412,-0.746,0.177c-0.212,-0.242,0.183,-0.572,0.333,-0.708c0.481,-0.437,1.078,-0.7,1.678,-0.933c0.571,-0.222,1.144,-0.388,1.738,-0.534c0.329,-0.081,0.711,-0.169,1.037,-0.03c0.131,0.056,0.263,0.144,0.295,0.291c0.037,0.17,-0.055,0.31,-0.222,0.344c-0.541,0.109,-1.159,-0.174,-1.546,-0.534c-0.447,-0.416,-0.929,-0.87,-1.24,-1.399c-0.157,-0.267,-0.272,-0.553,-0.344,-0.854C10.78,9.467,10.67,8.9,11.064,8.837z" fill="none" stroke="#EE3D3B" stroke-width="0.9" stroke-miterlimit="10"/>
    </g>
  </g>
</svg>
