<?xml version="1.0" encoding="UTF-8"?>
<!DOCTYPE svg PUBLIC "-//W3C//DTD SVG 1.1//EN" "http://www.w3.org/Graphics/SVG/1.1/DTD/svg11.dtd">
<svg version="1.1" id="Layer_1" xmlns="http://www.w3.org/2000/svg" xmlns:xlink="http://www.w3.org/1999/xlink" x="0px" y="0px" width="32px" height="32px" viewBox="0 0 32 32" enable-background="new 0 0 32 32" xml:space="preserve">
  <g id="icon">
    <path d="M27.5,5.5c0,0,-20.833,0,-22.167,0S3.5,4,3.5,4v24c0,1.381,1.119,2.5,2.5,2.5h21.5V5.5z" fill="#FEFEFE"/>
    <path d="M28,5.5H5.5c-1.105,0,-2,-0.895,-2,-2v0c0,-1.105,0.895,-2,2,-2h22.5c-1.1,0,-2.5,0.895,-2.5,2v0C25.5,4.605,26.9,5.5,28,5.5z" fill="#FFFFFF" stroke="#39521D" stroke-width="1" stroke-linecap="square" stroke-miterlimit="10"/>
    <path d="M27.5,5.5v25H6c-1.381,0,-2.5,-1.119,-2.5,-2.5V3.5" fill="none" stroke="#39521D" stroke-width="1" stroke-linecap="square" stroke-miterlimit="10"/>
    <rect x="9.5" y="10.5" width="12" height="6" fill="#FFFFFF" stroke="#7AAE3E" stroke-width="1" stroke-miterlimit="10"/>
  </g>
</svg>
