<?xml version="1.0" encoding="UTF-8"?>
<!DOCTYPE svg PUBLIC "-//W3C//DTD SVG 1.1//EN" "http://www.w3.org/Graphics/SVG/1.1/DTD/svg11.dtd">
<svg version="1.1" id="Layer_1" xmlns="http://www.w3.org/2000/svg" xmlns:xlink="http://www.w3.org/1999/xlink" x="0px" y="0px" width="16px" height="16px" viewBox="0 0 16 16" enable-background="new 0 0 16 16" xml:space="preserve">
  <g id="icon">
    <path d="M3.7,15.5v-0.1h-0.257c-1.564,0,-2.936,-1.45,-2.936,-3.332c0,-0.223,0.06,-0.476,0.193,-0.54c0.038,-0.018,0.103,-0.029,0.141,-0.029h3.902l-0.089,-0.525c-0.291,-1.061,-0.809,-2.172,-1.541,-3.301c-1.036,-1.6,-1.584,-3.055,-1.584,-4.209c0,-1.698,1.138,-2.859,2.898,-2.958L4.548,0.5h8.353c2.07,0,2.544,2.574,2.548,2.601c0.027,0.164,-0.061,0.321,-0.214,0.381c-0.032,0.013,-0.067,0.018,-0.111,0.018h-2.669l0.058,0.307c0.313,1.66,1.002,3.582,1.511,4.572c0.081,0.158,0.162,0.314,0.241,0.466l0.006,0.012c0.632,1.215,1.177,2.265,1.177,3.216c0,2.515,-1.483,3.427,-2.479,3.427H3.7z" fill="#F7DA8E"/>
    <path d="M15.235,3.482C15.2,3.495,15.162,3.5,15.125,3.5l-8.833,0c-0.155,0,-0.289,-0.114,-0.32,-0.272c-0.003,-0.016,-0.288,-1.256,-1.28,-2.138C4.181,0.637,4.148,0.5,4.933,0.5l7.968,0c2.034,0,2.528,2.477,2.548,2.6C15.475,3.257,15.394,3.419,15.235,3.482zM4.679,0.517c-1.842,0,-3.158,1.132,-3.158,2.978c0,1.21,0.613,2.717,1.592,4.228c3.336,5.15,1.34,7.776,0.373,7.776c0.298,0,0.632,0,0.926,0c2.097,0,8.541,0,8.588,0c1.083,0,2.476,-0.999,2.476,-3.422c0,-1.072,-0.694,-2.27,-1.423,-3.689c-0.62,-1.208,-1.313,-3.322,-1.562,-4.872M4.8,11.5l-3.916,0c-0.04,0,-0.105,0.012,-0.141,0.029c-0.152,0.072,-0.193,0.385,-0.193,0.539c0,1.819,1.309,3.382,2.935,3.382" fill="none" stroke="#ED8730" stroke-width="1" stroke-miterlimit="10"/>
    <path d="M4.8,6.5h6.7M5.7,8.5h6.7M6.5,10.5h6.7M6.8,12.5h6.7" fill="none" stroke="#383838" stroke-width="1" stroke-miterlimit="10"/>
  </g>
</svg>
