<?xml version="1.0" encoding="UTF-8"?>
<!DOCTYPE svg PUBLIC "-//W3C//DTD SVG 1.1//EN" "http://www.w3.org/Graphics/SVG/1.1/DTD/svg11.dtd">
<svg version="1.1" id="Layer_1" xmlns="http://www.w3.org/2000/svg" xmlns:xlink="http://www.w3.org/1999/xlink" x="0px" y="0px" width="32px" height="32px" viewBox="0 0 32 32" enable-background="new 0 0 32 32" xml:space="preserve">
  <g id="icon">
    <path d="M7.703,30.5v-0.067h-0.5C4.165,30.433,1.5,27.24,1.5,23.6c0,-0.432,0.116,-0.922,0.375,-1.044c0.073,-0.035,0.199,-0.056,0.274,-0.056h7.512l-0.174,-0.633c-0.568,-2.064,-1.58,-4.223,-3.008,-6.419c-2.023,-3.111,-3.093,-5.941,-3.093,-8.184c0,-3.302,2.221,-5.559,5.658,-5.751L9.281,1.5h16.218c4.022,0,4.943,5.175,4.952,5.227c0.052,0.317,-0.119,0.621,-0.416,0.737c-0.062,0.024,-0.13,0.036,-0.215,0.036h-5.128l0.112,0.593c0.607,3.209,1.945,6.73,2.931,8.643c0.158,0.306,0.314,0.606,0.468,0.901l0.012,0.023c1.226,2.349,2.284,4.377,2.284,6.215c0,4.86,-2.877,6.624,-4.81,6.624H7.703z" fill="#F7DA8E"/>
    <path d="M30.035,7.464c-0.068,0.027,-0.142,0.036,-0.215,0.036l-17.163,0c-0.301,0,-0.561,-0.22,-0.622,-0.527c-0.006,-0.031,-0.559,-2.625,-2.487,-4.331C8.555,1.765,8.492,1.5,10.017,1.5l15.482,0c3.952,0,4.913,4.987,4.952,5.226C30.5,7.029,30.344,7.344,30.035,7.464zM9.523,1.5c-3.578,0,-6.137,2.191,-6.137,5.764c0,2.341,1.19,5.259,3.093,8.184C12.29,24.383,9.754,30.5,7.203,30.5c0.58,0,1.229,0,1.799,0c4.075,0,16.595,0,16.687,0c2.104,0,4.81,-1.933,4.81,-6.624c0,-2.076,-1.349,-4.393,-2.765,-7.14C26.53,14.397,25.184,10.5,24.7,7.5M9.7,22.5l-7.551,0c-0.079,0,-0.203,0.022,-0.274,0.056C1.58,22.695,1.5,23.301,1.5,23.6c0,3.52,2.544,6.933,5.703,6.933" fill="none" stroke="#ED8730" stroke-width="1" stroke-miterlimit="10"/>
    <path d="M9,12.5h13M10.7,15.5h13M12.1,18.5h13M13,21.5h13M13.7,24.5h13" fill="#FFFFFF" stroke="#383838" stroke-width="1" stroke-miterlimit="10"/>
  </g>
</svg>
