<?xml version="1.0" encoding="UTF-8"?>
<!DOCTYPE svg PUBLIC "-//W3C//DTD SVG 1.1//EN" "http://www.w3.org/Graphics/SVG/1.1/DTD/svg11.dtd">
<svg version="1.1" id="Layer_1" xmlns="http://www.w3.org/2000/svg" xmlns:xlink="http://www.w3.org/1999/xlink" x="0px" y="0px" width="32px" height="32px" viewBox="0 0 32 32" enable-background="new 0 0 32 32" xml:space="preserve">
  <g id="icon">
    <path d="M28.5,30.5H3.5V1.5h25V30.5z" fill="#FFFFFF" stroke="#383838" stroke-width="1" stroke-miterlimit="10"/>
    <path d="M13.835,6.443c0.285,-0.302,0.579,-0.533,0.884,-0.691c0.304,-0.159,0.658,-0.238,1.061,-0.238c0.296,0,0.552,0.048,0.768,0.143c0.215,0.095,0.394,0.232,0.537,0.411c0.142,0.179,0.247,0.396,0.314,0.653c0.067,0.256,0.101,0.545,0.101,0.867V11.5M17.214,8.457c-1.289,0.04,-1.959,0.196,-2.588,0.468c-0.628,0.272,-0.942,0.657,-0.942,1.154c0,0.235,0.04,0.436,0.12,0.605c0.08,0.169,0.185,0.308,0.316,0.417c0.131,0.109,0.28,0.191,0.448,0.244c0.168,0.054,0.34,0.081,0.516,0.081c0.282,0,0.538,-0.032,0.767,-0.095s0.441,-0.149,0.635,-0.256c0.194,-0.107,0.375,-0.231,0.54,-0.373c0.166,-0.141,-0.06,0.097,0.091,-0.057M11.163,10.979l-3.125,-2.42l3.125,-2.42M20.341,10.979l3.125,-2.42l-3.125,-2.42" fill="none" stroke="#A0519F" stroke-width="1" stroke-linecap="square" stroke-miterlimit="10"/>
    <path d="M6,14.5h8" fill="none" stroke="#787979" stroke-width="1" stroke-miterlimit="10"/>
    <path d="M6,17.5h8" fill="none" stroke="#787979" stroke-width="1" stroke-miterlimit="10"/>
    <path d="M6,20.5h8" fill="none" stroke="#787979" stroke-width="1" stroke-miterlimit="10"/>
    <path d="M6,23.5h19" fill="none" stroke="#787979" stroke-width="1" stroke-miterlimit="10"/>
    <path d="M6,26.5h19" fill="none" stroke="#787979" stroke-width="1" stroke-miterlimit="10"/>
    <rect x="16.5" y="14.5" width="8" height="6" fill="#FFFFFF" stroke="#228BCB" stroke-width="1" stroke-miterlimit="10"/>
  </g>
</svg>
