<?xml version="1.0" encoding="UTF-8"?>
<!DOCTYPE svg PUBLIC "-//W3C//DTD SVG 1.1//EN" "http://www.w3.org/Graphics/SVG/1.1/DTD/svg11.dtd">
<svg version="1.1" id="Layer_1" xmlns="http://www.w3.org/2000/svg" xmlns:xlink="http://www.w3.org/1999/xlink" x="0px" y="0px" width="16px" height="16px" viewBox="0 0 16 16" enable-background="new 0 0 16 16" xml:space="preserve">
  <g id="icon">
    <path d="M14.5,15.5H1.5V0.5h13V15.5z" fill="#FFFFFF" stroke="#383838" stroke-width="1" stroke-miterlimit="10"/>
    <path d="M6.986,3.16c0.148,-0.156,0.301,-0.275,0.459,-0.358c0.158,-0.082,0.342,-0.123,0.552,-0.123c0.154,0,0.287,0.025,0.399,0.074c0.112,0.049,0.205,0.12,0.279,0.213c0.074,0.093,0.128,0.205,0.163,0.338c0.035,0.133,0.052,0.282,0.052,0.449V5.75M8.736,4.202c-0.67,0.021,-1.019,0.101,-1.346,0.242c-0.327,0.141,-0.49,0.34,-0.49,0.597c0,0.121,0.021,0.226,0.062,0.313c0.041,0.087,0.096,0.159,0.164,0.216c0.068,0.057,0.146,0.099,0.233,0.126c0.087,0.028,0.177,0.042,0.268,0.042c0.147,0,0.28,-0.016,0.399,-0.049s0.229,-0.077,0.33,-0.133s0.195,-0.12,0.281,-0.193c0.086,-0.073,-0.031,0.05,0.047,-0.03M5.069,5.506L3.444,4.255l1.625,-1.252M10.881,5.506l1.625,-1.252l-1.625,-1.252" fill="none" stroke="#A0519F" stroke-width="1" stroke-linecap="square" stroke-miterlimit="10"/>
    <path d="M3,8.5h4M3,10.5h4M3,12.5h4" fill="none" stroke="#787979" stroke-width="1" stroke-miterlimit="10"/>
    <rect x="8.5" y="8.5" width="3.5" height="4" fill="#FFFFFF" stroke="#228BCB" stroke-width="1" stroke-miterlimit="10"/>
  </g>
</svg>
