<?xml version="1.0" encoding="UTF-8"?>
<!DOCTYPE svg PUBLIC "-//W3C//DTD SVG 1.1//EN" "http://www.w3.org/Graphics/SVG/1.1/DTD/svg11.dtd">
<svg version="1.1" id="Layer_1" xmlns="http://www.w3.org/2000/svg" xmlns:xlink="http://www.w3.org/1999/xlink" x="0px" y="0px" width="32px" height="32px" viewBox="0 0 32 32" enable-background="new 0 0 32 32" xml:space="preserve">
  <g id="icon">
    <polygon points="30.5,30.5 8.5,30.5 8.5,1.5 23.5,1.5 30.5,8.5" fill="#FFFFFF" stroke-linejoin="miter"/>
    <path d="M23.707,1H8v9.5h1V2h14v7h7v21H9v-1.5H8v2.5h23V8.293L23.707,1zM24,8V2.707L29.293,8H24z" fill="#383838"/>
    <rect x="3.5" y="12.5" width="9" height="13.9" fill="#92CBEE"/>
    <path d="M14.5,26.5H1.5V12.5h13V26.5zM3.5,12.5v14M1.5,14.5h2M1.5,16.5h2M1.5,18.5h2M1.5,20.5h2M1.5,22.5h2M1.5,24.5h2M12.5,26.5V12.5M12.5,14.5h2M12.5,16.5h2M12.5,18.5h2M12.5,20.5h2M12.5,22.5h2M12.5,24.5h2M3.5,19.5h9" fill="none" stroke="#0964B0" stroke-width="1" stroke-linecap="round" stroke-miterlimit="10"/>
  </g>
</svg>
