<?xml version="1.0" encoding="UTF-8"?>
<!DOCTYPE svg PUBLIC "-//W3C//DTD SVG 1.1//EN" "http://www.w3.org/Graphics/SVG/1.1/DTD/svg11.dtd">
<svg version="1.1" id="Layer_1" xmlns="http://www.w3.org/2000/svg" xmlns:xlink="http://www.w3.org/1999/xlink" x="0px" y="0px" width="32px" height="32px" viewBox="0 0 32 32" enable-background="new 0 0 32 32" xml:space="preserve">
  <g id="icon">
    <rect x="6.5" y="2.5" width="18" height="28" fill="#FFFFFF"/>
    <path d="M27.5,29.5H3.5V2.5h24V29.5zM6.5,2.5v27M3.5,5.5h3M3.5,8.5h3M3.5,11.5h3M3.5,14.5h3M3.5,17.5h3M3.5,20.5h3M3.5,23.5h3M3.5,26.5h3M6.5,16.5h18M24.5,29.5V2.5M27.5,5.5h-3M27.5,8.5h-3M27.5,11.5h-3M27.5,14.5h-3M27.5,17.5h-3M27.5,20.5h-3M27.5,23.5h-3M27.5,26.5h-3" fill="none" stroke="#383838" stroke-width="1" stroke-miterlimit="10"/>
  </g>
</svg>
