<?xml version="1.0" encoding="UTF-8"?>
<!DOCTYPE svg PUBLIC "-//W3C//DTD SVG 1.1//EN" "http://www.w3.org/Graphics/SVG/1.1/DTD/svg11.dtd">
<svg version="1.1" id="Layer_1" xmlns="http://www.w3.org/2000/svg" xmlns:xlink="http://www.w3.org/1999/xlink" x="0px" y="0px" width="16px" height="16px" viewBox="0 0 16 16" enable-background="new 0 0 16 16" xml:space="preserve">
  <g id="icon">
    <polygon points="11.6,0.5 3.5,0.5 3.5,15.5 15.5,15.5 15.5,4.4" fill="#FFFFFF" stroke-linejoin="miter"/>
    <path d="M11.803,0H3v5.5h1V1h7v4h4v10h-4.5v1h5.5V4.189L11.803,0zM12,1.588L14.373,4H12V1.588z" fill="#383838"/>
    <rect x="2.5" y="7.5" width="4.1" height="8" fill="#92CBEE"/>
    <path d="M8.5,15.5H0.5V7.5h8V15.5zM2.5,7.5v8M0.5,9.5h2M0.5,13.5h2M6.5,15.5V7.5M6.5,9.5h2M0.5,11.5h2M6.5,11.5h2M6.5,13.5h2" fill="none" stroke="#0964B0" stroke-width="1" stroke-linecap="round" stroke-miterlimit="10"/>
  </g>
</svg>
