<?xml version="1.0" encoding="UTF-8"?>
<!DOCTYPE svg PUBLIC "-//W3C//DTD SVG 1.1//EN" "http://www.w3.org/Graphics/SVG/1.1/DTD/svg11.dtd">
<svg version="1.1" id="Layer_1" xmlns="http://www.w3.org/2000/svg" xmlns:xlink="http://www.w3.org/1999/xlink" x="0px" y="0px" width="16px" height="16px" viewBox="0 0 16 16" enable-background="new 0 0 16 16" xml:space="preserve">
  <g id="main">
    <g id="icon">
      <path d="M7.528,1.563L6.598,1.688L5.741,1.893L4.98,2.172L4.367,2.503L3.911,2.879L3.62,3.3L3.52,3.74L3.52,12.26L3.62,12.7L3.911,13.12L4.367,13.5L4.98,13.83L5.741,14.11L6.598,14.31L7.528,14.44L8.088,14.46L8.417,12.63L8.112,12.51L7.831,12.35L7.581,12.13L7.364,11.88L7.135,11.46L7.016,11.01L7.01,10.54L7.117,10.08L8.728,5.833L8.986,5.37L9.365,5.012L9.833,4.782L10.36,4.7L13.5,4.7L13.5,3.74L13.4,3.3L13.11,2.879L12.65,2.503L12.04,2.172L11.28,1.893L10.42,1.688L9.492,1.563L8.51,1.52zz" fill="#F5F5F5"/>
      <path d="M7.476,1.066L6.494,1.199L5.586,1.418L4.776,1.715L4.079,2.094L3.548,2.535L3.32,2.817L3.154,3.115L3.054,3.424L3.02,3.74L3.02,12.26L3.054,12.58L3.154,12.89L3.32,13.18L3.548,13.47L4.079,13.91L4.776,14.28L5.587,14.58L6.494,14.8L7.476,14.93L8.01,14.96L8.033,14.77L8.175,13.98L7.58,13.95L6.702,13.84L5.896,13.64L5.182,13.38L4.655,13.1L4.27,12.79L4.076,12.52L4,12.26L4,5.341L4.045,5.362L4.776,5.765L5.587,6.062L6.494,6.28L7.476,6.414L8.491,6.459L8.728,5.833L8.939,5.454L8.51,5.472L7.58,5.433L6.702,5.315L5.896,5.124L5.182,4.864L4.655,4.58L4.27,4.268L4.078,4L4.013,3.74L4.078,3.48L4.27,3.212L4.655,2.9L5.182,2.616L5.896,2.356L6.702,2.165L7.58,2.047L8.51,2.007L9.44,2.047L10.32,2.165L11.12,2.356L11.84,2.616L12.36,2.9L12.75,3.212L12.94,3.48L13.01,3.74L12.94,4L12.75,4.268L12.37,4.58L12.14,4.7L13.93,4.7L14,4.708L14,3.74L13.97,3.424L13.87,3.115L13.7,2.817L13.47,2.535L12.94,2.094L12.24,1.715L11.43,1.418L10.53,1.199L9.544,1.066L8.51,1.02zz" fill="#404040"/>
    </g>
    <g id="overlay">
      <path d="M8.7314,10.652c-0.0416,0.1151,-0.0012,0.244,0.108,0.3137c0.044,0.0281,0.0967,0.0402,0.149,0.0404l1.2243,0.0045c0.0318,0.0001,0.0581,0.0044,0.0779,0.0125c0.1017,0.0419,0.1565,0.1427,0.1332,0.2452l-0.7165,3.885c-0.0241,0.1307,0.1414,0.21,0.2305,0.1104l5.357,-5.8829h-2.4252c-0.0463,0,-0.0867,-0.0093,-0.117,-0.027c-0.0891,-0.0519,-0.1306,-0.1527,-0.1031,-0.2477l1.3518,-2.7008h-3.6572L8.7314,10.652z" fill="#F5F5F5"/>
      <path d="M9.8557,16c-0.2623,0,-0.5174,-0.1214,-0.6824,-0.3248c-0.1613,-0.1988,-0.218,-0.4497,-0.1597,-0.7066l0.5836,-3.2579l-0.621,-0.0023c-0.3217,-0.0012,-0.6122,-0.1508,-0.7972,-0.4106c-0.1849,-0.2598,-0.229,-0.5802,-0.1211,-0.8792l1.6074,-4.2365c0.1038,-0.2876,0.3834,-0.4822,0.6949,-0.4822h3.5711c0.2402,0,0.4585,0.1103,0.599,0.3026c0.1404,0.1923,0.1774,0.4315,0.1015,0.6564l-0.0036,0.0107l-1.0428,2.0059h1.6743c0.3017,0,0.5623,0.1703,0.68,0.4445c0.1177,0.2742,0.0603,0.5773,-0.1497,0.7911l-5.3238,5.8249C10.2979,15.9077,10.0824,16,9.8557,16zM10.2138,10.7367c0.0683,0.0002,0.1301,0.0115,0.1838,0.0336c0.2246,0.0925,0.3495,0.3271,0.2971,0.5578l-0.6214,3.3706l4.6059,-5.0441h-1.8095c-0.096,0,-0.1852,-0.0225,-0.2582,-0.065c-0.2056,-0.1198,-0.2971,-0.358,-0.2224,-0.5793l0.0032,-0.0094l1.1547,-2.3217h-3.0104l-1.5409,4.0574L10.2138,10.7367z" fill="#0891b2"/>
    </g>
  </g>
</svg>
