<?xml version="1.0" encoding="UTF-8"?>
<!DOCTYPE svg PUBLIC "-//W3C//DTD SVG 1.1//EN" "http://www.w3.org/Graphics/SVG/1.1/DTD/svg11.dtd">
<svg version="1.1" id="Layer_1" xmlns="http://www.w3.org/2000/svg" xmlns:xlink="http://www.w3.org/1999/xlink" x="0px" y="0px" width="16px" height="16px" viewBox="0 0 16 16" enable-background="new 0 0 16 16" xml:space="preserve">
  <g id="main">
    <g id="icon">
      <path d="M7.528,1.563L6.598,1.688L5.741,1.893L4.98,2.172L4.367,2.503L3.911,2.879L3.62,3.3L3.52,3.74L3.52,12.26L3.62,12.7L3.911,13.12L4.367,13.5L4.98,13.83L5.741,14.11L6.598,14.31L7,14.37L7,13.1L7.029,12.79L7.113,12.5L7.247,12.22L7.429,11.98L7.236,11.66L7.118,11.32L7.076,10.96L7.113,10.59L7.375,9.746L7.772,8.972L8.289,8.283L8.911,7.691L9.623,7.21L10.41,6.85L11.25,6.625L12.14,6.547L13.07,6.63L13.5,6.749L13.5,3.74L13.4,3.3L13.11,2.879L12.65,2.503L12.04,2.172L11.28,1.893L10.42,1.688L9.492,1.563L8.51,1.52zz" fill="#F5F5F5"/>
      <path d="M7.476,1.066L6.494,1.199L5.586,1.418L4.776,1.715L4.079,2.094L3.548,2.535L3.32,2.817L3.154,3.115L3.054,3.424L3.02,3.74L3.02,12.26L3.054,12.58L3.154,12.89L3.32,13.18L3.548,13.47L4.079,13.91L4.776,14.28L5.587,14.58L6.494,14.8L7,14.87L7,13.88L6.702,13.84L5.896,13.64L5.182,13.38L4.655,13.1L4.27,12.79L4.076,12.52L4,12.26L4,5.341L4.045,5.362L4.776,5.765L5.587,6.062L6.494,6.28L7.476,6.414L8.51,6.46L9.544,6.414L10.53,6.28L11.43,6.062L12.24,5.765L12.98,5.362L13.01,5.341L13.01,6.625L13.07,6.63L13.96,6.876L14,6.833L14,3.74L13.97,3.424L13.87,3.115L13.7,2.817L13.47,2.535L12.94,2.094L12.24,1.715L11.43,1.418L10.53,1.199L9.544,1.066L8.51,1.02zM9.44,2.047L10.32,2.165L11.12,2.356L11.84,2.616L12.36,2.9L12.75,3.212L12.94,3.48L13.01,3.74L12.94,4L12.75,4.268L12.37,4.58L11.84,4.864L11.12,5.124L10.32,5.315L9.44,5.433L8.51,5.472L7.58,5.433L6.702,5.315L5.896,5.124L5.182,4.864L4.655,4.58L4.27,4.268L4.078,4L4.013,3.74L4.078,3.48L4.27,3.212L4.655,2.9L5.182,2.616L5.896,2.356L6.702,2.165L7.58,2.047L8.51,2.007zz" fill="#404040"/>
    </g>
    <g id="overlay">
      <path d="M8.7662,11.6351c-0.2097,0,-0.4055,-0.0939,-0.5375,-0.2576c-0.1308,-0.1623,-0.1808,-0.3718,-0.1374,-0.5749c0.4038,-1.8861,2.1066,-3.255,4.0489,-3.255c0.9043,0,1.7684,0.2882,2.4817,0.8201v-0.4815c0,-0.3783,0.3091,-0.6862,0.6891,-0.6862c0.0222,0,0.0447,0.001,0.0673,0.0033c0.3482,0.0329,0.6217,0.3388,0.6217,0.6964v2.1765c0.0003,0.265,-0.156,0.5079,-0.3941,0.6206l-0.0643,0.0638l-0.0845,-0.0052l-0.0037,0.0028l-0.0835,0.0044l-2.2564,0.0035c-0.1939,0,-0.3796,-0.0815,-0.5098,-0.2235c-0.1309,-0.1427,-0.1955,-0.3353,-0.1771,-0.5284c0.033,-0.3475,0.3398,-0.62,0.6985,-0.6205l0.5636,-0.0008c-0.455,-0.3048,-0.9954,-0.4729,-1.5485,-0.4729c-1.2954,0,-2.4313,0.9117,-2.701,2.1677C9.3711,11.4048,9.0881,11.6351,8.7662,11.6351zM9.3781,15.2896v-0.4814c0.7133,0.5319,1.5774,0.8201,2.4817,0.8201c1.9422,0,3.645,-1.369,4.0489,-3.2551c0.0435,-0.2031,-0.0066,-0.4127,-0.1374,-0.5749c-0.1319,-0.1637,-0.3278,-0.2576,-0.5375,-0.2576c-0.3219,0,-0.605,0.2302,-0.6731,0.5475c-0.2697,1.256,-1.4056,2.1677,-2.701,2.1677c-0.5531,0,-1.0935,-0.1681,-1.5485,-0.4729l0.5636,-0.0008c0.3587,-0.0005,0.6655,-0.2731,0.6985,-0.6205c0.0184,-0.1931,-0.0462,-0.3857,-0.1771,-0.5284c-0.1302,-0.142,-0.3159,-0.2235,-0.5098,-0.2235l-2.1649,0.0032l-0.0066,-0.0017l-0.0448,0.0019l-0.04,0l-0.0835,0.0044l-0.0036,0.0027l-0.0841,-0.0053l-0.0648,0.064c-0.2382,0.1127,-0.3946,0.3558,-0.3943,0.6208v2.1765c0,0.3575,0.2736,0.6635,0.6225,0.6965c0.0224,0.0021,0.0446,0.0032,0.0667,0.0032C9.0691,15.9758,9.3781,15.6679,9.3781,15.2896z" fill="#0891b2"/>
    </g>
  </g>
</svg>
