<?xml version="1.0" encoding="UTF-8"?>
<!DOCTYPE svg PUBLIC "-//W3C//DTD SVG 1.1//EN" "http://www.w3.org/Graphics/SVG/1.1/DTD/svg11.dtd">
<svg version="1.1" id="Layer_1" xmlns="http://www.w3.org/2000/svg" xmlns:xlink="http://www.w3.org/1999/xlink" x="0px" y="0px" width="16px" height="16px" viewBox="0 0 16 16" enable-background="new 0 0 16 16" xml:space="preserve">
  <g id="main">
    <g id="icon">
      <path d="M7.335,1.534L6.69,1.632L6.067,1.792L5.47,2.011L4.902,2.285L4.366,2.61L3.865,2.984L3.404,3.404L2.984,3.865L2.61,4.366L2.285,4.902L2.011,5.47L1.792,6.067L1.632,6.69L1.534,7.335L1.5,8L1.534,8.665L1.632,9.31L1.792,9.933L2.011,10.53L2.285,11.1L2.61,11.63L2.984,12.13L3.404,12.6L3.865,13.02L4.366,13.39L4.902,13.72L5.47,13.99L6.067,14.21L6.69,14.37L6.834,14.39L6.641,14.07L6.368,13.48L6.167,12.85L6.043,12.19L6,11.5L6.029,10.94L6.112,10.39L6.248,9.866L6.433,9.361L6.665,8.88L6.941,8.427L7.257,8.004L7.613,7.613L8.004,7.257L8.427,6.941L8.88,6.665L9.361,6.433L9.866,6.248L10.39,6.112L10.94,6.029L11.5,6L12.19,6.043L12.85,6.167L13.48,6.368L14.07,6.641L14.39,6.834L14.37,6.69L14.21,6.067L13.99,5.47L13.72,4.902L13.39,4.366L13.02,3.865L12.6,3.404L12.13,2.984L11.63,2.61L11.1,2.285L10.53,2.011L9.933,1.792L9.31,1.632L8.665,1.534L8,1.5zz" fill="#FFFFFF"/>
      <path d="M7.285,1.036L6.591,1.142L5.921,1.315L5.278,1.551L4.666,1.846L4.089,2.197L3.55,2.6L3.053,3.053L2.6,3.55L2.197,4.089L1.846,4.666L1.551,5.278L1.315,5.921L1.142,6.591L1.036,7.285L1,8L1.036,8.715L1.142,9.409L1.315,10.08L1.551,10.72L1.846,11.33L2.197,11.91L2.6,12.45L3.053,12.95L3.55,13.4L4.089,13.8L4.666,14.15L5.278,14.45L5.921,14.68L6.591,14.86L7.238,14.96L6.98,14.63L6.641,14.07L6.519,13.81L6.218,13.73L5.667,13.53L5.142,13.27L4.648,12.97L4.186,12.63L3.759,12.24L3.372,11.81L3.026,11.35L2.725,10.86L2.472,10.33L2.27,9.782L2.122,9.208L2.031,8.612L2,8L2.031,7.388L2.122,6.792L2.27,6.218L2.472,5.667L2.725,5.142L3.026,4.648L3.372,4.186L3.759,3.759L4.186,3.372L4.648,3.026L5.142,2.725L5.667,2.472L6.218,2.27L6.792,2.122L7.388,2.031L8,2L8.612,2.031L9.208,2.122L9.782,2.27L10.33,2.472L10.86,2.725L11.35,3.026L11.81,3.372L12.24,3.759L12.63,4.186L12.97,4.648L13.27,5.142L13.53,5.667L13.73,6.218L13.81,6.519L14.07,6.641L14.63,6.98L14.96,7.238L14.86,6.591L14.68,5.921L14.45,5.278L14.15,4.666L13.8,4.089L13.4,3.55L12.95,3.053L12.45,2.6L11.91,2.197L11.33,1.846L10.72,1.551L10.08,1.315L9.409,1.142L8.715,1.036L8,1zz" fill="#404040"/>
      <path d="M2,6L11.5,6L14,6L14,5L2,5zM2,11L6.025,11L6.029,10.94L6.112,10.39L6.213,10L2,10zz" fill="#404040"/>
      <path d="M7.054,1.261L6.61,1.822L6.21,2.48L5.859,3.227L5.562,4.054L5.323,4.953L5.146,5.916L5.038,6.934L5,8L5.038,9.066L5.146,10.08L5.323,11.05L5.562,11.95L5.859,12.77L6.21,13.52L6.61,14.18L7.054,14.74L7.067,14.74L6.98,14.63L6.641,14.07L6.368,13.48L6.167,12.85L6.043,12.19L6,11.5L6.029,10.94L6.112,10.39L6.156,10.22L6.112,9.996L6,9.02L5.961,8L6,6.98L6.112,6.004L6.293,5.082L6.536,4.229L6.834,3.456L7.181,2.776L7.572,2.202L8,1.746L8.428,2.202L8.819,2.776L9.166,3.456L9.464,4.229L9.707,5.082L9.888,6.004L9.914,6.235L10.39,6.112L10.87,6.039L10.85,5.916L10.68,4.953L10.44,4.054L10.14,3.227L9.79,2.48L9.39,1.822L8.946,1.261L8.119,1.2L8,1.202L7.881,1.2zz" fill="#404040"/>
    </g>
    <g id="overlay">
      <circle cx="11.55" cy="11.55" r="3" fill="#F5F5F5" stroke="#00A651" stroke-width="0.1" stroke-miterlimit="10"/>
      <path d="M11.5,7c-2.4853,0,-4.5,2.0147,-4.5,4.5c0,2.4853,2.0147,4.5,4.5,4.5c2.4853,0,4.5,-2.0147,4.5,-4.5C16,9.0147,13.9853,7,11.5,7zM13.5,12H9.5c-0.2761,0,-0.5,-0.2239,-0.5,-0.5s0.2239,-0.5,0.5,-0.5h4c0.2761,0,0.5,0.2239,0.5,0.5S13.7761,12,13.5,12z" fill="#BE123C"/>
    </g>
  </g>
</svg>
