<?xml version="1.0" encoding="UTF-8"?>
<!DOCTYPE svg PUBLIC "-//W3C//DTD SVG 1.1//EN" "http://www.w3.org/Graphics/SVG/1.1/DTD/svg11.dtd">
<svg version="1.1" id="Layer_1" xmlns="http://www.w3.org/2000/svg" xmlns:xlink="http://www.w3.org/1999/xlink" x="0px" y="0px" width="16px" height="16px" viewBox="0 0 16 16" enable-background="new 0 0 16 16" xml:space="preserve">
  <g id="main">
    <g id="icon">
      <path d="M7.335,1.534L6.69,1.632L6.067,1.792L5.47,2.011L4.902,2.285L4.366,2.61L3.865,2.984L3.404,3.404L2.984,3.865L2.61,4.366L2.285,4.902L2.011,5.47L1.792,6.067L1.632,6.69L1.534,7.335L1.5,8L1.534,8.665L1.632,9.31L1.792,9.933L2.011,10.53L2.285,11.1L2.61,11.63L2.984,12.13L3.404,12.6L3.865,13.02L4.366,13.39L4.902,13.72L5.47,13.99L6.067,14.21L6.69,14.37L7.335,14.47L8,14.5L8.082,14.5L8.417,12.63L8.112,12.51L7.831,12.35L7.581,12.13L7.364,11.88L7.135,11.46L7.016,11.01L7.01,10.54L7.117,10.08L8.728,5.833L8.986,5.37L9.365,5.012L9.833,4.782L10.36,4.7L13.59,4.7L13.39,4.366L13.02,3.865L12.6,3.404L12.13,2.984L11.63,2.61L11.1,2.285L10.53,2.011L9.933,1.792L9.31,1.632L8.665,1.534L8,1.5zz" fill="#F5F5F5"/>
      <path d="M7.285,1.036L6.591,1.142L5.921,1.315L5.278,1.551L4.666,1.846L4.089,2.197L3.55,2.6L3.053,3.053L2.6,3.55L2.197,4.089L1.846,4.666L1.551,5.278L1.315,5.921L1.142,6.591L1.036,7.285L1,8L1.036,8.715L1.142,9.409L1.315,10.08L1.551,10.72L1.846,11.33L2.197,11.91L2.6,12.45L3.053,12.95L3.55,13.4L4.089,13.8L4.666,14.15L5.278,14.45L5.921,14.68L6.591,14.86L7.285,14.96L8,15L8.004,15L8.033,14.77L8.173,13.99L8,14L7.388,13.97L6.792,13.88L6.218,13.73L5.667,13.53L5.142,13.27L4.648,12.97L4.186,12.63L3.759,12.24L3.372,11.81L3.026,11.35L2.725,10.86L2.472,10.33L2.27,9.782L2.122,9.208L2.031,8.612L2,8L2.031,7.388L2.122,6.792L2.27,6.218L2.472,5.667L2.725,5.142L3.026,4.648L3.372,4.186L3.759,3.759L4.186,3.372L4.648,3.026L5.142,2.725L5.667,2.472L6.218,2.27L6.792,2.122L7.388,2.031L8,2L8.612,2.031L9.208,2.122L9.782,2.27L10.33,2.472L10.86,2.725L11.35,3.026L11.81,3.372L12.24,3.759L12.63,4.186L12.97,4.648L13.01,4.7L13.93,4.7L14.18,4.729L14.15,4.666L13.8,4.089L13.4,3.55L12.95,3.053L12.45,2.6L11.91,2.197L11.33,1.846L10.72,1.551L10.08,1.315L9.409,1.142L8.715,1.036L8,1zz" fill="#404040"/>
      <path d="M2.451,4.615L3.047,4.931L3.678,5.209L5.03,5.643L6.481,5.909L8,6L8.68,5.959L8.728,5.833L8.986,5.37L9.365,5.012L9.652,4.871L9.392,4.918L8,5L6.608,4.918L5.301,4.681L4.102,4.306L3.036,3.806zM11.9,4.306L10.7,4.681L10.6,4.7L13.39,4.7L13.55,4.615L12.96,3.806zM6.481,10.1L5.03,10.36L3.678,10.8L3.047,11.08L2.451,11.39L3.036,12.2L4.102,11.7L5.301,11.32L6.608,11.09L7.031,11.06L7.016,11.01L7.01,10.54L7.117,10.08L7.125,10.06zz" fill="#404040"/>
      <path d="M1.5,8.5L7.716,8.5L8.096,7.5L1.5,7.5zz" fill="#404040"/>
      <path d="M7.054,1.261L6.61,1.822L6.21,2.48L5.859,3.227L5.562,4.054L5.323,4.953L5.146,5.916L5.038,6.934L5,8L5.038,9.066L5.146,10.08L5.323,11.05L5.562,11.95L5.859,12.77L6.21,13.52L6.61,14.18L7.054,14.74L7.881,14.8L8,14.8L8.029,14.8L8.033,14.77L8.155,14.09L8,14.25L7.572,13.8L7.181,13.22L6.834,12.54L6.536,11.77L6.293,10.92L6.112,9.996L6,9.02L5.961,8L6,6.98L6.112,6.004L6.293,5.082L6.536,4.229L6.834,3.456L7.181,2.776L7.572,2.202L8,1.746L8.428,2.202L8.819,2.776L9.166,3.456L9.464,4.229L9.647,4.873L9.833,4.782L10.36,4.7L10.61,4.7L10.44,4.054L10.14,3.227L9.79,2.48L9.39,1.822L8.946,1.261L8.119,1.2L8,1.202L7.881,1.2zz" fill="#404040"/>
    </g>
    <g id="overlay">
      <path d="M8.7314,10.652c-0.0416,0.1151,-0.0012,0.244,0.108,0.3137c0.044,0.0281,0.0967,0.0402,0.149,0.0404l1.2243,0.0045c0.0318,0.0001,0.0581,0.0044,0.0779,0.0125c0.1017,0.0419,0.1565,0.1427,0.1332,0.2452l-0.7165,3.885c-0.0241,0.1307,0.1414,0.21,0.2305,0.1104l5.357,-5.8829h-2.4252c-0.0463,0,-0.0867,-0.0093,-0.117,-0.027c-0.0891,-0.0519,-0.1306,-0.1527,-0.1031,-0.2477l1.3518,-2.7008h-3.6572L8.7314,10.652z" id="b" fill="#FFFFFF"/>
      <path d="M9.8557,16c-0.2623,0,-0.5174,-0.1214,-0.6824,-0.3248c-0.1613,-0.1988,-0.218,-0.4497,-0.1597,-0.7066l0.5836,-3.2579l-0.621,-0.0023c-0.3217,-0.0012,-0.6122,-0.1508,-0.7972,-0.4106c-0.1849,-0.2598,-0.229,-0.5802,-0.1211,-0.8792l1.6074,-4.2365c0.1038,-0.2876,0.3834,-0.4822,0.6949,-0.4822h3.5711c0.2402,0,0.4585,0.1103,0.599,0.3026c0.1404,0.1923,0.1774,0.4315,0.1015,0.6564l-0.0036,0.0107l-1.0428,2.0059h1.6743c0.3017,0,0.5623,0.1703,0.68,0.4445c0.1177,0.2742,0.0603,0.5773,-0.1497,0.7911l-5.3238,5.8249C10.2979,15.9077,10.0824,16,9.8557,16zM10.2138,10.7367c0.0683,0.0002,0.1301,0.0115,0.1838,0.0336c0.2246,0.0925,0.3495,0.3271,0.2971,0.5578l-0.6214,3.3706l4.6059,-5.0441h-1.8095c-0.096,0,-0.1852,-0.0225,-0.2582,-0.065c-0.2056,-0.1198,-0.2971,-0.358,-0.2224,-0.5793l0.0032,-0.0094l1.1547,-2.3217h-3.0104l-1.5409,4.0574L10.2138,10.7367z" id="c2" fill="#0891B2"/>
    </g>
  </g>
</svg>
