<?xml version="1.0" encoding="UTF-8"?>
<!DOCTYPE svg PUBLIC "-//W3C//DTD SVG 1.1//EN" "http://www.w3.org/Graphics/SVG/1.1/DTD/svg11.dtd">
<svg version="1.1" id="Layer_1" xmlns="http://www.w3.org/2000/svg" xmlns:xlink="http://www.w3.org/1999/xlink" x="0px" y="0px" width="16px" height="16px" viewBox="0 0 16 16" enable-background="new 0 0 16 16" xml:space="preserve">
  <g id="icon">
    <path d="M9,1.4928c-2.3357,0,-4.3304,1.4548,-5.131,3.5072h2.7588C7.9358,5,9,6.0691,9,7.3832v5.124c3.0415,0,5.5072,-2.4656,5.5072,-5.5072S12.0415,1.4928,9,1.4928z" id="b" fill="#FFFFFF"/>
    <path d="M14.9931,6.7088c-0.1447,-3.0434,-2.5951,-5.5216,-5.6368,-5.6984c-0.1196,-0.007,-0.2382,-0.0092,-0.3563,-0.0092c-0.1181,0,-0.2367,0.0023,-0.3563,0.0092C6.56,1.1315,4.7545,2.3331,3.7772,4.0562C3.5384,4.4774,3.8398,5,4.324,5h2.3038c0.5464,0,1.0498,0.187,1.4513,0.5H9h1.5553c0.0673,0.4848,0.1035,0.9889,0.1035,1.5s-0.0362,1.0152,-0.1035,1.5H9.5c-0.2761,0,-0.5,0.2239,-0.5,0.5v0c0,0.2761,0.2239,0.5,0.5,0.5h0.8653c-0.2553,1.0441,-0.6639,1.934,-1.1745,2.5095c-0.0006,0,-0.0013,0,-0.0019,0.0001c-0.1054,0.004,-0.1889,0.0901,-0.1889,0.1956v0.1161c0,0.3843,0.3364,0.6818,0.718,0.6361C12.7828,12.5902,15.1449,9.9035,14.9931,6.7088zM6.6438,4.5H4.6561c0.6156,-1.0654,1.6109,-1.8844,2.8003,-2.2702C7.1014,2.8756,6.8257,3.6467,6.6438,4.5zM9,4.5H7.6347c0.2553,-1.0441,0.6639,-1.934,1.1745,-2.5095c0.0634,-0.0024,0.1268,-0.0048,0.1908,-0.0048s0.1274,0.0025,0.1908,0.0048C9.7013,2.566,10.11,3.4559,10.3653,4.5H9zM10.5435,2.2298C11.733,2.6156,12.7283,3.4346,13.3439,4.5h-1.9876C11.1743,3.6467,10.8986,2.8756,10.5435,2.2298zM10.5435,11.7702c0.355,-0.6458,0.6308,-1.4169,0.8127,-2.2702h1.9876C12.7283,10.5654,11.733,11.3844,10.5435,11.7702zM13.7849,8.5h-2.2642c0.0583,-0.4845,0.0903,-0.986,0.0903,-1.5s-0.032,-1.0155,-0.0903,-1.5h2.2642c0.1489,0.4738,0.2294,0.9777,0.2294,1.5C14.0143,7.5223,13.9338,8.0262,13.7849,8.5z" id="c1" fill="#404040"/>
    <path d="M6.2139,14.4736H2.8306c-0.7226,0,-1.3083,-0.1858,-1.3083,-0.9083V7.3899c0,-0.7226,0.5858,-0.9083,1.3083,-0.9083h3.3833c0.7226,0,1.3083,0.1858,1.3083,0.9083v6.1753C7.5222,14.2878,6.9365,14.4736,6.2139,14.4736z" id="b" fill="#FFFFFF"/>
    <path d="M6.6278,6H2.3722C1.6156,6,1,6.6205,1,7.3832v6.2336C1,14.3795,1.6156,15,2.3722,15h4.2555C7.3844,15,8,14.3795,8,13.6168V7.3832C8,6.6205,7.3844,6,6.6278,6zM2.3722,7h4.2555C6.833,7,7,7.1672,7,7.3727V9H2V7.3727C2,7.1672,2.167,7,2.3722,7zM6.6278,14H2.3722C2.167,14,2,13.8296,2,13.6202V10h5v3.6202C7,13.8296,6.833,14,6.6278,14zM5.5,12c0,0.5523,-0.4477,1,-1,1s-1,-0.4477,-1,-1s0.4477,-1,1,-1S5.5,11.4477,5.5,12z" id="c1" fill="#0891B2"/>
  </g>
</svg>
