<?xml version="1.0" encoding="UTF-8"?>
<!DOCTYPE svg PUBLIC "-//W3C//DTD SVG 1.1//EN" "http://www.w3.org/Graphics/SVG/1.1/DTD/svg11.dtd">
<svg version="1.1" id="Layer_1" xmlns="http://www.w3.org/2000/svg" xmlns:xlink="http://www.w3.org/1999/xlink" x="0px" y="0px" width="16px" height="16px" viewBox="0 0 16 16" enable-background="new 0 0 16 16" xml:space="preserve">
  <g id="main">
    <g id="icon">
      <path d="M7.335,1.534L6.69,1.632L6.067,1.792L5.47,2.011L4.902,2.285L4.366,2.61L3.865,2.984L3.404,3.404L2.984,3.865L2.61,4.366L2.285,4.902L2.011,5.47L1.792,6.067L1.632,6.69L1.534,7.335L1.5,8L1.534,8.665L1.632,9.31L1.792,9.933L2.011,10.53L2.285,11.1L2.61,11.63L2.984,12.13L3.404,12.6L3.865,13.02L4.366,13.39L4.902,13.72L5.47,13.99L6.067,14.21L6.334,14.28L6.744,13.04L6.972,12.56L7.305,12.14L12.71,6.737L13.09,6.421L13.52,6.19L13.99,6.048L14.19,6.028L13.99,5.47L13.72,4.902L13.39,4.366L13.02,3.865L12.6,3.404L12.13,2.984L11.63,2.61L11.1,2.285L10.53,2.011L9.933,1.792L9.31,1.632L8.665,1.534L8,1.5zz" fill="#F5F5F5"/>
      <path d="M7.285,1.036L6.591,1.142L5.921,1.315L5.278,1.551L4.666,1.846L4.089,2.197L3.55,2.6L3.053,3.053L2.6,3.55L2.197,4.089L1.846,4.666L1.551,5.278L1.315,5.921L1.142,6.591L1.036,7.285L1,8L1.036,8.715L1.142,9.409L1.315,10.08L1.551,10.72L1.846,11.33L2.197,11.91L2.6,12.45L3.053,12.95L3.55,13.4L4.089,13.8L4.666,14.15L5.278,14.45L5.921,14.68L6.176,14.75L6.492,13.8L6.218,13.73L5.667,13.53L5.142,13.27L4.648,12.97L4.186,12.63L3.759,12.24L3.372,11.81L3.026,11.35L2.725,10.86L2.472,10.33L2.27,9.782L2.122,9.208L2.031,8.612L2,8L2.031,7.388L2.122,6.792L2.27,6.218L2.472,5.667L2.725,5.142L3.026,4.648L3.372,4.186L3.759,3.759L4.186,3.372L4.648,3.026L5.142,2.725L5.667,2.472L6.218,2.27L6.792,2.122L7.388,2.031L8,2L8.612,2.031L9.208,2.122L9.782,2.27L10.33,2.472L10.86,2.725L11.35,3.026L11.81,3.372L12.24,3.759L12.63,4.186L12.97,4.648L13.27,5.142L13.53,5.667L13.7,6.136L13.99,6.048L14.48,6L14.71,6.018L14.68,5.921L14.45,5.278L14.15,4.666L13.8,4.089L13.4,3.55L12.95,3.053L12.45,2.6L11.91,2.197L11.33,1.846L10.72,1.551L10.08,1.315L9.409,1.142L8.715,1.036L8,1zz" fill="#404040"/>
      <path d="M2.451,4.615L3.047,4.931L3.678,5.209L5.03,5.643L6.481,5.909L8,6L9.519,5.909L10.97,5.643L12.32,5.209L12.95,4.931L13.55,4.615L12.96,3.806L11.9,4.306L10.7,4.681L9.392,4.918L8,5L6.608,4.918L5.301,4.681L4.102,4.306L3.036,3.806zM6.481,10.1L5.03,10.36L3.678,10.8L3.047,11.08L2.451,11.39L3.036,12.2L4.102,11.7L5.301,11.32L6.608,11.09L8,11.01L8.412,11.03L9.355,10.09L8,10.01zz" fill="#404040"/>
      <path d="M1.5,8.5L10.94,8.5L11.94,7.5L1.5,7.5zz" fill="#404040"/>
      <path d="M7.054,1.261L6.61,1.822L6.21,2.48L5.859,3.227L5.562,4.054L5.323,4.953L5.146,5.916L5.038,6.934L5,8L5.038,9.066L5.146,10.08L5.323,11.05L5.562,11.95L5.859,12.77L6.21,13.52L6.453,13.92L6.744,13.04L6.91,12.69L6.834,12.54L6.536,11.77L6.293,10.92L6.112,9.996L6,9.02L5.961,8L6,6.98L6.112,6.004L6.293,5.082L6.536,4.229L6.834,3.456L7.181,2.776L7.572,2.202L8,1.746L8.428,2.202L8.819,2.776L9.166,3.456L9.464,4.229L9.707,5.082L9.888,6.004L10,6.98L10.04,8L10,9.02L9.945,9.497L10.98,8.458L11,8L10.96,6.934L10.85,5.916L10.68,4.953L10.44,4.054L10.14,3.227L9.79,2.48L9.39,1.822L8.946,1.261L8.119,1.2L8,1.202L7.881,1.2zz" fill="#404040"/>
    </g>
    <g id="overlay">
      <path d="M7.4834,15.5167l0.6679,-2.003c0.041,-0.1229,0.111,-0.2363,0.2027,-0.3279l5.4004,-5.4c0.1951,-0.1951,0.4545,-0.3025,0.7303,-0.3025c0.2759,0,0.5352,0.1074,0.7303,0.3025c0.4027,0.4027,0.4026,1.0579,-0.0001,1.4606l-5.4003,5.3999c-0.0916,0.0916,-0.205,0.1616,-0.3279,0.2026l-2.003,0.6677l0.0001,0L7.4834,15.5167z" id="b" fill="#FFFFFF"/>
      <path d="M7.4837,16c-0.1291,0,-0.2505,-0.0503,-0.3418,-0.1416c-0.1303,-0.1303,-0.1751,-0.3198,-0.1167,-0.4946l0.6676,-2.003c0.0646,-0.1937,0.1751,-0.3724,0.3195,-0.5169l5.4004,-5.4c0.2864,-0.2863,0.6671,-0.444,1.0721,-0.444s0.7857,0.1577,1.072,0.444c0.5911,0.5912,0.5911,1.5531,0,2.1442l-5.4004,5.4c-0.1445,0.1444,-0.3232,0.2549,-0.5168,0.3194l-2.003,0.6676C7.5871,15.9916,7.5357,16,7.4837,16L7.4837,16zM14.4846,7.9666c-0.1467,0,-0.2847,0.0572,-0.3884,0.1609l-5.4004,5.4c-0.0388,0.0388,-0.0686,0.0869,-0.086,0.1391l-0.3619,1.0859l1.086,-0.362c0.0521,-0.0174,0.1001,-0.0471,0.139,-0.086l4.6074,-4.6074l0.0139,-0.0134l0.779,-0.7792c0.1038,-0.1038,0.161,-0.2417,0.161,-0.3885c0,-0.1468,-0.0572,-0.2847,-0.161,-0.3885C14.7693,8.0238,14.6313,7.9666,14.4846,7.9666z" fill="#0891B2"/>
    </g>
  </g>
</svg>
