<?xml version="1.0" encoding="UTF-8"?>
<!DOCTYPE svg PUBLIC "-//W3C//DTD SVG 1.1//EN" "http://www.w3.org/Graphics/SVG/1.1/DTD/svg11.dtd">
<svg version="1.1" id="Layer_1" xmlns="http://www.w3.org/2000/svg" xmlns:xlink="http://www.w3.org/1999/xlink" x="0px" y="0px" width="16px" height="16px" viewBox="0 0 16 16" enable-background="new 0 0 16 16" xml:space="preserve">
  <g id="icon">
    <path d="M14.5,8c0,3.5899,-2.9101,6.5,-6.5,6.5s-6.5,-2.9101,-6.5,-6.5s2.9101,-6.5,6.5,-6.5S14.5,4.4101,14.5,8z" fill="#F5F5F5"/>
    <path d="M8,15c-3.8598,0,-7,-3.1402,-7,-7s3.1402,-7,7,-7s7,3.1402,7,7S11.8598,15,8,15zM8,2c-3.3084,0,-6,2.6916,-6,6s2.6916,6,6,6s6,-2.6916,6,-6S11.3084,2,8,2z" fill="#404040"/>
    <path d="M14,6H2V5h12V6zM14,11H2v-1h12V11z" fill="#404040"/>
    <path d="M8.9457,1.2612C8.6749,1.2222,8.3992,1.2,8.1186,1.2c-0.0397,0,-0.079,0.0016,-0.1186,0.0024C7.9605,1.2016,7.9211,1.2,7.8814,1.2c-0.2806,0,-0.5563,0.0222,-0.8271,0.0612C5.8141,2.6199,5,5.1031,5,8c0,2.8969,0.8141,5.3801,2.0543,6.7388c0.2708,0.0391,0.5465,0.0612,0.8271,0.0612c0.0397,0,0.079,-0.0016,0.1186,-0.0024c0.0395,0.0008,0.0789,0.0024,0.1186,0.0024c0.2806,0,0.5563,-0.0222,0.8271,-0.0612C10.1859,13.3801,11,10.8969,11,8C11,5.1031,10.1859,2.6199,8.9457,1.2612zM8,14.2544C6.8149,13.2065,5.9605,10.7652,5.9605,8S6.8149,2.7935,8,1.7456C9.1851,2.7935,10.0395,5.2348,10.0395,8S9.1851,13.2065,8,14.2544z" fill="#404040"/>
  </g>
</svg>
