<?xml version="1.0" encoding="UTF-8"?>
<!DOCTYPE svg PUBLIC "-//W3C//DTD SVG 1.1//EN" "http://www.w3.org/Graphics/SVG/1.1/DTD/svg11.dtd">
<svg version="1.1" id="Layer_1" xmlns="http://www.w3.org/2000/svg" xmlns:xlink="http://www.w3.org/1999/xlink" x="0px" y="0px" width="16px" height="16px" viewBox="0 0 16 16" enable-background="new 0 0 16 16" xml:space="preserve">
  <g id="icon">
    <path d="M14.5072,7c0,3.0415,-2.4656,5.5072,-5.5072,5.5072V7.8449c0,-0.5605,-0.2333,-1.1101,-0.6571,-1.5476c-0.2883,-0.2976,-0.666,-0.5495,-1.1227,-0.7489c-0.7518,-0.3282,-1.7179,-0.509,-2.7202,-0.509c-0.2218,0,-0.4411,0.0103,-0.6574,0.0276C4.6255,2.9792,6.6388,1.4928,9,1.4928C12.0415,1.4928,14.5072,3.9585,14.5072,7z" fill="#F5F5F5"/>
    <path d="M14.9931,6.7088c-0.1447,-3.0434,-2.5951,-5.5216,-5.6368,-5.6984c-0.1196,-0.007,-0.2382,-0.0092,-0.3563,-0.0092c-0.1181,0,-0.2367,0.0023,-0.3563,0.0092C6.5424,1.1325,4.724,2.3534,3.7525,4.1c-0.2366,0.4254,0.0791,0.9526,0.5657,0.9415c0.0604,-0.0014,0.121,-0.0021,0.1817,-0.0021c1.0023,0,1.9684,0.1808,2.7202,0.509c0.0711,0.031,0.1396,0.0638,0.2068,0.0974c0.0061,-0.0485,0.011,-0.0976,0.0177,-0.1457H9h1.5553c0.0673,0.4848,0.1035,0.9889,0.1035,1.5s-0.0362,1.0152,-0.1035,1.5H9.5c-0.2761,0,-0.5,0.2239,-0.5,0.5v0c0,0.2761,0.2239,0.5,0.5,0.5h0.8653c-0.2553,1.0441,-0.6639,1.934,-1.1745,2.5095c-0.0006,0,-0.0013,0,-0.0019,0.0001c-0.1054,0.004,-0.1889,0.0901,-0.1889,0.1956v0.1596c0,0.3612,0.3158,0.6379,0.6747,0.5976C12.7605,12.6154,15.1456,9.9186,14.9931,6.7088zM6.6438,4.5H4.6561c0.6156,-1.0654,1.6109,-1.8844,2.8003,-2.2702C7.1014,2.8756,6.8257,3.6467,6.6438,4.5zM9,4.5H7.6347c0.2553,-1.0441,0.6639,-1.934,1.1745,-2.5095c0.0634,-0.0024,0.1268,-0.0048,0.1908,-0.0048s0.1274,0.0025,0.1908,0.0048C9.7013,2.566,10.11,3.4559,10.3653,4.5H9zM10.5435,2.2298C11.733,2.6156,12.7283,3.4346,13.3439,4.5h-1.9876C11.1743,3.6467,10.8986,2.8756,10.5435,2.2298zM10.5435,11.7702c0.355,-0.6458,0.6308,-1.4169,0.8127,-2.2702h1.9876C12.7283,10.5654,11.733,11.3844,10.5435,11.7702zM13.7849,8.5h-2.2642c0.0583,-0.4845,0.0903,-0.986,0.0903,-1.5s-0.032,-1.0155,-0.0903,-1.5h2.2642c0.1489,0.4738,0.2294,0.9777,0.2294,1.5C14.0143,7.5223,13.9338,8.0262,13.7849,8.5z" fill="#404040"/>
    <path d="M4.5,14.6038c-0.8223,0,-1.5953,-0.1394,-2.1765,-0.3926c-0.2825,-0.123,-0.5043,-0.2662,-0.6591,-0.4256c-0.1575,-0.1622,-0.2407,-0.3415,-0.2407,-0.5187V7.7736c0,-0.1771,0.0832,-0.3565,0.2407,-0.5187c0.1548,-0.1594,0.3766,-0.3026,0.6591,-0.4256c0.5813,-0.2532,1.3543,-0.3926,2.1765,-0.3926s1.5952,0.1394,2.1766,0.3926c0.2825,0.123,0.5042,0.2662,0.6591,0.4256c0.1575,0.1622,0.2407,0.3415,0.2407,0.5186v5.4933c0,0.1772,-0.0832,0.3565,-0.2407,0.5186c-0.1549,0.1595,-0.3766,0.3027,-0.6591,0.4256C6.0953,14.4644,5.3223,14.6038,4.5,14.6038z" fill="#F5F5F5"/>
    <path d="M4.5,15.0013c-0.8678,0,-1.6917,-0.1511,-2.3201,-0.4254c-0.3366,-0.147,-0.6073,-0.3248,-0.8046,-0.5284c-0.2455,-0.2535,-0.3753,-0.548,-0.3753,-0.8518V7.8449c0,-0.3038,0.1298,-0.5983,0.3753,-0.8517c0.1973,-0.2037,0.468,-0.3814,0.8046,-0.5283c0.6283,-0.2744,1.4523,-0.4255,2.3201,-0.4255c0.8678,0,1.6918,0.1511,2.3201,0.4255c0.3365,0.1469,0.6072,0.3246,0.8046,0.5283C7.8702,7.2466,8,7.5411,8,7.8449v5.3509c0,0.3038,-0.1298,0.5983,-0.3753,0.8517c-0.1973,0.2037,-0.468,0.3815,-0.8046,0.5284C6.1917,14.8502,5.3678,15.0013,4.5,15.0013zM2.041,13.1861c0.0061,0.0494,0.0407,0.1078,0.1001,0.1691c0.101,0.1043,0.2638,0.2072,0.4709,0.2975c0.4955,0.2164,1.1661,0.3355,1.888,0.3355c0.722,0,1.3925,-0.1191,1.888,-0.3355c0.2071,-0.0904,0.3699,-0.1933,0.4708,-0.2975c0.0596,-0.0615,0.0924,-0.1182,0.0924,-0.1596V8.9695c-0.0427,0.0208,-0.0865,0.041,-0.1312,0.0605C6.1918,9.3043,5.3679,9.4554,4.5,9.4554c-0.8678,0,-1.6917,-0.1511,-2.3201,-0.4254c-0.0474,-0.0207,-0.0937,-0.0421,-0.1389,-0.0642V13.1861zM4.5,7.0523c-0.722,0,-1.3925,0.1191,-1.888,0.3355c-0.207,0.0904,-0.3698,0.1932,-0.4708,0.2975c-0.0596,0.0615,-0.0924,0.1182,-0.0924,0.1596c0,0.0414,0.0328,0.0981,0.0924,0.1596c0.1009,0.1042,0.2637,0.207,0.4708,0.2975c0.4956,0.2164,1.1661,0.3355,1.888,0.3355s1.3925,-0.1191,1.888,-0.3355c0.207,-0.0904,0.3698,-0.1933,0.4708,-0.2975c0.0596,-0.0615,0.0924,-0.1182,0.0924,-0.1596s-0.0328,-0.098,-0.0924,-0.1595c-0.1009,-0.1042,-0.2637,-0.2071,-0.4708,-0.2975C5.8925,7.1715,5.222,7.0523,4.5,7.0523z" fill="#F59E0B"/>
  </g>
</svg>
