<?xml version="1.0" encoding="UTF-8"?>
<!DOCTYPE svg PUBLIC "-//W3C//DTD SVG 1.1//EN" "http://www.w3.org/Graphics/SVG/1.1/DTD/svg11.dtd">
<svg version="1.1" id="Layer_1" xmlns="http://www.w3.org/2000/svg" xmlns:xlink="http://www.w3.org/1999/xlink" x="0px" y="0px" width="16px" height="16px" viewBox="0 0 16 16" enable-background="new 0 0 16 16" xml:space="preserve">
  <g id="main">
    <g id="icon">
      <path d="M7.335,1.534L6.69,1.632L6.067,1.792L5.47,2.011L4.902,2.285L4.366,2.61L3.865,2.984L3.404,3.404L2.984,3.865L2.61,4.366L2.285,4.902L2.011,5.47L1.792,6.067L1.632,6.69L1.534,7.335L1.5,8L1.534,8.665L1.632,9.31L1.792,9.933L2.011,10.53L2.285,11.1L2.61,11.63L2.984,12.13L3.404,12.6L3.865,13.02L4.014,13.13L4,13L4.077,12.22L4.297,11.49L4.647,10.83L5.112,10.25L5.678,9.759L6.33,9.379L7.055,9.123L7.838,9.006L7.865,9.005L8.049,9L9.236,9L9.616,9.048L9.961,9.182L10.26,9.391L10.5,9.663L10.69,9.435L10.92,9.249L11.19,9.109L11.49,9.024L11.53,9.017L11.72,9L12.94,9L13.83,9.097L14.37,9.279L14.47,8.665L14.5,8L14.47,7.335L14.37,6.69L14.21,6.067L13.99,5.47L13.72,4.902L13.39,4.366L13.02,3.865L12.6,3.404L12.13,2.984L11.63,2.61L11.1,2.285L10.53,2.011L9.933,1.792L9.31,1.632L8.665,1.534L8,1.5zM10.42,11.48L10.58,11.48L10.5,11.37zz" fill="#F5F5F5"/>
      <path d="M7.285,1.036L6.591,1.142L5.921,1.315L5.278,1.551L4.666,1.846L4.089,2.197L3.55,2.6L3.053,3.053L2.6,3.55L2.197,4.089L1.846,4.666L1.551,5.278L1.315,5.921L1.142,6.591L1.036,7.285L1,8L1.036,8.715L1.142,9.409L1.315,10.08L1.551,10.72L1.846,11.33L2.197,11.91L2.6,12.45L3.053,12.95L3.55,13.4L4.089,13.8L4.09,13.8L4,13L4.049,12.5L3.759,12.24L3.372,11.81L3.026,11.35L2.725,10.86L2.472,10.33L2.27,9.782L2.122,9.208L2.031,8.612L2,8L2.031,7.388L2.122,6.792L2.27,6.218L2.472,5.667L2.725,5.142L3.026,4.648L3.372,4.186L3.759,3.759L4.186,3.372L4.648,3.026L5.142,2.725L5.667,2.472L6.218,2.27L6.792,2.122L7.388,2.031L8,2L8.612,2.031L9.208,2.122L9.782,2.27L10.33,2.472L10.86,2.725L11.35,3.026L11.81,3.372L12.24,3.759L12.63,4.186L12.97,4.648L13.27,5.142L13.53,5.667L13.73,6.218L13.88,6.792L13.97,7.388L14,8L13.97,8.612L13.89,9.118L14.65,9.372L14.84,9.484L14.86,9.409L14.96,8.715L15,8L14.96,7.285L14.86,6.591L14.68,5.921L14.45,5.278L14.15,4.666L13.8,4.089L13.4,3.55L12.95,3.053L12.45,2.6L11.91,2.197L11.33,1.846L10.72,1.551L10.08,1.315L9.409,1.142L8.715,1.036L8,1zM10.44,14.55L10.54,14.52L10.42,14.52zz" fill="#404040"/>
      <path d="M2,6L14,6L14,5L2,5zM2,11L4.558,11L4.647,10.83L5.112,10.25L5.399,10L2,10zz" fill="#404040"/>
      <path d="M7.054,1.261L6.61,1.822L6.21,2.48L5.859,3.227L5.562,4.054L5.323,4.953L5.146,5.916L5.038,6.934L5,8L5.038,9.066L5.146,10.08L5.168,10.2L5.678,9.759L6.059,9.537L6,9.02L5.961,8L6,6.98L6.112,6.004L6.293,5.082L6.536,4.229L6.834,3.456L7.181,2.776L7.572,2.202L8,1.746L8.428,2.202L8.819,2.776L9.166,3.456L9.464,4.229L9.707,5.082L9.888,6.004L10,6.98L10.04,8L10,9.02L9.98,9.195L10.26,9.391L10.5,9.663L10.69,9.435L10.92,9.249L10.94,9.238L10.96,9.066L11,8L10.96,6.934L10.85,5.916L10.68,4.953L10.44,4.054L10.14,3.227L9.79,2.48L9.39,1.822L8.946,1.261L8.119,1.2L8,1.202L7.881,1.2zM10.42,11.48L10.56,11.48L10.57,11.46L10.5,11.37zz" fill="#404040"/>
    </g>
    <g id="overlay">
      <path d="M11.764,16c-0.2909,-0.0002,-0.5286,-0.2309,-0.5299,-0.5146c-0.0011,-0.2498,0.1806,-0.4644,0.4321,-0.5104l0.0953,-0.0093l1.1793,-0.0034c1.1019,0,1.9986,-0.8811,1.9986,-1.964c0,-1.0323,-0.8201,-1.8932,-1.8672,-1.9599l-0.1349,-0.0042l-1.1729,0.0001c-0.2924,0,-0.5303,-0.2319,-0.5303,-0.517c0,-0.2498,0.1828,-0.4637,0.4345,-0.5085l0.0952,-0.0088l1.1772,0.0004c1.6868,0,3.0591,1.3448,3.0591,2.9979c0,1.5925,-1.2692,2.9074,-2.8894,2.9935l-0.1647,0.0044L11.764,16zM8.0591,15.9962C6.3723,15.9962,5,14.6513,5,12.9983c0,-1.5926,1.2699,-2.9075,2.8911,-2.9935l0.1706,-0.0044l1.1739,0.0001c0.2924,0,0.5303,0.2319,0.5303,0.5169c0,0.2498,-0.1827,0.4637,-0.4345,0.5086l-0.0952,0.0088l-1.1772,-0.0004c-1.102,0,-1.9984,0.881,-1.9984,1.964c0,1.0323,0.8201,1.8932,1.8671,1.9599l0.135,0.0042l1.1729,-0.0001c0.2924,0,0.5303,0.2319,0.5303,0.517c0,0.2498,-0.1828,0.4637,-0.4345,0.5085l-0.091,0.0085H8.0591zM8.1461,13.5152c-0.1423,-0.0001,-0.2759,-0.0543,-0.3761,-0.1528c-0.0994,-0.0975,-0.154,-0.2269,-0.154,-0.3644c0.0001,-0.2498,0.183,-0.4635,0.4349,-0.5083l0.0951,-0.0088l4.7079,0.0023c0.1423,0,0.2759,0.0542,0.3762,0.1527c0.0993,0.0975,0.154,0.2269,0.1539,0.3644c-0.0001,0.2499,-0.183,0.4636,-0.4348,0.5084l-0.0909,0.0083L8.1461,13.5152z" fill="#0891b2"/>
    </g>
  </g>
</svg>
