<?xml version="1.0" encoding="UTF-8"?>
<!DOCTYPE svg PUBLIC "-//W3C//DTD SVG 1.1//EN" "http://www.w3.org/Graphics/SVG/1.1/DTD/svg11.dtd">
<svg version="1.1" id="Layer_1" xmlns="http://www.w3.org/2000/svg" xmlns:xlink="http://www.w3.org/1999/xlink" x="0px" y="0px" width="16px" height="16px" viewBox="0 0 16 16" enable-background="new 0 0 16 16" xml:space="preserve">
  <g id="main">
    <g id="icon">
      <path d="M3.698,1.53L3.416,1.618L3.161,1.756L2.939,1.939L2.756,2.161L2.618,2.416L2.53,2.698L2.5,3L2.5,5.084L2.814,4.988L3.396,4.881L4,4.845L4.511,4.871L5.006,4.947L5.944,5.24L6.794,5.702L7.534,6.315L8.145,7.057L8.606,7.908L8.898,8.848L8.974,9.345L9,9.857L8.971,10.39L8.888,10.92L8.751,11.42L8.566,11.9L8.334,12.35L8.059,12.78L7.743,13.18L7.39,13.54L7.412,14.5L12,14.5L12.3,14.47L12.58,14.38L12.84,14.24L13.06,14.06L13.24,13.84L13.38,13.58L13.47,13.3L13.5,13L13.5,3L13.47,2.698L13.38,2.416L13.24,2.161L13.06,1.939L12.84,1.756L12.58,1.618L12.3,1.53L12,1.5L4,1.5zz" fill="#F5F5F5"/>
      <path d="M3.597,1.041L3.222,1.157L2.883,1.342L2.587,1.587L2.342,1.883L2.157,2.222L2.041,2.597L2,3L2,5.273L2.257,5.159L2.814,4.988L3,4.954L3,3L3.079,2.611L3.293,2.293L3.611,2.079L4,2L12,2L12.39,2.079L12.71,2.293L12.92,2.611L13,3L13,13L12.92,13.39L12.71,13.71L12.39,13.92L12,14L7.4,14L7.423,15L12,15L12.4,14.96L12.78,14.84L13.12,14.66L13.41,14.41L13.66,14.12L13.84,13.78L13.96,13.4L14,13L14,3L13.96,2.597L13.84,2.222L13.66,1.883L13.41,1.587L13.12,1.342L12.78,1.157L12.4,1.041L12,1L4,1zz" fill="#404040"/>
      <path d="M9.305,6.039L9.146,6.146L9.039,6.305L9,6.5L9.039,6.695L9.146,6.854L9.305,6.961L9.5,7L11.5,7L11.69,6.961L11.85,6.854L11.96,6.695L12,6.5L11.96,6.305L11.85,6.146L11.69,6.039L11.5,6L9.5,6zM9.305,8.039L9.146,8.146L9.039,8.305L9,8.5L9.039,8.695L9.146,8.854L9.305,8.961L9.5,9L11.5,9L11.69,8.961L11.85,8.854L11.96,8.695L12,8.5L11.96,8.305L11.85,8.146L11.69,8.039L11.5,8L9.5,8zM9.305,10.04L9.146,10.15L9.039,10.31L9,10.5L9.039,10.69L9.146,10.85L9.305,10.96L9.5,11L11.5,11L11.69,10.96L11.85,10.85L11.96,10.69L12,10.5L11.96,10.31L11.85,10.15L11.69,10.04L11.5,10L9.5,10zz" fill="#404040"/>
      <path d="M4.305,3.039L4.146,3.146L4.039,3.305L4,3.5L4,4.5L4.039,4.695L4.146,4.853L4.511,4.871L5.006,4.947L5.176,5L11.5,5L11.69,4.961L11.85,4.854L11.96,4.695L12,4.5L12,3.5L11.96,3.305L11.85,3.146L11.69,3.039L11.5,3L4.5,3zz" fill="#404040"/>
    </g>
    <g id="overlay">
      <path d="M5.4297,15.495l-1.343,-0.6275c-0.0572,-0.0116,-0.1162,-0.0116,-0.1734,0l-1.343,0.6275c-0.2736,0.0554,-0.5289,-0.1564,-0.5289,-0.4388l0.1079,-2.6257h3.7014l0.1079,2.6257C5.9586,15.3385,5.7033,15.5503,5.4297,15.495z" fill="#F5F5F5"/>
      <path d="M5.5175,16c-0.0598,0,-0.12,-0.0061,-0.1791,-0.0181l-0.0114,-0.0023L4,15.3573l-1.327,0.6222l-0.0114,0.0023c-0.059,0.012,-0.1192,0.0181,-0.179,0.0181c-0.2092,0,-0.4137,-0.075,-0.5759,-0.2112c-0.21,-0.1765,-0.3305,-0.4368,-0.3305,-0.7143v-0.0283l0.0556,-2.4485l0.1488,0.1028c0.2077,0.1434,0.4331,0.2643,0.6699,0.3592l0.0615,0.0246l-0.0034,1.9506l1.3022,-0.6106l0.0114,-0.0023c0.0589,-0.012,0.1188,-0.0181,0.178,-0.0181c0.0594,0,0.1192,0.0061,0.1779,0.0181l0.0113,0.0023l1.3022,0.6106l-0.0034,-1.9506l0.0615,-0.0246c0.2368,-0.0949,0.4622,-0.2157,0.6699,-0.3593l0.1488,-0.1027l0.0555,2.4462l0,0.0306c0,0.2775,-0.1205,0.5378,-0.3305,0.7143C5.9311,15.925,5.7266,16,5.5175,16z" fill="#BE123C"/>
      <path d="M7.5325,9.8571c0,1.9549,-1.5815,3.5397,-3.5325,3.5397S0.4675,11.8121,0.4675,9.8571S2.0491,6.3174,4,6.3174S7.5325,7.9022,7.5325,9.8571z" fill="#F5F5F5"/>
      <path d="M4,13.8691c-2.2056,0,-4,-1.7998,-4,-4.012s1.7944,-4.012,4,-4.012s4,1.7998,4,4.012S6.2056,13.8691,4,13.8691zM4,6.7896c-1.69,0,-3.0649,1.3761,-3.0649,3.0675S2.31,12.9246,4,12.9246s3.0649,-1.3761,3.0649,-3.0675S5.69,6.7896,4,6.7896z" fill="#BE123C"/>
    </g>
  </g>
</svg>
