<?xml version="1.0" encoding="UTF-8"?>
<!DOCTYPE svg PUBLIC "-//W3C//DTD SVG 1.1//EN" "http://www.w3.org/Graphics/SVG/1.1/DTD/svg11.dtd">
<svg version="1.1" id="Layer_1" xmlns="http://www.w3.org/2000/svg" xmlns:xlink="http://www.w3.org/1999/xlink" x="0px" y="0px" width="16px" height="16px" viewBox="0 0 16 16" enable-background="new 0 0 16 16" xml:space="preserve">
  <g id="main">
    <g id="icon">
      <path d="M4.698,1.53L4.416,1.618L4.161,1.756L3.939,1.939L3.756,2.161L3.618,2.416L3.53,2.698L3.5,3L3.5,5.213L3.99,5.129L4.496,5.1L5.401,5.192L6.245,5.455L7.008,5.871L7.674,6.422L8.224,7.089L8.225,7.092L8.427,6.941L8.88,6.665L9.361,6.433L9.866,6.248L10.39,6.112L10.94,6.029L11.5,6L12.19,6.043L12.85,6.167L13.48,6.368L14.07,6.641L14.5,6.901L14.5,3L14.47,2.698L14.38,2.416L14.24,2.161L14.06,1.939L13.84,1.756L13.58,1.618L13.3,1.53L13,1.5L5,1.5zM3.875,6.563L3.293,6.744L2.767,7.029L2.308,7.408L1.929,7.867L1.644,8.393L1.463,8.975L1.4,9.6L1.428,10.02L1.508,10.41L1.638,10.79L1.813,11.15L2.286,11.77L2.9,12.26L2.9,14.2L6.1,14.2L6.1,12.49L6.043,12.19L6,11.5L6.029,10.94L6.112,10.39L6.248,9.866L6.433,9.361L6.665,8.88L6.941,8.427L7.192,8.091L7.071,7.867L6.692,7.408L6.233,7.029L5.707,6.744L5.125,6.563L4.5,6.5zz" id="b" fill="#FFFFFF"/>
      <path d="M4.597,1.041L4.222,1.157L3.883,1.342L3.587,1.587L3.342,1.883L3.157,2.222L3.041,2.597L3,3L3,5.358L3.489,5.215L4,5.128L4,3L4.079,2.611L4.293,2.293L4.611,2.079L5,2L13,2L13.39,2.079L13.71,2.293L13.92,2.611L14,3L14,6.607L14.07,6.641L14.63,6.98L15,7.272L15,3L14.96,2.597L14.84,2.222L14.66,1.883L14.41,1.587L14.12,1.342L13.78,1.157L13.4,1.041L13,1L5,1zM5.305,3.039L5.146,3.146L5.039,3.305L5,3.5L5,5.129L5.598,5.238L6.166,5.423L6.698,5.679L7.189,6L11.5,6L12.5,6L12.69,5.961L12.85,5.854L12.96,5.695L13,5.5L13,3.5L12.96,3.305L12.85,3.146L12.69,3.039L12.5,3L5.5,3zM12,4L12,5L6,5L6,4zM8.22,7.096L8.348,7L8.161,7zz" fill="#404040"/>
      <path d="M3.796,6.172L3.139,6.377L2.545,6.703L2.026,7.133L1.599,7.655L1.275,8.253L1.071,8.914L1,9.623L1.093,10.44L1.363,11.19L1.798,11.86L2.386,12.43L2.349,14.08L2.349,14.11L2.43,14.48L2.659,14.78L2.913,14.93L3.201,14.98L3.37,14.96L3.392,14.95L4.5,14.43L5.615,14.96L5.63,14.96L5.799,14.98L6.087,14.93L6.341,14.78L6.57,14.48L6.651,14.11L6.651,14.09L6.641,14.07L6.368,13.48L6.167,12.85L6.043,12.19L6.011,11.67L5.923,11.74L5.49,11.98L5.013,12.13L4.5,12.18L3.987,12.13L3.51,11.98L3.077,11.74L2.7,11.43L2.389,11.05L2.154,10.62L2.005,10.14L1.953,9.623L2.005,9.108L2.154,8.628L2.389,8.194L2.7,7.815L3.077,7.502L3.51,7.266L3.987,7.117L4.5,7.065L5.013,7.117L5.49,7.266L5.923,7.502L6.3,7.815L6.611,8.194L6.833,8.604L6.941,8.427L7.257,8.004L7.466,7.774L7.401,7.655L6.974,7.133L6.455,6.703L5.861,6.377L5.204,6.172L4.5,6.1zM3.891,13.09L4.5,13.15L5.109,13.09L5.698,12.93L5.7,13.95L4.683,13.47L4.668,13.47L4.5,13.45L4.332,13.47L4.311,13.48L3.3,13.95L3.302,12.93zz" fill="#404040"/>
    </g>
    <g id="overlay">
      <path d="M15.5423,11.5c0,2.2325,-1.8098,4.0423,-4.0423,4.0423S7.4577,13.7325,7.4577,11.5S9.2675,7.4577,11.5,7.4577S15.5423,9.2675,15.5423,11.5z" id="b" fill="#FFFFFF"/>
      <path d="M11.5,16c-2.4813,0,-4.5,-2.0187,-4.5,-4.5s2.0187,-4.5,4.5,-4.5s4.5,2.0187,4.5,4.5S13.9813,16,11.5,16zM11.5,7.9525c-1.9561,0,-3.5475,1.5914,-3.5475,3.5475S9.5439,15.0475,11.5,15.0475s3.5475,-1.5914,3.5475,-3.5475S13.4561,7.9525,11.5,7.9525z" id="c3" fill="#059669"/>
      <path d="M10.9559,13.0615c-0.1024,0,-0.1998,-0.0321,-0.2817,-0.0929l-0.0084,-0.0067l-0.0407,-0.0352l-1.0921,-1.0921c-0.0894,-0.0894,-0.1386,-0.2082,-0.1386,-0.3346s0.0492,-0.2452,0.1386,-0.3346c0.0893,-0.0894,0.2082,-0.1386,0.3346,-0.1386c0.1024,0,0.1998,0.0321,0.2817,0.0929l0.0086,0.0068l0.0406,0.0351l0.7575,0.7574l1.842,-1.842c0.0893,-0.0894,0.2082,-0.1386,0.3346,-0.1386c0.1264,0,0.2453,0.0492,0.3347,0.1386c0.1646,0.1646,0.1842,0.4295,0.0457,0.6163l-0.0068,0.0086l-0.0351,0.0406l-2.1804,2.1804C11.2011,13.0123,11.0823,13.0615,10.9559,13.0615z" id="c3" fill="#059669"/>
    </g>
  </g>
</svg>
