<?xml version="1.0" encoding="UTF-8"?>
<!DOCTYPE svg PUBLIC "-//W3C//DTD SVG 1.1//EN" "http://www.w3.org/Graphics/SVG/1.1/DTD/svg11.dtd">
<svg version="1.1" id="Layer_1" xmlns="http://www.w3.org/2000/svg" xmlns:xlink="http://www.w3.org/1999/xlink" x="0px" y="0px" width="16px" height="16px" viewBox="0 0 16 16" enable-background="new 0 0 16 16" xml:space="preserve">
  <g id="icon">
    <path d="M14.5,3v9c0,0.8284,-0.6716,1.5,-1.5,1.5H7.582l-0.0136,-0.6035c0.9105,-0.8506,1.4241,-2.0251,1.4241,-3.2893C8.9925,7.1219,6.9755,5.1,4.4963,5.1c-0.3424,0,-0.6756,0.0399,-0.9963,0.1129V3c0,-0.8284,0.6716,-1.5,1.5,-1.5h8C13.8284,1.5,14.5,2.1716,14.5,3zM7.6,9.6c0,-1.7121,-1.3879,-3.1,-3.1,-3.1S1.4,7.8879,1.4,9.6c0,1.1266,0.6011,2.1127,1.5,2.6555V14.2h3.2v-1.9445C6.9989,11.7127,7.6,10.7266,7.6,9.6z" id="b" fill="#FFFFFF"/>
    <path d="M12.5,12H8.3089c0.1962,-0.3126,0.3525,-0.6481,0.4659,-1H12.5c0.2761,0,0.5,0.2239,0.5,0.5S12.7761,12,12.5,12zM12.5,9H8.9506c0.0268,0.1987,0.0419,0.4012,0.0419,0.6072c0,0.1321,-0.0069,0.263,-0.018,0.3928H12.5c0.2761,0,0.5,-0.2239,0.5,-0.5S12.7761,9,12.5,9zM13,1H5c-1.1028,0,-2,0.8972,-2,2v2.3576c0.3186,-0.113,0.6533,-0.1912,1,-0.2295V3c0,-0.5514,0.4486,-1,1,-1h8c0.5514,0,1,0.4486,1,1v9c0,0.5514,-0.4486,1,-1,1H7.5707l0.0225,1H13c1.1028,0,2,-0.8972,2,-2V3C15,1.8972,14.1028,1,13,1zM13,5.5c0,0.2761,-0.2239,0.5,-0.5,0.5H7.1891C6.5647,5.5305,5.8148,5.2205,5,5.129V3.5c0,-0.2761,0.2239,-0.5,0.5,-0.5h7c0.2761,0,0.5,0.2239,0.5,0.5V5.5zM12,4H6v1h6V4zM12.5,7H8.1605c0.2182,0.3072,0.3989,0.6426,0.5355,1H12.5c0.2761,0,0.5,-0.2239,0.5,-0.5S12.7761,7,12.5,7z" id="c1" fill="#404040"/>
    <path d="M5.7989,14.9772c-0.0563,0,-0.113,-0.0057,-0.1685,-0.0171l-0.0152,-0.0031L4.5,14.4331l-1.1084,0.5217l-0.0219,0.0053c-0.0557,0.0114,-0.1123,0.0171,-0.1685,0.0171c-0.197,0,-0.3895,-0.0708,-0.542,-0.1994c-0.1971,-0.1661,-0.3101,-0.4113,-0.3101,-0.6724v-0.0244l0.0373,-1.6513C1.5051,11.7557,1,10.7336,1,9.6233C1,7.6806,2.5701,6.1,4.5,6.1s3.5,1.5806,3.5,3.5233c0,1.1104,-0.5051,2.1323,-1.3864,2.8064l0.0372,1.6476l0,0.028c0,0.2612,-0.113,0.5064,-0.3101,0.6725C6.1883,14.9064,5.9958,14.9772,5.7989,14.9772zM4.5,13.4527c0.0559,0,0.1123,0.0057,0.1675,0.017l0.0151,0.0031l1.0174,0.4779l-0.0017,-1.0175c-0.3847,0.1417,-0.7877,0.2135,-1.1983,0.2135s-0.8136,-0.0718,-1.1983,-0.2135l-0.0018,1.0174l1.0106,-0.4756l0.0219,-0.0053C4.3878,13.4583,4.4442,13.4527,4.5,13.4527zM4.5,7.0648c-1.4044,0,-2.547,1.1477,-2.547,2.5585S3.0956,12.1818,4.5,12.1818s2.547,-1.1477,2.547,-2.5585S5.9044,7.0648,4.5,7.0648z" id="c1" fill="#BE123C"/>
  </g>
</svg>
