<?xml version="1.0" encoding="UTF-8"?>
<!DOCTYPE svg PUBLIC "-//W3C//DTD SVG 1.1//EN" "http://www.w3.org/Graphics/SVG/1.1/DTD/svg11.dtd">
<svg version="1.1" id="Layer_1" xmlns="http://www.w3.org/2000/svg" xmlns:xlink="http://www.w3.org/1999/xlink" x="0px" y="0px" width="16px" height="16px" viewBox="0 0 16 16" enable-background="new 0 0 16 16" xml:space="preserve">
  <g id="main">
    <g id="icon">
      <path d="M4.698,1.53L4.416,1.618L4.161,1.756L3.939,1.939L3.756,2.161L3.618,2.416L3.53,2.698L3.5,3L3.5,5.213L3.99,5.129L4.496,5.1L5.401,5.192L6.245,5.455L7.008,5.871L7.674,6.422L8.224,7.089L8.409,7.431L8.553,7.415L8.978,7.489L9.474,7.666L9.569,7.151L9.69,6.795L9.905,6.497L10.2,6.274L10.55,6.142L11.12,6.052L11.7,6.022L12.28,6.052L12.85,6.142L13.2,6.273L13.49,6.497L13.71,6.795L13.83,7.151L13.92,7.666L14.42,7.489L14.5,7.475L14.5,3L14.47,2.698L14.38,2.416L14.24,2.161L14.06,1.939L13.84,1.756L13.58,1.618L13.3,1.53L13,1.5L5,1.5zM3.875,6.563L3.293,6.744L2.767,7.029L2.308,7.408L1.929,7.867L1.644,8.393L1.463,8.975L1.4,9.6L1.428,10.02L1.508,10.41L1.638,10.79L1.813,11.15L2.286,11.77L2.9,12.26L2.9,14.2L6.1,14.2L6.1,12.26L6.714,11.77L7.041,11.34L6.847,11.17L6.599,10.89L6.447,10.56L6.399,10.19L6.462,9.82L6.669,9.279L6.932,8.765L7.247,8.282L7.277,8.246L7.071,7.867L6.692,7.408L6.233,7.029L5.707,6.744L5.125,6.563L4.5,6.5zM11.48,11.29L11.39,11.51L11.48,11.73L11.7,11.82L11.92,11.73L12.01,11.51L11.92,11.29L11.7,11.2zz" fill="#F5F5F5"/>
      <path d="M4.597,1.041L4.222,1.157L3.883,1.342L3.587,1.587L3.342,1.883L3.157,2.222L3.041,2.597L3,3L3,5.358L3.489,5.215L4,5.128L4,3L4.079,2.611L4.293,2.293L4.611,2.079L5,2L13,2L13.39,2.079L13.71,2.293L13.92,2.611L14,3L14,7.639L14.42,7.489L14.85,7.415L15,7.432L15,3L14.96,2.597L14.84,2.222L14.66,1.883L14.41,1.587L14.12,1.342L13.78,1.157L13.4,1.041L13,1L5,1zM5.305,3.039L5.146,3.146L5.039,3.305L5,3.5L5,5.129L5.598,5.238L6.166,5.423L6.698,5.679L7.189,6L12.5,6L12.69,5.961L12.85,5.854L12.96,5.695L13,5.5L13,3.5L12.96,3.305L12.85,3.146L12.69,3.039L12.5,3L5.5,3zM12,4L12,5L6,5L6,4zM8.426,7.429L8.553,7.415L8.978,7.489L9.474,7.666L9.569,7.151L9.62,7L8.161,7zM11.48,11.29L11.39,11.51L11.48,11.73L11.7,11.82L11.92,11.73L12.01,11.51L11.92,11.29L11.7,11.2zz" fill="#404040"/>
      <path d="M3.796,6.172L3.139,6.377L2.545,6.703L2.026,7.133L1.599,7.655L1.275,8.253L1.071,8.914L1,9.623L1.093,10.44L1.363,11.19L1.798,11.86L2.386,12.43L2.349,14.08L2.349,14.11L2.43,14.48L2.659,14.78L2.913,14.93L3.201,14.98L3.37,14.96L3.392,14.95L4.5,14.43L5.615,14.96L5.63,14.96L5.799,14.98L6.087,14.93L6.341,14.78L6.57,14.48L6.651,14.11L6.651,14.08L6.642,13.67L6.462,13.2L6.4,12.83L6.447,12.47L6.599,12.13L6.848,11.85L7.245,11.51L6.847,11.17L6.661,10.96L6.611,11.05L6.3,11.43L5.923,11.74L5.49,11.98L5.013,12.13L4.5,12.18L3.987,12.13L3.51,11.98L3.077,11.74L2.7,11.43L2.389,11.05L2.154,10.62L2.005,10.14L1.953,9.623L2.005,9.108L2.154,8.628L2.389,8.194L2.7,7.815L3.077,7.502L3.51,7.266L3.987,7.117L4.5,7.065L5.013,7.117L5.49,7.266L5.923,7.502L6.3,7.815L6.611,8.194L6.846,8.628L6.905,8.817L6.932,8.765L7.247,8.282L7.544,7.919L7.401,7.655L6.974,7.133L6.455,6.703L5.861,6.377L5.204,6.172L4.5,6.1zM3.891,13.09L4.5,13.15L5.109,13.09L5.698,12.93L5.7,13.95L4.683,13.47L4.668,13.47L4.5,13.45L4.332,13.47L4.311,13.48L3.3,13.95L3.302,12.93zz" fill="#404040"/>
    </g>
    <g id="overlay">
      <path d="M7.4129,10.1288c0.1957,-0.6032,0.5181,-1.1568,0.9435,-1.6261c0.0719,-0.0793,0.1848,-0.1076,0.2858,-0.0716l1.0166,0.3622c0.2756,0.0982,0.5789,-0.0449,0.6774,-0.3196c0.0097,-0.027,0.0171,-0.0548,0.0223,-0.0829l0.1937,-1.0594c0.0193,-0.1053,0.1004,-0.1887,0.2055,-0.2109c0.3075,-0.0652,0.6228,-0.0984,0.9422,-0.0984c0.3192,0,0.6343,0.0331,0.9416,0.0983c0.1051,0.0223,0.1862,0.1055,0.2055,0.2108l0.1942,1.0596c0.0525,0.2869,0.3285,0.4771,0.6164,0.4248c0.0283,-0.0051,0.0562,-0.0126,0.0832,-0.0222l1.0167,-0.3622c0.1011,-0.036,0.214,-0.0077,0.2859,0.0716c0.4254,0.4692,0.7478,1.0229,0.9435,1.6261c0.0331,0.1018,0.0012,0.2133,-0.0806,0.2825l-0.824,0.6972c-0.2232,0.1888,-0.2504,0.5221,-0.0609,0.7444c0.0186,0.0219,0.039,0.0422,0.0609,0.0607l0.824,0.6972c0.0818,0.0692,0.1137,0.1808,0.0806,0.2825c-0.1957,0.6032,-0.5181,1.1569,-0.9435,1.6261c-0.0719,0.0793,-0.1848,0.1076,-0.2859,0.0716l-1.0166,-0.3623c-0.2756,-0.0981,-0.5789,0.045,-0.6774,0.3196c-0.0097,0.027,-0.0171,0.0547,-0.0223,0.083l-0.1942,1.0595c-0.0193,0.1053,-0.1005,0.1886,-0.2055,0.2108C12.3343,15.9669,12.0192,16,11.7,16c-0.3194,0,-0.6347,-0.0332,-0.9422,-0.0983c-0.1051,-0.0223,-0.1863,-0.1056,-0.2055,-0.211l-0.1937,-1.0594c-0.0525,-0.2869,-0.3285,-0.4771,-0.6165,-0.4248c-0.0283,0.0052,-0.0562,0.0126,-0.0832,0.0222l-1.0167,0.3623c-0.101,0.036,-0.2139,0.0077,-0.2858,-0.0716c-0.4254,-0.4693,-0.7478,-1.0229,-0.9435,-1.6261c-0.033,-0.1018,-0.0012,-0.2133,0.0806,-0.2825l0.824,-0.6972c0.2231,-0.1888,0.2504,-0.5221,0.0609,-0.7444c-0.0186,-0.0219,-0.039,-0.0422,-0.0609,-0.0607l-0.824,-0.6972C7.4117,10.3421,7.3798,10.2305,7.4129,10.1288zM10.3912,11.511c0,0.7233,0.5859,1.3097,1.3087,1.3097s1.3087,-0.5864,1.3087,-1.3097s-0.5859,-1.3097,-1.3087,-1.3097S10.3912,10.7876,10.3912,11.511z" fill="#404040"/>
    </g>
  </g>
</svg>
