<?xml version="1.0" encoding="UTF-8"?>
<!DOCTYPE svg PUBLIC "-//W3C//DTD SVG 1.1//EN" "http://www.w3.org/Graphics/SVG/1.1/DTD/svg11.dtd">
<svg version="1.1" id="Layer_1" xmlns="http://www.w3.org/2000/svg" xmlns:xlink="http://www.w3.org/1999/xlink" x="0px" y="0px" width="16px" height="16px" viewBox="0 0 16 16" enable-background="new 0 0 16 16" xml:space="preserve">
  <g id="main">
    <g id="icon">
      <path d="M7.259,1.05L6.532,1.164L6.322,1.28L6.212,1.493L5.91,3.142L5.875,3.271L5.706,3.551L5.451,3.738L5.144,3.816L4.82,3.769L3.236,3.205L2.996,3.193L2.79,3.316L2.324,3.888L1.921,4.504L1.585,5.159L1.32,5.848L1.316,6.087L1.446,6.288L2.73,7.373L2.825,7.468L2.983,7.754L3.018,8.067L2.933,8.37L2.73,8.627L1.446,9.712L1.316,9.913L1.32,10.15L1.585,10.84L1.921,11.5L2.324,12.11L2.79,12.68L2.996,12.81L3.236,12.8L4.82,12.23L4.949,12.2L5.277,12.2L5.567,12.33L5.788,12.55L5.91,12.86L6.211,14.5L6.243,14.42L6.258,14.4L8.855,9.845L8.794,9.879L8.411,9.998L8,10.04L7.589,9.998L7.206,9.879L6.86,9.691L6.558,9.442L6.309,9.14L6.121,8.794L6.002,8.411L5.961,8L6.002,7.589L6.121,7.206L6.309,6.86L6.558,6.558L6.86,6.309L7.206,6.121L7.589,6.002L8,5.961L8.411,6.002L8.794,6.121L9.14,6.309L9.442,6.558L9.691,6.86L9.879,7.206L9.997,7.589L10.02,7.83L10.23,7.541L10.6,7.249L11.04,7.064L11.52,7L12,7.064L12.43,7.249L12.8,7.541L13.01,7.824L13.07,7.63L13.27,7.373L14.55,6.288L14.68,6.087L14.68,5.848L14.41,5.159L14.08,4.504L13.68,3.888L13.21,3.316L13,3.193L12.76,3.205L11.18,3.769L11.05,3.803L10.72,3.797L10.43,3.671L10.21,3.445L10.09,3.142L9.787,1.493L9.677,1.28L9.467,1.164L8.74,1.05L8,1.011zM14.55,10.49L14.68,10.15L14.68,9.913L14.55,9.712L13.69,8.982zz" fill="#404040"/>
    </g>
    <g id="overlay">
      <path d="M11.5204,15.0607c-0.3586,0,-0.6504,-0.2918,-0.6504,-0.6505s0.2918,-0.6505,0.6504,-0.6505c0.3587,0,0.6505,0.2918,0.6505,0.6505S11.8791,15.0607,11.5204,15.0607zM11.5388,13.0616c-0.2757,0,-0.5,-0.2038,-0.5,-0.4542v-1.9262c0,-0.2504,0.2243,-0.4542,0.5,-0.4542s0.5,0.2038,0.5,0.4542v1.9262C12.0388,12.8579,11.8145,13.0616,11.5388,13.0616z" fill="#FFFFFF"/>
      <path d="M15.9122,14.8908l-3.6985,-6.4789c-0.1346,-0.254,-0.4006,-0.4118,-0.6943,-0.4118s-0.5597,0.1578,-0.6943,0.4118l-3.6985,6.4789c-0.126,0.2377,-0.1158,0.516,0.0272,0.7444c0.143,0.2284,0.3924,0.3648,0.6672,0.3648h7.397c0.2748,0,0.5242,-0.1364,0.6672,-0.3648C16.0281,15.4068,16.0382,15.1285,15.9122,14.8908zM11.0388,10.6812c0,-0.2504,0.2243,-0.4542,0.5,-0.4542s0.5,0.2038,0.5,0.4542v1.9262c0,0.2504,-0.2243,0.4542,-0.5,0.4542s-0.5,-0.2038,-0.5,-0.4542V10.6812zM11.5204,15.0607c-0.3586,0,-0.6504,-0.2918,-0.6504,-0.6505s0.2918,-0.6505,0.6504,-0.6505c0.3587,0,0.6505,0.2918,0.6505,0.6505S11.8791,15.0607,11.5204,15.0607z" fill="#F59E0B"/>
    </g>
  </g>
</svg>
