<?xml version="1.0" encoding="UTF-8"?>
<!DOCTYPE svg PUBLIC "-//W3C//DTD SVG 1.1//EN" "http://www.w3.org/Graphics/SVG/1.1/DTD/svg11.dtd">
<svg version="1.1" id="Layer_1" xmlns="http://www.w3.org/2000/svg" xmlns:xlink="http://www.w3.org/1999/xlink" x="0px" y="0px" width="16px" height="16px" viewBox="0 0 16 16" enable-background="new 0 0 16 16" xml:space="preserve">
  <g id="main">
    <g id="icon">
      <path d="M7.259,1.05L6.532,1.164L6.322,1.28L6.212,1.493L5.91,3.142L5.875,3.271L5.706,3.551L5.451,3.738L5.144,3.816L4.82,3.769L3.236,3.205L2.996,3.193L2.79,3.316L2.324,3.888L1.921,4.504L1.585,5.159L1.32,5.848L1.316,6.087L1.446,6.288L2.73,7.373L2.825,7.468L2.983,7.754L3.018,8.067L2.933,8.37L2.73,8.627L1.446,9.712L1.316,9.913L1.32,10.15L1.585,10.84L1.921,11.5L2.324,12.11L2.79,12.68L2.996,12.81L3.236,12.8L4.82,12.23L4.949,12.2L5.277,12.2L5.567,12.33L5.788,12.55L5.91,12.86L6.212,14.51L6.322,14.72L6.532,14.84L7.229,14.95L6.98,14.63L6.641,14.07L6.368,13.48L6.167,12.85L6.043,12.19L6,11.5L6.029,10.94L6.112,10.39L6.248,9.866L6.433,9.361L6.454,9.316L6.309,9.14L6.121,8.794L6.002,8.411L5.961,8L6.002,7.589L6.121,7.206L6.309,6.86L6.558,6.558L6.86,6.309L7.206,6.121L7.589,6.002L8,5.961L8.411,6.002L8.794,6.121L9.14,6.309L9.316,6.454L9.361,6.433L9.866,6.248L10.39,6.112L10.94,6.029L11.5,6L12.19,6.043L12.85,6.167L13.48,6.368L14.07,6.641L14.11,6.663L14.55,6.288L14.68,6.087L14.68,5.848L14.41,5.159L14.08,4.504L13.68,3.888L13.21,3.316L13,3.193L12.76,3.205L11.18,3.769L11.05,3.803L10.72,3.797L10.43,3.671L10.21,3.445L10.09,3.142L9.787,1.493L9.677,1.28L9.467,1.164L8.74,1.05L8,1.011zz" fill="#404040"/>
    </g>
    <g id="overlay">
      <path d="M11.5,13.1471c-0.1395,0,-0.2706,-0.0543,-0.3692,-0.153l-2,-2c-0.0985,-0.0984,-0.1527,-0.2295,-0.1527,-0.3691s0.0542,-0.2707,0.1527,-0.3692c0.0986,-0.0986,0.2297,-0.1529,0.3692,-0.1529s0.2706,0.0543,0.3692,0.1529L11.5,11.8866l1.6309,-1.6308c0.0986,-0.0986,0.2297,-0.1529,0.3691,-0.1529s0.2706,0.0543,0.3691,0.1529c0.0985,0.0985,0.1527,0.2296,0.1527,0.3692s-0.0542,0.2707,-0.1527,0.3692l-2,2C11.7706,13.0928,11.6395,13.1471,11.5,13.1471z" fill="#FFFFFF"/>
      <path d="M11.5,7c-2.4813,0,-4.5,2.0187,-4.5,4.5c0,2.4813,2.0187,4.5,4.5,4.5s4.5,-2.0187,4.5,-4.5C16,9.0187,13.9813,7,11.5,7zM13.8691,10.9942l-2,2c-0.0985,0.0986,-0.2296,0.1529,-0.3691,0.1529s-0.2706,-0.0543,-0.3692,-0.153l-2,-2c-0.0985,-0.0984,-0.1527,-0.2295,-0.1527,-0.3691s0.0542,-0.2707,0.1527,-0.3692c0.0986,-0.0986,0.2297,-0.1529,0.3692,-0.1529s0.2706,0.0543,0.3692,0.1529L11.5,11.8866l1.6309,-1.6308c0.0986,-0.0986,0.2297,-0.1529,0.3691,-0.1529s0.2706,0.0543,0.3691,0.1529c0.0985,0.0985,0.1527,0.2296,0.1527,0.3692S13.9676,10.8957,13.8691,10.9942z" fill="#059669"/>
    </g>
  </g>
</svg>
