<?xml version="1.0" encoding="UTF-8"?>
<!DOCTYPE svg PUBLIC "-//W3C//DTD SVG 1.1//EN" "http://www.w3.org/Graphics/SVG/1.1/DTD/svg11.dtd">
<svg version="1.1" id="Layer_1" xmlns="http://www.w3.org/2000/svg" xmlns:xlink="http://www.w3.org/1999/xlink" x="0px" y="0px" width="16px" height="16px" viewBox="0 0 16 16" enable-background="new 0 0 16 16" xml:space="preserve">
  <g id="icon">
    <path d="M3,8c0,-2.7614,2.2386,-5,5,-5c1.6351,0,3.087,0.7844,4,1.9995L9.5,5c-0.2761,0,-0.5,0.2239,-0.5,0.5s0.2239,0.5,0.5,0.5h3c0.2761,0,0.5,-0.2239,0.5,-0.5v-0.6571c0.0001,-0.0043,0.0001,-0.0086,0,-0.0129V2.5c0,-0.2761,-0.2239,-0.5,-0.5,-0.5s-0.5,0.2239,-0.5,0.5v1.0279C10.9388,2.5781,9.5369,2,8,2c-3.3137,0,-6,2.6863,-6,6c0,3.3137,2.6863,6,6,6c3.3137,0,6,-2.6863,6,-6c0,-0.2761,-0.2239,-0.5,-0.5,-0.5s-0.5,0.2239,-0.5,0.5c0,2.7614,-2.2386,5,-5,5C5.2386,13,3,10.7614,3,8z" fill="#0891b2"/>
  </g>
</svg>
