<?xml version="1.0" encoding="UTF-8"?>
<!DOCTYPE svg PUBLIC "-//W3C//DTD SVG 1.1//EN" "http://www.w3.org/Graphics/SVG/1.1/DTD/svg11.dtd">
<svg version="1.1" id="Layer_1" xmlns="http://www.w3.org/2000/svg" xmlns:xlink="http://www.w3.org/1999/xlink" x="0px" y="0px" width="16px" height="16px" viewBox="0 0 16 16" enable-background="new 0 0 16 16" xml:space="preserve">
  <g id="main">
    <g id="icon">
      <path d="M7.469,1.635L7.02,1.775L6.614,1.997L6.26,2.291L5.968,2.647L5.748,3.056L5.608,3.507L5.56,3.991L5.608,4.475L5.748,4.926L5.968,5.334L6.26,5.69L6.614,5.984L7.02,6.206L7.469,6.346L7.95,6.395L8.431,6.346L8.88,6.206L9.286,5.984L9.64,5.69L9.932,5.334L10.15,4.926L10.29,4.475L10.34,3.991L10.29,3.507L10.15,3.056L9.932,2.647L9.64,2.291L9.286,1.997L8.88,1.775L8.431,1.635L7.95,1.586zM3.711,8.682L3.387,8.9L3.168,9.223L3.088,9.619L3.088,10.17L3.173,10.87L3.423,11.55L3.832,12.19L4.391,12.77L5.095,13.26L5.936,13.64L6.077,13.67L6.139,13.47L6.308,13.15L6.539,12.87L8.961,10.47L8.935,10.01L9.017,9.204L9.205,8.602L4.106,8.602zz" fill="#F5F5F5"/>
      <path d="M7.352,1.061L6.795,1.235L6.291,1.512L5.851,1.877L5.488,2.32L5.214,2.828L5.041,3.389L4.98,3.991L5.041,4.593L5.214,5.154L5.488,5.662L5.851,6.105L6.291,6.47L6.795,6.746L7.352,6.921L7.95,6.982L8.548,6.921L9.105,6.746L9.609,6.47L10.05,6.105L10.41,5.662L10.69,5.154L10.86,4.593L10.92,3.991L10.86,3.389L10.69,2.828L10.41,2.32L10.05,1.877L9.609,1.512L9.105,1.235L8.548,1.061L7.95,1zM8.351,2.027L8.724,2.144L9.062,2.329L9.357,2.574L9.6,2.871L9.784,3.211L9.9,3.587L9.94,3.991L9.9,4.394L9.784,4.77L9.6,5.111L9.357,5.408L9.062,5.653L8.724,5.838L8.351,5.955L7.95,5.995L7.549,5.955L7.176,5.838L6.838,5.653L6.543,5.408L6.3,5.111L6.116,4.77L6,4.394L5.96,3.991L6,3.587L6.116,3.211L6.3,2.871L6.543,2.574L6.838,2.329L7.176,2.144L7.549,2.027L7.95,1.986zM3.783,8.048L3.482,8.142L3.209,8.29L2.971,8.486L2.775,8.723L2.626,8.995L2.533,9.296L2.5,9.619L2.5,10.17L2.595,10.98L2.875,11.77L3.332,12.51L3.959,13.17L4.747,13.73L5.688,14.17L6,14.27L6,14.17L6.035,13.81L6.139,13.47L6.229,13.3L6.104,13.27L5.331,12.93L4.685,12.5L4.171,11.98L3.796,11.41L3.566,10.8L3.488,10.17L3.488,9.619L3.537,9.379L3.67,9.183L3.866,9.05L4.106,9.002L9.08,9.002L9.252,8.452L9.49,8.016L4.106,8.016zz" fill="#404040"/>
    </g>
    <g id="overlay">
      <path d="M7.8317,15.603c-0.2397,0,-0.4347,-0.1928,-0.4347,-0.4298v-1.004c0,-0.1145,0.045,-0.2222,0.1266,-0.3032l2.9653,-2.944l-0.0505,-0.1708c-0.0709,-0.2391,-0.1068,-0.4877,-0.1068,-0.7391c0,-1.4419,1.1823,-2.6151,2.6357,-2.6151s2.6357,1.1731,2.6357,2.6151c0,1.442,-1.1823,2.6151,-2.6357,2.6151h-1.0948v1.027c0,0.0362,-0.0304,0.0656,-0.0678,0.0656h-0.9705v0.6006c0,0.0362,-0.0304,0.0656,-0.0678,0.0656H9.7337v0.7872c0,0.237,-0.195,0.4298,-0.4347,0.4298H7.8317z" fill="#F5F5F5"/>
      <path d="M7.8317,16c-0.4586,0,-0.8317,-0.3709,-0.8317,-0.8268v-1.004c0,-0.221,0.0866,-0.4288,0.244,-0.585l2.7975,-2.7774c-0.0709,-0.2581,-0.1068,-0.5252,-0.1068,-0.7947C9.9346,8.3512,11.2951,7,12.9673,7C14.6395,7,16,8.3512,16,10.0121s-1.3605,3.0121,-3.0327,3.0121h-0.6978v0.63c0,0.2551,-0.2085,0.4626,-0.4649,0.4626h-0.5735v0.2036c0,0.2551,-0.2085,0.4626,-0.4649,0.4626h-0.6356v0.3901c0,0.4559,-0.3731,0.8268,-0.8317,0.8268H7.8317zM9.201,15.0748v-0.7544c0,-0.2551,0.2086,-0.4626,0.4649,-0.4626h0.6356v-0.2036c0,-0.2551,0.2086,-0.4626,0.4649,-0.4626h0.5734v-0.63c0,-0.2551,0.2086,-0.4626,0.4649,-0.4626h1.1627c1.1595,0,2.1029,-0.9361,2.1029,-2.0868s-0.9434,-2.0869,-2.1029,-2.0869c-1.1596,0,-2.103,0.9362,-2.103,2.0869c0,0.26,0.0475,0.5135,0.1412,0.7536c0.0668,0.171,0.0256,0.3653,-0.1049,0.495l-2.9708,2.9496v0.8645H9.201zM13.3851,10.4622c-0.4863,0,-0.882,-0.3933,-0.882,-0.8768s0.3957,-0.8768,0.882,-0.8768c0.4863,0,0.882,0.3933,0.882,0.8768S13.8714,10.4622,13.3851,10.4622z" fill="#F59E0B"/>
    </g>
  </g>
</svg>
