<?xml version="1.0" encoding="UTF-8"?>
<!DOCTYPE svg PUBLIC "-//W3C//DTD SVG 1.1//EN" "http://www.w3.org/Graphics/SVG/1.1/DTD/svg11.dtd">
<svg version="1.1" id="Layer_1" xmlns="http://www.w3.org/2000/svg" xmlns:xlink="http://www.w3.org/1999/xlink" x="0px" y="0px" width="16px" height="16px" viewBox="0 0 16 16" enable-background="new 0 0 16 16" xml:space="preserve">
  <g id="main">
    <g id="icon">
      <path d="M4.037,2.539L3.676,2.651L3.349,2.829L3.064,3.064L2.829,3.349L2.651,3.676L2.539,4.037L2.5,4.425L2.5,11.58L2.539,11.96L2.651,12.32L2.829,12.65L3.064,12.94L3.349,13.17L3.676,13.35L4.037,13.46L4.425,13.5L6.129,13.5L6.139,13.47L6.308,13.15L6.539,12.87L8.961,10.47L8.935,10.01L9.017,9.204L9.252,8.452L9.624,7.771L10.12,7.176L10.71,6.686L11.4,6.316L12.16,6.082L12.97,6L13.5,6.058L13.5,4.425L13.46,4.037L13.35,3.676L13.17,3.349L12.94,3.064L12.65,2.829L12.32,2.651L11.96,2.539L11.58,2.5L4.425,2.5zz" fill="#F5F5F5"/>
      <path d="M3.996,2.051L3.527,2.196L3.102,2.427L2.732,2.732L2.427,3.102L2.196,3.527L2.051,3.996L2,4.5L2,11.5L2.051,12L2.196,12.47L2.427,12.9L2.732,13.27L3.102,13.57L3.527,13.8L3.996,13.95L4.5,14L6.017,14L6.035,13.81L6.139,13.47L6.308,13.15L6.436,13L6,13L6,11L8.427,11L8.961,10.47L8.935,10.01L8.936,10L6,10L6,6L10,6L10,7.318L10.12,7.176L10.71,6.686L11,6.532L11,6L12.97,6L13,6L13,6.004L13.85,6.096L14,6.148L14,4.5L13.95,3.996L13.8,3.527L13.57,3.102L13.27,2.732L12.9,2.427L12.47,2.196L12,2.051L11.5,2L4.5,2zM5,3L5,5L3,5L3,4.5L3.03,4.198L3.118,3.916L3.256,3.661L3.439,3.439L3.661,3.256L3.916,3.118L4.198,3.03L4.5,3zM10,3L10,5L6,5L6,3zM11.5,3L11.8,3.03L12.08,3.118L12.34,3.256L12.56,3.439L12.74,3.661L12.88,3.916L12.97,4.198L13,4.5L13,5L11,5L11,3zM5,6L5,10L3,10L3,6zM5,11L5,13L4.5,13L4.198,12.97L3.916,12.88L3.661,12.74L3.439,12.56L3.256,12.34L3.118,12.08L3.03,11.8L3,11.5L3,11zz" fill="#404040"/>
    </g>
    <g id="overlay">
      <path d="M7.8317,15.603c-0.2397,0,-0.4347,-0.1928,-0.4347,-0.4298v-1.004c0,-0.1145,0.045,-0.2222,0.1266,-0.3032l2.9653,-2.944l-0.0505,-0.1708c-0.0709,-0.2391,-0.1068,-0.4877,-0.1068,-0.7391c0,-1.4419,1.1823,-2.6151,2.6357,-2.6151s2.6357,1.1731,2.6357,2.6151c0,1.442,-1.1823,2.6151,-2.6357,2.6151h-1.0948v1.027c0,0.0362,-0.0304,0.0656,-0.0678,0.0656h-0.9705v0.6006c0,0.0362,-0.0304,0.0656,-0.0678,0.0656H9.7337v0.7872c0,0.237,-0.195,0.4298,-0.4347,0.4298H7.8317z" fill="#F5F5F5"/>
      <path d="M7.8317,16c-0.4586,0,-0.8317,-0.3709,-0.8317,-0.8268v-1.004c0,-0.221,0.0866,-0.4288,0.244,-0.585l2.7975,-2.7774c-0.0709,-0.2581,-0.1068,-0.5252,-0.1068,-0.7947C9.9346,8.3512,11.2951,7,12.9673,7C14.6395,7,16,8.3512,16,10.0121s-1.3605,3.0121,-3.0327,3.0121h-0.6978v0.63c0,0.2551,-0.2085,0.4626,-0.4649,0.4626h-0.5735v0.2036c0,0.2551,-0.2085,0.4626,-0.4649,0.4626h-0.6356v0.3901c0,0.4559,-0.3731,0.8268,-0.8317,0.8268H7.8317zM9.201,15.0748v-0.7544c0,-0.2551,0.2086,-0.4626,0.4649,-0.4626h0.6356v-0.2036c0,-0.2551,0.2086,-0.4626,0.4649,-0.4626h0.5734v-0.63c0,-0.2551,0.2086,-0.4626,0.4649,-0.4626h1.1627c1.1595,0,2.1029,-0.9361,2.1029,-2.0868s-0.9434,-2.0869,-2.1029,-2.0869c-1.1596,0,-2.103,0.9362,-2.103,2.0869c0,0.26,0.0475,0.5135,0.1412,0.7536c0.0668,0.171,0.0256,0.3653,-0.1049,0.495l-2.9708,2.9496v0.8645H9.201zM13.3851,10.4622c-0.4863,0,-0.882,-0.3933,-0.882,-0.8768s0.3957,-0.8768,0.882,-0.8768c0.4863,0,0.882,0.3933,0.882,0.8768S13.8714,10.4622,13.3851,10.4622z" fill="#F59E0B"/>
    </g>
  </g>
</svg>
