<?xml version="1.0" encoding="UTF-8"?>
<!DOCTYPE svg PUBLIC "-//W3C//DTD SVG 1.1//EN" "http://www.w3.org/Graphics/SVG/1.1/DTD/svg11.dtd">
<svg version="1.1" id="Layer_1" xmlns="http://www.w3.org/2000/svg" xmlns:xlink="http://www.w3.org/1999/xlink" x="0px" y="0px" width="16px" height="16px" viewBox="0 0 16 16" enable-background="new 0 0 16 16" xml:space="preserve">
  <g id="icon">
    <path d="M13.5,4.1v7.8c0,0.8837,-0.7163,1.6,-1.6,1.6H4.1c-0.8837,0,-1.6,-0.7163,-1.6,-1.6V4.1c0,-0.8837,0.7163,-1.6,1.6,-1.6h7.8C12.7837,2.5,13.5,3.2163,13.5,4.1z" fill="#F5F5F5"/>
    <path d="M6.5,11.2v2.1H5.5v-2.1c0,-0.2761,0.2239,-0.5,0.5,-0.5h0C6.2761,10.7,6.5,10.9239,6.5,11.2zM9.5,11.2v2.1h1v-2.1c0,-0.2761,-0.2239,-0.5,-0.5,-0.5h0C9.7239,10.7,9.5,10.9239,9.5,11.2zM9.5,2.7v2.1c0,0.2761,0.2239,0.5,0.5,0.5h0c0.2761,0,0.5,-0.2239,0.5,-0.5V2.7H9.5zM5.5,2.7v2.1c0,0.2761,0.2239,0.5,0.5,0.5h0c0.2761,0,0.5,-0.2239,0.5,-0.5V2.7H5.5z" fill="#404040"/>
    <path d="M4.1,2h7.8c1.1598,0,2.1,0.9402,2.1,2.1v0.7c0,0.2761,-0.2239,0.5,-0.5,0.5l0,0c-0.2761,0,-0.5,-0.2239,-0.5,-0.5v-0.7c0,-0.6075,-0.4925,-1.1,-1.1,-1.1H4.1c-0.6075,0,-1.1,0.4925,-1.1,1.1v0.7c0,0.2761,-0.2239,0.5,-0.5,0.5h0c-0.2761,0,-0.5,-0.2239,-0.5,-0.5v-0.7C2,2.9402,2.9402,2,4.1,2zM13,11.2v0.7c0,0.6075,-0.4925,1.1,-1.1,1.1H4.1c-0.6075,0,-1.1,-0.4925,-1.1,-1.1v-0.7c0,-0.2761,-0.2239,-0.5,-0.5,-0.5h0c-0.2761,0,-0.5,0.2239,-0.5,0.5v0.7c0,1.1598,0.9402,2.1,2.1,2.1h7.8c1.1598,0,2.1,-0.9402,2.1,-2.1v-0.7c0,-0.2761,-0.2239,-0.5,-0.5,-0.5l0,0C13.2239,10.7,13,10.9239,13,11.2z" fill="#404040"/>
    <path d="M14,7.3v1.4c0,0.7168,-0.5832,1.3,-1.3,1.3H3.3c-0.7168,0,-1.3,-0.5832,-1.3,-1.3V7.3c0,-0.7168,0.5832,-1.3,1.3,-1.3h9.4C13.4168,6,14,6.5832,14,7.3zM3,8.7c0,0.1654,0.1346,0.3,0.3,0.3h9.4c0.1654,0,0.3,-0.1346,0.3,-0.3V7.3c0,-0.1654,-0.1346,-0.3,-0.3,-0.3H3.3c-0.1654,0,-0.3,0.1346,-0.3,0.3V8.7z" fill="#0891b2"/>
  </g>
</svg>
