<?xml version="1.0" encoding="UTF-8"?>
<!DOCTYPE svg PUBLIC "-//W3C//DTD SVG 1.1//EN" "http://www.w3.org/Graphics/SVG/1.1/DTD/svg11.dtd">
<svg version="1.1" id="Layer_1" xmlns="http://www.w3.org/2000/svg" xmlns:xlink="http://www.w3.org/1999/xlink" x="0px" y="0px" width="16px" height="16px" viewBox="0 0 16 16" enable-background="new 0 0 16 16" xml:space="preserve">
  <g id="icon">
    <path d="M13.5,8c0,3.0376,-2.4624,5.5,-5.5,5.5s-5.5,-2.4624,-5.5,-5.5s2.4624,-5.5,5.5,-5.5S13.5,4.9624,13.5,8z" fill="#F5F5F5"/>
    <path d="M8,2c3.3137,0,6,2.6863,6,6c0,3.3137,-2.6863,6,-6,6c-3.3137,0,-6,-2.6863,-6,-6C2,4.6863,4.6863,2,8,2zM8,3c-2.7614,0,-5,2.2386,-5,5c0,2.7614,2.2386,5,5,5c2.7614,0,5,-2.2386,5,-5C13,5.2386,10.7614,3,8,3zM8,10c0.4142,0,0.75,0.3358,0.75,0.75S8.4142,11.5,8,11.5c-0.4142,0,-0.75,-0.3358,-0.75,-0.75S7.5858,10,8,10zM8,4.5c0.2455,0,0.4496,0.1769,0.4919,0.4101L8.5,5v3.5c0,0.2761,-0.2239,0.5,-0.5,0.5c-0.2455,0,-0.4496,-0.1769,-0.4919,-0.4101L7.5,8.5V5C7.5,4.7239,7.7239,4.5,8,4.5z" fill="#BE123C"/>
  </g>
</svg>
