<?xml version="1.0" encoding="UTF-8"?>
<!DOCTYPE svg PUBLIC "-//W3C//DTD SVG 1.1//EN" "http://www.w3.org/Graphics/SVG/1.1/DTD/svg11.dtd">
<svg version="1.1" id="Layer_1" xmlns="http://www.w3.org/2000/svg" xmlns:xlink="http://www.w3.org/1999/xlink" x="0px" y="0px" width="16px" height="16px" viewBox="0 0 16 16" enable-background="new 0 0 16 16" xml:space="preserve">
  <g id="icon">
    <path d="M12.525,14.5h-8.95C2.429,14.5,1.5,13.571,1.5,12.425v-8.85C1.5,2.429,2.429,1.5,3.575,1.5h8.95C13.671,1.5,14.6,2.429,14.6,3.575v8.85C14.6,13.571,13.671,14.5,12.525,14.5z" fill="#F5F5F5"/>
    <path d="M12.5,1H3.5c-1.3807,0,-2.5,1.1193,-2.5,2.5v9c0,1.3807,1.1193,2.5,2.5,2.5h9c1.3807,0,2.5,-1.1193,2.5,-2.5V3.5C15,2.1193,13.8807,1,12.5,1zM14,12.5c0,0.8284,-0.6716,1.5,-1.5,1.5H3.5c-0.8284,0,-1.5,-0.6716,-1.5,-1.5V3.5c0,-0.8284,0.6716,-1.5,1.5,-1.5h9c0.8284,0,1.5,0.6716,1.5,1.5V12.5z" fill="#404040"/>
    <path d="M6.1037,11.3c-0.2903,0,-0.6037,-0.2298,-0.6037,-0.6011V5.3011C5.5,4.9298,5.8133,4.7,6.1036,4.7c0.1024,0,0.2014,0.0264,0.2942,0.0783l4.8201,2.699c0.1923,0.1076,0.307,0.3031,0.307,0.5228c0,0.2196,-0.1148,0.415,-0.3071,0.5227l-4.8201,2.6988C6.305,11.2736,6.2061,11.3,6.1037,11.3z" fill="#059669"/>
  </g>
</svg>
