<?xml version="1.0" encoding="UTF-8"?>
<!DOCTYPE svg PUBLIC "-//W3C//DTD SVG 1.1//EN" "http://www.w3.org/Graphics/SVG/1.1/DTD/svg11.dtd">
<svg version="1.1" id="Layer_1" xmlns="http://www.w3.org/2000/svg" xmlns:xlink="http://www.w3.org/1999/xlink" x="0px" y="0px" width="16px" height="16px" viewBox="0 0 16 16" enable-background="new 0 0 16 16" xml:space="preserve">
  <g id="main">
    <g id="icon">
      <path d="M3.778,2.532L3.477,2.626L3.205,2.773L2.969,2.969L2.773,3.205L2.626,3.477L2.532,3.778L2.5,4.1L2.5,11.9L2.532,12.22L2.626,12.52L2.773,12.79L2.969,13.03L3.205,13.23L3.477,13.37L3.778,13.47L4.1,13.5L7.725,13.5L7.701,13.34L7.7,13.29L7.7,6.202L7.721,5.826L7.784,5.501L8.011,4.995L8.323,4.651L8.662,4.439L8.993,4.326L9.339,4.288L9.786,4.35L10.16,4.499L10.63,4.831L13.5,7.09L13.5,4.1L13.47,3.778L13.37,3.477L13.23,3.205L13.03,2.969L12.79,2.773L12.52,2.626L12.22,2.532L11.9,2.5L4.1,2.5zz" id="b" fill="#FFFFFF"/>
      <path d="M5.5,4.8L5.539,4.995L5.646,5.154L5.805,5.261L6,5.3L6.195,5.261L6.354,5.154L6.461,4.995L6.5,4.8L6.5,2.7L5.5,2.7zM9.5,4.31L9.786,4.35L10.16,4.499L10.5,4.737L10.5,2.7L9.5,2.7zM5.805,10.74L5.646,10.85L5.539,11.01L5.5,11.2L5.5,13.3L6.5,13.3L6.5,11.2L6.461,11.01L6.354,10.85L6.195,10.74L6,10.7zz" fill="#404040"/>
      <path d="M3.677,2.043L3.283,2.165L2.926,2.359L2.615,2.615L2.359,2.926L2.165,3.283L2.043,3.677L2,4.1L2,4.8L2.039,4.995L2.146,5.154L2.305,5.261L2.5,5.3L2.695,5.261L2.854,5.154L2.961,4.995L3,4.8L3,4.1L3.087,3.672L3.322,3.322L3.672,3.087L4.1,3L11.9,3L12.33,3.087L12.68,3.322L12.91,3.672L13,4.1L13,4.8L13.04,4.995L13.15,5.154L13.31,5.261L13.5,5.3L13.69,5.261L13.85,5.154L13.96,4.995L14,4.8L14,4.1L13.96,3.677L13.83,3.283L13.64,2.926L13.38,2.615L13.07,2.359L12.72,2.165L12.32,2.043L11.9,2L4.1,2zM2.305,10.74L2.146,10.85L2.039,11.01L2,11.2L2,11.9L2.043,12.32L2.165,12.72L2.359,13.07L2.615,13.38L2.926,13.64L3.283,13.83L3.677,13.96L4.1,14L7.824,14L7.79,13.92L7.701,13.34L7.7,13.29L7.7,13L4.1,13L3.672,12.91L3.322,12.68L3.087,12.33L3,11.9L3,11.2L2.961,11.01L2.854,10.85L2.695,10.74L2.5,10.7zz" fill="#404040"/>
      <path d="M3.038,6.026L2.795,6.102L2.381,6.381L2.102,6.795L2.026,7.038L2,7.3L2,8.7L2.026,8.962L2.102,9.205L2.381,9.619L2.795,9.898L3.038,9.974L3.3,10L7.7,10L7.7,9L3.3,9L3.088,8.912L3,8.7L3,7.3L3.088,7.088L3.3,7L7.7,7L7.7,6.202L7.711,6L3.3,6zM14,7.484L14,7.3L13.97,7.038L13.9,6.795L13.62,6.381L13.21,6.102L12.96,6.026L12.7,6L12.12,6zz" fill="#0891b2"/>
    </g>
    <g id="overlay">
      <path d="M15.2309,10.3456L9.6927,5.9783c-0.3721,-0.3183,-0.5136,-0.28,-0.5092,0.224v7.0875c0.0194,0.5305,0.3232,0.613,0.7766,0.2353l1.5799,-1.3785l1.6185,3.2836c0.154,0.3191,1.5078,-0.3629,1.3538,-0.682l-1.597,-3.2737l2.064,-0.4217C15.6091,10.8949,15.6746,10.7027,15.2309,10.3456z" id="b" fill="#FFFFFF"/>
      <path d="M13.3472,16c-0.4069,0,-0.5716,-0.2503,-0.6236,-0.3579l-1.3391,-2.7168l-1.1164,0.9739c-0.2742,0.2284,-0.5388,0.3444,-0.7859,0.3444c-0.1057,0,-0.2068,-0.0214,-0.3005,-0.0635c-0.2083,-0.0937,-0.4609,-0.3212,-0.4811,-0.8725l-0.0003,-0.0179V6.2022c-0.0016,-0.1835,-0.0059,-0.6735,0.3869,-0.8579c0.0801,-0.0377,0.165,-0.0568,0.2522,-0.0568c0.2912,0,0.5409,0.2136,0.6609,0.3163l5.5288,4.3599c0.1542,0.1241,0.5537,0.4456,0.4557,0.8954c-0.0897,0.412,-0.4995,0.5672,-0.8886,0.6648c-0.007,0.0017,-0.014,0.0033,-0.0211,0.0048l-1.4507,0.2964l1.3217,2.7094c0.2077,0.4305,-0.0965,0.8959,-0.8135,1.2452c-0.3,0.1461,-0.5641,0.2202,-0.7852,0.2202H13.3472zM11.54,11.6611c0.0319,0,0.0639,0.0032,0.0951,0.0095c0.1456,0.0294,0.272,0.1268,0.3379,0.2606l1.5126,3.0689c0.1535,-0.0497,0.3606,-0.1548,0.49,-0.2486l-1.4936,-3.062c-0.0301,-0.0618,-0.047,-0.1227,-0.05,-0.1811c-0.0128,-0.2469,0.1499,-0.4613,0.387,-0.5097L14.7706,10.6L9.6667,6.575v6.5631l1.5564,-1.3581C11.3111,11.7034,11.4236,11.6611,11.54,11.6611z" id="c1" fill="#404040"/>
    </g>
  </g>
</svg>
