<?xml version="1.0" encoding="UTF-8"?>
<!DOCTYPE svg PUBLIC "-//W3C//DTD SVG 1.1//EN" "http://www.w3.org/Graphics/SVG/1.1/DTD/svg11.dtd">
<svg version="1.1" id="Layer_1" xmlns="http://www.w3.org/2000/svg" xmlns:xlink="http://www.w3.org/1999/xlink" x="0px" y="0px" width="16px" height="16px" viewBox="0 0 16 16" enable-background="new 0 0 16 16" xml:space="preserve">
  <g id="main">
    <g id="icon">
      <path d="M3.157,1.542L2.767,1.663L2.415,1.854L2.108,2.108L1.854,2.415L1.663,2.767L1.542,3.157L1.5,3.575L1.5,12.42L1.542,12.84L1.663,13.23L1.854,13.59L2.108,13.89L2.415,14.15L2.767,14.34L3.157,14.46L3.575,14.5L6.901,14.5L6.641,14.07L6.368,13.48L6.167,12.85L6.043,12.19L6,11.5L6.029,10.94L6.112,10.39L6.248,9.866L6.433,9.361L6.665,8.88L6.941,8.427L7.257,8.004L7.613,7.613L8.004,7.257L8.427,6.941L8.88,6.665L9.361,6.433L9.866,6.248L10.39,6.112L10.94,6.029L11.5,6L12.19,6.043L12.85,6.167L13.48,6.368L14.07,6.641L14.6,6.962L14.6,3.575L14.56,3.157L14.44,2.767L14.25,2.415L13.99,2.108L13.69,1.854L13.33,1.663L12.94,1.542L12.52,1.5L3.575,1.5zz" fill="#F5F5F5"/>
      <path d="M2.996,1.051L2.527,1.196L2.102,1.427L1.732,1.732L1.427,2.102L1.196,2.527L1.051,2.996L1,3.5L1,12.5L1.051,13L1.196,13.47L1.427,13.9L1.732,14.27L2.102,14.57L2.527,14.8L2.996,14.95L3.5,15L7.272,15L6.98,14.63L6.641,14.07L6.607,14L3.5,14L3.198,13.97L2.916,13.88L2.661,13.74L2.439,13.56L2.256,13.34L2.118,13.08L2.03,12.8L2,12.5L2,3.5L2.03,3.198L2.118,2.916L2.256,2.661L2.439,2.439L2.661,2.256L2.916,2.118L3.198,2.03L3.5,2L12.5,2L12.8,2.03L13.08,2.118L13.34,2.256L13.56,2.439L13.74,2.661L13.88,2.916L13.97,3.198L14,3.5L14,6.607L14.07,6.641L14.63,6.98L15,7.272L15,3.5L14.95,2.996L14.8,2.527L14.57,2.102L14.27,1.732L13.9,1.427L13.47,1.196L13,1.051L12.5,1L3.5,1zz" fill="#404040"/>
      <path d="M5.887,4.742L5.693,4.861L5.554,5.051L5.5,5.301L5.5,10.7L5.554,10.95L5.693,11.14L5.887,11.26L6.011,11.28L6.029,10.94L6.112,10.39L6.248,9.866L6.433,9.361L6.665,8.88L6.941,8.427L7.257,8.004L7.613,7.613L8.004,7.257L8.427,6.941L8.88,6.665L9.356,6.435L6.398,4.778L6.104,4.7zz" fill="#059669"/>
    </g>
    <g id="overlay">
      <path d="M11.5254,14.3321c-0.2308,0,-0.4179,-0.1871,-0.4179,-0.4179v-3.8267l-0.3746,0.3709c-0.1639,0.1624,-0.4285,0.1611,-0.5909,-0.0029c-0.1624,-0.164,-0.1611,-0.4285,0.0029,-0.5909l1.0864,-1.0759c0.1199,-0.1186,0.2994,-0.1536,0.4549,-0.0888c0.1556,0.0649,0.257,0.217,0.257,0.3857v4.8285C11.9432,14.145,11.7561,14.3321,11.5254,14.3321z" fill="#F5F5F5"/>
      <path d="M11.5,7c-2.4813,0,-4.5,2.0187,-4.5,4.5s2.0187,4.5,4.5,4.5s4.5,-2.0187,4.5,-4.5S13.9813,7,11.5,7zM11.9432,13.9143c0,0.2308,-0.1871,0.4179,-0.4179,0.4179c-0.2308,0,-0.4179,-0.1871,-0.4179,-0.4179v-3.8267l-0.3746,0.3709c-0.1639,0.1624,-0.4285,0.1611,-0.5909,-0.0029c-0.1624,-0.164,-0.1611,-0.4285,0.0029,-0.5909l1.0864,-1.0759c0.1199,-0.1186,0.2994,-0.1536,0.4549,-0.0888c0.1556,0.0649,0.257,0.217,0.257,0.3857V13.9143z" fill="#BE123C"/>
    </g>
  </g>
</svg>
