<?xml version="1.0" encoding="UTF-8"?>
<!DOCTYPE svg PUBLIC "-//W3C//DTD SVG 1.1//EN" "http://www.w3.org/Graphics/SVG/1.1/DTD/svg11.dtd">
<svg version="1.1" id="Layer_1" xmlns="http://www.w3.org/2000/svg" xmlns:xlink="http://www.w3.org/1999/xlink" x="0px" y="0px" width="16px" height="16px" viewBox="0 0 16 16" enable-background="new 0 0 16 16" xml:space="preserve">
  <g id="icon">
    <path d="M4.502,13.5023c-0.4819,0,-1.002,-0.3832,-1.002,-1.0022V3.4999c0,-0.619,0.5201,-1.0022,1.0019,-1.0022c0.17,0,0.3342,0.0439,0.4883,0.1306l8.0001,4.5003c0.3191,0.1795,0.5096,0.5054,0.5096,0.8716c0,0.3662,-0.1906,0.692,-0.5097,0.8715l-8.0001,4.5C4.8362,13.4584,4.6719,13.5023,4.502,13.5023z" id="b" fill="#FFFFFF"/>
    <path d="M4.7451,3.0641C4.4118,2.8766,4,3.1175,4,3.4999v9.0003c0,0.3824,0.4118,0.6233,0.7451,0.4358l8.0001,-4.5c0.3398,-0.1911,0.3398,-0.6804,0,-0.8716L4.7451,3.0641zM3,3.4999c0,-1.1473,1.2355,-1.8698,2.2354,-1.3074l8.0001,4.5003c1.0194,0.5735,1.0194,2.0413,-0.0001,2.6147l-8.0001,4.5C4.2354,14.37,3,13.6474,3,12.5002V3.4999z" id="c1" fill="#059669"/>
  </g>
</svg>
