<?xml version="1.0" encoding="UTF-8"?>
<!DOCTYPE svg PUBLIC "-//W3C//DTD SVG 1.1//EN" "http://www.w3.org/Graphics/SVG/1.1/DTD/svg11.dtd">
<svg version="1.1" id="Layer_1" xmlns="http://www.w3.org/2000/svg" xmlns:xlink="http://www.w3.org/1999/xlink" x="0px" y="0px" width="16px" height="16px" viewBox="0 0 16 16" enable-background="new 0 0 16 16" xml:space="preserve">
  <g id="icon">
    <path d="M4.5,14.9L4.5,14.9c0.2761,0,0.5,-0.2239,0.5,-0.5l0,-9.2893c0,-1.5782,1.1949,-2.9334,2.7686,-3.052C9.5269,1.9262,11,3.3193,11,5.05V7.1h1V5.1219c0,-2.1211,-1.6231,-3.929,-3.7399,-4.0636C5.9372,0.9106,4,2.7583,4,5.05V14.4C4,14.6761,4.2239,14.9,4.5,14.9z" fill="#404040"/>
    <polygon points="9.1398,7.5 11.431,11.0438 13.8,7.5" fill="#F5F5F5" stroke-linejoin="miter"/>
    <path d="M8.6398,7.4999c0,-0.1387,0.0576,-0.2779,0.1746,-0.3805C8.9077,7.0376,9.032,7,9.1562,7l4.6281,0c0.1228,0,0.2458,0.037,0.3386,0.1175c0.2016,0.1747,0.229,0.4564,0.0927,0.6604l-2.3689,3.5438c-0.0936,0.1399,-0.2512,0.2234,-0.4195,0.2221c-0.1683,-0.0013,-0.3247,-0.0872,-0.4161,-0.2285L8.7199,7.7715C8.6666,7.6891,8.6398,7.5946,8.6398,7.4999zM12.8643,8l-2.8059,0l1.3795,2.1337L12.8643,8z" fill="#059669"/>
  </g>
</svg>
