<?xml version="1.0" encoding="UTF-8"?>
<!DOCTYPE svg PUBLIC "-//W3C//DTD SVG 1.1//EN" "http://www.w3.org/Graphics/SVG/1.1/DTD/svg11.dtd">
<svg version="1.1" id="Layer_1" xmlns="http://www.w3.org/2000/svg" xmlns:xlink="http://www.w3.org/1999/xlink" x="0px" y="0px" width="16px" height="16px" viewBox="0 0 16 16" enable-background="new 0 0 16 16" xml:space="preserve">
  <g id="icon">
    <path d="M8.8083,12.4H2.1917c-0.3268,0,-0.5917,-0.2649,-0.5917,-0.5917V7.2917C1.6,6.9649,1.8649,6.7,2.1917,6.7h6.6167C9.1351,6.7,9.4,6.9649,9.4,7.2917v4.5167C9.4,12.1351,9.1351,12.4,8.8083,12.4z" fill="#F5F5F5"/>
    <path d="M2.3652,13H5h1l0,0h1h1.4785h0.0563c0.8059,0,1.4652,-0.6593,1.4652,-1.4652V7.5333v-0.0681C10,6.6593,9.3407,6,8.5348,6h-5.944h-0.1798C1.6047,6.0667,1,6.7333,1,7.4667v4.1v0.0681C1,12.3888,1.6112,13,2.3652,13zM2,7.4647v-0.0664C2,7.1992,2.2006,7,2.468,7H8.532h0.0669C8.7994,7,9,7.1992,9,7.4647v4.0706v0.0664c0,0.1992,-0.2006,0.3983,-0.468,0.3983H2.468h-0.0669c-0.2006,0,-0.4012,-0.1992,-0.4012,-0.4647V7.4647zM8.1,15H2.9c-0.2761,0,-0.5,-0.2239,-0.5,-0.5l0,0c0,-0.2761,0.2239,-0.5,0.5,-0.5h5.2c0.2761,0,0.5,0.2239,0.5,0.5l0,0C8.6,14.7761,8.3761,15,8.1,15z" fill="#404040"/>
    <path d="M13.8083,1.7H7.1917C6.8649,1.7,6.6,1.9649,6.6,2.2917V5h1.9348c1.3375,0,2.4287,1.0708,2.4635,2.4h2.81c0.3268,0,0.5917,-0.2649,0.5917,-0.5917V2.2917C14.4,1.9649,14.1351,1.7,13.8083,1.7z" fill="#F5F5F5"/>
    <path d="M13.6,9.5c0,0.2761,-0.2239,0.5,-0.5,0.5h-2.1V9h2.1C13.3761,9,13.6,9.2239,13.6,9.5zM13.5348,1h-5.944h-0.1798C6.6047,1.0667,6,1.7333,6,2.4667V5h1V2.4647v-0.0664C7,2.1992,7.2006,2,7.468,2h6.0639h0.0669c0.2006,0,0.4012,0.1992,0.4012,0.4647v4.0706v0.0664c0,0.1992,-0.2006,0.3983,-0.468,0.3983h-2.5766c0.0289,0.1507,0.0446,0.3061,0.0446,0.4652V8h1h1.4785h0.0563C14.3407,8,15,7.3407,15,6.5348V2.5333v-0.0681C15,1.6593,14.3407,1,13.5348,1z" fill="#404040"/>
    <path d="M2.6917,3h-0.3833C2.138,3,2,2.862,2,2.6917v-0.3833C2,2.138,2.138,2,2.3083,2h0.3833C2.862,2,3,2.138,3,2.3083v0.3833C3,2.862,2.862,3,2.6917,3zM5,2.6917v-0.3833C5,2.138,4.862,2,4.6917,2h-0.3833C4.138,2,4,2.138,4,2.3083v0.3833C4,2.862,4.138,3,4.3083,3h0.3833C4.862,3,5,2.862,5,2.6917zM3,4.6917v-0.3833C3,4.138,2.862,4,2.6917,4h-0.3833C2.138,4,2,4.138,2,4.3083v0.3833C2,4.862,2.138,5,2.3083,5h0.3833C2.862,5,3,4.862,3,4.6917zM14,13.6917v-0.3833c0,-0.1703,-0.138,-0.3083,-0.3083,-0.3083h-0.3833c-0.1703,0,-0.3083,0.138,-0.3083,0.3083v0.3833c0,0.1703,0.138,0.3083,0.3083,0.3083h0.3833C13.862,14,14,13.862,14,13.6917zM14,11.6917v-0.3833c0,-0.1703,-0.138,-0.3083,-0.3083,-0.3083h-0.3833c-0.1703,0,-0.3083,0.138,-0.3083,0.3083v0.3833c0,0.1703,0.138,0.3083,0.3083,0.3083h0.3833C13.862,12,14,11.862,14,11.6917zM12,13.6917v-0.3833c0,-0.1703,-0.138,-0.3083,-0.3083,-0.3083h-0.3833c-0.1703,0,-0.3083,0.138,-0.3083,0.3083v0.3833c0,0.1703,0.138,0.3083,0.3083,0.3083h0.3833C11.862,14,12,13.862,12,13.6917z" fill="#F59E0B"/>
  </g>
</svg>
