<?xml version="1.0" encoding="UTF-8"?>
<!DOCTYPE svg PUBLIC "-//W3C//DTD SVG 1.1//EN" "http://www.w3.org/Graphics/SVG/1.1/DTD/svg11.dtd">
<svg version="1.1" id="Layer_1" xmlns="http://www.w3.org/2000/svg" xmlns:xlink="http://www.w3.org/1999/xlink" x="0px" y="0px" width="16px" height="16px" viewBox="0 0 16 16" enable-background="new 0 0 16 16" xml:space="preserve">
  <g id="icon">
    <path d="M12.5167,14.3H3.4833c-0.4326,0,-0.7833,-0.3507,-0.7833,-0.7833V2.4833C2.7,2.0507,3.0507,1.7,3.4833,1.7H10.25L13.3,4.8v8.7167C13.3,13.9493,12.9493,14.3,12.5167,14.3z" id="b" fill="#F5F5F5"/>
    <path d="M4,1c-1.1046,0,-2,0.8954,-2,2v10c0,1.1046,0.8954,2,2,2h8c1.1046,0,2,-0.8954,2,-2V5.4142c0,-0.3978,-0.158,-0.7793,-0.4393,-1.0607l-2.9143,-2.9142C10.3651,1.158,9.9836,1,9.5858,1H4zM3,3c0,-0.5523,0.4477,-1,1,-1h5v2.5c0,0.8284,0.6716,1.5,1.5,1.5h2.5v7c0,0.5523,-0.4477,1,-1,1H4c-0.5523,0,-1,-0.4477,-1,-1V3zM12.7929,5H10.5c-0.2761,0,-0.5,-0.2239,-0.5,-0.5V2.2071L12.7929,5z" id="c1" fill="#404040"/>
    <path d="M7.5,7c0.2761,0,0.5,-0.2239,0.5,-0.5s-0.2239,-0.5,-0.5,-0.5h-0.5V5h0.5c0.2761,0,0.5,-0.2239,0.5,-0.5s-0.2239,-0.5,-0.5,-0.5h-0.5V2H6v1h-0.5c-0.2761,0,-0.5,0.2239,-0.5,0.5s0.2239,0.5,0.5,0.5h0.5v1h-0.5c-0.2761,0,-0.5,0.2239,-0.5,0.5s0.2239,0.5,0.5,0.5h0.5v1h-0.5c-0.2761,0,-0.5,0.2239,-0.5,0.5s0.2239,0.5,0.5,0.5h0.5v1h-0.5c-0.2761,0,-0.5,0.2239,-0.5,0.5s0.2239,0.5,0.5,0.5h0.5v1h-0.325c-0.3728,0,-0.675,0.3022,-0.675,0.675V14h1v-2h1v2h1v-2.325c0,-0.3728,-0.3022,-0.675,-0.675,-0.675H7V9h0.5c0.2761,0,0.5,-0.2239,0.5,-0.5s-0.2239,-0.5,-0.5,-0.5h-0.5V7H7.5z" id="c2" fill="#404040"/>
  </g>
</svg>
