<?xml version="1.0" encoding="UTF-8"?>
<!DOCTYPE svg PUBLIC "-//W3C//DTD SVG 1.1//EN" "http://www.w3.org/Graphics/SVG/1.1/DTD/svg11.dtd">
<svg version="1.1" id="Layer_1" xmlns="http://www.w3.org/2000/svg" xmlns:xlink="http://www.w3.org/1999/xlink" x="0px" y="0px" width="16px" height="16px" viewBox="0 0 16 16" enable-background="new 0 0 16 16" xml:space="preserve">
  <g id="icon">
    <path d="M12.5167,14.3h-6.475C4.7484,14.3,3.7,13.2516,3.7,11.9583v-9.475C3.7,2.0507,4.0507,1.7,4.4833,1.7H10.25L13.3,4.8v8.7167C13.3,13.9493,12.9493,14.3,12.5167,14.3z" id="b" fill="#F5F5F5"/>
    <path d="M13.5607,4.3535l-2.9143,-2.9142C10.3651,1.158,9.9836,1,9.5858,1H5c-1.1046,0,-2,0.8954,-2,2v4.3c0,0.2761,0.2239,0.5,0.5,0.5h0c0.2761,0,0.5,-0.2239,0.5,-0.5V3c0,-0.5523,0.4477,-1,1,-1h4v2.5c0,0.8284,0.6716,1.5,1.5,1.5h2.5v7c0,0.5523,-0.4477,1,-1,1h-1c-0.2761,0,-0.5,0.2239,-0.5,0.5l0,0c0,0.2761,0.2239,0.5,0.5,0.5h1c1.1046,0,2,-0.8954,2,-2V5.4141C14,5.0163,13.842,4.6348,13.5607,4.3535zM10.5,5c-0.2761,0,-0.5,-0.2239,-0.5,-0.5V2.2071L12.7929,5H10.5z" id="c1" fill="#404040"/>
    <path d="M8.5,15c-0.2761,0,-0.5,-0.2239,-0.5,-0.5v-4.5H7c-0.2761,0,-0.5,-0.2239,-0.5,-0.5s0.2239,-0.5,0.5,-0.5h1.5c0.2761,0,0.5,0.2239,0.5,0.5v5C9,14.7761,8.7761,15,8.5,15zM3.5,9c-1.3785,0,-2.5,1.1215,-2.5,2.5v1c0,1.3785,1.1215,2.5,2.5,2.5s2.5,-1.1215,2.5,-2.5v-1C6,10.1215,4.8785,9,3.5,9zM5,12.5c0,0.8271,-0.6729,1.5,-1.5,1.5s-1.5,-0.6729,-1.5,-1.5v-1c0,-0.8271,0.6729,-1.5,1.5,-1.5s1.5,0.6729,1.5,1.5V12.5z" id="c2" fill="#404040"/>
  </g>
</svg>
