<?xml version="1.0" encoding="UTF-8"?>
<!DOCTYPE svg PUBLIC "-//W3C//DTD SVG 1.1//EN" "http://www.w3.org/Graphics/SVG/1.1/DTD/svg11.dtd">
<svg version="1.1" id="Layer_1" xmlns="http://www.w3.org/2000/svg" xmlns:xlink="http://www.w3.org/1999/xlink" x="0px" y="0px" width="16px" height="16px" viewBox="0 0 16 16" enable-background="new 0 0 16 16" xml:space="preserve">
  <g id="icon">
    <path d="M12.525,14.5h-7.95C3.429,14.5,2.5,13.571,2.5,12.425v-7.85C2.5,3.429,3.429,2.5,4.575,2.5h7.95C13.671,2.5,14.6,3.429,14.6,4.575v7.85C14.6,13.571,13.671,14.5,12.525,14.5z" id="b" fill="#F5F5F5"/>
    <path d="M4.5,2c-1.3807,0,-2.5,1.1193,-2.5,2.5v8c0,1.3807,1.1193,2.5,2.5,2.5h8c1.3807,0,2.5,-1.1193,2.5,-2.5V4.5c0,-1.3807,-1.1193,-2.5,-2.5,-2.5H4.5zM14,5H3v-0.5c0,-0.8284,0.6716,-1.5,1.5,-1.5h8c0.8284,0,1.5,0.6716,1.5,1.5V5zM3,6h11v6.5c0,0.8284,-0.6716,1.5,-1.5,1.5H4.5c-0.8284,0,-1.5,-0.6716,-1.5,-1.5V6z" id="c1" fill="#404040"/>
    <path d="M5.5,4L5.5,4c-0.2761,0,-0.5,-0.2239,-0.5,-0.5V1.5c0,-0.2761,0.2239,-0.5,0.5,-0.5h0c0.2761,0,0.5,0.2239,0.5,0.5v2C6,3.7761,5.7761,4,5.5,4zM12,3.5V1.5c0,-0.2761,-0.2239,-0.5,-0.5,-0.5h0c-0.2761,0,-0.5,0.2239,-0.5,0.5v2c0,0.2761,0.2239,0.5,0.5,0.5h0C11.7761,4,12,3.7761,12,3.5z" id="c1" fill="#404040"/>
    <path d="M4.7998,12.9804c-0.1913,0,-0.3677,-0.1097,-0.4512,-0.2849c-0.0903,-0.1895,-0.0526,-0.4152,0.0943,-0.5651l1.738,-1.7731c0.1426,-0.145,0.2798,-0.288,0.4085,-0.4257c0.1145,-0.1225,0.2162,-0.2487,0.3025,-0.3751c0.0774,-0.1135,0.1397,-0.2332,0.185,-0.3558c0.0396,-0.107,0.0587,-0.2217,0.0587,-0.3509c0,-0.1501,-0.0228,-0.2731,-0.0677,-0.3657c-0.0473,-0.0973,-0.1048,-0.1731,-0.176,-0.2318c-0.0757,-0.0624,-0.1612,-0.1074,-0.2611,-0.1376c-0.1168,-0.0353,-0.2324,-0.0525,-0.3532,-0.0525c-0.1355,0,-0.26,0.0202,-0.37,0.0599c-0.1078,0.039,-0.1993,0.0919,-0.2796,0.1619c-0.0789,0.0687,-0.1425,0.1515,-0.1945,0.2533c-0.0545,0.1066,-0.0913,0.2312,-0.1095,0.3702c-0.0358,0.2738,-0.2871,0.4671,-0.5605,0.4311c-0.2738,-0.0357,-0.4668,-0.2867,-0.4311,-0.5605c0.033,-0.2528,0.1039,-0.487,0.2106,-0.6958c0.1098,-0.2148,0.2539,-0.4007,0.4284,-0.5525c0.1726,-0.1503,0.3732,-0.2674,0.5961,-0.3481c0.4086,-0.1477,0.9009,-0.1608,1.3525,-0.0242c0.2258,0.0682,0.4302,0.1769,0.6077,0.323c0.1821,0.15,0.33,0.3408,0.4398,0.5669c0.1115,0.2298,0.1681,0.4998,0.1681,0.8024c0,0.246,-0.0406,0.4808,-0.1208,0.6975c-0.0736,0.1992,-0.1735,0.3919,-0.297,0.5729c-0.1149,0.1683,-0.2487,0.3345,-0.3977,0.494c-0.1345,0.144,-0.2778,0.2933,-0.4258,0.4438l-0.8904,0.9084h1.7301c0.2761,0,0.5,0.2239,0.5,0.5s-0.2239,0.5,-0.5,0.5H5.187c-0.0731,0,-0.1392,0.001,-0.1982,0.0032c-0.0535,0.002,-0.1009,0.0048,-0.1419,0.0087C4.8312,12.9796,4.8154,12.9804,4.7998,12.9804zM11.7474,12.9544c0.2438,-0.0959,0.459,-0.2283,0.6398,-0.3935c0.1843,-0.1685,0.3304,-0.3673,0.4345,-0.5913c0.1067,-0.2299,0.1608,-0.4747,0.1608,-0.7277c0,-0.2293,-0.0389,-0.4474,-0.1157,-0.6482c-0.0794,-0.2079,-0.1974,-0.3927,-0.3505,-0.5491c-0.0388,-0.0397,-0.082,-0.0778,-0.1302,-0.1147c0.1287,-0.1368,0.2346,-0.295,0.3153,-0.4712c0.0931,-0.2036,0.1403,-0.4274,0.1403,-0.6653c0,-0.2924,-0.0545,-0.5541,-0.1621,-0.7779c-0.1078,-0.224,-0.2555,-0.4114,-0.4392,-0.557c-0.1744,-0.138,-0.3746,-0.2409,-0.5951,-0.3058c-0.2047,-0.0601,-0.4178,-0.0906,-0.6335,-0.0906c-0.2518,0,-0.4907,0.0402,-0.7101,0.1195c-0.2229,0.0806,-0.4235,0.1978,-0.5962,0.3481c-0.1745,0.1519,-0.3186,0.3377,-0.4282,0.5523c-0.1067,0.2087,-0.1776,0.4428,-0.2107,0.6958c-0.0358,0.2738,0.1571,0.5248,0.4309,0.5606c0.2735,0.0357,0.5248,-0.1571,0.5606,-0.4309c0.0182,-0.1392,0.0551,-0.2637,0.1096,-0.3703c0.0521,-0.1019,0.1157,-0.1847,0.1944,-0.2532c0.0805,-0.07,0.172,-0.123,0.2797,-0.162c0.2076,-0.075,0.4812,-0.0806,0.7214,-0.0099c0.0982,0.0289,0.1821,0.0716,0.2563,0.1303c0.0648,0.0514,0.1168,0.119,0.1589,0.2064c0.042,0.0874,0.0633,0.2034,0.0633,0.3446c0,0.0947,-0.0163,0.1763,-0.0496,0.2492c-0.0388,0.0847,-0.0875,0.1556,-0.1488,0.217c-0.0377,0.0377,-0.1229,0.0898,-0.2535,0.1549c-0.0816,0.0268,-0.3374,0.0618,-0.4351,0.0751c-0.0579,0.0079,-0.1073,0.0148,-0.1417,0.0204c-0.2495,0.0408,-0.4292,0.2613,-0.4189,0.5138c0.0103,0.2525,0.2074,0.4577,0.4594,0.478c0.5359,0.0432,0.6721,0.0872,0.6734,0.0872c0,0,0,0,0,0c0.1982,0.0859,0.2601,0.14,0.2744,0.1547c0.0577,0.059,0.1007,0.1267,0.1314,0.207c0.0335,0.0876,0.0498,0.1829,0.0498,0.2912c0,0.108,-0.0222,0.2083,-0.0678,0.3064c-0.0487,0.1047,-0.1148,0.1945,-0.2021,0.2744c-0.0915,0.0835,-0.2,0.1494,-0.3316,0.2012c-0.1282,0.0505,-0.2737,0.0761,-0.4324,0.0761c-0.1523,0,-0.2835,-0.0144,-0.3897,-0.0428c-0.1042,-0.0279,-0.1923,-0.0628,-0.2619,-0.104c-0.0616,-0.0364,-0.1122,-0.0772,-0.1501,-0.1212c-0.0499,-0.0578,-0.0912,-0.117,-0.1231,-0.1763c-0.0345,-0.0641,-0.0621,-0.1279,-0.082,-0.1902c-0.0125,-0.0388,-0.0238,-0.0763,-0.034,-0.1125c-0.0002,-0.0748,-0.0172,-0.1506,-0.0529,-0.2219c-0.1235,-0.2471,-0.424,-0.3472,-0.6708,-0.2236l-0.0141,0.007c-0.2073,0.1036,-0.3162,0.336,-0.2631,0.5616c0.0217,0.0925,0.0496,0.1919,0.0827,0.2948c0.0385,0.1202,0.0902,0.241,0.1538,0.3589c0.0662,0.123,0.1491,0.2425,0.2464,0.3554c0.1092,0.1265,0.2433,0.2372,0.3983,0.3288c0.1478,0.0874,0.3201,0.1578,0.5124,0.2092c0.1905,0.051,0.4086,0.0768,0.6481,0.0768C11.2333,13.1,11.5021,13.051,11.7474,12.9544zM11.3805,9.4193c-0.0006,0.0002,-0.0011,0.0005,-0.0017,0.0008C11.3793,9.4198,11.3799,9.4195,11.3805,9.4193z" id="c2" fill="#404040"/>
  </g>
</svg>
