<?xml version="1.0" encoding="UTF-8"?>
<!DOCTYPE svg PUBLIC "-//W3C//DTD SVG 1.1//EN" "http://www.w3.org/Graphics/SVG/1.1/DTD/svg11.dtd">
<svg version="1.1" id="Layer_1" xmlns="http://www.w3.org/2000/svg" xmlns:xlink="http://www.w3.org/1999/xlink" x="0px" y="0px" width="16px" height="16px" viewBox="0 0 16 16" enable-background="new 0 0 16 16" xml:space="preserve">
  <g id="icon">
    <path d="M12.5167,14.3h-6.475C4.7484,14.3,3.7,13.2516,3.7,11.9583v-9.475C3.7,2.0507,4.0507,1.7,4.4833,1.7H10.25L13.3,4.8v8.7167C13.3,13.9493,12.9493,14.3,12.5167,14.3z" id="b" fill="#F5F5F5"/>
    <path d="M13.5607,4.3535l-2.9143,-2.9142C10.3651,1.158,9.9836,1,9.5858,1H5c-1.1046,0,-2,0.8954,-2,2v3.5c0,0.2761,0.2239,0.5,0.5,0.5h0c0.2761,0,0.5,-0.2239,0.5,-0.5V3c0,-0.5523,0.4477,-1,1,-1h4v2.5c0,0.8284,0.6716,1.5,1.5,1.5h2.5v7c0,0.5523,-0.4477,1,-1,1h-0.5c-0.2761,0,-0.5,0.2239,-0.5,0.5l0,0c0,0.2761,0.2239,0.5,0.5,0.5h0.5c1.1046,0,2,-0.8954,2,-2V5.4141C14,5.0163,13.842,4.6348,13.5607,4.3535zM10.5,5c-0.2761,0,-0.5,-0.2239,-0.5,-0.5V2.2071L12.7929,5H10.5z" id="c1" fill="#404040"/>
    <path d="M8.5,14.5H2.5c-0.5523,0,-1,-0.4477,-1,-1V9.5c0,-0.5523,0.4477,-1,1,-1h6c0.5523,0,1,0.4477,1,1v4C9.5,14.0523,9.0523,14.5,8.5,14.5z" id="b" fill="#F5F5F5"/>
    <path d="M8.5,8H2.5c-0.8271,0,-1.5,0.6729,-1.5,1.5v4c0,0.8271,0.6729,1.5,1.5,1.5h6c0.8271,0,1.5,-0.6729,1.5,-1.5V9.5C10,8.6729,9.3271,8,8.5,8zM9,9.5v1.5H6V9h2.5C8.7757,9,9,9.2243,9,9.5zM2.5,9h2.5v2H2V9.5C2,9.2243,2.2243,9,2.5,9zM2,13.5v-1.5h3v2H2.5C2.2243,14,2,13.7757,2,13.5zM8.5,14H6v-2h3v1.5C9,13.7757,8.7757,14,8.5,14z" id="c2" fill="#404040"/>
  </g>
</svg>
