<?xml version="1.0" encoding="utf-8"?>
<!-- Created with: Axialis IconVectors - www.axialis.com -->
<svg version="1.1" xmlns="http://www.w3.org/2000/svg" xmlns:xlink="http://www.w3.org/1999/xlink" id="Layer_1" x="0px" y="0px" width="16" height="16" viewBox="0 0 16 16" xml:space="preserve">
  <g id="icon">
    <path id="b" fill="#F5F5F5" d="M12.52,14.3L6.04,14.3C4.75,14.3,3.7,13.25,3.7,11.96L3.7,2.48C3.7,2.05,4.05,1.7,4.48,1.7L10.25,1.7L13.3,4.8L13.3,13.52C13.3,13.95,12.95,14.3,12.52,14.3z"/>
    <path id="c1" fill="#404040" d="M13.5607,4.3535l-2.9143,-2.9142C10.3651,1.158,9.9836,1,9.5858,1H5c-1.1046,0,-2,0.8954,-2,2v2.7c0,0.2761,0.2239,0.5,0.5,0.5h0c0.2761,0,0.5,-0.2239,0.5,-0.5V3c0,-0.5523,0.4477,-1,1,-1h4v2.5c0,0.8284,0.6716,1.5,1.5,1.5h2.5v7c0,0.5523,-0.4477,1,-1,1H9.5c-0.2761,0,-0.5,0.2239,-0.5,0.5l0,0c0,0.2761,0.2239,0.5,0.5,0.5h2.5c1.1046,0,2,-0.8954,2,-2V5.4141C14,5.0163,13.842,4.6348,13.5607,4.3535zM10.5,5c-0.2761,0,-0.5,-0.2239,-0.5,-0.5V2.2071L12.7929,5H10.5z"/>
    <path id="c1" fill="#404040" d="M7.45,15.02C7.28,15.02,7.12,14.95,7.02,14.81L4.73,11.88L2.43,14.81C2.33,14.95,2.17,15.02,2,15.02C1.88,15.02,1.76,14.98,1.66,14.91C1.42,14.72,1.38,14.38,1.57,14.14L4.03,10.99L1.57,7.84C1.38,7.6,1.42,7.25,1.66,7.07C1.76,6.99,1.88,6.95,2,6.95C2.17,6.95,2.33,7.03,2.43,7.16L4.72,10.09L7.02,7.16C7.12,7.03,7.28,6.95,7.45,6.95C7.57,6.95,7.69,6.99,7.79,7.07C8.03,7.25,8.07,7.6,7.88,7.84L5.42,10.99L7.88,14.14C8.07,14.38,8.03,14.72,7.79,14.91C7.69,14.98,7.57,15.02,7.45,15.02z"/>
  </g>
</svg>
