<?xml version="1.0" encoding="UTF-8"?>
<!DOCTYPE svg PUBLIC "-//W3C//DTD SVG 1.1//EN" "http://www.w3.org/Graphics/SVG/1.1/DTD/svg11.dtd">
<svg version="1.1" id="Layer_1" xmlns="http://www.w3.org/2000/svg" xmlns:xlink="http://www.w3.org/1999/xlink" x="0px" y="0px" width="16px" height="16px" viewBox="0 0 16 16" enable-background="new 0 0 16 16" xml:space="preserve">
  <g id="icon">
    <path d="M12.7677,13.5509L8.5012,1.818c-0.0766,-0.2107,-0.2768,-0.351,-0.5011,-0.351v0c0,0,0,0,-0.0001,0s-0.0001,0,-0.0001,0v0c-0.2242,0.0001,-0.4245,0.1403,-0.5011,0.351L3.2324,13.5509c-0.1007,0.2768,0.0421,0.5828,0.3189,0.6835c0.2768,0.1007,0.5828,-0.0421,0.6835,-0.3189L5.6586,10H8h0.0001h2.3414l1.4237,3.9155c0.1007,0.2768,0.4067,0.4196,0.6835,0.3189C12.7256,14.1337,12.8684,13.8277,12.7677,13.5509zM8.0001,9H8H6.0465l1.9536,-5.3723L9.9536,9H8.0001z" id="c1" fill="#404040"/>
  </g>
</svg>
