<?xml version="1.0" encoding="UTF-8"?>
<!DOCTYPE svg PUBLIC "-//W3C//DTD SVG 1.1//EN" "http://www.w3.org/Graphics/SVG/1.1/DTD/svg11.dtd">
<svg version="1.1" id="Layer_1" xmlns="http://www.w3.org/2000/svg" xmlns:xlink="http://www.w3.org/1999/xlink" x="0px" y="0px" width="16px" height="16px" viewBox="0 0 16 16" enable-background="new 0 0 16 16" xml:space="preserve">
  <g id="icon">
    <path d="M12.5167,14.3h-6.475C4.7484,14.3,3.7,13.2516,3.7,11.9583v-9.475C3.7,2.0507,4.0507,1.7,4.4833,1.7H10.25L13.3,4.8v8.7167C13.3,13.9493,12.9493,14.3,12.5167,14.3z" id="b" fill="#F5F5F5"/>
    <path d="M13.5607,4.3535l-2.9143,-2.9142C10.3651,1.158,9.9836,1,9.5858,1H5c-1.1046,0,-2,0.8954,-2,2v2.5c0,0.2761,0.2239,0.5,0.5,0.5h0c0.2761,0,0.5,-0.2239,0.5,-0.5V3c0,-0.5523,0.4477,-1,1,-1h4v2.5c0,0.8284,0.6716,1.5,1.5,1.5h2.5v7c0,0.5523,-0.4477,1,-1,1h-1.9c-0.2761,0,-0.5,0.2239,-0.5,0.5l0,0c0,0.2761,0.2239,0.5,0.5,0.5h1.9c1.1046,0,2,-0.8954,2,-2V5.4141C14,5.0163,13.842,4.6348,13.5607,4.3535zM10.5,5c-0.2761,0,-0.5,-0.2239,-0.5,-0.5V2.2071L12.7929,5H10.5z" id="c1" fill="#404040"/>
    <circle cx="4.5" cy="11.52" r="4.48" id="b" fill="#F5F5F5"/>
    <path d="M3.3663,10.3343h2.2675c0.0514,0.3881,0.0774,0.7865,0.0774,1.1857s-0.026,0.7976,-0.0774,1.1857H3.3663c-0.0514,-0.3881,-0.0774,-0.7865,-0.0774,-1.1857S3.3149,10.7224,3.3663,10.3343zM3.5224,9.4915h1.9553C5.2638,8.611,4.9128,7.8824,4.5,7.4613C4.0872,7.8824,3.7362,8.611,3.5224,9.4915zM5.4776,13.5486H3.5224c0.2138,0.8805,0.5648,1.609,0.9776,2.0301C4.9128,15.1576,5.2638,14.4291,5.4776,13.5486zM6.3264,9.4915h2.1871c-0.6246,-1.2307,-1.7973,-2.1363,-3.1957,-2.3943C5.7742,7.6893,6.1215,8.5125,6.3264,9.4915zM8.8398,10.3343H6.4618c0.0443,0.3869,0.0668,0.7852,0.0668,1.1857s-0.0225,0.7988,-0.0668,1.1857h2.3781C8.9434,12.3277,9,11.9305,9,11.52C9,11.1096,8.9434,10.7124,8.8398,10.3343zM2.6736,9.4915c0.205,-0.9789,0.5522,-1.8022,1.0086,-2.3943C2.2838,7.3552,1.1111,8.2608,0.4865,9.4915H2.6736zM2.6736,13.5486H0.4865c0.6246,1.2307,1.7973,2.1363,3.1957,2.3943C3.2258,15.3507,2.8785,14.5275,2.6736,13.5486zM6.3264,13.5486c-0.205,0.9789,-0.5522,1.8022,-1.0087,2.3943c1.3985,-0.258,2.5711,-1.1636,3.1957,-2.3943H6.3264zM2.5382,12.7057c-0.0443,-0.3869,-0.0668,-0.7852,-0.0668,-1.1857s0.0225,-0.7988,0.0668,-1.1857H0.1602C0.0566,10.7124,0,11.1096,0,11.52c0,0.4104,0.0566,0.8077,0.1602,1.1857H2.5382z" id="c2" fill="#404040"/>
  </g>
</svg>
