<?xml version="1.0" encoding="UTF-8"?>
<!DOCTYPE svg PUBLIC "-//W3C//DTD SVG 1.1//EN" "http://www.w3.org/Graphics/SVG/1.1/DTD/svg11.dtd">
<svg version="1.1" id="Layer_1" xmlns="http://www.w3.org/2000/svg" xmlns:xlink="http://www.w3.org/1999/xlink" x="0px" y="0px" width="16px" height="16px" viewBox="0 0 16 16" enable-background="new 0 0 16 16" xml:space="preserve">
  <g id="icon">
    <path d="M6,6.5c0,-0.2761,0.2239,-0.5,0.5,-0.5h8c0.2761,0,0.5,0.2239,0.5,0.5s-0.2239,0.5,-0.5,0.5H6.5C6.2239,7,6,6.7761,6,6.5zM1.5,4h13c0.2761,0,0.5,-0.2239,0.5,-0.5s-0.2239,-0.5,-0.5,-0.5H1.5c-0.2761,0,-0.5,0.2239,-0.5,0.5S1.2239,4,1.5,4zM1.5,10h13c0.2761,0,0.5,-0.2239,0.5,-0.5s-0.2239,-0.5,-0.5,-0.5H1.5c-0.2761,0,-0.5,0.2239,-0.5,0.5S1.2239,10,1.5,10zM6.5,13h8c0.2761,0,0.5,-0.2239,0.5,-0.5s-0.2239,-0.5,-0.5,-0.5H6.5c-0.2761,0,-0.5,0.2239,-0.5,0.5S6.2239,13,6.5,13z" id="c1" fill="#d4d4d4"/>
  </g>
</svg>
