<?xml version="1.0" encoding="UTF-8"?>
<!DOCTYPE svg PUBLIC "-//W3C//DTD SVG 1.1//EN" "http://www.w3.org/Graphics/SVG/1.1/DTD/svg11.dtd">
<svg version="1.1" id="Layer_1" xmlns="http://www.w3.org/2000/svg" xmlns:xlink="http://www.w3.org/1999/xlink" x="0px" y="0px" width="16px" height="16px" viewBox="0 0 16 16" enable-background="new 0 0 16 16" xml:space="preserve">
  <g id="icon">
    <path d="M9.5,2.7248c0.2761,0,0.5,0.2239,0.5,0.5v4.5998c0.4178,-0.3766,0.9372,-0.5998,1.5,-0.5998c1.3807,0,2.5,1.3432,2.5,3c0,1.6569,-1.1193,3,-2.5,3c-0.5628,0,-1.0822,-0.2232,-1.5,-0.5998v0.0998c0,0.2761,-0.2239,0.5,-0.5,0.5s-0.5,-0.2239,-0.5,-0.5v-9.5C9,2.9487,9.2239,2.7248,9.5,2.7248zM11.5,12.2248c0.6655,0,1.5,-0.717,1.5,-2c0,-1.283,-0.8345,-2,-1.5,-2s-1.5,0.717,-1.5,2C10,11.5078,10.8345,12.2248,11.5,12.2248zM6.997,8.922L7,9.0586l-0.0001,3.675c-0.004,0.2494,-0.1907,0.4544,-0.4321,0.4871L6.5,13.2252c-0.2531,0,-0.4623,-0.1881,-0.4954,-0.4321L6,12.7252l-0.0009,-0.0696c-0.6584,0.3769,-1.2674,0.5696,-1.8324,0.5696c-1.2256,0,-2.1667,-0.863,-2.1667,-2.1667c0,-1.1495,0.7923,-2.0036,2.1065,-2.163c0.6215,-0.0754,1.2532,-0.0282,1.8926,0.1398c-0.0066,-0.7381,-0.3707,-1.1033,-1.1905,-1.1441c-0.6415,-0.0319,-1.0923,0.0582,-1.3563,0.2433c-0.2261,0.1585,-0.5379,0.1038,-0.6964,-0.1223c-0.1585,-0.2261,-0.1038,-0.5379,0.1223,-0.6965c0.4385,-0.3075,1.0358,-0.4438,1.7887,-0.4299l0.1915,0.0066C6.1652,6.9575,6.9431,7.7098,6.997,8.922zM5.7974,10.0409c-0.5382,-0.148,-1.0609,-0.1902,-1.5706,-0.1283C3.4053,10.0122,3,10.449,3,11.0828c0,0.7311,0.4749,1.1667,1.1667,1.1667c0.4535,0,1.0123,-0.2096,1.6675,-0.6425l0.1651,-0.1126v-1.3934L5.7974,10.0409z" id="c1" fill="#d4d4d4"/>
  </g>
</svg>
