<?xml version="1.0" encoding="UTF-8"?>
<!DOCTYPE svg PUBLIC "-//W3C//DTD SVG 1.1//EN" "http://www.w3.org/Graphics/SVG/1.1/DTD/svg11.dtd">
<svg version="1.1" id="Layer_1" xmlns="http://www.w3.org/2000/svg" xmlns:xlink="http://www.w3.org/1999/xlink" x="0px" y="0px" width="16px" height="16px" viewBox="0 0 16 16" enable-background="new 0 0 16 16" xml:space="preserve">
  <g id="icon">
    <path d="M5.1612,2.5259c0.1478,0.0481,0.2599,0.1703,0.3136,0.3162l3.4945,9.485c0.1071,0.2909,-0.0731,0.6173,-0.3969,0.6681c-0.2374,0.0373,-0.4649,-0.1144,-0.548,-0.3399L7.0462,10H2.9541l-0.9783,2.6553c-0.0831,0.2255,-0.3105,0.3771,-0.5479,0.3399c-0.3238,-0.0508,-0.504,-0.3772,-0.3969,-0.6681l3.5,-9.4999C4.6216,2.5811,4.8923,2.4384,5.1612,2.5259zM5.0002,4.4463L3.3225,9h3.3554L5.0002,4.4463zM10.5,2.5249c0.2761,0,0.5,0.2239,0.5,0.5v4.5998c0.4178,-0.3766,0.9372,-0.5998,1.5,-0.5998c1.3807,0,2.5,1.3432,2.5,3c0,1.6569,-1.1193,3,-2.5,3c-0.5628,0,-1.0822,-0.2232,-1.5,-0.5998v0.0998c0,0.2761,-0.2239,0.5,-0.5,0.5s-0.5,-0.2239,-0.5,-0.5v-9.5C10,2.7488,10.2239,2.5249,10.5,2.5249zM12.5,12.0249c0.6655,0,1.5,-0.717,1.5,-2c0,-1.283,-0.8345,-2,-1.5,-2s-1.5,0.717,-1.5,2C11,11.3079,11.8345,12.0249,12.5,12.0249z" id="c1" fill="#d4d4d4"/>
  </g>
</svg>
