<?xml version="1.0" encoding="UTF-8"?>
<!DOCTYPE svg PUBLIC "-//W3C//DTD SVG 1.1//EN" "http://www.w3.org/Graphics/SVG/1.1/DTD/svg11.dtd">
<svg version="1.1" id="Layer_1" xmlns="http://www.w3.org/2000/svg" xmlns:xlink="http://www.w3.org/1999/xlink" x="0px" y="0px" width="16px" height="16px" viewBox="0 0 16 16" enable-background="new 0 0 16 16" xml:space="preserve">
  <g id="icon">
    <path d="M12.4961,6.579l1.8858,1.8208c0.284,0.2742,0.286,0.7285,0.0046,1.0053l-4.9903,4.9071c-0.2747,0.2701,-0.7158,0.2683,-0.9883,-0.0042l-1.8117,-1.8117c-0.2741,-0.2741,-0.2741,-0.7184,0,-0.9925l4.9162,-4.9162C11.7831,6.3169,12.2207,6.3131,12.4961,6.579z" id="b" fill="#262626"/>
    <path d="M10,5.8632l-1,1V1.4849c0,-0.3099,0.282,-0.554,0.6034,-0.4896C9.839,1.0424,10,1.2633,10,1.5037V4h0.0723c0.3169,-0.6231,1.0205,-1.0151,1.8155,-1.0151c1.4717,0,2.4279,1.1763,2.4279,2.9971c0,0.0653,-0.0013,0.1299,-0.0038,0.1935l-0.5442,-0.5442c-0.1469,-0.1469,-0.3075,-0.2717,-0.4777,-0.3744c-0.1906,-0.9129,-0.7642,-1.4395,-1.6169,-1.4395c-0.9107,0,-1.524,0.619,-1.6729,1.6518V5.8632zM6.2748,7H2.6484l-0.7199,1.6797c-0.0947,0.2209,-0.3297,0.3606,-0.5648,0.3111c-0.3208,-0.0675,-0.4838,-0.4029,-0.3617,-0.6877l3,-7c0.0995,-0.2321,0.3615,-0.3612,0.6197,-0.2774c0.1396,0.0453,0.2479,0.1571,0.3057,0.292l2.8785,6.7164l-0.7535,0.7535c-0.0195,-0.0278,-0.0365,-0.0581,-0.0504,-0.0906L6.2748,7zM5.8462,6L4.4616,2.7693L3.077,6H5.8462zM6.3149,13.0606c-0.5858,-0.5858,-0.5858,-1.5355,0,-2.1213l4.5858,-4.5858c0.5858,-0.5858,1.5355,-0.5858,2.1213,0l1.5858,1.5858c0.5858,0.5858,0.5858,1.5355,0,2.1213l-3.2848,3.2848c-0.0026,0.0027,-0.0052,0.0055,-0.0079,0.0082c-0.0027,0.0027,-0.0055,0.0053,-0.0082,0.0079L10.6684,14h1.7742c0.2403,0,0.4612,0.1609,0.5085,0.3965c0.0645,0.3214,-0.1797,0.6035,-0.4896,0.6035H9.4623H8.4622c-0.205,-0.0722,-0.3976,-0.1897,-0.5616,-0.3536L6.3149,13.0606zM8.6685,9.9613l2.2929,2.2929l2.9393,-2.9393c0.1953,-0.1953,0.1953,-0.5118,0,-0.7071L12.3149,7.022c-0.1953,-0.1953,-0.5118,-0.1953,-0.7071,0L8.6685,9.9613zM7.022,12.3149l1.5858,1.5858c0.1953,0.1953,0.5118,0.1953,0.7071,0l0.9394,-0.9394l-2.2929,-2.2929l-0.9394,0.9394C6.8267,11.8031,6.8267,12.1197,7.022,12.3149z" id="c1" fill="#d4d4d4"/>
  </g>
</svg>
