<?xml version="1.0" encoding="UTF-8"?>
<!DOCTYPE svg PUBLIC "-//W3C//DTD SVG 1.1//EN" "http://www.w3.org/Graphics/SVG/1.1/DTD/svg11.dtd">
<svg version="1.1" id="Layer_1" xmlns="http://www.w3.org/2000/svg" xmlns:xlink="http://www.w3.org/1999/xlink" x="0px" y="0px" width="16px" height="16px" viewBox="0 0 16 16" enable-background="new 0 0 16 16" xml:space="preserve">
  <g id="icon">
    <path d="M12.2417,14.5H3.7583C3.0634,14.5,2.5,13.9366,2.5,13.2417v-1.5833C2.5,10.9634,3.0634,10.4,3.7583,10.4h8.4833c0.695,0,1.2583,0.5634,1.2583,1.2583v1.5833C13.5,13.9366,12.9366,14.5,12.2417,14.5z" id="b" fill="#262626"/>
    <path d="M8.4597,1.303C8.3809,1.1192,8.2001,1,8.0001,1c-0.2,0,-0.3808,0.1192,-0.4596,0.303l-3,7c-0.1088,0.2538,0.0088,0.5478,0.2626,0.6565c0.2538,0.1088,0.5478,-0.0088,0.6565,-0.2626L6.187,7h3.6263l0.7273,1.697c0.1087,0.2538,0.4027,0.3714,0.6565,0.2626c0.2538,-0.1088,0.3714,-0.4027,0.2626,-0.6565L8.4597,1.303zM9.3847,6H6.6155l1.3846,-3.2307L9.3847,6zM3.5,10c-0.8284,0,-1.5,0.6716,-1.5,1.5v2c0,0.8284,0.6716,1.5,1.5,1.5h9c0.8284,0,1.5,-0.6716,1.5,-1.5v-2c0,-0.8284,-0.6716,-1.5,-1.5,-1.5H3.5zM3,11.5c0,-0.2761,0.2239,-0.5,0.5,-0.5h9c0.2761,0,0.5,0.2239,0.5,0.5v2c0,0.2761,-0.2239,0.5,-0.5,0.5H3.5c-0.2761,0,-0.5,-0.2239,-0.5,-0.5V11.5z" id="c1" fill="#d4d4d4"/>
    <path d="M13.5,9h-0.5c-0.2761,0,-0.5,-0.2239,-0.5,-0.5s0.2239,-0.5,0.5,-0.5h0.5c0.2757,0,0.5,-0.2243,0.5,-0.5V2.5c0,-0.2757,-0.2243,-0.5,-0.5,-0.5h-2.9833c-0.2761,0,-0.5,-0.2239,-0.5,-0.5s0.2239,-0.5,0.5,-0.5H13.5c0.8271,0,1.5,0.6729,1.5,1.5v5C15,8.3271,14.3271,9,13.5,9zM3,9h-0.5c-0.8271,0,-1.5,-0.6729,-1.5,-1.5V2.5c0,-0.8271,0.6729,-1.5,1.5,-1.5h3.0167c0.2761,0,0.5,0.2239,0.5,0.5s-0.2239,0.5,-0.5,0.5H2.5c-0.2757,0,-0.5,0.2243,-0.5,0.5v5c0,0.2757,0.2243,0.5,0.5,0.5h0.5c0.2761,0,0.5,0.2239,0.5,0.5S3.2761,9,3,9z" id="c2" fill="#d4d4d4"/>
  </g>
</svg>
