<?xml version="1.0" encoding="UTF-8"?>
<!DOCTYPE svg PUBLIC "-//W3C//DTD SVG 1.1//EN" "http://www.w3.org/Graphics/SVG/1.1/DTD/svg11.dtd">
<svg version="1.1" id="Layer_1" xmlns="http://www.w3.org/2000/svg" xmlns:xlink="http://www.w3.org/1999/xlink" x="0px" y="0px" width="16px" height="16px" viewBox="0 0 16 16" enable-background="new 0 0 16 16" xml:space="preserve">
  <g id="icon">
    <path d="M14.5,8c0,3.5899,-2.9101,6.5,-6.5,6.5s-6.5,-2.9101,-6.5,-6.5s2.9101,-6.5,6.5,-6.5S14.5,4.4101,14.5,8z" id="b" fill="#262626"/>
    <path d="M4.29,8c-0.14,0,-0.28,0.07,-0.42,0.14c0,0.14,-0.07,0.28,-0.07,0.42c0.21,2.17,1.75,3.99,4.2,3.99c2.38,0,3.99,-1.82,4.2,-3.99c0,-0.14,-0.07,-0.28,-0.14,-0.42c-0.07,-0.14,-0.21,-0.14,-0.42,-0.14H4.29zM8,11.5c-1.61,0,-2.73,-1.1,-3.08,-2.5h6.09C10.73,10.4,9.61,11.5,8,11.5zM10.31,5.76c-0.28,0,-0.49,0.21,-0.56,0.42c-0.07,0.28,-0.28,0.49,-0.63,0.42c-0.28,-0.07,-0.49,-0.28,-0.42,-0.63c0.14,-0.77,0.77,-1.33,1.54,-1.33s1.47,0.56,1.54,1.33c0.07,0.28,-0.14,0.56,-0.42,0.63c-0.28,0.07,-0.56,-0.14,-0.63,-0.42C10.8,5.9,10.59,5.76,10.31,5.76zM5.2,6.18c0,-0.28,0.21,-0.42,0.56,-0.42s0.49,0.14,0.49,0.42c0.07,0.28,0.28,0.49,0.63,0.42c0.28,-0.07,0.49,-0.28,0.42,-0.63c-0.14,-0.77,-0.77,-1.33,-1.54,-1.33S4.29,5.2,4.15,5.97c-0.07,0.28,0.14,0.56,0.42,0.63C4.92,6.67,5.13,6.46,5.2,6.18zM8,1c-3.85,0,-7,3.15,-7,7s3.15,7,7,7s7,-3.15,7,-7S11.85,1,8,1zM2.05,8c0,-3.29,2.66,-5.95,5.95,-5.95s5.95,2.66,5.95,5.95s-2.66,5.95,-5.95,5.95S2.05,11.29,2.05,8z" id="c1" fill="#d4d4d4"/>
  </g>
</svg>
