<?xml version="1.0" encoding="UTF-8"?>
<!DOCTYPE svg PUBLIC "-//W3C//DTD SVG 1.1//EN" "http://www.w3.org/Graphics/SVG/1.1/DTD/svg11.dtd">
<svg version="1.1" id="Layer_1" xmlns="http://www.w3.org/2000/svg" xmlns:xlink="http://www.w3.org/1999/xlink" x="0px" y="0px" width="16px" height="16px" viewBox="0 0 16 16" enable-background="new 0 0 16 16" xml:space="preserve">
  <g id="icon">
    <path d="M3.7696,14c-0.24,0,-0.4609,-0.1602,-0.5089,-0.3953C3.1951,13.2834,3.4401,13,3.75,13h2.119L9.2619,3l-1.4923,0c-0.24,0,-0.4609,-0.1602,-0.5089,-0.3953C7.1951,2.2834,7.4401,2,7.75,2l4.5804,0c0.24,0,0.4609,0.1602,0.5089,0.3953C12.9049,2.7166,12.6599,3,12.35,3h-2.119L6.8381,13h1.4923c0.24,0,0.4609,0.1602,0.5089,0.3953C8.9049,13.7166,8.6599,14,8.35,14H3.7696z" id="c1" fill="#d4d4d4"/>
  </g>
</svg>
