<?xml version="1.0" encoding="UTF-8"?>
<!DOCTYPE svg PUBLIC "-//W3C//DTD SVG 1.1//EN" "http://www.w3.org/Graphics/SVG/1.1/DTD/svg11.dtd">
<svg version="1.1" id="Layer_1" xmlns="http://www.w3.org/2000/svg" xmlns:xlink="http://www.w3.org/1999/xlink" x="0px" y="0px" width="16px" height="16px" viewBox="0 0 16 16" enable-background="new 0 0 16 16" xml:space="preserve">
  <g id="icon">
    <path d="M3.6534,0.9051C3.8565,0.9513,4,1.1258,4,1.3267v3.4658c0,0.2393,-0.2015,0.4332,-0.45,0.4332c-0.2485,0,-0.45,-0.194,-0.45,-0.4332v-2.237c-0.1963,0.1669,-0.4289,0.3284,-0.6988,0.4583c-0.2223,0.107,-0.4926,0.0203,-0.6037,-0.1937c-0.1111,-0.214,-0.021,-0.4742,0.2012,-0.5812c0.3723,-0.1792,0.6618,-0.454,0.8624,-0.6954c0.099,-0.1192,0.1729,-0.226,0.2213,-0.3016c0.0223,-0.0349,0.0441,-0.0702,0.0639,-0.1065C3.2434,0.9584,3.4475,0.8583,3.6534,0.9051zM2.3186,7.0843c-0.2648,-0.1397,-0.2993,-0.4658,-0.1037,-0.6542l0.001,-0.001l0.0012,-0.0012l0.0029,-0.0028l0.0078,-0.0073c0.0061,-0.0056,0.014,-0.0126,0.0237,-0.0209c0.0193,-0.0166,0.0456,-0.0383,0.0787,-0.0634c0.066,-0.05,0.1603,-0.1142,0.2804,-0.1778C2.8505,6.0288,3.2014,5.9,3.638,5.9l0.0087,0.0001c0.3207,0.0052,0.6688,0.0853,0.9485,0.2847c0.2955,0.2106,0.4864,0.5367,0.4864,0.9528c0,0.4519,-0.2076,0.768,-0.4889,0.9936c-0.215,0.1725,-0.4909,0.3028,-0.7154,0.4088c-0.036,0.017,-0.0707,0.0334,-0.1037,0.0493c-0.2667,0.1284,-0.469,0.2415,-0.611,0.3919c-0.0569,0.0603,-0.108,0.1308,-0.1468,0.2188h1.6424c0.2295,0,0.4155,0.1791,0.4155,0.4c0,0.2209,-0.1865,0.4,-0.416,0.4H2.5161c-0.2352,0,-0.4259,-0.1836,-0.4259,-0.41c0,-0.5077,0.1697,-0.8891,0.4435,-1.1791c0.2581,-0.2733,0.5894,-0.4427,0.8566,-0.5714c0.0428,-0.0206,0.0842,-0.0403,0.1232,-0.0589c0.2302,-0.1097,0.3976,-0.1895,0.5265,-0.2929c0.1197,-0.096,0.1795,-0.1918,0.1795,-0.3577c0,-0.1481,-0.057,-0.2299,-0.1386,-0.2881c-0.0966,-0.0689,-0.2531,-0.1183,-0.4466,-0.122c-0.2578,0.0007,-0.4665,0.0766,-0.613,0.1542c-0.0734,0.0389,-0.1291,0.0772,-0.1647,0.1041c-0.0177,0.0134,-0.0301,0.0237,-0.0368,0.0295l-0.0066,0.0058C2.677,7.1334,2.479,7.169,2.3186,7.0843zM3.1499,12.9412c0,-0.2275,0.1915,-0.4118,0.4277,-0.4118c0.2932,0,0.4553,-0.0796,0.5369,-0.1508c0.0806,-0.0703,0.1137,-0.1576,0.1103,-0.2455c-0.0062,-0.1594,-0.159,-0.4272,-0.6472,-0.4272c-0.3529,0,-0.5356,0.0837,-0.6182,0.1367c-0.0432,0.0277,-0.0665,0.0518,-0.0757,0.0625l-0.0035,0.0042c0.0036,-0.0061,0.0071,-0.0124,0.0104,-0.0187l-0.0009,0.0016l-0.0011,0.0021l-0.0021,0.0038l-0.0035,0.0061c-0.002,0.0035,-0.0046,0.0074,-0.0046,0.0074l0.0017,-0.0023c-0.1115,0.1892,-0.3587,0.2633,-0.5632,0.1649c-0.2113,-0.1017,-0.2969,-0.3491,-0.1913,-0.5525l0.0006,-0.0012l0.0006,-0.0012l0.0014,-0.0025l0.003,-0.0056l0.0074,-0.013c0.0056,-0.0094,0.0124,-0.0204,0.0206,-0.0327c0.0164,-0.0246,0.0385,-0.0545,0.0671,-0.0876c0.0576,-0.0665,0.1412,-0.1454,0.2584,-0.2205c0.2382,-0.1529,0.5901,-0.2751,1.0927,-0.2751c0.8805,0,1.4762,0.5557,1.5021,1.2199c0.0118,0.3026,-0.101,0.6059,-0.3391,0.839c0.2381,0.2331,0.3509,0.5363,0.3391,0.8389C5.0538,14.4443,4.4581,15,3.5776,15c-0.5026,0,-0.8544,-0.1221,-1.0927,-0.275c-0.1172,-0.0752,-0.2008,-0.1541,-0.2584,-0.2206c-0.0287,-0.0331,-0.0507,-0.063,-0.0671,-0.0876c-0.0082,-0.0123,-0.015,-0.0233,-0.0206,-0.0327l-0.0074,-0.013l-0.003,-0.0056l-0.0014,-0.0025l-0.0006,-0.0012l-0.0006,-0.0012c-0.1056,-0.2034,-0.02,-0.4507,0.1913,-0.5524c0.2045,-0.0984,0.4517,-0.0244,0.5632,0.1648l0.0035,0.0042c0.0093,0.0107,0.0325,0.0348,0.0757,0.0625c0.0826,0.053,0.2653,0.1368,0.6182,0.1368c0.4882,0,0.641,-0.2679,0.6472,-0.4272c0.0034,-0.088,-0.0297,-0.1753,-0.1103,-0.2456c-0.0816,-0.0712,-0.2437,-0.1508,-0.5369,-0.1508C3.3414,13.3529,3.1499,13.1686,3.1499,12.9412zM7.5562,3c-0.2761,0,-0.5,0.2239,-0.5,0.5s0.2239,0.5,0.5,0.5h6c0.2761,0,0.5,-0.2239,0.5,-0.5s-0.2239,-0.5,-0.5,-0.5H7.5562zM7.5562,7c-0.2761,0,-0.5,0.2239,-0.5,0.5s0.2239,0.5,0.5,0.5h6c0.2761,0,0.5,-0.2239,0.5,-0.5s-0.2239,-0.5,-0.5,-0.5H7.5562zM7.5562,11c-0.2761,0,-0.5,0.2239,-0.5,0.5s0.2239,0.5,0.5,0.5h6c0.2761,0,0.5,-0.2239,0.5,-0.5s-0.2239,-0.5,-0.5,-0.5H7.5562z" id="c1" fill="#d4d4d4"/>
  </g>
</svg>
