<?xml version="1.0" encoding="UTF-8"?>
<!DOCTYPE svg PUBLIC "-//W3C//DTD SVG 1.1//EN" "http://www.w3.org/Graphics/SVG/1.1/DTD/svg11.dtd">
<svg version="1.1" id="Layer_1" xmlns="http://www.w3.org/2000/svg" xmlns:xlink="http://www.w3.org/1999/xlink" x="0px" y="0px" width="16px" height="16px" viewBox="0 0 16 16" enable-background="new 0 0 16 16" xml:space="preserve">
  <g id="icon">
    <path d="M4,3.5c0,-0.2761,0.2239,-0.5,0.5,-0.5h10c0.2761,0,0.5,0.2239,0.5,0.5s-0.2239,0.5,-0.5,0.5H4.5C4.2239,4,4,3.7761,4,3.5zM4,11.5c0,-0.2761,0.2239,-0.5,0.5,-0.5h10c0.2761,0,0.5,0.2239,0.5,0.5s-0.2239,0.5,-0.5,0.5H4.5C4.2239,12,4,11.7761,4,11.5zM4.5,7c-0.2761,0,-0.5,0.2239,-0.5,0.5s0.2239,0.5,0.5,0.5h10c0.2761,0,0.5,-0.2239,0.5,-0.5s-0.2239,-0.5,-0.5,-0.5H4.5zM2,2.5c-0.5523,0,-1,0.4477,-1,1s0.4477,1,1,1s1,-0.4477,1,-1S2.5523,2.5,2,2.5zM2,6.5c-0.5523,0,-1,0.4477,-1,1s0.4477,1,1,1s1,-0.4477,1,-1S2.5523,6.5,2,6.5zM2,10.5c-0.5523,0,-1,0.4477,-1,1s0.4477,1,1,1s1,-0.4477,1,-1S2.5523,10.5,2,10.5z" id="c1" fill="#d4d4d4"/>
  </g>
</svg>
