<?xml version="1.0" encoding="UTF-8"?>
<!DOCTYPE svg PUBLIC "-//W3C//DTD SVG 1.1//EN" "http://www.w3.org/Graphics/SVG/1.1/DTD/svg11.dtd">
<svg version="1.1" id="Layer_1" xmlns="http://www.w3.org/2000/svg" xmlns:xlink="http://www.w3.org/1999/xlink" x="0px" y="0px" width="16px" height="16px" viewBox="0 0 16 16" enable-background="new 0 0 16 16" xml:space="preserve">
  <g id="icon">
    <path d="M4.5,3H2.5c-0.2761,0,-0.5,-0.2239,-0.5,-0.5v0c0,-0.2761,0.2239,-0.5,0.5,-0.5h2c0.2761,0,0.5,0.2239,0.5,0.5v0C5,2.7761,4.7761,3,4.5,3zM5.5,5H3.5c-0.2761,0,-0.5,-0.2239,-0.5,-0.5v0c0,-0.2761,0.2239,-0.5,0.5,-0.5h2c0.2761,0,0.5,0.2239,0.5,0.5v0C6,4.7761,5.7761,5,5.5,5zM4.5,12H2.5c-0.2761,0,-0.5,-0.2239,-0.5,-0.5v0c0,-0.2761,0.2239,-0.5,0.5,-0.5h2c0.2761,0,0.5,0.2239,0.5,0.5v0C5,11.7761,4.7761,12,4.5,12zM5.5,14H3.5c-0.2761,0,-0.5,-0.2239,-0.5,-0.5l0,0c0,-0.2761,0.2239,-0.5,0.5,-0.5h2c0.2761,0,0.5,0.2239,0.5,0.5l0,0C6,13.7761,5.7761,14,5.5,14zM6.5,7H4.5c-0.2761,0,-0.5,-0.2239,-0.5,-0.5v0c0,-0.2761,0.2239,-0.5,0.5,-0.5h2c0.2761,0,0.5,0.2239,0.5,0.5v0C7,6.7761,6.7761,7,6.5,7zM6.5,9H4.5c-0.2761,0,-0.5,-0.2239,-0.5,-0.5v0c0,-0.2761,0.2239,-0.5,0.5,-0.5h2c0.2761,0,0.5,0.2239,0.5,0.5v0C7,8.7761,6.7761,9,6.5,9z" id="c2" fill="#d4d4d4"/>
    <path d="M11.5,3H6.5c-0.2761,0,-0.5,-0.2239,-0.5,-0.5v0c0,-0.2761,0.2239,-0.5,0.5,-0.5h5c0.2761,0,0.5,0.2239,0.5,0.5v0C12,2.7761,11.7761,3,11.5,3zM12.5,5H7.5c-0.2761,0,-0.5,-0.2239,-0.5,-0.5v0c0,-0.2761,0.2239,-0.5,0.5,-0.5h5c0.2761,0,0.5,0.2239,0.5,0.5v0C13,4.7761,12.7761,5,12.5,5zM11.5,12H6.5c-0.2761,0,-0.5,-0.2239,-0.5,-0.5v0c0,-0.2761,0.2239,-0.5,0.5,-0.5h5c0.2761,0,0.5,0.2239,0.5,0.5v0C12,11.7761,11.7761,12,11.5,12zM12.5,14H7.5c-0.2761,0,-0.5,-0.2239,-0.5,-0.5l0,0c0,-0.2761,0.2239,-0.5,0.5,-0.5h5c0.2761,0,0.5,0.2239,0.5,0.5l0,0C13,13.7761,12.7761,14,12.5,14zM13.5,7H8.5c-0.2761,0,-0.5,-0.2239,-0.5,-0.5v0c0,-0.2761,0.2239,-0.5,0.5,-0.5h5c0.2761,0,0.5,0.2239,0.5,0.5v0C14,6.7761,13.7761,7,13.5,7zM13.5,9H8.5c-0.2761,0,-0.5,-0.2239,-0.5,-0.5v0c0,-0.2761,0.2239,-0.5,0.5,-0.5h5c0.2761,0,0.5,0.2239,0.5,0.5v0C14,8.7761,13.7761,9,13.5,9z" id="c1" fill="#d4d4d4"/>
  </g>
</svg>
