<?xml version="1.0" encoding="UTF-8"?>
<!DOCTYPE svg PUBLIC "-//W3C//DTD SVG 1.1//EN" "http://www.w3.org/Graphics/SVG/1.1/DTD/svg11.dtd">
<svg version="1.1" id="Layer_1" xmlns="http://www.w3.org/2000/svg" xmlns:xlink="http://www.w3.org/1999/xlink" x="0px" y="0px" width="16px" height="16px" viewBox="0 0 16 16" enable-background="new 0 0 16 16" xml:space="preserve">
  <g id="icon">
    <path d="M10,12.65c-0.187,0,-0.3627,-0.0728,-0.495,-0.2049c-0.2729,-0.273,-0.2729,-0.7171,0,-0.9901c1.1795,-1.1794,1.8442,-2.3932,2.1254,-3.8963c-0.2029,0.0607,-0.4138,0.0914,-0.6304,0.0914c-1.2131,0,-2.2,-0.9869,-2.2,-2.2s0.9869,-2.2,2.2,-2.2s2.2,0.9869,2.2,2.2c0,2.2281,-0.3277,4.6176,-2.705,6.995C10.3627,12.5772,10.187,12.65,10,12.65zM4,12.65c-0.187,0,-0.3627,-0.0728,-0.495,-0.2049c-0.2729,-0.273,-0.2729,-0.7171,0,-0.9901c1.1795,-1.1795,1.8442,-2.3933,2.1254,-3.8963C5.4275,7.6193,5.2166,7.65,5,7.65c-1.2131,0,-2.2,-0.9869,-2.2,-2.2s0.9869,-2.2,2.2,-2.2s2.2,0.9869,2.2,2.2c0,2.2281,-0.3277,4.6176,-2.705,6.995C4.3627,12.5772,4.187,12.65,4,12.65z" id="c1" fill="#d4d4d4"/>
  </g>
</svg>
