<?xml version="1.0" encoding="UTF-8"?>
<!DOCTYPE svg PUBLIC "-//W3C//DTD SVG 1.1//EN" "http://www.w3.org/Graphics/SVG/1.1/DTD/svg11.dtd">
<svg version="1.1" id="Layer_1" xmlns="http://www.w3.org/2000/svg" xmlns:xlink="http://www.w3.org/1999/xlink" x="0px" y="0px" width="16px" height="16px" viewBox="0 0 16 16" enable-background="new 0 0 16 16" xml:space="preserve">
  <g id="icon">
    <path d="M12.5167,14.3h-6.475C4.7484,14.3,3.7,13.2516,3.7,11.9583v-9.475C3.7,2.0507,4.0507,1.7,4.4833,1.7H10.25L13.3,4.8v8.7167C13.3,13.9493,12.9493,14.3,12.5167,14.3z" id="b" fill="#262626"/>
    <path d="M6.2357,15.9059c-0.1474,0,-0.2861,-0.0673,-0.3806,-0.1846c-0.1742,-0.2161,-0.1482,-0.5408,0.058,-0.7239l2.2915,-2.0907l-2.2953,-2.0942c-0.2062,-0.1831,-0.2323,-0.5079,-0.058,-0.7239c0.0945,-0.1173,0.2333,-0.1846,0.3807,-0.1846c0.118,0,0.2324,0.0439,0.3222,0.1237l2.7374,2.4866c0.1105,0.0981,0.174,0.2411,0.174,0.3923s-0.0634,0.2942,-0.174,0.3924L6.558,15.7822C6.4681,15.8619,6.3537,15.9059,6.2357,15.9059C6.2357,15.9059,6.2357,15.9059,6.2357,15.9059zM3.2746,15.9059c-0.118,0,-0.2324,-0.0439,-0.3223,-0.1237L0.215,13.2956c-0.1105,-0.0981,-0.174,-0.2411,-0.174,-0.3923s0.0634,-0.2942,0.174,-0.3924l2.7334,-2.4831c0.0898,-0.0797,0.2042,-0.1237,0.3223,-0.1237c0.1474,0,0.2861,0.0673,0.3806,0.1846c0.1743,0.2161,0.1482,0.5408,-0.058,0.7239l-2.2915,2.0907l2.2954,2.0942c0.2062,0.1831,0.2322,0.5079,0.058,0.7239C3.5606,15.8386,3.4219,15.9059,3.2746,15.9059z" id="c2" fill="#d4d4d4"/>
    <path d="M13.5607,4.3535l-2.9143,-2.9142C10.3651,1.158,9.9836,1,9.5858,1H5c-1.1046,0,-2,0.8954,-2,2l0,4.9785c0,0.2611,0.1909,0.4943,0.4509,0.5191C3.7491,8.5261,4,8.2923,4,8V3c0,-0.5523,0.4477,-1,1,-1h4v2.5c0,0.8284,0.6716,1.5,1.5,1.5h2.5v7c0,0.5523,-0.4477,1,-1,1h-0.9c-0.2761,0,-0.5,0.2239,-0.5,0.5l0,0c0,0.2761,0.2239,0.5,0.5,0.5h0.9c1.1046,0,2,-0.8954,2,-2V5.4141C14,5.0163,13.842,4.6348,13.5607,4.3535zM10.5,5c-0.2761,0,-0.5,-0.2239,-0.5,-0.5V2.2071L12.7929,5H10.5z" id="c1" fill="#d4d4d4"/>
  </g>
</svg>
