<?xml version="1.0" encoding="UTF-8"?>
<!DOCTYPE svg PUBLIC "-//W3C//DTD SVG 1.1//EN" "http://www.w3.org/Graphics/SVG/1.1/DTD/svg11.dtd">
<svg version="1.1" id="Layer_1" xmlns="http://www.w3.org/2000/svg" xmlns:xlink="http://www.w3.org/1999/xlink" x="0px" y="0px" width="16px" height="16px" viewBox="0 0 16 16" enable-background="new 0 0 16 16" xml:space="preserve">
  <g id="icon">
    <path d="M5,5.1c0,-0.5544,0.2915,-1.0649,0.8399,-1.4551C6.3922,3.2519,7.1867,3,8.1,3c1.2979,0,2.3839,0.5606,2.7629,1.2428c0.1341,0.2414,0.4385,0.3284,0.6799,0.1943c0.2414,-0.1341,0.3284,-0.4385,0.1943,-0.6799C11.1161,2.6394,9.6021,2,8.1,2c-1.0867,0,-2.0922,0.2981,-2.8399,0.8301C4.5085,3.3649,4,4.1544,4,5.1c0,0.7196,0.3001,1.3745,0.7892,1.9h1.7224C5.5525,6.5933,5,5.8301,5,5.1zM13.5,8c0.2761,0,0.5,0.2239,0.5,0.5s-0.2239,0.5,-0.5,0.5h-2.3418c0.5169,0.5041,0.8418,1.1489,0.8418,1.9c0,0.9018,-0.5146,1.6876,-1.255,2.2287C10.0019,13.6717,8.9964,14,7.9,14c-1.6237,0,-3.0015,-0.6509,-3.716,-1.7226c-0.1532,-0.2298,-0.0911,-0.5402,0.1387,-0.6934c0.2298,-0.1532,0.5402,-0.0911,0.6934,0.1386C5.5015,12.4509,6.5237,13,7.9,13c0.9036,0,1.6981,-0.2717,2.255,-0.6787c0.5596,-0.4089,0.845,-0.9231,0.845,-1.4213c0,-0.7752,-0.6305,-1.5255,-1.7773,-1.9H2.5c-0.2761,0,-0.5,-0.2239,-0.5,-0.5s0.2239,-0.5,0.5,-0.5H13.5z" id="c1" fill="#d4d4d4"/>
  </g>
</svg>
