<?xml version="1.0" encoding="UTF-8"?>
<!DOCTYPE svg PUBLIC "-//W3C//DTD SVG 1.1//EN" "http://www.w3.org/Graphics/SVG/1.1/DTD/svg11.dtd">
<svg version="1.1" id="Layer_1" xmlns="http://www.w3.org/2000/svg" xmlns:xlink="http://www.w3.org/1999/xlink" x="0px" y="0px" width="16px" height="16px" viewBox="0 0 16 16" enable-background="new 0 0 16 16" xml:space="preserve">
  <g id="icon">
    <path d="M12,3.5c0,-0.2761,0.2239,-0.5,0.5,-0.5s0.5,0.2239,0.5,0.5c0,0.2586,-0.0815,0.3914,-0.1891,0.4988c-0.1017,0.1015,-0.2069,0.168,-0.3508,0.259c-0.0698,0.0442,-0.1488,0.0941,-0.2409,0.1566C11.3577,4.999,11,5.7695,11,6.5c0,0.2761,0.2239,0.5,0.5,0.5h2c0.2761,0,0.5,-0.2239,0.5,-0.5c0,-0.2761,-0.2239,-0.5,-0.5,-0.5h-1.3943c0.1097,-0.2517,0.3167,-0.515,0.6751,-0.7581c0.0347,-0.0236,0.0787,-0.0514,0.1288,-0.083c0.1742,-0.1101,0.4216,-0.2664,0.6077,-0.4522C13.8003,4.4242,14,4.0414,14,3.5c0,-0.8284,-0.6716,-1.5,-1.5,-1.5s-1.5,0.6716,-1.5,1.5c0,0.2761,0.2239,0.5,0.5,0.5S12,3.7761,12,3.5zM10,5.5c0,-0.5069,0.1182,-1.01,0.3572,-1.4792c-0.0863,0.0256,-0.1667,0.0749,-0.2309,0.1471L6.5,8.2474L2.8737,4.1678c-0.1835,-0.2064,-0.4995,-0.225,-0.7059,-0.0415c-0.2064,0.1835,-0.225,0.4995,-0.0415,0.7059L5.831,9l-3.7047,4.1678c-0.1835,0.2064,-0.1649,0.5225,0.0415,0.7059c0.2064,0.1835,0.5224,0.1649,0.7059,-0.0415L6.5,9.7526l3.6263,4.0796c0.1835,0.2064,0.4995,0.225,0.7059,0.0415c0.2064,-0.1834,0.225,-0.4995,0.0415,-0.7059L7.169,9l2.858,-3.2153C10.0093,5.6925,10,5.5974,10,5.5z" id="c1" fill="#d4d4d4"/>
  </g>
</svg>
