<?xml version="1.0" encoding="UTF-8"?>
<!DOCTYPE svg PUBLIC "-//W3C//DTD SVG 1.1//EN" "http://www.w3.org/Graphics/SVG/1.1/DTD/svg11.dtd">
<svg version="1.1" id="Layer_1" xmlns="http://www.w3.org/2000/svg" xmlns:xlink="http://www.w3.org/1999/xlink" x="0px" y="0px" width="16px" height="16px" viewBox="0 0 16 16" enable-background="new 0 0 16 16" xml:space="preserve">
  <g id="icon">
    <path d="M14.0643,15H10.55c-0.3038,0,-0.55,-0.2462,-0.55,-0.55v-0.793c0,-0.1935,0.1017,-0.3727,0.2677,-0.472c1.1458,-0.6853,3.0679,-2.2886,3.0679,-5.3268c0,-2.4067,-1.9705,-4.8961,-5.268,-4.8961c-3.5053,0,-5.3967,2.561,-5.3967,4.9707c0,3.0876,2.141,4.7016,3.0615,5.2522c0.166,0.0993,0.2677,0.2786,0.2677,0.472v0.793c0,0.3038,-0.2462,0.55,-0.55,0.55H1.9422c-0.2607,0,-0.4857,-0.1831,-0.5386,-0.4384l-0.1403,-0.6772c-0.0616,-0.2975,0.1296,-0.5885,0.427,-0.6501c0.2978,-0.0612,0.5886,0.1296,0.6501,0.427L2.39,13.9h2.4172c-2.0345,-1.3716,-3.2364,-3.5727,-3.2364,-5.9672c0,-1.5635,0.6408,-3.0996,1.7581,-4.2143c1.2,-1.1972,2.8828,-1.8564,4.7386,-1.8564c1.7715,0,3.4021,0.6447,4.5915,1.8154c1.129,1.1114,1.7765,2.6352,1.7765,4.1807c0,3.2765,-1.89,5.1332,-3.2422,6.0417h2.4232l0.0495,-0.2388c0.0616,-0.2975,0.3532,-0.488,0.6501,-0.427c0.2974,0.0616,0.4886,0.3527,0.427,0.6501l-0.1403,0.6772C14.55,14.8169,14.325,15,14.0643,15z" id="c1" fill="#d4d4d4"/>
  </g>
</svg>
