<?xml version="1.0" encoding="UTF-8"?>
<!DOCTYPE svg PUBLIC "-//W3C//DTD SVG 1.1//EN" "http://www.w3.org/Graphics/SVG/1.1/DTD/svg11.dtd">
<svg version="1.1" id="Layer_1" xmlns="http://www.w3.org/2000/svg" xmlns:xlink="http://www.w3.org/1999/xlink" x="0px" y="0px" width="16px" height="16px" viewBox="0 0 16 16" enable-background="new 0 0 16 16" xml:space="preserve">
  <g id="icon">
    <path d="M11.575,13.5h-7.15C3.3619,13.5,2.5,12.6381,2.5,11.575v-7.15C2.5,3.3619,3.3619,2.5,4.425,2.5h7.15C12.6381,2.5,13.5,3.3619,13.5,4.425v7.15C13.5,12.6381,12.6381,13.5,11.575,13.5z" id="b" fill="#262626"/>
    <path d="M2,4.5c0,-1.3807,1.1193,-2.5,2.5,-2.5h7c1.3807,0,2.5,1.1193,2.5,2.5v7c0,1.3807,-1.1193,2.5,-2.5,2.5H4.5c-1.3807,0,-2.5,-1.1193,-2.5,-2.5V4.5zM6,13h4v-2H6V13zM5,11H3v0.5c0,0.8284,0.6716,1.5,1.5,1.5h0.5V11zM6,10h4V6H6V10zM5,6H3v4h2V6zM6,5h4V3H6V5zM5,3h-0.5c-0.8284,0,-1.5,0.6716,-1.5,1.5v0.5h2V3zM13,6h-2v4h2V6zM13,11h-2v2h0.5c0.8284,0,1.5,-0.6716,1.5,-1.5V11zM13,5v-0.5c0,-0.8284,-0.6716,-1.5,-1.5,-1.5h-0.5v2H13z" id="c1" fill="#d4d4d4"/>
  </g>
</svg>
