<?xml version="1.0" encoding="UTF-8"?>
<!DOCTYPE svg PUBLIC "-//W3C//DTD SVG 1.1//EN" "http://www.w3.org/Graphics/SVG/1.1/DTD/svg11.dtd">
<svg version="1.1" id="Layer_1" xmlns="http://www.w3.org/2000/svg" xmlns:xlink="http://www.w3.org/1999/xlink" x="0px" y="0px" width="16px" height="16px" viewBox="0 0 16 16" enable-background="new 0 0 16 16" xml:space="preserve">
  <g id="icon">
    <path d="M4.471,15.923c-0.066,0,-0.129,-0.026,-0.174,-0.072c-0.045,-0.046,-0.067,-0.106,-0.061,-0.168l0.42,-4.984c0.01,-0.117,0.111,-0.205,0.235,-0.205c0.061,0,0.118,0.022,0.162,0.061l0.832,0.748L7.616,8l-3.032,0.032c-0.08,0,-0.153,-0.036,-0.197,-0.097c-0.044,-0.061,-0.053,-0.138,-0.024,-0.206L7.55,0.14C7.586,0.055,7.671,0,7.768,0h3.798c0.085,0,0.163,0.043,0.204,0.114c0.041,0.07,0.039,0.156,-0.006,0.224L8.178,6l3.29,0.005c0.086,0,0.165,0.045,0.206,0.116c0.041,0.071,0.038,0.158,-0.009,0.227l-4.148,5.673l1.123,0.2c0.091,0.016,0.161,0.078,0.184,0.162c0.023,0.084,-0.006,0.171,-0.077,0.227l-4.125,3.26C4.579,15.905,4.527,15.923,4.471,15.923z" fill-rule="evenodd" fill="#EAB765"/>
  </g>
</svg>
