<?xml version="1.0" encoding="UTF-8"?>
<!DOCTYPE svg PUBLIC "-//W3C//DTD SVG 1.1//EN" "http://www.w3.org/Graphics/SVG/1.1/DTD/svg11.dtd">
<svg version="1.1" id="Layer_1" xmlns="http://www.w3.org/2000/svg" xmlns:xlink="http://www.w3.org/1999/xlink" x="0px" y="0px" width="16px" height="16px" viewBox="0 0 16 16" enable-background="new 0 0 16 16" xml:space="preserve">
  <g id="icon">
    <path d="M2,4v10.8004C2,15.4871,2.6333,16,3.325,16h9.3454c0.6917,0,1.3296,-0.5129,1.3296,-1.1996V4H2zM6,13.3833c0,0.3406,-0.2761,0.6167,-0.6167,0.6167h-0.7667c-0.3406,0,-0.6167,-0.2761,-0.6167,-0.6167V6.6167C4,6.2761,4.2761,6,4.6167,6h0.7667C5.7239,6,6,6.2761,6,6.6167V13.3833zM9,13.3833c0,0.3406,-0.2761,0.6167,-0.6167,0.6167h-0.7667c-0.3406,0,-0.6167,-0.2761,-0.6167,-0.6167V6.6167C7,6.2761,7.2761,6,7.6167,6h0.7667C8.7239,6,9,6.2761,9,6.6167V13.3833zM12,13.3833c0,0.3406,-0.2761,0.6167,-0.6167,0.6167h-0.7667c-0.3406,0,-0.6167,-0.2761,-0.6167,-0.6167V6.6167c0,-0.3406,0.2761,-0.6167,0.6167,-0.6167h0.7667c0.3406,0,0.6167,0.2761,0.6167,0.6167V13.3833z" fill="#797979"/>
    <path d="M14.1718,1H9.7V0.5348C9.7,0.2394,9.3724,0,9.075,0H6.9204C6.6229,0,6.3,0.2394,6.3,0.5348V1H1.8235C1.3661,1,1,1.4377,1,1.8918V3.248c0,0.144,0.1129,0.252,0.2579,0.252h13.4795c0.145,0,0.2626,-0.108,0.2626,-0.252V1.8918C15,1.4377,14.6292,1,14.1718,1z" fill="#3E79B4"/>
    <path d="M5.3833,14h-0.7667c-0.3406,0,-0.6167,-0.2761,-0.6167,-0.6167V6.6167C4,6.2761,4.2761,6,4.6167,6h0.7667C5.7239,6,6,6.2761,6,6.6167v6.7667C6,13.7239,5.7239,14,5.3833,14zM9,13.3833V6.6167C9,6.2761,8.7239,6,8.3833,6h-0.7667C7.2761,6,7,6.2761,7,6.6167v6.7667c0,0.3406,0.2761,0.6167,0.6167,0.6167h0.7667C8.7239,14,9,13.7239,9,13.3833zM12,13.3833V6.6167c0,-0.3406,-0.2761,-0.6167,-0.6167,-0.6167h-0.7667c-0.3406,0,-0.6167,0.2761,-0.6167,0.6167v6.7667c0,0.3406,0.2761,0.6167,0.6167,0.6167h0.7667C11.7239,14,12,13.7239,12,13.3833z" fill="#FFFFFF"/>
  </g>
</svg>
