<?xml version="1.0" encoding="UTF-8"?>
<!DOCTYPE svg PUBLIC "-//W3C//DTD SVG 1.1//EN" "http://www.w3.org/Graphics/SVG/1.1/DTD/svg11.dtd">
<svg version="1.1" id="Layer_1" xmlns="http://www.w3.org/2000/svg" xmlns:xlink="http://www.w3.org/1999/xlink" x="0px" y="0px" width="16px" height="16px" viewBox="0 0 16 16" enable-background="new 0 0 16 16" xml:space="preserve">
  <g id="icon">
    <path d="M15.2,6h-5.2V0.8c0,-0.4418,-0.3582,-0.8,-0.8,-0.8H6.8c-0.4418,0,-0.8,0.3582,-0.8,0.8v5.2H0.8c-0.4418,0,-0.8,0.3582,-0.8,0.8v2.4c0,0.4418,0.3582,0.8,0.8,0.8h5.2v5.2c0,0.4418,0.3582,0.8,0.8,0.8h2.4c0.4418,0,0.8,-0.3582,0.8,-0.8v-5.2h5.2c0.4418,0,0.8,-0.3582,0.8,-0.8V6.8C16,6.3582,15.6418,6,15.2,6z" fill="#4EA17E"/>
  </g>
</svg>
