<?xml version="1.0" encoding="UTF-8"?>
<!DOCTYPE svg PUBLIC "-//W3C//DTD SVG 1.1//EN" "http://www.w3.org/Graphics/SVG/1.1/DTD/svg11.dtd">
<svg version="1.1" id="Layer_1" xmlns="http://www.w3.org/2000/svg" xmlns:xlink="http://www.w3.org/1999/xlink" x="0px" y="0px" width="16px" height="16px" viewBox="0 0 16 16" enable-background="new 0 0 16 16" xml:space="preserve">
  <g id="icon">
    <path d="M0.1251,7.4702L1.8178,5.805C1.885,5.7377,2,5.7854,2,5.8805V10.5c1.8147,-1.8304,4.2548,-4.3794,4.7073,-4.8048c0.7002,-0.7,2.4873,-1.9962,4.3207,-1.9962c2.8975,0,4.9306,1.8952,4.9306,4.6087v0.0119c0,1.2377,-1.0081,4.7498,-1.2357,5.5269c-0.0266,0.091,-0.1101,0.1535,-0.2049,0.1535h-1.8977c-0.144,0,-0.2468,-0.1393,-0.2039,-0.2768c0.4616,-1.4768,1.3258,-4.4239,1.3391,-5.4213c-0.0031,-1.7859,-1.4173,-2.4225,-2.7408,-2.4225c-1.0669,0,-2.3542,0.9378,-2.7776,1.3657l-0.0331,0.0281C7.8525,7.5993,5.3884,10.0252,3.5,12h4.5957c0.0951,0,0.1427,0.115,0.0755,0.1822l-1.6414,1.6927C6.4498,13.955,6.3411,14,6.2279,14H0.2135C0.0956,14,0,13.9044,0,13.7865l0,-6.0144C0,7.6589,0.045,7.5502,0.1251,7.4702z" fill="#4EA17E"/>
  </g>
</svg>
