<?xml version="1.0" encoding="UTF-8"?>
<!DOCTYPE svg PUBLIC "-//W3C//DTD SVG 1.1//EN" "http://www.w3.org/Graphics/SVG/1.1/DTD/svg11.dtd">
<svg version="1.1" id="Layer_1" xmlns="http://www.w3.org/2000/svg" xmlns:xlink="http://www.w3.org/1999/xlink" x="0px" y="0px" width="16px" height="16px" viewBox="0 0 16 16" enable-background="new 0 0 16 16" xml:space="preserve">
  <g id="icon">
    <path d="M11.0621,0.0021c-0.3861,0.0112,-0.7609,0.0694,-1.1195,0.168C7.642,0.6232,5.9065,2.6506,5.9065,5.0841c0,0.6065,0.1079,1.1877,0.3053,1.7258C4.7264,8.2985,0.1016,12.8628,0.1016,12.8628C0.0365,12.9288,0,13.0179,0,13.1106v2.5365C0,15.8421,0.158,16,0.3529,16H4.2c0.1949,0,0.3,-0.1579,0.3,-0.3529v-1.6477L6.6643,14c0.1949,0,0.3357,-0.1057,0.3357,-0.3006V11.8c0,0,1.6546,-1.7315,2.0248,-2.0767c0.5835,0.238,1.2217,0.3702,1.8908,0.3702c2.4342,0,4.4622,-1.7365,4.9146,-4.038c0.0958,-0.3493,0.1538,-0.7139,0.1668,-1.0893C16.0934,2.1924,13.8324,-0.078,11.0621,0.0021zM12.3365,2.3925c0.7433,0,1.3458,0.6025,1.3458,1.3458c0,0.7433,-0.6025,1.3458,-1.3458,1.3458s-1.3458,-0.6025,-1.3458,-1.3458C10.9907,2.9951,11.5932,2.3925,12.3365,2.3925z" fill="#EAB765"/>
  </g>
</svg>
