<?xml version="1.0" encoding="UTF-8"?>
<!DOCTYPE svg PUBLIC "-//W3C//DTD SVG 1.1//EN" "http://www.w3.org/Graphics/SVG/1.1/DTD/svg11.dtd">
<svg version="1.1" id="Layer_1" xmlns="http://www.w3.org/2000/svg" xmlns:xlink="http://www.w3.org/1999/xlink" x="0px" y="0px" width="16px" height="16px" viewBox="0 0 16 16" enable-background="new 0 0 16 16" xml:space="preserve">
  <g id="icon">
    <path d="M3.5921,15.9422l0.0312,-0.0068c0.7477,-0.0503,1.4668,-0.3836,2.1985,-1.0189c0.6887,-0.5978,1.3938,-1.1882,2.0758,-1.7591l0.0272,-0.0228c0.6032,-0.5051,1.227,-1.0273,1.8304,-1.5476l0.32,-0.2759c0.4649,-0.4009,0.93,-0.8019,1.3947,-1.2031c0.3141,-0.2711,0.6294,-0.5409,0.9448,-0.8106l0.0262,-0.0224c0.7264,-0.6213,1.4775,-1.2637,2.2017,-1.9137c1.0918,-0.9798,1.5617,-2.4062,1.257,-3.8158c-0.3109,-1.4375,-1.4964,-2.7853,-2.8829,-3.2776c-0.2017,-0.0717,-0.413,-0.121,-0.6173,-0.1686c-0.0953,-0.0222,-0.1844,-0.043,-0.2726,-0.0656l-0.7532,-0.0431l-0.0419,0.0054c-0.0088,0.0023,-0.0176,0.005,-0.0265,0.0078l-0.0336,0.0069c-1.0406,0.0544,-1.9521,0.4328,-2.7865,1.157C6.8101,2.6216,5.1012,4.0949,3.4487,5.5197l-0.0409,0.0352c-0.6574,0.5667,-1.3147,1.1335,-1.9711,1.6999l-0.0321,0.0273c-0.0273,0.0232,-0.0543,0.046,-0.0799,0.0701c-0.1252,0.1172,-0.1968,0.2686,-0.2016,0.4266c-0.0047,0.1528,0.054,0.3016,0.1651,0.4192c0.1156,0.1221,0.2716,0.194,0.4394,0.2026c0.1647,0.0081,0.3291,-0.0458,0.4618,-0.1506c0.0335,-0.0264,0.0655,-0.0546,0.0963,-0.0818l2.212,-1.9102C6.1186,4.8586,7.791,3.4146,9.4387,1.9962c0.81,-0.6975,1.7788,-0.9308,2.8411,-0.6837c1.315,0.3059,2.4259,1.6888,2.4259,3.0199c0.0002,0.9005,-0.3452,1.6363,-1.056,2.2493c-2.049,1.7672,-4.0975,3.5352,-6.1459,5.3033L4.955,14.0859c-0.0516,0.0456,-0.1051,0.0927,-0.1587,0.134c-0.7062,0.545,-1.4706,0.6602,-2.2366,0.3363c-0.6335,-0.2682,-1.0613,-0.7932,-1.1738,-1.4402c-0.1171,-0.6736,0.1391,-1.3588,0.6854,-1.833c2.178,-1.8906,4.5342,-3.9225,7.415,-6.3942c0.1456,-0.125,0.343,-0.2281,0.5415,-0.2827c0.1267,-0.035,0.2541,-0.0495,0.3783,-0.0432c0.0446,0.0023,0.0868,0.0034,0.127,0.0045c0.0411,0.0012,0.0728,0.0021,0.1034,0.0037c0.192,0.0097,0.3676,0.1335,0.4597,0.2365c0.1434,0.1606,0.1242,0.2712,0.0976,0.4243c-0.0072,0.0415,-0.0156,0.0896,-0.0223,0.1476c-0.0362,0.3121,-0.1901,0.5813,-0.4706,0.823C9.2704,7.4347,7.8415,8.668,6.408,9.9052l-1.3955,1.2042c-0.0338,0.0285,-0.0716,0.0605,-0.1065,0.0963c-0.1424,0.1465,-0.2002,0.3491,-0.1544,0.5418c0.0465,0.196,0.187,0.3526,0.3854,0.4296c0.0716,0.0278,0.1435,0.0437,0.2138,0.0473c0.1787,0.0084,0.3482,-0.0589,0.522,-0.2092c2.1911,-1.8945,3.9997,-3.4555,5.6916,-4.9124c0.4756,-0.4097,0.7601,-0.8978,0.8698,-1.4924c0.1101,-0.5975,-0.0015,-1.1013,-0.3412,-1.5401c-0.394,-0.509,-0.9317,-0.6373,-1.4058,-0.6958c-0.7891,-0.0978,-1.5006,0.1177,-2.1004,0.6353L1.27,10.3237c-0.0573,0.0494,-0.114,0.0995,-0.1693,0.1512c-0.8709,0.8143,-1.2143,1.966,-0.9184,3.0805c0.2907,1.0948,1.1478,1.9415,2.2929,2.2648c0.0817,0.023,0.1642,0.0441,0.2471,0.0654l0.1171,0.03l0.7098,0.041l0.023,-0.0073C3.5785,15.9473,3.5852,15.9449,3.5921,15.9422z" fill="#3E79B4"/>
  </g>
</svg>
