<?xml version="1.0" encoding="UTF-8"?>
<!DOCTYPE svg PUBLIC "-//W3C//DTD SVG 1.1//EN" "http://www.w3.org/Graphics/SVG/1.1/DTD/svg11.dtd">
<svg version="1.1" id="Layer_1" xmlns="http://www.w3.org/2000/svg" xmlns:xlink="http://www.w3.org/1999/xlink" x="0px" y="0px" width="16px" height="16px" viewBox="0 0 16 16" enable-background="new 0 0 16 16" xml:space="preserve">
  <g id="icon">
    <path d="M2.5907,7.9667L13.4609,3.129M2.5907,7.9667l10.8702,4.8377" fill="none" stroke="#6D6E71" stroke-width="2" stroke-miterlimit="1"/>
    <path d="M3.487,5.5383c1.306,0.5088,1.9632,2.0086,1.4677,3.35S2.999,10.9044,1.693,10.3956C0.3869,9.8868,-0.2702,8.387,0.2252,7.0457S2.181,5.0295,3.487,5.5383zM11.0954,2.2079c-0.4954,1.3413,0.1617,2.8412,1.4677,3.35s2.7664,-0.1661,3.2618,-1.5074s-0.1617,-2.8412,-1.4677,-3.35C13.0512,0.1916,11.5908,0.8665,11.0954,2.2079zM11.0954,11.8834c-0.4954,1.3413,0.1617,2.8411,1.4677,3.35c1.306,0.5088,2.7664,-0.1661,3.2618,-1.5074s-0.1617,-2.8412,-1.4677,-3.35C13.0512,9.8672,11.5908,10.5421,11.0954,11.8834z" fill="#3E79B4"/>
  </g>
</svg>
