<?xml version="1.0" encoding="UTF-8"?>
<!DOCTYPE svg PUBLIC "-//W3C//DTD SVG 1.1//EN" "http://www.w3.org/Graphics/SVG/1.1/DTD/svg11.dtd">
<svg version="1.1" id="Layer_1" xmlns="http://www.w3.org/2000/svg" xmlns:xlink="http://www.w3.org/1999/xlink" x="0px" y="0px" width="16px" height="16px" viewBox="0 0 16 16" enable-background="new 0 0 16 16" xml:space="preserve">
  <g id="icon">
    <path d="M16,8.713V7.4476c0,-0.3038,-0.2185,-0.5637,-0.5179,-0.6158l-1.8424,-0.3205c-0.1184,-0.4314,-0.2893,-0.8551,-0.5122,-1.2639l1.1034,-1.5682c0.1748,-0.2485,0.1456,-0.5867,-0.0692,-0.8016l-0.8948,-0.8948c-0.2149,-0.2149,-0.5531,-0.2441,-0.8016,-0.0692l-1.5234,1.0719c-0.4214,-0.2477,-0.8705,-0.4411,-1.3364,-0.5775L9.2766,0.5179C9.2245,0.2185,8.9647,0,8.6609,0H7.3954c-0.3038,0,-0.5637,0.2185,-0.6158,0.5179l-0.3203,1.8413c-0.4369,0.1141,-0.8667,0.2804,-1.2814,0.5012L3.627,1.7691c-0.2485,-0.1748,-0.5867,-0.1456,-0.8016,0.0692l-0.8948,0.8948c-0.2149,0.2149,-0.2441,0.5531,-0.0692,0.8016L2.9001,5.011c-0.265,0.4382,-0.4437,0.9079,-0.5869,1.3955L0.5167,6.7226C0.2179,6.7751,0,7.0347,0,7.3381v1.2675c0,0.3034,0.2179,0.563,0.5167,0.6155l1.7387,0.306c0.1185,0.4638,0.2827,0.9197,0.5212,1.3583l-1.0518,1.4877c-0.1756,0.2483,-0.1469,0.587,0.0679,0.8023l0.8913,0.8931c0.2149,0.2153,0.5535,0.2446,0.8022,0.0695l1.4296,-1.0068c0.4541,0.2715,0.9402,0.4536,1.446,0.5947l0.3086,1.7571C6.7229,15.782,6.9825,16,7.286,16h1.2674c0.3034,0,0.563,-0.2179,0.6155,-0.5167l0.3062,-1.7399c0.4582,-0.1231,0.9082,-0.2913,1.3408,-0.5322l1.505,1.064c0.2483,0.1756,0.587,0.1469,0.8023,-0.068l0.8931,-0.8913c0.2153,-0.2149,0.2446,-0.5535,0.0695,-0.8022l-1.0399,-1.4767c0.2541,-0.4373,0.4507,-0.903,0.5853,-1.3869l1.8508,-0.3214C15.7814,9.2767,16,9.0169,16,8.713zM9.3054,10.4222c-1.2994,0.7502,-2.9609,0.305,-3.7111,-0.9944c-0.7502,-1.2994,-0.305,-2.9609,0.9944,-3.7111c1.2994,-0.7502,2.9609,-0.305,3.7111,0.9944S10.6048,9.672,9.3054,10.4222z" fill-rule="evenodd" fill="#797979"/>
  </g>
</svg>
