<?xml version="1.0" encoding="UTF-8"?>
<!DOCTYPE svg PUBLIC "-//W3C//DTD SVG 1.1//EN" "http://www.w3.org/Graphics/SVG/1.1/DTD/svg11.dtd">
<svg version="1.1" id="Layer_1" xmlns="http://www.w3.org/2000/svg" xmlns:xlink="http://www.w3.org/1999/xlink" x="0px" y="0px" width="16px" height="16px" viewBox="0 0 16 16" enable-background="new 0 0 16 16" xml:space="preserve">
  <g id="main">
    <g id="icon">
      <path d="M6.482,0.08145L5.661,0.265L5.019,0.5629L4.537,0.9684L4.197,1.474L3.977,2.075L3.86,2.762L3.825,3.53L3.854,4.076L3.938,4.662L4.262,5.889L4.497,6.5L4.778,7.087L5.103,7.635L5.468,8.128L5.459,8.413L5.361,8.656L5.155,8.86L4.825,9.027L2.611,9.805L1.843,10.11L1.26,10.4L0.8305,10.73L0.5221,11.12L0.3041,11.61L0.1447,12.23L0.08145,12.74L0.07441,13.16L0.1447,13.61L0.3131,14.15L0.4266,14.32L0.6332,14.46L1.285,14.68L2.186,14.83L3.252,14.92L5.547,14.98L7.503,14.98L9,14.98L9,14L7.3,14L7.038,13.97L6.794,13.9L6.381,13.62L6.102,13.21L6.026,12.96L6,12.7L6,10.3L6.026,10.04L6.102,9.794L6.381,9.381L6.794,9.102L7.038,9.026L7.3,9L9,9L9,7.3L9.026,7.038L9.102,6.794L9.381,6.381L9.794,6.102L10.04,6.026L10.3,6L10.76,6L10.8,5.891L11.13,4.662L11.21,4.076L11.24,3.53L11.2,2.762L11.08,2.075L10.85,1.474L10.5,0.9684L10.01,0.5629L9.354,0.265L8.526,0.08145L7.503,0.01875zM14,14.6L14.43,14.46L14.63,14.32L14.75,14.15L14.8,14L14,14zz" fill-rule="evenodd" fill="#3E79B4"/>
    </g>
    <g id="overlay">
      <path d="M15.7,10h-2.7V7.3c0,-0.166,-0.134,-0.3,-0.3,-0.3h-2.4c-0.166,0,-0.3,0.134,-0.3,0.3v2.7H7.3c-0.166,0,-0.3,0.134,-0.3,0.3v2.4c0,0.166,0.134,0.3,0.3,0.3h2.7v2.7c0,0.166,0.134,0.3,0.3,0.3h2.4c0.166,0,0.3,-0.134,0.3,-0.3v-2.7h2.7c0.166,0,0.3,-0.134,0.3,-0.3v-2.4C16,10.134,15.866,10,15.7,10z" fill="#797979"/>
    </g>
  </g>
</svg>
