<?xml version="1.0" encoding="UTF-8"?>
<!DOCTYPE svg PUBLIC "-//W3C//DTD SVG 1.1//EN" "http://www.w3.org/Graphics/SVG/1.1/DTD/svg11.dtd">
<svg version="1.1" id="Layer_1" xmlns="http://www.w3.org/2000/svg" xmlns:xlink="http://www.w3.org/1999/xlink" x="0px" y="0px" width="16px" height="16px" viewBox="0 0 16 16" enable-background="new 0 0 16 16" xml:space="preserve">
  <g id="main">
    <g id="icon">
      <path d="M6.482,0.08145L5.661,0.265L5.019,0.5629L4.537,0.9684L4.197,1.474L3.977,2.075L3.86,2.762L3.825,3.53L3.854,4.076L3.938,4.662L4.262,5.889L4.497,6.5L4.778,7.087L5.103,7.635L5.468,8.128L5.459,8.413L5.361,8.656L5.155,8.86L4.825,9.027L2.611,9.805L1.843,10.11L1.26,10.4L0.8305,10.73L0.5221,11.12L0.3041,11.61L0.1447,12.23L0.08145,12.74L0.07441,13.16L0.1447,13.61L0.3131,14.15L0.4266,14.32L0.6332,14.46L1.285,14.68L2.186,14.83L3.252,14.92L5.547,14.98L6.219,14.98L6.218,14.98L6.097,14.75L6.001,14.25L6.097,13.75L6.218,13.52L6.387,13.32L8.237,11.47L6.387,9.618L6.221,9.416L6.1,9.19L6.025,8.944L6,8.684L6.025,8.424L6.1,8.178L6.221,7.951L6.387,7.75L7.749,6.388L7.951,6.222L8.177,6.101L8.423,6.026L8.683,6.001L8.943,6.026L9.189,6.101L9.416,6.222L9.617,6.388L10.3,7.068L10.57,6.503L10.8,5.891L11.13,4.662L11.21,4.076L11.24,3.53L11.2,2.762L11.08,2.075L10.85,1.474L10.5,0.9684L10.01,0.5629L9.354,0.265L8.526,0.08145L7.503,0.01875zM11.23,14.93L11.69,14.92L11.47,14.7zz" fill-rule="evenodd" fill="#3E79B4"/>
    </g>
    <g id="overlay">
      <path d="M15.906,14.544l-1.362,1.362c-0.125,0.125,-0.329,0.125,-0.454,0l-2.622,-2.622l-2.557,2.557c-0.125,0.125,-0.329,0.125,-0.454,0l-1.362,-1.362c-0.125,-0.125,-0.125,-0.329,0,-0.454l2.557,-2.557L7.094,8.911c-0.125,-0.125,-0.125,-0.329,0,-0.454l1.362,-1.362c0.125,-0.125,0.329,-0.125,0.454,0l2.557,2.557l2.557,-2.557c0.125,-0.125,0.329,-0.125,0.454,0l1.362,1.362c0.125,0.125,0.125,0.329,0,0.454l-2.557,2.557l2.622,2.622C16.031,14.215,16.031,14.418,15.906,14.544z" fill-rule="evenodd" fill="#797979"/>
    </g>
  </g>
</svg>
