<?xml version="1.0" encoding="UTF-8"?>
<!DOCTYPE svg PUBLIC "-//W3C//DTD SVG 1.1//EN" "http://www.w3.org/Graphics/SVG/1.1/DTD/svg11.dtd">
<svg version="1.1" id="Layer_1" xmlns="http://www.w3.org/2000/svg" xmlns:xlink="http://www.w3.org/1999/xlink" x="0px" y="0px" width="16px" height="16px" viewBox="0 0 16 16" enable-background="new 0 0 16 16" xml:space="preserve">
  <g id="icon">
    <path d="M12.868,2.807L9.342,6.333l2.475,2.475l3.525,-3.525c0.152,-0.152,0.156,-0.43,0.01,-0.576l-1.885,-1.885C13.322,2.675,13.019,2.656,12.868,2.807z" id="b" fill="#FFFFFF"/>
    <path d="M8.461,1.042l1.387,-0.729c0.078,-0.041,0.169,0.025,0.154,0.112l-0.265,1.545c-0.006,0.035,0.006,0.07,0.031,0.094l1.122,1.094c0.063,0.062,0.028,0.169,-0.059,0.182l-1.551,0.225c-0.035,0.005,-0.065,0.027,-0.08,0.058l-0.694,1.405c-0.039,0.079,-0.152,0.079,-0.191,0l-0.694,-1.405c-0.016,-0.031,-0.045,-0.053,-0.08,-0.058l-1.551,-0.225c-0.087,-0.013,-0.122,-0.12,-0.059,-0.182l1.122,-1.094c0.025,-0.024,0.037,-0.06,0.031,-0.094L6.82,0.425c-0.015,-0.087,0.076,-0.153,0.154,-0.112l1.387,0.729C8.393,1.058,8.43,1.058,8.461,1.042zM2.947,3.282l-0.759,-1.043c-0.043,-0.059,-0.134,-0.047,-0.155,0.019l-0.367,1.185c-0.008,0.026,-0.029,0.047,-0.057,0.054L0.382,3.833C0.313,3.852,0.3,3.94,0.36,3.983l1.063,0.753c0.024,0.017,0.038,0.044,0.038,0.072l0,1.251c0,0.07,0.083,0.114,0.141,0.073l1.024,-0.719c0.023,-0.016,0.053,-0.02,0.08,-0.01l1.227,0.437c0.069,0.025,0.134,-0.037,0.11,-0.105l-0.43,-1.198c-0.01,-0.027,-0.005,-0.056,0.012,-0.078l0.758,-0.981c0.043,-0.055,-0.001,-0.137,-0.073,-0.138L3.02,3.32C2.991,3.319,2.964,3.305,2.947,3.282z" fill="#EAB765"/>
    <path d="M15.706,4.353l-1.885,-1.885c-0.159,-0.159,-0.39,-0.255,-0.633,-0.264c-0.258,-0.009,-0.505,0.082,-0.674,0.251L9.342,5.626l-0.707,0.707L0,14.968V16h5.332l6.485,-6.485l0.707,-0.707l3.172,-3.172c0.163,-0.163,0.259,-0.395,0.263,-0.636C15.963,4.753,15.871,4.517,15.706,4.353zM11.817,8.1L10.05,6.333l3.111,-3.111l1.768,1.768L11.817,8.1z" fill="#797979"/>
  </g>
</svg>
