<?xml version="1.0" encoding="UTF-8"?>
<!DOCTYPE svg PUBLIC "-//W3C//DTD SVG 1.1//EN" "http://www.w3.org/Graphics/SVG/1.1/DTD/svg11.dtd">
<svg version="1.1" id="Layer_1" xmlns="http://www.w3.org/2000/svg" xmlns:xlink="http://www.w3.org/1999/xlink" x="0px" y="0px" width="16px" height="16px" viewBox="0 0 16 16" enable-background="new 0 0 16 16" xml:space="preserve">
  <g id="icon">
    <path d="M11.677,1.4946L8,5.1716l-3.677,-3.677c-0.3124,-0.3124,-0.819,-0.3124,-1.1314,0L1.4946,3.1917c-0.3124,0.3124,-0.3124,0.819,0,1.1314L5.1716,8l-3.677,3.677c-0.3124,0.3124,-0.3124,0.819,0,1.1314l1.6971,1.6971c0.3124,0.3124,0.819,0.3124,1.1314,0L8,10.8284l3.677,3.677c0.3124,0.3124,0.819,0.3124,1.1314,0l1.6971,-1.6971c0.3124,-0.3124,0.3124,-0.819,0,-1.1314L10.8284,8l3.677,-3.677c0.3124,-0.3124,0.3124,-0.819,0,-1.1314l-1.6971,-1.6971C12.4959,1.1822,11.9894,1.1822,11.677,1.4946z" fill="#CD4C32"/>
  </g>
</svg>
