<?xml version="1.0" encoding="UTF-8"?>
<!DOCTYPE svg PUBLIC "-//W3C//DTD SVG 1.1//EN" "http://www.w3.org/Graphics/SVG/1.1/DTD/svg11.dtd">
<svg version="1.1" id="Layer_1" xmlns="http://www.w3.org/2000/svg" xmlns:xlink="http://www.w3.org/1999/xlink" x="0px" y="0px" width="16px" height="16px" viewBox="0 0 16 16" enable-background="new 0 0 16 16" xml:space="preserve">
  <g id="icon">
    <path d="M10.374,3.553l-6.789,6.811c-0.104,0.104,-0.273,0.105,-0.378,0.001L0.076,7.269c-0.105,-0.104,-0.105,-0.272,-0.001,-0.376L6.863,0.082c0.104,-0.104,0.273,-0.105,0.378,-0.001l3.132,3.096C10.478,3.28,10.478,3.448,10.374,3.553z" fill-rule="evenodd" fill="#3E79B4"/>
    <path d="M15.926,9.146l-2.638,2.66c-0.104,0.104,-0.272,0.105,-0.376,0.001L8.215,7.149c-0.104,-0.104,-0.105,-0.272,-0.001,-0.376l2.638,-2.66c0.104,-0.104,0.272,-0.105,0.376,-0.001l4.697,4.658C16.029,8.873,16.03,9.042,15.926,9.146z" fill-rule="evenodd" fill="#8C53A1"/>
    <path d="M10.011,10.483l-5.349,5.438c-0.104,0.104,-0.272,0.105,-0.376,0.001L1.89,13.545c-0.104,-0.104,-0.105,-0.272,-0.001,-0.376L7.237,7.73c0.104,-0.104,0.272,-0.105,0.376,-0.001l2.396,2.378C10.114,10.21,10.114,10.379,10.011,10.483z" fill-rule="evenodd" fill="#EAB765"/>
  </g>
</svg>
