<?xml version="1.0" encoding="UTF-8"?>
<!DOCTYPE svg PUBLIC "-//W3C//DTD SVG 1.1//EN" "http://www.w3.org/Graphics/SVG/1.1/DTD/svg11.dtd">
<svg version="1.1" id="Layer_1" xmlns="http://www.w3.org/2000/svg" xmlns:xlink="http://www.w3.org/1999/xlink" x="0px" y="0px" width="16px" height="16px" viewBox="0 0 16 16" enable-background="new 0 0 16 16" xml:space="preserve">
  <g id="icon">
    <path d="M11,6.017v1.967c0,0.009,-0.007,0.017,-0.017,0.017H8.017C8.007,8,8,7.993,8,7.983V6.017c0,-0.009,0.007,-0.017,0.017,-0.017h2.967C10.993,6,11,6.007,11,6.017zM15.678,8.069c-0.238,0.67,-0.605,1.293,-1.057,1.854c-0.518,0.643,-1.37,1.121,-1.37,1.953c0,0.436,-0.07,0.309,0.078,0.919c0.768,3.156,-6.166,3.2,-6.582,3.2c-0.482,0,-0.868,0.033,-1.242,-0.063c-0.507,-0.131,-0.306,-0.651,-0.464,-1.043c-0.234,-0.582,-1.295,-0.244,-1.758,-0.198c-0.565,0.056,-1.341,0.147,-1.741,-0.343c-0.421,-0.516,-0.058,-1.045,0.048,-1.58c0.078,-0.391,-0.287,-0.415,-0.463,-0.674c-0.185,-0.272,0.544,-0.374,0.544,-0.49s-0.69,-0.272,-0.569,-0.886c0.111,-0.561,-0.834,-0.43,-1.062,-0.817C-0.211,9.474,0.782,8.4,1.01,8.058c0.19,-0.285,0.515,-0.616,0.609,-0.945c0.046,-0.161,-0.154,-0.276,-0.2,-0.428c-0.067,-0.221,-0.015,-0.452,0.033,-0.671c0.333,-1.523,0.863,-2.929,1.995,-4.092C4.63,0.707,6.25,0.195,7.95,0.041c3.062,-0.278,6.448,0.849,7.597,3.763C16.08,5.158,16.167,6.694,15.678,8.069zM14.5,5c0,-0.551,-0.449,-1,-1,-1s-1,0.449,-1,1c0,0.369,0.202,0.691,0.5,0.865V7h-1v-0.983c0,-0.561,-0.456,-1.017,-1.017,-1.017H10V3.365c0.298,-0.173,0.5,-0.496,0.5,-0.865c0,-0.551,-0.449,-1,-1,-1s-1,0.449,-1,1c0,0.369,0.202,0.691,0.5,0.865V5h-0.983C7.462,5,7.009,5.447,7,6H6V4.865c0.298,-0.173,0.5,-0.496,0.5,-0.865c0,-0.551,-0.449,-1,-1,-1s-1,0.449,-1,1c0,0.369,0.202,0.691,0.5,0.865V7h2v0.983C7,8.544,7.456,9,8.017,9H9v1H6.865c-0.173,-0.298,-0.496,-0.5,-0.865,-0.5c-0.551,0,-1,0.449,-1,1s0.449,1,1,1c0.369,0,0.691,-0.202,0.865,-0.5H10V9h0.983c0.555,0,1.008,-0.447,1.017,-1h2V5.865C14.298,5.691,14.5,5.369,14.5,5z" fill="#3E79B4"/>
    <path d="M14.5,5c0,-0.551,-0.449,-1,-1,-1s-1,0.449,-1,1c0,0.369,0.202,0.691,0.5,0.865V7h-1v-0.983c0,-0.561,-0.456,-1.017,-1.017,-1.017H10V3.365c0.298,-0.173,0.5,-0.496,0.5,-0.865c0,-0.551,-0.449,-1,-1,-1s-1,0.449,-1,1c0,0.369,0.202,0.691,0.5,0.865V5h-0.983C7.462,5,7.009,5.447,7,6H6V4.865c0.298,-0.173,0.5,-0.496,0.5,-0.865c0,-0.551,-0.449,-1,-1,-1s-1,0.449,-1,1c0,0.369,0.202,0.691,0.5,0.865V7h2v0.983C7,8.544,7.456,9,8.017,9H9v1H6.865c-0.173,-0.298,-0.496,-0.5,-0.865,-0.5c-0.551,0,-1,0.449,-1,1s0.449,1,1,1c0.369,0,0.691,-0.202,0.865,-0.5H10V9h0.983c0.555,0,1.008,-0.447,1.017,-1h2V5.865C14.298,5.691,14.5,5.369,14.5,5zM11,7.983c0,0.009,-0.007,0.017,-0.017,0.017H8.017C8.007,8,8,7.993,8,7.983V6.017c0,-0.009,0.007,-0.017,0.017,-0.017h2.967c0.009,0,0.017,0.007,0.017,0.017V7.983z" id="b" fill="#FFFFFF"/>
  </g>
</svg>
