<?xml version="1.0" encoding="UTF-8"?>
<!DOCTYPE svg PUBLIC "-//W3C//DTD SVG 1.1//EN" "http://www.w3.org/Graphics/SVG/1.1/DTD/svg11.dtd">
<svg version="1.1" id="Layer_1" xmlns="http://www.w3.org/2000/svg" xmlns:xlink="http://www.w3.org/1999/xlink" x="0px" y="0px" width="16px" height="16px" viewBox="0 0 16 16" enable-background="new 0 0 16 16" xml:space="preserve">
  <g id="icon">
    <path d="M3.4612,15.4503l1.8511,-2.9718c0.479,-0.4799,0.4645,-1.2745,-0.0334,-1.7711l-0.7763,-0.7747c-0.2458,-0.2453,-0.2477,-0.642,-0.0036,-0.889C5.5095,8.0205,8.002,5.5338,9.0273,4.5246c0.2476,-0.2437,0.6455,-0.2419,0.8914,0.0036l0.7766,0.7753c0.4986,0.4973,1.2948,0.5111,1.7753,0.0323l2.979,-1.8466c0.4797,-0.4787,0.4652,-1.2738,-0.0334,-1.7711c0,0,-1.3347,-1.312,-2.6953,-1.4689c-2.6432,-0.3181,-5.0589,0.887,-8.337,4.1576C-0.147,8.9279,0.1953,12.5712,0.212,12.7284c0,1.2588,1.4525,2.6898,1.4525,2.6898C2.163,15.9145,2.98,15.9288,3.4612,15.4503z" fill="#3E79B4"/>
  </g>
</svg>
