<?xml version="1.0" encoding="UTF-8"?>
<!DOCTYPE svg PUBLIC "-//W3C//DTD SVG 1.1//EN" "http://www.w3.org/Graphics/SVG/1.1/DTD/svg11.dtd">
<svg version="1.1" id="Layer_1" xmlns="http://www.w3.org/2000/svg" xmlns:xlink="http://www.w3.org/1999/xlink" x="0px" y="0px" width="16px" height="16px" viewBox="0 0 16 16" enable-background="new 0 0 16 16" xml:space="preserve">
  <g id="main">
    <clipPath id="clip_mask">
      <path d="M8.675,16H0V0h16v8.391l-0.466,-0.487c-0.245,-0.256,-0.588,-0.404,-0.942,-0.404c-0.352,0,-0.694,0.146,-0.938,0.4l-3.466,3.599l-1.344,-1.41c-0.245,-0.257,-0.589,-0.405,-0.943,-0.405c-0.354,0,-0.697,0.147,-0.942,0.403l-1.094,1.145c-0.487,0.51,-0.488,1.31,-0.001,1.82L8.675,16zM11.702,16H16v-4.463L11.702,16z" fill-rule="evenodd"/>
    </clipPath>
    <g id="icon" clip-path="url(#clip_mask)">
      <path d="M13.2,14.5H1.8c-0.693,0,-1.3,-0.6,-1.3,-1.3V2.5h14v10.7C14.5,13.9,13.893,14.5,13.2,14.5z" fill-rule="evenodd" fill="#FFFFFF" stroke="#797979" stroke-width="1" stroke-miterlimit="1"/>
      <path d="M13.66,0H1.34C0.614,0,0,0.595,0,1.3v1.7h15V1.3C15,0.595,14.386,0,13.66,0zM9,2H8V1h1V2zM11,2h-1V1h1V2zM13,2h-1V1h1V2z" fill="#3E79B4"/>
      <path d="M13,2h-1V1h1V2zM11,1h-1v1h1V1zM9,1H8v1h1V1z" fill="#FFFFFF"/>
      <path d="M14,3v2H1V3H14zM1,13.3c0,0.387,0.313,0.7,0.7,0.7h3.3V6H1V13.3z" fill-rule="evenodd" fill="#F1F0F0"/>
      <path d="M14,5v1H6v8H5V6H1V5H14zM7.5,8h5V7H7.5V8zM7.5,10h5V9H7.5V10zM10,13h3v-2h-3V13z" fill="#B3B3B3"/>
    </g>
    <g id="overlay">
      <path d="M15.913,9.747l-1.101,-1.153c-0.12,-0.125,-0.317,-0.126,-0.437,-0.001l-4.19,4.351l-2.065,-2.166c-0.12,-0.126,-0.318,-0.126,-0.438,0l-1.094,1.144c-0.117,0.122,-0.117,0.317,0,0.439l3.38,3.543c0.12,0.126,0.317,0.126,0.437,0.001l5.508,-5.719C16.029,10.065,16.029,9.869,15.913,9.747z" fill-rule="evenodd" fill="#E9B665"/>
    </g>
  </g>
</svg>
