<?xml version="1.0" encoding="UTF-8"?>
<!DOCTYPE svg PUBLIC "-//W3C//DTD SVG 1.1//EN" "http://www.w3.org/Graphics/SVG/1.1/DTD/svg11.dtd">
<svg version="1.1" id="Layer_1" xmlns="http://www.w3.org/2000/svg" xmlns:xlink="http://www.w3.org/1999/xlink" x="0px" y="0px" width="16px" height="16px" viewBox="0 0 16 16" enable-background="new 0 0 16 16" xml:space="preserve">
  <g id="main">
    <clipPath id="clip_mask">
      <path d="M6,15.8015v-1.4268c0,-0.3181,0.1218,-0.6169,0.343,-0.8414l0.0095,-0.0095c0.0226,-0.0223,1.9729,-1.9487,3.0245,-2.9951c-0.0389,-0.2197,-0.0585,-0.4432,-0.0585,-0.6688c0,-1.8067,1.2767,-3.3728,3.041,-3.738c0.2716,-0.0717,0.5507,-0.1122,0.8303,-0.1202c0.0363,-0.001,0.0725,-0.0016,0.1086,-0.0016c1.0134,0,1.9595,0.4018,2.6641,1.1312c0.0129,0.0134,0.0249,0.0273,0.0375,0.0409V0H0v16h6.0178C6.007,15.9353,6,15.8692,6,15.8015z"/>
    </clipPath>
    <g id="icon" clip-path="url(#clip_mask)">
      <path d="M14,14.5H1c-0.2761,0,-0.5,-0.2239,-0.5,-0.5V2.5h14v11.5C14.5,14.2761,14.2761,14.5,14,14.5z" fill="#FFFFFF" stroke="#6D6E71" stroke-width="1" stroke-miterlimit="1"/>
      <path d="M15,3H0V1C0,0.4477,0.4477,0,1,0h13c0.5523,0,1,0.4477,1,1V3z" fill="#3E79B4"/>
      <path d="M3,5.5h2M3,7.5h2M3,9.5h2M3,11.5h2" fill="none" stroke="#797979" stroke-width="1" stroke-linecap="round" stroke-miterlimit="1"/>
      <path d="M7,5.5h5.1M7,7.5h5.1M7,9.5h5.1M7,11.5h5.1" fill="none" stroke="#B4B4B5" stroke-width="1" stroke-linecap="round" stroke-miterlimit="1"/>
    </g>
    <g id="overlay">
      <path d="M13.2185,7.0012c-0.2172,0.0063,-0.428,0.0391,-0.6297,0.0945c-1.2941,0.2549,-2.2703,1.3953,-2.2703,2.7642c0,0.3411,0.0607,0.6681,0.1717,0.9707c-0.8355,0.8373,-3.435,3.4047,-3.435,3.4047c-0.0366,0.0371,-0.0552,0.0872,-0.0552,0.1394v1.4268c0,0.1096,0.085,0.1986,0.1946,0.1986h2.164c0.1096,0,0.1414,-0.0889,0.1414,-0.1986v-0.8018L10.7643,15c0.1096,0,0.2357,-0.0594,0.2357,-0.1691v-1.1935c0,0,0.8975,-0.974,1.1057,-1.1681c0.3282,0.1339,0.6706,0.2082,1.0469,0.2082c1.3692,0,2.5017,-0.9767,2.7561,-2.2714c0.0539,-0.1965,0.0823,-0.4015,0.0897,-0.6127C16.0527,8.2332,14.7768,6.9561,13.2185,7.0012zM13.9353,8.3458c0.4181,0,0.757,0.3389,0.757,0.757c0,0.4181,-0.3389,0.757,-0.757,0.757c-0.4181,0,-0.757,-0.3389,-0.757,-0.757C13.1783,8.6847,13.5172,8.3458,13.9353,8.3458z" fill="#EAB765"/>
    </g>
  </g>
</svg>
