<?xml version="1.0" encoding="UTF-8"?>
<!DOCTYPE svg PUBLIC "-//W3C//DTD SVG 1.1//EN" "http://www.w3.org/Graphics/SVG/1.1/DTD/svg11.dtd">
<svg version="1.1" id="Layer_1" xmlns="http://www.w3.org/2000/svg" xmlns:xlink="http://www.w3.org/1999/xlink" x="0px" y="0px" width="16px" height="16px" viewBox="0 0 16 16" enable-background="new 0 0 16 16" xml:space="preserve">
  <g id="icon">
    <path d="M15.8904,4.0771l-1.9415,-1.9415c-0.1801,-0.1801,-0.4884,-0.1639,-0.669,0.0156L6.3234,9.0554L2.6739,5.367c-0.0865,-0.0875,-0.2027,-0.1312,-0.3257,-0.1316c-0.1234,-0.0005,-0.2396,0.0541,-0.3265,0.1411L0.1506,7.2476c-0.1797,0.1797,-0.1842,0.4671,-0.0056,0.6478l3.483,3.4766c0.0204,0.0364,0.0715,0.0408,0.1016,0.0708l2.3642,2.3642c0.0902,0.0902,0.181,0.1628,0.2993,0.1628c0.1178,0,0.2218,-0.031,0.312,-0.1206l9.158,-9.0914c0.0871,-0.0865,0.1493,-0.2174,0.1495,-0.3402C16.0128,4.2949,15.9772,4.1639,15.8904,4.0771z" fill="#ACACAC"/>
  </g>
</svg>
