<?xml version="1.0" encoding="UTF-8"?>
<!DOCTYPE svg PUBLIC "-//W3C//DTD SVG 1.1//EN" "http://www.w3.org/Graphics/SVG/1.1/DTD/svg11.dtd">
<svg version="1.1" id="Layer_1" xmlns="http://www.w3.org/2000/svg" xmlns:xlink="http://www.w3.org/1999/xlink" x="0px" y="0px" width="16px" height="16px" viewBox="0 0 16 16" enable-background="new 0 0 16 16" xml:space="preserve">
  <g id="icon">
    <path d="M6,6.6167C6,5.7275,6.7275,5,7.6167,5H12V1.8c0,-0.44,-0.36,-0.8,-0.8,-0.8h-1.2v1.2c0,0.44,-0.36,0.8,-0.8,0.8H2.8c-0.44,0,-0.8,-0.36,-0.8,-0.8V1H0.8c-0.44,0,-0.8,0.36,-0.8,0.8v11.4c0,0.44,0.36,0.8,0.8,0.8h5.2V6.6167z" fill="#E8B663"/>
    <g>
      <path d="M15.06,15.5H7.94c-0.243,0,-0.44,-0.197,-0.44,-0.44V6.94c0,-0.243,0.197,-0.44,0.44,-0.44c0,0,2.7033,0,3.0455,0s0.5374,0.1096,0.6782,0.2504c0.1407,0.1407,3.2925,3.0925,3.5247,3.3247c0.2322,0.2322,0.3116,0.4217,0.3116,0.7639s0,4.2211,0,4.2211C15.5,15.303,15.303,15.5,15.06,15.5z" fill-rule="evenodd" fill="#FFFFFF" stroke="#797979" stroke-width="1" stroke-miterlimit="1"/>
      <path d="M11.5,6.9c0,0,0,3.0589,0,3.2667c0,0.2077,0.2111,0.3333,0.3333,0.3333c-0.1066,0,3.6667,0,3.6667,0" fill-rule="evenodd" fill="none" stroke="#797979" stroke-width="1" stroke-miterlimit="1" stroke-linejoin="round"/>
    </g>
    <path d="M7.9,0.4961c0,-0.0949,0,0.0389,0,-0.0062C7.9,0.3526,7.6152,0,7.2606,0C6.9714,0,5.987,0,5.987,0s-0.9844,0,-1.2737,0C4.3587,0,4.1,0.3526,4.1,0.4899c0,0.0451,0,-0.0887,0,0.0062c0,0.3962,-1.1099,0.4762,-1.1099,0.9138c0,0.1761,0.0631,0.6159,0.1248,0.5882c0.033,-0.0148,2.5885,0.0022,2.832,0.0019c0.2432,0.0003,2.4443,0.002,2.8487,0c0.0678,-0.0003,0.2007,-0.414,0.2007,-0.5902C8.9964,0.9722,7.9,0.8923,7.9,0.4961z" fill="#797979"/>
  </g>
</svg>
