<?xml version="1.0" encoding="UTF-8"?>
<!DOCTYPE svg PUBLIC "-//W3C//DTD SVG 1.1//EN" "http://www.w3.org/Graphics/SVG/1.1/DTD/svg11.dtd">
<svg version="1.1" id="Layer_1" xmlns="http://www.w3.org/2000/svg" xmlns:xlink="http://www.w3.org/1999/xlink" x="0px" y="0px" width="16px" height="16px" viewBox="0 0 16 16" enable-background="new 0 0 16 16" xml:space="preserve">
  <g id="icon">
    <rect x="1" y="3" width="14" height="10" fill-rule="evenodd" fill="#FFFFFF"/>
    <path d="M0,2.8v10.4c0,0.442,0.358,0.8,0.8,0.8h14.4c0.442,0,0.8,-0.358,0.8,-0.8V2.8c0,-0.442,-0.358,-0.8,-0.8,-0.8H0.8C0.358,2,0,2.358,0,2.8zM1,13V3h14v10H1z" fill-rule="evenodd" fill="#6D6E71"/>
    <rect x="2" y="4.5" width="2" height="7" fill-rule="evenodd" fill="#D1D3D4"/>
    <path d="M7.733,5h0.3c0.147,0,0.267,-0.119,0.267,-0.267v-0.467c0,-0.147,-0.119,-0.267,-0.267,-0.267h-0.3c-0.483,0,-0.919,0.198,-1.233,0.516C6.186,4.198,5.449,4,4.967,4h0C4.819,4,4.7,4.119,4.7,4.267v0.467c0,0.147,0.119,0.267,0.267,0.267h0C5.372,5,6,5.328,6,5.733v4.533c0,0.405,-0.628,0.733,-1.033,0.733h0c-0.147,0,-0.267,0.119,-0.267,0.267v0.467c0,0.147,0.119,0.267,0.267,0.267h0c0.483,0,1.219,-0.198,1.533,-0.516c0.314,0.318,0.751,0.516,1.233,0.516h0.3c0.147,0,0.267,-0.119,0.267,-0.267v-0.467c0,-0.147,-0.119,-0.267,-0.267,-0.267h-0.3c-0.405,0,-0.733,-0.328,-0.733,-0.733V5.733C7,5.328,7.328,5,7.733,5z" fill="#58595B"/>
    <path d="M9,3v10h6V3H9zM13.893,6.366l-1.75,2.952c-0.068,0.107,-0.194,0.107,-0.262,0l-1.75,-2.952c-0.093,-0.145,-0.014,-0.366,0.131,-0.366h3.5C13.906,6,13.985,6.221,13.893,6.366z" fill="#3E79B4"/>
    <path d="M11.881,9.318l-1.75,-2.952c-0.093,-0.145,-0.014,-0.366,0.131,-0.366h3.5c0.145,0,0.224,0.221,0.131,0.366l-1.75,2.952C12.075,9.425,11.949,9.425,11.881,9.318z" fill="#FFFFFF"/>
  </g>
</svg>
