<?xml version="1.0" encoding="UTF-8"?>
<!DOCTYPE svg PUBLIC "-//W3C//DTD SVG 1.1//EN" "http://www.w3.org/Graphics/SVG/1.1/DTD/svg11.dtd">
<svg version="1.1" id="Layer_1" xmlns="http://www.w3.org/2000/svg" xmlns:xlink="http://www.w3.org/1999/xlink" x="0px" y="0px" width="16px" height="16px" viewBox="0 0 16 16" enable-background="new 0 0 16 16" xml:space="preserve">
  <g id="main">
    <clipPath id="clip_mask">
      <path d="M6,11.5c0,-3.033,2.467,-5.5,5.5,-5.5c1.859,0,3.504,0.928,4.5,2.344V0H0v16h8.344C6.928,15.004,6,13.359,6,11.5z"/>
    </clipPath>
    <g id="icon" clip-path="url(#clip_mask)">
      <rect x="1" y="2" width="13" height="10" fill-rule="evenodd" fill="#FFFFFF"/>
      <path d="M0,1.8v10.4c0,0.442,0.358,0.8,0.8,0.8h13.4c0.442,0,0.8,-0.358,0.8,-0.8V1.8c0,-0.442,-0.358,-0.8,-0.8,-0.8H0.8C0.358,1,0,1.358,0,1.8zM1,12V2h13v10H1z" fill-rule="evenodd" fill="#6D6E71"/>
      <rect x="2" y="3.5" width="4" height="7" fill-rule="evenodd" fill="#D1D3D4"/>
      <path d="M10.733,4h0.3c0.147,0,0.267,-0.119,0.267,-0.267v-0.467c0,-0.147,-0.119,-0.267,-0.267,-0.267h-0.3c-0.483,0,-0.919,0.198,-1.233,0.516C9.186,3.198,8.449,3,7.967,3h0C7.819,3,7.7,3.119,7.7,3.267v0.467c0,0.147,0.119,0.267,0.267,0.267h0C8.372,4,9,4.328,9,4.733v4.533c0,0.405,-0.628,0.733,-1.033,0.733h0c-0.147,0,-0.267,0.119,-0.267,0.267v0.467c0,0.147,0.119,0.267,0.267,0.267h0c0.483,0,1.219,-0.198,1.533,-0.516c0.314,0.318,0.751,0.516,1.233,0.516h0.3c0.147,0,0.267,-0.119,0.267,-0.267v-0.467c0,-0.147,-0.119,-0.267,-0.267,-0.267h-0.3c-0.405,0,-0.733,-0.328,-0.733,-0.733V4.733C10,4.328,10.328,4,10.733,4z" fill="#58595B"/>
    </g>
    <g id="overlay">
      <path d="M14.683,8.327c-1.755,-1.755,-4.601,-1.755,-6.357,0c-1.755,1.755,-1.755,4.601,0,6.357s4.601,1.755,6.357,0S16.439,10.082,14.683,8.327zM12.024,13.877c0,-0.132,-0.074,0.103,-0.142,0.103h-0.728c-0.068,0,-0.13,-0.035,-0.13,-0.103v-3.755l-0.466,0.358c-0.033,0.018,-0.065,0.019,-0.099,0.004c-0.034,-0.015,-0.062,-0.045,-0.072,-0.081l-0.127,-0.689c-0.014,-0.055,0.011,-0.111,0.061,-0.137l0.749,-0.546c0.018,-0.009,0.037,-0.001,0.057,-0.001h0.754c0.068,0,0.142,-0.171,0.142,0.096V13.877z" fill="#529FBE"/>
    </g>
  </g>
</svg>
