<?xml version="1.0" encoding="UTF-8"?>
<!DOCTYPE svg PUBLIC "-//W3C//DTD SVG 1.1//EN" "http://www.w3.org/Graphics/SVG/1.1/DTD/svg11.dtd">
<svg version="1.1" id="Layer_1" xmlns="http://www.w3.org/2000/svg" xmlns:xlink="http://www.w3.org/1999/xlink" x="0px" y="0px" width="16px" height="16px" viewBox="0 0 16 16" enable-background="new 0 0 16 16" xml:space="preserve">
  <g id="main">
    <clipPath id="clip_mask">
      <path d="M7,15v-4V9l0.2706,-1C7.6171,7.4032,8.2617,7,9,7h6c0.3644,0,0.7058,0.0986,1,0.2698V0H0v16h7.2706C7.0996,15.7054,7,15.3645,7,15z"/>
    </clipPath>
    <g id="icon" clip-path="url(#clip_mask)">
      <rect x="1" y="2" width="13" height="10" fill-rule="evenodd" fill="#FFFFFF"/>
      <path d="M0,1.8v10.4c0,0.442,0.358,0.8,0.8,0.8h13.4c0.442,0,0.8,-0.358,0.8,-0.8V1.8c0,-0.442,-0.358,-0.8,-0.8,-0.8H0.8C0.358,1,0,1.358,0,1.8zM1,12V2h13v10H1z" fill-rule="evenodd" fill="#6D6E71"/>
      <rect x="2" y="3.5" width="4" height="7" fill-rule="evenodd" fill="#D1D3D4"/>
      <path d="M10.733,4h0.3c0.147,0,0.267,-0.119,0.267,-0.267v-0.467c0,-0.147,-0.119,-0.267,-0.267,-0.267h-0.3c-0.483,0,-0.919,0.198,-1.233,0.516C9.186,3.198,8.449,3,7.967,3h0C7.819,3,7.7,3.119,7.7,3.267v0.467c0,0.147,0.119,0.267,0.267,0.267h0C8.372,4,9,4.328,9,4.733v4.533c0,0.405,-0.628,0.733,-1.033,0.733h0c-0.147,0,-0.267,0.119,-0.267,0.267v0.467c0,0.147,0.119,0.267,0.267,0.267h0c0.483,0,1.219,-0.198,1.533,-0.516c0.314,0.318,0.751,0.516,1.233,0.516h0.3c0.147,0,0.267,-0.119,0.267,-0.267v-0.467c0,-0.147,-0.119,-0.267,-0.267,-0.267h-0.3c-0.405,0,-0.733,-0.328,-0.733,-0.733V4.733C10,4.328,10.328,4,10.733,4z" fill="#58595B"/>
    </g>
    <g id="overlay">
      <g>
        <path d="M15,15.5H9c-0.2761,0,-0.5,-0.2239,-0.5,-0.5V9.5h7v5.5C15.5,15.2761,15.2761,15.5,15,15.5z" fill="#FFFFFF"/>
        <path d="M15,16H9c-0.5514,0,-1,-0.4486,-1,-1V9h8v6C16,15.5514,15.5514,16,15,16zM9,10v5h6.0006L15,10H9z" fill="#6D6E71"/>
        <path d="M16,10H8V9c0,-0.5523,0.4477,-1,1,-1h6c0.5523,0,1,0.4477,1,1V10z" fill="#3E79B4"/>
        <polygon points="15,12 12.5,12 12.5,10 11.5,10 11.5,12 9,12 9,13 11.5,13 11.5,15 12.5,15 12.5,13 15,13" fill="#B4B4B5" stroke-linejoin="miter"/>
      </g>
    </g>
  </g>
</svg>
