<?xml version="1.0" encoding="UTF-8"?>
<!DOCTYPE svg PUBLIC "-//W3C//DTD SVG 1.1//EN" "http://www.w3.org/Graphics/SVG/1.1/DTD/svg11.dtd">
<svg version="1.1" id="Layer_1" xmlns="http://www.w3.org/2000/svg" xmlns:xlink="http://www.w3.org/1999/xlink" x="0px" y="0px" width="16px" height="16px" viewBox="0 0 16 16" enable-background="new 0 0 16 16" xml:space="preserve">
  <g id="main">
    <g id="icon">
      <path d="M2.977,1.83L2.7,1.917L2.45,2.054L2.232,2.237L2.052,2.457L1.916,2.71L1.83,2.99L1.8,3.291L1.8,5L6.692,5L6.955,5.027L7.201,5.103L7.616,5.384L7.897,5.799L7.973,6.045L8,6.308L8,12.2L13.73,12.2L14.02,12.17L14.3,12.08L14.55,11.95L14.77,11.76L14.95,11.54L15.08,11.29L15.17,11.01L15.2,10.71L15.2,3.291L15.17,2.99L15.08,2.71L14.95,2.457L14.77,2.237L14.55,2.054L14.3,1.917L14.02,1.83L13.73,1.8L3.274,1.8zz" fill="#F1F2F2"/>
      <path d="M2.816,1.047L2.39,1.18L2.004,1.392L1.667,1.672L1.389,2.011L1.179,2.4L1.046,2.83L1,3.291L1,5L2.6,5L2.6,3.291L2.653,3.022L2.797,2.803L3.012,2.654L3.274,2.6L13.73,2.6L13.99,2.654L14.2,2.803L14.35,3.022L14.4,3.291L14.4,10.71L14.35,10.98L14.2,11.2L13.99,11.35L13.73,11.4L8,11.4L8,13L13.73,13L14.18,12.95L14.61,12.82L15,12.61L15.33,12.33L15.61,11.99L15.82,11.6L15.95,11.17L16,10.71L16,3.291L15.95,2.83L15.82,2.4L15.61,2.011L15.33,1.672L15,1.392L14.61,1.18L14.18,1.047L13.73,1L3.274,1zz" fill="#6D6E71"/>
      <path d="M8.002,5.038L7.922,5.131L7.901,5.253L7.953,5.374L10.3,8.882L10.47,8.964L10.65,8.882L12.99,5.374L13.04,5.253L13.02,5.131L12.94,5.038L12.82,5L8.129,5zz" fill="#797979"/>
      <path d="M6,5L6.692,5L6.955,5.027L7,5.04L7,2.6L6,2.6zz" fill="#B4B4B5"/>
    </g>
    <g id="overlay">
      <path d="M7,6.308c0,-0.17,-0.138,-0.308,-0.308,-0.308H0.308C0.138,6,0,6.138,0,6.308c0,0,0,7.994,0,8v1.383c0,0.17,0.138,0.308,0.308,0.308h1h4.383h1c0.17,0,0.308,-0.138,0.308,-0.308V6.308zM3,7h1v1H3V7zM3,9h1v1H3V9zM3,11h1v1H3V11zM1,7h1v1H1V7zM1,9h1v1H1V9zM1,11h1v1H1V11zM5,15H2v-2h3V15zM6,12H5v-1h1V12zM6,10H5V9h1V10zM6,8H5V7h1V8z" fill="#3E79B4"/>
      <path d="M2,8H1V7h1V8zM4,7H3v1h1V7zM6,7H5v1h1V7zM2,10H1V9h1V10zM4,9H3v1h1V9zM6,9H5v1h1V9zM2,12H1v-1h1V12zM4,11H3v1h1V11zM6,11H5v1h1V11zM5,13H2v2h3V13z" fill="#FFFFFF"/>
    </g>
  </g>
</svg>
