<?xml version="1.0" encoding="UTF-8"?>
<!DOCTYPE svg PUBLIC "-//W3C//DTD SVG 1.1//EN" "http://www.w3.org/Graphics/SVG/1.1/DTD/svg11.dtd">
<svg version="1.1" id="Layer_1" xmlns="http://www.w3.org/2000/svg" xmlns:xlink="http://www.w3.org/1999/xlink" x="0px" y="0px" width="16px" height="16px" viewBox="0 0 16 16" enable-background="new 0 0 16 16" xml:space="preserve">
  <g id="icon">
    <rect x="1" y="3" width="14" height="10" fill-rule="evenodd" fill="#FFFFFF"/>
    <path d="M0,2.8v10.4c0,0.442,0.358,0.8,0.8,0.8h14.4c0.442,0,0.8,-0.358,0.8,-0.8V2.8c0,-0.442,-0.358,-0.8,-0.8,-0.8H0.8C0.358,2,0,2.358,0,2.8zM1,13V3h14v10H1z" fill-rule="evenodd" fill="#6D6E71"/>
    <rect x="2" y="4.5" width="4" height="7" fill-rule="evenodd" fill="#D1D3D4"/>
    <path d="M10.733,5h0.3c0.147,0,0.267,-0.119,0.267,-0.267v-0.467c0,-0.147,-0.119,-0.267,-0.267,-0.267h-0.3c-0.483,0,-0.919,0.198,-1.233,0.516C9.186,4.198,8.449,4,7.967,4h0C7.819,4,7.7,4.119,7.7,4.267v0.467c0,0.147,0.119,0.267,0.267,0.267h0C8.372,5,9,5.328,9,5.733v4.533c0,0.405,-0.628,0.733,-1.033,0.733h0c-0.147,0,-0.267,0.119,-0.267,0.267v0.467c0,0.147,0.119,0.267,0.267,0.267h0c0.483,0,1.219,-0.198,1.533,-0.516c0.314,0.318,0.751,0.516,1.233,0.516h0.3c0.147,0,0.267,-0.119,0.267,-0.267v-0.467c0,-0.147,-0.119,-0.267,-0.267,-0.267h-0.3c-0.405,0,-0.733,-0.328,-0.733,-0.733V5.733C10,5.328,10.328,5,10.733,5z" fill="#58595B"/>
  </g>
</svg>
