<?xml version="1.0" encoding="UTF-8"?>
<!DOCTYPE svg PUBLIC "-//W3C//DTD SVG 1.1//EN" "http://www.w3.org/Graphics/SVG/1.1/DTD/svg11.dtd">
<svg version="1.1" id="Layer_1" xmlns="http://www.w3.org/2000/svg" xmlns:xlink="http://www.w3.org/1999/xlink" x="0px" y="0px" width="16px" height="16px" viewBox="0 0 16 16" enable-background="new 0 0 16 16" xml:space="preserve">
  <g id="main">
    <clipPath id="clip_mask">
      <path d="M7.134,16H0V0h16v8.134c-0.2,-0.086,-0.419,-0.134,-0.65,-0.134h-6.7C7.74,8,7,8.74,7,9.65v1.7c0,0.447,0.178,0.853,0.468,1.15c-0.289,0.297,-0.468,0.703,-0.468,1.15v1.7C7,15.581,7.048,15.8,7.134,16z"/>
    </clipPath>
    <g id="icon" clip-path="url(#clip_mask)">
      <circle cx="7.5" cy="7.5" r="6.938" fill="#FFFFFF"/>
      <path d="M7.5,15c-4.136,0,-7.5,-3.364,-7.5,-7.5S3.364,0,7.5,0s7.5,3.364,7.5,7.5S11.636,15,7.5,15zM7.5,1.125c-3.515,0,-6.375,2.86,-6.375,6.375s2.86,6.375,6.375,6.375s6.375,-2.86,6.375,-6.375S11.015,1.125,7.5,1.125z" fill="#6D6E71"/>
      <circle cx="7.5" cy="7.5" r="3.75" fill="#3E79B4"/>
    </g>
    <g id="overlay">
      <path d="M16,13.65c0,-0.359,-0.291,-0.65,-0.65,-0.65h-6.7c-0.359,0,-0.65,0.291,-0.65,0.65v1.7c0,0.359,0.291,0.65,0.65,0.65h6.7c0.359,0,0.65,-0.291,0.65,-0.65V13.65zM11,15H9v-1h2V15zM16,9.65c0,-0.359,-0.291,-0.65,-0.65,-0.65h-6.7c-0.359,0,-0.65,0.291,-0.65,0.65v1.7c0,0.359,0.291,0.65,0.65,0.65h6.7c0.359,0,0.65,-0.291,0.65,-0.65V9.65zM11,11H9v-1h2V11z" fill="#8E949C"/>
    </g>
  </g>
</svg>
