<?xml version="1.0" encoding="UTF-8"?>
<!DOCTYPE svg PUBLIC "-//W3C//DTD SVG 1.1//EN" "http://www.w3.org/Graphics/SVG/1.1/DTD/svg11.dtd">
<svg version="1.1" id="Layer_1" xmlns="http://www.w3.org/2000/svg" xmlns:xlink="http://www.w3.org/1999/xlink" x="0px" y="0px" width="16px" height="16px" viewBox="0 0 16 16" enable-background="new 0 0 16 16" xml:space="preserve">
  <g id="icon">
    <rect x="1" y="0.5" width="14" height="14.5" fill-rule="evenodd" fill="#FFFFFF"/>
    <path d="M0,0.8v14.4c0,0.442,0.358,0.8,0.8,0.8h14.4c0.442,0,0.8,-0.358,0.8,-0.8V0.8c0,-0.442,-0.358,-0.8,-0.8,-0.8H0.8C0.358,0,0,0.358,0,0.8zM1,15V1h14v14H1z" fill-rule="evenodd" fill="#6D6E71"/>
    <path d="M13.484,5.117l-0.992,-0.992c-0.116,-0.116,-0.294,-0.127,-0.41,-0.011L6.793,9.368l-2.754,-2.79c-0.056,-0.056,-0.128,-0.087,-0.207,-0.087c-0.08,0,-0.151,0.033,-0.208,0.089l-0.947,0.947c-0.116,0.116,-0.119,0.301,-0.004,0.418l2.646,2.655c0.013,0.023,0.039,0.033,0.059,0.052l1.265,1.265c0.058,0.058,0.123,0.099,0.2,0.099c0.076,0,0.146,-0.023,0.205,-0.081l6.46,-6.417c0.056,-0.056,0.076,-0.12,0.076,-0.199C13.583,5.237,13.54,5.173,13.484,5.117z" fill="#3E79B4"/>
  </g>
</svg>
