<?xml version="1.0" encoding="UTF-8"?>
<!DOCTYPE svg PUBLIC "-//W3C//DTD SVG 1.1//EN" "http://www.w3.org/Graphics/SVG/1.1/DTD/svg11.dtd">
<svg version="1.1" id="Layer_1" xmlns="http://www.w3.org/2000/svg" xmlns:xlink="http://www.w3.org/1999/xlink" x="0px" y="0px" width="16px" height="16px" viewBox="0 0 16 16" enable-background="new 0 0 16 16" xml:space="preserve">
  <g id="main">
    <clipPath id="clip_mask">
      <path d="M6,11.5c0,-3.0327,2.4673,-5.5,5.5,-5.5c1.8588,0,3.5039,0.9278,4.5,2.3436V0H0v16h8.3436C6.9278,15.0039,6,13.3588,6,11.5z"/>
    </clipPath>
    <g id="icon" clip-path="url(#clip_mask)">
      <rect x="1" y="2" width="13" height="10" fill-rule="evenodd" fill="#FFFFFF"/>
      <path d="M0,1.8v10.4c0,0.442,0.358,0.8,0.8,0.8h13.4c0.442,0,0.8,-0.358,0.8,-0.8V1.8c0,-0.442,-0.358,-0.8,-0.8,-0.8H0.8C0.358,1,0,1.358,0,1.8zM1,12V2h13v10H1z" fill-rule="evenodd" fill="#6D6E71"/>
      <rect x="2" y="3.5" width="4" height="7" fill-rule="evenodd" fill="#D1D3D4"/>
      <path d="M10.733,4h0.3c0.147,0,0.267,-0.119,0.267,-0.267v-0.467c0,-0.147,-0.119,-0.267,-0.267,-0.267h-0.3c-0.483,0,-0.919,0.198,-1.233,0.516C9.186,3.198,8.449,3,7.967,3h0C7.819,3,7.7,3.119,7.7,3.267v0.467c0,0.147,0.119,0.267,0.267,0.267h0C8.372,4,9,4.328,9,4.733v4.533c0,0.405,-0.628,0.733,-1.033,0.733h0c-0.147,0,-0.267,0.119,-0.267,0.267v0.467c0,0.147,0.119,0.267,0.267,0.267h0c0.483,0,1.219,-0.198,1.533,-0.516c0.314,0.318,0.751,0.516,1.233,0.516h0.3c0.147,0,0.267,-0.119,0.267,-0.267v-0.467c0,-0.147,-0.119,-0.267,-0.267,-0.267h-0.3c-0.405,0,-0.733,-0.328,-0.733,-0.733V4.733C10,4.328,10.328,4,10.733,4z" fill="#58595B"/>
    </g>
    <g id="overlay">
      <path d="M11.5097,7.6964c2.0924,0,3.7886,1.6962,3.7886,3.7886c0,2.0924,-1.6962,3.7886,-3.7886,3.7886c-2.0924,0,-3.7886,-1.6962,-3.7886,-3.7886C7.7211,9.3926,9.4173,7.6964,11.5097,7.6964z" fill-rule="evenodd" fill="#FFFFFF"/>
      <path d="M11.4928,15.9855C9.0155,15.9855,7,13.9701,7,11.4928S9.0155,7,11.4928,7s4.4928,2.0155,4.4928,4.4928S13.9701,15.9855,11.4928,15.9855zM11.4928,8.0401c-1.9038,0,-3.4527,1.5489,-3.4527,3.4527c0,1.9039,1.5489,3.4527,3.4527,3.4527c1.9039,0,3.4527,-1.5489,3.4527,-3.4527C14.9455,9.5889,13.3966,8.0401,11.4928,8.0401z" fill-rule="evenodd" fill="#797979"/>
      <path d="M11.4928,7.1915c-2.3755,0,-4.3013,1.9258,-4.3013,4.3013c0,2.3755,1.9258,4.3013,4.3013,4.3013s4.3013,-1.9258,4.3013,-4.3013C15.7941,9.1172,13.8683,7.1915,11.4928,7.1915zM11.4928,15.137c-2.0126,0,-3.6442,-1.6316,-3.6442,-3.6442c0,-2.0126,1.6316,-3.6442,3.6442,-3.6442s3.6442,1.6316,3.6442,3.6442C15.137,13.5054,13.5054,15.137,11.4928,15.137z" fill-rule="evenodd" fill="#797979"/>
      <path d="M13.4291,13.8025c-0.3332,-0.0001,-1.8552,-1.3305,-2.0595,-1.5366c-0.18,-0.1816,-0.3125,-0.3152,-0.2603,-0.4859c-0.019,-0.098,-0.0215,-0.2161,-0.0211,-0.33c0.0007,-0.2121,0.0422,-0.9361,0.1057,-1.5878c0.1331,-1.3672,0.2504,-1.3672,0.3446,-1.3672c0.0949,0.0005,0.2126,0.0011,0.3202,1.3506c0.053,0.6645,0.0795,1.374,0.0788,1.5681c-0.0003,0.0698,-0.0007,0.1379,-0.0033,0.2005c0.0283,0.0265,0.0579,0.0555,0.0894,0.0873c0.1273,0.1284,0.5385,0.5753,0.9124,1.0266c0.6805,0.8215,0.6658,0.9601,0.5865,1.0388C13.5061,13.7831,13.4765,13.8025,13.4291,13.8025L13.4291,13.8025z" fill-rule="evenodd" fill="#3E79B4"/>
    </g>
  </g>
</svg>
