<?xml version="1.0" encoding="UTF-8"?>
<!DOCTYPE svg PUBLIC "-//W3C//DTD SVG 1.1//EN" "http://www.w3.org/Graphics/SVG/1.1/DTD/svg11.dtd">
<svg version="1.1" id="Layer_1" xmlns="http://www.w3.org/2000/svg" xmlns:xlink="http://www.w3.org/1999/xlink" x="0px" y="0px" width="16px" height="16px" viewBox="0 0 16 16" enable-background="new 0 0 16 16" xml:space="preserve">
  <g id="icon">
    <rect x="1" y="2.5" width="14" height="10.5" fill-rule="evenodd" fill="#FFFFFF"/>
    <path d="M0,2.8v10.4c0,0.442,0.358,0.8,0.8,0.8h14.4c0.442,0,0.8,-0.358,0.8,-0.8V2.8c0,-0.442,-0.358,-0.8,-0.8,-0.8H0.8C0.358,2,0,2.358,0,2.8zM1,13V3h14v10H1z" fill-rule="evenodd" fill="#6D6E71"/>
    <path d="M3.747,8l2.851,-2.851c0.055,-0.055,0.016,-0.149,-0.062,-0.149H5.098c-0.105,0,-0.206,0.042,-0.28,0.116L2.072,7.863c-0.076,0.076,-0.076,0.199,0,0.275l2.747,2.747c0.074,0.074,0.175,0.116,0.28,0.116h1.438c0.078,0,0.117,-0.094,0.062,-0.149L3.747,8z" fill="#3E79B4"/>
    <path d="M12.267,8L9.415,5.149C9.361,5.094,9.399,5,9.477,5h1.438c0.105,0,0.206,0.042,0.28,0.116l2.747,2.747c0.076,0.076,0.076,0.199,0,0.275l-2.747,2.747c-0.074,0.074,-0.175,0.116,-0.28,0.116H9.477c-0.078,0,-0.117,-0.094,-0.062,-0.149L12.267,8z" fill="#3E79B4"/>
  </g>
</svg>
