<?xml version="1.0" encoding="UTF-8"?>
<!DOCTYPE svg PUBLIC "-//W3C//DTD SVG 1.1//EN" "http://www.w3.org/Graphics/SVG/1.1/DTD/svg11.dtd">
<svg version="1.1" id="Layer_1" xmlns="http://www.w3.org/2000/svg" xmlns:xlink="http://www.w3.org/1999/xlink" x="0px" y="0px" width="16px" height="16px" viewBox="0 0 16 16" enable-background="new 0 0 16 16" xml:space="preserve">
  <g id="icon">
    <path d="M2.5,2.5v3.877C3.12,6.134,3.794,6,4.5,6c3.038,0,5.5,2.462,5.5,5.5c0,0.342,-0.033,0.676,-0.092,1H14.8c0.385,0,0.7,-0.315,0.7,-0.7V2.5H2.5z" fill-rule="evenodd" fill="#FFFFFF"/>
    <path d="M2,2v4.602c0.317,-0.162,0.651,-0.294,1,-0.393V3h12v8.8c0,0.108,-0.092,0.2,-0.2,0.2H9.976c-0.031,0.344,-0.094,0.678,-0.185,1H14.8c0.662,0,1.2,-0.538,1.2,-1.2V2H2z" fill="#797979"/>
    <path d="M14.7,0h-0.7l0,0h-2l0,0H6l0,0H4l0,0h-0.7c-0.717,0,-1.3,0.583,-1.3,1.3v1.7h14V1.3C16,0.583,15.417,0,14.7,0z" fill="#3E79B4"/>
    <path d="M7,4v2.602c0.673,0.344,1.266,0.821,1.743,1.398H10v2h-0.209c0.091,0.322,0.154,0.656,0.185,1H14V4H7zM10,7H8V5h2V7zM13,10h-2V8h2V10zM13,7h-2V5h2V7z" fill="#999999"/>
    <path d="M4.51,7.696c2.092,0,3.789,1.696,3.789,3.789c0,2.092,-1.696,3.789,-3.789,3.789c-2.092,0,-3.789,-1.696,-3.789,-3.789C0.721,9.393,2.417,7.696,4.51,7.696z" fill-rule="evenodd" fill="#FFFFFF"/>
    <path d="M4.493,15.986C2.015,15.986,0,13.97,0,11.493S2.015,7,4.493,7s4.493,2.015,4.493,4.493S6.97,15.986,4.493,15.986zM4.493,8.04c-1.904,0,-3.453,1.549,-3.453,3.453c0,1.904,1.549,3.453,3.453,3.453c1.904,0,3.453,-1.549,3.453,-3.453C7.946,9.589,6.397,8.04,4.493,8.04z" fill-rule="evenodd" fill="#797979"/>
    <path d="M4.493,7.191c-2.376,0,-4.301,1.926,-4.301,4.301c0,2.376,1.926,4.301,4.301,4.301s4.301,-1.926,4.301,-4.301C8.794,9.117,6.868,7.191,4.493,7.191zM4.493,15.137c-2.013,0,-3.644,-1.632,-3.644,-3.644c0,-2.013,1.632,-3.644,3.644,-3.644s3.644,1.632,3.644,3.644C8.137,13.505,6.505,15.137,4.493,15.137z" fill-rule="evenodd" fill="#797979"/>
    <path d="M6.429,13.803c-0.333,0,-1.855,-1.331,-2.059,-1.537c-0.18,-0.182,-0.313,-0.315,-0.26,-0.486c-0.019,-0.098,-0.021,-0.216,-0.021,-0.33c0.001,-0.212,0.042,-0.936,0.106,-1.588c0.133,-1.367,0.25,-1.367,0.345,-1.367c0.095,0,0.213,0.001,0.32,1.351c0.053,0.665,0.079,1.374,0.079,1.568c0,0.07,-0.001,0.138,-0.003,0.2c0.028,0.027,0.058,0.056,0.089,0.087c0.127,0.128,0.538,0.575,0.912,1.027c0.681,0.821,0.666,0.96,0.587,1.039C6.506,13.783,6.477,13.803,6.429,13.803L6.429,13.803z" fill-rule="evenodd" fill="#3E79B4"/>
    <path d="M13,7h-2V5h2V7z" fill="#EC5664" opacity="0.5"/>
    <path d="M10,4v4h4V4H10zM13,7h-2V5h2V7z" fill="#CD4C32"/>
  </g>
</svg>
