<?xml version="1.0" encoding="UTF-8"?>
<!DOCTYPE svg PUBLIC "-//W3C//DTD SVG 1.1//EN" "http://www.w3.org/Graphics/SVG/1.1/DTD/svg11.dtd">
<svg version="1.1" id="Layer_1" xmlns="http://www.w3.org/2000/svg" xmlns:xlink="http://www.w3.org/1999/xlink" x="0px" y="0px" width="16px" height="16px" viewBox="0 0 16 16" enable-background="new 0 0 16 16" xml:space="preserve">
  <g id="main">
    <g id="icon">
      <path d="M2.977,1.83L2.7,1.917L2.45,2.054L2.232,2.237L2.052,2.457L1.916,2.71L1.83,2.99L1.8,3.291L1.8,7.138L2.12,6.754L2.572,6.425L3.123,6.189L3.773,6.047L4.521,6L5.274,6.047L5.927,6.189L6.48,6.425L6.934,6.754L7.287,7.177L7.54,7.692L7.692,8.301L7.743,9.002L7.71,9.511L7.613,10.05L7.454,10.59L7.236,11.12L8.38,11.57L8.807,11.81L9.157,12.09L9.239,12.2L13.73,12.2L14.02,12.17L14.3,12.08L14.55,11.95L14.77,11.76L14.95,11.54L15.08,11.29L15.17,11.01L15.2,10.71L15.2,3.291L15.17,2.99L15.08,2.71L14.95,2.457L14.77,2.237L14.55,2.054L14.3,1.917L14.02,1.83L13.73,1.8L3.274,1.8zz" fill="#F1F2F2"/>
      <path d="M2.816,1.047L2.39,1.18L2.004,1.392L1.667,1.672L1.389,2.011L1.179,2.4L1.046,2.83L1,3.291L1,10.71L1.046,11.17L1.11,11.38L1.808,11.11L1.601,10.58L1.446,10.04L1.348,9.511L1.315,9.002L1.365,8.301L1.517,7.692L1.768,7.177L2.12,6.754L2.572,6.425L2.6,6.413L2.6,3.291L2.653,3.022L2.797,2.803L3.012,2.654L3.274,2.6L13.73,2.6L13.99,2.654L14.2,2.803L14.35,3.022L14.4,3.291L14.4,10.71L14.35,10.98L14.2,11.2L13.99,11.35L13.73,11.4L7.945,11.4L8.38,11.57L8.807,11.81L9.157,12.09L9.497,12.54L9.694,13L13.73,13L14.18,12.95L14.61,12.82L15,12.61L15.33,12.33L15.61,11.99L15.82,11.6L15.95,11.17L16,10.71L16,3.291L15.95,2.83L15.82,2.4L15.61,2.011L15.33,1.672L15,1.392L14.61,1.18L14.18,1.047L13.73,1L3.274,1zz" fill="#6D6E71"/>
      <path d="M8.002,5.038L7.922,5.131L7.901,5.253L7.953,5.374L10.3,8.882L10.47,8.964L10.65,8.882L12.99,5.374L13.04,5.253L13.02,5.131L12.94,5.038L12.82,5L8.129,5zz" fill="#797979"/>
      <path d="M6,6.22L6.48,6.425L6.934,6.754L7,6.833L7,2.6L6,2.6zz" fill="#B4B4B5"/>
    </g>
    <g id="overlay">
      <g>
        <path d="M4.5214,7c-1.7985,0,-2.2065,0.7734,-2.2065,2.0015c0,1.228,0.8848,3.2645,2.1967,3.2645c1.3119,0,2.2314,-2.0365,2.2314,-3.2645C6.7429,7.7734,6.3,7,4.5214,7zM4.5249,11.6125c-0.9918,0,-1.6028,-1.5984,-1.6028,-2.5956c0,-0.1151,0.0091,-0.225,0.026,-0.3298c0.0889,-0.1434,0.1791,-0.3074,0.2376,-0.3871c0.5298,0.3234,2.2061,0.306,2.7127,0c0.029,0.1218,0.1165,0.3118,0.2111,0.4405c0.0117,0.0886,0.0179,0.1808,0.0179,0.2764C6.1276,10.0141,5.5167,11.6125,4.5249,11.6125z" fill-rule="evenodd" fill="#3E74AE"/>
        <path d="M5.8985,8.3c-0.5066,0.306,-2.1829,0.3234,-2.7127,0c-0.0585,0.0797,-0.1487,0.2437,-0.2376,0.3871c-0.0169,0.1048,-0.026,0.2147,-0.026,0.3298c0,0.9971,0.611,2.5956,1.6028,2.5956s1.6026,-1.5984,1.6026,-2.5956c0,-0.0956,-0.0062,-0.1878,-0.0179,-0.2764C6.0151,8.6118,5.9276,8.4218,5.8985,8.3z" fill-rule="evenodd" fill="#FFFFFF"/>
        <path d="M8.995,14.8369c-0.2924,-2.1211,-0.0829,-2.0939,-2.5962,-2.941c-0.0749,-0.0344,-0.1341,-0.0615,-0.1824,-0.0811c-0.6317,1.4176,-1.3765,2.1789,-1.7242,2.1789c-0.3477,0,-0.9971,-0.7654,-1.6623,-2.1978c-0.0143,0.0058,-0.1121,0.0464,-0.2548,0.1118c-2.5133,0.8471,-2.2776,0.808,-2.5699,2.9291C-0.175,15.9936,4.4733,16,4.4733,16S9.1751,15.9936,8.995,14.8369z" fill-rule="evenodd" fill="#3E79B4"/>
        <path d="M4.5115,12.2741c-0.4628,0,-0.8726,-0.2529,-1.2094,-0.6341c-0.1997,0.084,-0.3237,0.0959,-0.4572,0.1563c0.6652,1.4324,1.2635,2.197,1.6484,2.197s1.1043,-0.7469,1.7379,-2.1767c-0.1131,-0.0452,-0.2898,-0.0853,-0.5204,-0.1544C5.3723,12.0312,4.9653,12.2741,4.5115,12.2741z" fill-rule="evenodd" fill="#FFFFFF"/>
      </g>
    </g>
  </g>
</svg>
