<?xml version="1.0" encoding="UTF-8"?>
<!DOCTYPE svg PUBLIC "-//W3C//DTD SVG 1.1//EN" "http://www.w3.org/Graphics/SVG/1.1/DTD/svg11.dtd">
<svg version="1.1" id="Layer_1" xmlns="http://www.w3.org/2000/svg" xmlns:xlink="http://www.w3.org/1999/xlink" x="0px" y="0px" width="16px" height="16px" viewBox="0 0 16 16" enable-background="new 0 0 16 16" xml:space="preserve">
  <g id="main">
    <g id="icon">
      <path d="M9.02,1.371L9.359,1.927L9.632,2.522L9.833,3.153L9.89,3.458L9.892,3.458L10.43,3.335L10.83,3.167L10.97,3.529L11.18,3.901L11.21,4.362L11.17,5.025L11.03,5.739L10.8,6.461L10.5,7.148L10.11,7.757L9.656,8.245L9.131,8.57L8.844,8.657L8.541,8.688L8.239,8.657L8.128,8.623L7.996,8.743L7.573,9.059L7.163,9.309L7.369,9.45L7.734,9.627L8.118,9.738L8.519,9.777L8.921,9.738L9.307,9.627L9.674,9.45L10.02,9.214L10.66,8.595L11.2,7.824L11.64,6.957L11.96,6.049L12.17,5.157L12.24,4.336L12.2,3.605L12.08,2.951L11.85,2.381L11.5,1.9L11.01,1.516L10.36,1.233L9.546,1.059L8.738,1.012zz" fill-rule="evenodd" fill="#3E74AE"/>
      <path d="M10.43,3.335L9.892,3.458L9.89,3.458L9.957,3.814L10,4.5L9.971,5.062L9.888,5.607L9.752,6.134L9.567,6.639L9.335,7.12L9.059,7.573L8.743,7.996L8.387,8.387L8.128,8.623L8.239,8.657L8.542,8.687L8.844,8.657L9.131,8.57L9.656,8.245L10.11,7.757L10.5,7.148L10.8,6.461L11.03,5.738L11.17,5.025L11.21,4.362L11.18,3.901L10.97,3.529L10.83,3.167zz" fill-rule="evenodd" fill="#FFFFFF"/>
      <path d="M10.96,9.859L10.55,10.59L10.14,11.21L9.746,11.73L9.373,12.13L9.032,12.42L8.734,12.6L8.487,12.66L8.247,12.6L7.965,12.42L7.648,12.13L7.3,11.72L6.536,10.57L6.113,9.758L5.607,9.888L5.062,9.971L4.5,10L3.814,9.957L3.358,9.871L2.924,10.04L2.224,10.41L1.762,10.82L1.473,11.34L1.294,12.01L1.009,14.06L1.043,14.4L1.242,14.7L1.584,14.96L2.046,15.18L2.603,15.37L3.233,15.52L4.619,15.75L6.02,15.89L7.25,15.97L8.455,16L9.675,15.97L10.92,15.89L12.34,15.75L13.74,15.52L14.38,15.37L14.94,15.18L15.41,14.96L15.75,14.7L15.96,14.4L15.99,14.06L15.7,12L15.51,11.33L15.22,10.81L14.75,10.4L14.04,10.02L13.03,9.631L11.66,9.16L11.36,9.025zz" fill-rule="evenodd" fill="#3E79B4"/>
      <path d="M10.07,9.189L9.591,9.511L9.071,9.717L8.519,9.79L7.958,9.714L7.432,9.5L7.158,9.312L7.12,9.335L6.639,9.567L6.134,9.752L6.129,9.754L6.548,10.57L7.29,11.72L7.63,12.13L7.945,12.42L8.232,12.6L8.489,12.66L8.754,12.6L9.063,12.42L9.409,12.14L9.782,11.74L10.17,11.22L10.58,10.6L10.98,9.868L11.39,9.028L10.52,8.771zz" fill-rule="evenodd" fill="#FFFFFF"/>
    </g>
    <g id="overlay">
      <path d="M8.7375,3.9804L6.326,3.8797c-0.0271,-0.0799,-0.0592,-0.1576,-0.0961,-0.2324l1.6339,-1.7762c0.1025,-0.1025,0.1025,-0.2687,0,-0.3712l-0.3637,-0.3637c-0.1025,-0.1025,-0.2687,-0.1025,-0.3712,0L5.3527,2.7701c-0.0748,-0.037,-0.1525,-0.069,-0.2324,-0.0961L5.0196,0.2625c0,-0.145,-0.1175,-0.2625,-0.2625,-0.2625h-0.5143c-0.145,0,-0.2625,0.1175,-0.2625,0.2625L3.8797,2.674c-0.0799,0.0271,-0.1575,0.0592,-0.2324,0.0961L1.8711,1.1362c-0.1025,-0.1025,-0.2687,-0.1025,-0.3712,0l-0.3637,0.3637c-0.1025,0.1025,-0.1025,0.2687,0,0.3712l1.6339,1.7762c-0.037,0.0748,-0.069,0.1525,-0.0961,0.2324L0.2625,3.9804C0.1175,3.9804,0,4.0979,0,4.2429v0.5143c0,0.145,0.1175,0.2625,0.2625,0.2625l2.4115,0.1007c0.0271,0.0799,0.0592,0.1576,0.0961,0.2324L1.1362,7.1289c-0.1025,0.1025,-0.1025,0.2687,0,0.3712l0.3637,0.3637c0.1025,0.1025,0.2687,0.1025,0.3712,0l1.7762,-1.6339c0.0748,0.037,0.1525,0.069,0.2324,0.0961l0.1007,2.4115c0,0.145,0.1175,0.2625,0.2625,0.2625h0.5143c0.145,0,0.2625,-0.1175,0.2625,-0.2625l0.1007,-2.4115c0.0799,-0.0271,0.1576,-0.0592,0.2324,-0.0961l1.7762,1.6339c0.1025,0.1025,0.2687,0.1025,0.3712,0l0.3637,-0.3637c0.1025,-0.1025,0.1025,-0.2687,0,-0.3712L6.2299,5.3527c0.037,-0.0748,0.069,-0.1525,0.0961,-0.2324l2.4115,-0.1007c0.145,0,0.2625,-0.1175,0.2625,-0.2625v-0.5143C9,4.0979,8.8825,3.9804,8.7375,3.9804zM4.5,5.1c-0.426,0,-0.6,-0.174,-0.6,-0.6c0,-0.426,0.174,-0.6,0.6,-0.6s0.6,0.174,0.6,0.6C5.1,4.926,4.926,5.1,4.5,5.1z" fill-rule="evenodd" fill="#EAB765"/>
    </g>
  </g>
</svg>
