<?xml version="1.0" encoding="UTF-8"?>
<!DOCTYPE svg PUBLIC "-//W3C//DTD SVG 1.1//EN" "http://www.w3.org/Graphics/SVG/1.1/DTD/svg11.dtd">
<svg version="1.1" id="Layer_1" xmlns="http://www.w3.org/2000/svg" xmlns:xlink="http://www.w3.org/1999/xlink" x="0px" y="0px" width="16px" height="16px" viewBox="0 0 16 16" enable-background="new 0 0 16 16" xml:space="preserve">
  <g id="main">
    <g id="icon">
      <path d="M1,12L6,12L6,10.3L6.026,10.04L6.102,9.794L6.381,9.381L6.794,9.102L7.038,9.026L7.3,9L9,9L9,7.3L9.026,7.038L9.102,6.794L9.381,6.381L9.794,6.102L10.04,6.026L10.3,6L12.7,6L12.96,6.026L13.21,6.102L13.62,6.381L13.9,6.794L13.97,7.038L14,7.3L14,2L1,2zz" fill-rule="evenodd" fill="#FFFFFF"/>
      <path d="M0.4885,1.063L0.2342,1.234L0.06289,1.488L0,1.8L0,12.2L0.06289,12.51L0.2342,12.77L0.4885,12.94L0.8,13L6.038,13L6.026,12.96L6,12.7L6,12L1,12L1,2L14,2L14,7.3L14,9L15,9L15,1.8L14.94,1.488L14.77,1.234L14.51,1.063L14.2,1L0.8,1zz" fill-rule="evenodd" fill="#6D6E71"/>
      <path d="M2,10.5L6,10.5L6,10.3L6,3.5L2,3.5zz" fill-rule="evenodd" fill="#D1D3D4"/>
      <path d="M10.38,3.035L10.05,3.138L9.757,3.3L9.5,3.515L9.196,3.301L8.796,3.139L8.366,3.036L7.967,3L7.778,3.078L7.7,3.267L7.7,3.734L7.778,3.923L7.967,4.001L8.299,4.058L8.635,4.215L8.896,4.448L8.972,4.585L9,4.733L9,7.3L9.026,7.038L9.102,6.794L9.381,6.381L9.794,6.102L10,6.038L10,4.733L10.06,4.448L10.21,4.215L10.45,4.058L10.73,4L11.03,4L11.22,3.922L11.3,3.733L11.3,3.266L11.22,3.077L11.03,2.999L10.73,2.999zz" fill="#58595B"/>
    </g>
    <g id="overlay">
      <path d="M15.7,10h-2.7V7.3c0,-0.166,-0.134,-0.3,-0.3,-0.3h-2.4c-0.166,0,-0.3,0.134,-0.3,0.3v2.7H7.3c-0.166,0,-0.3,0.134,-0.3,0.3v2.4c0,0.166,0.134,0.3,0.3,0.3h2.7v2.7c0,0.166,0.134,0.3,0.3,0.3h2.4c0.166,0,0.3,-0.134,0.3,-0.3v-2.7h2.7c0.166,0,0.3,-0.134,0.3,-0.3v-2.4C16,10.134,15.866,10,15.7,10z" fill="#4EA17E"/>
    </g>
  </g>
</svg>
