<?xml version="1.0" encoding="UTF-8"?>
<!DOCTYPE svg PUBLIC "-//W3C//DTD SVG 1.1//EN" "http://www.w3.org/Graphics/SVG/1.1/DTD/svg11.dtd">
<svg version="1.1" id="Layer_1" xmlns="http://www.w3.org/2000/svg" xmlns:xlink="http://www.w3.org/1999/xlink" x="0px" y="0px" width="16px" height="16px" viewBox="0 0 16 16" enable-background="new 0 0 16 16" xml:space="preserve">
  <g id="icon">
    <rect x="1" y="3" width="14" height="10" fill-rule="evenodd" fill="#FFFFFF"/>
    <path d="M0,2.8v10.4c0,0.442,0.358,0.8,0.8,0.8h14.4c0.442,0,0.8,-0.358,0.8,-0.8V2.8c0,-0.442,-0.358,-0.8,-0.8,-0.8H0.8C0.358,2,0,2.358,0,2.8zM1,13V3h14v10H1z" fill-rule="evenodd" fill="#6D6E71"/>
    <path d="M12.733,5h0.3c0.147,0,0.267,-0.119,0.267,-0.267v-0.467c0,-0.147,-0.119,-0.267,-0.267,-0.267h-0.3c-0.483,0,-0.919,0.198,-1.233,0.516C11.186,4.198,10.449,4,9.967,4h0C9.819,4,9.7,4.119,9.7,4.267v0.467c0,0.147,0.119,0.267,0.267,0.267h0c0.405,0,1.033,0.328,1.033,0.733v4.533c0,0.405,-0.628,0.733,-1.033,0.733h0c-0.147,0,-0.267,0.119,-0.267,0.267v0.467c0,0.147,0.119,0.267,0.267,0.267h0c0.483,0,1.219,-0.198,1.533,-0.516c0.314,0.318,0.751,0.516,1.233,0.516h0.3c0.147,0,0.267,-0.119,0.267,-0.267v-0.467c0,-0.147,-0.119,-0.267,-0.267,-0.267h-0.3c-0.405,0,-0.733,-0.328,-0.733,-0.733V5.733C12,5.328,12.328,5,12.733,5z" fill="#58595B"/>
    <path d="M8.002,9.992c0,0.584,0.021,1.156,0.08,1.604c0.016,0.123,-0.073,0.232,-0.188,0.232H6.662c-0.093,0,-0.172,-0.072,-0.188,-0.171l-0.105,-0.676h-0.044C5.904,11.577,5.161,12,4.229,12C2.801,12,2,10.886,2,9.726c0,-1.914,1.588,-2.902,4.21,-2.886v-0.125c0,-0.502,-0.19,-1.333,-1.442,-1.333c-0.699,0,-1.427,0.235,-1.908,0.564l-0.306,-1.099c-0.026,-0.093,0.011,-0.193,0.091,-0.239c0.539,-0.313,1.398,-0.592,2.43,-0.592c2.272,0,2.928,1.553,2.928,3.231V9.992zM6.253,8.095c-1.267,-0.015,-2.476,0.267,-2.476,1.427c0,0.753,0.451,1.098,1.019,1.098c0.728,0,1.238,-0.502,1.413,-1.051c0.043,-0.141,0.043,-0.282,0.043,-0.423V8.095z" fill="#3E79B4"/>
  </g>
</svg>
