<?xml version="1.0" encoding="UTF-8"?>
<!DOCTYPE svg PUBLIC "-//W3C//DTD SVG 1.1//EN" "http://www.w3.org/Graphics/SVG/1.1/DTD/svg11.dtd">
<svg version="1.1" id="Layer_1" xmlns="http://www.w3.org/2000/svg" xmlns:xlink="http://www.w3.org/1999/xlink" x="0px" y="0px" width="16px" height="16px" viewBox="0 0 16 16" enable-background="new 0 0 16 16" xml:space="preserve">
  <g id="main">
    <g id="icon">
      <path d="M2,6.124L2.32,6.074L4.001,6L5.681,6.074L7.05,6.29L7.589,6.451L8.022,6.641L8.358,6.854L8.609,7.083L8.786,7.321L8.898,7.561L8.975,8.022L8.949,8.304L8.872,8.561L8.583,9.001L9,9.091L9,12L15,12L15,2L2,2zz" fill-rule="evenodd" fill="#FFFFFF"/>
      <path d="M1.488,1.063L1.234,1.234L1.063,1.488L1,1.8L1,6.283L2,6.124L2,2L15,2L15,12L9,12L8.999,13L15.2,13L15.51,12.94L15.77,12.77L15.94,12.51L16,12.2L16,1.8L15.94,1.488L15.77,1.234L15.51,1.063L15.2,1L1.8,1zz" fill-rule="evenodd" fill="#6D6E71"/>
      <path d="M3,6.044L4,6L4,3.5L3,3.5zz" fill-rule="evenodd" fill="#D1D3D4"/>
      <path d="M7.381,3.035L7.053,3.138L6.757,3.3L6.5,3.515L6.196,3.301L5.796,3.139L5.366,3.036L4.967,3L4.778,3.078L4.7,3.267L4.7,3.734L4.778,3.923L4.967,4.001L5.299,4.058L5.635,4.215L5.896,4.448L5.972,4.585L6,4.733L6,6.124L7,6.282L7,4.733L7.058,4.448L7.215,4.215L7.448,4.058L7.733,4L8.033,4L8.222,3.922L8.3,3.733L8.3,3.266L8.222,3.077L8.033,2.999L7.733,2.999zz" fill="#58595B"/>
      <path d="M9,9.091L9,12L15,12L15,2L9,2zM13.76,5L13.86,5.037L13.92,5.129L13.93,5.248L13.89,5.366L12.14,8.318L12.01,8.398L11.88,8.318L10.13,5.366L10.09,5.248L10.11,5.129L10.17,5.037L10.26,5zz" fill="#3E79B4"/>
      <path d="M10.17,5.037L10.11,5.129L10.09,5.248L10.13,5.366L11.88,8.318L12.01,8.398L12.14,8.318L13.89,5.366L13.93,5.248L13.92,5.129L13.86,5.037L13.76,5L10.26,5zz" fill="#FFFFFF"/>
    </g>
    <g id="overlay">
      <path d="M4.0006,7c2.2075,0,3.9746,0.3593,3.9746,1.0218C7.9753,8.6843,6.188,9.1,3.9805,9.1C1.7729,9.1,0.0274,8.6843,0.0274,8.0218C0.0274,7.3593,1.7931,7,4.0006,7z" fill-rule="evenodd" fill="#EAB765"/>
      <path d="M4.0021,10C6.008,10,7.7443,9.6551,8,9.0912c0,0.625,-0.0007,4.9493,-0.0007,5.0086c0,1.2159,-1.7911,1.9002,-3.9987,1.9002c-2.2075,0,-3.9971,-0.7465,-3.9971,-1.9002c0,-0.0491,-0.0119,-4.9632,0.008,-5.0086C0.3289,9.6107,1.9269,10,4.0021,10z" fill-rule="evenodd" fill="#EAB765"/>
    </g>
  </g>
</svg>
