<?xml version="1.0" encoding="UTF-8"?>
<!DOCTYPE svg PUBLIC "-//W3C//DTD SVG 1.1//EN" "http://www.w3.org/Graphics/SVG/1.1/DTD/svg11.dtd">
<svg version="1.1" id="Layer_1" xmlns="http://www.w3.org/2000/svg" xmlns:xlink="http://www.w3.org/1999/xlink" x="0px" y="0px" width="16px" height="16px" viewBox="0 0 16 16" enable-background="new 0 0 16 16" xml:space="preserve">
  <g id="main">
    <clipPath id="clip_mask">
      <path d="M6,11.5c0,-3.0327,2.4673,-5.5,5.5,-5.5c1.8588,0,3.5039,0.9278,4.5,2.3436V0H0v16h8.3436C6.9278,15.0039,6,13.3588,6,11.5z"/>
    </clipPath>
    <g id="icon" clip-path="url(#clip_mask)">
      <path d="M1,4v9.8337C1,14.5204,1.6333,15,2.325,15h9.3454c0.6917,0,1.3296,-0.4796,1.3296,-1.1663V4H1zM5,12.3833c0,0.3406,-0.2761,0.6167,-0.6167,0.6167h-0.7667c-0.3406,0,-0.6167,-0.2761,-0.6167,-0.6167V6.6167C3,6.2761,3.2761,6,3.6167,6h0.7667C4.7239,6,5,6.2761,5,6.6167V12.3833zM8,12.3833c0,0.3406,-0.2761,0.6167,-0.6167,0.6167h-0.7667c-0.3406,0,-0.6167,-0.2761,-0.6167,-0.6167V6.6167C6,6.2761,6.2761,6,6.6167,6h0.7667C7.7239,6,8,6.2761,8,6.6167V12.3833zM11,12.3833c0,0.3406,-0.2761,0.6167,-0.6167,0.6167h-0.7667c-0.3406,0,-0.6167,-0.2761,-0.6167,-0.6167V6.6167C9,6.2761,9.2761,6,9.6167,6h0.7667c0.3406,0,0.6167,0.2761,0.6167,0.6167V12.3833z" fill="#797979"/>
      <path d="M13.1718,1H8.7V0.5348C8.7,0.2394,8.3724,0,8.075,0H5.9204C5.6229,0,5.3,0.2394,5.3,0.5348V1H0.8235C0.3661,1,0,1.4377,0,1.8918V3.248C0,3.392,0.1129,3.5,0.2579,3.5h13.4795c0.145,0,0.2626,-0.108,0.2626,-0.252V1.8918C14,1.4377,13.6292,1,13.1718,1z" fill="#3E79B4"/>
      <path d="M4.3833,13.0667h-0.7667c-0.3406,0,-0.6167,-0.2761,-0.6167,-0.6167V6.6167C3,6.2761,3.2761,6,3.6167,6h0.7667C4.7239,6,5,6.2761,5,6.6167V12.45C5,12.7906,4.7239,13.0667,4.3833,13.0667zM8,12.45V6.6167C8,6.2761,7.7239,6,7.3833,6h-0.7667C6.2761,6,6,6.2761,6,6.6167V12.45c0,0.3406,0.2761,0.6167,0.6167,0.6167h0.7667C7.7239,13.0667,8,12.7906,8,12.45zM11,12.45V6.6167c0,-0.3406,-0.2761,-0.6167,-0.6167,-0.6167h-0.7667C9.2761,6,9,6.2761,9,6.6167V12.45c0,0.3406,0.2761,0.6167,0.6167,0.6167h0.7667C10.7239,13.0667,11,12.7906,11,12.45z" fill="#FFFFFF"/>
    </g>
    <g id="overlay">
      <path d="M11.5,7c-2.4853,0,-4.5,2.0147,-4.5,4.5c0,2.4853,2.0147,4.5,4.5,4.5s4.5,-2.0147,4.5,-4.5C16,9.0147,13.9853,7,11.5,7zM13.8335,13.1263l-0.7071,0.7071L11.5,12.2071l-1.6263,1.6263l-0.7071,-0.7071L10.7929,11.5L9.1665,9.8737l0.7071,-0.7071L11.5,10.7929l1.6263,-1.6263l0.7071,0.7071L12.2071,11.5L13.8335,13.1263z" fill-rule="evenodd" fill="#CD4C32"/>
      <polygon points="13.8335,9.8737 13.1263,9.1665 11.5,10.7929 9.8737,9.1665 9.1665,9.8737 10.7929,11.5 9.1665,13.1263 9.8737,13.8335 11.5,12.2071 13.1263,13.8335 13.8335,13.1263 12.2071,11.5" fill-rule="evenodd" fill="#FFFFFF" stroke-linejoin="miter"/>
    </g>
  </g>
</svg>
