<?xml version="1.0" encoding="UTF-8"?>
<!DOCTYPE svg PUBLIC "-//W3C//DTD SVG 1.1//EN" "http://www.w3.org/Graphics/SVG/1.1/DTD/svg11.dtd">
<svg version="1.1" id="Layer_1" xmlns="http://www.w3.org/2000/svg" xmlns:xlink="http://www.w3.org/1999/xlink" x="0px" y="0px" width="16px" height="16px" viewBox="0 0 16 16" enable-background="new 0 0 16 16" xml:space="preserve">
  <g id="icon">
    <path d="M15,15.5H1c-0.2761,0,-0.5,-0.2239,-0.5,-0.5V2.5h15v12.5C15.5,15.2761,15.2761,15.5,15,15.5z" fill="none" stroke="#787878" stroke-width="1" stroke-miterlimit="10"/>
    <path d="M16,4H0V2c0,-0.5523,0.4477,-1,1,-1h14c0.5523,0,1,0.4477,1,1V4z" fill="#787878"/>
    <path d="M9.2451,11.6985L7.5649,10h3.1643c0.1489,0,0.2708,-0.1218,0.2708,-0.2708v-0.5154v-0.5129v-0.439c0,-0.1446,-0.1173,-0.2619,-0.2619,-0.2619H7.5738l1.6176,-1.6991C9.3007,6.1885,9.221,6,9.0642,6H7.6974c-0.2788,0,-0.5456,0.1111,-0.7416,0.3094c-1.0502,1.0625,-2.01,2.0577,-2.4968,2.5504c-0.0793,0.0802,-0.0786,0.2085,0.0014,0.288c0.4861,0.483,1.4893,1.4781,2.5393,2.5421c0.1961,0.1987,0.4631,0.31,0.7422,0.31h1.3765C9.2756,12,9.3551,11.8108,9.2451,11.6985z" fill-rule="evenodd" fill="#787878"/>
    <line x1="4.5" y1="4" x2="4.5" y2="15" fill="none" stroke="#787878" stroke-width="1" stroke-miterlimit="10"/>
  </g>
</svg>
