<?xml version="1.0" encoding="UTF-8"?>
<!DOCTYPE svg PUBLIC "-//W3C//DTD SVG 1.1//EN" "http://www.w3.org/Graphics/SVG/1.1/DTD/svg11.dtd">
<svg version="1.1" id="Layer_1" xmlns="http://www.w3.org/2000/svg" xmlns:xlink="http://www.w3.org/1999/xlink" x="0px" y="0px" width="16px" height="16px" viewBox="0 0 16 16" enable-background="new 0 0 16 16" xml:space="preserve">
  <g id="icon">
    <path d="M15,15.5H1c-0.2761,0,-0.5,-0.2239,-0.5,-0.5V2.5h15v12.5C15.5,15.2761,15.2761,15.5,15,15.5z" fill="#FFFFFF" stroke="#6D6E71" stroke-width="1" stroke-miterlimit="10"/>
    <path d="M16,4H0V2c0,-0.5523,0.4477,-1,1,-1h14c0.5523,0,1,0.4477,1,1V4z" fill="#3E79B4"/>
    <path d="M6.7549,11.6985L8.4351,10H5.2708C5.1218,10,5,9.8782,5,9.7292v-0.5154v-0.5129v-0.439C5,8.1173,5.1173,8,5.2619,8h3.1643L6.8086,6.3009C6.6993,6.1885,6.779,6,6.9358,6h1.3668c0.2788,0,0.5456,0.1111,0.7416,0.3094c1.0502,1.0625,2.01,2.0577,2.4968,2.5504c0.0793,0.0802,0.0786,0.2085,-0.0014,0.288c-0.4861,0.483,-1.4893,1.4781,-2.5393,2.5421c-0.1961,0.1987,-0.4631,0.31,-0.7422,0.31H6.8816C6.7244,12,6.6449,11.8108,6.7549,11.6985z" fill-rule="evenodd" fill="#6D6E71"/>
    <line x1="11.5" y1="4" x2="11.5" y2="15" fill="none" stroke="#797979" stroke-width="1" stroke-miterlimit="10"/>
    <rect x="12" y="4" width="3" height="11" fill="#E6E7E8"/>
  </g>
</svg>
