<?xml version="1.0" encoding="UTF-8"?>
<!DOCTYPE svg PUBLIC "-//W3C//DTD SVG 1.1//EN" "http://www.w3.org/Graphics/SVG/1.1/DTD/svg11.dtd">
<svg version="1.1" id="Layer_1" xmlns="http://www.w3.org/2000/svg" xmlns:xlink="http://www.w3.org/1999/xlink" x="0px" y="0px" width="16px" height="16px" viewBox="0 0 16 16" enable-background="new 0 0 16 16" xml:space="preserve">
  <g id="icon">
    <path d="M7.9959,0.01C3.5854,0.01,0.0101,3.5854,0.0101,7.9959c0,4.4104,3.5754,7.9858,7.9858,7.9858c4.4104,0,7.9858,-3.5754,7.9858,-7.9858C15.9817,3.5854,12.4063,0.01,7.9959,0.01zM10.3442,3.5434c0.4272,0,0.7618,0.6729,0.7618,1.5318s-0.3346,1.5318,-0.7618,1.5318c-0.4271,0,-0.7618,-0.6729,-0.7618,-1.5318S9.9171,3.5434,10.3442,3.5434zM5.6276,3.5434c0.4271,0,0.7618,0.6729,0.7618,1.5318S6.0548,6.607,5.6276,6.607s-0.7618,-0.6729,-0.7618,-1.5318S5.2005,3.5434,5.6276,3.5434zM13.0241,9.3906c-0.472,1.5779,-2.5319,3.2809,-5.0369,3.2809c-2.729,0,-4.5532,-1.764,-4.8841,-3.4238c-0.0163,-0.0817,0.0066,-0.1656,0.0646,-0.2362c0.0679,-0.0827,0.177,-0.1362,0.278,-0.1362c0.0976,0,0.1796,0.048,0.2252,0.1318c0.2652,0.4869,1.3603,2.0754,4.3163,2.0754c1.9462,0,3.4502,-0.6565,4.4703,-1.9514c0.0587,-0.0745,0.1451,-0.1155,0.2432,-0.1155c0.1104,0,0.218,0.0523,0.2806,0.1364C13.0338,9.2226,13.049,9.3072,13.0241,9.3906z" fill="#F2BB6A"/>
    <path d="M10.3442,6.607c-0.4271,0,-0.7618,-0.6729,-0.7618,-1.5318s0.3346,-1.5318,0.7618,-1.5318c0.4272,0,0.7618,0.6729,0.7618,1.5318S10.7714,6.607,10.3442,6.607zM5.6276,6.607c-0.4271,0,-0.7618,-0.6729,-0.7618,-1.5318s0.3346,-1.5318,0.7618,-1.5318s0.7618,0.6729,0.7618,1.5318S6.0548,6.607,5.6276,6.607zM13.0241,9.3906c0.0249,-0.0833,0.0097,-0.168,-0.0428,-0.2385c-0.0626,-0.0841,-0.1702,-0.1364,-0.2806,-0.1364c-0.0981,0,-0.1845,0.041,-0.2432,0.1155c-1.0201,1.2948,-2.5241,1.9514,-4.4703,1.9514c-2.956,0,-4.0511,-1.5886,-4.3163,-2.0754c-0.0456,-0.0837,-0.1277,-0.1318,-0.2252,-0.1318c-0.101,0,-0.2101,0.0535,-0.278,0.1362c-0.0579,0.0706,-0.0809,0.1545,-0.0646,0.2362c0.3309,1.6598,2.1551,3.4238,4.8841,3.4238C10.4921,12.6715,12.5521,10.9685,13.0241,9.3906z" fill-rule="evenodd" fill="#444A54"/>
  </g>
</svg>
