<?xml version="1.0" encoding="UTF-8"?>
<!DOCTYPE svg PUBLIC "-//W3C//DTD SVG 1.1//EN" "http://www.w3.org/Graphics/SVG/1.1/DTD/svg11.dtd">
<svg version="1.1" id="Layer_1" xmlns="http://www.w3.org/2000/svg" xmlns:xlink="http://www.w3.org/1999/xlink" x="0px" y="0px" width="16px" height="16px" viewBox="0 0 16 16" enable-background="new 0 0 16 16" xml:space="preserve">
  <g id="icon">
    <path d="M14.471,1H1.529C0.685,1,0,1.687,0,2.534v8.905c0,0.847,0.685,1.534,1.529,1.534H3.2v2.679c0,0.253,0.272,0.413,0.492,0.288l4.718,-2.968h6.061c0.844,0,1.529,-0.687,1.529,-1.534V2.534C16,1.687,15.315,1,14.471,1zM1.806,9.94c-0.018,0.046,-0.063,0.077,-0.112,0.077h-0.6c-0.085,0,-0.143,-0.085,-0.112,-0.164l2.232,-5.776c0.018,-0.046,0.063,-0.077,0.112,-0.077h0.616c0.085,0,0.143,0.085,0.112,0.164L1.806,9.94zM7.479,7.357c0,0.072,-0.063,0.128,-0.135,0.119l-1.198,-0.151l0.772,0.966c0.046,0.058,0.03,0.143,-0.034,0.18l-0.579,0.33c-0.062,0.036,-0.141,0.009,-0.17,-0.056l-0.493,-1.131l-0.518,1.142c-0.03,0.066,-0.112,0.091,-0.174,0.052l-0.522,-0.33c-0.06,-0.038,-0.074,-0.12,-0.031,-0.176l0.767,-0.985l-1.171,0.158c-0.072,0.01,-0.136,-0.046,-0.136,-0.119v-0.622c0,-0.073,0.064,-0.129,0.136,-0.119l1.158,0.15l-0.753,-0.986c-0.044,-0.058,-0.027,-0.141,0.036,-0.177l0.56,-0.321c0.062,-0.036,0.141,-0.01,0.17,0.056l0.5,1.128l0.492,-1.137c0.029,-0.066,0.109,-0.093,0.171,-0.056l0.55,0.321c0.062,0.036,0.079,0.119,0.035,0.177l-0.763,1.004l1.196,-0.158c0.072,-0.01,0.136,0.047,0.136,0.119V7.357zM11.58,8.472l-0.579,0.33c-0.062,0.036,-0.141,0.009,-0.17,-0.056l-0.493,-1.131L9.82,8.757c-0.03,0.066,-0.112,0.091,-0.174,0.052l-0.522,-0.33c-0.06,-0.038,-0.074,-0.12,-0.031,-0.176l0.767,-0.985L8.69,7.477c-0.072,0.01,-0.136,-0.046,-0.136,-0.119v-0.622c0,-0.073,0.064,-0.129,0.136,-0.119l1.158,0.15l-0.753,-0.986c-0.044,-0.058,-0.027,-0.141,0.036,-0.177l0.56,-0.321c0.062,-0.036,0.141,-0.01,0.17,0.056l0.5,1.128l0.492,-1.137c0.029,-0.066,0.109,-0.093,0.171,-0.056l0.55,0.321c0.062,0.036,0.079,0.119,0.035,0.177l-0.763,1.004l1.196,-0.158c0.072,-0.01,0.136,-0.053,0.136,0.019v0.622c0,0.072,-0.063,0.228,-0.135,0.219l-1.198,-0.151l0.772,0.966C11.66,8.35,11.644,8.435,11.58,8.472zM15.009,4.164L12.761,9.94c-0.018,0.046,-0.063,0.077,-0.112,0.077h-0.6c-0.085,0,-0.143,-0.085,-0.112,-0.164l2.232,-5.776c0.018,-0.046,0.063,-0.077,0.112,-0.077h0.616C14.981,4,15.039,4.085,15.009,4.164z" fill="#529FBF"/>
    <path d="M9.82,8.757l0.518,-1.142l0.493,1.131c0.029,0.066,0.108,0.092,0.17,0.056l0.579,-0.33c0.064,-0.037,0.08,-0.122,0.034,-0.18l-0.772,-0.966l1.198,0.151c0.072,0.009,0.135,-0.147,0.135,-0.219v-0.622c0,-0.073,-0.064,-0.029,-0.136,-0.019l-1.196,0.158l0.763,-1.004c0.044,-0.058,0.027,-0.14,-0.035,-0.177l-0.55,-0.321c-0.062,-0.036,-0.142,-0.01,-0.171,0.056l-0.492,1.137l-0.5,-1.128c-0.029,-0.065,-0.108,-0.091,-0.17,-0.056l-0.56,0.321c-0.063,0.036,-0.08,0.12,-0.036,0.177l0.753,0.986l-1.158,-0.15c-0.072,-0.009,-0.136,0.047,-0.136,0.119v0.622c0,0.073,0.064,0.129,0.136,0.119l1.171,-0.158l-0.767,0.985c-0.044,0.056,-0.029,0.138,0.031,0.176l0.522,0.33C9.708,8.848,9.79,8.823,9.82,8.757zM12.761,9.94l2.248,-5.776c0.031,-0.079,-0.027,-0.164,-0.112,-0.164h-0.616c-0.05,0,-0.094,0.031,-0.112,0.077l-2.232,5.776c-0.03,0.079,0.028,0.164,0.112,0.164h0.6C12.698,10.017,12.743,9.986,12.761,9.94zM5.124,8.757l0.518,-1.142l0.493,1.131c0.029,0.066,0.108,0.092,0.17,0.056l0.579,-0.33c0.064,-0.037,0.08,-0.122,0.034,-0.18l-0.772,-0.966l1.198,0.151c0.072,0.009,0.135,-0.047,0.135,-0.119v-0.622c0,-0.073,-0.064,-0.129,-0.136,-0.119l-1.196,0.158l0.763,-1.004c0.044,-0.058,0.027,-0.14,-0.035,-0.177l-0.55,-0.321c-0.062,-0.036,-0.142,-0.01,-0.171,0.056l-0.492,1.137l-0.5,-1.128c-0.029,-0.065,-0.108,-0.091,-0.17,-0.056l-0.56,0.321c-0.063,0.036,-0.08,0.12,-0.036,0.177l0.753,0.986l-1.158,-0.15c-0.072,-0.009,-0.136,0.047,-0.136,0.119v0.622c0,0.073,0.064,0.129,0.136,0.119l1.171,-0.158l-0.767,0.985c-0.044,0.056,-0.029,0.138,0.031,0.176l0.522,0.33C5.012,8.848,5.094,8.823,5.124,8.757zM1.806,9.94l2.248,-5.776c0.031,-0.079,-0.027,-0.164,-0.112,-0.164h-0.616c-0.05,0,-0.094,0.031,-0.112,0.077L0.982,9.853c-0.03,0.079,0.028,0.164,0.112,0.164h0.6C1.744,10.017,1.788,9.986,1.806,9.94z" fill="#FFFFFF"/>
  </g>
</svg>
