<?xml version="1.0" encoding="UTF-8"?>
<!DOCTYPE svg PUBLIC "-//W3C//DTD SVG 1.1//EN" "http://www.w3.org/Graphics/SVG/1.1/DTD/svg11.dtd">
<svg version="1.1" id="Layer_1" xmlns="http://www.w3.org/2000/svg" xmlns:xlink="http://www.w3.org/1999/xlink" x="0px" y="0px" width="16px" height="16px" viewBox="0 0 16 16" enable-background="new 0 0 16 16" xml:space="preserve">
  <g id="main">
    <clipPath id="clip_mask">
      <path d="M6,11.5c0,-3.0327,2.4673,-5.5,5.5,-5.5c1.8588,0,3.5039,0.9278,4.5,2.3436V0H0v16h8.3436C6.9278,15.0039,6,13.3588,6,11.5z"/>
    </clipPath>
    <g id="icon" clip-path="url(#clip_mask)">
      <path d="M12.9,14.5H2.1c-0.3314,0,-0.6,-0.2686,-0.6,-0.6V1.1c0,-0.3314,0.2686,-0.6,0.6,-0.6c0,0,6.55,0,7.0167,0s0.7328,0.1495,0.9248,0.3414s2.717,2.717,3.0336,3.0336c0.3166,0.3166,0.425,0.575,0.425,1.0416S13.5,13.9,13.5,13.9C13.5,14.2314,13.2314,14.5,12.9,14.5z" fill-rule="evenodd" fill="#FFFFFF" stroke="#6D6E71" stroke-width="1" stroke-miterlimit="1"/>
      <path d="M13.2,5H9.9614c-0.0574,0,-0.1125,-0.0097,-0.1639,-0.0275C9.399,4.8674,9,4.473,9,4V1h1v2.9646c0.0116,0.0122,0.0296,0.0263,0.0454,0.0354H13.2V5z" fill="#6D6E71"/>
    </g>
    <g id="overlay">
      <path d="M8.318,14.682c1.7574,1.7574,4.6066,1.7574,6.364,0c1.7574,-1.7574,1.7574,-4.6066,0,-6.364s-4.6066,-1.7574,-6.364,0C6.5607,10.0754,6.5607,12.9246,8.318,14.682zM9.5,11.6l1.6,-1.6H9.5V9h4v1h-1.6l1.6,1.6v1.6l-1.5,-1.5v2.8h-1v-2.8l-1.5,1.5V11.6z" fill-rule="evenodd" fill="#8C53A1"/>
    </g>
  </g>
</svg>
