<?xml version="1.0" encoding="UTF-8"?>
<!DOCTYPE svg PUBLIC "-//W3C//DTD SVG 1.1//EN" "http://www.w3.org/Graphics/SVG/1.1/DTD/svg11.dtd">
<svg version="1.1" id="Layer_1" xmlns="http://www.w3.org/2000/svg" xmlns:xlink="http://www.w3.org/1999/xlink" x="0px" y="0px" width="16px" height="16px" viewBox="0 0 16 16" enable-background="new 0 0 16 16" xml:space="preserve">
  <g id="main">
    <g id="icon">
      <path d="M1,10.48L2.085,9.372L2.107,9.351L2.508,9.09L2.978,9L4.9,9L5.227,9.049L5.52,9.187L5.76,9.404L5.931,9.688L6.012,10L5.998,10.32L5.894,10.62L5.704,10.88L5.584,11L7.744,11L7.996,11.03L8.232,11.1L8.632,11.38L8.901,11.78L8.974,12.02L9,12.27L9,13.78L8.977,14L15,14L15.39,13.92L15.71,13.71L15.92,13.39L16,13L16,4L1,4zz" fill-rule="evenodd" fill="#E9B664"/>
      <path d="M1.611,0.07852L1.293,0.293L1.079,0.6107L1,1L1,3L16,3L15.92,2.611L15.71,2.293L15.39,2.079L15,2L9.6,2L9.286,1.969L8.988,1.878L8.712,1.731L8.469,1.531L7.406,0.4686L7.162,0.2688L6.887,0.1219L6.588,0.03105L6.274,0L2,0zz" fill-rule="evenodd" fill="#96762C"/>
    </g>
    <g id="overlay">
      <path d="M2.7712,15.9301c0.0478,0.0451,0.111,0.0701,0.1767,0.0699l1.9354,-0.0006c0.1039,-0.0003,0.1557,-0.1259,0.0823,-0.1994l-1.7219,-1.8H7.735c0.1416,0,0.265,-0.0833,0.265,-0.2249v-0.5601v-0.502v-0.4391c0,-0.1416,-0.1148,-0.2563,-0.2563,-0.2563H3.2524l1.7304,-1.8185c0.0732,-0.0737,0.0209,-0.1991,-0.0829,-0.1991H2.9776c-0.0662,0,-0.1299,0.0256,-0.1776,0.0715c0,0,-1.9735,2.0193,-2.7414,2.7965c-0.0786,0.0795,-0.078,0.204,0.0013,0.2828C0.8265,13.9127,2.7712,15.9301,2.7712,15.9301z" fill-rule="evenodd" fill="#3E78B3"/>
    </g>
  </g>
</svg>
