<?xml version="1.0" encoding="UTF-8"?>
<!DOCTYPE svg PUBLIC "-//W3C//DTD SVG 1.1//EN" "http://www.w3.org/Graphics/SVG/1.1/DTD/svg11.dtd">
<svg version="1.1" id="Layer_1" xmlns="http://www.w3.org/2000/svg" xmlns:xlink="http://www.w3.org/1999/xlink" x="0px" y="0px" width="16px" height="16px" viewBox="0 0 16 16" enable-background="new 0 0 16 16" xml:space="preserve">
  <g id="main">
    <g id="icon">
      <path d="M2.611,0.07852L2.293,0.293L2.079,0.6107L2,1L2,5L15,5L15,2.9L14.93,2.55L14.74,2.264L14.45,2.071L14.1,2L9.526,2L9.212,1.969L8.913,1.878L8.638,1.731L8.394,1.531L7.331,0.4686L7.088,0.2688L6.812,0.1219L6.514,0.03105L6.2,0L3,0zz" fill-rule="evenodd" fill="#96762C"/>
      <path d="M1.611,6.079L1.293,6.293L1.079,6.611L1,7L1.496,9.974L2.085,9.372L2.107,9.351L2.508,9.09L2.978,9L4.9,9L5.227,9.049L5.52,9.187L5.76,9.404L5.931,9.688L6.012,10L5.998,10.32L5.894,10.62L5.704,10.88L5.584,11L7.744,11L7.996,11.03L8.232,11.1L8.632,11.38L8.901,11.78L8.974,12.02L9,12.27L9,13.78L8.977,14L14,14L14.39,13.92L14.71,13.71L14.92,13.39L15,13L16,7L15.92,6.611L15.71,6.293L15.39,6.079L15,6L2,6zz" fill-rule="evenodd" fill="#E9B664"/>
    </g>
    <g id="overlay">
      <path d="M2.7712,15.9301c0.0478,0.0451,0.111,0.0701,0.1767,0.0699l1.9354,-0.0006c0.1039,-0.0003,0.1557,-0.1259,0.0823,-0.1994l-1.7219,-1.8H7.735c0.1416,0,0.265,-0.0833,0.265,-0.2249v-0.5601v-0.502v-0.4391c0,-0.1416,-0.1148,-0.2563,-0.2563,-0.2563H3.2524l1.7304,-1.8185c0.0732,-0.0737,0.0209,-0.1991,-0.0829,-0.1991H2.9776c-0.0662,0,-0.1299,0.0256,-0.1776,0.0715c0,0,-1.9735,2.0193,-2.7414,2.7965c-0.0786,0.0795,-0.078,0.204,0.0013,0.2828C0.8265,13.9127,2.7712,15.9301,2.7712,15.9301z" fill-rule="evenodd" fill="#3E78B3"/>
    </g>
  </g>
</svg>
