<?xml version="1.0" encoding="UTF-8"?>
<!DOCTYPE svg PUBLIC "-//W3C//DTD SVG 1.1//EN" "http://www.w3.org/Graphics/SVG/1.1/DTD/svg11.dtd">
<svg version="1.1" id="Layer_1" xmlns="http://www.w3.org/2000/svg" xmlns:xlink="http://www.w3.org/1999/xlink" x="0px" y="0px" width="16px" height="16px" viewBox="0 0 16 16" enable-background="new 0 0 16 16" xml:space="preserve">
  <g id="icon">
    <path d="M7.9821,0.4743c-4.1574,0,-7.5277,3.3703,-7.5277,7.5277c0,4.1574,3.3703,7.5277,7.5277,7.5277s7.5277,-3.3703,7.5277,-7.5277C15.5098,3.8446,12.1395,0.4743,7.9821,0.4743zM7.9821,11.5052c-1.9347,0,-3.5032,-1.5684,-3.5032,-3.5032s1.5684,-3.5032,3.5032,-3.5032s3.5032,1.5684,3.5032,3.5032S9.9168,11.5052,7.9821,11.5052z" fill-rule="evenodd" fill="#FFFFFF" stroke="#797979" stroke-width="1" stroke-miterlimit="1"/>
    <path d="M6.2631,5.3214L5.375,0.5593c0,-0.0902,0.0541,-0.1633,0.1624,-0.1633c1.8466,-0.5478,3.1988,-0.5479,4.7847,-0.0544c0.1515,0.0762,0.1624,0.0731,0.1624,0.1633l-0.8082,4.823c-0.5172,-0.2555,-1.0984,-0.3994,-1.7129,-0.3994C7.3539,4.9285,6.7771,5.0698,6.2631,5.3214zM4.9726,7.9578c0,-0.6077,0.1364,-1.1831,0.3795,-1.6972L0.5354,5.4448c-0.0897,0,-0.0866,0.0109,-0.1624,0.1633c-0.4908,1.5945,-0.4907,2.9541,0.0541,4.8107c0,0.1088,0.0727,0.1633,0.1624,0.1633l4.775,-0.9009C5.1137,9.1604,4.9726,8.5758,4.9726,7.9578zM15.5398,5.5488c0,-0.1088,-0.0727,-0.1633,-0.1624,-0.1633l-4.7364,0.9043c0.2346,0.5067,0.3664,1.0717,0.3664,1.668c0,0.6234,-0.1438,1.2127,-0.3988,1.7367l4.823,0.8282c0.0897,0,0.0866,-0.0109,0.1624,-0.1633C16.0848,8.765,16.0847,7.4054,15.5398,5.5488zM7.9634,11.0404c-0.5963,0,-1.1611,-0.1356,-1.6666,-0.377l-0.8143,4.7992c0,0.0902,0.0108,0.0871,0.1624,0.1633c1.5859,0.4935,2.9382,0.4934,4.7847,-0.0544c0.1082,0,0.1624,-0.0731,0.1624,-0.1633l-0.903,-4.7737C9.1685,10.894,8.583,11.0404,7.9634,11.0404z" fill="#CD4C32"/>
  </g>
</svg>
