<?xml version="1.0" encoding="UTF-8"?>
<!DOCTYPE svg PUBLIC "-//W3C//DTD SVG 1.1//EN" "http://www.w3.org/Graphics/SVG/1.1/DTD/svg11.dtd">
<svg version="1.1" id="Layer_1" xmlns="http://www.w3.org/2000/svg" xmlns:xlink="http://www.w3.org/1999/xlink" x="0px" y="0px" width="16px" height="16px" viewBox="0 0 16 16" enable-background="new 0 0 16 16" xml:space="preserve">
  <g id="icon">
    <path d="M8.0168,0.3094c4.2382,0,7.6739,3.4357,7.6739,7.6739c0,4.2382,-3.4357,7.6739,-7.6739,7.6739c-4.2382,0,-7.6739,-3.4357,-7.6739,-7.6739C0.3429,3.7451,3.7786,0.3094,8.0168,0.3094z" fill-rule="evenodd" fill="#FFFFFF"/>
    <path d="M8.0902,7.8442c-0.0339,-1.1914,-0.2387,-5.0521,-0.5992,-5.0535c-0.3985,-0.0016,-0.7013,4.7774,-0.7038,5.3925c-0.0016,0.4083,0.0282,0.6693,0.2282,0.7995c0.1251,0.1778,0.396,0.1911,0.9182,0.1932c0.8036,0.0032,4.9483,-0.224,4.9499,-0.6226C12.8852,8.1591,8.9525,7.8539,8.0902,7.8442z" fill-rule="evenodd" fill="#797979"/>
    <path d="M8.0906,0.0005C5.3189,-0.0302,2.8678,1.3492,1.409,3.4654l1.4124,0.9717C3.9621,2.7823,5.8749,1.701,8.0399,1.7144c3.4047,0.0211,6.1975,2.791,6.2452,6.1955c0.0492,3.5128,-2.7836,6.3758,-6.2851,6.3758c-3.4715,0,-6.2857,-2.8142,-6.2857,-6.2857c0,-0.1503,0.0054,-0.2992,0.0158,-0.4468c0.0087,-0.1231,-0.0807,-0.231,-0.2034,-0.2441L0.2761,7.1755c-0.1284,-0.0137,-0.2428,0.0815,-0.2526,0.2102C0.008,7.5885,0,7.7933,0,8c0,4.4183,3.5817,8,8,8c4.4375,0,8.0311,-3.6129,7.9998,-8.0577C15.9692,3.5999,12.4329,0.0486,8.0906,0.0005z" fill="#4EA17E"/>
    <path d="M2.5143,3.7887l3.2779,-0.0057c0.1518,-0.0003,0.221,0.1893,0.1046,0.2868l-1.1849,0.9929c-0.0617,0.0517,-0.1397,0.0801,-0.2202,0.0801H0.8c-0.1262,0,-0.2286,-0.1023,-0.2286,-0.2286V1.2998c0,-0.0976,0.0416,-0.1906,0.1143,-0.2556l0.9865,-0.882c0.1046,-0.0935,0.2705,-0.0193,0.2705,0.121v2.8596" fill="#4EA17E"/>
  </g>
</svg>
