<?xml version="1.0" encoding="UTF-8"?>
<!DOCTYPE svg PUBLIC "-//W3C//DTD SVG 1.1//EN" "http://www.w3.org/Graphics/SVG/1.1/DTD/svg11.dtd">
<svg version="1.1" id="Layer_1" xmlns="http://www.w3.org/2000/svg" xmlns:xlink="http://www.w3.org/1999/xlink" x="0px" y="0px" width="16px" height="16px" viewBox="0 0 16 16" enable-background="new 0 0 16 16" xml:space="preserve">
  <g id="icon">
    <path d="M11.7527,9.506H6.4959L2.8984,12.1l0,-2.594H1.2392C0.8326,9.506,0.5,9.1734,0.5,8.7669V1.2392C0.5,0.8326,0.8326,0.5,1.2392,0.5h10.5135c0.4065,0,0.7392,0.3326,0.7392,0.7392v7.5277C12.4918,9.1734,12.1592,9.506,11.7527,9.506z" fill-rule="evenodd" fill="#FFFFFF" stroke="#3E79B4" stroke-width="1" stroke-miterlimit="1" stroke-linejoin="round"/>
    <path d="M4.0976,5.0171c0,0.5298,-0.3016,0.9593,-0.9593,0.9593c-0.5298,0,-0.9593,-0.4295,-0.9593,-0.9593s0.4295,-0.9593,0.9593,-0.9593S4.0976,4.4872,4.0976,5.0171z" fill-rule="evenodd" fill="#3E79B4"/>
    <path d="M7.4553,5.0171c0,0.5298,-0.3016,0.9593,-0.9593,0.9593c-0.5298,0,-0.9593,-0.4295,-0.9593,-0.9593s0.4295,-0.9593,0.9593,-0.9593S7.4553,4.4872,7.4553,5.0171z" fill-rule="evenodd" fill="#3E79B4"/>
    <path d="M10.813,5.0171c0,0.5298,-0.3016,0.9593,-0.9593,0.9593c-0.5298,0,-0.9593,-0.4295,-0.9593,-0.9593s0.4295,-0.9593,0.9593,-0.9593S10.813,4.4872,10.813,5.0171z" fill-rule="evenodd" fill="#3E79B4"/>
    <path d="M14.4738,2.7149h-0.409v6.5827c0,0.9617,-0.7796,1.7413,-1.7413,1.7413H6.8l-1.6718,1.1602c-0.1319,0.0739,-0.0795,0.275,0.0718,0.275h3.4371L12.6296,15l0,-2.5259h1.837c0.5683,0,1.0333,-0.465,1.0333,-1.0333V3.741C15.5,3.1767,15.0382,2.7149,14.4738,2.7149z" fill-rule="evenodd" fill="#FFFFFF"/>
    <path d="M5.4,12.5h3.2371L12.6,15v-2.5h1.8738c0.5644,0,1.0262,-0.4949,1.0262,-1.0592V3.741c0,-0.5644,-0.4618,-1.041,-1.0262,-1.041H14.1" fill-rule="evenodd" fill="none" stroke="#A7A9AC" stroke-width="1" stroke-linecap="round" stroke-miterlimit="1" stroke-linejoin="round"/>
  </g>
</svg>
