<?xml version="1.0" encoding="UTF-8"?>
<!DOCTYPE svg PUBLIC "-//W3C//DTD SVG 1.1//EN" "http://www.w3.org/Graphics/SVG/1.1/DTD/svg11.dtd">
<svg version="1.1" id="Layer_1" xmlns="http://www.w3.org/2000/svg" xmlns:xlink="http://www.w3.org/1999/xlink" x="0px" y="0px" width="16px" height="16px" viewBox="0 0 16 16" enable-background="new 0 0 16 16" xml:space="preserve">
  <g id="main">
    <clipPath id="clip_mask">
      <path d="M6,11.5c0,-3.033,2.467,-5.5,5.5,-5.5c1.859,0,3.504,0.928,4.5,2.344V0H0v16h8.344C6.928,15.004,6,13.359,6,11.5z"/>
    </clipPath>
    <g id="icon" clip-path="url(#clip_mask)">
      <path d="M10.693,7.601c0.733,-0.028,1.44,-0.131,2.051,-0.568c0.127,-0.091,0.128,-0.282,0,-0.371c-0.416,-0.287,-0.561,-0.744,-0.639,-1.218c-0.083,-0.505,-0.109,-1.023,-0.117,-1.535c-0.011,-0.739,-0.047,-1.467,-0.286,-2.177c-0.439,-1.309,-1.693,-1.78,-2.681,-1.706c-0.344,0.026,-0.657,0.163,-0.931,0.385c-0.068,0.055,-0.167,0.108,-0.25,0.105c-0.829,-0.026,-1.324,0.464,-1.589,1.112c-0.061,0.15,-0.111,0.304,-0.152,0.459c2.451,0.073,3.643,1.299,3.643,3.742c0,0.99,-0.335,2.451,-1.059,3.64c0.157,0.056,0.306,0.108,0.448,0.158c1.95,0.687,2.89,1.019,3.335,2.386c0.974,-0.007,2.516,-0.067,2.516,-0.575C14.983,7.933,11.284,9.267,10.693,7.601z" fill="#8C53A1"/>
      <path d="M11.7,12.788c-0.295,-1.51,-0.819,-1.536,-3.684,-2.564c-0.418,-0.16,-0.536,-0.389,-0.505,-0.717c0.808,-0.982,1.295,-2.569,1.295,-3.679c0,-1.719,-0.577,-2.808,-2.942,-2.808c-0.01,0,0.003,0,0,0c-2.365,0,-2.895,1.089,-2.895,2.808c0,1.11,0.485,2.695,1.293,3.676c0.031,0.328,-0.088,0.559,-0.506,0.719C0.891,11.25,0.366,11.276,0.072,12.787c-0.089,0.607,-0.103,0.862,0.132,1.534c0.265,0.757,4.017,0.658,5.659,0.658c0.007,0,-0.011,0,0,0c1.642,0,5.438,0.099,5.703,-0.658C11.803,13.649,11.788,13.395,11.7,12.788z" fill-rule="evenodd" fill="#3E79B4"/>
    </g>
    <g id="overlay">
      <path d="M 14.683 8.327 c -1.755 -1.755 -4.601 -1.755 -6.357 0 c -1.755 1.755 -1.755 4.601 0 6.357 s 4.601 1.755 6.357 0 S 16.439 10.082 14.683 8.327 z z" fill="#CD4C32"/>
    </g>
  </g>
</svg>
