<?xml version="1.0" encoding="UTF-8"?>
<!DOCTYPE svg PUBLIC "-//W3C//DTD SVG 1.1//EN" "http://www.w3.org/Graphics/SVG/1.1/DTD/svg11.dtd">
<svg version="1.1" id="Layer_1" xmlns="http://www.w3.org/2000/svg" xmlns:xlink="http://www.w3.org/1999/xlink" x="0px" y="0px" width="16px" height="16px" viewBox="0 0 16 16" enable-background="new 0 0 16 16" xml:space="preserve">
  <g id="icon">
    <path d="M11.407,8.107c0.782,-0.03,1.536,-0.14,2.188,-0.606c0.136,-0.097,0.137,-0.301,-0.001,-0.396c-0.444,-0.306,-0.598,-0.793,-0.682,-1.3c-0.089,-0.538,-0.117,-1.091,-0.125,-1.638c-0.012,-0.788,-0.051,-1.565,-0.305,-2.323c-0.468,-1.397,-1.806,-1.899,-2.86,-1.82c-0.367,0.027,-0.701,0.174,-0.993,0.411c-0.073,0.059,-0.178,0.115,-0.266,0.112c-0.884,-0.028,-1.413,0.495,-1.695,1.187c-0.066,0.16,-0.118,0.324,-0.162,0.49c2.614,0.078,3.886,1.386,3.886,3.992c0,1.057,-0.357,2.615,-1.13,3.883c0.168,0.059,0.327,0.116,0.478,0.169c2.08,0.733,3.083,1.087,3.558,2.546c1.039,-0.007,2.684,-0.071,2.684,-0.613C15.983,8.461,12.037,9.885,11.407,8.107z" fill="#8C53A1"/>
    <path d="M12.48,13.641c-0.314,-1.611,-0.873,-1.638,-3.93,-2.735c-0.446,-0.17,-0.572,-0.415,-0.539,-0.765C8.874,9.094,9.393,7.4,9.393,6.216c0,-1.834,-0.616,-2.995,-3.139,-2.995c-0.01,0,0.003,0,0,0c-2.523,0,-3.088,1.162,-3.088,2.995c0,1.184,0.517,2.875,1.38,3.922c0.033,0.35,-0.094,0.596,-0.54,0.767C0.95,12.001,0.39,12.028,0.076,13.64c-0.094,0.648,-0.11,0.919,0.141,1.637c0.283,0.808,4.285,0.702,6.037,0.702c0.007,0,-0.012,0,0,0c1.752,0,5.801,0.106,6.084,-0.702C12.59,14.559,12.575,14.288,12.48,13.641z" fill-rule="evenodd" fill="#3E79B4"/>
  </g>
</svg>
