<?xml version="1.0" encoding="UTF-8"?>
<!DOCTYPE svg PUBLIC "-//W3C//DTD SVG 1.1//EN" "http://www.w3.org/Graphics/SVG/1.1/DTD/svg11.dtd">
<svg version="1.1" id="Layer_1" xmlns="http://www.w3.org/2000/svg" xmlns:xlink="http://www.w3.org/1999/xlink" x="0px" y="0px" width="16px" height="16px" viewBox="0 0 16 16" enable-background="new 0 0 16 16" xml:space="preserve">
  <g id="icon">
    <path d="M15.919,13.07c-0.401,-2.021,-1.114,-2.055,-5.012,-3.43c-0.569,-0.214,-0.73,-0.521,-0.687,-0.96c1.1,-1.313,1.762,-3.438,1.762,-4.923c0,-2.3,-0.786,-3.757,-4.003,-3.757c-0.013,0,0.004,0,0,0C4.76,0,4.04,1.457,4.04,3.757c0,1.485,0.66,3.606,1.76,4.919c0.043,0.439,-0.119,0.748,-0.689,0.962c-3.899,1.375,-4.612,1.41,-5.013,3.431c-0.121,0.812,-0.141,1.153,0.18,2.053c0.361,1.013,5.466,0.881,7.7,0.881c0.009,0,-0.015,0,0,0c2.234,0,7.399,0.133,7.76,-0.88C16.059,14.222,16.04,13.882,15.919,13.07z" fill-rule="evenodd" fill="#3E79B4"/>
  </g>
</svg>
