<?xml version="1.0" encoding="UTF-8"?>
<!DOCTYPE svg PUBLIC "-//W3C//DTD SVG 1.1//EN" "http://www.w3.org/Graphics/SVG/1.1/DTD/svg11.dtd">
<svg version="1.1" id="Layer_1" xmlns="http://www.w3.org/2000/svg" xmlns:xlink="http://www.w3.org/1999/xlink" x="0px" y="0px" width="16px" height="16px" viewBox="0 0 16 16" enable-background="new 0 0 16 16" xml:space="preserve">
  <g id="icon">
    <path d="M8,0C3.5817,0,0,3.5817,0,8c0,4.4183,3.5817,8,8,8s8,-3.5817,8,-8C16,3.5817,12.4183,0,8,0zM13,8.65c0,0.1933,-0.1567,0.35,-0.35,0.35h-9.3c-0.1933,0,-0.35,-0.1567,-0.35,-0.35v-1.3c0,-0.1933,0.1567,-0.35,0.35,-0.35h9.3c0.1933,0,0.35,0.1567,0.35,0.35V8.65z" fill-rule="evenodd" fill="#CD4C32"/>
    <path d="M12.65,9h-9.3c-0.1933,0,-0.35,-0.1567,-0.35,-0.35v-1.3c0,-0.1933,0.1567,-0.35,0.35,-0.35h9.3c0.1933,0,0.35,0.1567,0.35,0.35v1.3C13,8.8433,12.8433,9,12.65,9z" fill-rule="evenodd" fill="#FFFFFF"/>
  </g>
</svg>
