<?xml version="1.0" encoding="utf-8"?>
<!-- Generator: Adobe Illustrator 19.0.0, SVG Export Plug-In . SVG Version: 6.00 Build 0)  -->
<svg version="1.1" id="Layer_1" xmlns="http://www.w3.org/2000/svg" xmlns:xlink="http://www.w3.org/1999/xlink" x="0px" y="0px"
	 viewBox="-289 412.9 16 16" style="enable-background:new -289 412.9 16 16;" xml:space="preserve">
<style type="text/css">
	.st0{fill:#B4B4B4;}
	.st1{fill:#FFFFFF;}
</style>
<g id="icon">
	<path class="st0" d="M-280.8,412.9c-4.5-0.1-8.2,3.6-8.2,8.2c0.1,4.3,3.6,7.8,7.8,7.8c4.5,0.1,8.2-3.6,8.2-8.2
		C-273.1,416.5-276.6,413-280.8,412.9z M-276.6,423.7c0.2,0.2,0.2,0.4,0,0.6l-1,1c-0.2,0.2-0.4,0.2-0.6,0l-2.8-2.8l-2.8,2.8
		c-0.2,0.2-0.4,0.2-0.6,0l-1-1c-0.2-0.2-0.2-0.4,0-0.6l2.8-2.8l-2.8-2.8c-0.2-0.2-0.2-0.4,0-0.6l1-1c0.2-0.2,0.4-0.2,0.6,0l2.8,2.8
		l2.8-2.8c0.2-0.2,0.4-0.2,0.6,0l1,1c0.2,0.2,0.2,0.4,0,0.6l-2.8,2.8L-276.6,423.7z"/>
	<path class="st1" d="M-278.2,416.5l-2.8,2.8l-2.8-2.8c-0.2-0.2-0.4-0.2-0.6,0l-1,1c-0.2,0.2-0.2,0.4,0,0.6l2.8,2.8l-2.8,2.8
		c-0.2,0.2-0.2,0.4,0,0.6l1,1c0.2,0.2,0.4,0.2,0.6,0l2.8-2.8l2.8,2.8c0.2,0.2,0.4,0.2,0.6,0l1-1c0.2-0.2,0.2-0.4,0-0.6l-2.8-2.8
		l2.8-2.8c0.2-0.2,0.2-0.4,0-0.6l-1-1C-277.8,416.4-278,416.4-278.2,416.5z"/>
</g>
</svg>
