<?xml version="1.0" encoding="utf-8"?>
<!-- Generator: Adobe Illustrator 19.0.0, SVG Export Plug-In . SVG Version: 6.00 Build 0)  -->
<svg version="1.1" id="Layer_1" xmlns="http://www.w3.org/2000/svg" xmlns:xlink="http://www.w3.org/1999/xlink" x="0px" y="0px"
	 viewBox="-289 412.9 16 16" style="enable-background:new -289 412.9 16 16;" xml:space="preserve">
<style type="text/css">
	.st0{fill:#FFFFFF;}
	.st1{fill:#E9B665;}
</style>
<g id="icon">
	<polygon class="st0" points="-279.9,419.8 -279.9,415.8 -279.9,413.8 -282.1,413.8 -282.1,415.8 -282.1,419.8 -282.1,422 
		-279.9,422 -275.9,422 -275.9,419.8 	"/>
	<path class="st1" d="M-281,412.9c-4.4,0-8,3.6-8,8c0,4.4,3.6,8,8,8s8-3.6,8-8C-273,416.5-276.6,412.9-281,412.9z M-276,421.5
		c0,0.2-0.2,0.4-0.4,0.4h-3.6h-2v-2v-2.1v-1.5v-1.9c0-0.2,0.2-0.4,0.4-0.4h1.2c0.2,0,0.4,0.2,0.4,0.4v1.9v1.5v2.1h3.6
		c0.2,0,0.4,0.2,0.4,0.4V421.5z"/>
</g>
</svg>
