<?xml version="1.0" encoding="UTF-8"?>
<!DOCTYPE svg PUBLIC "-//W3C//DTD SVG 1.1//EN" "http://www.w3.org/Graphics/SVG/1.1/DTD/svg11.dtd">
<svg version="1.1" id="Layer_1" xmlns="http://www.w3.org/2000/svg" xmlns:xlink="http://www.w3.org/1999/xlink" x="0px" y="0px" width="16px" height="16px" viewBox="0 0 16 16" enable-background="new 0 0 16 16" xml:space="preserve">
  <g id="main">
    <clipPath id="clip_mask">
      <path d="M6,11.5c0,-3.0327,2.4673,-5.5,5.5,-5.5c1.8588,0,3.5039,0.9278,4.5,2.3436V0H0v16h8.3436C6.9278,15.0039,6,13.3588,6,11.5z"/>
    </clipPath>
    <g id="icon" clip-path="url(#clip_mask)">
      <path d="M10.7608,8.506H6.4959L2.8984,11.1l0,-2.594H1.2392C0.8326,8.506,0.5,8.1734,0.5,7.7669V1.2392C0.5,0.8326,0.8326,0.5,1.2392,0.5h9.5217C11.1674,0.5,11.5,0.8326,11.5,1.2392v6.5277C11.5,8.1734,11.1674,8.506,10.7608,8.506z" fill-rule="evenodd" fill="#FFFFFF" stroke="#3E79B4" stroke-width="1" stroke-miterlimit="1" stroke-linejoin="round"/>
      <path d="M13.4738,2.7149h-0.409v5.5827c0,0.9617,-0.8796,1.7413,-1.8413,1.7413H6.8l-1.6718,1.1602c-0.1319,0.0739,-0.0795,0.275,0.0718,0.275h2.3371L11.5296,14l0,-2.5259h1.937c0.5683,0,1.0333,-0.465,1.0333,-1.0333V3.741C14.5,3.1767,14.0382,2.7149,13.4738,2.7149z" fill-rule="evenodd" fill="#FFFFFF"/>
      <path d="M5.4,11.5h2.1371L11.5,14v-2.5h1.9738c0.5644,0,1.0262,-0.4949,1.0262,-1.0592V3.741c0,-0.5644,-0.4618,-1.041,-1.0262,-1.041H13.1" fill-rule="evenodd" fill="none" stroke="#A7A9AC" stroke-width="1" stroke-linecap="round" stroke-miterlimit="1" stroke-linejoin="round"/>
      <path d="M3.7976,4.8671c0,0.447,-0.2544,0.8093,-0.8093,0.8093c-0.447,0,-0.8093,-0.3624,-0.8093,-0.8093s0.3624,-0.8093,0.8093,-0.8093S3.7976,4.4201,3.7976,4.8671zM5.8209,4.0577c-0.447,0,-0.8093,0.3624,-0.8093,0.8093s0.3624,0.8093,0.8093,0.8093c0.5549,0,0.8093,-0.3624,0.8093,-0.8093S6.2679,4.0577,5.8209,4.0577zM8.6536,4.0577c-0.447,0,-0.8093,0.3624,-0.8093,0.8093s0.3624,0.8093,0.8093,0.8093c0.5549,0,0.8093,-0.3624,0.8093,-0.8093S9.1006,4.0577,8.6536,4.0577z" fill-rule="evenodd" fill="#3E79B4"/>
    </g>
    <g id="overlay">
      <path d="M16,11.5c0,-2.4853,-2.0147,-4.5,-4.5,-4.5c-2.4853,0,-4.5,2.0147,-4.5,4.5s2.0147,4.5,4.5,4.5C13.9853,16,16,13.9853,16,11.5zM9,12v-1h5v1H9z" fill-rule="evenodd" fill="#CD4C32"/>
      <rect x="9" y="11" width="5" height="1" fill-rule="evenodd" fill="#FFFFFF"/>
    </g>
  </g>
</svg>
