<?xml version="1.0" encoding="UTF-8"?>
<!DOCTYPE svg PUBLIC "-//W3C//DTD SVG 1.1//EN" "http://www.w3.org/Graphics/SVG/1.1/DTD/svg11.dtd">
<svg version="1.1" id="Layer_1" xmlns="http://www.w3.org/2000/svg" xmlns:xlink="http://www.w3.org/1999/xlink" x="0px" y="0px" width="16px" height="16px" viewBox="0 0 16 16" enable-background="new 0 0 16 16" xml:space="preserve">
  <g id="icon">
    <circle cx="8" cy="8" r="7" fill="#E6E7E8"/>
    <path d="M8,16c-0.651,0,-1.3,-0.079,-1.926,-0.234l0.241,-0.971c0.941,0.233,1.947,0.267,2.902,0.099l0.173,0.985C8.934,15.959,8.467,16,8,16zM11.503,15.192l-0.439,-0.898c0.883,-0.432,1.652,-1.034,2.287,-1.79l0.766,0.643C13.392,14.01,12.513,14.698,11.503,15.192zM4.013,14.934c-0.96,-0.554,-1.813,-1.322,-2.467,-2.219l0.808,-0.589c0.573,0.785,1.319,1.457,2.16,1.942L4.013,14.934zM15.295,11.264l-0.913,-0.407c0.399,-0.896,0.602,-1.851,0.602,-2.84V8h1v0.017C15.983,9.147,15.752,10.239,15.295,11.264zM0.499,10.755c-0.32,-0.876,-0.482,-1.798,-0.482,-2.739c0,-0.182,0.006,-0.366,0.018,-0.547l0.998,0.068c-0.011,0.158,-0.016,0.319,-0.016,0.479c0,0.824,0.142,1.63,0.422,2.396L0.499,10.755zM14.71,6.076c-0.272,-0.943,-0.733,-1.804,-1.37,-2.559l0.764,-0.645c0.728,0.863,1.255,1.848,1.566,2.927L14.71,6.076zM1.433,5.636l-0.94,-0.341c0.383,-1.056,0.974,-2.003,1.757,-2.816l0.72,0.694C2.285,3.884,1.767,4.713,1.433,5.636zM11.894,2.219c-0.818,-0.551,-1.724,-0.915,-2.693,-1.083l0.171,-0.985c1.108,0.192,2.145,0.609,3.08,1.238L11.894,2.219zM4.499,1.973l-0.502,-0.865c0.974,-0.565,2.035,-0.912,3.156,-1.03l0.105,0.994C6.278,1.176,5.35,1.479,4.499,1.973z" fill="#6D6E71"/>
  </g>
</svg>
