<?xml version="1.0" encoding="UTF-8"?>
<!DOCTYPE svg PUBLIC "-//W3C//DTD SVG 1.1//EN" "http://www.w3.org/Graphics/SVG/1.1/DTD/svg11.dtd">
<svg version="1.1" id="Layer_1" xmlns="http://www.w3.org/2000/svg" xmlns:xlink="http://www.w3.org/1999/xlink" x="0px" y="0px" width="16px" height="16px" viewBox="0 0 16 16" enable-background="new 0 0 16 16" xml:space="preserve">
  <g id="icon">
    <path d="M1.5223,11.0951l-0.3834,0.1703c-0.045,0.02,-0.0927,0.0302,-0.1417,0.0302c-0.1431,0,-0.271,-0.0862,-0.3259,-0.2197c-0.3996,-0.9715,-0.6022,-2.0013,-0.6022,-3.0607c0,-1.0489,0.1988,-2.0693,0.5909,-3.033c0.0548,-0.1346,0.1831,-0.2216,0.3268,-0.2216c0.0504,0,0.0993,0.0108,0.1455,0.0319l0.3815,0.1752c0.172,0.0789,0.2511,0.278,0.1802,0.4533c-0.3338,0.8245,-0.5031,1.6972,-0.5031,2.5941c0,0.9079,0.1732,1.7905,0.5147,2.6233C1.7775,10.8134,1.6952,11.0183,1.5223,11.0951zM1.7435,3.6952l0.338,0.2488c0.0608,0.0447,0.1327,0.0684,0.2079,0.0684c0.1108,0,0.2123,-0.0507,0.2787,-0.1392C3.6713,2.4027,5.3403,1.425,7.147,1.1909c0.1884,-0.0244,0.3217,-0.1931,0.3034,-0.3841l-0.04,-0.4198c-0.0188,-0.1973,-0.1944,-0.3431,-0.3963,-0.3172C4.9053,0.3399,2.9579,1.479,1.6712,3.1951c-0.0576,0.0768,-0.0817,0.1714,-0.0678,0.2664C1.6172,3.5559,1.667,3.6389,1.7435,3.6952zM7.1863,14.8441c-1.8119,-0.224,-3.4886,-1.1949,-4.6003,-2.6635c-0.0663,-0.0877,-0.1675,-0.1379,-0.2777,-0.1379c-0.0737,0,-0.1444,0.0228,-0.2045,0.0659l-0.3412,0.2447c-0.078,0.0559,-0.129,0.1393,-0.1434,0.2347c-0.0145,0.0959,0.0097,0.1914,0.0682,0.2689c1.295,1.715,3.2503,2.8479,5.3645,3.1083c0.0146,0.0018,0.0292,0.0027,0.0435,0.0027c0.1806,0,0.3314,-0.1357,0.3507,-0.3157l0.0451,-0.4193C7.512,15.0418,7.3751,14.8674,7.1863,14.8441zM15.381,4.9402c-0.055,-0.1331,-0.1829,-0.2191,-0.3256,-0.2191c-0.049,0,-0.0966,0.0102,-0.1417,0.0302l-0.3833,0.1703c-0.1734,0.077,-0.2555,0.2821,-0.1832,0.4573c0.345,0.8362,0.5199,1.7233,0.5199,2.6364c0,0.9227,-0.1785,1.8184,-0.5305,2.662c-0.0736,0.1763,0.0049,0.3769,0.1788,0.4567l0.3812,0.175c0.0462,0.0212,0.0953,0.032,0.1458,0.032c0.1421,0,0.2697,-0.0854,0.3251,-0.2176c0.4125,-0.9851,0.6217,-2.0307,0.6217,-3.1081C15.9889,6.9502,15.7844,5.9156,15.381,4.9402zM14.268,12.3958l-0.3381,-0.2488c-0.0607,-0.0447,-0.1326,-0.0684,-0.2079,-0.0684c-0.1092,0,-0.21,0.0497,-0.2765,0.1363c-1.1076,1.4444,-2.7017,2.3742,-4.4886,2.6183c-0.1864,0.0254,-0.3183,0.194,-0.3002,0.3837l0.04,0.4198c0.0174,0.1825,0.1683,0.3202,0.351,0.3202c0.0157,0,0.0314,-0.001,0.0474,-0.0031c2.0886,-0.2814,3.9507,-1.3664,5.2433,-3.0552c0.0587,-0.0767,0.0836,-0.1716,0.0701,-0.2673C14.3949,12.5361,14.345,12.4525,14.268,12.3958zM8.9286,1.1931c1.8054,0.2387,3.4135,1.1752,4.5282,2.6371c0.0664,0.0871,0.1674,0.137,0.2771,0.137c0.0736,0,0.1444,-0.0228,0.2044,-0.0658l0.3412,-0.2447c0.0782,-0.0561,0.1292,-0.1397,0.1435,-0.2354c0.0144,-0.0961,-0.0101,-0.1917,-0.0689,-0.269C13.0549,1.4437,11.1782,0.3501,9.0694,0.073c-0.1986,-0.0259,-0.3758,0.1174,-0.3969,0.3127l-0.0451,0.4191C8.6069,0.9942,8.7421,1.1684,8.9286,1.1931z" fill="#787878"/>
    <path d="M8.029,3.0696c2.722,0,4.9286,2.2206,4.9286,4.9597s-2.2066,4.9597,-4.9286,4.9597c-2.722,0,-4.9286,-2.2206,-4.9286,-4.9597S5.307,3.0696,8.029,3.0696z" fill-rule="evenodd" fill="#E0E0E0"/>
  </g>
</svg>
