<?xml version="1.0" encoding="UTF-8"?>
<!DOCTYPE svg PUBLIC "-//W3C//DTD SVG 1.1//EN" "http://www.w3.org/Graphics/SVG/1.1/DTD/svg11.dtd">
<svg version="1.1" id="Layer_1" xmlns="http://www.w3.org/2000/svg" xmlns:xlink="http://www.w3.org/1999/xlink" x="0px" y="0px" width="16px" height="16px" viewBox="0 0 16 16" enable-background="new 0 0 16 16" xml:space="preserve">
  <g id="icon">
    <path d="M3.5,2.5v1.544c0.212,-0.029,0.438,-0.044,0.68,-0.044c1.974,0,2.975,0.948,2.975,2.819c0,0.043,-0.001,0.086,-0.003,0.131c0.36,-0.113,0.778,-0.169,1.253,-0.169c1.974,0,2.975,0.948,2.975,2.818c0,0.525,-0.135,1.202,-0.404,1.847c0.054,0.018,0.106,0.036,0.158,0.054H14.8c0.385,0,0.7,-0.315,0.7,-0.7V2.5H3.5z" fill-rule="evenodd" fill="#FFFFFF"/>
    <path d="M14.7,0H4.3c-0.717,0,-1.3,0.583,-1.3,1.3v1.7v1v0.148c0.296,-0.085,0.629,-0.133,1,-0.145V3h11v7.8c0,0.108,-0.092,0.2,-0.2,0.2h-3.659c-0.048,0.149,-0.101,0.298,-0.163,0.446c0.565,0.192,0.997,0.353,1.34,0.554H14.8c0.662,0,1.2,-0.538,1.2,-1.2V4V3V1.3C16,0.583,15.417,0,14.7,0z" fill="#797979"/>
    <path d="M15,6V5h-2V3h-1v2h-2V3H9v2H7V3H6v1.405c0.572,0.331,0.933,0.863,1.08,1.595H9v0.813c0.378,0.043,0.712,0.129,1,0.258V6h2v2h-0.971c0.157,0.284,0.262,0.618,0.314,1H12v2h1V9h2V8h-2V6H15z" fill="#B4B4B5"/>
    <path d="M6.473,9.599c0,1.116,0.768,2.966,1.942,2.966c1.175,0,1.967,-1.85,1.967,-2.966S10.016,7.78,8.406,7.78C6.814,7.78,6.473,8.483,6.473,9.599zM4.287,14.901c0.269,-1.927,0.238,-1.962,2.552,-2.732c0.455,1.065,1.273,1.966,1.594,1.966s1.138,-0.901,1.537,-1.993c0.013,0.005,0.097,0.038,0.229,0.098c2.314,0.77,2.097,0.734,2.366,2.661c0.166,1.051,-4.114,1.057,-4.114,1.057S4.121,15.952,4.287,14.901z" fill-rule="evenodd" fill="#3E79B4"/>
    <path d="M4.189,9.785c-1.175,0,-1.942,-1.85,-1.942,-2.966C2.246,5.703,2.588,5,4.18,5c1.61,0,1.975,0.703,1.975,1.818C6.155,7.934,5.363,9.785,4.189,9.785zM3.797,13.169c0.096,-0.238,0.224,-0.447,0.409,-0.643c0.409,-0.432,0.993,-0.667,1.897,-0.974c-0.305,-0.667,-0.458,-1.392,-0.459,-1.943c-0.422,0.978,-1.142,1.746,-1.438,1.746c-0.32,0,-1.138,-0.901,-1.594,-1.966C0.299,10.158,0.33,10.193,0.06,12.12C-0.073,12.967,2.709,13.135,3.797,13.169z" fill="#4EA17E"/>
  </g>
</svg>
