<?xml version="1.0" encoding="UTF-8"?>
<!DOCTYPE svg PUBLIC "-//W3C//DTD SVG 1.1//EN" "http://www.w3.org/Graphics/SVG/1.1/DTD/svg11.dtd">
<svg version="1.1" id="Layer_1" xmlns="http://www.w3.org/2000/svg" xmlns:xlink="http://www.w3.org/1999/xlink" x="0px" y="0px" width="16px" height="16px" viewBox="0 0 16 16" enable-background="new 0 0 16 16" xml:space="preserve">
  <g id="main">
    <clipPath id="clip_mask">
      <path d="M4.4319,16H0V0h16v8.3425c-0.0699,-0.0129,-0.1416,-0.0208,-0.2151,-0.0208c-0.2373,0,-0.466,0.0702,-0.6642,0.2034L13,9.8662v-0.3657C13,8.6731,12.3577,8,11.5682,8H5.7826c-0.6881,0,-1.28,0.5133,-1.4074,1.2203c-0.0167,0.0926,-0.0354,0.1907,-0.0553,0.2947c-0.1335,0.6994,-0.3163,1.6572,-0.3163,3.0016c0,1.3426,0.1825,2.2864,0.3158,2.9755c0.0199,0.1026,0.0386,0.1994,0.0553,0.2911C4.3884,15.858,4.4083,15.93,4.4319,16z"/>
    </clipPath>
    <g id="icon" clip-path="url(#clip_mask)">
      <path d="M2.5,2.5v0.843C2.943,3.115,3.504,3,4.18,3c1.974,0,2.975,0.948,2.975,2.819c0,0.043,-0.001,0.086,-0.003,0.131c0.36,-0.113,0.778,-0.169,1.253,-0.169c1.974,0,2.975,0.948,2.975,2.818c0,0.525,-0.135,1.202,-0.404,1.847c0.844,0.286,1.392,0.505,1.788,0.888c0.056,0.054,0.106,0.11,0.153,0.166H13.8c0.385,0,0.7,-0.315,0.7,-0.7V2.5H2.5z" fill-rule="evenodd" fill="#FFFFFF"/>
      <path d="M13.7,0H3.3c-0.717,0,-1.3,0.583,-1.3,1.3v1.7v0.693c0.264,-0.248,0.598,-0.43,1,-0.545V3h11v7.8c0,0.108,-0.092,0.2,-0.2,0.2h-1.482c0.169,0.099,0.317,0.207,0.448,0.334c0.213,0.205,0.353,0.425,0.453,0.666H13.8c0.662,0,1.2,-0.538,1.2,-1.2V4V3V1.3C15,0.583,14.417,0,13.7,0z" fill="#797979"/>
      <path d="M5,3.064V3h1v0.405C5.718,3.242,5.384,3.129,5,3.064zM14,6V5h-2V3h-1v2H9V3H8v2h-0.92c0.05,0.25,0.075,0.522,0.075,0.819c0,0.043,-0.001,0.086,-0.003,0.131c0.36,-0.113,0.778,-0.169,1.253,-0.169c0.549,0,1.022,0.074,1.42,0.22H11v0.951c0.253,0.431,0.382,0.98,0.382,1.647c0,0.509,-0.128,1.162,-0.382,1.79v0.065c0.393,0.134,0.722,0.253,1,0.382V9h2V8h-2V6H14z" fill="#B4B4B5"/>
      <path d="M6.473,8.599c0,1.116,0.768,2.966,1.942,2.966c1.175,0,1.967,-1.85,1.967,-2.966S10.016,6.78,8.406,6.78C6.814,6.78,6.473,7.483,6.473,8.599zM4.287,13.901c0.269,-1.927,0.238,-1.962,2.552,-2.732c0.455,1.065,1.273,1.966,1.594,1.966s1.138,-0.901,1.537,-1.993c0.013,0.005,0.097,0.038,0.229,0.098c2.314,0.77,2.097,0.734,2.366,2.661c0.166,1.051,-4.114,1.057,-4.114,1.057S4.121,14.952,4.287,13.901z" fill-rule="evenodd" fill="#3E79B4"/>
      <path d="M4.189,8.785c-1.175,0,-1.942,-1.85,-1.942,-2.966C2.246,4.703,2.588,4,4.18,4c1.61,0,1.975,0.703,1.975,1.818C6.155,6.934,5.363,8.785,4.189,8.785zM3.797,12.169c0.096,-0.238,0.224,-0.447,0.409,-0.643c0.409,-0.432,0.993,-0.667,1.897,-0.974c-0.305,-0.667,-0.458,-1.392,-0.459,-1.943c-0.422,0.978,-1.142,1.746,-1.438,1.746c-0.32,0,-1.138,-0.901,-1.594,-1.966C0.299,9.158,0.33,9.193,0.06,11.12C-0.073,11.967,2.709,12.135,3.797,12.169z" fill="#4EA17E"/>
    </g>
    <g id="overlay">
      <path d="M11.5682,16H5.7815c-0.2042,0,-0.3807,-0.1648,-0.423,-0.3964c-0.1243,-0.6805,-0.3548,-1.6382,-0.3548,-3.0869c0,-1.452,0.2316,-2.4308,0.3556,-3.1189C5.4012,9.1655,5.5779,9,5.7826,9h5.7856c0.2385,0,0.4318,0.2241,0.4318,0.5005v5.999C12,15.7759,11.8067,16,11.5682,16z" fill="#3E79B4"/>
      <path d="M15.6716,15.6871l-2.9359,-1.8566c-0.1466,-0.1062,-0.2356,-0.2924,-0.2356,-0.4928v-1.6284c0,-0.2004,0.0891,-0.3866,0.2356,-0.4928l2.9359,-1.8566c0.143,-0.1036,0.3284,0.0156,0.3284,0.211v5.9052C16,15.6715,15.8145,15.7907,15.6716,15.6871z" fill="#3E79B4"/>
      <path d="M8.7375,3.9804L6.326,3.8797c-0.0271,-0.0799,-0.0592,-0.1576,-0.0961,-0.2324l1.6339,-1.7762c0.1025,-0.1025,0.1025,-0.2687,0,-0.3712l-0.3637,-0.3637c-0.1025,-0.1025,-0.2687,-0.1025,-0.3712,0L5.3527,2.7701c-0.0748,-0.037,-0.1525,-0.069,-0.2324,-0.0961L5.0196,0.2625c0,-0.145,-0.1175,-0.2625,-0.2625,-0.2625h-0.5143c-0.145,0,-0.2625,0.1175,-0.2625,0.2625L3.8797,2.674c-0.0799,0.0271,-0.1575,0.0592,-0.2324,0.0961L1.8711,1.1362c-0.1025,-0.1025,-0.2687,-0.1025,-0.3712,0l-0.3637,0.3637c-0.1025,0.1025,-0.1025,0.2687,0,0.3712l1.6339,1.7762c-0.037,0.0748,-0.069,0.1525,-0.0961,0.2324L0.2625,3.9804C0.1175,3.9804,0,4.0979,0,4.2429v0.5143c0,0.145,0.1175,0.2625,0.2625,0.2625l2.4115,0.1007c0.0271,0.0799,0.0592,0.1576,0.0961,0.2324L1.1362,7.1289c-0.1025,0.1025,-0.1025,0.2687,0,0.3712l0.3637,0.3637c0.1025,0.1025,0.2687,0.1025,0.3712,0l1.7762,-1.6339c0.0748,0.037,0.1525,0.069,0.2324,0.0961l0.1007,2.4115c0,0.145,0.1175,0.2625,0.2625,0.2625h0.5143c0.145,0,0.2625,-0.1175,0.2625,-0.2625l0.1007,-2.4115c0.0799,-0.0271,0.1576,-0.0592,0.2324,-0.0961l1.7762,1.6339c0.1025,0.1025,0.2687,0.1025,0.3712,0l0.3637,-0.3637c0.1025,-0.1025,0.1025,-0.2687,0,-0.3712L6.2299,5.3527c0.037,-0.0748,0.069,-0.1525,0.0961,-0.2324l2.4115,-0.1007c0.145,0,0.2625,-0.1175,0.2625,-0.2625v-0.5143C9,4.0979,8.8825,3.9804,8.7375,3.9804zM4.5,5.1c-0.426,0,-0.6,-0.174,-0.6,-0.6c0,-0.426,0.174,-0.6,0.6,-0.6s0.6,0.174,0.6,0.6C5.1,4.926,4.926,5.1,4.5,5.1z" fill-rule="evenodd" fill="#EAB765"/>
    </g>
  </g>
</svg>
