<?xml version="1.0" encoding="UTF-8"?>
<!DOCTYPE svg PUBLIC "-//W3C//DTD SVG 1.1//EN" "http://www.w3.org/Graphics/SVG/1.1/DTD/svg11.dtd">
<svg version="1.1" id="Layer_1" xmlns="http://www.w3.org/2000/svg" xmlns:xlink="http://www.w3.org/1999/xlink" x="0px" y="0px" width="16px" height="16px" viewBox="0 0 16 16" enable-background="new 0 0 16 16" xml:space="preserve">
  <g id="icon">
    <g>
      <g>
        <path d="M15.7861,11.4301c-1.1395,-1.1602,-3.063,-3.6744,-3.063,-5.6134c0,-1.8323,-1.2927,-3.3943,-3.1072,-3.9983c0.0155,-0.087,0.0252,-0.176,0.0252,-0.2673C9.6411,0.6945,8.9289,0,8.0504,0S6.4597,0.6945,6.4597,1.5511c0,0.071,0.0066,0.1403,0.0161,0.2088c-1.9133,0.5556,-3.2969,2.1614,-3.2969,4.0568c0,2.7145,-1.898,4.3691,-2.963,5.662C-0.8587,12.533,5.8363,13,8.0007,13S16.9256,12.5902,15.7861,11.4301z" fill-rule="evenodd" fill="#EAB765"/>
      </g>
    </g>
    <path d="M10.5264,13.7738c0,1.3178,-1.138,2.1767,-2.4558,2.1767c-1.3178,0,-2.4209,-0.8589,-2.4209,-2.1767C7.5621,13.9492,8.5041,13.9492,10.5264,13.7738z" fill-rule="evenodd" fill="#797979"/>
  </g>
</svg>
