<?xml version="1.0" encoding="UTF-8"?>
<!DOCTYPE svg PUBLIC "-//W3C//DTD SVG 1.1//EN" "http://www.w3.org/Graphics/SVG/1.1/DTD/svg11.dtd">
<svg version="1.1" id="Layer_1" xmlns="http://www.w3.org/2000/svg" xmlns:xlink="http://www.w3.org/1999/xlink" x="0px" y="0px" width="16px" height="16px" viewBox="0 0 16 16" enable-background="new 0 0 16 16" xml:space="preserve">
  <g id="main">
    <clipPath id="clip_mask">
      <path d="M6.2492,14.3973l3.7849,-6.55c0.3083,-0.5312,0.8566,-0.8473,1.4676,-0.8473c0.6068,0,1.1737,0.3272,1.4795,0.8541L16,13.068V0H0v16h6.1802C5.9431,15.4867,5.9655,14.886,6.2492,14.3973z"/>
    </clipPath>
    <g id="icon" clip-path="url(#clip_mask)">
      <path d="M7.55,0.1C3.4355,0.1,0.1,3.4355,0.1,7.55S3.4355,15,7.55,15S15,11.6645,15,7.55S11.6645,0.1,7.55,0.1zM6.2075,12.2947l-0.0126,-0.0129l-0.0009,0.0009l-0.8313,-0.851l-0.9635,-0.9841l0.001,-0.0011L1.7085,7.6911l1.7991,-1.8377L6.2063,8.616l5.2103,-5.2808l1.8083,1.8472L6.2075,12.2947z" fill-rule="evenodd" fill="#4EA17E"/>
      <polygon points="13.225,5.1824 11.4166,3.3352 6.2063,8.616 3.5076,5.8534 1.7085,7.6911 4.4002,10.4465 4.3992,10.4476 5.3627,11.4317 6.194,12.2827 6.1949,12.2818 6.2075,12.2947" fill-rule="evenodd" fill="#FFFFFF" stroke-linejoin="miter"/>
    </g>
    <g id="overlay">
      <path d="M15.9022,14.895l-3.7859,-6.5389c-0.2723,-0.4691,-0.9441,-0.4776,-1.2164,-0.0085L7.114,14.8992C6.8387,15.3735,7.1776,16,7.7222,16h7.5718C15.8387,16,16.1776,15.3693,15.9022,14.895zM12,14.6c0,0.2209,-0.1791,0.4,-0.4,0.4h-0.2c-0.2209,0,-0.4,-0.1791,-0.4,-0.4v-0.2c0,-0.2209,0.1791,-0.4,0.4,-0.4h0.2c0.2209,0,0.4,0.1791,0.4,0.4V14.6zM12,13.1c0,0.2209,-0.1791,0.4,-0.4,0.4h-0.2c-0.2209,0,-0.4,-0.1791,-0.4,-0.4v-2.7c0,-0.2209,0.1791,-0.4,0.4,-0.4h0.2c0.2209,0,0.4,0.1791,0.4,0.4V13.1z" fill="#EAB765"/>
      <path d="M11.6163,13.4912h-0.2c-0.22,0,-0.4,-0.18,-0.4,-0.4v-2.7c0,-0.22,0.18,-0.4,0.4,-0.4h0.2c0.22,0,0.4,0.18,0.4,0.4v2.7C12.0163,13.3112,11.8363,13.4912,11.6163,13.4912zM12.0163,14.5912v-0.2c0,-0.22,-0.18,-0.4,-0.4,-0.4h-0.2c-0.22,0,-0.4,0.18,-0.4,0.4v0.2c0,0.22,0.18,0.4,0.4,0.4h0.2C11.8363,14.9912,12.0163,14.8112,12.0163,14.5912z" fill="#58595B"/>
    </g>
  </g>
</svg>
