<?xml version="1.0" encoding="UTF-8"?>
<!DOCTYPE svg PUBLIC "-//W3C//DTD SVG 1.1//EN" "http://www.w3.org/Graphics/SVG/1.1/DTD/svg11.dtd">
<svg version="1.1" id="Layer_1" xmlns="http://www.w3.org/2000/svg" xmlns:xlink="http://www.w3.org/1999/xlink" x="0px" y="0px" width="16px" height="16px" viewBox="0 0 16 16" enable-background="new 0 0 16 16" xml:space="preserve">
  <g id="main">
    <g id="icon">
      <path d="M1.5,12.5L8.75,12.5L7.633,9.28L7.555,9.037L7.499,8.716L7.527,8.35L7.699,7.97L7.876,7.775L8.091,7.631L8.338,7.541L8.606,7.511L8.954,7.556L9.274,7.66L12.5,8.766L12.5,1.5L1.5,1.5zz" fill="#C2D3E6"/>
      <path d="M1.183,1.113L1.01,1.402L1,1.5L1,12.5L1.113,12.82L1.402,12.99L1.5,13L8.924,13L8.577,12L2,12L2,2L12,2L12,8.595L13,8.938L13,1.5L12.89,1.183L12.6,1.01L12.5,1L1.5,1zz" fill="#4290A8"/>
    </g>
    <g id="overlay">
      <path d="M15.4906,10.8488L8.9313,8.5997c-0.4486,-0.1741,-0.5178,-0.1107,-0.3535,0.353l2.2682,6.5358c0.1868,0.4833,0.431,0.4844,0.7343,-0.01l1.1428,-1.87l2.3712,2.3492c0.2452,0.2449,1.1074,-0.6417,0.8622,-0.8866l-2.348,-2.347l1.872,-1.1416C16.0183,11.2341,16.0183,11.0356,15.4906,10.8488z" fill-rule="evenodd" fill="#797979"/>
    </g>
  </g>
</svg>
