<?xml version="1.0" encoding="UTF-8"?>
<!DOCTYPE svg PUBLIC "-//W3C//DTD SVG 1.1//EN" "http://www.w3.org/Graphics/SVG/1.1/DTD/svg11.dtd">
<svg version="1.1" id="Layer_1" xmlns="http://www.w3.org/2000/svg" xmlns:xlink="http://www.w3.org/1999/xlink" x="0px" y="0px" width="16px" height="16px" viewBox="0 0 16 16" enable-background="new 0 0 16 16" xml:space="preserve">
  <g id="icon">
    <path d="M16,8.956V7.152c0,-0.146,-0.105,-0.271,-0.249,-0.296l-2.104,-0.366c-0.118,-0.43,-0.288,-0.852,-0.511,-1.26l1.256,-1.785c0.084,-0.119,0.07,-0.282,-0.033,-0.385l-1.276,-1.276c-0.103,-0.103,-0.265,-0.117,-0.385,-0.033l-1.741,1.225c-0.42,-0.247,-0.868,-0.44,-1.332,-0.576L9.252,0.249C9.227,0.105,9.102,0,8.956,0H7.152c-0.146,0,-0.271,0.105,-0.296,0.249L6.49,2.351c-0.436,0.114,-0.864,0.28,-1.277,0.5L3.445,1.607c-0.119,-0.084,-0.282,-0.07,-0.385,0.033L1.784,2.916c-0.103,0.103,-0.117,0.265,-0.033,0.385l1.192,1.694c-0.264,0.437,-0.468,0.905,-0.611,1.391L0.249,6.748C0.105,6.773,0,6.898,0,7.044v1.805c0,0.146,0.105,0.271,0.249,0.296l2.026,0.352c0.118,0.462,0.295,0.917,0.533,1.354l-1.2,1.705c-0.084,0.119,-0.07,0.282,0.033,0.385l1.276,1.276c0.103,0.103,0.265,0.117,0.385,0.033l1.649,-1.16c0.453,0.271,0.938,0.478,1.442,0.619l0.356,2.044c0.025,0.144,0.15,0.249,0.296,0.249h1.805c0.146,0,0.271,-0.105,0.296,-0.249l0.353,-2.027c0.457,-0.123,0.905,-0.303,1.336,-0.543l1.722,1.212c0.119,0.084,0.282,0.07,0.385,-0.033l1.276,-1.276c0.103,-0.103,0.117,-0.265,0.033,-0.385l-1.193,-1.696c0.253,-0.436,0.449,-0.901,0.583,-1.383l2.113,-0.368C15.895,9.227,16,9.102,16,8.956zM6.819,6.043c1.104,-0.638,2.517,-0.259,3.154,0.845c0.638,1.104,0.259,2.517,-0.845,3.154c-1.104,0.638,-2.517,0.259,-3.154,-0.845C5.336,8.093,5.714,6.681,6.819,6.043z" fill-rule="evenodd" fill="#6D6E71"/>
  </g>
</svg>
