<?xml version="1.0" encoding="UTF-8"?>
<!DOCTYPE svg PUBLIC "-//W3C//DTD SVG 1.1//EN" "http://www.w3.org/Graphics/SVG/1.1/DTD/svg11.dtd">
<svg version="1.1" id="Layer_1" xmlns="http://www.w3.org/2000/svg" xmlns:xlink="http://www.w3.org/1999/xlink" x="0px" y="0px" width="16px" height="16px" viewBox="0 0 16 16" enable-background="new 0 0 16 16" xml:space="preserve">
  <g id="icon">
    <path d="M11.3,7.7V5.4897c0,-2.1056,-1.7792,-3.8845,-3.85,-3.8845S3.6,3.3841,3.6,5.4897V7.7H2V5.4897c0,-1.4509,0.5742,-2.8198,1.6143,-3.8544C4.6503,0.6047,6.0163,0.0371,7.4595,0.0371c1.4432,0,2.85,0.5676,3.886,1.5981C12.3857,2.6699,13,4.0388,13,5.4897V7.7H11.3z" fill="#ACACAC"/>
    <path d="M13.4975,7H1.4307C1.1829,7,1,7.1854,1,7.4365v8.0853c0,0.2511,0.2009,0.4783,0.4487,0.4783h12.1026c0.2478,0,0.4487,-0.2272,0.4487,-0.4783V7.4365C14,7.1854,13.7453,7,13.4975,7zM8.2136,11.5528l0.2704,2.2699c0,0.3658,-0.5771,0.5587,-0.9464,0.5587c-0.3692,0,-1.0005,-0.1928,-1.0005,-0.5587l0.3245,-2.2699c-0.3786,-0.2301,-0.668,-0.6588,-0.668,-1.1509c0,-0.7347,0.6045,-1.3303,1.346,-1.3303c0.7415,0,1.3435,0.5956,1.3435,1.3303C8.8832,10.894,8.6462,11.3227,8.2136,11.5528z" fill="#ACACAC"/>
  </g>
</svg>
