<?xml version="1.0" encoding="UTF-8"?>
<!DOCTYPE svg PUBLIC "-//W3C//DTD SVG 1.1//EN" "http://www.w3.org/Graphics/SVG/1.1/DTD/svg11.dtd">
<svg version="1.1" id="Layer_1" xmlns="http://www.w3.org/2000/svg" xmlns:xlink="http://www.w3.org/1999/xlink" x="0px" y="0px" width="16px" height="16px" viewBox="0 0 16 16" enable-background="new 0 0 16 16" xml:space="preserve">
  <g id="icon">
    <path d="M11.3,7.7V5.49c0,-2.106,-1.779,-3.885,-3.85,-3.885S3.6,3.384,3.6,5.49V7.7H2V5.49c0,-1.451,0.574,-2.82,1.614,-3.854C4.65,0.605,6.016,0.037,7.46,0.037c1.443,0,2.85,0.568,3.886,1.598C12.386,2.67,13,4.039,13,5.49V7.7H11.3z" fill="#B4B4B5"/>
    <path d="M13.497,7H1.431C1.183,7,1,7.185,1,7.436v8.085c0,0.251,0.201,0.478,0.449,0.478h12.103c0.248,0,0.449,-0.227,0.449,-0.478V7.436C14,7.185,13.745,7,13.497,7zM8.214,11.553l0.27,2.27c0,0.366,-0.577,0.559,-0.946,0.559c-0.369,0,-1,-0.193,-1,-0.559l0.324,-2.27c-0.379,-0.23,-0.668,-0.659,-0.668,-1.151c0,-0.735,0.604,-1.33,1.346,-1.33c0.742,0,1.344,0.596,1.344,1.33C8.883,10.894,8.646,11.323,8.214,11.553z" fill="#EAB765"/>
    <path d="M8.883,10.402c0,-0.735,-0.602,-1.33,-1.344,-1.33s-1.346,0.596,-1.346,1.33c0,0.492,0.289,0.921,0.668,1.151l-0.324,2.27c0,0.366,0.631,0.559,1,0.559c0.369,0,0.946,-0.193,0.946,-0.559l-0.27,-2.27C8.646,11.323,8.883,10.894,8.883,10.402z" fill="#FFFFFF"/>
  </g>
</svg>
