<?xml version="1.0" encoding="UTF-8"?>
<!DOCTYPE svg PUBLIC "-//W3C//DTD SVG 1.1//EN" "http://www.w3.org/Graphics/SVG/1.1/DTD/svg11.dtd">
<svg version="1.1" id="Layer_1" xmlns="http://www.w3.org/2000/svg" xmlns:xlink="http://www.w3.org/1999/xlink" x="0px" y="0px" width="32px" height="32px" viewBox="0 0 32 32" enable-background="new 0 0 32 32" xml:space="preserve">
  <g id="icon">
    <path d="M23.0445,4.065C21.1462,2.1294,18.6444,1.0635,16,1.0635c-2.6444,0,-5.1462,1.066,-7.0446,3.0016c-0.4176,0.4258,-0.7939,0.8818,-1.1271,1.3629c-0.1652,0.2385,-0.0986,0.5663,0.1496,0.7166l1.7169,1.0392c0.2226,0.1347,0.514,0.0782,0.6638,-0.1346C11.6448,5.2212,13.715,4.0085,16,4.0085c3.7944,0,7,3.3411,7,7.2958V15.4h3v-4.0957C26,8.5792,24.9504,6.0083,23.0445,4.065z" fill="#ACACAC"/>
    <path d="M27.0708,14H4.8426c-0.4582,0,-0.8426,0.3482,-0.8426,0.8198v15.3263c0,0.4716,0.4175,0.8539,0.8758,0.8539h22.2946c0.4582,0,0.8297,-0.3823,0.8297,-0.8539V14.8198C28,14.3482,27.529,14,27.0708,14zM17.3,22.6918l0.5,4.2633c0,0.6871,-1.0672,1.0493,-1.75,1.0493s-1.85,-0.3622,-1.85,-1.0493l0.6,-4.2633c-0.7,-0.4322,-1.2352,-1.2373,-1.2352,-2.1616c0,-1.3799,1.1178,-2.4985,2.489,-2.4985s2.4844,1.1186,2.4844,2.4985C18.5382,21.4545,18.1,22.2596,17.3,22.6918z" fill="#ACACAC"/>
  </g>
</svg>
