<?xml version="1.0" encoding="UTF-8"?>
<!DOCTYPE svg PUBLIC "-//W3C//DTD SVG 1.1//EN" "http://www.w3.org/Graphics/SVG/1.1/DTD/svg11.dtd">
<svg version="1.1" id="Layer_1" xmlns="http://www.w3.org/2000/svg" xmlns:xlink="http://www.w3.org/1999/xlink" x="0px" y="0px" width="16px" height="16px" viewBox="0 0 16 16" enable-background="new 0 0 16 16" xml:space="preserve">
  <g id="main">
    <clipPath id="clip_mask">
      <path d="M6,11.5c0,-3.0327,2.4673,-5.5,5.5,-5.5c1.8588,0,3.5039,0.9278,4.5,2.3436V0H0v16h8.3436C6.9278,15.0039,6,13.3588,6,11.5z"/>
    </clipPath>
    <g id="icon" clip-path="url(#clip_mask)">
      <path d="M14.869,2.525c-0.086,-0.327,-0.4,-0.556,-0.763,-0.556c-0.027,0,-0.055,0.001,-0.082,0.004c-0.265,0.025,-0.532,0.038,-0.796,0.038c-2.799,0,-4.69,-1.398,-5.203,-1.826C7.882,0.066,7.697,0,7.504,0c-0.172,0,-0.342,0.054,-0.479,0.151c-0.777,0.555,-2.862,1.844,-5.431,1.845c-0.206,0,-0.414,-0.008,-0.617,-0.025c-0.023,-0.002,-0.047,-0.003,-0.07,-0.003c-0.365,0,-0.679,0.231,-0.765,0.561c-0.381,1.473,-0.104,6.342,2.166,9.093c1.52,1.843,3.169,2.941,5.04,3.358c0.059,0.013,0.12,0.02,0.181,0.02c0.061,0,0.122,-0.007,0.182,-0.02c2.338,-0.522,3.859,-2.068,4.922,-3.357C14.917,8.857,15.241,3.93,14.869,2.525zM13.427,6.353c-0.341,1.871,-0.999,3.471,-1.853,4.506c-0.947,1.147,-2.159,2.384,-3.972,2.856l-0.072,0.019l-0.072,-0.018c-1.481,-0.382,-2.818,-1.316,-4.089,-2.856c-0.847,-1.027,-1.493,-2.612,-1.817,-4.464c-0.254,-1.452,-0.223,-2.521,-0.197,-2.913l0.015,-0.234l0.251,-0.001c2.546,-0.008,4.664,-1.103,5.7,-1.756l0.158,-0.099l0.152,0.107c0.941,0.659,2.918,1.764,5.596,1.764c0.05,0,0.1,0,0.15,-0.001l0.26,-0.004l0.012,0.243C13.674,3.977,13.677,4.983,13.427,6.353z" fill="#CD4C32"/>
      <path d="M7.458,13.715c-1.481,-0.382,-2.818,-1.316,-4.089,-2.856c-0.847,-1.027,-1.493,-2.612,-1.817,-4.464c-0.254,-1.452,-0.223,-2.521,-0.197,-2.913l0.015,-0.234l0.251,-0.001c2.546,-0.008,4.664,-1.103,5.7,-1.756l0.158,-0.099l0.152,0.107c0.941,0.659,2.918,1.764,5.596,1.764c0.05,0,0.1,0,0.15,-0.001l0.26,-0.004l0.012,0.243c0.024,0.478,0.026,1.483,-0.224,2.854c-0.341,1.871,-0.999,3.471,-1.853,4.506c-0.947,1.147,-2.159,2.384,-3.972,2.856l-0.072,0.019L7.458,13.715z" fill="#FFFFFF"/>
    </g>
    <g id="overlay">
      <path d="M16,11.5c0,-2.4853,-2.0147,-4.5,-4.5,-4.5c-2.4853,0,-4.5,2.0147,-4.5,4.5s2.0147,4.5,4.5,4.5C13.9853,16,16,13.9853,16,11.5zM9,12v-1h5v1H9z" fill-rule="evenodd" fill="#CD4C32"/>
      <rect x="9" y="11" width="5" height="1" fill-rule="evenodd" fill="#FFFFFF"/>
    </g>
  </g>
</svg>
