<?xml version="1.0" encoding="utf-8"?>
<!-- Generator: Adobe Illustrator 19.0.0, SVG Export Plug-In . SVG Version: 6.00 Build 0)  -->
<svg version="1.1" id="Layer_1" xmlns="http://www.w3.org/2000/svg" xmlns:xlink="http://www.w3.org/1999/xlink" x="0px" y="0px"
	 viewBox="-281 404.9 32 32" style="enable-background:new -281 404.9 32 32;" xml:space="preserve">
<style type="text/css">
	.st0{fill:#4D9E7C;}
	.st1{fill:#FFFFFF;}
</style>
<g id="icon">
	<path class="st0" d="M-250.4,431.1l-12.6-23c-0.9-1.7-3.1-1.7-4,0l-12.6,23c-0.9,1.7,0.2,3.8,2,3.8h25.2
		C-250.6,434.9-249.5,432.8-250.4,431.1z M-263,430.5c0,0.2-0.2,0.4-0.4,0.4h-3.2c-0.2,0-0.4-0.2-0.4-0.4v-2.2
		c0-0.2,0.2-0.4,0.4-0.4h3.2c0.2,0,0.4,0.2,0.4,0.4V430.5z M-263,425.5c0,0.2-0.2,0.4-0.4,0.4h-3.2c-0.2,0-0.4-0.2-0.4-0.4v-10.2
		c0-0.2,0.2-0.4,0.4-0.4h3.2c0.2,0,0.4,0.2,0.4,0.4V425.5z"/>
	<path class="st1" d="M-263.4,425.9h-3.2c-0.2,0-0.4-0.2-0.4-0.4v-10.2c0-0.2,0.2-0.4,0.4-0.4h3.2c0.2,0,0.4,0.2,0.4,0.4v10.2
		C-263,425.7-263.2,425.9-263.4,425.9z M-263,430.5v-2.2c0-0.2-0.2-0.4-0.4-0.4h-3.2c-0.2,0-0.4,0.2-0.4,0.4v2.2
		c0,0.2,0.2,0.4,0.4,0.4h3.2C-263.2,430.9-263,430.7-263,430.5z"/>
</g>
</svg>
