<?xml version="1.0" encoding="utf-8"?>
<!-- Generator: Adobe Illustrator 19.0.0, SVG Export Plug-In . SVG Version: 6.00 Build 0)  -->
<svg version="1.1" id="Layer_1" xmlns="http://www.w3.org/2000/svg" xmlns:xlink="http://www.w3.org/1999/xlink" x="0px" y="0px"
	 viewBox="-297 389 16 16" style="enable-background:new -297 389 16 16;" xml:space="preserve">
<style type="text/css">
	.st0{fill:#B3B3B3;}
	.st1{fill:#FFFFFF;}
</style>
<g id="icon">
	<path class="st0" d="M-281.2,403l-6.7-12.3c-0.5-0.9-1.7-0.9-2.2,0l-6.7,12.3c-0.5,0.9,0.1,2,1.1,2h13.5
		C-281.3,405-280.7,403.9-281.2,403z M-288,402.6c0,0.2-0.2,0.4-0.4,0.4h-1.2c-0.2,0-0.4-0.2-0.4-0.4v-1.2c0-0.2,0.2-0.4,0.4-0.4
		h1.2c0.2,0,0.4,0.2,0.4,0.4V402.6z M-288,399.6c0,0.2-0.2,0.4-0.4,0.4h-1.2c-0.2,0-0.4-0.2-0.4-0.4v-5.2c0-0.2,0.2-0.4,0.4-0.4h1.2
		c0.2,0,0.4,0.2,0.4,0.4V399.6z"/>
	<path class="st1" d="M-288.4,400h-1.2c-0.2,0-0.4-0.2-0.4-0.4v-5.2c0-0.2,0.2-0.4,0.4-0.4h1.2c0.2,0,0.4,0.2,0.4,0.4v5.2
		C-288,399.8-288.2,400-288.4,400z M-288,402.6v-1.2c0-0.2-0.2-0.4-0.4-0.4h-1.2c-0.2,0-0.4,0.2-0.4,0.4v1.2c0,0.2,0.2,0.4,0.4,0.4
		h1.2C-288.2,403-288,402.8-288,402.6z"/>
</g>
</svg>
