<?xml version="1.0" encoding="UTF-8"?>
<!DOCTYPE svg PUBLIC "-//W3C//DTD SVG 1.1//EN" "http://www.w3.org/Graphics/SVG/1.1/DTD/svg11.dtd">
<svg version="1.1" id="Layer_1" xmlns="http://www.w3.org/2000/svg" xmlns:xlink="http://www.w3.org/1999/xlink" x="0px" y="0px" width="16px" height="16px" viewBox="0 0 16 16" enable-background="new 0 0 16 16" xml:space="preserve">
  <g id="icon">
    <path d="M11.4,4H0.6c-0.331,0,-0.6,-0.269,-0.6,-0.6V0.6c0,-0.331,0.269,-0.6,0.6,-0.6h10.8c0.331,0,0.6,0.269,0.6,0.6v2.8C12,3.731,11.731,4,11.4,4z" fill="#3E79B4"/>
    <path d="M15.4,10H8.6c-0.331,0,-0.6,-0.269,-0.6,-0.6V6.6c0,-0.331,0.269,-0.6,0.6,-0.6h6.8c0.331,0,0.6,0.269,0.6,0.6v2.8C16,9.731,15.731,10,15.4,10z" fill="#3E79B4"/>
    <path d="M15.4,16H8.6c-0.331,0,-0.6,-0.269,-0.6,-0.6v-2.8c0,-0.331,0.269,-0.6,0.6,-0.6h6.8c0.331,0,0.6,0.269,0.6,0.6v2.8C16,15.731,15.731,16,15.4,16z" fill="#3E79B4"/>
    <polygon points="8,9 8,8 4,8 4,4 3,4 3,15 3.5,15 4,15 8,15 8,14 4,14 4,9" fill="#6D6E71" stroke-linejoin="miter"/>
    <rect x="1.5" y="6.5" width="4" height="3" fill="#FFFFFF" stroke="#6D6E71" stroke-width="1" stroke-linecap="round" stroke-miterlimit="10" stroke-linejoin="round"/>
    <rect x="1.5" y="12.5" width="4" height="3" fill="#FFFFFF" stroke="#6D6E71" stroke-width="1" stroke-linecap="round" stroke-miterlimit="10" stroke-linejoin="round"/>
  </g>
</svg>
