<?xml version="1.0" encoding="UTF-8"?>
<!DOCTYPE svg PUBLIC "-//W3C//DTD SVG 1.1//EN" "http://www.w3.org/Graphics/SVG/1.1/DTD/svg11.dtd">
<svg version="1.1" id="Layer_1" xmlns="http://www.w3.org/2000/svg" xmlns:xlink="http://www.w3.org/1999/xlink" x="0px" y="0px" width="16px" height="16px" viewBox="0 0 16 16" enable-background="new 0 0 16 16" xml:space="preserve">
  <g id="icon">
    <path d="M6.343,7c-0.105,0,-0.192,-0.047,-0.258,-0.096c-0.063,-0.047,-0.111,-0.079,-0.142,-0.149L5.253,5.2H1.947l-0.695,1.544c-0.027,0.063,-0.075,0.124,-0.142,0.174C1.041,6.971,0.956,7,0.858,7h-0.871L3.045,0h1.111l3.053,7H6.343zM4.928,4.4L3.77,1.654c-0.06,-0.131,-0.119,-0.3,-0.176,-0.484c-0.02,0.066,-0.039,0.122,-0.058,0.181c-0.036,0.112,-0.074,0.229,-0.112,0.312L2.272,4.4H4.928z" fill="#3E79B4"/>
    <path d="M0.4,16v-0.467c0,-0.105,0.049,-0.238,0.128,-0.329L4.768,10H0.4V9h6v0.47c0,0.116,0.013,0.249,-0.068,0.351L2.097,15H6.4v1H0.4z" fill="#CD4C32"/>
    <path d="M13,12.572V0.184C12.997,0.08,12.92,0,12.817,0H11.2c-0.105,0,-0.191,0.084,-0.191,0.187v12.378L8.128,9.656C8.081,9.61,8,9.643,8,9.708v2.285c0,0.078,0.032,0.152,0.088,0.207l3.803,3.728c0.112,0.097,0.15,0.097,0.26,-0.006l3.76,-3.761c0.056,-0.055,0.088,-0.129,0.088,-0.207V9.673c0,-0.065,-0.081,-0.098,-0.128,-0.052L13,12.572z" fill="#797979"/>
  </g>
</svg>
