<?xml version="1.0" encoding="UTF-8"?>
<!DOCTYPE svg PUBLIC "-//W3C//DTD SVG 1.1//EN" "http://www.w3.org/Graphics/SVG/1.1/DTD/svg11.dtd">
<svg version="1.1" id="Layer_1" xmlns="http://www.w3.org/2000/svg" xmlns:xlink="http://www.w3.org/1999/xlink" x="0px" y="0px" width="16px" height="16px" viewBox="0 0 16 16" enable-background="new 0 0 16 16" xml:space="preserve">
  <g id="icon">
    <circle cx="8" cy="8" r="7.156" fill="#FFFFFF"/>
    <path d="M8,0C3.582,0,0,3.582,0,8s3.582,8,8,8s8,-3.582,8,-8S12.418,0,8,0zM8,15.051c-3.894,0,-7.051,-3.157,-7.051,-7.051S4.106,0.949,8,0.949S15.051,4.106,15.051,8S11.894,15.051,8,15.051z" fill-rule="evenodd" fill="#797979"/>
    <path d="M14.4,8.001c0,0.178,-0.008,0.353,-0.022,0.527c-0.05,0.067,-0.1,0.124,-0.141,0.171c-0.055,0.063,-0.111,0.116,-0.165,0.168c-0.047,0.045,-0.092,0.088,-0.129,0.13c-0.149,0.173,-0.205,0.299,-0.206,0.465c-0.003,0.506,-0.114,0.926,-0.341,1.284c-0.01,0.016,-0.016,0.027,-0.019,0.034c-0.004,0.421,-0.24,0.71,-0.431,0.942c-0.032,0.039,-0.064,0.078,-0.094,0.117c-0.178,0.229,-0.424,0.356,-0.694,0.356c-0.33,0,-0.646,-0.193,-0.846,-0.517c-0.208,-0.337,-0.291,-0.694,-0.372,-1.039c-0.026,-0.11,-0.05,-0.215,-0.078,-0.318c-0.047,-0.172,0.025,-0.322,0.073,-0.421c0.008,-0.016,0.016,-0.032,0.022,-0.047c0.07,-0.167,0.048,-0.341,-0.063,-0.517c-0.168,-0.266,-0.247,-0.517,-0.242,-0.78c-0.071,-0.015,-0.123,-0.049,-0.156,-0.078c-0.045,-0.039,-0.079,-0.047,-0.121,-0.047c-0.068,0,-0.155,0.024,-0.247,0.048c-0.058,0.016,-0.117,0.032,-0.18,0.044c-0.137,0.028,-0.241,0.045,-0.341,0.045c-0.325,0,-0.493,-0.194,-0.647,-0.414c-0.009,-0.006,-0.022,-0.015,-0.031,-0.021c-0.07,-0.046,-0.187,-0.123,-0.24,-0.268c-0.077,-0.212,-0.118,-0.427,-0.157,-0.635l-0.007,-0.039c-0.028,-0.146,-0.056,-0.317,-0.038,-0.492c0.016,-0.159,0.085,-0.328,0.188,-0.463c0.087,-0.114,0.182,-0.217,0.274,-0.316c0.05,-0.054,0.1,-0.108,0.148,-0.163c0.004,-0.007,0.012,-0.022,0.017,-0.032c0.012,-0.024,0.027,-0.054,0.047,-0.086c0.064,-0.102,0.129,-0.203,0.194,-0.303c-0.134,-0.103,-0.233,-0.279,-0.142,-0.581c0.003,-0.011,0.007,-0.022,0.01,-0.033c0.007,-0.22,0.197,-0.331,0.312,-0.398c0.017,-0.01,0.034,-0.02,0.049,-0.029c0.015,-0.01,0.031,-0.018,0.047,-0.026c-0.041,-0.063,-0.059,-0.138,-0.05,-0.214c0.012,-0.101,0.072,-0.191,0.161,-0.242l0.736,-0.419c-0.013,-0.009,-0.026,-0.02,-0.038,-0.031c-0.145,-0.134,-0.161,-0.28,-0.158,-0.356c0.01,-0.216,0.171,-0.34,0.258,-0.407l0.009,-0.007c0.105,-0.081,0.212,-0.149,0.324,-0.221c0.027,-0.017,0.056,-0.036,0.084,-0.054C13.002,3.39,14.4,5.532,14.4,8.001zM1.632,7.369c0.001,0,0.001,0.001,0.002,0.001c0.083,0.033,0.167,0.063,0.252,0.094c0.429,0.156,0.799,0.292,1.002,0.661c0.047,0.084,0.127,0.141,0.217,0.16c-0.004,0.047,-0.008,0.092,-0.014,0.129c-0.003,0.011,-0.019,0.04,-0.03,0.061c-0.054,0.101,-0.155,0.289,-0.078,0.532c0.005,0.016,0.007,0.05,0.008,0.085c-0.015,0.025,-0.027,0.052,-0.035,0.081c-0.025,0.091,-0.009,0.187,0.044,0.265c0.049,0.073,0.099,0.146,0.148,0.219c0.129,0.191,0.262,0.389,0.4,0.581c0.123,0.17,0.259,0.275,0.405,0.313c0.102,0.027,0.163,0.071,0.191,0.229c0.039,0.222,0.068,0.464,0.09,0.742c0.016,0.199,0.027,0.404,0.039,0.602c0.016,0.279,0.033,0.568,0.061,0.854c0.007,0.077,0.018,0.186,0.045,0.3c0.248,0.17,0.508,0.323,0.779,0.458c0.102,-0.037,0.21,-0.093,0.328,-0.162c0.076,-0.044,0.115,-0.105,0.13,-0.13c0.051,-0.069,0.073,-0.157,0.059,-0.242c-0.008,-0.048,-0.026,-0.093,-0.053,-0.132c0.061,-0.092,0.073,-0.212,0.023,-0.317l-0.015,-0.032c0.108,-0.109,0.21,-0.212,0.306,-0.33c0.19,-0.231,0.332,-0.426,0.445,-0.614c0.066,-0.11,0.087,-0.223,0.103,-0.313c0.007,-0.038,0.014,-0.077,0.023,-0.1c0.006,-0.015,0.011,-0.028,0.015,-0.037c0.369,-0.146,0.715,-0.391,0.663,-1.012c-0.009,-0.11,0.017,-0.206,0.091,-0.333c0.092,-0.158,0.136,-0.33,0.171,-0.468c0.012,-0.046,0.023,-0.091,0.036,-0.131c0.048,-0.155,-0.026,-0.321,-0.173,-0.389c-0.115,-0.053,-0.224,-0.104,-0.329,-0.153c-0.238,-0.111,-0.463,-0.215,-0.689,-0.314l-0.033,-0.014c-0.035,-0.015,-0.084,-0.036,-0.112,-0.053c0,0,0,-0.001,0,-0.001c0.021,-0.21,-0.147,-0.363,-0.297,-0.429c-0.117,-0.052,-0.236,-0.101,-0.351,-0.148c-0.207,-0.085,-0.403,-0.165,-0.587,-0.262l-0.012,-0.006c-0.241,-0.127,-0.49,-0.259,-0.778,-0.259c-0.211,0,-0.407,0.072,-0.586,0.215c-0.031,0.006,-0.061,0.016,-0.088,0.03c-0.003,-0.017,-0.006,-0.034,-0.009,-0.051c-0.012,-0.077,-0.019,-0.158,-0.025,-0.237c-0.003,-0.035,-0.006,-0.07,-0.009,-0.102c-0.013,-0.132,-0.105,-0.239,-0.226,-0.277l0.029,-0.074c0.059,-0.146,0.003,-0.313,-0.132,-0.395c-0.092,-0.056,-0.186,-0.084,-0.279,-0.084c-0.188,0,-0.307,0.109,-0.378,0.196c-0.002,-0.015,-0.002,-0.032,-0.001,-0.049c0.002,-0.052,0.016,-0.093,0.03,-0.119c0.037,-0.006,0.074,-0.012,0.111,-0.018c0.159,-0.026,0.308,-0.05,0.459,-0.065c0.047,-0.005,0.092,-0.009,0.127,-0.011c0.021,0.049,0.048,0.122,0.068,0.176c0.049,0.132,0.179,0.217,0.32,0.21c0.141,-0.007,0.262,-0.105,0.297,-0.242c0.011,-0.042,0.019,-0.08,0.027,-0.116c0.01,-0.045,0.019,-0.087,0.028,-0.107c0.018,-0.04,0.035,-0.082,0.051,-0.124c0.036,-0.09,0.073,-0.182,0.112,-0.222c0.288,-0.292,0.602,-0.56,0.871,-0.783c0.049,-0.041,0.106,-0.08,0.17,-0.12c0.095,0.032,0.203,0.019,0.289,-0.04c0.311,-0.215,0.623,-0.462,0.985,-0.777c0.156,-0.136,0.166,-0.375,0.157,-0.449c-0.013,-0.113,-0.077,-0.207,-0.175,-0.259c-0.039,-0.021,-0.053,-0.048,-0.083,-0.218c-0.005,-0.026,-0.009,-0.051,-0.014,-0.077c-0.014,-0.072,-0.057,-0.171,-0.183,-0.239c-0.037,-0.022,-0.078,-0.036,-0.121,-0.041c-0.018,-0.027,-0.04,-0.052,-0.067,-0.073c-0.172,-0.138,-0.323,-0.202,-0.475,-0.202c-0.096,0,-0.301,0.031,-0.438,0.268c-0.132,0.019,-0.24,0.117,-0.27,0.248c-0.017,0.075,-0.069,0.134,-0.157,0.218c-0.019,-0.016,-0.04,-0.031,-0.061,-0.044c-0.083,-0.048,-0.165,-0.062,-0.223,-0.07c-0.108,-0.09,-0.223,-0.141,-0.343,-0.151C2.652,4.127,1.801,5.648,1.632,7.369z" fill="#4EA17E"/>
  </g>
</svg>
