<?xml version="1.0" encoding="UTF-8"?>
<!DOCTYPE svg PUBLIC "-//W3C//DTD SVG 1.1//EN" "http://www.w3.org/Graphics/SVG/1.1/DTD/svg11.dtd">
<svg version="1.1" id="Layer_1" xmlns="http://www.w3.org/2000/svg" xmlns:xlink="http://www.w3.org/1999/xlink" x="0px" y="0px" width="16px" height="16px" viewBox="0 0 16 16" enable-background="new 0 0 16 16" xml:space="preserve">
  <g id="icon">
    <path d="M1.2007,6.4c-0.1457,0,-0.2535,-0.1384,-0.2147,-0.2789c0.2842,-1.03,0.8194,-2.002,1.607,-2.8118c1.2499,-1.2852,2.9322,-1.9929,4.7372,-1.9929c1.5085,0,3.1107,0.6664,4.3605,1.6541l0.2337,0.1847V0.2871c0,-0.1978,0.2392,-0.2969,0.3791,-0.157l1.4314,1.4314c0.0416,0.0416,0.065,0.0981,0.065,0.157v4.4594c0,0.1226,-0.0994,0.2221,-0.2221,0.2221H9.0982c-0.0583,0,-0.1142,-0.0229,-0.1557,-0.0638L7.4884,4.9057c-0.1419,-0.1396,-0.0427,-0.3809,0.1563,-0.3804l2.4913,0.0066l-0.5933,-0.4092c-0.0051,-0.0035,-0.0104,-0.0069,-0.0158,-0.0101c-0.676,-0.3981,-1.4506,-0.6085,-2.2408,-0.6085c-1.2076,0,-2.3382,0.488,-3.1835,1.374c-0.395,0.414,-0.6933,0.8852,-0.8968,1.3854C3.172,6.3465,3.0906,6.4,3.0011,6.4H1.2007zM13.3993,9.6c0.1457,0,0.2535,0.1384,0.2147,0.2789c-0.2842,1.03,-0.8194,2.002,-1.607,2.8118c-1.2499,1.2852,-2.9322,1.9929,-4.7372,1.9929c-1.5085,0,-3.1107,-0.6664,-4.3605,-1.6541l-0.2337,-0.1847v2.8681c0,0.1978,-0.2392,0.2969,-0.3791,0.157L0.865,14.4385c-0.0416,-0.0416,-0.065,-0.0981,-0.065,-0.157V9.8221C0.8,9.6994,0.8994,9.6,1.0221,9.6h4.4798c0.0583,0,0.1142,0.0229,0.1557,0.0638l1.4541,1.4306c0.1419,0.1396,0.0427,0.3809,-0.1563,0.3804l-2.4913,-0.0066l0.5933,0.4092c0.0051,0.0035,0.0104,0.0069,0.0158,0.0101c0.676,0.3981,1.4506,0.6085,2.2408,0.6085c1.2076,0,2.3382,-0.488,3.1835,-1.374c0.395,-0.414,0.6933,-0.8852,0.8968,-1.3854c0.0337,-0.0829,0.1151,-0.1365,0.2046,-0.1365H13.3993z" fill="#529FBF"/>
  </g>
</svg>
