<?xml version="1.0" encoding="UTF-8"?>
<!DOCTYPE svg PUBLIC "-//W3C//DTD SVG 1.1//EN" "http://www.w3.org/Graphics/SVG/1.1/DTD/svg11.dtd">
<svg version="1.1" id="Layer_1" xmlns="http://www.w3.org/2000/svg" xmlns:xlink="http://www.w3.org/1999/xlink" x="0px" y="0px" width="16px" height="16px" viewBox="0 0 16 16" enable-background="new 0 0 16 16" xml:space="preserve">
  <g id="main">
    <g id="icon">
      <path d="M1.958,4.559L1.72,4.72L1.559,4.958L1.5,5.25L1.5,13.75L1.559,14.04L1.72,14.28L1.958,14.44L2.25,14.5L6.968,14.5L6.91,14.28L6.95,13.82L7.154,13.38L7.282,13.2L7.117,13.17L6.67,13.01L6.316,12.71L6.084,12.31L6,11.84L6,11.13L6.084,10.66L6.316,10.26L6.67,9.96L7.117,9.797L7.363,9.753L7.229,9.564L7.027,9.131L6.987,8.67L7.106,8.222L7.379,7.83L7.882,7.327L8.088,7.157L8.32,7.033L8.572,6.957L8.838,6.931L9.246,6.994L9.616,7.177L9.796,7.304L9.828,7.12L9.991,6.671L10.29,6.317L10.69,6.084L11.16,6L11.87,6L12.34,6.084L12.74,6.317L13.04,6.671L13.2,7.12L13.25,7.389L13.44,7.259L13.5,7.227L13.5,5.25L13.44,4.958L13.28,4.72L13.04,4.559L12.75,4.5L2.25,4.5zz" fill="#FFFFFF"/>
      <path d="M1,13.75L1.025,14L1.098,14.24L1.367,14.63L1.764,14.9L1.998,14.97L2.25,15L7.219,15L7.028,14.73L6.91,14.28L6.934,14L1.45,14L1.815,13.98L1.973,13.93L2.007,13.85L2,13.75L2,6.757L1.6,6.811L1.29,6.78L1,6.691zM13.71,6.78L13.4,6.811L13.08,6.767L13.2,7.12L13.25,7.389L13.44,7.259L13.81,7.075L14,7.045L14,6.691zz" fill="#797979"/>
      <path d="M3.371,8.045L3.188,8.169L3.064,8.352L3.019,8.575L3.019,15L6,15L6,11.84L6,11.13L6,8.588L5.954,8.359L5.827,8.173L5.641,8.046L5.413,8L3.594,8zz" fill="#3E79B4"/>
      <path d="M7.124,8.124L7.033,8.26L7,8.425L7,8.622L7.106,8.222L7.217,8.062zM7,9.839L7.117,9.797L7.363,9.753L7.229,9.564L7.027,9.131L7,8.817zz" fill="#529FBF"/>
      <path d="M3.018,3.669L2.998,3.669L2.998,4.581L3.029,4.886L3.116,5.171L3.255,5.429L3.438,5.654L3.66,5.84L3.915,5.98L4.196,6.069L4.497,6.1L4.798,6.069L5.079,5.98L5.334,5.84L5.556,5.654L5.739,5.429L5.878,5.171L5.965,4.886L5.996,4.581L5.996,3.7L6.746,0L5.246,0zM8.994,3.7L8.994,4.581L9.025,4.886L9.112,5.171L9.251,5.429L9.434,5.654L9.656,5.84L9.911,5.98L10.19,6.069L10.49,6.1L10.74,6.074L10.82,6.06L11.08,5.98L11.33,5.84L11.55,5.654L11.74,5.429L11.87,5.171L11.96,4.886L11.99,4.581L11.99,3.669L11.97,3.669L9.744,0L8.245,0zz" fill="#D1D3D4"/>
      <path d="M0.03301,3.669L0,3.669L0,4.581L0.03066,4.886L0.1184,5.171L0.2568,5.429L0.4402,5.654L0.6623,5.84L0.917,5.98L1.198,6.069L1.499,6.1L1.8,6.069L2.081,5.98L2.336,5.84L2.558,5.654L2.741,5.429L2.88,5.171L2.967,4.886L2.998,4.581L2.998,3.7L5.246,0L3.747,0zM6.003,3.669L5.996,3.669L5.996,4.581L6.027,4.886L6.114,5.171L6.253,5.429L6.436,5.654L6.658,5.84L6.913,5.98L7.194,6.069L7.495,6.1L7.796,6.069L8.077,5.98L8.332,5.84L8.554,5.654L8.737,5.429L8.876,5.171L8.963,4.886L8.994,4.581L8.994,3.669L8.987,3.669L8.245,0L6.746,0zM11.99,3.7L11.99,4.581L12.02,4.886L12.11,5.171L12.25,5.429L12.43,5.654L12.65,5.84L12.91,5.98L13.19,6.069L13.49,6.1L13.79,6.069L14.07,5.98L14.33,5.84L14.55,5.654L14.73,5.429L14.87,5.171L14.96,4.886L14.99,4.581L14.99,3.669L14.96,3.669L11.24,0L9.744,0zz" fill="#3E79B4"/>
    </g>
    <g id="overlay">
      <path d="M16,11.901v-0.7117c0,-0.1709,-0.1229,-0.3171,-0.2913,-0.3464l-1.0364,-0.1803c-0.0666,-0.2426,-0.1627,-0.481,-0.2881,-0.7109l0.6207,-0.8821c0.0984,-0.1398,0.0819,-0.33,-0.0389,-0.4509l-0.5033,-0.5033c-0.1209,-0.1209,-0.3111,-0.1373,-0.4509,-0.0389l-0.8569,0.6029c-0.2371,-0.1393,-0.4897,-0.2481,-0.7517,-0.3248l-0.185,-1.0632c-0.0293,-0.1684,-0.1754,-0.2913,-0.3464,-0.2913h-0.7118c-0.1709,0,-0.3171,0.1229,-0.3464,0.2913l-0.1802,1.0357c-0.2458,0.0642,-0.4875,0.1577,-0.7208,0.2819l-0.8724,-0.6138c-0.1398,-0.0984,-0.33,-0.0819,-0.4509,0.0389l-0.5033,0.5033c-0.1209,0.1209,-0.1373,0.3111,-0.0389,0.4509l0.5843,0.8304c-0.1491,0.2465,-0.2496,0.5107,-0.3301,0.785l-1.0105,0.1778C7.1226,10.811,7,10.957,7,11.1277v0.713c0,0.1707,0.1226,0.3167,0.2906,0.3462l0.978,0.1721c0.0666,0.2609,0.159,0.5173,0.2932,0.764l-0.5916,0.8368c-0.0988,0.1397,-0.0826,0.3302,0.0382,0.4513l0.5013,0.5024c0.1209,0.1211,0.3114,0.1376,0.4513,0.0391l0.8042,-0.5663c0.2554,0.1527,0.5289,0.2551,0.8134,0.3345l0.1736,0.9884c0.0295,0.1681,0.1756,0.2908,0.3463,0.2908h0.7129c0.1707,0,0.3167,-0.1226,0.3462,-0.2906l0.1722,-0.9787c0.2577,-0.0693,0.5108,-0.1638,0.7542,-0.2994l0.8465,0.5985c0.1397,0.0988,0.3302,0.0826,0.4513,-0.0382l0.5024,-0.5014c0.1211,-0.1209,0.1376,-0.3114,0.0391,-0.4513l-0.585,-0.8307c0.1429,-0.246,0.2535,-0.5079,0.3292,-0.7802l1.0411,-0.1808C15.877,12.2182,16,12.072,16,11.901zM12.2343,12.8625c-0.7309,0.422,-1.6655,0.1716,-2.0875,-0.5593c-0.422,-0.7309,-0.1716,-1.6655,0.5593,-2.0875c0.7309,-0.422,1.6655,-0.1716,2.0875,0.5593C13.2156,11.5059,12.9652,12.4405,12.2343,12.8625z" fill-rule="evenodd" fill="#E68055"/>
    </g>
  </g>
</svg>
