<?xml version="1.0" encoding="UTF-8"?>
<!DOCTYPE svg PUBLIC "-//W3C//DTD SVG 1.1//EN" "http://www.w3.org/Graphics/SVG/1.1/DTD/svg11.dtd">
<svg version="1.1" id="Layer_1" xmlns="http://www.w3.org/2000/svg" xmlns:xlink="http://www.w3.org/1999/xlink" x="0px" y="0px" width="16px" height="16px" viewBox="0 0 16 16" enable-background="new 0 0 16 16" xml:space="preserve">
  <g id="icon">
    <path d="M13.75,15.5h-11.5c-0.4142,0,-0.75,-0.3358,-0.75,-0.75v-9.5c0,-0.4142,0.3358,-0.75,0.75,-0.75h11.5c0.4142,0,0.75,0.3358,0.75,0.75v9.5C14.5,15.1642,14.1642,15.5,13.75,15.5z" fill="#FFFFFF"/>
    <path d="M14.4,7.211c-0.1383,0,-0.2718,-0.0199,-0.4,-0.0537V14.75c0,0.1378,-0.1122,0.25,-1.05,0.25h-11.5c0.6622,0,0.55,-0.1122,0.55,-0.25V7.1573c-0.1282,0.0338,-0.2617,0.0537,-0.4,0.0537c-0.212,0,-0.4144,-0.0432,-0.6,-0.12v7.659c0,0.6893,0.5607,1.25,1.25,1.25h11.5c0.6893,0,1.25,-0.5607,1.25,-1.25V7.091C14.8144,7.1678,14.612,7.211,14.4,7.211z" fill="#797979"/>
    <path d="M6.4125,8H3.5937c-0.3162,0,-0.575,0.2588,-0.575,0.575V16H7V8.5875C7,8.2644,6.7356,8,6.4125,8z" fill="#3E79B4"/>
    <path d="M12.575,13h-4.15c-0.2347,0,-0.425,-0.1903,-0.425,-0.425v-4.15c0,-0.2347,0.1903,-0.425,0.425,-0.425h4.15c0.2347,0,0.425,0.1903,0.425,0.425v4.15C13,12.8097,12.8097,13,12.575,13z" fill="#529FBF"/>
    <path d="M12.8,3.9166v0.9729c0,0.8918,-0.72,1.6215,-1.6,1.6215c-0.88,0,-1.6,-0.7297,-1.6,-1.6215V3.949L8.8,0h1.6l2.3789,3.9166H12.8zM3.2211,3.9166H3.2v0.9729c0,0.8918,0.72,1.6215,1.6,1.6215s1.6,-0.7297,1.6,-1.6215V3.949L7.2,0H5.6L3.2211,3.9166z" fill="#D1D3D4"/>
    <path d="M16,3.9166v0.9729c0,0.8918,-0.72,1.6215,-1.6,1.6215c-0.88,0,-1.6,-0.7297,-1.6,-1.6215V3.949L10.4,0h1.6l3.9648,3.9166H16zM0.0352,3.9166H0v0.9729C0,5.7813,0.72,6.511,1.6,6.511c0.88,0,1.6,-0.7297,1.6,-1.6215V3.949L5.6,0H4L0.0352,3.9166zM8.8,0H7.2l-0.793,3.9166H6.4v0.9729c0,0.8918,0.72,1.6215,1.6,1.6215s1.6,-0.7297,1.6,-1.6215v-0.9729h-0.007L8.8,0z" fill="#3E79B4"/>
  </g>
</svg>
