<?xml version="1.0" encoding="UTF-8"?>
<!DOCTYPE svg PUBLIC "-//W3C//DTD SVG 1.1//EN" "http://www.w3.org/Graphics/SVG/1.1/DTD/svg11.dtd">
<svg version="1.1" id="Layer_1" xmlns="http://www.w3.org/2000/svg" xmlns:xlink="http://www.w3.org/1999/xlink" x="0px" y="0px" width="16px" height="16px" viewBox="0 0 16 16" enable-background="new 0 0 16 16" xml:space="preserve">
  <g id="main">
    <clipPath id="clip_mask">
      <path d="M9.3726,13.9152l-0.022,-0.0222c-0.226,-0.2352,-0.3505,-0.5444,-0.3505,-0.8706v-1.9222c0,-0.616,0.5014,-1.117,1.1177,-1.117c0.2909,0,0.5566,0.1112,0.766,0.3135l0.1163,0.119V8.2563C11,7.5636,11.5812,7,12.2739,7h1.5012C14.462,7,15,7.5557,15,8.265v2.1508l0.1047,-0.1002c0.2097,-0.2036,0.485,-0.3156,0.777,-0.3156c0.04,0,0.0794,0.0023,0.1183,0.0065V0H0v16h11.5017C10.6013,15.1162,9.3882,13.9305,9.3726,13.9152z" fill-rule="evenodd"/>
    </clipPath>
    <g id="icon" clip-path="url(#clip_mask)">
      <path d="M3.1357,14.6637l1.7799,-2.8575c0.4606,-0.4614,0.4466,-1.2255,-0.0321,-1.703l-0.7464,-0.7449c-0.2363,-0.2359,-0.2381,-0.6173,-0.0035,-0.8548c0.9718,-0.9838,3.3684,-3.3749,4.3543,-4.3453c0.2381,-0.2344,0.6207,-0.2326,0.8571,0.0035l0.7467,0.7455c0.4794,0.4782,1.245,0.4914,1.707,0.0311l2.8644,-1.7756c0.4613,-0.4603,0.4473,-1.2248,-0.0321,-1.703c0,0,-1.2834,-1.2615,-2.5916,-1.4124C9.4978,-0.2585,7.175,0.9002,4.023,4.0451C-0.3337,8.3922,-0.0046,11.8954,0.0115,12.0465c0,1.2104,1.3966,2.5864,1.3966,2.5864C1.8875,15.1101,2.6731,15.1238,3.1357,14.6637z" fill="#FF0000"/>
    </g>
    <g id="overlay">
      <path d="M15.9301,13.2288c0.0451,-0.0478,0.0701,-0.111,0.0699,-0.1767l-0.0006,-1.9354c-0.0003,-0.1039,-0.1259,-0.1557,-0.1994,-0.0823l-1.8,1.7219V8.265c0,-0.1416,-0.0833,-0.265,-0.2249,-0.265h-0.5601h-0.502h-0.4391c-0.1416,0,-0.2563,0.1148,-0.2563,0.2563v4.4912l-1.8185,-1.7304c-0.0737,-0.0732,-0.1991,-0.0209,-0.1991,0.0829v1.9222c0,0.0662,0.0256,0.1299,0.0715,0.1776c0,0,2.0193,1.9735,2.7965,2.7414c0.0795,0.0786,0.204,0.078,0.2828,-0.0013C13.9127,15.1735,15.9301,13.2288,15.9301,13.2288z" fill-rule="evenodd" fill="#FF0000"/>
    </g>
  </g>
</svg>
