<?xml version="1.0" encoding="utf-8"?>
<!-- Generator: Adobe Illustrator 19.0.0, SVG Export Plug-In . SVG Version: 6.00 Build 0)  -->
<svg version="1.1" id="Livello_1" xmlns="http://www.w3.org/2000/svg" xmlns:xlink="http://www.w3.org/1999/xlink" x="0px" y="0px"
	 viewBox="-285 408.9 24 24" style="enable-background:new -285 408.9 24 24;" xml:space="preserve">
<style type="text/css">
	.st0{fill:#FFFFFF;}
</style>
<path class="st0" d="M-269,419.9c0,2.2-1.8,4-4,4s-4-1.8-4-4v-7c0-2.2,1.8-4,4-4s4,1.8,4,4V419.9z M-265,417.9v2c0,4.4-3.6,8-8,8
	s-8-3.6-8-8v-2h2v2c0,3.3,2.7,6,6,6s6-2.7,6-6v-2H-265z M-272,430.9v-2h-2v2h-4v2h10v-2H-272z"/>
</svg>
