<?xml version="1.0" encoding="utf-8"?>
<!-- Generator: Adobe Illustrator 19.0.0, SVG Export Plug-In . SVG Version: 6.00 Build 0)  -->
<svg version="1.1" id="Livello_1" xmlns="http://www.w3.org/2000/svg" xmlns:xlink="http://www.w3.org/1999/xlink" x="0px" y="0px"
	 viewBox="-285 408.9 24 24" style="enable-background:new -285 408.9 24 24;" xml:space="preserve">
<style type="text/css">
	.st0{fill:#FF0000;}
</style>
<path class="st0" d="M-273,410.9c1.1,0,2,0.9,2,2v7c0,1.1-0.9,2-2,2s-2-0.9-2-2v-7C-275,411.8-274.1,410.9-273,410.9z M-273,408.9
	c-2.2,0-4,1.8-4,4v7c0,2.2,1.8,4,4,4s4-1.8,4-4v-7C-269,410.7-270.8,408.9-273,408.9z M-265,417.9v2c0,4.4-3.6,8-8,8s-8-3.6-8-8v-2
	h2v2c0,3.3,2.7,6,6,6s6-2.7,6-6v-2H-265z M-272,430.9v-2h-2v2h-4v2h10v-2H-272z"/>
</svg>
