<?xml version="1.0" encoding="utf-8"?>
<!-- Generator: Adobe Illustrator 19.0.0, SVG Export Plug-In . SVG Version: 6.00 Build 0)  -->
<svg version="1.1" id="Layer_1" xmlns="http://www.w3.org/2000/svg" xmlns:xlink="http://www.w3.org/1999/xlink" x="0px" y="0px"
	 viewBox="-289 412.9 16 16" style="enable-background:new -289 412.9 16 16;" xml:space="preserve">
<style type="text/css">
	.st0{fill:#FFFFFF;}
</style>
<g id="icon">
	<polygon class="st0" points="-275.5,420.9 -278,418.4 -278,419.9 -280,419.9 -280,417.9 -278.5,417.9 -281,415.4 -283.5,417.9 
		-282,417.9 -282,419.9 -284,419.9 -284,418.4 -286.5,420.9 -284,423.4 -284,421.9 -282,421.9 -282,423.9 -283.5,423.9 -281,426.4 
		-278.5,423.9 -280,423.9 -280,421.9 -278,421.9 -278,423.4 	"/>
	<path class="st0" d="M-284,427.9h-3.8c-0.7,0-1.2-0.6-1.2-1.2v-3.8h1v3.8c0,0.1,0.1,0.2,0.2,0.2h3.8V427.9z M-288,415.1
		c0-0.1,0.1-0.2,0.2-0.2h3.8v-1h-3.8c-0.7,0-1.2,0.5-1.2,1.2v3.8h1V415.1z M-274,426.7c0,0.1-0.1,0.2-0.2,0.2h-3.8v1h3.8
		c0.7,0,1.2-0.5,1.2-1.2v-3.8h-1V426.7z M-274.3,413.9h-3.8v1h3.8c0.1,0,0.3,0.1,0.3,0.3v3.8h1v-3.8
		C-273,414.5-273.6,413.9-274.3,413.9z"/>
</g>
</svg>
