<?xml version="1.0" encoding="UTF-8"?>
<!DOCTYPE svg PUBLIC "-//W3C//DTD SVG 1.1//EN" "http://www.w3.org/Graphics/SVG/1.1/DTD/svg11.dtd">
<svg version="1.1" id="Layer_1" xmlns="http://www.w3.org/2000/svg" xmlns:xlink="http://www.w3.org/1999/xlink" x="0px" y="0px" width="16px" height="16px" viewBox="0 0 16 16" enable-background="new 0 0 16 16" xml:space="preserve">
  <g id="icon">
    <path d="M15.7,1.747L14.1864,0.3446C13.947,0.123,13.6228,0,13.7166,0H3.2635C2.2302,0,2,0.4722,2,1.4v11.2c0,0.9278,0.3157,1.4,1.2635,1.4H14.8c0.904,0,1.2,-0.276,1.2,-1.2V2.4C16,2.0715,15.9411,1.9701,15.7,1.747zM5,1h8v3c0,0.5523,-0.4477,1,-1,1H5.9365C5.4193,5,5,4.5807,5,4.0635V1zM14,12.2c0,0.4271,-0.3462,0.8,-0.7733,0.8H4.7569c-0.4271,0,-0.7569,-0.3729,-0.7569,-0.8V7.7733C4,7.3462,4.3298,7,4.7569,7h8.4091c0.4606,0,0.834,0.3734,0.834,0.834V12.2z" fill="#8C53A1"/>
    <path d="M12.2198,5H5.7167C5.3209,5,5,4.6791,5,4.2833V1h8v3.2198C13,4.6507,12.6507,5,12.2198,5z" fill="#FFFFFF"/>
    <path d="M13.51,12.9733H4.4735c-0.2706,0,-0.49,-0.2194,-0.49,-0.49V7.49c0,-0.2706,0.2194,-0.49,0.49,-0.49h8.9758c0.3041,0,0.5507,0.2466,0.5507,0.5507v4.9326C14,12.754,13.7806,12.9733,13.51,12.9733z" fill="#FFFFFF"/>
    <path d="M10.6932,4H9.3068C9.1373,4,9,3.8627,9,3.6932V2.3068C9,2.1373,9.1373,2,9.3068,2h1.3865c0.1694,0,0.3068,0.1373,0.3068,0.3068v1.3865C11,3.8627,10.8627,4,10.6932,4z" fill="#6D6E71"/>
    <path d="M6.5,8.5h5M6.5,10.5h5" fill="none" stroke="#B4B4B5" stroke-width="1" stroke-linecap="round" stroke-miterlimit="1"/>
    <path d="M0.5,2.5v11.6c0,0.7732,0.6268,1.4,1.4,1.4h11.6" fill="none" stroke="#8C53A1" stroke-width="1" stroke-linecap="round" stroke-miterlimit="1" stroke-linejoin="round"/>
  </g>
</svg>
