<?xml version="1.0" encoding="UTF-8"?>
<!DOCTYPE svg PUBLIC "-//W3C//DTD SVG 1.1//EN" "http://www.w3.org/Graphics/SVG/1.1/DTD/svg11.dtd">
<svg version="1.1" id="Layer_1" xmlns="http://www.w3.org/2000/svg" xmlns:xlink="http://www.w3.org/1999/xlink" x="0px" y="0px" width="16px" height="16px" viewBox="0 0 16 16" enable-background="new 0 0 16 16" xml:space="preserve">
  <g id="icon">
    <path d="M15.7,1.747L14.1864,0.3446C13.947,0.123,13.6228,0,13.7166,0H1.3C0.2667,0,0,0.4722,0,1.4v13.2c0,0.9278,0.3522,1.4,1.3,1.4h13.5c0.904,0,1.2,-0.276,1.2,-1.2V2.4C16,2.0715,15.9411,1.9701,15.7,1.747zM3,1h10v4c0,0.5523,-0.4477,1,-1,1H3.9365C3.4193,6,3,5.5807,3,5.0635V1zM14,14.2c0,0.4271,-0.3462,0.8,-0.7733,0.8H2.7933c-0.4271,0,-0.7933,-0.3729,-0.7933,-0.8V8.7733C2,8.3462,2.3662,8,2.7933,8H13.166c0.4606,0,0.834,0.3734,0.834,0.834V14.2z" fill="#8C53A1"/>
    <path d="M12.2198,6H3.7167C3.3209,6,3,5.6791,3,5.2833V1h10v4.2198C13,5.6507,12.6507,6,12.2198,6z" fill="#FFFFFF"/>
    <path d="M13.51,14.9733h-11c-0.2706,0,-0.49,-0.2194,-0.49,-0.49V8.49c0,-0.2706,0.2194,-0.49,0.49,-0.49h10.9393c0.3041,0,0.5507,0.2466,0.5507,0.5507v5.9326C14,14.754,13.7806,14.9733,13.51,14.9733z" fill="#FFFFFF"/>
    <path d="M10.6932,5H9.3068C9.1373,5,9,4.8627,9,4.6932V2.3068C9,2.1373,9.1373,2,9.3068,2h1.3865c0.1694,0,0.3068,0.1373,0.3068,0.3068v2.3865C11,4.8627,10.8627,5,10.6932,5z" fill="#6D6E71"/>
    <path d="M5,10.5h6M5,12.5h6" fill="none" stroke="#B4B4B5" stroke-width="1" stroke-linecap="round" stroke-miterlimit="1"/>
  </g>
</svg>
