<?xml version="1.0" encoding="UTF-8"?>
<!DOCTYPE svg PUBLIC "-//W3C//DTD SVG 1.1//EN" "http://www.w3.org/Graphics/SVG/1.1/DTD/svg11.dtd">
<svg version="1.1" id="Layer_1" xmlns="http://www.w3.org/2000/svg" xmlns:xlink="http://www.w3.org/1999/xlink" x="0px" y="0px" width="16px" height="16px" viewBox="0 0 16 16" enable-background="new 0 0 16 16" xml:space="preserve">
  <g id="main">
    <clipPath id="clip_mask">
      <path d="M7.6564,0C9.0722,0.9961,10,2.6412,10,4.5c0,3.0327,-2.4673,5.5,-5.5,5.5c-1.8588,0,-3.5039,-0.9278,-4.5,-2.3436V16h16V0H7.6564z"/>
    </clipPath>
    <g id="icon" clip-path="url(#clip_mask)">
      <g id="transformed_icon" transform="translate(1 1)">
        <path d="M14.7,1.747L13.1864,0.3446C12.947,0.123,12.6228,0,12.7166,0H1.3C0.2667,0,0,0.4722,0,1.4v12.2c0,0.9278,0.3522,1.4,1.3,1.4h12.5c0.904,0,1.2,-0.276,1.2,-1.2V2.4C15,2.0715,14.9411,1.9701,14.7,1.747zM3,1h9v4c0,0.5523,-0.4477,1,-1,1H3.9365C3.4193,6,3,5.5807,3,5.0635V1zM13,13.2c0,0.4271,-0.3462,0.8,-0.7733,0.8H2.7933c-0.4271,0,-0.7933,-0.3729,-0.7933,-0.8V8.7733C2,8.3462,2.3662,8,2.7933,8h9.3726c0.4606,0,0.834,0.3734,0.834,0.834V13.2z" fill="#8C53A1"/>
        <path d="M11.2198,6H3.7167C3.3209,6,3,5.6791,3,5.2833V1h9v4.2198C12,5.6507,11.6507,6,11.2198,6z" fill="#FFFFFF"/>
        <path d="M12.51,13.9733h-10c-0.2706,0,-0.49,-0.2194,-0.49,-0.49V8.49c0,-0.2706,0.2194,-0.49,0.49,-0.49h9.9393c0.3041,0,0.5507,0.2466,0.5507,0.5507v4.9326C13,13.754,12.7806,13.9733,12.51,13.9733z" fill="#FFFFFF"/>
        <path d="M9.6932,5H8.3068C8.1373,5,8,4.8627,8,4.6932V2.3068C8,2.1373,8.1373,2,8.3068,2h1.3865c0.1694,0,0.3068,0.1373,0.3068,0.3068v2.3865C10,4.8627,9.8627,5,9.6932,5z" fill="#6D6E71"/>
        <path d="M5,9.5h5M5,11.5h5" fill="none" stroke="#B4B4B5" stroke-width="1" stroke-linecap="round" stroke-miterlimit="1"/>
      </g>
    </g>
    <g id="overlay">
      <path d="M8.7375,3.9804L6.326,3.8797c-0.0271,-0.0799,-0.0592,-0.1576,-0.0961,-0.2324l1.6339,-1.7762c0.1025,-0.1025,0.1025,-0.2687,0,-0.3712l-0.3637,-0.3637c-0.1025,-0.1025,-0.2687,-0.1025,-0.3712,0L5.3527,2.7701c-0.0748,-0.037,-0.1525,-0.069,-0.2324,-0.0961L5.0196,0.2625c0,-0.145,-0.1175,-0.2625,-0.2625,-0.2625h-0.5143c-0.145,0,-0.2625,0.1175,-0.2625,0.2625L3.8797,2.674c-0.0799,0.0271,-0.1575,0.0592,-0.2324,0.0961L1.8711,1.1362c-0.1025,-0.1025,-0.2687,-0.1025,-0.3712,0l-0.3637,0.3637c-0.1025,0.1025,-0.1025,0.2687,0,0.3712l1.6339,1.7762c-0.037,0.0748,-0.069,0.1525,-0.0961,0.2324L0.2625,3.9804C0.1175,3.9804,0,4.0979,0,4.2429v0.5143c0,0.145,0.1175,0.2625,0.2625,0.2625l2.4115,0.1007c0.0271,0.0799,0.0592,0.1576,0.0961,0.2324L1.1362,7.1289c-0.1025,0.1025,-0.1025,0.2687,0,0.3712l0.3637,0.3637c0.1025,0.1025,0.2687,0.1025,0.3712,0l1.7762,-1.6339c0.0748,0.037,0.1525,0.069,0.2324,0.0961l0.1007,2.4115c0,0.145,0.1175,0.2625,0.2625,0.2625h0.5143c0.145,0,0.2625,-0.1175,0.2625,-0.2625l0.1007,-2.4115c0.0799,-0.0271,0.1576,-0.0592,0.2324,-0.0961l1.7762,1.6339c0.1025,0.1025,0.2687,0.1025,0.3712,0l0.3637,-0.3637c0.1025,-0.1025,0.1025,-0.2687,0,-0.3712L6.2299,5.3527c0.037,-0.0748,0.069,-0.1525,0.0961,-0.2324l2.4115,-0.1007c0.145,0,0.2625,-0.1175,0.2625,-0.2625v-0.5143C9,4.0979,8.8825,3.9804,8.7375,3.9804zM4.5,5.1c-0.426,0,-0.6,-0.174,-0.6,-0.6c0,-0.426,0.174,-0.6,0.6,-0.6s0.6,0.174,0.6,0.6C5.1,4.926,4.926,5.1,4.5,5.1z" fill-rule="evenodd" fill="#EAB765"/>
    </g>
  </g>
</svg>
