<?xml version="1.0" encoding="UTF-8"?>
<!DOCTYPE svg PUBLIC "-//W3C//DTD SVG 1.1//EN" "http://www.w3.org/Graphics/SVG/1.1/DTD/svg11.dtd">
<svg version="1.1" id="Layer_1" xmlns="http://www.w3.org/2000/svg" xmlns:xlink="http://www.w3.org/1999/xlink" x="0px" y="0px" width="16px" height="16px" viewBox="0 0 16 16" enable-background="new 0 0 16 16" xml:space="preserve">
  <g id="main">
    <g id="icon">
      <path d="M0.9475,0.02207L0.6609,0.08828L0.4346,0.1982L0.2625,0.3521L0.1389,0.5492L0.05781,0.7898L0,1.4L0,13.6L0.06992,14.21L0.1613,14.45L0.2945,14.65L0.4721,14.8L0.6971,14.91L0.9721,14.98L1.3,15L9,15L9,14L7.3,14L2.793,14L2.489,13.94L2.237,13.76L2.064,13.51L2,13.2L2,8.773L2.064,8.472L2.237,8.227L2.489,8.061L2.793,8L9,8L9,7.3L9.026,7.038L9.102,6.794L9.381,6.381L9.794,6.102L10.04,6.026L10.3,6L3.937,6L3.572,5.926L3.274,5.726L3.074,5.428L3,5.063L3,1L12,1L12,5L11.92,5.389L11.71,5.707L11.39,5.921L11,6L12.7,6L12.96,6.026L13.21,6.102L13.62,6.381L13.9,6.794L13.97,7.038L14,7.3L14,9L15,9L15,2.4L14.94,2.034L14.7,1.747L13.19,0.3445L12.83,0.08926L12.72,0L1.3,0zM14,14.98L14.37,14.94L14.58,14.86L14.74,14.75L14.86,14.59L14.94,14.38L14.98,14L14,14zz" fill="#8C53A1"/>
      <path d="M3,5.283L3.056,5.562L3.21,5.79L3.438,5.944L3.717,6L10.3,6L11.22,6L11.52,5.939L11.77,5.771L11.94,5.523L12,5.22L12,1L3,1zz" fill="#FFFFFF"/>
      <path d="M2.319,8.038L2.163,8.144L2.059,8.299L2.02,8.49L2.02,13.48L2.059,13.67L2.163,13.83L2.319,13.93L2.51,13.97L7.037,13.97L6.794,13.9L6.381,13.62L6.102,13.21L6.026,12.96L6,12.7L6,10.3L6.026,10.04L6.102,9.794L6.381,9.381L6.794,9.102L7.038,9.026L7.3,9L9,9L9,8L2.51,8zz" fill="#FFFFFF"/>
      <path d="M8.09,2.09L8,2.307L8,4.693L8.09,4.91L8.307,5L9.693,5L9.91,4.91L10,4.693L10,2.307L9.91,2.09L9.693,2L8.307,2zz" fill="#6D6E71"/>
      <path d="M4.683,9.113L4.51,9.402L4.559,9.735L4.808,9.962L5,10L6.038,10L6.102,9.794L6.381,9.381L6.794,9.102L7.038,9.026L7.3,9L5,9zM4.683,11.11L4.51,11.4L4.559,11.73L4.808,11.96L5,12L6,12L6,11L5,11zz" fill="#B4B4B5"/>
    </g>
    <g id="overlay">
      <path d="M15.7,10h-2.7V7.3c0,-0.166,-0.134,-0.3,-0.3,-0.3h-2.4c-0.166,0,-0.3,0.134,-0.3,0.3v2.7H7.3c-0.166,0,-0.3,0.134,-0.3,0.3v2.4c0,0.166,0.134,0.3,0.3,0.3h2.7v2.7c0,0.166,0.134,0.3,0.3,0.3h2.4c0.166,0,0.3,-0.134,0.3,-0.3v-2.7h2.7c0.166,0,0.3,-0.134,0.3,-0.3v-2.4C16,10.134,15.866,10,15.7,10z" fill="#4EA17E"/>
    </g>
  </g>
</svg>
