<?xml version="1.0" encoding="UTF-8"?>
<!DOCTYPE svg PUBLIC "-//W3C//DTD SVG 1.1//EN" "http://www.w3.org/Graphics/SVG/1.1/DTD/svg11.dtd">
<svg version="1.1" id="Layer_1" xmlns="http://www.w3.org/2000/svg" xmlns:xlink="http://www.w3.org/1999/xlink" x="0px" y="0px" width="16px" height="16px" viewBox="0 0 16 16" enable-background="new 0 0 16 16" xml:space="preserve">
  <g id="main">
    <clipPath id="clip_mask">
      <path d="M6,11.5c0,-3.0327,2.4673,-5.5,5.5,-5.5c1.8588,0,3.5039,0.9278,4.5,2.3436V0H0v16h8.3436C6.9278,15.0039,6,13.3588,6,11.5z"/>
    </clipPath>
    <g id="icon" clip-path="url(#clip_mask)">
      <path d="M14.7,1.747L13.1864,0.3446C12.947,0.123,12.6228,0,12.7166,0H1.3C0.2667,0,0,0.4722,0,1.4v12.2c0,0.9278,0.3522,1.4,1.3,1.4h12.5c0.904,0,1.2,-0.276,1.2,-1.2V2.4C15,2.0715,14.9411,1.9701,14.7,1.747zM3,1h9v4c0,0.5523,-0.4477,1,-1,1H3.9365C3.4193,6,3,5.5807,3,5.0635V1zM13,13.2c0,0.4271,-0.3462,0.8,-0.7733,0.8H2.7933c-0.4271,0,-0.7933,-0.3729,-0.7933,-0.8V8.7733C2,8.3462,2.3662,8,2.7933,8h9.3726c0.4606,0,0.834,0.3734,0.834,0.834V13.2z" fill="#8C53A1"/>
      <path d="M11.2198,6H3.7167C3.3209,6,3,5.6791,3,5.2833V1h9v4.2198C12,5.6507,11.6507,6,11.2198,6z" fill="#FFFFFF"/>
      <path d="M12.51,13.9733h-10c-0.2706,0,-0.49,-0.2194,-0.49,-0.49V8.49c0,-0.2706,0.2194,-0.49,0.49,-0.49h9.9393c0.3041,0,0.5507,0.2466,0.5507,0.5507v4.9326C13,13.754,12.7806,13.9733,12.51,13.9733z" fill="#FFFFFF"/>
      <path d="M9.6932,5H8.3068C8.1373,5,8,4.8627,8,4.6932V2.3068C8,2.1373,8.1373,2,8.3068,2h1.3865c0.1694,0,0.3068,0.1373,0.3068,0.3068v2.3865C10,4.8627,9.8627,5,9.6932,5z" fill="#6D6E71"/>
      <path d="M5,9.5h5M5,11.5h5" fill="none" stroke="#B4B4B5" stroke-width="1" stroke-linecap="round" stroke-miterlimit="1"/>
    </g>
    <g id="overlay">
      <path d="M11.5,7c-2.4853,0,-4.5,2.0147,-4.5,4.5c0,2.4853,2.0147,4.5,4.5,4.5s4.5,-2.0147,4.5,-4.5C16,9.0147,13.9853,7,11.5,7zM10.9867,14.0054l-2.3571,-2.4126l0.9353,-0.9554l1.4215,1.4551l2.7426,-2.7834l0.942,0.9622L10.9867,14.0054z" fill-rule="evenodd" fill="#4EA17E"/>
      <polygon points="10.9867,14.0054 14.6709,10.2713 13.729,9.3091 10.9864,12.0925 9.5649,10.6374 8.6296,11.5928" fill="#FFFFFF" stroke-linejoin="miter"/>
    </g>
  </g>
</svg>
