<?xml version="1.0" encoding="UTF-8"?>
<!DOCTYPE svg PUBLIC "-//W3C//DTD SVG 1.1//EN" "http://www.w3.org/Graphics/SVG/1.1/DTD/svg11.dtd">
<svg version="1.1" id="Layer_1" xmlns="http://www.w3.org/2000/svg" xmlns:xlink="http://www.w3.org/1999/xlink" x="0px" y="0px" width="32px" height="32px" viewBox="0 0 32 32" enable-background="new 0 0 32 32" xml:space="preserve">
  <g id="main">
    <clipPath id="clip_mask">
      <path d="M16.5017,31.5812c-0.6414,-0.6453,-0.6414,-1.6954,0.0001,-2.3408l3.4176,-3.3897c-0.5377,-1.1421,-0.758,-2.4278,-0.6239,-3.6959c0.1654,-1.5638,0.8667,-3.0392,1.9749,-4.1544c1.3008,-1.3091,3.03,-2.03,4.869,-2.03c1.8347,0,3.5585,0.7181,4.8541,2.0219c0.3942,0.3967,0.7286,0.8311,1.0064,1.2907V0H0v32h16.9179L16.5017,31.5812z" fill-rule="evenodd"/>
    </clipPath>
    <g id="icon" clip-path="url(#clip_mask)">
      <g id="transformed_icon" transform="translate(-1 -1)">
        <path d="M24,30.5H8c-0.276,0,-0.5,-0.224,-0.5,-0.5V16.5h17v13.5C24.5,30.276,24.276,30.5,24,30.5z" fill="#FFFFFF" stroke="#6D6E71" stroke-width="1" stroke-miterlimit="1"/>
        <path d="M25,17H7v-3c0,-0.552,0.448,-1,1,-1h16c0.552,0,1,0.448,1,1V17z" fill="#4EA17E"/>
        <path d="M13,20h-3v-1h3V20zM18,20h-4v-1h4V20zM22,20h-3v-1h3V20zM13,22h-3v-1h3V22zM18,22h-4v-1h4V22zM22,22h-3v-1h3V22zM13,24h-3v-1h3V24zM18,24h-4v-1h4V24zM22,24h-3v-1h3V24zM13,26h-3v-1h3V26zM18,26h-4v-1h4V26zM22,26h-3v-1h3V26zM13,28h-3v-1h3V28zM18,28h-4v-1h4V28zM22,28h-3v-1h3V28z" fill="#B4B4B5"/>
        <path d="M23.812,5.455c-1.053,0,-2.053,0.23,-2.956,0.64c-1.258,-3.002,-4.106,-5.098,-7.421,-5.098c-4.099,0,-7.485,3.204,-8.031,7.364c-2.504,0.769,-4.319,3.038,-4.319,5.718c0,3.605,2.34,5.016,4.913,5.557v-5.623C6,12.901,6.901,12,8.013,12h15.975c1.111,0,2.013,0.901,2.013,2.013v5.826c3.193,-0.614,5.032,-3.508,5.032,-7.082C31.032,8.724,27.8,5.455,23.812,5.455z" fill-rule="evenodd" fill="#3E79B4"/>
      </g>
    </g>
    <g id="overlay">
      <path d="M30.2842,18.697c-2.2909,-2.3055,-6.0089,-2.3019,-8.3044,0.0082c-1.9787,1.9912,-2.2528,5.0455,-0.8238,7.3275l-3.9449,3.9127c-0.2555,0.2571,-0.2555,0.6739,0,0.9309l0.9251,0.9309c0.2554,0.2571,0.6696,0.2571,0.9251,0l3.9475,-3.9153c2.2661,1.4282,5.2927,1.1495,7.2674,-0.8378C32.5715,24.7441,32.5751,21.0025,30.2842,18.697zM28.843,25.6448c-1.5129,1.5225,-3.9658,1.5225,-5.4787,0c-1.5129,-1.5225,-1.5129,-3.991,0,-5.5135c1.5129,-1.5225,3.9658,-1.5225,5.4787,0C30.3559,21.6538,30.3559,24.1223,28.843,25.6448z" fill-rule="evenodd" fill="#3E79B4"/>
    </g>
  </g>
</svg>
