<?xml version="1.0" encoding="UTF-8"?>
<!DOCTYPE svg PUBLIC "-//W3C//DTD SVG 1.1//EN" "http://www.w3.org/Graphics/SVG/1.1/DTD/svg11.dtd">
<svg version="1.1" id="Layer_1" xmlns="http://www.w3.org/2000/svg" xmlns:xlink="http://www.w3.org/1999/xlink" x="0px" y="0px" width="16px" height="16px" viewBox="0 0 16 16" enable-background="new 0 0 16 16" xml:space="preserve">
  <g id="main">
    <g id="icon">
      <path d="M0.5,14L0.5393,14.19L0.6465,14.35L0.8055,14.46L1,14.5L6.136,14.5L6.254,14.28L6.427,14.06L8.282,12.22L8.08,11.59L7.973,10.94L7.962,10.29L8.044,9.645L8.218,9.015L8.484,8.413L8.84,7.847L9.285,7.328L9.977,6.756L10.75,6.337L11.6,6.08L12.49,5.993L13.38,6.08L14.22,6.336L14.5,6.488L14.5,2.5L0.5,2.5zz" fill="#FFFFFF"/>
      <path d="M0,2.5L0,14L0,14.05L0.009961,14.1L0.04922,14.29L0.06895,14.39L0.1248,14.47L0.2318,14.63L0.2863,14.71L0.367,14.77L0.5258,14.88L0.6086,14.93L0.7064,14.95L0.901,14.99L0.95,15L1,15L6.029,15L6.128,14.51L6.254,14.28L6.427,14.06L6.492,14L1.05,14L1.008,13.99L1,13.95L1,3L14,3L14,6.27L14.22,6.336L14.99,6.753L15,6.759L15,2.5L15,2L14.5,2L0.5,2L0,2zz" fill="#6D6E71"/>
      <path d="M0.6107,0.07852L0.293,0.293L0.07852,0.6107L0,1L0,3L15,3L15,1L14.92,0.6107L14.71,0.293L14.39,0.07852L14,0L1,0zz" fill="#4EA17E"/>
      <path d="M2.683,5.113L2.51,5.402L2.559,5.735L2.808,5.962L3,6L5,6L5.317,5.887L5.49,5.598L5.441,5.265L5.192,5.038L5,5L3,5zM2.683,7.113L2.51,7.402L2.559,7.735L2.808,7.962L3,8L5,8L5.317,7.887L5.49,7.598L5.441,7.265L5.192,7.038L5,7L3,7zM2.683,9.113L2.51,9.402L2.559,9.735L2.808,9.962L3,10L5,10L5.317,9.887L5.49,9.598L5.441,9.265L5.192,9.038L5,9L3,9zM2.683,11.11L2.51,11.4L2.559,11.73L2.808,11.96L3,12L5,12L5.317,11.89L5.49,11.6L5.441,11.27L5.192,11.04L5,11L3,11zz" fill="#797979"/>
      <path d="M6.683,5.113L6.51,5.402L6.559,5.735L6.808,5.962L7,6L12.1,6L12.42,5.887L12.59,5.598L12.54,5.265L12.29,5.038L12.1,5L7,5zM6.683,7.113L6.51,7.402L6.559,7.735L6.808,7.962L7,8L8.744,8L8.84,7.847L9.285,7.328L9.681,7L7,7zM6.683,9.113L6.51,9.402L6.559,9.735L6.808,9.962L7,10L7.999,10L8.044,9.645L8.218,9.015L8.225,9L7,9zM6.683,11.11L6.51,11.4L6.559,11.73L6.808,11.96L7,12L8.21,12L8.08,11.59L7.983,11L7,11zz" fill="#B4B4B5"/>
    </g>
    <g id="overlay">
      <path d="M14.9717,8.0274c-1.373,-1.3817,-3.6012,-1.3795,-4.9769,0.0049c-1.1858,1.1934,-1.3501,3.0238,-0.4937,4.3914l-2.3642,2.3449c-0.1531,0.1541,-0.1531,0.4039,0,0.5579l0.5544,0.5579c0.1531,0.1541,0.4013,0.1541,0.5544,0l2.3658,-2.3465c1.3581,0.8559,3.1719,0.6889,4.3554,-0.5021C16.3425,11.6515,16.3447,9.4091,14.9717,8.0274zM14.108,12.1913c-0.9067,0.9125,-2.3767,0.9125,-3.2834,0c-0.9067,-0.9124,-0.9067,-2.3918,0,-3.3043c0.9067,-0.9125,2.3767,-0.9125,3.2834,0C15.0147,9.7995,15.0147,11.2789,14.108,12.1913z" fill-rule="evenodd" fill="#3E79B4"/>
    </g>
  </g>
</svg>
