<?xml version="1.0" encoding="UTF-8"?>
<!DOCTYPE svg PUBLIC "-//W3C//DTD SVG 1.1//EN" "http://www.w3.org/Graphics/SVG/1.1/DTD/svg11.dtd">
<svg version="1.1" id="Layer_1" xmlns="http://www.w3.org/2000/svg" xmlns:xlink="http://www.w3.org/1999/xlink" x="0px" y="0px" width="16px" height="16px" viewBox="0 0 16 16" enable-background="new 0 0 16 16" xml:space="preserve">
  <g id="icon">
    <path d="M14.0928,1.8797C11.6799,-0.5485,7.7641,-0.5447,5.3464,1.8883c-2.084,2.0972,-2.3727,5.3141,-0.8677,7.7175l-4.1548,4.121c-0.2691,0.2708,-0.2691,0.7097,0,0.9805l0.9743,0.9805c0.269,0.2708,0.7053,0.2708,0.9743,0l4.1576,-4.1237c2.3867,1.5042,5.5744,1.2106,7.6542,-0.8824C16.5019,8.2487,16.5057,4.308,14.0928,1.8797zM12.5749,9.1974c-1.5934,1.6036,-4.1769,1.6036,-5.7703,0c-1.5934,-1.6035,-1.5934,-4.2034,0,-5.807c1.5934,-1.6036,4.1769,-1.6036,5.7703,0C14.1684,4.994,14.1684,7.5938,12.5749,9.1974z" fill-rule="evenodd" fill="#3E79B4"/>
  </g>
</svg>
