<?xml version="1.0" encoding="utf-8"?>
<!-- Generator: Adobe Illustrator 19.0.0, SVG Export Plug-In . SVG Version: 6.00 Build 0)  -->
<svg version="1.1" id="Layer_1" xmlns="http://www.w3.org/2000/svg" xmlns:xlink="http://www.w3.org/1999/xlink" x="0px" y="0px"
	 viewBox="-289 412.9 16 16" style="enable-background:new -289 412.9 16 16;" xml:space="preserve">
<style type="text/css">
	.st0{clip-path:url(#SVGID_2_);}
	.st1{fill:#FFFFFF;stroke:#6D6E71;stroke-miterlimit:1;}
	.st2{fill:#4EA17E;}
	.st3{fill:none;stroke:#797979;stroke-linecap:round;stroke-miterlimit:1;}
	.st4{fill:none;stroke:#B4B4B5;stroke-linecap:round;stroke-miterlimit:1;}
	.st5{fill:#3E79B4;}
</style>
<g id="main">
	<g>
		<defs>
			<path id="SVGID_1_" d="M-282.6,427l1.9-1.8c-0.7-1.7-0.3-3.6,1-4.9c0.9-0.9,2-1.3,3.2-1.3c1.2,0,2.3,0.5,3.2,1.3
				c0.1,0.1,0.2,0.2,0.3,0.4v-7.7h-16v16h6.4C-283.1,428.3-283.1,427.5-282.6,427z"/>
		</defs>
		<clipPath id="SVGID_2_">
			<use xlink:href="#SVGID_1_"  style="overflow:visible;"/>
		</clipPath>
		<g id="icon" class="st0">
			<path class="st1" d="M-275,427.4h-13c-0.3,0-0.5-0.2-0.5-0.5v-11.5h14v11.5C-274.5,427.2-274.7,427.4-275,427.4z"/>
			<path class="st2" d="M-274,415.9h-15v-2c0-0.6,0.4-1,1-1h13c0.6,0,1,0.4,1,1V415.9z"/>
			<path class="st3" d="M-286,418.4h2 M-286,420.4h2 M-286,422.4h2 M-286,424.4h2"/>
			<path class="st4" d="M-282,418.4h5.1 M-282,420.4h5.1 M-282,422.4h5.1 M-282,424.4h5.1"/>
		</g>
	</g>
	<g id="overlay">
		<path class="st5" d="M-274,420.9c-1.4-1.4-3.6-1.4-5,0c-1.2,1.2-1.4,3-0.5,4.4l-2.4,2.3c-0.2,0.2-0.2,0.4,0,0.6l0.6,0.6
			c0.2,0.2,0.4,0.2,0.6,0l2.4-2.3c1.4,0.9,3.2,0.7,4.4-0.5C-272.7,424.5-272.7,422.3-274,420.9z M-274.9,425.1
			c-0.9,0.9-2.4,0.9-3.3,0c-0.9-0.9-0.9-2.4,0-3.3c0.9-0.9,2.4-0.9,3.3,0S-274,424.2-274.9,425.1z"/>
	</g>
</g>
</svg>
