<?xml version="1.0" encoding="UTF-8"?>
<!DOCTYPE svg PUBLIC "-//W3C//DTD SVG 1.1//EN" "http://www.w3.org/Graphics/SVG/1.1/DTD/svg11.dtd">
<svg version="1.1" id="Layer_1" xmlns="http://www.w3.org/2000/svg" xmlns:xlink="http://www.w3.org/1999/xlink" x="0px" y="0px" width="16px" height="16px" viewBox="0 0 16 16" enable-background="new 0 0 16 16" xml:space="preserve">
  <g id="main">
    <clipPath id="clip_mask">
      <path d="M6.4274,14.0639l1.8544,-1.8394c-0.668,-1.6637,-0.3012,-3.584,1.0036,-4.897c0.8554,-0.8608,1.9927,-1.3349,3.2023,-1.3349c1.207,0,2.3411,0.4723,3.1933,1.33c0.1138,0.1145,0.2199,0.2339,0.3189,0.3572V0H0v16h6.3994C5.8901,15.4555,5.8986,14.5963,6.4274,14.0639z" fill-rule="evenodd"/>
    </clipPath>
    <g id="icon" clip-path="url(#clip_mask)">
      <path d="M0,4h14.9963l0.0033,8.9996c0.0002,0.5524,-0.4476,1.0004,-1,1.0004H1c-0.5523,0,-1,-0.4477,-1,-1L0,4z" fill-rule="evenodd" fill="#E9B664"/>
      <path d="M15,3H0V1C0,0.4477,0.4477,0,1,0h4.2745c0.4243,0,0.8313,0.1686,1.1314,0.4686l1.0628,1.0627C7.7687,1.8314,8.1757,2,8.6,2h5.4C14.5523,2,15,2.4477,15,3L15,3z" fill-rule="evenodd" fill="#96762C"/>
    </g>
    <g id="overlay">
      <path d="M14.9717,8.0274c-1.373,-1.3817,-3.6012,-1.3795,-4.9769,0.0049c-1.1858,1.1934,-1.3501,3.0238,-0.4937,4.3914l-2.3642,2.3449c-0.1531,0.1541,-0.1531,0.4039,0,0.5579l0.5544,0.5579c0.1531,0.1541,0.4013,0.1541,0.5544,0l2.3658,-2.3465c1.3581,0.8559,3.1719,0.6889,4.3554,-0.5021C16.3425,11.6515,16.3447,9.4091,14.9717,8.0274zM14.108,12.1913c-0.9067,0.9125,-2.3767,0.9125,-3.2834,0c-0.9067,-0.9124,-0.9067,-2.3918,0,-3.3043c0.9067,-0.9125,2.3767,-0.9125,3.2834,0C15.0147,9.7995,15.0147,11.2789,14.108,12.1913z" fill-rule="evenodd" fill="#3E79B4"/>
    </g>
  </g>
</svg>
