<?xml version="1.0" encoding="UTF-8"?>
<!DOCTYPE svg PUBLIC "-//W3C//DTD SVG 1.1//EN" "http://www.w3.org/Graphics/SVG/1.1/DTD/svg11.dtd">
<svg version="1.1" id="Layer_1" xmlns="http://www.w3.org/2000/svg" xmlns:xlink="http://www.w3.org/1999/xlink" x="0px" y="0px" width="16px" height="16px" viewBox="0 0 16 16" enable-background="new 0 0 16 16" xml:space="preserve">
  <g id="icon">
    <path d="M5.3667,0H1.6333C0.735,0,0,0.735,0,1.6333v3.7333C0,6.265,0.735,7,1.6333,7h3.7333C6.265,7,7,6.265,7,5.3667V1.6333C7,0.735,6.265,0,5.3667,0zM5.6,6H1.4c-0.2209,0,-0.4,-0.1791,-0.4,-0.4V1.4c0,-0.2209,0.1791,-0.4,0.4,-0.4h4.2c0.2209,0,0.4,0.1791,0.4,0.4v4.2C6,5.8209,5.8209,6,5.6,6z" fill="#B4B4B5"/>
    <path d="M5.6,6H1.4c-0.2209,0,-0.4,-0.1791,-0.4,-0.4V1.4c0,-0.2209,0.1791,-0.4,0.4,-0.4h4.2c0.2209,0,0.4,0.1791,0.4,0.4v4.2C6,5.8209,5.8209,6,5.6,6z" fill="#FFFFFF"/>
    <path d="M13.3667,0H9.6333C8.735,0,8,0.735,8,1.6333v3.7333C8,6.265,8.735,7,9.6333,7h3.7333C14.265,7,15,6.265,15,5.3667V1.6333C15,0.735,14.265,0,13.3667,0zM13.6,6H9.4c-0.2209,0,-0.4,-0.1791,-0.4,-0.4V1.4c0,-0.2209,0.1791,-0.4,0.4,-0.4h4.2c0.2209,0,0.4,0.1791,0.4,0.4v4.2C14,5.8209,13.8209,6,13.6,6z" fill="#B4B4B5"/>
    <path d="M13.6,6H9.4c-0.2209,0,-0.4,-0.1791,-0.4,-0.4V1.4c0,-0.2209,0.1791,-0.4,0.4,-0.4h4.2c0.2209,0,0.4,0.1791,0.4,0.4v4.2C14,5.8209,13.8209,6,13.6,6z" fill="#FFFFFF"/>
    <path d="M13.3667,8H9.6333C8.735,8,8,8.735,8,9.6333v3.7333C8,14.265,8.735,15,9.6333,15h3.7333c0.8983,0,1.6333,-0.735,1.6333,-1.6333V9.6333C15,8.735,14.265,8,13.3667,8zM13.6,14H9.4c-0.2209,0,-0.4,-0.1791,-0.4,-0.4V9.4c0,-0.2209,0.1791,-0.4,0.4,-0.4h4.2c0.2209,0,0.4,0.1791,0.4,0.4v4.2C14,13.8209,13.8209,14,13.6,14z" fill="#B4B4B5"/>
    <path d="M13.6,14H9.4c-0.2209,0,-0.4,-0.1791,-0.4,-0.4V9.4c0,-0.2209,0.1791,-0.4,0.4,-0.4h4.2c0.2209,0,0.4,0.1791,0.4,0.4v4.2C14,13.8209,13.8209,14,13.6,14z" fill="#FFFFFF"/>
    <path d="M5.3667,8H1.6333C0.735,8,0,8.735,0,9.6333v3.7333C0,14.265,0.735,15,1.6333,15h3.7333C6.265,15,7,14.265,7,13.3667V9.6333C7,8.735,6.265,8,5.3667,8zM5.6,14H1.4c-0.2209,0,-0.4,-0.1791,-0.4,-0.4V9.4c0,-0.2209,0.1791,-0.4,0.4,-0.4h4.2c0.2209,0,0.4,0.1791,0.4,0.4v4.2C6,13.8209,5.8209,14,5.6,14z" fill="#B4B4B5"/>
    <path d="M5.6,14H1.4c-0.2209,0,-0.4,-0.1791,-0.4,-0.4V9.4c0,-0.2209,0.1791,-0.4,0.4,-0.4h4.2c0.2209,0,0.4,0.1791,0.4,0.4v4.2C6,13.8209,5.8209,14,5.6,14z" fill="#FFFFFF"/>
  </g>
</svg>
