<?xml version="1.0" encoding="utf-8"?>
<!-- Generator: Adobe Illustrator 19.0.0, SVG Export Plug-In . SVG Version: 6.00 Build 0)  -->
<svg version="1.1" id="Layer_1" xmlns="http://www.w3.org/2000/svg" xmlns:xlink="http://www.w3.org/1999/xlink" x="0px" y="0px"
	 viewBox="-289 412.9 16 16" style="enable-background:new -289 412.9 16 16;" xml:space="preserve">
<style type="text/css">
	.st0{fill:#B4B4B5;}
	.st1{fill:#FFFFFF;}
	.st2{fill:#3E79B4;}
</style>
<g id="icon">
	<path class="st0" d="M-289,414.5v3.7c0,0.9,0.7,1.6,1.6,1.6h3.7c0.9,0,1.6-0.7,1.6-1.6v-3.7c0-0.9-0.7-1.6-1.6-1.6h-3.7
		C-288.3,412.9-289,413.6-289,414.5z M-288,418.5v-4.2c0-0.2,0.2-0.4,0.4-0.4h4.2c0.2,0,0.4,0.2,0.4,0.4v4.2c0,0.2-0.2,0.4-0.4,0.4
		h-4.2C-287.8,418.9-288,418.7-288,418.5z"/>
	<path class="st1" d="M-287.6,418.9h4.2c0.2,0,0.4-0.2,0.4-0.4v-4.2c0-0.2-0.2-0.4-0.4-0.4h-4.2c-0.2,0-0.4,0.2-0.4,0.4v4.2
		C-288,418.7-287.8,418.9-287.6,418.9z"/>
	<path class="st0" d="M-275.6,412.9h-3.7c-0.9,0-1.6,0.7-1.6,1.6v3.7c0,0.9,0.7,1.6,1.6,1.6h3.7c0.9,0,1.6-0.7,1.6-1.6v-3.7
		C-274,413.6-274.7,412.9-275.6,412.9z M-275.4,418.9h-4.2c-0.2,0-0.4-0.2-0.4-0.4v-4.2c0-0.2,0.2-0.4,0.4-0.4h4.2
		c0.2,0,0.4,0.2,0.4,0.4v4.2C-275,418.7-275.2,418.9-275.4,418.9z"/>
	<path class="st1" d="M-275.4,418.9h-4.2c-0.2,0-0.4-0.2-0.4-0.4v-4.2c0-0.2,0.2-0.4,0.4-0.4h4.2c0.2,0,0.4,0.2,0.4,0.4v4.2
		C-275,418.7-275.2,418.9-275.4,418.9z"/>
	<path class="st2" d="M-281,422.5v3.7c0,0.9,0.7,1.6,1.6,1.6h3.7c0.9,0,1.6-0.7,1.6-1.6v-3.7c0-0.9-0.7-1.6-1.6-1.6h-3.7
		C-280.3,420.9-281,421.6-281,422.5z M-279,425.5v-2.2c0-0.2,0.2-0.4,0.4-0.4h2.2c0.2,0,0.4,0.2,0.4,0.4v2.2c0,0.2-0.2,0.4-0.4,0.4
		h-2.2C-278.8,425.9-279,425.7-279,425.5z"/>
	<path class="st1" d="M-278.6,425.9h2.2c0.2,0,0.4-0.2,0.4-0.4v-2.2c0-0.2-0.2-0.4-0.4-0.4h-2.2c-0.2,0-0.4,0.2-0.4,0.4v2.2
		C-279,425.7-278.8,425.9-278.6,425.9z"/>
	<path class="st0" d="M-289,422.5v3.7c0,0.9,0.7,1.6,1.6,1.6h3.7c0.9,0,1.6-0.7,1.6-1.6v-3.7c0-0.9-0.7-1.6-1.6-1.6h-3.7
		C-288.3,420.9-289,421.6-289,422.5z M-288,426.5v-4.2c0-0.2,0.2-0.4,0.4-0.4h4.2c0.2,0,0.4,0.2,0.4,0.4v4.2c0,0.2-0.2,0.4-0.4,0.4
		h-4.2C-287.8,426.9-288,426.7-288,426.5z"/>
	<path class="st1" d="M-287.6,426.9h4.2c0.2,0,0.4-0.2,0.4-0.4v-4.2c0-0.2-0.2-0.4-0.4-0.4h-4.2c-0.2,0-0.4,0.2-0.4,0.4v4.2
		C-288,426.7-287.8,426.9-287.6,426.9z"/>
</g>
</svg>
