<?xml version="1.0" encoding="UTF-8"?>
<!DOCTYPE svg PUBLIC "-//W3C//DTD SVG 1.1//EN" "http://www.w3.org/Graphics/SVG/1.1/DTD/svg11.dtd">
<svg version="1.1" id="Layer_1" xmlns="http://www.w3.org/2000/svg" xmlns:xlink="http://www.w3.org/1999/xlink" x="0px" y="0px" width="16px" height="16px" viewBox="0 0 16 16" enable-background="new 0 0 16 16" xml:space="preserve">
  <g id="icon">
    <path d="M14.747,13.51h-8.97l-3.265,1.983V13.51H1.253c-0.414,0,-0.753,-0.333,-0.753,-0.739V2.239C0.5,1.833,0.839,1.5,1.253,1.5h13.494c0.414,0,0.753,0.333,0.753,0.739v10.532C15.5,13.177,15.161,13.51,14.747,13.51z" fill-rule="evenodd" fill="#FFFFFF" stroke="#797979" stroke-width="1" stroke-miterlimit="1" stroke-linejoin="round"/>
    <path d="M13,4.5L13,4.5c0,-0.276,-0.224,-0.5,-0.5,-0.5H3.5c-0.276,0,-0.5,0.224,-0.5,0.5v0c0,0.276,0.224,0.5,0.5,0.5h9C12.776,5,13,4.776,13,4.5zM13,6.5L13,6.5c0,-0.276,-0.224,-0.5,-0.5,-0.5H3.5c-0.276,0,-0.5,0.224,-0.5,0.5v0c0,0.276,0.224,0.5,0.5,0.5h9C12.776,7,13,6.776,13,6.5zM13,8.5L13,8.5c0,-0.276,-0.224,-0.5,-0.5,-0.5H3.5c-0.276,0,-0.5,0.224,-0.5,0.5v0c0,0.276,0.224,0.5,0.5,0.5h9C12.776,9,13,8.776,13,8.5zM11,10.5L11,10.5c0,-0.276,-0.224,-0.5,-0.5,-0.5H3.5c-0.276,0,-0.5,0.224,-0.5,0.5v0c0,0.276,0.224,0.5,0.5,0.5h7C10.776,11,11,10.776,11,10.5z" fill-rule="evenodd" fill="#3E79B4"/>
  </g>
</svg>
