<?xml version="1.0" encoding="UTF-8"?>
<!DOCTYPE svg PUBLIC "-//W3C//DTD SVG 1.1//EN" "http://www.w3.org/Graphics/SVG/1.1/DTD/svg11.dtd">
<svg version="1.1" id="Layer_1" xmlns="http://www.w3.org/2000/svg" xmlns:xlink="http://www.w3.org/1999/xlink" x="0px" y="0px" width="16px" height="16px" viewBox="0 0 16 16" enable-background="new 0 0 16 16" xml:space="preserve">
  <g id="icon">
    <path d="M7.9494,2.4626c3.4373,0,6.2239,2.796,6.2239,6.2449c0,3.449,-2.7865,6.2449,-6.2239,6.2449s-6.2239,-2.796,-6.2239,-6.2449C1.7255,5.2586,4.512,2.4626,7.9494,2.4626z" fill-rule="evenodd" fill="#FFFFFF"/>
    <g>
      <g>
        <path d="M8.6431,9.054c-0.0864,-0.0874,-0.1651,-0.1638,-0.2388,-0.2298c0.0005,-0.0404,0.0008,-0.0817,0.001,-0.1251c0.0022,-0.5465,-0.1816,-4.2606,-0.5345,-4.262c-0.3529,-0.0014,-0.6216,3.7677,-0.6238,4.3143c-0.0006,0.1567,0.0044,0.2881,0.0241,0.3972c-0.0073,0.1771,0.1526,0.3532,0.4571,0.6612c0.5012,0.5069,3.3458,3.1256,3.5963,2.8762C11.575,12.4365,9.1442,9.5609,8.6431,9.054z" fill-rule="evenodd" fill="#3E79B4"/>
      </g>
    </g>
    <g>
      <g>
        <path d="M12.3787,13.9525c1.4674,-1.2496,2.3997,-3.1125,2.3997,-5.1949c0,-3.7623,-3.0396,-6.8122,-6.7892,-6.8122C4.2396,1.9454,1.2,4.9953,1.2,8.7575c0,2.0896,0.9385,3.9584,2.4147,5.208c-0.317,0.1905,-0.5298,0.5375,-0.5298,0.9352c0,0.6024,0.4867,1.0907,1.087,1.0907c0.5695,0,1.0358,-0.4396,1.0824,-0.999c0.8369,0.3702,1.7616,0.5772,2.7349,0.5772c0.9872,0,1.9243,-0.2132,2.7706,-0.5934c0.0388,0.567,0.5083,1.0151,1.0832,1.0151c0.6003,0,1.087,-0.4883,1.087,-1.0907C12.93,14.4941,12.7076,14.14,12.3787,13.9525zM7.9919,14.5758c-3.2006,0,-5.7952,-2.6034,-5.7952,-5.8148c0,-3.2114,2.5946,-5.8148,5.7952,-5.8148s5.7952,2.6034,5.7952,5.8148C13.7871,11.9724,11.1925,14.5758,7.9919,14.5758z" fill-rule="evenodd" fill="#797979"/>
      </g>
    </g>
    <g>
      <g>
        <path d="M2.601,0.7507C0.7988,2.0194,1.0594,3.1485,1.6649,4.2268c0.5123,-0.7321,1.1484,-1.3834,1.9023,-1.9141c0.7833,-0.5514,1.6266,-0.925,2.4892,-1.1327C5.3646,0.1439,4.4211,-0.5306,2.601,0.7507zM13.4774,0.681c-1.8207,-1.2817,-2.7934,-0.546,-3.4893,0.499c0.8627,0.2077,1.7061,0.5813,2.4894,1.1327c0.7539,0.5307,1.3901,1.182,1.9023,1.9141C14.9902,3.1388,15.2803,1.9502,13.4774,0.681z" fill-rule="evenodd" fill="#3E79B4"/>
      </g>
    </g>
  </g>
</svg>
