<?xml version="1.0" encoding="UTF-8"?>
<!DOCTYPE svg PUBLIC "-//W3C//DTD SVG 1.1//EN" "http://www.w3.org/Graphics/SVG/1.1/DTD/svg11.dtd">
<svg version="1.1" id="Layer_1" xmlns="http://www.w3.org/2000/svg" xmlns:xlink="http://www.w3.org/1999/xlink" x="0px" y="0px" width="16px" height="16px" viewBox="0 0 16 16" enable-background="new 0 0 16 16" xml:space="preserve">
  <g id="icon">
    <path d="M13,12.5716V0.184c-0.0031,-0.104,-0.08,-0.184,-0.1835,-0.184H11.2c-0.1052,0,-0.1913,0.0839,-0.1913,0.1865v12.3777L8.128,9.6564C8.0808,9.6103,8,9.6429,8,9.7081v2.285c0,0.0776,0.0317,0.1521,0.088,0.2069l3.8035,3.728c0.1124,0.097,0.1505,0.097,0.2602,-0.0058l3.7602,-3.7611c0.0564,-0.0548,0.0881,-0.1293,0.0881,-0.207V9.6732c0,-0.0651,-0.0807,-0.0977,-0.1279,-0.0517L13,12.5716z" fill="#3E79B4"/>
    <path d="M3,3.4284V15.816c0.0031,0.104,0.08,0.184,0.1835,0.184H4.8c0.1052,0,0.1913,-0.0839,0.1913,-0.1865V3.4358L7.872,6.3436c0.0472,0.0461,0.128,0.0135,0.128,-0.0516v-2.285c0,-0.0776,-0.0317,-0.1521,-0.088,-0.2069L4.1085,0.072c-0.1124,-0.097,-0.1505,-0.097,-0.2602,0.0058L0.0881,3.8389C0.0317,3.8937,0,3.9682,0,4.0459l0,2.2809c0,0.0651,0.0807,0.0977,0.1279,0.0517L3,3.4284z" fill="#4EA17E"/>
  </g>
</svg>
