<?xml version="1.0" encoding="UTF-8"?>
<!DOCTYPE svg PUBLIC "-//W3C//DTD SVG 1.1//EN" "http://www.w3.org/Graphics/SVG/1.1/DTD/svg11.dtd">
<svg version="1.1" id="Layer_1" xmlns="http://www.w3.org/2000/svg" xmlns:xlink="http://www.w3.org/1999/xlink" x="0px" y="0px" width="16px" height="16px" viewBox="0 0 16 16" enable-background="new 0 0 16 16" xml:space="preserve">
  <g id="main">
    <g id="icon">
      <path d="M6.179,0.02969L4.968,0.1178L3.874,0.2631L2.922,0.4646L2.138,0.7211L1.547,1.031L1.332,1.206L1.174,1.394L1.077,1.595L1.044,1.809L1.077,2.026L1.173,2.235L1.542,2.63L2.128,2.986L2.906,3.294L3.851,3.547L4.94,3.738L6.148,3.858L7.45,3.9L8.757,3.858L9.976,3.738L11.08,3.547L12.05,3.294L12.84,2.986L13.45,2.63L13.83,2.235L13.93,2.026L13.96,1.809L13.93,1.595L13.83,1.394L13.67,1.206L13.45,1.031L12.85,0.7211L12.06,0.4646L11.1,0.2631L10,0.1178L8.788,0.02969L7.483,0zz" fill-rule="evenodd" fill="#EAB765"/>
      <path d="M1.006,11.64L1.039,12.01L1.137,12.37L1.297,12.71L1.515,13.02L1.788,13.32L2.112,13.6L2.903,14.08L3.861,14.47L4,14.51L4,10.5L4.03,10.2L4.117,9.916L4.255,9.662L4.437,9.44L4.658,9.256L4.911,9.118L5.19,9.03L5.49,9L14,9L14,3.4L13.73,3.763L13.26,4.1L12.61,4.404L11.81,4.667L10.87,4.884L9.816,5.047L8.681,5.15L7.485,5.186L6.263,5.147L5.129,5.036L4.097,4.863L3.184,4.638L2.404,4.369L1.773,4.067L1.306,3.741L1.019,3.4zz" fill-rule="evenodd" fill="#EAB765"/>
    </g>
    <g id="overlay">
      <g>
        <g>
          <path d="M10.741,11.5765c-0.3674,0,-0.637,0.1109,-0.8242,0.339c-0.1898,0.2312,-0.2861,0.5786,-0.2861,1.0324c0,0.4604,0.0963,0.8111,0.2861,1.0423c0.1872,0.2281,0.4552,0.339,0.8193,0.339c0.367,0,0.6344,-0.1103,0.8175,-0.3371c0.1861,-0.2306,0.2805,-0.5819,0.2805,-1.0443c0,-0.4574,-0.094,-0.8059,-0.2793,-1.0356C11.3724,11.6864,11.1062,11.5765,10.741,11.5765z" fill="#3E79B4"/>
          <path d="M16,10.4991c0,-0.2757,-0.2195,-0.4991,-0.4902,-0.4991H5.4902c-0.2707,0,-0.4902,0.2235,-0.4902,0.4991v5.0017c0,0.2757,0.2195,0.4991,0.4902,0.4991h10.0196c0.2707,0,0.4902,-0.2235,0.4902,-0.4991V10.4991zM8.2499,14.6266c-0.2479,0.192,-0.5881,0.2893,-1.0042,0.2893c-0.4467,0,-0.8069,-0.0576,-1.0534,-0.1761c-0.0378,-0.0182,-0.0922,-0.0566,-0.0922,-0.0986v-0.4048c0,-0.0367,0.0486,-0.0709,0.0791,-0.0912c0.0304,-0.0204,0.0913,-0.0239,0.125,-0.0096c0.1402,0.0595,0.2994,0.1072,0.4655,0.1418c0.1656,0.0345,0.3338,0.052,0.4961,0.052c0.2531,0,0.4439,-0.0462,0.5649,-0.1373c0.1129,-0.085,0.1683,-0.2013,0.1683,-0.3555c0,-0.1036,-0.0194,-0.1873,-0.058,-0.249c-0.0402,-0.0641,-0.1116,-0.1261,-0.2126,-0.1843c-0.111,-0.0638,-0.2849,-0.1383,-0.5169,-0.2213c-0.3555,-0.1277,-0.6046,-0.2775,-0.7619,-0.4581c-0.1606,-0.1843,-0.242,-0.4252,-0.242,-0.7162c0,-0.312,0.119,-0.5643,0.3537,-0.7499c0.2269,-0.1794,0.5274,-0.2703,0.8934,-0.2703c0.3706,0,0.7169,0.0695,1.0293,0.2066c0.0525,0.023,0.0783,0.083,0.059,0.1371l-0.1303,0.3653c-0.0101,0.0283,-0.0313,0.0511,-0.0587,0.0632c-0.0274,0.012,-0.0585,0.0123,-0.0861,0.0008c-0.2819,-0.1188,-0.5589,-0.1791,-0.8231,-0.1791c-0.1958,0,-0.348,0.0406,-0.4526,0.1207c-0.0968,0.0743,-0.1439,0.1758,-0.1439,0.3104c0,0.1051,0.0182,0.19,0.0542,0.2526c0.0365,0.0634,0.1019,0.1243,0.1946,0.1809c0.1023,0.0625,0.2638,0.1336,0.4802,0.2113c0.3974,0.1423,0.6652,0.2938,0.8206,0.4633c0.1602,0.1749,0.2405,0.4024,0.2405,0.6763C8.6383,14.1488,8.5064,14.428,8.2499,14.6266zM12.2009,14.1579c-0.1682,0.2779,-0.398,0.4794,-0.6844,0.606l0.4027,0.4272c0.0303,0.0316,0.0388,0.0923,0.0217,0.1327c-0.0171,0.0403,-0.0566,0.0761,-0.1002,0.0761h-0.6072c-0.0317,0,-0.0618,-0.0194,-0.0825,-0.0435l-0.3279,-0.3923L10.74,15c-0.0001,0,-0.0002,0,-0.0004,0c-0.5631,0,-1.0027,-0.2184,-1.3104,-0.5662c-0.3045,-0.344,-0.4589,-0.8564,-0.4589,-1.4736c0,-0.6125,0.1549,-1.1052,0.4605,-1.4477c0.3086,-0.346,0.7494,-0.5257,1.3102,-0.5257c0.5463,0,0.9807,0.1764,1.291,0.5284c0.3069,0.3482,0.4625,0.8299,0.4625,1.4339C12.4944,13.4296,12.3956,13.8359,12.2009,14.1579zM15.1,14.9295c0,0.0604,-0.0189,0.0705,-0.079,0.0705h-1.8341c-0.0602,0,-0.1868,-0.0101,-0.1868,-0.0705v-3.7808c0,-0.0604,0.0421,-0.1487,0.1022,-0.1487h0.4179c0.0602,0,0.0799,0.0882,0.0799,0.1487V14.4h1.421c0.0602,0,0.079,-0.0833,0.079,-0.0229V14.9295z" fill="#3E79B4"/>
        </g>
        <path d="M8.3977,13.1207c0.1602,0.1749,0.2405,0.4024,0.2405,0.6763c0,0.3518,-0.1319,0.6309,-0.3884,0.8296c-0.2479,0.192,-0.5881,0.2893,-1.0042,0.2893c-0.4467,0,-0.8069,-0.0576,-1.0534,-0.1761c-0.0378,-0.0182,-0.0922,-0.0566,-0.0922,-0.0987v-0.4048c0,-0.0367,0.0486,-0.0709,0.0791,-0.0912c0.0304,-0.0204,0.0913,-0.0239,0.125,-0.0096c0.1402,0.0595,0.2994,0.1072,0.4655,0.1418c0.1656,0.0345,0.3338,0.052,0.4961,0.052c0.2531,0,0.4439,-0.0462,0.5649,-0.1373c0.1129,-0.085,0.1683,-0.2013,0.1683,-0.3555c0,-0.1036,-0.0194,-0.1873,-0.058,-0.249c-0.0402,-0.0641,-0.1116,-0.1261,-0.2126,-0.1843c-0.111,-0.0638,-0.2849,-0.1383,-0.5169,-0.2213c-0.3555,-0.1277,-0.6046,-0.2775,-0.7619,-0.4581c-0.1606,-0.1843,-0.242,-0.4252,-0.242,-0.7162c0,-0.312,0.119,-0.5643,0.3537,-0.7499c0.2269,-0.1794,0.5274,-0.2703,0.8934,-0.2703c0.3706,0,0.7169,0.0695,1.0293,0.2066c0.0525,0.023,0.0783,0.083,0.059,0.1371l-0.1303,0.3653c-0.0101,0.0283,-0.0313,0.0511,-0.0587,0.0633c-0.0274,0.012,-0.0585,0.0123,-0.0861,0.0007c-0.2819,-0.1188,-0.5588,-0.1791,-0.8231,-0.1791c-0.1958,0,-0.348,0.0406,-0.4526,0.1207c-0.0968,0.0743,-0.1439,0.1758,-0.1439,0.3104c0,0.1051,0.0182,0.19,0.0542,0.2526c0.0365,0.0634,0.1019,0.1243,0.1946,0.1809c0.1023,0.0625,0.2638,0.1336,0.4803,0.2113C7.9745,12.7997,8.2424,12.9512,8.3977,13.1207zM11.5164,14.764l0.4027,0.4272c0.0303,0.0316,0.0388,0.0923,0.0217,0.1327c-0.0171,0.0403,-0.0566,0.0761,-0.1002,0.0761h-0.6072c-0.0317,0,-0.0618,-0.0194,-0.0825,-0.0435l-0.3279,-0.3923L10.74,15c-0.0001,0,-0.0002,0,-0.0004,0c-0.5631,0,-1.0027,-0.2184,-1.3104,-0.5662c-0.3045,-0.344,-0.4589,-0.8564,-0.4589,-1.4736c0,-0.6125,0.1549,-1.1052,0.4605,-1.4477c0.3086,-0.346,0.7494,-0.5257,1.3102,-0.5257c0.5463,0,0.9807,0.1764,1.291,0.5284c0.3069,0.3482,0.4625,0.8299,0.4625,1.4339c0,0.4805,-0.0988,0.8869,-0.2936,1.2089C12.0326,14.4359,11.8029,14.6373,11.5164,14.764zM9.6307,12.948c0,0.4604,0.0963,0.8111,0.2861,1.0423c0.1872,0.2281,0.4552,0.339,0.8193,0.339c0.367,0,0.6344,-0.1103,0.8175,-0.3371c0.1861,-0.2306,0.2805,-0.5819,0.2805,-1.0443c0,-0.4574,-0.094,-0.8059,-0.2793,-1.0356c-0.1823,-0.226,-0.4485,-0.3359,-0.8138,-0.3359c-0.3674,0,-0.637,0.1109,-0.8242,0.339C9.727,12.1467,9.6307,12.4941,9.6307,12.948zM15.021,14.4H13.6v-3.2513c0,-0.0604,-0.0197,-0.1487,-0.0799,-0.1487h-0.4179c-0.0602,0,-0.1022,0.0882,-0.1022,0.1487v3.7808c0,0.0604,0.1267,0.0705,0.1868,0.0705h1.8341c0.0602,0,0.079,-0.0101,0.079,-0.0705v-0.5524C15.1,14.3167,15.0811,14.4,15.021,14.4z" fill="#FFFFFF"/>
      </g>
    </g>
  </g>
</svg>
