<?xml version="1.0" encoding="utf-8"?>
<!-- Generator: Adobe Illustrator 19.0.0, SVG Export Plug-In . SVG Version: 6.00 Build 0)  -->
<svg version="1.1" id="Layer_1" xmlns="http://www.w3.org/2000/svg" xmlns:xlink="http://www.w3.org/1999/xlink" x="0px" y="0px"
	 viewBox="-289 412.9 16 16" style="enable-background:new -289 412.9 16 16;" xml:space="preserve">
<style type="text/css">
	.st0{fill:#E9B665;}
	.st1{fill:#FFFFFF;}
</style>
<g id="icon">
	<path class="st0" d="M-281,413c-4.4,0-7.9,3.5-7.9,7.9c0,4.4,3.5,7.9,7.9,7.9s7.9-3.5,7.9-7.9C-273.1,416.5-276.6,413-281,413z"/>
</g>
<path class="st1" d="M-275.7,419.8h-4.1v-5c0-0.2-0.2-0.4-0.4-0.4h-1.4c-0.2,0-0.4,0.2-0.4,0.4v5.4v1.4v0c0,0.2,0.2,0.4,0.4,0.4h0
	h1.4h4.6c0.2,0,0.4-0.2,0.4-0.4v-1.4C-275.3,419.9-275.5,419.8-275.7,419.8z"/>
</svg>
