<?xml version="1.0" encoding="UTF-8"?>
<!DOCTYPE svg PUBLIC "-//W3C//DTD SVG 1.1//EN" "http://www.w3.org/Graphics/SVG/1.1/DTD/svg11.dtd">
<svg version="1.1" id="Layer_1" xmlns="http://www.w3.org/2000/svg" xmlns:xlink="http://www.w3.org/1999/xlink" x="0px" y="0px" width="32px" height="32px" viewBox="0 0 32 32" enable-background="new 0 0 32 32" xml:space="preserve">
  <g id="icon">
    <path d="M15.5,1C7.4919,1,1,7.4919,1,15.5s6.4919,14.5,14.5,14.5s14.5,-6.4919,14.5,-14.5S23.5081,1,15.5,1zM24.3259,12.2325l-10.0475,9.9806c-0.0904,0.0899,-0.2,0.1261,-0.3182,0.1261c-0.1187,0,-0.22,-0.0627,-0.3105,-0.1532l-1.9675,-1.9675c-0.0301,-0.0301,-0.0709,-0.0443,-0.0914,-0.0808l-4.1146,-4.1285c-0.1793,-0.1814,-0.174,-0.4691,0.0064,-0.6495l1.4726,-1.4726c0.0873,-0.0873,0.199,-0.1387,0.3228,-0.1382c0.1235,0.0004,0.2352,0.0476,0.322,0.1354l4.2839,4.3396l8.2242,-8.1717c0.1812,-0.1802,0.4577,-0.1633,0.6384,0.0174l1.5432,1.5432c0.0871,0.0871,0.1546,0.1868,0.1544,0.3101C24.444,12.0461,24.4133,12.1456,24.3259,12.2325z" fill="#4EA17E"/>
    <path d="M24.2897,11.6127l-1.5432,-1.5432c-0.1807,-0.1807,-0.4572,-0.1976,-0.6384,-0.0174l-8.2242,8.1717l-4.2839,-4.3396c-0.0868,-0.0879,-0.1985,-0.1351,-0.322,-0.1354c-0.1239,-0.0005,-0.2355,0.0509,-0.3228,0.1382l-1.4726,1.4726c-0.1804,0.1804,-0.1857,0.468,-0.0064,0.6494l4.1146,4.1285c0.0205,0.0365,0.0613,0.0507,0.0914,0.0808l1.9675,1.9675c0.0905,0.0905,0.1918,0.1533,0.3105,0.1533c0.1182,0,0.2277,-0.0362,0.3182,-0.1261l10.0475,-9.9806c0.0874,-0.0869,0.1181,-0.1864,0.1183,-0.3096C24.4443,11.7996,24.3768,11.6999,24.2897,11.6127z" fill="#FFFFFF"/>
  </g>
</svg>
