<?xml version="1.0" encoding="utf-8"?>
<!-- Generator: Adobe Illustrator 19.0.0, SVG Export Plug-In . SVG Version: 6.00 Build 0)  -->
<svg version="1.1" id="Layer_1" xmlns="http://www.w3.org/2000/svg" xmlns:xlink="http://www.w3.org/1999/xlink" x="0px" y="0px"
	 viewBox="-281 404.9 32 32" style="enable-background:new -281 404.9 32 32;" xml:space="preserve">
<style type="text/css">
	.st0{fill:#529FBF;}
	.st1{fill:#FFFFFF;}
</style>
<g id="icon">
	<path class="st0" d="M-265,406.4c-8,0-14.5,6.5-14.5,14.5s6.5,14.5,14.5,14.5s14.5-6.5,14.5-14.5S-257,406.4-265,406.4z"/>
</g>
<g id="icon_1_">
	<path class="st1" d="M-256.2,412.4h-17.7c-0.5,0-0.9,0.4-0.9,0.9v2.3v0.7v12.3c0,0.4,0.3,0.7,0.6,0.7h18.2c0.4,0,0.7-0.3,0.7-0.7
		v-12.3v-0.7v-2.3C-255.3,412.8-255.7,412.4-256.2,412.4z M-255.9,428.7h-18.2v-12.3h18.2L-255.9,428.7z"/>
	<path class="st1" d="M-270.9,418.9v3.9h4.6v-3.9H-270.9z M-267,422.2h-3.3v-2.6h3.3V422.2z"/>
	<g>
		<rect x="-267" y="416.3" class="st1" width="0.6" height="2"/>
		<rect x="-270.9" y="416.3" class="st1" width="0.6" height="2"/>
		<path class="st1" d="M-270.9,428.7h0.6v-2.6h3.3v2.6h0.7v-2.6h3.3v2.6h0.6v-2.6h3.3v2.6h0.6v-2.6h2.6v-0.7h-2.6v-2.6h2.6v-0.7
			h-2.6v-2.6h2.6v-0.7h-2.6v-2.6h-0.6v2.6h-3.3v-2.6h-0.6v2.6h-2.6v0.7h2.6v2.6h-2.6v0.7h2.6v2.6h-3.3v-1.9h-0.7v1.9h-3.3v-1.9h-0.6
			v1.9h-3.3v0.7h3.3V428.7z M-262.4,419.6h3.3v2.6h-3.3V419.6z M-262.4,422.8h3.3v2.6h-3.3V422.8z"/>
		<rect x="-274.1" y="418.9" class="st1" width="2.6" height="0.6"/>
		<rect x="-274.1" y="422.2" class="st1" width="2.6" height="0.6"/>
	</g>
</g>
</svg>
