<?xml version="1.0" encoding="UTF-8"?>
<!DOCTYPE svg PUBLIC "-//W3C//DTD SVG 1.1//EN" "http://www.w3.org/Graphics/SVG/1.1/DTD/svg11.dtd">
<svg version="1.1" id="Layer_1" xmlns="http://www.w3.org/2000/svg" xmlns:xlink="http://www.w3.org/1999/xlink" x="0px" y="0px" width="16px" height="16px" viewBox="0 0 16 16" enable-background="new 0 0 16 16" xml:space="preserve">
  <g id="icon">
    <path d="M8,0C3.5817,0,0,3.5817,0,8c0,4.4183,3.5817,8,8,8c4.4183,0,8,-3.5817,8,-8C16,3.5817,12.4183,0,8,0zM11.9933,9.3763c-0.0003,0.0985,-0.1127,0.1477,-0.1825,0.0781L9,6.8953V12.7c0,0.1342,-0.122,0.3,-0.2563,0.3h-0.5628h-0.476h-0.4511c-0.1342,0,-0.2538,-0.1658,-0.2538,-0.3V6.8953l-2.8166,2.548C4.1135,9.5127,4,9.4631,4,9.3646V7.0064c0,-0.0628,0.0243,-0.1232,0.0678,-0.1684c0,0,3.1144,-3.0205,3.8173,-3.7544c0.0733,-0.0765,0.1955,-0.076,0.2681,0.0012c0.6926,0.7363,3.7804,3.7532,3.7804,3.7532c0.0427,0.0453,0.0665,0.1052,0.0663,0.1675L11.9933,9.3763z" fill-rule="evenodd" fill="#4DA07D"/>
    <path d="M11.9337,6.838c0.0427,0.0453,0.0665,0.1052,0.0663,0.1675l-0.0067,2.3708c-0.0003,0.0985,-0.1194,0.1477,-0.1891,0.0781L8.9868,6.8953V12.7c0,0.1342,-0.1088,0.3,-0.243,0.3h-0.5628h-0.476h-0.4511c-0.1342,0,-0.243,-0.1658,-0.243,-0.3V6.8953l-2.8219,2.548C4.1189,9.5127,4,9.4631,4,9.3646V7.0064c0,-0.0628,0.0243,-0.1231,0.0678,-0.1684c0,0,3.1144,-3.0205,3.8173,-3.7544c0.0733,-0.0765,0.1955,-0.076,0.2681,0.0012C8.8459,3.8211,11.9337,6.838,11.9337,6.838z" fill-rule="evenodd" fill="#FFFFFF"/>
  </g>
</svg>
