<?xml version="1.0" encoding="utf-8"?>
<!-- Generator: Adobe Illustrator 19.0.0, SVG Export Plug-In . SVG Version: 6.00 Build 0)  -->
<svg version="1.1" id="Layer_1" xmlns="http://www.w3.org/2000/svg" xmlns:xlink="http://www.w3.org/1999/xlink" x="0px" y="0px"
	 viewBox="-281 404.9 32 32" style="enable-background:new -281 404.9 32 32;" xml:space="preserve">
<style type="text/css">
	.st0{fill:#E9B665;}
	.st1{fill:#FFFFFF;}
</style>
<g id="icon">
	<path class="st0" d="M-265.5,405.9c-8,0-14.5,6.5-14.5,14.5c0,8,6.5,14.5,14.5,14.5s14.5-6.5,14.5-14.5
		C-251,412.4-257.5,405.9-265.5,405.9z"/>
</g>
<path class="st1" d="M-256.7,418.7h-7.1v-9.4c0-0.5-0.4-0.9-0.9-0.9h-1.7c-0.5,0-0.9,0.4-0.9,0.9v10.2v1.7v0c0,0.5,0.4,0.8,0.8,0.8
	h0h1.7h7.9c0.5,0,0.8-0.4,0.8-0.8v-1.7C-255.9,419.1-256.3,418.7-256.7,418.7z"/>
</svg>
