<?xml version="1.0" encoding="UTF-8"?>
<!DOCTYPE svg PUBLIC "-//W3C//DTD SVG 1.1//EN" "http://www.w3.org/Graphics/SVG/1.1/DTD/svg11.dtd">
<svg version="1.1" id="Layer_1" xmlns="http://www.w3.org/2000/svg" xmlns:xlink="http://www.w3.org/1999/xlink" x="0px" y="0px" width="32px" height="32px" viewBox="0 0 32 32" enable-background="new 0 0 32 32" xml:space="preserve">
  <g id="icon">
    <path d="M5.247,5.247c-5.6626,5.6626,-5.6626,14.8435,0,20.5061c5.6626,5.6626,14.8435,5.6626,20.5061,0s5.6626,-14.8435,0,-20.5061C20.0904,-0.4157,10.9096,-0.4157,5.247,5.247zM22.9953,9.5603c0.1562,0.1562,0.1562,0.4095,0,0.5657L17.6213,15.5l5.374,5.374c0.1562,0.1562,0.1562,0.4095,0,0.5657l-1.5556,1.5556c-0.1562,0.1562,-0.4095,0.1562,-0.5657,0L15.5,17.6213l-5.374,5.374c-0.1562,0.1562,-0.4095,0.1562,-0.5657,0l-1.5556,-1.5556c-0.1562,-0.1562,-0.1562,-0.4095,0,-0.5657l5.374,-5.374l-5.374,-5.374c-0.1562,-0.1562,-0.1562,-0.4095,0,-0.5657l1.5556,-1.5556c0.1562,-0.1562,0.4095,-0.1562,0.5657,0l5.374,5.374l5.374,-5.374c0.1562,-0.1562,0.4095,-0.1562,0.5657,0L22.9953,9.5603z" fill-rule="evenodd" fill="#CD4C32"/>
    <path d="M20.874,8.0047L15.5,13.3787l-5.374,-5.374c-0.1562,-0.1562,-0.4095,-0.1562,-0.5657,0L8.0047,9.5603c-0.1562,0.1562,-0.1562,0.4095,0,0.5657l5.374,5.374l-5.374,5.374c-0.1562,0.1562,-0.1562,0.4095,0,0.5657l1.5556,1.5556c0.1562,0.1562,0.4095,0.1562,0.5657,0l5.374,-5.374l5.374,5.374c0.1562,0.1562,0.4095,0.1562,0.5657,0l1.5556,-1.5556c0.1562,-0.1562,0.1562,-0.4095,0,-0.5657L17.6213,15.5l5.374,-5.374c0.1562,-0.1562,0.1562,-0.4095,0,-0.5657l-1.5556,-1.5556C21.2835,7.8485,21.0302,7.8485,20.874,8.0047z" fill-rule="evenodd" fill="#FFFFFF"/>
  </g>
</svg>
