<?xml version="1.0" encoding="UTF-8"?>
<!DOCTYPE svg PUBLIC "-//W3C//DTD SVG 1.1//EN" "http://www.w3.org/Graphics/SVG/1.1/DTD/svg11.dtd">
<svg version="1.1" id="Layer_1" xmlns="http://www.w3.org/2000/svg" xmlns:xlink="http://www.w3.org/1999/xlink" x="0px" y="0px" width="16px" height="16px" viewBox="0 0 16 16" enable-background="new 0 0 16 16" xml:space="preserve">
  <g id="icon">
    <path d="M8.1519,0.0014C3.6134,-0.0827,-0.0827,3.6134,0.0014,8.1519c0.0793,4.2772,3.5695,7.7674,7.8467,7.8467c4.5385,0.0841,8.2346,-3.612,8.1505,-8.1505C15.9193,3.5709,12.4291,0.0807,8.1519,0.0014zM12.3798,10.8256c0.1562,0.1562,0.1562,0.4095,0,0.5657l-0.9885,0.9885c-0.1562,0.1562,-0.4095,0.1562,-0.5657,0L8,9.5542l-2.8256,2.8256c-0.1562,0.1562,-0.4095,0.1562,-0.5657,0l-0.9885,-0.9885c-0.1562,-0.1562,-0.1562,-0.4095,0,-0.5657L6.4458,8L3.6202,5.1744c-0.1562,-0.1562,-0.1562,-0.4095,0,-0.5657l0.9885,-0.9885c0.1562,-0.1562,0.4095,-0.1562,0.5657,0L8,6.4458l2.8256,-2.8256c0.1562,-0.1562,0.4095,-0.1562,0.5657,0l0.9885,0.9885c0.1562,0.1562,0.1562,0.4095,0,0.5657L9.5542,8L12.3798,10.8256z" fill-rule="evenodd" fill="#CD4C32"/>
    <path d="M10.8256,3.6202L8,6.4458L5.1744,3.6202c-0.1562,-0.1562,-0.4095,-0.1562,-0.5657,0l-0.9885,0.9885c-0.1562,0.1562,-0.1562,0.4095,0,0.5657L6.4458,8l-2.8256,2.8256c-0.1562,0.1562,-0.1562,0.4095,0,0.5657l0.9885,0.9885c0.1562,0.1562,0.4095,0.1562,0.5657,0L8,9.5542l2.8256,2.8256c0.1562,0.1562,0.4095,0.1562,0.5657,0l0.9885,-0.9885c0.1562,-0.1562,0.1562,-0.4095,0,-0.5657L9.5542,8l2.8256,-2.8256c0.1562,-0.1562,0.1562,-0.4095,0,-0.5657l-0.9885,-0.9885C11.2351,3.464,10.9818,3.464,10.8256,3.6202z" fill-rule="evenodd" fill="#FFFFFF"/>
  </g>
</svg>
