<?xml version="1.0" encoding="UTF-8"?>
<!DOCTYPE svg PUBLIC "-//W3C//DTD SVG 1.1//EN" "http://www.w3.org/Graphics/SVG/1.1/DTD/svg11.dtd">
<svg version="1.1" id="Layer_1" xmlns="http://www.w3.org/2000/svg" xmlns:xlink="http://www.w3.org/1999/xlink" x="0px" y="0px" width="32px" height="32px" viewBox="0 0 32 32" enable-background="new 0 0 32 32" xml:space="preserve">
  <g id="icon">
    <path d="M15.5,1C7.4919,1,1,7.4919,1,15.5c0,8.0081,6.4919,14.5,14.5,14.5s14.5,-6.4919,14.5,-14.5C30,7.4919,23.5081,1,15.5,1zM23.9389,18.0383c-0.3965,1.3027,-1.0941,2.5008,-2.0882,3.523c-1.6749,1.7222,-3.934,2.6694,-6.3527,2.6694c-2.0215,0,-4.1846,-0.8909,-5.8593,-2.2145L9.3,21.7707v3.395c0,0.4306,-0.5046,0.6463,-0.8091,0.3418l-1.534,-1.5467c-0.0906,-0.0906,-0.157,-0.2136,-0.157,-0.3418v-5.6649c0,-0.2865,0.2344,-0.5542,0.5208,-0.5542h5.7413c0.1268,0,0.2486,0.0612,0.339,0.1502l1.5696,1.5473c0.3088,0.3038,0.0929,0.8334,-0.3403,0.8322l-2.883,-0.0052l0.8054,0.5572c0.9084,0.5377,1.9505,0.8237,3.0136,0.8237c1.6182,0,3.1333,-0.651,4.2661,-1.8383c0.5007,-0.5249,0.8855,-1.1043,1.1565,-1.7492c0.0762,-0.1813,0.2508,-0.3179,0.4474,-0.3179h2.0387C23.7985,17.4,24.0331,17.7289,23.9389,18.0383zM24.2,13.0833c0,0.2669,-0.2164,0.5167,-0.4833,0.5167h-5.7413c-0.1268,0,-0.2486,-0.0665,-0.339,-0.1555l-1.5697,-1.5526c-0.3088,-0.3038,-0.0929,-0.8332,0.3403,-0.832l2.883,0.0056l-0.8054,-0.5565c-0.9084,-0.5377,-1.9505,-0.8224,-3.0136,-0.8224c-1.6182,0,-3.1333,0.6537,-4.2661,1.841c-0.5,0.5241,-0.8844,1.133,-1.1553,1.762c-0.0766,0.1779,-0.2502,0.3105,-0.4438,0.3105H7.5647c-0.3238,0,-0.5587,-0.3296,-0.4635,-0.6391c0.396,-1.2878,1.0891,-2.5078,2.081,-3.5275c1.6749,-1.7222,3.9293,-2.6747,6.348,-2.6747c2.0215,0,4.1752,0.8909,5.8499,2.2145L21.7,9.2186v-3.395c0,-0.4306,0.5139,-0.6463,0.8184,-0.3418l1.5433,1.5467c0.0906,0.0906,0.1382,0.2136,0.1382,0.3418V13.0833z" fill-rule="evenodd" fill="#529FBF"/>
    <path d="M7.5647,13.5667c-0.3238,0,-0.5587,-0.3129,-0.4635,-0.6224c0.396,-1.2878,1.0891,-2.4994,2.081,-3.5192c1.6749,-1.7222,3.9293,-2.6706,6.348,-2.6706c2.0215,0,4.1685,0.8929,5.8432,2.2166l0.3132,0.2475v-3.395c0,-0.4306,0.5206,-0.6463,0.8251,-0.3418l1.5467,1.5467c0.0906,0.0906,0.1416,0.2136,0.1416,0.3418v5.7131c0,0.2669,-0.2164,0.4833,-0.4833,0.4833h-5.7413c-0.1268,0,-0.2486,-0.0498,-0.339,-0.1388l-1.5697,-1.5443c-0.3088,-0.3038,-0.0929,-0.829,0.3403,-0.8279l2.883,0.0077l-0.8054,-0.5555c-0.9084,-0.5377,-1.9505,-0.8219,-3.0136,-0.8219c-1.6182,0,-3.1333,0.6539,-4.2661,1.8412c-0.5,0.5241,-0.8844,1.1165,-1.1553,1.7454c-0.0766,0.1779,-0.2502,0.2939,-0.4438,0.2939H7.5647zM21.4364,17.4333c-0.1966,0,-0.3713,0.1202,-0.4474,0.3014c-0.271,0.6448,-0.6558,1.2078,-1.1565,1.7326c-1.1328,1.1873,-2.6479,1.8386,-4.2661,1.8386c-1.0631,0,-2.1051,-0.2855,-3.0136,-0.8232l-0.8054,-0.5562l2.883,0.0073c0.4331,0.0012,0.649,-0.5243,0.3403,-0.828l-1.5696,-1.539c-0.0904,-0.0889,-0.2121,-0.1335,-0.339,-0.1335H7.3208c-0.2865,0,-0.5208,0.2344,-0.5208,0.5208v5.6649c0,0.1282,0.0697,0.2511,0.1603,0.3418l1.5373,1.5467c0.3045,0.3045,0.8157,0.0888,0.8157,-0.3418v-3.395l0.332,0.2475c1.6747,1.3236,3.8311,2.2166,5.8526,2.2166c2.4187,0,4.6779,-0.943,6.3527,-2.6652c0.9942,-1.0222,1.6918,-2.212,2.0882,-3.5147c0.0942,-0.3094,-0.1404,-0.6216,-0.4638,-0.6216H21.4364z" fill="#FFFFFF"/>
  </g>
</svg>
