<?xml version="1.0" encoding="utf-8"?>
<!-- Generator: Adobe Illustrator 19.0.0, SVG Export Plug-In . SVG Version: 6.00 Build 0)  -->
<svg version="1.1" id="Layer_1" xmlns="http://www.w3.org/2000/svg" xmlns:xlink="http://www.w3.org/1999/xlink" x="0px" y="0px"
	 viewBox="-289 412.9 16 16" style="enable-background:new -289 412.9 16 16;" xml:space="preserve">
<style type="text/css">
	.st0{fill:#529FBF;}
</style>
<g id="icon">
	<path class="st0" d="M-287.5,424l-0.4,0.2h-0.1c-0.1,0-0.3-0.1-0.3-0.2c-0.4-1-0.6-2-0.6-3.1c0-1,0.2-2.1,0.6-3
		c0.1-0.1,0.2-0.2,0.3-0.2c0.1,0,0.1,0,0.1,0l0.4,0.2c0.2,0.1,0.3,0.3,0.2,0.5c-0.3,0.8-0.5,1.7-0.5,2.6s0.2,1.8,0.5,2.6
		C-287.3,423.7-287.3,423.9-287.5,424z M-287.3,416.6l0.3,0.2c0.1,0,0.1,0.1,0.2,0.1s0.2-0.1,0.3-0.1c1.1-1.5,2.8-2.4,4.6-2.7
		c0.2,0,0.3-0.2,0.3-0.4v-0.4c0-0.2-0.2-0.3-0.4-0.3c-2.1,0.3-4.1,1.4-5.3,3.1c-0.1,0.1-0.1,0.2-0.1,0.3
		C-287.4,416.4-287.3,416.5-287.3,416.6z M-281.8,427.7c-1.8-0.2-3.5-1.2-4.6-2.7c-0.1-0.1-0.2-0.1-0.3-0.1c-0.1,0-0.1,0-0.2,0.1
		l-0.3,0.2c-0.1,0.1-0.1,0.1-0.1,0.2s0,0.2,0.1,0.3c1.3,1.7,3.3,2.8,5.4,3.1l0,0c0.2,0,0.3-0.1,0.4-0.3v-0.4
		C-281.5,427.9-281.6,427.8-281.8,427.7z M-273.6,417.8c-0.1-0.1-0.2-0.2-0.3-0.2h-0.1l-0.4,0.2c-0.2,0.1-0.3,0.3-0.2,0.5
		c0.3,0.8,0.5,1.7,0.5,2.6s-0.2,1.8-0.5,2.7c-0.1,0.2,0,0.4,0.2,0.5l0.4,0.2h0.1c0.1,0,0.3-0.1,0.3-0.2c0.4-1,0.6-2,0.6-3.1
		C-273,419.8-273.3,418.8-273.6,417.8z M-274.8,425.3l-0.3-0.2c-0.1,0-0.1-0.1-0.2-0.1s-0.2,0-0.3,0.1c-1.1,1.4-2.7,2.4-4.5,2.6
		c-0.2,0-0.3,0.2-0.3,0.4v0.4c0,0.2,0.2,0.3,0.4,0.3l0,0c2.1-0.3,4-1.4,5.2-3.1c0.1-0.1,0.1-0.2,0.1-0.3
		C-274.6,425.4-274.8,425.3-274.8,425.3z M-280.1,414.1c1.8,0.2,3.4,1.2,4.5,2.6c0.1,0.1,0.2,0.1,0.3,0.1c0.1,0,0.1,0,0.2-0.1
		l0.3-0.2c0.1-0.1,0.1-0.1,0.1-0.2s0-0.2-0.1-0.3c-1.3-1.7-3.2-2.8-5.3-3.1c-0.2,0-0.4,0.1-0.4,0.3v0.4
		C-280.4,413.9-280.3,414.1-280.1,414.1z"/>
</g>
</svg>
