<?xml version="1.0" encoding="UTF-8"?>
<!DOCTYPE svg PUBLIC "-//W3C//DTD SVG 1.1//EN" "http://www.w3.org/Graphics/SVG/1.1/DTD/svg11.dtd">
<svg version="1.1" id="Layer_1" xmlns="http://www.w3.org/2000/svg" xmlns:xlink="http://www.w3.org/1999/xlink" x="0px" y="0px" width="16px" height="16px" viewBox="0 0 16 16" xml:space="preserve">
  <path fill="currentColor" d="M4.5 2A2.5 2.5 0 015 6.95V8.5a2.5 2.5 0 002.336 2.495L7.5 11h1.55a2.5 2.5 0 110 1H7.5a3.5 3.5 0 01-3.495-3.308L4 8.5V6.95A2.5 2.5 0 014.5 2zm7 8a1.5 1.5 0 100 3 1.5 1.5 0 000-3zm-7-7a1.5 1.5 0 100 3 1.5 1.5 0 000-3z"></path>
</svg>
