<?xml version="1.0" encoding="UTF-8"?>
<!DOCTYPE svg PUBLIC "-//W3C//DTD SVG 1.1//EN" "http://www.w3.org/Graphics/SVG/1.1/DTD/svg11.dtd">
<svg version="1.1" id="Layer_1" xmlns="http://www.w3.org/2000/svg" xmlns:xlink="http://www.w3.org/1999/xlink" x="0px" y="0px" width="16px" height="16px" viewBox="0 0 16 16" enable-background="new 0 0 16 16" xml:space="preserve">
  <g id="main">
    <clipPath id="clip_mask">
      <path d="M6,11.5c0,-3.0327,2.4673,-5.5,5.5,-5.5c1.8588,0,3.5039,0.9278,4.5,2.3436V0H0v16h8.3436C6.9278,15.0039,6,13.3588,6,11.5z"/>
    </clipPath>
    <g id="icon" clip-path="url(#clip_mask)">
      <path d="M13.7133,0H9.2677c-0.2058,0,-0.3998,0.0546,-0.5736,0.1379c-0.1012,0.0195,-0.1979,0.0716,-0.2763,0.1497L0.1566,8.5282c-0.2089,0.2082,-0.2089,0.5466,0,0.7548l5.5781,5.5613c0.2089,0.2082,0.5475,0.2084,0.7564,0.0002l8.2612,-8.2389c0.0612,-0.061,0.0837,-0.1332,0.109,-0.2099c0.1013,-0.1868,0.1387,-0.4006,0.1387,-0.6279V1.336C15,0.6053,14.4463,0,13.7133,0zM12.2305,4.0056c-0.6451,0,-1.168,-0.5189,-1.168,-1.159s0.5229,-1.159,1.168,-1.159c0.6451,0,1.168,0.5189,1.168,1.159S12.8756,4.0056,12.2305,4.0056z" fill-rule="evenodd" fill="#3E79B4"/>
    </g>
    <g id="overlay">
      <path d="M15.7375,10.9804l-2.4115,-0.1007c-0.0271,-0.0799,-0.0592,-0.1576,-0.0961,-0.2324l1.6339,-1.7762c0.1025,-0.1025,0.1025,-0.2687,0,-0.3712l-0.3637,-0.3637c-0.1025,-0.1025,-0.2687,-0.1025,-0.3712,0l-1.7762,1.6339c-0.0748,-0.037,-0.1525,-0.069,-0.2324,-0.0961l-0.1007,-2.4115c0,-0.145,-0.1175,-0.2625,-0.2625,-0.2625h-0.5143c-0.145,0,-0.2625,0.1175,-0.2625,0.2625l-0.1007,2.4115c-0.0799,0.0271,-0.1575,0.0592,-0.2324,0.0961L8.8711,8.1362c-0.1025,-0.1025,-0.2687,-0.1025,-0.3712,0l-0.3637,0.3637c-0.1025,0.1025,-0.1025,0.2687,0,0.3712l1.6339,1.7762c-0.037,0.0748,-0.069,0.1525,-0.0961,0.2324l-2.4115,0.1007c-0.145,0,-0.2625,0.1175,-0.2625,0.2625v0.5143c0,0.145,0.1175,0.2625,0.2625,0.2625l2.4115,0.1007c0.0271,0.0799,0.0592,0.1576,0.0961,0.2324l-1.6339,1.7762c-0.1025,0.1025,-0.1025,0.2687,0,0.3712l0.3637,0.3637c0.1025,0.1025,0.2687,0.1025,0.3712,0l1.7762,-1.6339c0.0748,0.037,0.1525,0.069,0.2324,0.0961l0.1007,2.4115c0,0.145,0.1175,0.2625,0.2625,0.2625h0.5143c0.145,0,0.2625,-0.1175,0.2625,-0.2625l0.1007,-2.4115c0.0799,-0.0271,0.1576,-0.0592,0.2324,-0.0961l1.7762,1.6339c0.1025,0.1025,0.2687,0.1025,0.3712,0l0.3637,-0.3637c0.1025,-0.1025,0.1025,-0.2687,0,-0.3712l-1.6339,-1.7762c0.037,-0.0748,0.069,-0.1525,0.0961,-0.2324l2.4115,-0.1007c0.145,0,0.2625,-0.1175,0.2625,-0.2625v-0.5143C16,11.0979,15.8825,10.9804,15.7375,10.9804zM11.5,12.1c-0.426,0,-0.6,-0.174,-0.6,-0.6c0,-0.426,0.174,-0.6,0.6,-0.6s0.6,0.174,0.6,0.6C12.1,11.926,11.926,12.1,11.5,12.1z" fill-rule="evenodd" fill="#EAB765"/>
    </g>
  </g>
</svg>
