<?xml version="1.0" encoding="UTF-8"?>
<!DOCTYPE svg PUBLIC "-//W3C//DTD SVG 1.1//EN" "http://www.w3.org/Graphics/SVG/1.1/DTD/svg11.dtd">
<svg version="1.1" id="Layer_1" xmlns="http://www.w3.org/2000/svg" xmlns:xlink="http://www.w3.org/1999/xlink" x="0px" y="0px" width="16px" height="16px" viewBox="0 0 16 16" enable-background="new 0 0 16 16" xml:space="preserve">
  <g id="icon">
    <path d="M14.6276,0h-4.742c-0.2195,0,-0.4264,0.0582,-0.6118,0.1471c-0.108,0.0208,-0.2111,0.0763,-0.2947,0.1597l-8.8119,8.79c-0.2228,0.2221,-0.2228,0.5831,0,0.8052l5.95,5.932c0.2228,0.2221,0.584,0.2223,0.8068,0.0002l8.8119,-8.7881c0.0653,-0.0651,0.0893,-0.1421,0.1163,-0.2239c0.108,-0.1993,0.1479,-0.4273,0.1479,-0.6697V1.4251C16,0.6457,15.4093,0,14.6276,0zM13.0459,4.2726c-0.6881,0,-1.2459,-0.5535,-1.2459,-1.2363S12.3578,1.8,13.0459,1.8c0.6881,0,1.2459,0.5535,1.2459,1.2363S13.734,4.2726,13.0459,4.2726z" fill-rule="evenodd" fill="#3E79B4"/>
  </g>
</svg>
