<?xml version="1.0" encoding="UTF-8"?>
<!DOCTYPE svg PUBLIC "-//W3C//DTD SVG 1.1//EN" "http://www.w3.org/Graphics/SVG/1.1/DTD/svg11.dtd">
<svg version="1.1" id="Layer_1" xmlns="http://www.w3.org/2000/svg" xmlns:xlink="http://www.w3.org/1999/xlink" x="0px" y="0px" width="16px" height="16px" viewBox="0 0 16 16" enable-background="new 0 0 16 16" xml:space="preserve">
  <g id="icon">
    <path d="M9.515,11h-2.03c-0.268,0,-0.485,-0.217,-0.485,-0.485v-3.03c0,-0.268,0.217,-0.485,0.485,-0.485h2.03c0.268,0,0.485,0.217,0.485,0.485v3.03C10,10.783,9.783,11,9.515,11z" fill="#3E79B4"/>
    <path d="M6,3H5v-0.5h1V3zM12,2.5h-1v0.5h1V2.5z" fill="#B4B4B5"/>
    <path d="M6,2.5H5v-0.359C5,1.511,5.511,1,6.141,1h4.708c0.633,0,1.151,0.518,1.151,1.151V2.5h-1v-0.269c0,-0.127,-0.104,-0.231,-0.231,-0.231H6.225C6.101,2,6,2.101,6,2.225V2.5zM10.5,10.513c0,0.545,-0.442,0.988,-0.988,0.988H7.488c-0.545,0,-0.988,-0.442,-0.988,-0.988V9.5H1v5c0,0.275,0.225,0.5,0.5,0.5h13c0.275,0,0.5,-0.225,0.5,-0.5V9.5h-4.5V10.513zM15.5,3H0.5c-0.275,0,-0.5,0.225,-0.5,0.5v5c0,0.275,0.225,0.5,0.5,0.5h6V7.488c0,-0.545,0.442,-0.988,0.988,-0.988h2.025c0.545,0,0.988,0.442,0.988,0.988V9h5c0.275,0,0.5,-0.225,0.5,-0.5V3.5C16,3.225,15.775,3,15.5,3z" fill="#797979"/>
  </g>
</svg>
