<?xml version="1.0" encoding="UTF-8"?>
<!DOCTYPE svg PUBLIC "-//W3C//DTD SVG 1.1//EN" "http://www.w3.org/Graphics/SVG/1.1/DTD/svg11.dtd">
<svg version="1.1" id="Layer_1" xmlns="http://www.w3.org/2000/svg" xmlns:xlink="http://www.w3.org/1999/xlink" x="0px" y="0px" width="16px" height="16px" viewBox="0 0 16 16" enable-background="new 0 0 16 16" xml:space="preserve">
  <g id="icon">
    <path d="M3,1c0,0,-2.101,0,-2.923,0c0,0.869,0.664,4,1.78,4C2.175,5,3,5,3,5V1zM3,6c0,0,-2.101,0,-2.923,0c0,0.869,0.664,4,1.78,4c0.318,0,1.143,0,1.143,0V6zM3,11c0,0,-2.101,0,-2.923,0c0,0.869,0.664,4,1.78,4c0.318,0,1.143,0,1.143,0V11zM12.077,5c0,0,0.825,0,1.143,0c1.116,0,1.78,-3.131,1.78,-4c-0.822,0,-2.923,0,-2.923,0V5zM12.077,10c0,0,0.825,0,1.143,0c1.116,0,1.78,-3.131,1.78,-4c-0.822,0,-2.923,0,-2.923,0V10zM12.077,15c0,0,0.825,0,1.143,0c1.116,0,1.78,-3.131,1.78,-4c-0.822,0,-2.923,0,-2.923,0V15zM10.571,0H4.429C4.192,0,4,0.192,4,0.429v15.141c0,0.237,0.192,0.429,0.429,0.429h6.141c0.237,0,0.429,-0.192,0.429,-0.429V0.429C11,0.192,10.808,0,10.571,0zM7.491,15.567c-1.408,0,-2.549,-1.141,-2.549,-2.549c0,-1.408,1.141,-2.549,2.549,-2.549c1.408,0,2.549,1.141,2.549,2.549C10.04,14.426,8.899,15.567,7.491,15.567zM7.491,9.847c-1.032,0,-1.869,-0.837,-1.869,-1.869c0,-1.032,0.837,-1.869,1.869,-1.869c1.032,0,1.869,0.837,1.869,1.869C9.36,9.01,8.523,9.847,7.491,9.847zM7.491,4.806c-1.032,0,-1.869,-0.837,-1.869,-1.869c0,-1.032,0.837,-1.869,1.869,-1.869c1.032,0,1.869,0.837,1.869,1.869C9.36,3.97,8.523,4.806,7.491,4.806z" fill-rule="evenodd" fill="#797979"/>
    <path d="M7.491,1.068c1.032,0,1.869,0.837,1.869,1.869s-0.837,1.869,-1.869,1.869c-1.032,0,-1.869,-0.837,-1.869,-1.869S6.459,1.068,7.491,1.068zM7.491,6.109c1.032,0,1.869,0.837,1.869,1.869s-0.837,1.869,-1.869,1.869c-1.032,0,-1.869,-0.837,-1.869,-1.869S6.459,6.109,7.491,6.109zM7.491,10.47c1.408,0,2.549,1.141,2.549,2.549c0,1.407,-1.141,2.549,-2.549,2.549c-1.408,0,-2.549,-1.141,-2.549,-2.549C4.943,11.611,6.084,10.47,7.491,10.47z" fill-rule="evenodd" fill="#FFFFFF"/>
    <circle cx="7.491" cy="13.018" r="1.869" fill-rule="evenodd" fill="#4EA17E"/>
  </g>
</svg>
