<?xml version="1.0" encoding="UTF-8"?>
<!DOCTYPE svg PUBLIC "-//W3C//DTD SVG 1.1//EN" "http://www.w3.org/Graphics/SVG/1.1/DTD/svg11.dtd">
<svg version="1.1" id="Layer_1" xmlns="http://www.w3.org/2000/svg" xmlns:xlink="http://www.w3.org/1999/xlink" x="0px" y="0px" width="16px" height="16px" viewBox="0 0 16 16" enable-background="new 0 0 16 16" xml:space="preserve">
  <g id="icon">
    <path d="M10.4682,12H1.0017c-0.2515,0,-0.4689,-0.1648,-0.521,-0.3964c-0.1531,-0.6805,-0.437,-2.1382,-0.437,-3.5869c0,-1.452,0.2852,-2.9308,0.438,-3.6189C0.5333,4.1655,0.7509,4,1.003,4h9.4652c0.2937,0,0.5318,0.2241,0.5318,0.5005v6.999C11,11.7759,10.7619,12,10.4682,12z" fill="#3E79B4"/>
    <path d="M15.6012,11.836l-3.815,-2.1265c-0.178,-0.1047,-0.2862,-0.2884,-0.2862,-0.4859V6.8235c0,-0.1976,0.1081,-0.3812,0.2862,-0.4859l3.815,-2.1265c0.1736,-0.1021,0.3988,0.0153,0.3988,0.2081v7.2088C16,11.8206,15.7748,11.9381,15.6012,11.836z" fill="#3E79B4"/>
  </g>
</svg>
