<?xml version="1.0" encoding="UTF-8"?>
<!DOCTYPE svg PUBLIC "-//W3C//DTD SVG 1.1//EN" "http://www.w3.org/Graphics/SVG/1.1/DTD/svg11.dtd">
<svg version="1.1" id="Layer_1" xmlns="http://www.w3.org/2000/svg" xmlns:xlink="http://www.w3.org/1999/xlink" x="0px" y="0px" width="16px" height="16px" viewBox="0 0 16 16" enable-background="new 0 0 16 16" xml:space="preserve">
  <g id="main">
    <clipPath id="clip_mask">
      <path d="M7.802,15.62l-0.5014,-0.5023c-0.4659,-0.4668,-0.5277,-1.1965,-0.1469,-1.7351l0.1285,-0.1818l-0.1649,-0.029C6.4699,13.0578,6,12.498,6,11.8407v-0.713c0,-0.6573,0.4699,-1.2171,1.1172,-1.3311l0.2454,-0.0432l-0.1334,-0.1896c-0.3791,-0.5387,-0.3161,-1.2677,0.1497,-1.7335l0.5033,-0.5033c0.2552,-0.2552,0.5947,-0.3959,0.9559,-0.3959c0.2798,0,0.5487,0.0852,0.7776,0.2462l0.1806,0.1271l0.0321,-0.1845C9.9412,6.471,10.5012,6,11.1599,6h0.7118c0.6587,0,1.2187,0.471,1.3316,1.1199l0.0469,0.2696l0.1861,-0.131c0.2288,-0.161,0.4978,-0.2462,0.7776,-0.2462c0.3611,0,0.7005,0.1406,0.9558,0.3958l0.5034,0.5033c0.1536,0.1536,0.2624,0.336,0.327,0.5306V0H0v16h8.555C8.2709,15.9573,8.0086,15.8271,7.802,15.62z" fill-rule="evenodd"/>
    </clipPath>
    <g id="icon" clip-path="url(#clip_mask)">
      <path d="M14,14.5H1c-0.2761,0,-0.5,-0.2239,-0.5,-0.5V2.5h14v11.5C14.5,14.2761,14.2761,14.5,14,14.5z" fill="#FFFFFF" stroke="#6D6E71" stroke-width="1" stroke-miterlimit="1"/>
      <path d="M15,3H0V1C0,0.4477,0.4477,0,1,0h13c0.5523,0,1,0.4477,1,1V3z" fill="#3E79B4"/>
      <path d="M3,5.5h2M3,7.5h2M3,9.5h2M3,11.5h2" fill="none" stroke="#797979" stroke-width="1" stroke-linecap="round" stroke-miterlimit="1"/>
      <path d="M7,5.5h5.1M7,7.5h5.1M7,9.5h5.1M7,11.5h5.1" fill="none" stroke="#B4B4B5" stroke-width="1" stroke-linecap="round" stroke-miterlimit="1"/>
    </g>
    <g id="overlay">
      <path d="M16,11.901v-0.7117c0,-0.1709,-0.1229,-0.3171,-0.2913,-0.3464l-1.0364,-0.1803c-0.0666,-0.2426,-0.1627,-0.481,-0.2881,-0.7109l0.6207,-0.8821c0.0984,-0.1398,0.0819,-0.33,-0.0389,-0.4509l-0.5033,-0.5033c-0.1209,-0.1209,-0.3111,-0.1373,-0.4509,-0.0389l-0.8569,0.6029c-0.2371,-0.1393,-0.4897,-0.2481,-0.7517,-0.3248l-0.185,-1.0632c-0.0293,-0.1684,-0.1754,-0.2913,-0.3464,-0.2913h-0.7118c-0.1709,0,-0.3171,0.1229,-0.3464,0.2913l-0.1802,1.0357c-0.2458,0.0642,-0.4875,0.1577,-0.7208,0.2819l-0.8724,-0.6138c-0.1398,-0.0984,-0.33,-0.0819,-0.4509,0.0389l-0.5033,0.5033c-0.1209,0.1209,-0.1373,0.3111,-0.0389,0.4509l0.5843,0.8304c-0.1491,0.2465,-0.2496,0.5107,-0.3301,0.785l-1.0105,0.1778C7.1226,10.811,7,10.957,7,11.1277v0.713c0,0.1707,0.1226,0.3167,0.2906,0.3462l0.978,0.1721c0.0666,0.2609,0.159,0.5173,0.2932,0.764l-0.5916,0.8368c-0.0988,0.1397,-0.0826,0.3302,0.0382,0.4513l0.5013,0.5024c0.1209,0.1211,0.3114,0.1376,0.4513,0.0391l0.8042,-0.5663c0.2554,0.1527,0.5289,0.2551,0.8134,0.3345l0.1736,0.9884c0.0295,0.1681,0.1756,0.2908,0.3463,0.2908h0.7129c0.1707,0,0.3167,-0.1226,0.3462,-0.2906l0.1722,-0.9787c0.2577,-0.0693,0.5108,-0.1638,0.7542,-0.2994l0.8465,0.5985c0.1397,0.0988,0.3302,0.0826,0.4513,-0.0382l0.5024,-0.5014c0.1211,-0.1209,0.1376,-0.3114,0.0391,-0.4513l-0.585,-0.8307c0.1429,-0.246,0.2535,-0.5079,0.3292,-0.7802l1.0411,-0.1808C15.877,12.2182,16,12.072,16,11.901zM12.2343,12.8625c-0.7309,0.422,-1.6655,0.1716,-2.0875,-0.5593c-0.422,-0.7309,-0.1716,-1.6655,0.5593,-2.0875c0.7309,-0.422,1.6655,-0.1716,2.0875,0.5593C13.2156,11.5059,12.9652,12.4405,12.2343,12.8625z" fill-rule="evenodd" fill="#797979"/>
    </g>
  </g>
</svg>
