<?xml version="1.0" encoding="UTF-8"?>
<!DOCTYPE svg PUBLIC "-//W3C//DTD SVG 1.1//EN" "http://www.w3.org/Graphics/SVG/1.1/DTD/svg11.dtd">
<svg version="1.1" id="Layer_1" xmlns="http://www.w3.org/2000/svg" xmlns:xlink="http://www.w3.org/1999/xlink" x="0px" y="0px" width="16px" height="16px" viewBox="0 0 16 16" enable-background="new 0 0 16 16" xml:space="preserve">
  <g id="icon">
    <path d="M15.8261,13.9626L9.0903,1.6653c-0.4845,-0.8838,-1.6798,-0.8886,-2.1643,-0.0049L0.1902,13.9651C-0.2996,14.8586,0.3033,16,1.2723,16h13.4716C15.7129,16,16.3159,14.8562,15.8261,13.9626zM9,13.6c0,0.22,-0.18,0.4,-0.4,0.4H7.4c-0.22,0,-0.4,-0.18,-0.4,-0.4v-1.2c0,-0.22,0.18,-0.4,0.4,-0.4h1.2c0.22,0,0.4,0.18,0.4,0.4V13.6zM9,10.6c0,0.22,-0.18,0.4,-0.4,0.4H7.4c-0.22,0,-0.4,-0.18,-0.4,-0.4V5.4c0,-0.22,0.18,-0.4,0.4,-0.4h1.2c0.22,0,0.4,0.18,0.4,0.4V10.6z" fill="#EAB765"/>
    <path d="M8.6,11H7.4c-0.22,0,-0.4,-0.18,-0.4,-0.4V5.4c0,-0.22,0.18,-0.4,0.4,-0.4h1.2c0.22,0,0.4,0.18,0.4,0.4v5.2C9,10.82,8.82,11,8.6,11zM9,13.6v-1.2c0,-0.22,-0.18,-0.4,-0.4,-0.4H7.4c-0.22,0,-0.4,0.18,-0.4,0.4v1.2c0,0.22,0.18,0.4,0.4,0.4h1.2C8.82,14,9,13.82,9,13.6z" fill="#58595B"/>
  </g>
</svg>
