<?xml version="1.0" encoding="UTF-8"?>
<!DOCTYPE svg PUBLIC "-//W3C//DTD SVG 1.1//EN" "http://www.w3.org/Graphics/SVG/1.1/DTD/svg11.dtd">
<svg version="1.1" id="Layer_1" xmlns="http://www.w3.org/2000/svg" xmlns:xlink="http://www.w3.org/1999/xlink" x="0px" y="0px" width="16px" height="16px" viewBox="0 0 16 16" enable-background="new 0 0 16 16" xml:space="preserve">
  <g id="icon">
    <path d="M6.2433,13.5201h3.4954c0.3123,0,0.4955,0.2516,0.4955,0.4959c0,0.2444,-0.1832,0.484,-0.4955,0.484H6.2433c-0.3123,0,-0.4855,-0.2499,-0.4855,-0.4943C5.7578,13.7614,5.931,13.5201,6.2433,13.5201zM6.5995,15.0218h2.8256c0.1942,0,0.2734,0.2737,0.1179,0.4027c-0.926,0.7683,-2.1806,0.7674,-3.0648,-0.0028C6.3272,15.2901,6.4075,15.0218,6.5995,15.0218z" fill-rule="evenodd" fill="#797979"/>
    <path d="M6.2866,13c-0.2493,0,-0.6936,-0.0891,-0.8674,-0.8034l0.02,-0.0124L5.4,11.5615v-0.0163c0,-1.0942,-0.6185,-2.5191,-1.6958,-4.0645C3.672,7.4345,3.6236,7.4,3.6069,7.4h-0.0001c-0.3354,-0.7,-0.5374,-1.3081,-0.6004,-2.0051l0.0065,-0.0286L3,4.9066v-0.0073c0,-1.2962,0.4743,-2.4112,1.4652,-3.4086c0.9458,-0.9525,2.1981,-1.477,3.533,-1.477c0.4787,0,0.951,0.0683,1.4076,0.2031c0.7986,0.2366,1.5331,0.6771,2.1261,1.2739c0.9908,0.9981,1.472,2.113,1.472,3.4086l-0.0006,0.0148l-0.0207,0.445l-0.0007,0.007c-0.0619,0.684,-0.2581,1.347,-0.583,1.9709l-0.0051,0.0094c-0.0096,0.017,-0.0355,0.026,-0.0573,0.056C11.9336,7.9546,10.6,9.8854,10.6,11.5453v0.0163l-0.045,0.6313l0.0045,0.0036c-0.1735,0.7145,-0.6086,0.8036,-0.8583,0.8036H6.2866z" fill-rule="evenodd" fill="#EAB765"/>
  </g>
</svg>
