<?xml version="1.0" encoding="UTF-8"?>
<!DOCTYPE svg PUBLIC "-//W3C//DTD SVG 1.1//EN" "http://www.w3.org/Graphics/SVG/1.1/DTD/svg11.dtd">
<svg version="1.1" id="Layer_1" xmlns="http://www.w3.org/2000/svg" xmlns:xlink="http://www.w3.org/1999/xlink" x="0px" y="0px" width="16px" height="16px" viewBox="0 0 16 16" enable-background="new 0 0 16 16" xml:space="preserve">
  <g id="icon">
    <path d="M14.075,14.5H1.925C1.138,14.5,0.5,13.862,0.5,13.075V2.925C0.5,2.138,1.138,1.5,1.925,1.5h12.15c0.787,0,1.425,0.638,1.425,1.425v10.15C15.5,13.862,14.862,14.5,14.075,14.5z" id="b" fill="#FFFFFF"/>
    <path d="M14.075,15H1.925C0.864,15,0,14.136,0,13.075V2.925C0,1.864,0.864,1,1.925,1h12.15C15.136,1,16,1.864,16,2.925v10.15C16,14.136,15.136,15,14.075,15zM1.925,2c-0.51,0,-0.925,0.415,-0.925,0.925v10.15c0,0.51,0.415,0.925,0.925,0.925h12.15c0.51,0,0.925,-0.415,0.925,-0.925V2.925c0,-0.51,-0.415,-0.925,-0.925,-0.925H1.925z" fill="#797979"/>
    <rect y="4" width="16" height="2" fill="#6D6E71"/>
    <path d="M13.118,7.91c-0.164,-0.159,-0.344,-0.293,-0.533,-0.403c-1.14,-0.782,-2.698,-0.659,-3.706,0.372c-0.251,0.257,-0.447,0.609,-0.588,0.92C7.06,8.8,3.255,8.774,3.255,8.774c-0.054,0,-0.106,0.023,-0.145,0.062L2.061,9.85c-0.081,0.083,-0.081,0.216,0,0.299l1.266,1.295c0.081,0.083,0.199,0.07,0.28,-0.013l0.516,-0.528l0.507,0.519c0.081,0.083,0.221,0.092,0.302,0.009l0.516,-0.528l0.507,0.519c0.081,0.083,0.199,0.114,0.28,0.031l0.715,-0.731l0.457,-0.004l-0.003,0.23c-0.001,0.115,0.088,0.208,0.2,0.211c0,0,0.352,-0.005,0.648,0.005c0.143,0.348,0.352,0.674,0.629,0.957c1.008,1.031,2.566,1.154,3.706,0.371c0.184,-0.107,0.359,-0.237,0.52,-0.391C14.294,10.968,14.298,9.049,13.118,7.91zM12.656,9.462c0.308,0.315,0.308,0.825,0,1.14c-0.308,0.315,-0.807,0.315,-1.114,0c-0.308,-0.315,-0.308,-0.825,0,-1.14C11.849,9.147,12.348,9.147,12.656,9.462z" fill="#3E79B4"/>
  </g>
</svg>
