<?xml version="1.0" encoding="UTF-8"?>
<!DOCTYPE svg PUBLIC "-//W3C//DTD SVG 1.1//EN" "http://www.w3.org/Graphics/SVG/1.1/DTD/svg11.dtd">
<svg version="1.1" id="Layer_1" xmlns="http://www.w3.org/2000/svg" xmlns:xlink="http://www.w3.org/1999/xlink" x="0px" y="0px" width="16px" height="16px" viewBox="0 0 16 16" enable-background="new 0 0 16 16" xml:space="preserve">
  <g id="main">
    <clipPath id="clip_mask">
      <path d="M13.443,16H0V0h16v13.503l-1.282,-1.271c0.668,-1.664,0.301,-3.584,-1.004,-4.897C12.859,6.474,11.722,6,10.512,6c-1.207,0,-2.341,0.472,-3.193,1.33c-1.757,1.768,-1.755,4.647,0.005,6.418c0.855,0.86,1.992,1.334,3.201,1.334c0,0,0,0,0,0c0.576,0,1.142,-0.11,1.67,-0.321L13.443,16z" fill-rule="evenodd"/>
    </clipPath>
    <g id="icon" clip-path="url(#clip_mask)">
      <path d="M13.0087,1H9.2823c0.6431,0.3372,1.6416,0.5765,1.9596,1H12v11H2V2h0.7358c0.3817,-0.4316,1.4381,-0.6718,2.0058,-1H0.9473C0.4214,1,0,1.403,0,1.9125v12.165C0,14.587,0.4214,15,0.9473,15h12.0615c0.5259,0,0.9913,-0.413,0.9913,-0.9225V1.9125C14,1.403,13.5346,1,13.0087,1z" fill="#EAB765"/>
      <path d="M2,2h10v11H2V2z" fill-rule="evenodd" fill="#FFFFFF"/>
      <g>
        <rect x="3" y="5" width="8" height="1" fill-rule="evenodd" fill="#B4B4B5"/>
      </g>
      <g>
        <rect x="3" y="7" width="8" height="1" fill-rule="evenodd" fill="#B4B4B5"/>
      </g>
      <g>
        <rect x="3" y="9" width="8" height="1" fill-rule="evenodd" fill="#B4B4B5"/>
      </g>
      <g>
        <rect x="3" y="11" width="8" height="1" fill-rule="evenodd" fill="#B4B4B5"/>
      </g>
      <path d="M8.6,1.1336c0,-0.1546,0,-0.2623,0,-0.3358C8.6,0.5742,8.3122,0,7.8502,0c-0.3769,0,-0.8645,0,-0.8645,0s-0.4876,0,-0.8645,0C5.6591,0,5.4,0.5742,5.4,0.7978c0,0.0735,0,0.1813,0,0.3358c0,0.6453,-2.2804,0.7756,-2.2804,1.4883c0,0.2868,0.0571,0.6074,0.1432,0.6323c0.0379,0.0109,3.4093,0.0042,3.7266,0.0037c0.3168,0.0005,3.6861,0.0071,3.724,-0.0038c0.086,-0.0248,0.1543,-0.3454,0.1543,-0.6322C10.8677,1.9091,8.6,1.7789,8.6,1.1336z" fill="#797979"/>
    </g>
    <g id="overlay">
      <path d="M8.033,13.043c1.183,1.191,2.997,1.358,4.355,0.502l2.366,2.346c0.153,0.154,0.401,0.154,0.554,0l0.554,-0.558c0.153,-0.154,0.153,-0.404,0,-0.558l-2.364,-2.345c0.856,-1.368,0.692,-3.198,-0.494,-4.391c-1.376,-1.384,-3.604,-1.387,-4.977,-0.005C6.655,9.417,6.658,11.659,8.033,13.043zM8.892,8.894c0.907,-0.912,2.377,-0.912,3.283,0c0.907,0.912,0.907,2.392,0,3.304c-0.907,0.912,-2.377,0.912,-3.283,0C7.985,11.286,7.985,9.807,8.892,8.894z" fill-rule="evenodd" fill="#3E78B3"/>
    </g>
  </g>
</svg>
