<?xml version="1.0" encoding="UTF-8"?>
<!DOCTYPE svg PUBLIC "-//W3C//DTD SVG 1.1//EN" "http://www.w3.org/Graphics/SVG/1.1/DTD/svg11.dtd">
<svg version="1.1" id="Layer_1" xmlns="http://www.w3.org/2000/svg" xmlns:xlink="http://www.w3.org/1999/xlink" x="0px" y="0px" width="16px" height="16px" viewBox="0 0 16 16" enable-background="new 0 0 16 16" xml:space="preserve">
  <g id="main">
    <g id="icon">
      <path d="M6.179,0.02969L4.968,0.1178L3.874,0.2631L2.922,0.4646L2.138,0.7211L1.547,1.031L1.332,1.206L1.174,1.394L1.077,1.595L1.044,1.809L1.077,2.026L1.173,2.235L1.542,2.63L2.128,2.986L2.906,3.294L3.851,3.547L4.94,3.738L6.148,3.858L7.45,3.9L8.757,3.858L9.976,3.738L11.08,3.547L12.05,3.294L12.84,2.986L13.45,2.63L13.83,2.235L13.93,2.026L13.96,1.809L13.93,1.595L13.83,1.394L13.67,1.206L13.45,1.031L12.85,0.7211L12.06,0.4646L11.1,0.2631L10,0.1178L8.788,0.02969L7.483,0zz" fill-rule="evenodd" fill="#EAB765"/>
      <path d="M1.006,11.64L1.039,12.01L1.137,12.37L1.297,12.71L1.515,13.02L1.788,13.32L2.112,13.6L2.903,14.08L3.861,14.47L4.962,14.76L6.177,14.94L7.264,14.99L6.98,14.63L6.641,14.07L6.368,13.48L6.167,12.85L6.043,12.19L6,11.5L6.029,10.94L6.112,10.39L6.248,9.866L6.433,9.361L6.665,8.88L6.941,8.427L7.257,8.004L7.613,7.613L8.004,7.257L8.427,6.941L8.88,6.665L9.361,6.433L9.866,6.248L10.39,6.112L10.94,6.029L11.5,6L12.19,6.043L12.85,6.167L13.48,6.368L14,6.607L14,3.4L13.73,3.763L13.26,4.1L12.61,4.404L11.81,4.667L10.87,4.884L9.816,5.047L8.681,5.15L7.485,5.186L6.263,5.147L5.129,5.036L4.097,4.863L3.184,4.638L2.404,4.369L1.773,4.067L1.306,3.741L1.019,3.4zz" fill-rule="evenodd" fill="#EAB765"/>
    </g>
    <g id="overlay">
      <path d="M8.318,14.682c1.7574,1.7574,4.6066,1.7574,6.364,0c1.7574,-1.7574,1.7574,-4.6066,0,-6.364c-1.7574,-1.7574,-4.6066,-1.7574,-6.364,0C6.5607,10.0754,6.5607,12.9246,8.318,14.682zM9,10.5l2,2V8.5h1v4l2,-2l0,1.6l-2.5,2.5l-2.5,-2.5V10.5z" fill-rule="evenodd" fill="#3E79B4"/>
      <polygon points="11.5,14.6 14,12.1 14,10.5 12,12.5 12,8.5 11,8.5 11,12.5 9,10.5 9,12.1" fill="#FFFFFF" stroke-linejoin="miter"/>
    </g>
  </g>
</svg>
