<?xml version="1.0" encoding="UTF-8"?>
<!DOCTYPE svg PUBLIC "-//W3C//DTD SVG 1.1//EN" "http://www.w3.org/Graphics/SVG/1.1/DTD/svg11.dtd">
<svg version="1.1" id="Layer_1" xmlns="http://www.w3.org/2000/svg" xmlns:xlink="http://www.w3.org/1999/xlink" x="0px" y="0px" width="16px" height="16px" viewBox="0 0 16 16" enable-background="new 0 0 16 16" xml:space="preserve">
  <g id="main">
    <g id="icon">
      <path d="M6.179,0.02969L4.968,0.1178L3.874,0.2631L2.922,0.4646L2.138,0.7211L1.547,1.031L1.332,1.206L1.174,1.394L1.077,1.595L1.044,1.809L1.077,2.026L1.173,2.235L1.542,2.63L2.128,2.986L2.906,3.294L3.851,3.547L4.94,3.738L6.148,3.858L7.45,3.9L8.757,3.858L9.976,3.738L11.08,3.547L12.05,3.294L12.84,2.986L13.45,2.63L13.83,2.235L13.93,2.026L13.96,1.809L13.93,1.595L13.83,1.394L13.67,1.206L13.45,1.031L12.85,0.7211L12.06,0.4646L11.1,0.2631L10,0.1178L8.788,0.02969L7.483,0zz" fill-rule="evenodd" fill="#EAB765"/>
      <path d="M1.006,11.64L1.039,12.01L1.137,12.37L1.297,12.71L1.515,13.02L1.788,13.32L2.112,13.6L2.903,14.08L3.861,14.47L4.962,14.76L6.177,14.94L7.483,15L8.79,14.94L9,14.92L9,11.76L5.717,7.824L5.66,7.613L5.619,7.172L5.684,6.844L5.872,6.495L6.014,6.34L6.234,6.178L6.539,6.051L6.937,6L14,6L14,3.4L13.73,3.763L13.26,4.1L12.61,4.404L11.81,4.667L10.87,4.884L9.816,5.047L8.681,5.15L7.485,5.186L6.263,5.147L5.129,5.036L4.097,4.863L3.184,4.638L2.404,4.369L1.773,4.067L1.306,3.741L1.019,3.4zz" fill-rule="evenodd" fill="#EAB765"/>
    </g>
    <g id="overlay">
      <path d="M15.711,7c-1.2524,0,-7.5477,0,-8.7736,0c-0.4072,0,-0.3119,0.3523,-0.3119,0.3523L10,11.4017V16h2.6v-4.6089l3.3589,-4.0388C15.9589,7.3523,16.1492,7,15.711,7zM11.9,11.3505V15.5h-0.6v-4.1495l2.042,-3.7551c0,0,1.5374,0.0107,1.5675,0.0107C14.9771,7.6061,11.9,11.3505,11.9,11.3505z" fill-rule="evenodd" fill="#797979"/>
      <path d="M11.4132,11.3505l2.0054,-3.7551c0,0,1.5534,0.0107,1.5835,0.0107c0.0675,0,-2.9935,3.7444,-2.9935,3.7444v4.1049h-0.5955V11.3505z" fill-rule="evenodd" fill="#FFFFFF"/>
    </g>
  </g>
</svg>
