<?xml version="1.0" encoding="UTF-8"?>
<!DOCTYPE svg PUBLIC "-//W3C//DTD SVG 1.1//EN" "http://www.w3.org/Graphics/SVG/1.1/DTD/svg11.dtd">
<svg version="1.1" id="Layer_1" xmlns="http://www.w3.org/2000/svg" xmlns:xlink="http://www.w3.org/1999/xlink" x="0px" y="0px" width="16px" height="16px" viewBox="0 0 16 16" enable-background="new 0 0 16 16" xml:space="preserve">
  <g id="main">
    <clipPath id="clip_mask">
      <path d="M7.3486,15.7889c-0.2149,-0.2153,-0.3486,-0.5004,-0.3486,-0.8035V12.25c0,-0.5788,0.4478,-1.0579,1.008,-1.1275c-0.2576,-0.0588,-0.4853,-0.2067,-0.6475,-0.4198c-0.2133,-0.2801,-0.2816,-0.6498,-0.188,-0.9889c0.2239,-0.8113,0.6518,-1.5569,1.2345,-2.156c0.9565,-0.9835,2.2192,-1.5252,3.5987,-1.5252C12.6,6.0325,13.2,6.1622,13.8,6.4037v-0.0026c0,-0.6267,0.5349,-1.1365,1.162,-1.1365c0.3028,0,0.6002,0.1184,0.815,0.3333l0.223,0.2214V0H0v16h7.5635L7.3486,15.7889z"/>
    </clipPath>
    <g id="icon" clip-path="url(#clip_mask)">
      <path d="M7.4828,0c3.5772,0,6.4771,0.6361,6.4771,1.8088S11.0273,3.9,7.4501,3.9c-3.5772,0,-6.4057,-0.9185,-6.4057,-2.0912S3.9056,0,7.4828,0z" fill-rule="evenodd" fill="#EAB765"/>
      <path d="M7.4852,5.1858c3.2505,0,6.1006,-0.7875,6.5148,-1.7858c0,1.1064,-0.0011,8.1314,-0.0011,8.2363c0,2.1524,-2.9389,3.3637,-6.5161,3.3637c-3.5772,0,-6.4771,-1.3215,-6.4771,-3.3637c0,-0.087,-0.0193,-8.156,0.013,-8.2363C1.5329,4.3195,4.1224,5.1858,7.4852,5.1858z" fill-rule="evenodd" fill="#EAB765"/>
    </g>
    <g id="overlay">
      <path d="M8.2714,10.1508c-0.0894,0,-0.1555,-0.0849,-0.1317,-0.1711c0.1743,-0.6318,0.5026,-1.228,0.9858,-1.7248c0.7667,-0.7883,1.7987,-1.2225,2.9059,-1.2225c0.9254,0,1.9082,0.4088,2.6748,1.0147l0.1434,0.1133V6.4011c0,-0.1214,0.1467,-0.1821,0.2325,-0.0963l0.8781,0.8781c0.0255,0.0255,0.0399,0.0602,0.0399,0.0963v2.7355c0,0.0752,-0.061,0.1362,-0.1362,0.1362h-2.748c-0.0357,0,-0.0701,-0.014,-0.0955,-0.0391l-0.8919,-0.8775c-0.087,-0.0856,-0.0262,-0.2336,0.0959,-0.2333l1.5282,0.0041l-0.3639,-0.251c-0.0032,-0.0022,-0.0064,-0.0042,-0.0097,-0.0062c-0.4147,-0.2442,-0.8898,-0.3733,-1.3745,-0.3733c-0.7408,0,-1.4343,0.2993,-1.9528,0.8428c-0.2423,0.254,-0.4253,0.543,-0.5501,0.8498c-0.0207,0.0509,-0.0706,0.0837,-0.1255,0.0837H8.2714zM15.7542,12.1138c0.0894,0,0.1555,0.0849,0.1317,0.1711c-0.1743,0.6318,-0.5026,1.228,-0.9858,1.7248c-0.7667,0.7883,-1.7987,1.2225,-2.9059,1.2225c-0.9254,0,-1.9082,-0.4087,-2.6748,-1.0147l-0.1434,-0.1133v1.7594c0,0.1214,-0.1467,0.1821,-0.2325,0.0963l-0.8781,-0.8781c-0.0255,-0.0255,-0.0399,-0.0602,-0.0399,-0.0963V12.25c0,-0.0752,0.061,-0.1362,0.1362,-0.1362h2.748c0.0357,0,0.0701,0.014,0.0955,0.0391l0.8919,0.8775c0.087,0.0856,0.0262,0.2336,-0.0959,0.2333l-1.5282,-0.0041l0.3639,0.251c0.0032,0.0022,0.0064,0.0042,0.0097,0.0062c0.4147,0.2442,0.8898,0.3733,1.3745,0.3733c0.7408,0,1.4343,-0.2993,1.9528,-0.8428c0.2423,-0.254,0.4253,-0.543,0.5501,-0.8498c0.0207,-0.0509,0.0706,-0.0837,0.1255,-0.0837H15.7542z" fill="#529FBF"/>
    </g>
  </g>
</svg>
