<?xml version="1.0" encoding="UTF-8"?>
<!DOCTYPE svg PUBLIC "-//W3C//DTD SVG 1.1//EN" "http://www.w3.org/Graphics/SVG/1.1/DTD/svg11.dtd">
<svg version="1.1" id="Layer_1" xmlns="http://www.w3.org/2000/svg" xmlns:xlink="http://www.w3.org/1999/xlink" x="0px" y="0px" width="16px" height="16px" viewBox="0 0 16 16" enable-background="new 0 0 16 16" xml:space="preserve">
  <g id="main">
    <clipPath id="clip_mask">
      <path d="M6,11.5c0,-3.0327,2.4673,-5.5,5.5,-5.5c1.8588,0,3.5039,0.9278,4.5,2.3436V0H0v16h8.3436C6.9278,15.0039,6,13.3588,6,11.5z"/>
    </clipPath>
    <g id="icon" clip-path="url(#clip_mask)">
      <path d="M0,4v11h11V4H0zM8,12H3V7h5V12z" fill="#636363"/>
      <polygon points="2,2 2,3 12,3 12,13 13,13 13,3 13,2.5 13,2" fill="#636363" stroke-linejoin="miter"/>
      <polygon points="4,0 4,1 14,1 14,11 15,11 15,1 15,0.5 15,0" fill="#636363" stroke-linejoin="miter"/>
    </g>
    <g id="overlay">
      <path d="M11.507,16c-2.4774,0,-4.493,-2.0156,-4.493,-4.4931c0,-2.4775,2.0155,-4.4931,4.493,-4.4931S16,9.0295,16,11.5069C16,13.9844,13.9845,16,11.507,16zM11.2436,14.9741c0.094,0.0072,0.1805,0.0187,0.2634,0.0187c0.0588,0,0.1206,-0.0138,0.1921,-0.0179c0.0713,-0.2055,0.3091,-0.8749,0.4852,-1.7749H10.76C10.9327,14.1,11.1602,14.7337,11.2436,14.9741zM12.9919,13.2c-0.1399,0.7,-0.3182,1.264,-0.431,1.6056C13.3947,14.5408,14.109,14,14.544,13.2H12.9919zM8.4701,13.2c0.4305,0.8,1.136,1.3298,1.9591,1.5979c-0.1155,-0.3412,-0.2975,-0.8979,-0.4403,-1.5979H8.4701zM14.8539,12.5c0.0974,-0.3,0.1468,-0.6624,0.1468,-1.0036c0,-0.3388,-0.0486,-0.6964,-0.1446,-0.9964h-1.7328c0.0463,0.3,0.0698,0.6879,0.0698,0.9919c0,0.305,-0.0255,0.6081,-0.0758,1.0081H14.8539zM12.3115,12.5c0.0531,-0.4,0.0799,-0.725,0.0799,-1.0382c0,-0.2949,-0.0227,-0.6618,-0.0676,-0.9618h-1.7031c-0.0449,0.3,-0.0676,0.6669,-0.0676,0.9618c0,0.313,0.0269,0.6382,0.0799,1.0382H12.3115zM9.86,12.5c-0.0517,-0.4,-0.0779,-0.7031,-0.0779,-1.0081c0,-0.3042,0.0241,-0.6919,0.0717,-0.9919H8.1579c-0.0959,0.3,-0.1446,0.6576,-0.1446,0.9964c0,0.3412,0.0494,0.7036,0.1468,1.0036H9.86zM14.548,9.8c-0.4318,-0.8,-1.1419,-1.34,-1.9716,-1.6078C12.6893,8.534,12.8669,9.1,13.003,9.8H14.548zM12.2026,9.8c-0.1681,-0.9,-0.4025,-1.5314,-0.4888,-1.7745c-0.0772,-0.0048,-0.1437,-0.0097,-0.2069,-0.0097c-0.0889,0,-0.1803,0.0078,-0.2782,0.0157C11.143,8.2739,10.9092,8.9,10.7417,9.8H12.2026zM9.9775,9.8c0.1389,-0.7,0.3201,-1.2589,0.4356,-1.6c-0.8186,0.2711,-1.5197,0.8,-1.947,1.6H9.9775z" fill="#3E79B4"/>
    </g>
  </g>
</svg>
