<?xml version="1.0" encoding="UTF-8"?>
<!DOCTYPE svg PUBLIC "-//W3C//DTD SVG 1.1//EN" "http://www.w3.org/Graphics/SVG/1.1/DTD/svg11.dtd">
<svg version="1.1" id="Layer_1" xmlns="http://www.w3.org/2000/svg" xmlns:xlink="http://www.w3.org/1999/xlink" x="0px" y="0px" width="16px" height="16px" viewBox="0 0 16 16" enable-background="new 0 0 16 16" xml:space="preserve">
  <g id="main">
    <g id="icon">
      <path d="M1.5,6.1L12.19,6.1L12.41,6.026L12.65,6L12.91,6.032L13.09,6.1L13.5,6.1L13,5L1.8,5zz" fill-rule="evenodd" fill="#3E79B4"/>
      <path d="M1.7,10L6.048,10L6.033,9.951L6,9.658L6.025,9.353L6.108,9.062L6.191,8.9L1.5,8.9zz" fill-rule="evenodd" fill="#3E79B4"/>
      <path d="M8.063,1.973L8.478,3.371L8.7,4.291L8.894,5.302L9.03,6.364L9.065,7.073L9.211,7.117L9.474,7.257L9.703,7.446L10.22,7.968L10.24,7.486L10.19,6.407L10.05,5.338L9.858,4.318L9.636,3.391L9.221,1.979L9.032,1.434L7.874,1.434zM8.063,12.93L7.874,13.49L9.032,13.49L9.068,13.38L8.681,12.99L8.189,12.49zz" fill-rule="evenodd" fill="#3E79B4"/>
      <path d="M5.756,1.979L5.33,3.391L5.102,4.318L4.903,5.338L4.762,6.407L4.709,7.486L4.762,8.529L4.903,9.578L5.102,10.59L5.33,11.51L5.756,12.94L5.95,13.49L7.023,13.49L6.834,12.93L6.419,11.49L6.197,10.56L6.143,10.28L6.12,10.23L6.033,9.951L6,9.658L6.008,9.564L6.004,9.542L5.867,8.486L5.815,7.436L5.867,6.364L6.004,5.302L6.197,4.291L6.419,3.371L6.834,1.973L7.023,1.434L5.95,1.434zz" fill-rule="evenodd" fill="#3E79B4"/>
      <path d="M6.742,0.03906L5.999,0.1529L5.281,0.3379L4.593,0.5902L3.938,0.9061L3.321,1.282L2.744,1.713L2.211,2.197L1.727,2.73L1.296,3.307L0.9197,3.925L0.6037,4.58L0.3514,5.268L0.1666,5.985L0.05273,6.729L0.01406,7.494L0.05273,8.259L0.1666,9.002L0.3514,9.719L0.6037,10.41L0.9197,11.06L1.296,11.68L1.727,12.26L2.211,12.79L2.744,13.27L3.321,13.71L3.938,14.08L4.593,14.4L5.281,14.65L5.999,14.83L6.742,14.95L7.507,14.99L8.272,14.95L9.015,14.83L9.733,14.65L10.16,14.49L8.899,13.21L8.693,13.27L8.109,13.36L7.507,13.39L6.905,13.36L6.321,13.27L5.756,13.12L5.215,12.92L4.7,12.67L4.214,12.38L3.761,12.04L3.342,11.66L2.961,11.24L2.622,10.79L2.326,10.3L2.078,9.785L1.879,9.244L1.734,8.68L1.645,8.095L1.614,7.494L1.645,6.892L1.734,6.307L1.879,5.743L2.078,5.202L2.326,4.687L2.622,4.201L2.961,3.747L3.342,3.329L3.761,2.948L4.214,2.608L4.7,2.313L5.215,2.064L5.756,1.866L6.321,1.72L6.905,1.631L7.507,1.6L8.109,1.631L8.693,1.72L9.257,1.866L9.799,2.064L10.31,2.313L10.8,2.608L11.25,2.948L11.67,3.328L12.05,3.747L12.39,4.201L12.69,4.687L12.94,5.202L13.13,5.743L13.25,6.174L13.89,6.512L14.62,6.126L14.86,6.038L14.85,5.985L14.66,5.268L14.41,4.58L14.09,3.925L13.72,3.307L13.29,2.73L12.8,2.198L12.27,1.714L11.69,1.282L11.08,0.9061L10.42,0.5902L9.733,0.3379L9.015,0.1529L8.272,0.03906L7.507,0.0003906zz" fill="#3E79B4"/>
    </g>
    <g id="overlay">
      <path d="M8.439,8.363L7.35,9.469c-0.084,0.085,-0.082,0.249,0.006,0.338l2.036,2.069l1.43,-1.452L8.786,8.355C8.698,8.266,8.524,8.278,8.439,8.363z" fill="#FFFFFF"/>
      <path d="M13.93,7.62l1.159,-0.609c0.065,-0.034,0.142,0.021,0.129,0.094l-0.221,1.291c-0.005,0.029,0.005,0.058,0.026,0.079l0.938,0.914c0.053,0.051,0.024,0.141,-0.049,0.152l-1.296,0.188c-0.029,0.004,-0.054,0.022,-0.067,0.049l-0.58,1.174c-0.033,0.066,-0.127,0.066,-0.16,0l-0.58,-1.174c-0.013,-0.026,-0.038,-0.044,-0.067,-0.049l-1.296,-0.188c-0.073,-0.011,-0.102,-0.1,-0.049,-0.152l0.938,-0.914c0.021,-0.02,0.031,-0.05,0.026,-0.079l-0.221,-1.291c-0.012,-0.073,0.064,-0.128,0.129,-0.094l1.159,0.609C13.873,7.633,13.904,7.633,13.93,7.62z" fill="#EAB765"/>
      <path d="M7,9.642c0.002,0.141,0.058,0.277,0.152,0.373l1.832,1.861l0.408,0.415l3.66,3.709h2.961v-0.717l-4.783,-4.86l-0.408,-0.415L8.99,8.148c-0.098,-0.099,-0.24,-0.153,-0.389,-0.147c-0.14,0.005,-0.274,0.062,-0.366,0.155L7.146,9.262C7.051,9.359,6.998,9.497,7,9.642zM7.595,9.636l1.021,-1.037l1.797,1.826l-1.021,1.037L7.595,9.636z" fill="#797979"/>
    </g>
  </g>
</svg>
