<?xml version="1.0" encoding="UTF-8"?>
<!DOCTYPE svg PUBLIC "-//W3C//DTD SVG 1.1//EN" "http://www.w3.org/Graphics/SVG/1.1/DTD/svg11.dtd">
<svg version="1.1" id="Layer_1" xmlns="http://www.w3.org/2000/svg" xmlns:xlink="http://www.w3.org/1999/xlink" x="0px" y="0px" width="16px" height="16px" viewBox="0 0 16 16" enable-background="new 0 0 16 16" xml:space="preserve">
  <g id="main">
    <clipPath id="clip_mask">
      <path d="M14.699,11.468L16,10.166v2.603L14.699,11.468zM6.387,15.186c-0.515,-0.515,-0.515,-1.353,0,-1.868l1.85,-1.85l-1.85,-1.85c-0.25,-0.25,-0.387,-0.581,-0.387,-0.934s0.137,-0.685,0.387,-0.934l1.362,-1.362c0.25,-0.25,0.581,-0.387,0.934,-0.387s0.685,0.137,0.934,0.387l1.85,1.85l1.85,-1.85c0.25,-0.25,0.581,-0.387,0.934,-0.387s0.685,0.137,0.934,0.387L16,7.2V0H0v16h7.2L6.387,15.186zM15.864,16H16v-0.136L15.864,16zM10.166,16h2.603l-1.301,-1.301L10.166,16z" fill-rule="evenodd"/>
    </clipPath>
    <g id="icon" clip-path="url(#clip_mask)">
      <path d="M1.8,5h11.2l0.5,1.1H1.5L1.8,5z" fill-rule="evenodd" fill="#3E79B4"/>
      <path d="M1.5,8.9h12.1l-0.3,1.1H1.7L1.5,8.9z" fill-rule="evenodd" fill="#3E79B4"/>
      <path d="M9.0319,1.4338H7.8742c0,0,1.2081,3.1666,1.2081,6.0018c0,2.7513,-1.2081,6.0549,-1.2081,6.0549h1.1576c0,0,1.2081,-3.2706,1.2081,-6.0045C10.24,4.6346,9.0319,1.4338,9.0319,1.4338z" fill-rule="evenodd" fill="#3E79B4"/>
      <path d="M5.9504,1.4338h1.0727c0,0,-1.2081,3.1666,-1.2081,6.0018c0,2.7513,1.2081,6.0549,1.2081,6.0549H5.9504c0,0,-1.2414,-3.2706,-1.2414,-6.0045C4.709,4.6346,5.9504,1.4338,5.9504,1.4338z" fill-rule="evenodd" fill="#3E79B4"/>
      <path d="M7.507,14.9867c-4.1316,0,-7.493,-3.3614,-7.493,-7.4932S3.3754,0.0004,7.507,0.0004S15,3.3618,15,7.4935S11.6387,14.9867,7.507,14.9867zM7.507,1.6004c-3.2494,0,-5.893,2.6437,-5.893,5.8931c0,3.2495,2.6436,5.8932,5.893,5.8932S13.4,10.743,13.4,7.4935C13.4,4.244,10.7564,1.6004,7.507,1.6004z" fill="#3E79B4"/>
    </g>
    <g id="overlay">
      <path d="M15.906,14.544l-1.362,1.362c-0.125,0.125,-0.329,0.125,-0.454,0l-2.622,-2.622l-2.557,2.557c-0.125,0.125,-0.329,0.125,-0.454,0l-1.362,-1.362c-0.125,-0.125,-0.125,-0.329,0,-0.454l2.557,-2.557L7.094,8.911c-0.125,-0.125,-0.125,-0.329,0,-0.454l1.362,-1.362c0.125,-0.125,0.329,-0.125,0.454,0l2.557,2.557l2.557,-2.557c0.125,-0.125,0.329,-0.125,0.454,0l1.362,1.362c0.125,0.125,0.125,0.329,0,0.454l-2.557,2.557l2.622,2.622C16.031,14.215,16.031,14.418,15.906,14.544z" fill-rule="evenodd" fill="#CD4C32"/>
    </g>
  </g>
</svg>
