<?xml version="1.0" encoding="UTF-8"?>
<!DOCTYPE svg PUBLIC "-//W3C//DTD SVG 1.1//EN" "http://www.w3.org/Graphics/SVG/1.1/DTD/svg11.dtd">
<svg version="1.1" id="Layer_1" xmlns="http://www.w3.org/2000/svg" xmlns:xlink="http://www.w3.org/1999/xlink" x="0px" y="0px" width="16px" height="16px" viewBox="0 0 16 16" enable-background="new 0 0 16 16" xml:space="preserve">
  <g id="icon">
    <path d="M2.0149,5h11.8603L14.4,6.1H1.7L2.0149,5z" fill-rule="evenodd" fill="#3E79B4"/>
    <path d="M1.6,9.9h13.076L14.2,11H1.9L1.6,9.9z" fill-rule="evenodd" fill="#3E79B4"/>
    <path d="M9.6457,1.4812H8.4016c0,0,1.2984,3.4031,1.2984,6.4501c0,2.9568,-1.2984,6.5072,-1.2984,6.5072h1.2441c0,0,1.2984,-3.5149,1.2984,-6.4531C10.9441,4.921,9.6457,1.4812,9.6457,1.4812z" fill-rule="evenodd" fill="#3E79B4"/>
    <path d="M6.3341,1.4812H7.487c0,0,-1.2984,3.4031,-1.2984,6.4501c0,2.9568,1.2984,6.5072,1.2984,6.5072H6.3341c0,0,-1.3341,-3.5149,-1.3341,-6.4531C5,4.921,6.3341,1.4812,6.3341,1.4812z" fill-rule="evenodd" fill="#3E79B4"/>
    <path d="M8.007,15.9867c-4.4073,0,-7.993,-3.5857,-7.993,-7.9932S3.5997,0.0004,8.007,0.0004S16,3.5861,16,7.9935S12.4144,15.9867,8.007,15.9867zM8.007,1.6004c-3.5251,0,-6.393,2.8679,-6.393,6.3931s2.8679,6.3932,6.393,6.3932S14.4,11.5187,14.4,7.9935S11.5321,1.6004,8.007,1.6004z" fill="#3E79B4"/>
  </g>
</svg>
