<?xml version="1.0" encoding="UTF-8"?>
<!DOCTYPE svg PUBLIC "-//W3C//DTD SVG 1.1//EN" "http://www.w3.org/Graphics/SVG/1.1/DTD/svg11.dtd">
<svg version="1.1" id="Layer_1" xmlns="http://www.w3.org/2000/svg" xmlns:xlink="http://www.w3.org/1999/xlink" x="0px" y="0px" width="16px" height="16px" viewBox="0 0 16 16" enable-background="new 0 0 16 16" xml:space="preserve">
  <g id="main">
    <clipPath id="clip_mask">
      <path d="M6,11.5c0,-3.0327,2.4673,-5.5,5.5,-5.5c1.8588,0,3.5039,0.9278,4.5,2.3436V0H0v16h8.3436C6.9278,15.0039,6,13.3588,6,11.5z"/>
    </clipPath>
    <g id="icon" clip-path="url(#clip_mask)">
      <path d="M1.8,5h11.2l0.5,1.1H1.5L1.8,5z" fill-rule="evenodd" fill="#636363"/>
      <path d="M1.5,8.9h12.1l-0.3,1.1H1.7L1.5,8.9z" fill-rule="evenodd" fill="#636363"/>
      <path d="M9.0319,1.4338H7.8742c0,0,1.2081,3.1666,1.2081,6.0018c0,2.7513,-1.2081,6.0549,-1.2081,6.0549h1.1576c0,0,1.2081,-3.2706,1.2081,-6.0045C10.24,4.6346,9.0319,1.4338,9.0319,1.4338z" fill-rule="evenodd" fill="#636363"/>
      <path d="M5.9504,1.4338h1.0727c0,0,-1.2081,3.1666,-1.2081,6.0018c0,2.7513,1.2081,6.0549,1.2081,6.0549H5.9504c0,0,-1.2414,-3.2706,-1.2414,-6.0045C4.709,4.6346,5.9504,1.4338,5.9504,1.4338z" fill-rule="evenodd" fill="#636363"/>
      <path d="M7.507,14.9867c-4.1316,0,-7.493,-3.3614,-7.493,-7.4932S3.3754,0.0004,7.507,0.0004S15,3.3618,15,7.4935S11.6387,14.9867,7.507,14.9867zM7.507,1.6004c-3.2494,0,-5.893,2.6437,-5.893,5.8931c0,3.2495,2.6436,5.8932,5.893,5.8932S13.4,10.743,13.4,7.4935C13.4,4.244,10.7564,1.6004,7.507,1.6004z" fill="#636363"/>
    </g>
    <g id="overlay">
      <path d="M16,11.5c0,-2.4853,-2.0147,-4.5,-4.5,-4.5c-2.4853,0,-4.5,2.0147,-4.5,4.5s2.0147,4.5,4.5,4.5C13.9853,16,16,13.9853,16,11.5zM9,12v-1h5v1H9z" fill-rule="evenodd" fill="#CD4C32"/>
      <rect x="9" y="11" width="5" height="1" fill-rule="evenodd" fill="#FFFFFF"/>
    </g>
  </g>
</svg>
