<?xml version="1.0" encoding="UTF-8"?>
<!DOCTYPE svg PUBLIC "-//W3C//DTD SVG 1.1//EN" "http://www.w3.org/Graphics/SVG/1.1/DTD/svg11.dtd">
<svg version="1.1" id="Layer_1" xmlns="http://www.w3.org/2000/svg" xmlns:xlink="http://www.w3.org/1999/xlink" x="0px" y="0px" width="16px" height="16px" viewBox="0 0 16 16" enable-background="new 0 0 16 16" xml:space="preserve">
  <g id="main">
    <clipPath id="clip_mask">
      <path d="M6.1115,15.4688l0.9699,-2.2687c0.098,-0.2294,0.2768,-0.4109,0.4979,-0.5138c0.0489,-0.1051,0.1161,-0.2019,0.1996,-0.2854l4.8635,-4.8635c0.0782,-0.0781,0.166,-0.1406,0.2597,-0.1875c0.0545,-0.1371,0.1392,-0.2618,0.2496,-0.3641l0.5781,-0.5356c0.3549,-0.346,0.7265,-0.4193,0.9774,-0.4193c0.2547,0,0.6338,0.0755,0.9937,0.4353L16,6.7654V0H0v16h6.0411C6.0164,15.8235,6.0383,15.64,6.1115,15.4688z"/>
    </clipPath>
    <g id="icon" clip-path="url(#clip_mask)">
      <path d="M1.8,5h11.2l0.5,1.1H1.5L1.8,5z" fill-rule="evenodd" fill="#3E79B4"/>
      <path d="M1.5,8.9h12.1l-0.3,1.1H1.7L1.5,8.9z" fill-rule="evenodd" fill="#3E79B4"/>
      <path d="M9.0319,1.4338H7.8742c0,0,1.2081,3.1666,1.2081,6.0018c0,2.7513,-1.2081,6.0549,-1.2081,6.0549h1.1576c0,0,1.2081,-3.2706,1.2081,-6.0045C10.24,4.6346,9.0319,1.4338,9.0319,1.4338z" fill-rule="evenodd" fill="#3E79B4"/>
      <path d="M5.9504,1.4338h1.0727c0,0,-1.2081,3.1666,-1.2081,6.0018c0,2.7513,1.2081,6.0549,1.2081,6.0549H5.9504c0,0,-1.2414,-3.2706,-1.2414,-6.0045C4.709,4.6346,5.9504,1.4338,5.9504,1.4338z" fill-rule="evenodd" fill="#3E79B4"/>
      <path d="M7.507,14.9867c-4.1316,0,-7.493,-3.3614,-7.493,-7.4932S3.3754,0.0004,7.507,0.0004S15,3.3618,15,7.4935S11.6387,14.9867,7.507,14.9867zM7.507,1.6004c-3.2494,0,-5.893,2.6437,-5.893,5.8931c0,3.2495,2.6436,5.8932,5.893,5.8932S13.4,10.743,13.4,7.4935C13.4,4.244,10.7564,1.6004,7.507,1.6004z" fill="#3E79B4"/>
    </g>
    <g id="overlay">
      <path d="M8.486,13.108l4.8635,-4.8635l1.4369,1.4369l-4.8635,4.8635L8.486,13.108zM14.4206,7.1734c0.1899,-0.1899,0.3832,-0.1899,0.5732,0l0.8637,0.8637c0.1899,0.1899,0.1899,0.3833,0,0.5732l-0.5809,0.5443l-1.4453,-1.4352L14.4206,7.1734zM7.031,15.8619l0.9699,-2.2687l1.4369,1.4369L7.169,16L7.031,15.8619z" fill-rule="evenodd" fill="#E9B665"/>
    </g>
  </g>
</svg>
