<?xml version="1.0" encoding="UTF-8"?>
<!DOCTYPE svg PUBLIC "-//W3C//DTD SVG 1.1//EN" "http://www.w3.org/Graphics/SVG/1.1/DTD/svg11.dtd">
<svg version="1.1" id="Layer_1" xmlns="http://www.w3.org/2000/svg" xmlns:xlink="http://www.w3.org/1999/xlink" x="0px" y="0px" width="16px" height="16px" viewBox="0 0 16 16" enable-background="new 0 0 16 16" xml:space="preserve">
  <g id="main">
    <clipPath id="clip_mask">
      <path d="M7.3486,15.7889c-0.2149,-0.2153,-0.3486,-0.5004,-0.3486,-0.8035V12.25c0,-0.5788,0.4478,-1.0579,1.008,-1.1275c-0.2576,-0.0588,-0.4853,-0.2067,-0.6475,-0.4198c-0.2133,-0.2801,-0.2816,-0.6498,-0.188,-0.9889c0.2239,-0.8113,0.6518,-1.5569,1.2345,-2.156c0.9565,-0.9835,2.2192,-1.5252,3.5987,-1.5252C12.6,6.0325,13.2,6.1622,13.8,6.4037v-0.0026c0,-0.6267,0.5349,-1.1365,1.162,-1.1365c0.3028,0,0.6002,0.1184,0.815,0.3333l0.223,0.2214V0H0v16h7.5635L7.3486,15.7889z"/>
    </clipPath>
    <g id="icon" clip-path="url(#clip_mask)">
      <path d="M14.324,5.231c0.014,-0.016,0.021,-0.024,0.021,-0.024S9.295,1.481,8.883,1.273c-1.644,-1.031,-1.191,-1.031,-2.772,0c-0.947,0.629,-4.84,3.523,-5.39,3.932C0.59,5.275,0.5,5.411,0.5,5.569v8.517c0,0.229,0.185,0.414,0.414,0.414h13.172c0.229,0,0.414,-0.185,0.414,-0.414V5.569C14.5,5.429,14.43,5.306,14.324,5.231z" fill-rule="evenodd" fill="#FFFFFF"/>
      <path d="M14.793,4.99c-0.035,-0.072,-0.085,-0.137,-0.151,-0.186c-0.274,-0.202,-0.902,-0.665,-1.642,-1.207v1.24c0.208,0.153,0.412,0.302,0.607,0.446C12.7,6.299,10.33,8.929,9.185,9.995c-0.339,0,-1.054,0.001,-1.823,0.002C6.346,9.998,6.237,10,5.783,10c-1.234,-1.094,-3.52,-3.668,-4.395,-4.667c0.167,-0.124,0.376,-0.279,0.613,-0.454V3.634c-0.723,0.534,-1.319,0.977,-1.548,1.148C0.182,4.941,0,5.234,0,5.569v8.517C0,14.59,0.41,15,0.914,15h13.172c0.504,0,0.914,-0.41,0.914,-0.914V5.569C15,5.35,14.922,5.148,14.793,4.99zM14,14H1V6.407c1.094,1.238,3.154,3.525,4.273,4.475c0.09,0.077,0.205,0.119,0.324,0.119c0.201,0,0.55,-0.001,1.767,-0.003c0.998,-0.001,1.906,-0.002,2.016,-0.002c0.123,0,0.242,-0.045,0.333,-0.127c1.013,-0.906,3.161,-3.269,4.287,-4.524V14zM5.624,1c0.08,-0.056,0.151,-0.104,0.211,-0.143C7.575,-0.279,7.341,-0.282,9.138,0.843c0.053,0.03,0.137,0.084,0.245,0.157H8.01c-0.023,-0.001,-0.047,-0.001,-0.07,0H5.624z" fill="#6D6E71"/>
      <path d="M3,2v3.6l3.2,3.4h2.6l3.2,-3.4V2H3zM10,6H5c-0.276,0,-0.5,-0.224,-0.5,-0.5s0.224,-0.5,0.5,-0.5h5c0.276,0,0.5,0.224,0.5,0.5S10.276,6,10,6zM10,4H5c-0.276,0,-0.5,-0.224,-0.5,-0.5s0.224,-0.5,0.5,-0.5h5c0.276,0,0.5,0.224,0.5,0.5S10.276,4,10,4z" fill="#EAB765"/>
      <path d="M10,4H5c-0.276,0,-0.5,-0.224,-0.5,-0.5v0c0,-0.276,0.224,-0.5,0.5,-0.5h5c0.276,0,0.5,0.224,0.5,0.5v0C10.5,3.776,10.276,4,10,4zM10.5,5.5L10.5,5.5c0,-0.276,-0.224,-0.5,-0.5,-0.5H5c-0.276,0,-0.5,0.224,-0.5,0.5v0c0,0.276,0.224,0.5,0.5,0.5h5C10.276,6,10.5,5.776,10.5,5.5z" fill="#FFFFFF"/>
    </g>
    <g id="overlay">
      <path d="M8.2714,10.1508c-0.0894,0,-0.1555,-0.0849,-0.1317,-0.1711c0.1743,-0.6318,0.5026,-1.228,0.9858,-1.7248c0.7667,-0.7883,1.7987,-1.2225,2.9059,-1.2225c0.9254,0,1.9082,0.4088,2.6748,1.0147l0.1434,0.1133V6.4011c0,-0.1214,0.1467,-0.1821,0.2325,-0.0963l0.8781,0.8781c0.0255,0.0255,0.0399,0.0602,0.0399,0.0963v2.7355c0,0.0752,-0.061,0.1362,-0.1362,0.1362h-2.748c-0.0357,0,-0.0701,-0.014,-0.0955,-0.0391l-0.8919,-0.8775c-0.087,-0.0856,-0.0262,-0.2336,0.0959,-0.2333l1.5282,0.0041l-0.3639,-0.251c-0.0032,-0.0022,-0.0064,-0.0042,-0.0097,-0.0062c-0.4147,-0.2442,-0.8898,-0.3733,-1.3745,-0.3733c-0.7408,0,-1.4343,0.2993,-1.9528,0.8428c-0.2423,0.254,-0.4253,0.543,-0.5501,0.8498c-0.0207,0.0509,-0.0706,0.0837,-0.1255,0.0837H8.2714zM15.7542,12.1138c0.0894,0,0.1555,0.0849,0.1317,0.1711c-0.1743,0.6318,-0.5026,1.228,-0.9858,1.7248c-0.7667,0.7883,-1.7987,1.2225,-2.9059,1.2225c-0.9254,0,-1.9082,-0.4087,-2.6748,-1.0147l-0.1434,-0.1133v1.7594c0,0.1214,-0.1467,0.1821,-0.2325,0.0963l-0.8781,-0.8781c-0.0255,-0.0255,-0.0399,-0.0602,-0.0399,-0.0963V12.25c0,-0.0752,0.061,-0.1362,0.1362,-0.1362h2.748c0.0357,0,0.0701,0.014,0.0955,0.0391l0.8919,0.8775c0.087,0.0856,0.0262,0.2336,-0.0959,0.2333l-1.5282,-0.0041l0.3639,0.251c0.0032,0.0022,0.0064,0.0042,0.0097,0.0062c0.4147,0.2442,0.8898,0.3733,1.3745,0.3733c0.7408,0,1.4343,-0.2993,1.9528,-0.8428c0.2423,-0.254,0.4253,-0.543,0.5501,-0.8498c0.0207,-0.0509,0.0706,-0.0837,0.1255,-0.0837H15.7542z" fill="#529FBF"/>
    </g>
  </g>
</svg>
