<?xml version="1.0" encoding="UTF-8"?>
<!DOCTYPE svg PUBLIC "-//W3C//DTD SVG 1.1//EN" "http://www.w3.org/Graphics/SVG/1.1/DTD/svg11.dtd">
<svg version="1.1" id="Layer_1" xmlns="http://www.w3.org/2000/svg" xmlns:xlink="http://www.w3.org/1999/xlink" x="0px" y="0px" width="16px" height="16px" viewBox="0 0 16 16" enable-background="new 0 0 16 16" xml:space="preserve">
  <g id="icon">
    <path d="M5.358,4.542c-2.051,0,-2.516,0.895,-2.516,2.316c0,1.421,1.009,3.778,2.505,3.778c1.496,0,2.474,-2.357,2.474,-3.778C7.821,5.437,7.386,4.542,5.358,4.542zM5.302,14.958c0,0,-5.452,-0.007,-5.24,-1.346c0.343,-2.455,0.066,-2.41,3.014,-3.39c0.167,-0.076,0.274,-0.118,0.291,-0.125c0.507,1.391,1.55,2.539,1.957,2.539s1.45,-1.147,2.03,-2.504c2.948,0.98,2.908,1.025,3.251,3.48C10.816,14.95,5.302,14.958,5.302,14.958z" fill-rule="evenodd" fill="#3E79B4"/>
    <path d="M8.225,3.316C8.225,1.895,8.69,1,10.741,1c2.028,0,2.463,0.895,2.463,2.316c0,1.421,-0.978,3.778,-2.474,3.778C9.234,7.094,8.225,4.738,8.225,3.316zM15.988,10.07c-0.343,-2.455,-0.304,-2.499,-3.251,-3.48c-0.58,1.356,-1.622,2.504,-2.03,2.504c-0.377,0,-1.294,-0.979,-1.832,-2.224c-0.002,0.702,-0.197,1.626,-0.585,2.475c1.153,0.391,1.896,0.691,2.417,1.241c0.236,0.249,0.4,0.516,0.521,0.819C12.615,11.363,16.158,11.148,15.988,10.07z" fill="#4EA17E"/>
  </g>
</svg>
