<?xml version="1.0" encoding="UTF-8"?>
<!DOCTYPE svg PUBLIC "-//W3C//DTD SVG 1.1//EN" "http://www.w3.org/Graphics/SVG/1.1/DTD/svg11.dtd">
<svg version="1.1" id="Layer_1" xmlns="http://www.w3.org/2000/svg" xmlns:xlink="http://www.w3.org/1999/xlink" x="0px" y="0px" width="24px" height="24px" viewBox="0 0 24 24" enable-background="new 0 0 24 24" xml:space="preserve">
  <g id="main">
    <clipPath id="clip_mask">
      <path d="M13.9175,23.1948c-0.5647,-0.5647,-0.8688,-1.3223,-0.8562,-2.133c0.0124,-0.7942,0.327,-1.5394,0.8856,-2.098l1.6731,-1.6731c0.1425,-0.1425,0.3187,-0.2338,0.5044,-0.2722c0.1419,-0.2946,0.3343,-0.5664,0.5728,-0.805l2.3173,-2.3173c0.561,-0.5609,1.3418,-0.8827,2.1424,-0.8827c0.7968,0,1.5408,0.3054,2.0952,0.8599l0.7479,0.7478V0H0v24h14.7227L13.9175,23.1948z"/>
    </clipPath>
    <g id="icon" clip-path="url(#clip_mask)">
      <g id="transformed_icon" transform="translate(-1 -1)">
        <circle cx="12" cy="12" r="11" fill="#CCD0D9"/>
        <path d="M12,21.3077c-5.1323,0,-9.3077,-4.1754,-9.3077,-9.3077S6.8677,2.6923,12,2.6923S21.3077,6.8677,21.3077,12S17.1323,21.3077,12,21.3077z" fill="#4FC0E8"/>
        <path d="M16.1813,11.353c-0.2798,-1.8159,-1.7184,-3.2545,-3.5343,-3.5343L12,5.2308l-0.647,2.5879c-1.8159,0.2798,-3.2545,1.7184,-3.5343,3.5343L5.2308,12l2.5879,0.647c0.1193,0.7741,0.4497,1.4791,0.9296,2.0555l-2.7089,3.2901l3.2935,-2.7117c0.5698,0.4641,1.2619,0.7836,2.0202,0.9005l0.647,2.5879l0.647,-2.5879c1.8159,-0.2798,3.2545,-1.7184,3.5343,-3.5343l2.5879,-0.647L16.1813,11.353zM12,15.2154c-0.6939,0,-1.3367,-0.2217,-1.8626,-0.597l2.4648,-2.0295l-1.1592,-1.1592l-2.0344,2.4708c-0.3918,-0.5328,-0.6239,-1.19,-0.6239,-1.9006c0,-1.773,1.4424,-3.2154,3.2154,-3.2154S15.2154,10.227,15.2154,12S13.773,15.2154,12,15.2154z" fill="#FFFFFF"/>
        <polygon points="11.4242,11.411 17.9871,6.0074 12.5835,12.5703" fill="#ED5564" stroke-linejoin="miter"/>
        <path d="M12,23c6.0751,0,11,-4.9249,11,-11c0,-3.0376,-1.2312,-5.7876,-3.2218,-7.7782L4.2218,19.7782C6.2124,21.7688,8.9624,23,12,23z" fill="#231F20" opacity="0.1"/>
      </g>
    </g>
    <g id="overlay">
      <path d="M18.7379,18.2216l0.9311,-0.9311l1.0067,1.0067c0.7733,0.7733,0.7883,2.0121,0.0199,2.7805l-2.3173,2.3173c-0.7684,0.7684,-2.0501,0.7963,-2.8234,0.023l-0.9303,-0.9303c-0.7733,-0.7733,-0.7389,-2.0484,0.0295,-2.8168l1.6731,-1.6731c-0.1337,0.2543,-0.1379,1.2132,0.2416,1.5928c0.0047,0.0047,0.0092,0.0092,0.0138,0.0138l-0.9976,0.9976c-0.2561,0.2561,-0.2873,0.697,-0.0295,0.9547l0.9303,0.9303c0.2578,0.2578,0.7051,0.2332,0.9613,-0.023l2.3173,-2.3173c0.2561,-0.2561,0.2379,-0.6606,-0.0199,-0.9184L18.7379,18.2216zM18.3553,18.77c-0.2578,-0.2578,-0.276,-0.6622,-0.0199,-0.9184l2.3173,-2.3173c0.2561,-0.2561,0.7035,-0.2808,0.9613,-0.023l0.9303,0.9303c0.2578,0.2578,0.2266,0.6986,-0.0295,0.9547l-0.9976,0.9975c0,0,0.0092,0.0092,0.0138,0.0138c0.3796,0.3796,0.3754,1.3385,0.2416,1.5928l1.6731,-1.6731c0.7684,-0.7684,0.8028,-2.0435,0.0295,-2.8168l-0.9303,-0.9303c-0.7733,-0.7733,-2.055,-0.7454,-2.8234,0.023l-2.3173,2.3173c-0.7684,0.7684,-0.7534,2.0072,0.0199,2.7805l1.0067,1.0067l0.9311,-0.9311L18.3553,18.77z" fill-rule="evenodd" fill="#E98F40"/>
      <path d="M18.3783,23.3951c-0.7684,0.7684,-2.0501,0.7963,-2.8234,0.023l-0.5338,-0.5338l0.936,-0.9261l0.5288,0.5288c0.2578,0.2578,0.7051,0.2331,0.9613,-0.023l2.3173,-2.3173c0.2561,-0.2561,0.2379,-0.6606,-0.0199,-0.9184l-0.5116,-0.5116l0.936,-0.9261l0.5067,0.5067c0.7733,0.7733,0.7883,2.0121,0.0199,2.7805L18.3783,23.3951zM22.5444,16.4417c0.2578,0.2578,0.2266,0.6986,-0.0295,0.9547l-0.9975,0.9975c0,0,0.0092,0.0092,0.0138,0.0138c0.3796,0.3796,0.3754,1.3385,0.2416,1.5928l1.6731,-1.6731c0.7684,-0.7684,0.8028,-2.0435,0.0295,-2.8168l-0.4984,-0.4984l-0.936,0.9261L22.5444,16.4417zM19.3621,19.7768l-0.597,-0.597l-0.936,0.9261l0.6019,0.6019L19.3621,19.7768z" fill="#C66916" opacity="0.5"/>
    </g>
  </g>
</svg>
