<?xml version="1.0" encoding="UTF-8"?>
<!DOCTYPE svg PUBLIC "-//W3C//DTD SVG 1.1//EN" "http://www.w3.org/Graphics/SVG/1.1/DTD/svg11.dtd">
<svg version="1.1" id="Layer_1" xmlns="http://www.w3.org/2000/svg" xmlns:xlink="http://www.w3.org/1999/xlink" x="0px" y="0px" width="16px" height="16px" viewBox="0 0 16 16" enable-background="new 0 0 16 16" xml:space="preserve">
  <g id="main">
    <clipPath id="clip_mask">
      <path d="M6.4906,15.3857c-0.5157,-0.5179,-0.7934,-1.2119,-0.7819,-1.9542c0.0114,-0.727,0.2983,-1.409,0.808,-1.9207l4.9994,-5.017c0.5127,-0.5147,1.2269,-0.8101,1.9591,-0.8101c0.7294,0,1.4105,0.2806,1.9178,0.7899L16,7.0831V0H0v16h7.1025L6.4906,15.3857z"/>
    </clipPath>
    <g id="icon" clip-path="url(#clip_mask)">
      <circle cx="7.5" cy="7.5" r="6.709" fill="#FFFFFF"/>
      <path d="M7.5,0C3.358,0,0,3.358,0,7.5s3.358,7.5,7.5,7.5s7.5,-3.358,7.5,-7.5S11.642,0,7.5,0zM7.5,14.11c-3.651,0,-6.61,-2.959,-6.61,-6.61S3.849,0.89,7.5,0.89s6.61,2.959,6.61,6.61S11.151,14.11,7.5,14.11z" fill-rule="evenodd" fill="#797979"/>
      <path d="M13.4,7.501c0,0.164,-0.007,0.326,-0.02,0.486c-0.047,0.061,-0.092,0.114,-0.13,0.157c-0.05,0.058,-0.102,0.107,-0.152,0.155c-0.044,0.042,-0.085,0.081,-0.118,0.12c-0.138,0.159,-0.189,0.276,-0.19,0.429c-0.003,0.466,-0.105,0.854,-0.314,1.184c-0.009,0.014,-0.015,0.025,-0.017,0.032c-0.003,0.388,-0.221,0.654,-0.397,0.869c-0.029,0.036,-0.059,0.072,-0.087,0.108c-0.164,0.211,-0.391,0.328,-0.64,0.328c-0.304,0,-0.596,-0.178,-0.78,-0.476c-0.192,-0.311,-0.269,-0.639,-0.343,-0.957c-0.024,-0.102,-0.046,-0.198,-0.072,-0.293c-0.043,-0.159,0.023,-0.297,0.068,-0.388c0.007,-0.015,0.014,-0.029,0.02,-0.043c0.064,-0.154,0.045,-0.314,-0.058,-0.477c-0.155,-0.245,-0.227,-0.476,-0.223,-0.719c-0.066,-0.014,-0.113,-0.045,-0.144,-0.072C9.761,7.908,9.729,7.9,9.69,7.9c-0.062,0,-0.143,0.022,-0.228,0.045c-0.053,0.014,-0.108,0.029,-0.166,0.041c-0.126,0.026,-0.222,0.042,-0.315,0.042c-0.3,0,-0.455,-0.179,-0.596,-0.382c-0.008,-0.006,-0.02,-0.014,-0.029,-0.019c-0.065,-0.042,-0.173,-0.113,-0.222,-0.247c-0.071,-0.196,-0.109,-0.394,-0.145,-0.586l-0.007,-0.036c-0.026,-0.135,-0.052,-0.293,-0.035,-0.454c0.015,-0.147,0.078,-0.302,0.173,-0.426c0.081,-0.105,0.168,-0.2,0.252,-0.291c0.046,-0.05,0.092,-0.099,0.136,-0.151c0.004,-0.006,0.011,-0.02,0.016,-0.03c0.011,-0.022,0.025,-0.05,0.044,-0.079c0.059,-0.094,0.119,-0.187,0.179,-0.279c-0.124,-0.095,-0.214,-0.257,-0.131,-0.535c0.003,-0.01,0.007,-0.02,0.009,-0.03c0.007,-0.203,0.182,-0.305,0.287,-0.367c0.016,-0.009,0.032,-0.018,0.045,-0.027c0.014,-0.009,0.028,-0.017,0.043,-0.024c-0.037,-0.058,-0.054,-0.127,-0.046,-0.197c0.011,-0.093,0.066,-0.176,0.148,-0.223l0.679,-0.386c-0.012,-0.009,-0.024,-0.018,-0.035,-0.029c-0.134,-0.123,-0.149,-0.258,-0.146,-0.328c0.009,-0.199,0.158,-0.313,0.238,-0.375l0.008,-0.007c0.097,-0.075,0.195,-0.137,0.299,-0.204c0.025,-0.016,0.051,-0.033,0.077,-0.05C12.111,3.251,13.4,5.225,13.4,7.501zM1.63,6.919c0.001,0,0.001,0.001,0.002,0.001c0.077,0.03,0.154,0.058,0.232,0.087c0.395,0.144,0.737,0.269,0.924,0.609c0.043,0.078,0.117,0.13,0.2,0.147c-0.004,0.044,-0.007,0.085,-0.013,0.119c-0.003,0.01,-0.017,0.036,-0.028,0.056c-0.05,0.093,-0.143,0.267,-0.072,0.49c0.005,0.015,0.006,0.046,0.007,0.078c-0.014,0.023,-0.025,0.048,-0.032,0.075c-0.023,0.084,-0.008,0.173,0.041,0.245c0.046,0.067,0.091,0.134,0.136,0.202c0.119,0.176,0.241,0.359,0.369,0.536c0.113,0.157,0.239,0.254,0.373,0.289c0.094,0.024,0.15,0.065,0.176,0.211c0.036,0.204,0.063,0.428,0.083,0.684c0.014,0.184,0.025,0.372,0.036,0.555c0.015,0.257,0.03,0.523,0.056,0.787c0.007,0.071,0.017,0.172,0.042,0.276c0.228,0.157,0.468,0.298,0.718,0.422c0.094,-0.034,0.193,-0.086,0.302,-0.149c0.07,-0.041,0.106,-0.097,0.12,-0.12c0.047,-0.064,0.067,-0.144,0.055,-0.223c-0.007,-0.044,-0.024,-0.086,-0.049,-0.122c0.056,-0.085,0.067,-0.195,0.021,-0.292l-0.014,-0.029c0.099,-0.1,0.193,-0.196,0.282,-0.304c0.176,-0.213,0.306,-0.393,0.41,-0.566c0.061,-0.101,0.08,-0.205,0.095,-0.289c0.006,-0.035,0.013,-0.071,0.021,-0.092c0.005,-0.014,0.01,-0.026,0.014,-0.035c0.34,-0.135,0.659,-0.361,0.611,-0.933c-0.009,-0.101,0.016,-0.19,0.084,-0.307c0.085,-0.146,0.125,-0.304,0.157,-0.432c0.011,-0.043,0.021,-0.084,0.033,-0.121c0.045,-0.142,-0.024,-0.296,-0.16,-0.358c-0.106,-0.049,-0.207,-0.096,-0.304,-0.141c-0.219,-0.102,-0.427,-0.199,-0.635,-0.29l-0.03,-0.013c-0.032,-0.014,-0.078,-0.034,-0.103,-0.048c0,0,0,-0.001,0,-0.001c0.019,-0.194,-0.135,-0.334,-0.274,-0.396c-0.108,-0.048,-0.218,-0.093,-0.324,-0.136c-0.191,-0.078,-0.371,-0.152,-0.541,-0.242l-0.011,-0.006c-0.222,-0.117,-0.452,-0.238,-0.718,-0.238c-0.194,0,-0.375,0.067,-0.54,0.199c-0.029,0.005,-0.056,0.015,-0.082,0.027c-0.003,-0.016,-0.006,-0.032,-0.008,-0.047c-0.011,-0.071,-0.017,-0.146,-0.023,-0.218c-0.003,-0.033,-0.005,-0.064,-0.008,-0.094c-0.012,-0.122,-0.097,-0.221,-0.209,-0.255l0.027,-0.068c0.054,-0.135,0.003,-0.289,-0.122,-0.364c-0.085,-0.052,-0.171,-0.078,-0.257,-0.078c-0.173,0,-0.283,0.1,-0.348,0.181c-0.001,-0.014,-0.002,-0.029,-0.001,-0.046c0.002,-0.048,0.015,-0.086,0.027,-0.109c0.034,-0.005,0.068,-0.011,0.103,-0.017c0.146,-0.024,0.284,-0.046,0.423,-0.06c0.043,-0.004,0.084,-0.008,0.117,-0.01c0.02,0.046,0.044,0.112,0.063,0.162c0.045,0.122,0.165,0.2,0.295,0.194c0.13,-0.007,0.241,-0.097,0.274,-0.223c0.01,-0.039,0.018,-0.074,0.025,-0.107c0.009,-0.041,0.017,-0.08,0.026,-0.098c0.016,-0.037,0.032,-0.076,0.047,-0.114c0.033,-0.083,0.067,-0.168,0.103,-0.204c0.266,-0.269,0.555,-0.516,0.803,-0.722c0.046,-0.038,0.098,-0.074,0.157,-0.11c0.088,0.03,0.187,0.018,0.266,-0.037c0.286,-0.198,0.575,-0.425,0.908,-0.717c0.143,-0.125,0.153,-0.346,0.145,-0.413c-0.012,-0.104,-0.071,-0.191,-0.161,-0.238c-0.036,-0.019,-0.049,-0.045,-0.076,-0.201c-0.004,-0.024,-0.008,-0.047,-0.013,-0.071c-0.013,-0.066,-0.053,-0.157,-0.169,-0.22c-0.034,-0.02,-0.072,-0.033,-0.111,-0.038c-0.017,-0.025,-0.037,-0.048,-0.062,-0.068c-0.158,-0.127,-0.297,-0.186,-0.437,-0.186c-0.089,0,-0.278,0.028,-0.404,0.247c-0.122,0.017,-0.221,0.108,-0.249,0.229c-0.016,0.069,-0.063,0.123,-0.145,0.201c-0.018,-0.015,-0.036,-0.029,-0.056,-0.04c-0.076,-0.045,-0.152,-0.057,-0.205,-0.064c-0.099,-0.083,-0.205,-0.13,-0.316,-0.139C2.57,3.93,1.786,5.332,1.63,6.919z" fill="#4EA17E"/>
    </g>
    <g id="overlay">
      <path d="M9.2295,16c-0.4614,0,-0.8909,-0.176,-1.2092,-0.4956l-0.8212,-0.8244c-0.3236,-0.3249,-0.4978,-0.7628,-0.4905,-1.233c0.0073,-0.4663,0.1907,-0.9033,0.5166,-1.2305l1.6569,-1.6626l-0.0166,0.1611c-0.0367,0.3557,0.0234,0.859,0.2422,1.1239l0.0332,0.0402l-1.1259,1.1287c-0.1135,0.114,-0.1827,0.2732,-0.1898,0.4367c-0.0073,0.1695,0.0508,0.3253,0.1638,0.4387l0.821,0.8198c0.1035,0.1039,0.2485,0.1588,0.4193,0.1588c0.1824,0,0.3462,-0.0636,0.4612,-0.179l2.3086,-2.3077c0.2314,-0.2324,0.2237,-0.6042,-0.0177,-0.8465l-0.8723,-0.8757l0.7895,-0.7926l0.8726,0.8761c0.6724,0.6752,0.6803,1.7658,0.0176,2.4311l-2.3085,2.3167C10.1538,15.8119,9.6978,16,9.2295,16zM9.9334,11.9475c-0.3265,-0.3277,-0.5084,-0.7601,-0.5123,-1.2174c-0.004,-0.4584,0.1717,-0.8894,0.4948,-1.2138l2.3085,-2.3167c0.3266,-0.3279,0.7825,-0.5159,1.2508,-0.5159c0.4615,0,0.8909,0.176,1.2092,0.4956l0.8212,0.8244c0.6693,0.672,0.6576,1.7771,-0.0261,2.4634l-1.657,1.6624l0.0166,-0.1611c0.0367,-0.3555,-0.0235,-0.859,-0.2422,-1.1242l-0.0331,-0.0402l1.1259,-1.1293c0.1135,-0.1139,0.1827,-0.2735,0.1899,-0.4378c0.0074,-0.1709,-0.0508,-0.3274,-0.1638,-0.4409l-0.8212,-0.8244c-0.1077,-0.1081,-0.2566,-0.1676,-0.4192,-0.1676c-0.1741,0,-0.3422,0.0685,-0.4612,0.188l-2.3085,2.3167c-0.113,0.1133,-0.1727,0.2637,-0.1681,0.4234c0.0045,0.1572,0.0705,0.3075,0.1857,0.4232l0.8723,0.8757l-0.7895,0.7926L9.9334,11.9475z" fill="#3E79B4"/>
    </g>
  </g>
</svg>
