<?xml version="1.0" encoding="UTF-8"?>
<!DOCTYPE svg PUBLIC "-//W3C//DTD SVG 1.1//EN" "http://www.w3.org/Graphics/SVG/1.1/DTD/svg11.dtd">
<svg version="1.1" id="Layer_1" xmlns="http://www.w3.org/2000/svg" xmlns:xlink="http://www.w3.org/1999/xlink" x="0px" y="0px" width="16px" height="16px" viewBox="0 0 16 16" enable-background="new 0 0 16 16" xml:space="preserve">
  <g id="main">
    <clipPath id="clip_mask">
      <path d="M8.675,16H0V0h16v8.391l-0.466,-0.487c-0.245,-0.256,-0.588,-0.404,-0.942,-0.404c-0.352,0,-0.694,0.146,-0.938,0.4l-3.466,3.599l-1.344,-1.41c-0.245,-0.257,-0.589,-0.405,-0.943,-0.405c-0.354,0,-0.697,0.147,-0.942,0.403l-1.094,1.145c-0.487,0.51,-0.488,1.31,-0.001,1.82L8.675,16zM11.702,16H16v-4.463L11.702,16z" fill-rule="evenodd"/>
    </clipPath>
    <g id="icon" clip-path="url(#clip_mask)">
      <path d="M3,2v0.245c0.338,-0.072,0.689,-0.111,1.049,-0.111c2.764,0,5.013,2.249,5.013,5.013c0,1.463,-0.63,2.781,-1.633,3.699l0.087,0.154H13V2H3z" fill-rule="evenodd" fill="#FFFFFF"/>
      <path d="M15,1.014v10.988c0,0.551,-0.447,0.998,-0.998,0.998H8.637l-1.121,-2H13V2h-0.667h-0.75H4.42h-0.753H3v0.245c-0.74,0.158,-1.42,0.48,-2,0.926V1.014C1,0.456,1.456,0,2.014,0h1.653h4.417h4.25h0.847h0.806C14.546,0,15,0.454,15,1.014z" fill="#EAB765"/>
      <path d="M12,4.5c0,0.276,-0.224,0.5,-0.5,0.5H8.578c-0.171,-0.359,-0.383,-0.694,-0.631,-1H11.5C11.776,4,12,4.224,12,4.5z" fill="#797979"/>
      <path d="M11,8.5c0,0.276,-0.224,0.5,-0.5,0.5H8.706c0.127,-0.319,0.223,-0.653,0.282,-1H10.5C10.776,8,11,8.224,11,8.5zM9.059,7H10.5c0.276,0,0.5,-0.224,0.5,-0.5s-0.224,-0.5,-0.5,-0.5H8.928C9.004,6.323,9.049,6.657,9.059,7z" fill="#B4B4B5"/>
      <path d="M4.049,3.133c2.217,0,4.013,1.797,4.013,4.013S6.265,11.16,4.049,11.16S0.036,9.363,0.036,7.147S1.832,3.133,4.049,3.133zM6.475,11.188c-0.63,0.381,-1.357,0.616,-2.135,0.661l0.825,2.939c0.048,0.171,0.262,0.228,0.389,0.104l0.881,-0.859l1.23,-0.015c0.178,-0.002,0.288,-0.194,0.202,-0.349L6.475,11.188zM3.757,11.845l-0.826,2.942c-0.048,0.171,-0.262,0.228,-0.389,0.104l-0.881,-0.859l-1.23,-0.015c-0.178,-0.002,-0.288,-0.194,-0.202,-0.349l1.402,-2.501C2.257,11.553,2.981,11.794,3.757,11.845z" fill="#CD4C32"/>
    </g>
    <g id="overlay">
      <path d="M15.913,9.747l-1.101,-1.153c-0.12,-0.125,-0.317,-0.126,-0.437,-0.001l-4.19,4.351l-2.065,-2.166c-0.12,-0.126,-0.318,-0.126,-0.438,0l-1.094,1.144c-0.117,0.122,-0.117,0.317,0,0.439l3.38,3.543c0.12,0.126,0.317,0.126,0.437,0.001l5.508,-5.719C16.029,10.065,16.029,9.869,15.913,9.747z" fill-rule="evenodd" fill="#4EA17E"/>
    </g>
  </g>
</svg>
