<?xml version="1.0" encoding="UTF-8"?>
<!DOCTYPE svg PUBLIC "-//W3C//DTD SVG 1.1//EN" "http://www.w3.org/Graphics/SVG/1.1/DTD/svg11.dtd">
<svg version="1.1" id="Layer_1" xmlns="http://www.w3.org/2000/svg" xmlns:xlink="http://www.w3.org/1999/xlink" x="0px" y="0px" width="16px" height="16px" viewBox="0 0 16 16" enable-background="new 0 0 16 16" xml:space="preserve">
  <g id="main">
    <clipPath id="clip_mask">
      <path d="M7.802,15.62l-0.5014,-0.5023c-0.4659,-0.4668,-0.5277,-1.1965,-0.1469,-1.7351l0.1285,-0.1818l-0.1649,-0.029C6.4699,13.0578,6,12.498,6,11.8407v-0.713c0,-0.6573,0.4699,-1.2171,1.1172,-1.3311l0.2454,-0.0432l-0.1334,-0.1896c-0.3791,-0.5387,-0.3161,-1.2677,0.1497,-1.7335l0.5033,-0.5033c0.2552,-0.2552,0.5947,-0.3959,0.9559,-0.3959c0.2798,0,0.5487,0.0852,0.7776,0.2462l0.1806,0.1271l0.0321,-0.1845C9.9412,6.471,10.5012,6,11.1599,6h0.7118c0.6587,0,1.2187,0.471,1.3316,1.1199l0.0469,0.2696l0.1861,-0.131c0.2288,-0.161,0.4978,-0.2462,0.7776,-0.2462c0.3611,0,0.7005,0.1406,0.9558,0.3958l0.5034,0.5033c0.1536,0.1536,0.2624,0.336,0.327,0.5306V0H0v16h8.555C8.2709,15.9573,8.0086,15.8271,7.802,15.62z" fill-rule="evenodd"/>
    </clipPath>
    <g id="icon" clip-path="url(#clip_mask)">
      <path d="M15,1.014v10.988c0,0.551,-0.447,0.998,-0.998,0.998H8.637l-1.121,-2H13V2h-0.667h-0.75H4.42h-0.753H3v0.245c-0.74,0.158,-1.42,0.48,-2,0.926V1.014C1,0.456,1.456,0,2.014,0h1.653h4.417h4.25h0.847h0.806C14.546,0,15,0.454,15,1.014z" fill="#B4B4B4"/>
      <path d="M12,4.5c0,0.276,-0.224,0.5,-0.5,0.5H8.578c-0.171,-0.359,-0.383,-0.694,-0.631,-1H11.5C11.776,4,12,4.224,12,4.5z" fill="#B4B4B4"/>
      <path d="M11,8.5c0,0.276,-0.224,0.5,-0.5,0.5H8.706c0.127,-0.319,0.223,-0.653,0.282,-1H10.5C10.776,8,11,8.224,11,8.5zM9.059,7H10.5c0.276,0,0.5,-0.224,0.5,-0.5s-0.224,-0.5,-0.5,-0.5H8.928C9.004,6.323,9.049,6.657,9.059,7z" fill="#B4B4B4"/>
      <path d="M4.049,3.133c2.217,0,4.013,1.797,4.013,4.013S6.265,11.16,4.049,11.16S0.036,9.363,0.036,7.147S1.832,3.133,4.049,3.133zM6.475,11.188c-0.63,0.381,-1.357,0.616,-2.135,0.661l0.825,2.939c0.048,0.171,0.262,0.228,0.389,0.104l0.881,-0.859l1.23,-0.015c0.178,-0.002,0.288,-0.194,0.202,-0.349L6.475,11.188zM3.757,11.845l-0.826,2.942c-0.048,0.171,-0.262,0.228,-0.389,0.104l-0.881,-0.859l-1.23,-0.015c-0.178,-0.002,-0.288,-0.194,-0.202,-0.349l1.402,-2.501C2.257,11.553,2.981,11.794,3.757,11.845z" fill="#B4B4B4"/>
    </g>
    <g id="overlay">
      <path d="M16,11.901v-0.7117c0,-0.1709,-0.1229,-0.3171,-0.2913,-0.3464l-1.0364,-0.1803c-0.0666,-0.2426,-0.1627,-0.481,-0.2881,-0.7109l0.6207,-0.8821c0.0984,-0.1398,0.0819,-0.33,-0.0389,-0.4509l-0.5033,-0.5033c-0.1209,-0.1209,-0.3111,-0.1373,-0.4509,-0.0389l-0.8569,0.6029c-0.2371,-0.1393,-0.4897,-0.2481,-0.7517,-0.3248l-0.185,-1.0632c-0.0293,-0.1684,-0.1754,-0.2913,-0.3464,-0.2913h-0.7118c-0.1709,0,-0.3171,0.1229,-0.3464,0.2913l-0.1802,1.0357c-0.2458,0.0642,-0.4875,0.1577,-0.7208,0.2819l-0.8724,-0.6138c-0.1398,-0.0984,-0.33,-0.0819,-0.4509,0.0389l-0.5033,0.5033c-0.1209,0.1209,-0.1373,0.3111,-0.0389,0.4509l0.5843,0.8304c-0.1491,0.2465,-0.2496,0.5107,-0.3301,0.785l-1.0105,0.1778C7.1226,10.811,7,10.957,7,11.1277v0.713c0,0.1707,0.1226,0.3167,0.2906,0.3462l0.978,0.1721c0.0666,0.2609,0.159,0.5173,0.2932,0.764l-0.5916,0.8368c-0.0988,0.1397,-0.0826,0.3302,0.0382,0.4513l0.5013,0.5024c0.1209,0.1211,0.3114,0.1376,0.4513,0.0391l0.8042,-0.5663c0.2554,0.1527,0.5289,0.2551,0.8134,0.3345l0.1736,0.9884c0.0295,0.1681,0.1756,0.2908,0.3463,0.2908h0.7129c0.1707,0,0.3167,-0.1226,0.3462,-0.2906l0.1722,-0.9787c0.2577,-0.0693,0.5108,-0.1638,0.7542,-0.2994l0.8465,0.5985c0.1397,0.0988,0.3302,0.0826,0.4513,-0.0382l0.5024,-0.5014c0.1211,-0.1209,0.1376,-0.3114,0.0391,-0.4513l-0.585,-0.8307c0.1429,-0.246,0.2535,-0.5079,0.3292,-0.7802l1.0411,-0.1808C15.877,12.2182,16,12.072,16,11.901zM12.2343,12.8625c-0.7309,0.422,-1.6655,0.1716,-2.0875,-0.5593c-0.422,-0.7309,-0.1716,-1.6655,0.5593,-2.0875c0.7309,-0.422,1.6655,-0.1716,2.0875,0.5593C13.2156,11.5059,12.9652,12.4405,12.2343,12.8625z" fill-rule="evenodd" fill="#B4B4B4"/>
    </g>
  </g>
</svg>
