<?xml version="1.0" encoding="UTF-8"?>
<!DOCTYPE svg PUBLIC "-//W3C//DTD SVG 1.1//EN" "http://www.w3.org/Graphics/SVG/1.1/DTD/svg11.dtd">
<svg version="1.1" id="Layer_1" xmlns="http://www.w3.org/2000/svg" xmlns:xlink="http://www.w3.org/1999/xlink" x="0px" y="0px" width="16px" height="16px" viewBox="0 0 16 16" enable-background="new 0 0 16 16" xml:space="preserve">
  <g id="icon">
    <path d="M4,2v1.135c0.016,0,0.033,-0.001,0.049,-0.001c2.764,0,5.013,2.249,5.013,5.013c0,1.06,-0.332,2.043,-0.895,2.853H14V2H4z" fill-rule="evenodd" fill="#FFFFFF"/>
    <path d="M16,1.014v10.988c0,0.551,-0.447,0.998,-0.998,0.998H8.077l-0.647,-1.154c0.276,-0.253,0.523,-0.537,0.737,-0.846H14V2h-0.667h-0.75H5.42h-0.753H4v1.135c-0.712,0.007,-1.388,0.163,-2,0.438V1.014C2,0.456,2.456,0,3.014,0h1.653h4.417h4.25h0.847h0.806C15.546,0,16,0.454,16,1.014z" fill="#EAB765"/>
    <path d="M13,4.5c0,0.276,-0.224,0.5,-0.5,0.5H7.948c-0.31,-0.384,-0.676,-0.722,-1.085,-1H12.5C12.776,4,13,4.224,13,4.5z" fill="#797979"/>
    <path d="M8.578,6H11.5c0.276,0,0.5,0.224,0.5,0.5s-0.224,0.5,-0.5,0.5H8.928C8.847,6.651,8.729,6.317,8.578,6zM11.5,8H9.059c0.001,0.049,0.004,0.098,0.004,0.147c0,0.291,-0.026,0.576,-0.074,0.853H11.5c0.276,0,0.5,-0.224,0.5,-0.5S11.776,8,11.5,8z" fill="#B4B4B5"/>
    <path d="M4.049,4.133c2.217,0,4.013,1.797,4.013,4.013S6.265,12.16,4.049,12.16S0.036,10.363,0.036,8.147S1.832,4.133,4.049,4.133zM6.475,12.188c-0.63,0.381,-1.357,0.616,-2.135,0.661l0.825,2.939c0.048,0.171,0.262,0.228,0.389,0.104l0.881,-0.859l1.23,-0.015c0.178,-0.002,0.288,-0.194,0.202,-0.349L6.475,12.188zM3.757,12.845l-0.826,2.942c-0.048,0.171,-0.262,0.228,-0.389,0.104l-0.881,-0.859l-1.23,-0.015c-0.178,-0.002,-0.288,-0.194,-0.202,-0.349l1.402,-2.501C2.257,12.553,2.981,12.794,3.757,12.845z" fill="#CD4C32"/>
  </g>
</svg>
