<?xml version="1.0" encoding="UTF-8"?>
<!DOCTYPE svg PUBLIC "-//W3C//DTD SVG 1.1//EN" "http://www.w3.org/Graphics/SVG/1.1/DTD/svg11.dtd">
<svg version="1.1" id="Layer_1" xmlns="http://www.w3.org/2000/svg" xmlns:xlink="http://www.w3.org/1999/xlink" x="0px" y="0px" width="16px" height="16px" viewBox="0 0 16 16" enable-background="new 0 0 16 16" xml:space="preserve">
  <g id="main">
    <clipPath id="clip_mask">
      <path d="M6,11.5c0,-3.0327,2.4673,-5.5,5.5,-5.5c1.8588,0,3.5039,0.9278,4.5,2.3436V0H0v16h8.3436C6.9278,15.0039,6,13.3588,6,11.5z"/>
    </clipPath>
    <g id="icon" clip-path="url(#clip_mask)">
      <path d="M15,8.1684V6.9822c0,-0.2849,-0.2049,-0.5284,-0.4855,-0.5773l-1.7273,-0.3005c-0.111,-0.4044,-0.2712,-0.8016,-0.4802,-1.1849l1.0345,-1.4702c0.1639,-0.233,0.1365,-0.5501,-0.0649,-0.7515l-0.8389,-0.8389c-0.2014,-0.2014,-0.5185,-0.2288,-0.7515,-0.0649L10.258,2.7989c-0.3951,-0.2322,-0.8161,-0.4135,-1.2529,-0.5414l-0.3083,-1.772C8.648,0.2049,8.4044,0,8.1196,0H6.9332c-0.2849,0,-0.5284,0.2049,-0.5773,0.4855l-0.3003,1.7262c-0.4096,0.107,-0.8125,0.2629,-1.2013,0.4699l-1.454,-1.023c-0.233,-0.1639,-0.5501,-0.1365,-0.7515,0.0649l-0.8389,0.8389c-0.2014,0.2014,-0.2288,0.5185,-0.0649,0.7515l0.9738,1.384c-0.2485,0.4108,-0.416,0.8511,-0.5502,1.3083L0.4844,6.3024C0.2043,6.3517,0,6.5951,0,6.8795v1.1883c0,0.2844,0.2043,0.5278,0.4844,0.5771l1.63,0.2869c0.1111,0.4348,0.265,0.8622,0.4886,1.2734l-0.9861,1.3947c-0.1646,0.2328,-0.1377,0.5503,0.0637,0.7522l0.8356,0.8373c0.2014,0.2018,0.5189,0.2294,0.7521,0.0652l1.3403,-0.9438c0.4257,0.2545,0.8815,0.4252,1.3557,0.5575l0.2893,1.6473c0.0492,0.2802,0.2926,0.4846,0.5771,0.4846h1.1882c0.2844,0,0.5278,-0.2043,0.5771,-0.4844l0.2871,-1.6311c0.4295,-0.1154,0.8514,-0.2731,1.257,-0.4989l1.4109,0.9975c0.2328,0.1646,0.5503,0.1377,0.7522,-0.0637l0.8373,-0.8356c0.2018,-0.2014,0.2294,-0.5189,0.0652,-0.7521l-0.9749,-1.3844c0.2382,-0.41,0.4225,-0.8465,0.5487,-1.3003l1.7351,-0.3013C14.795,8.6969,15,8.4533,15,8.1684zM8.7239,9.7708c-1.2182,0.7033,-2.7759,0.2859,-3.4792,-0.9322c-0.7033,-1.2182,-0.2859,-2.7758,0.9322,-3.4792c1.2182,-0.7033,2.7758,-0.2859,3.4792,0.9322S9.942,9.0675,8.7239,9.7708z" fill-rule="evenodd" fill="#797979"/>
    </g>
    <g id="overlay">
      <path d="M11.5,7c-2.4853,0,-4.5,2.0147,-4.5,4.5c0,2.4853,2.0147,4.5,4.5,4.5s4.5,-2.0147,4.5,-4.5C16,9.0147,13.9853,7,11.5,7zM10.9867,14.0054l-2.3571,-2.4126l0.9353,-0.9554l1.4215,1.4551l2.7426,-2.7834l0.942,0.9622L10.9867,14.0054z" fill-rule="evenodd" fill="#4EA17E"/>
      <polygon points="10.9867,14.0054 14.6709,10.2713 13.729,9.3091 10.9864,12.0925 9.5649,10.6374 8.6296,11.5928" fill="#FFFFFF" stroke-linejoin="miter"/>
    </g>
  </g>
</svg>
