<?xml version="1.0" encoding="UTF-8"?>
<!DOCTYPE svg PUBLIC "-//W3C//DTD SVG 1.1//EN" "http://www.w3.org/Graphics/SVG/1.1/DTD/svg11.dtd">
<svg version="1.1" id="Layer_1" xmlns="http://www.w3.org/2000/svg" xmlns:xlink="http://www.w3.org/1999/xlink" x="0px" y="0px" width="16px" height="16px" viewBox="0 0 16 16" enable-background="new 0 0 16 16" xml:space="preserve">
  <g id="icon">
    <path d="M8,0C3.5817,0,0,3.5817,0,8c0,4.4183,3.5817,8,8,8s8,-3.5817,8,-8C16,3.5817,12.4183,0,8,0zM9,12.5c0,0.2761,-0.2239,0.5,-0.5,0.5H7.5c-0.2761,0,-0.5,-0.2239,-0.5,-0.5v-1c0,-0.2761,0.2239,-0.5,0.5,-0.5h1c0.2761,0,0.5,0.2239,0.5,0.5V12.5zM9,9.5c0,0.2761,-0.2239,0.5,-0.5,0.5H7.5c-0.2761,0,-0.5,-0.2239,-0.5,-0.5V3.5c0,-0.2761,0.2239,-0.5,0.5,-0.5h1c0.2761,0,0.5,0.2239,0.5,0.5V9.5z" fill-rule="evenodd" fill="#CD4C32"/>
    <path d="M8.5,10H7.5c-0.2761,0,-0.5,-0.2239,-0.5,-0.5V3.5c0,-0.2761,0.2239,-0.5,0.5,-0.5h1c0.2761,0,0.5,0.2239,0.5,0.5v6C9,9.7761,8.7761,10,8.5,10zM9,12.5v-1c0,-0.2761,-0.2239,-0.5,-0.5,-0.5H7.5c-0.2761,0,-0.5,0.2239,-0.5,0.5v1c0,0.2761,0.2239,0.5,0.5,0.5h1C8.7761,13,9,12.7761,9,12.5z" fill-rule="evenodd" fill="#FFFFFF"/>
  </g>
</svg>
