<?xml version="1.0" encoding="UTF-8"?>
<!DOCTYPE svg PUBLIC "-//W3C//DTD SVG 1.1//EN" "http://www.w3.org/Graphics/SVG/1.1/DTD/svg11.dtd">
<svg version="1.1" id="Layer_1" xmlns="http://www.w3.org/2000/svg" xmlns:xlink="http://www.w3.org/1999/xlink" x="0px" y="0px" width="16px" height="16px" viewBox="0 0 16 16" enable-background="new 0 0 16 16" xml:space="preserve">
  <g id="icon">
    <path d="M8,0C3.5817,0,0,3.5817,0,8c0,4.4183,3.5817,8,8,8s8,-3.5817,8,-8C16,3.5817,12.4183,0,8,0zM13,6.6904c0,0.1548,-0.1255,0.3096,-0.2803,0.3096H9.3906c-0.0735,0,-0.1441,-0.0289,-0.1966,-0.0805l-0.9102,-0.9248c-0.179,-0.1761,-0.0539,-0.4807,0.1973,-0.48l1.6717,0.0044l-0.467,-0.3221c-0.5268,-0.3118,-1.131,-0.4766,-1.7474,-0.4766c-0.9383,0,-1.8168,0.3792,-2.4737,1.0677c-1.2672,1.3283,-1.2672,3.4094,0,4.7377c0.675,0.7075,1.5539,1.0972,2.4747,1.0972c0.8896,0,1.7482,-0.3687,2.4177,-1.0381c0.4604,-0.4604,0.7823,-1.0633,0.9229,-1.7203c0.0305,-0.1425,0.1665,-0.2367,0.3109,-0.2171c0.307,0.0416,0.8096,0.1094,1.1249,0.1531c0.1607,0.0223,0.2675,0.1756,0.236,0.3348c-0.1964,0.9909,-0.6751,1.8872,-1.3967,2.6088c-0.9651,0.9651,-2.2476,1.4966,-3.6113,1.4966c-1.3893,0,-2.6893,-0.5499,-3.6604,-1.5485c-1.9077,-1.9615,-1.904,-5.157,0.0083,-7.1232c0.9712,-0.9986,2.2784,-1.5485,3.6809,-1.5485c1.1722,0,2.3853,0.5178,3.3564,1.2853L11.5,4.4494V2.4808c0,-0.2497,0.3127,-0.3747,0.4892,-0.1982l0.9233,0.8968c0.0526,0.0526,0.0875,0.1238,0.0875,0.1982V6.6904z" fill-rule="evenodd" fill="#529FBF"/>
    <path d="M7.9439,13.2408c-1.3893,0,-2.6893,-0.5499,-3.6604,-1.5485c-1.9077,-1.9615,-1.904,-5.157,0.0083,-7.1232c0.9712,-0.9986,2.2784,-1.5485,3.6809,-1.5485c1.1722,0,2.3961,0.5178,3.3672,1.2853l0.1816,0.1435V2.4808c0,-0.2497,0.3019,-0.3747,0.4784,-0.1982l0.9179,0.8968c0.0526,0.0526,0.0821,0.1238,0.0821,0.1982v3.3128c0,0.1548,-0.1255,0.3096,-0.2803,0.3096H9.3906c-0.0735,0,-0.1441,-0.0289,-0.1966,-0.0805l-0.9102,-0.9248c-0.179,-0.1761,-0.0538,-0.4807,0.1973,-0.48l1.6717,0.0044l-0.467,-0.3221c-0.5268,-0.3118,-1.131,-0.4766,-1.7474,-0.4766c-0.9383,0,-1.8168,0.3792,-2.4737,1.0677c-1.2672,1.3283,-1.2672,3.4094,0,4.7377c0.675,0.7075,1.5539,1.0972,2.4747,1.0972c0.8896,0,1.7482,-0.3687,2.4177,-1.0381c0.4604,-0.4604,0.7823,-1.0633,0.923,-1.7203c0.0305,-0.1425,0.1665,-0.2367,0.3109,-0.2171c0.307,0.0416,0.8096,0.1094,1.1249,0.1531c0.1607,0.0223,0.2675,0.1756,0.236,0.3348c-0.1964,0.9909,-0.6751,1.8873,-1.3967,2.6088C10.5901,12.7093,9.3076,13.2408,7.9439,13.2408z" fill="#FFFFFF"/>
  </g>
</svg>
