<?xml version="1.0" encoding="UTF-8"?>
<!DOCTYPE svg PUBLIC "-//W3C//DTD SVG 1.1//EN" "http://www.w3.org/Graphics/SVG/1.1/DTD/svg11.dtd">
<svg version="1.1" id="Layer_1" xmlns="http://www.w3.org/2000/svg" xmlns:xlink="http://www.w3.org/1999/xlink" x="0px" y="0px" width="16px" height="16px" viewBox="0 0 16 16" enable-background="new 0 0 16 16" xml:space="preserve">
  <g id="main">
    <clipPath id="clip_mask">
      <path d="M9,15.283V6.717C9,5.77,9.778,5,10.733,5h4.55c0.256,0,0.498,0.058,0.717,0.159V0H0v16h9.16C9.058,15.782,9,15.539,9,15.283z"/>
    </clipPath>
    <g id="icon" clip-path="url(#clip_mask)">
      <path d="M14.324,5.231c0.014,-0.016,0.021,-0.024,0.021,-0.024S9.295,1.481,8.883,1.273c-1.644,-1.031,-1.191,-1.031,-2.772,0c-0.947,0.629,-4.84,3.523,-5.39,3.932C0.59,5.275,0.5,5.411,0.5,5.569v8.517c0,0.229,0.185,0.414,0.414,0.414h13.172c0.229,0,0.414,-0.185,0.414,-0.414V5.569C14.5,5.429,14.43,5.306,14.324,5.231z" fill-rule="evenodd" fill="#FFFFFF"/>
      <path d="M14.793,4.99c-0.035,-0.072,-0.085,-0.137,-0.151,-0.186c-0.274,-0.202,-0.902,-0.665,-1.642,-1.207v1.24c0.208,0.153,0.412,0.302,0.607,0.446C12.7,6.299,10.33,8.929,9.185,9.995c-0.339,0,-1.054,0.001,-1.823,0.002C6.346,9.998,6.237,10,5.783,10c-1.234,-1.094,-3.52,-3.668,-4.395,-4.667c0.167,-0.124,0.376,-0.279,0.613,-0.454V3.634c-0.723,0.534,-1.319,0.977,-1.548,1.148C0.182,4.941,0,5.234,0,5.569v8.517C0,14.59,0.41,15,0.914,15h13.172c0.504,0,0.914,-0.41,0.914,-0.914V5.569C15,5.35,14.922,5.148,14.793,4.99zM14,14H1V6.407c1.094,1.238,3.154,3.525,4.273,4.475c0.09,0.077,0.205,0.119,0.324,0.119c0.201,0,0.55,-0.001,1.767,-0.003c0.998,-0.001,1.906,-0.002,2.016,-0.002c0.123,0,0.242,-0.045,0.333,-0.127c1.013,-0.906,3.161,-3.269,4.287,-4.524V14zM5.624,1c0.08,-0.056,0.151,-0.104,0.211,-0.143C7.575,-0.279,7.341,-0.282,9.138,0.843c0.053,0.03,0.137,0.084,0.245,0.157H8.01c-0.023,-0.001,-0.047,-0.001,-0.07,0H5.624z" fill="#6D6E71"/>
      <path d="M3,2v3.6l3.2,3.4h2.6l3.2,-3.4V2H3zM10,6H5c-0.276,0,-0.5,-0.224,-0.5,-0.5s0.224,-0.5,0.5,-0.5h5c0.276,0,0.5,0.224,0.5,0.5S10.276,6,10,6zM10,4H5c-0.276,0,-0.5,-0.224,-0.5,-0.5s0.224,-0.5,0.5,-0.5h5c0.276,0,0.5,0.224,0.5,0.5S10.276,4,10,4z" fill="#EAB765"/>
      <path d="M10,4H5c-0.276,0,-0.5,-0.224,-0.5,-0.5v0c0,-0.276,0.224,-0.5,0.5,-0.5h5c0.276,0,0.5,0.224,0.5,0.5v0C10.5,3.776,10.276,4,10,4zM10.5,5.5L10.5,5.5c0,-0.276,-0.224,-0.5,-0.5,-0.5H5c-0.276,0,-0.5,0.224,-0.5,0.5v0c0,0.276,0.224,0.5,0.5,0.5h5C10.276,6,10.5,5.776,10.5,5.5z" fill="#FFFFFF"/>
    </g>
    <g id="overlay">
      <path d="M15.283,6h-4.55c-0.396,0,-0.733,0.321,-0.733,0.717V9h6V6.717C16,6.321,15.679,6,15.283,6zM15,8h-2V7h2V8zM10,15.283c0,0.396,0.338,0.717,0.733,0.717h4.55c0.396,0,0.717,-0.321,0.717,-0.717V10h-6V15.283zM13,11.8c0.663,0,1.2,0.537,1.2,1.2c0,0.663,-0.537,1.2,-1.2,1.2s-1.2,-0.537,-1.2,-1.2C11.8,12.337,12.337,11.8,13,11.8z" fill="#797979"/>
      <path d="M13,7h2v1h-2V7zM13,11.8c-0.663,0,-1.2,0.537,-1.2,1.2c0,0.663,0.537,1.2,1.2,1.2c0.663,0,1.2,-0.537,1.2,-1.2C14.2,12.337,13.663,11.8,13,11.8z" fill-rule="evenodd" fill="#FFFFFF"/>
    </g>
  </g>
</svg>
