<?xml version="1.0" encoding="UTF-8"?>
<!DOCTYPE svg PUBLIC "-//W3C//DTD SVG 1.1//EN" "http://www.w3.org/Graphics/SVG/1.1/DTD/svg11.dtd">
<svg version="1.1" id="Layer_1" xmlns="http://www.w3.org/2000/svg" xmlns:xlink="http://www.w3.org/1999/xlink" x="0px" y="0px" width="16px" height="16px" viewBox="0 0 16 16" enable-background="new 0 0 16 16" xml:space="preserve">
  <g id="main">
    <clipPath id="clip_mask">
      <path d="M6,15.8015v-1.4268c0,-0.3181,0.1218,-0.6169,0.343,-0.8414l0.0095,-0.0095c0.0226,-0.0223,1.9729,-1.9487,3.0245,-2.9951c-0.0389,-0.2197,-0.0585,-0.4432,-0.0585,-0.6688c0,-1.8067,1.2767,-3.3728,3.041,-3.738c0.2716,-0.0717,0.5507,-0.1122,0.8303,-0.1202c0.0363,-0.001,0.0725,-0.0016,0.1086,-0.0016c1.0134,0,1.9595,0.4018,2.6641,1.1312c0.0129,0.0134,0.0249,0.0273,0.0375,0.0409V0H0v16h6.0178C6.007,15.9353,6,15.8692,6,15.8015z"/>
    </clipPath>
    <g id="icon" clip-path="url(#clip_mask)">
      <path d="M4.876,7.968c0,0,1.242,4.328,2.08,6.101c0.295,0.007,0.479,0.008,0.5,0.008c0.023,0,0.243,-0.001,0.594,-0.01c0.865,-1.767,2.067,-6.063,2.067,-6.063l0.149,0.06c0.006,-0.012,0.011,-0.024,0.017,-0.037c-0.189,-0.075,-0.633,-0.142,-1.018,-0.257c-0.165,0.18,-0.341,0.342,-0.525,0.481c-0.506,-0.138,-0.779,-0.241,-1.236,-0.241c-0.558,0,-0.876,0.075,-1.349,0.206c-0.178,-0.141,-0.347,-0.303,-0.505,-0.482c-0.333,0.14,-0.69,0.16,-0.913,0.261c0.004,0.008,0.008,0.016,0.012,0.025L4.876,7.968z" fill-rule="evenodd" fill="#FFFFFF"/>
      <path d="M6.473,9.847c0.027,-0.576,0.295,-0.464,1.048,-0.464c0.753,0,1.033,-0.111,1.006,0.463c0.007,0.261,-0.215,0.37,-0.489,0.626c-0.013,0.897,0.46,4.059,0.46,4.059l-0.991,0.367l-0.914,-0.388c0,0,0.376,-3.131,0.406,-4.04C6.791,10.202,6.473,10.114,6.473,9.847z" fill-rule="evenodd" fill="#797979"/>
      <path d="M7.455,15c-0.247,0,-6.06,-0.023,-7.23,-1.349c-0.184,-0.208,-0.256,-0.44,-0.217,-0.689c0.041,-0.289,0.076,-0.555,0.108,-0.798C0.466,9.51,0.544,9.434,4.301,8.207c0.254,-0.113,0.412,-0.175,0.414,-0.176l0.161,-0.063c0,0,1.964,6.844,2.62,6.844c0.657,0,2.621,-6.809,2.621,-6.809l0.165,0.067c0.074,0.03,0.163,0.069,0.272,0.118c3.791,1.239,3.971,1.317,4.336,4.048c0.03,0.224,0.062,0.466,0.1,0.729c0.039,0.244,-0.033,0.474,-0.216,0.681C13.6,14.977,7.706,15,7.455,15L7.455,15z" fill-rule="evenodd" fill="#797979"/>
      <path d="M7.54,0C4.628,0,3.967,1.788,3.967,3.833c0,2.045,1.433,4.936,3.557,4.936c2.124,0,3.513,-2.891,3.513,-4.936C11.038,1.788,10.42,0,7.54,0zM7.541,7.781c-1.582,0,-2.556,-2.335,-2.556,-3.875c0,-0.178,0.015,-0.347,0.042,-0.509c0.112,-0.176,0.303,-0.383,0.674,-0.663c0.144,-0.108,0.337,-0.131,0.499,-0.051c1.004,0.498,3.439,0.152,3.779,0.796c0.019,0.137,0.029,0.279,0.029,0.427C10.007,5.447,9.122,7.781,7.541,7.781z" fill-rule="evenodd" fill="#797979"/>
      <path d="M5.701,2.734c-0.371,0.28,-0.562,0.487,-0.674,0.663c-0.027,0.162,-0.042,0.332,-0.042,0.509c0,1.54,0.974,3.875,2.556,3.875c1.582,0,2.466,-2.335,2.466,-3.875c0,-0.148,-0.01,-0.29,-0.029,-0.427c-0.34,-0.644,-2.775,-0.299,-3.779,-0.796C6.038,2.603,5.844,2.625,5.701,2.734z" fill-rule="evenodd" fill="#FFFFFF"/>
    </g>
    <g id="overlay">
      <path d="M13.2185,7.0012c-0.2172,0.0063,-0.428,0.0391,-0.6297,0.0945c-1.2941,0.2549,-2.2703,1.3953,-2.2703,2.7642c0,0.3411,0.0607,0.6681,0.1717,0.9707c-0.8355,0.8373,-3.435,3.4047,-3.435,3.4047c-0.0366,0.0371,-0.0552,0.0872,-0.0552,0.1394v1.4268c0,0.1096,0.085,0.1986,0.1946,0.1986h2.164c0.1096,0,0.1414,-0.0889,0.1414,-0.1986v-0.8018L10.7643,15c0.1096,0,0.2357,-0.0594,0.2357,-0.1691v-1.1935c0,0,0.8975,-0.974,1.1057,-1.1681c0.3282,0.1339,0.6706,0.2082,1.0469,0.2082c1.3692,0,2.5017,-0.9767,2.7561,-2.2714c0.0539,-0.1965,0.0823,-0.4015,0.0897,-0.6127C16.0527,8.2332,14.7768,6.9561,13.2185,7.0012zM13.9353,8.3458c0.4181,0,0.757,0.3389,0.757,0.757c0,0.4181,-0.3389,0.757,-0.757,0.757c-0.4181,0,-0.757,-0.3389,-0.757,-0.757C13.1783,8.6847,13.5172,8.3458,13.9353,8.3458z" fill="#EAB765"/>
    </g>
  </g>
</svg>
