<?xml version="1.0" encoding="UTF-8"?>
<!DOCTYPE svg PUBLIC "-//W3C//DTD SVG 1.1//EN" "http://www.w3.org/Graphics/SVG/1.1/DTD/svg11.dtd">
<svg version="1.1" id="Layer_1" xmlns="http://www.w3.org/2000/svg" xmlns:xlink="http://www.w3.org/1999/xlink" x="0px" y="0px" width="16px" height="16px" viewBox="0 0 16 16" enable-background="new 0 0 16 16" xml:space="preserve">
  <g id="main">
    <clipPath id="clip_mask">
      <path d="M10.956,16H0V0h16v5.299c-0.372,-0.439,-0.86,-0.834,-1.486,-1.136l-0.069,-0.033l-0.073,-0.022c-0.065,-0.02,-0.122,-0.031,-0.16,-0.039l-1.21,-0.243l0,-0.07l-1.264,0.325c-0.038,0.01,-0.096,0.024,-0.161,0.048l-0.067,0.024l-0.063,0.034C9.727,5.102,8.979,6.778,9,8.033c0.021,1.223,0.671,2.276,1.848,3.015l-0.074,4.193C10.774,15.508,10.838,15.766,10.956,16zM13.002,3.838" fill-rule="evenodd"/>
    </clipPath>
    <g id="icon" clip-path="url(#clip_mask)">
      <path d="M14,14.5H1c-0.2761,0,-0.5,-0.2239,-0.5,-0.5V2.5h14v11.5C14.5,14.2761,14.2761,14.5,14,14.5z" fill="#FFFFFF" stroke="#6D6E71" stroke-width="1" stroke-miterlimit="1"/>
      <path d="M15,3H0V1C0,0.4477,0.4477,0,1,0h13c0.5523,0,1,0.4477,1,1V3z" fill="#3E79B4"/>
      <path d="M3,5.5h2M3,7.5h2M3,9.5h2M3,11.5h2" fill="none" stroke="#797979" stroke-width="1" stroke-linecap="round" stroke-miterlimit="1"/>
      <path d="M7,5.5h5.1M7,7.5h5.1M7,9.5h5.1M7,11.5h5.1" fill="none" stroke="#B4B4B5" stroke-width="1" stroke-linecap="round" stroke-miterlimit="1"/>
    </g>
    <g id="overlay">
      <path d="M11.774,15.243l0.085,-4.778c-1.249,-0.599,-1.842,-1.48,-1.859,-2.449c-0.013,-0.77,0.438,-2.159,1.916,-2.945c0.023,-0.008,0.054,-0.016,0.084,-0.023l-0.005,2.887c-0.001,0.403,0.441,0.746,1.021,0.745c0.58,-0.001,0.99,-0.104,0.991,-0.734l-0.004,-2.898c0.027,0.005,0.057,0.011,0.076,0.017c1.464,0.705,1.922,2.038,1.92,2.943c-0.001,0.69,-0.546,1.883,-1.775,2.46l0.043,4.771c-0.001,0.396,-0.347,0.718,-0.774,0.718l-0.948,0.002C12.119,15.96,11.774,15.639,11.774,15.243zM13.031,15.216c0.304,0,0.55,-0.229,0.551,-0.511c0,-0.282,-0.245,-0.51,-0.549,-0.51c-0.304,0,-0.55,0.229,-0.551,0.511S12.727,15.217,13.031,15.216z" fill-rule="evenodd" fill="#797979"/>
    </g>
  </g>
</svg>
