<?xml version="1.0" encoding="UTF-8"?>
<!DOCTYPE svg PUBLIC "-//W3C//DTD SVG 1.1//EN" "http://www.w3.org/Graphics/SVG/1.1/DTD/svg11.dtd">
<svg version="1.1" id="Layer_1" xmlns="http://www.w3.org/2000/svg" xmlns:xlink="http://www.w3.org/1999/xlink" x="0px" y="0px" width="16px" height="16px" viewBox="0 0 16 16" enable-background="new 0 0 16 16" xml:space="preserve">
  <g id="main">
    <clipPath id="clip_mask">
      <path d="M9.9133,15.849l-0.012,-0.0327L7.6331,9.2805c-0.0917,-0.2588,-0.2872,-0.8102,0.0661,-1.3103c0.2063,-0.292,0.537,-0.4595,0.9071,-0.4595c0.2412,0,0.463,0.0707,0.6673,0.1492l6.5413,2.243c0.0649,0.023,0.126,0.0478,0.1851,0.0737V0H0v16h9.9777C9.9554,15.9523,9.9338,15.9021,9.9133,15.849z" fill-rule="evenodd"/>
    </clipPath>
    <g id="icon" clip-path="url(#clip_mask)">
      <path d="M0.5,14V1c0,-0.276,0.224,-0.5,0.5,-0.5h12.775c0.29,0,0.525,0.235,0.525,0.525v12.95c0,0.29,-0.235,0.525,-0.525,0.525H1C0.724,14.5,0.5,14.276,0.5,14z" fill="#FFFFFF"/>
      <path d="M8.8,3V1h1v2H8.8zM4.8,3V1H3.8v2H4.8zM3.8,11v3h1v-3H3.8zM9.8,11H8.8v3h1V11z" fill="#B4B4B5"/>
      <path d="M0.5,9.5V4.5h13.8v5H0.5z" fill="#C2D3E6" stroke="#529FBF" stroke-width="1" stroke-miterlimit="1"/>
      <path d="M8.8,4V3h1v1H8.8zM4.8,4V3H3.8v1H4.8zM9.8,10H8.8v1h1V10zM3.8,10v1h1v-1H3.8z" fill="#B4B4B5" opacity="0.4"/>
      <path d="M13.8,4V3h1v1H13.8zM1,4V3H0l0,1H1zM14.8,10h-1v1h1V10zM0,10v1h1v-1H0z" fill="#B4B4B5" opacity="0.4"/>
      <path d="M13.775,15H1c-0.551,0,-1,-0.449,-1,-1v-3h1v3.001L13.775,14c0.014,0,0.025,-0.011,0.025,-0.025V11h1v2.975C14.8,14.54,14.34,15,13.775,15zM1,3V1h12.775c0.014,0,0.025,0.011,0.025,0.025V3h1V1.025C14.8,0.46,14.34,0,13.775,0H1C0.449,0,0,0.449,0,1l0,2H1z" fill="#6D6E71"/>
    </g>
    <g id="overlay">
      <path d="M15.4906,10.8488L8.9313,8.5997c-0.4486,-0.1741,-0.5178,-0.1107,-0.3535,0.353l2.2682,6.5358c0.1868,0.4833,0.431,0.4844,0.7343,-0.01l1.1428,-1.87l2.3712,2.3492c0.2452,0.2449,1.1074,-0.6417,0.8622,-0.8866l-2.348,-2.347l1.872,-1.1416C16.0183,11.2341,16.0183,11.0356,15.4906,10.8488z" fill-rule="evenodd" fill="#797979"/>
    </g>
  </g>
</svg>
