<?xml version="1.0" encoding="UTF-8"?>
<!DOCTYPE svg PUBLIC "-//W3C//DTD SVG 1.1//EN" "http://www.w3.org/Graphics/SVG/1.1/DTD/svg11.dtd">
<svg version="1.1" id="Layer_1" xmlns="http://www.w3.org/2000/svg" xmlns:xlink="http://www.w3.org/1999/xlink" x="0px" y="0px" width="16px" height="16px" viewBox="0 0 16 16" enable-background="new 0 0 16 16" xml:space="preserve">
  <g id="main">
    <clipPath id="clip_mask">
      <path d="M6,11.5c0,-3.033,2.467,-5.5,5.5,-5.5c1.859,0,3.504,0.928,4.5,2.344V0H0v16h8.344C6.928,15.004,6,13.359,6,11.5z"/>
    </clipPath>
    <g id="icon" clip-path="url(#clip_mask)">
      <path d="M14.8895,7.7417L0.429,14.9079C0.2508,15.0473,0,14.9111,0,14.6749L0,0.2891c0,-0.2366,0.2516,-0.3727,0.4298,-0.2323l14.4604,7.2197C15.0369,7.392,15.0365,7.6267,14.8895,7.7417z" fill="#4DA07D"/>
    </g>
    <g id="overlay">
      <path d="M14.683,8.327c-1.755,-1.755,-4.601,-1.755,-6.357,0c-1.755,1.755,-1.755,4.601,0,6.357s4.601,1.755,6.357,0S16.439,10.082,14.683,8.327zM12.024,13.877c0,-0.132,-0.074,0.103,-0.142,0.103h-0.728c-0.068,0,-0.13,-0.035,-0.13,-0.103v-3.755l-0.466,0.358c-0.033,0.018,-0.065,0.019,-0.099,0.004c-0.034,-0.015,-0.062,-0.045,-0.072,-0.081l-0.127,-0.689c-0.014,-0.055,0.011,-0.111,0.061,-0.137l0.749,-0.546c0.018,-0.009,0.037,-0.001,0.057,-0.001h0.754c0.068,0,0.142,-0.171,0.142,0.096V13.877z" fill="#CD4C32"/>
      <path d="M11.882,9.03h-0.754c-0.02,0,-0.04,-0.008,-0.057,0.001l-0.749,0.549c-0.05,0.027,-0.076,0.081,-0.061,0.136l0.126,0.688c0.009,0.036,0.035,0.066,0.069,0.081c0.034,0.015,0.07,0.013,0.104,-0.004l0.466,-0.358v3.755c0,0.068,0.062,0.103,0.13,0.103h0.728c0.068,0,0.142,-0.235,0.142,-0.103V9.126C12.024,8.858,11.949,9.03,11.882,9.03z" fill="#FFFFFF"/>
    </g>
  </g>
</svg>
