<?xml version="1.0" encoding="UTF-8"?>
<!DOCTYPE svg PUBLIC "-//W3C//DTD SVG 1.1//EN" "http://www.w3.org/Graphics/SVG/1.1/DTD/svg11.dtd">
<svg version="1.1" id="Layer_1" xmlns="http://www.w3.org/2000/svg" xmlns:xlink="http://www.w3.org/1999/xlink" x="0px" y="0px" width="16px" height="16px" viewBox="0 0 16 16" enable-background="new 0 0 16 16" xml:space="preserve">
  <g id="icon">
    <path d="M15.8749,7.4702L14.1822,5.805C14.115,5.7377,14,5.7854,14,5.8805V10.5c-1.8147,-1.8304,-4.2548,-4.3794,-4.7073,-4.8048c-0.7002,-0.7,-2.4873,-1.9962,-4.3207,-1.9962c-2.8975,0,-4.9306,1.8952,-4.9306,4.6087v0.0119c0,1.2377,1.0081,4.7498,1.2357,5.5269c0.0267,0.091,0.1101,0.1535,0.2049,0.1535h1.8977c0.144,0,0.2468,-0.1393,0.2039,-0.2768c-0.4616,-1.4768,-1.3258,-4.4239,-1.3391,-5.4213c0.0031,-1.7859,1.4173,-2.4225,2.7408,-2.4225c1.0669,0,2.3542,0.9378,2.7776,1.3657l0.0331,0.0281C8.1475,7.5993,10.6116,10.0252,12.5,12H7.9043c-0.0951,0,-0.1427,0.115,-0.0755,0.1822l1.6414,1.6927c0.0801,0.0801,0.1887,0.1251,0.3019,0.1251h6.0144c0.1179,0,0.2135,-0.0956,0.2135,-0.2135V7.7721C16,7.6589,15.955,7.5502,15.8749,7.4702z" fill="#3E78B3"/>
  </g>
</svg>
