<?xml version="1.0" encoding="UTF-8"?>
<!DOCTYPE svg PUBLIC "-//W3C//DTD SVG 1.1//EN" "http://www.w3.org/Graphics/SVG/1.1/DTD/svg11.dtd">
<svg version="1.1" id="Layer_1" xmlns="http://www.w3.org/2000/svg" xmlns:xlink="http://www.w3.org/1999/xlink" x="0px" y="0px" width="16px" height="16px" viewBox="0 0 16 16" enable-background="new 0 0 16 16" xml:space="preserve">
  <g id="main">
    <g id="icon">
      <path d="M1.751,0.5318L1.457,0.623L1.191,0.7674L0.9588,0.9588L0.7674,1.191L0.623,1.457L0.5318,1.751L0.5,2.067L0.5,12.93L0.5318,13.25L0.623,13.54L0.7674,13.81L0.9588,14.04L1.191,14.23L1.457,14.38L1.751,14.47L2.067,14.5L7.245,14.5L5.864,13.05L5.704,12.85L5.59,12.62L5.499,12.14L5.591,11.66L5.705,11.44L5.865,11.23L6.959,10.09L7.16,9.916L7.389,9.789L7.639,9.711L7.901,9.684L8.163,9.711L8.413,9.79L8.643,9.917L8.844,10.09L10.19,11.5L13.65,7.9L13.85,7.73L14.08,7.605L14.33,7.527L14.5,7.509L14.5,2.067L14.47,1.751L14.38,1.457L14.23,1.191L14.04,0.9588L13.81,0.7674L13.54,0.623L13.25,0.5318L12.93,0.5L2.067,0.5zM13.17,14.48L13.25,14.47L13.54,14.38L13.81,14.23L14.04,14.04L14.23,13.81L14.38,13.54L14.47,13.25L14.48,13.11zz" fill="#FFFFFF"/>
      <path d="M2.017,0.002539L1.701,0.03438L1.651,0.03945L1.603,0.0543L1.309,0.1455L1.262,0.1602L1.218,0.1836L0.9521,0.3279L0.9098,0.351L0.8725,0.3818L0.6406,0.573L0.6035,0.6035L0.573,0.6406L0.3818,0.8725L0.351,0.9098L0.3279,0.9521L0.1836,1.218L0.1602,1.262L0.1455,1.309L0.0543,1.603L0.03945,1.651L0.03438,1.701L0.002539,2.017L0,2.042L0,2.067L0,12.93L0,12.96L0.002539,12.98L0.03438,13.3L0.03945,13.35L0.0543,13.4L0.1455,13.69L0.1602,13.74L0.1836,13.78L0.3279,14.05L0.351,14.09L0.3818,14.13L0.573,14.36L0.6035,14.4L0.6406,14.43L0.8725,14.62L0.9098,14.65L0.9521,14.67L1.218,14.82L1.262,14.84L1.309,14.85L1.603,14.95L1.651,14.96L1.701,14.97L2.017,15L2.042,15L2.067,15L7.721,15L6.768,14L2.092,14L1.851,13.98L1.652,13.91L1.471,13.82L1.314,13.69L1.184,13.53L1.086,13.35L1.024,13.15L1,12.91L1,2.092L1.024,1.851L1.086,1.652L1.184,1.471L1.314,1.314L1.471,1.184L1.652,1.086L1.851,1.024L2.092,1L12.91,1L13.15,1.024L13.35,1.086L13.53,1.184L13.69,1.314L13.82,1.471L13.91,1.652L13.98,1.851L14,2.092L14,7.65L14.08,7.605L14.33,7.527L14.59,7.5L14.85,7.527L15,7.573L15,2.067L15,2.042L15,2.017L14.97,1.701L14.96,1.651L14.95,1.603L14.85,1.309L14.84,1.262L14.82,1.218L14.67,0.9523L14.65,0.9098L14.62,0.8725L14.43,0.6406L14.4,0.6037L14.36,0.573L14.13,0.3818L14.09,0.3512L14.05,0.3281L13.78,0.1836L13.74,0.1602L13.69,0.1455L13.4,0.0543L13.35,0.03945L13.3,0.03438L12.98,0.002539L12.96,0L12.93,0L2.067,0L2.042,0zM12.67,15L12.93,15L12.96,15L12.98,15L13.3,14.97L13.35,14.96L13.4,14.95L13.69,14.85L13.74,14.84L13.78,14.82L14.05,14.67L14.09,14.65L14.13,14.62L14.36,14.43L14.4,14.4L14.43,14.36L14.62,14.13L14.65,14.09L14.67,14.05L14.82,13.78L14.84,13.74L14.85,13.69L14.95,13.4L14.96,13.35L14.97,13.3L15,12.98L15,12.96L15,12.93L15,12.58zz" fill="#797979"/>
      <path d="M3,11L6,11L6,11.09L6.959,10.09L7.16,9.916L7.389,9.789L7.639,9.711L7.901,9.684L8.163,9.711L8.413,9.79L8.643,9.917L8.844,10.09L9.712,11L10.67,11L12,9.617L12,3L3,3zM5,4L5,6L4,6L4,4zM7,4L7,6L6,6L6,4zM9,4L9,6L8,6L8,4zM11,4L11,6L10,6L10,4zz" fill="#797979"/>
      <path d="M4,6L5,6L5,4L4,4zM6,6L7,6L7,4L6,4zM8,6L9,6L9,4L8,4zM10,6L11,6L11,4L10,4zz" fill="#EAB765"/>
    </g>
    <g id="overlay">
      <path d="M15.913,9.747l-1.101,-1.153c-0.12,-0.125,-0.317,-0.126,-0.437,-0.001l-4.19,4.351l-2.065,-2.166c-0.12,-0.126,-0.318,-0.126,-0.438,0l-1.094,1.144c-0.117,0.122,-0.117,0.317,0,0.439l3.38,3.543c0.12,0.126,0.317,0.126,0.437,0.001l5.508,-5.719C16.029,10.065,16.029,9.869,15.913,9.747z" fill-rule="evenodd" fill="#4EA17E"/>
    </g>
  </g>
</svg>
