<?xml version="1.0" encoding="UTF-8"?>
<!DOCTYPE svg PUBLIC "-//W3C//DTD SVG 1.1//EN" "http://www.w3.org/Graphics/SVG/1.1/DTD/svg11.dtd">
<svg version="1.1" id="Layer_1" xmlns="http://www.w3.org/2000/svg" xmlns:xlink="http://www.w3.org/1999/xlink" x="0px" y="0px" width="16px" height="16px" viewBox="0 0 16 16" enable-background="new 0 0 16 16" xml:space="preserve">
  <g id="main">
    <clipPath id="clip_mask">
      <path d="M9.9133,15.849l-0.012,-0.0327L7.6331,9.2805c-0.0917,-0.2588,-0.2872,-0.8102,0.0661,-1.3103c0.2063,-0.292,0.537,-0.4595,0.9071,-0.4595c0.2412,0,0.463,0.0707,0.6673,0.1492l6.5413,2.243c0.0649,0.023,0.126,0.0478,0.1851,0.0737V0H0v16h9.9777C9.9554,15.9523,9.9338,15.9021,9.9133,15.849z" fill-rule="evenodd"/>
    </clipPath>
    <g id="icon" clip-path="url(#clip_mask)">
      <path d="M1.8,5h11.2l0.5,1.1H1.5L1.8,5z" fill-rule="evenodd" fill="#787878"/>
      <path d="M1.5,8.9h12.1l-0.3,1.1H1.7L1.5,8.9z" fill-rule="evenodd" fill="#787878"/>
      <path d="M9.0319,1.4338H7.8742c0,0,1.2081,3.1666,1.2081,6.0018c0,2.7513,-1.2081,6.0549,-1.2081,6.0549h1.1576c0,0,1.2081,-3.2706,1.2081,-6.0045C10.24,4.6346,9.0319,1.4338,9.0319,1.4338z" fill-rule="evenodd" fill="#787878"/>
      <path d="M5.9504,1.4338h1.0727c0,0,-1.2081,3.1666,-1.2081,6.0018c0,2.7513,1.2081,6.0549,1.2081,6.0549H5.9504c0,0,-1.2414,-3.2706,-1.2414,-6.0045C4.709,4.6346,5.9504,1.4338,5.9504,1.4338z" fill-rule="evenodd" fill="#787878"/>
      <path d="M7.507,14.9867c-4.1316,0,-7.493,-3.3614,-7.493,-7.4932S3.3754,0.0004,7.507,0.0004S15,3.3618,15,7.4935S11.6387,14.9867,7.507,14.9867zM7.507,1.6004c-3.2494,0,-5.893,2.6437,-5.893,5.8931c0,3.2495,2.6436,5.8932,5.893,5.8932S13.4,10.743,13.4,7.4935C13.4,4.244,10.7564,1.6004,7.507,1.6004z" fill="#787878"/>
    </g>
    <g id="overlay">
      <path d="M15.4906,10.8488L8.9313,8.5997c-0.4486,-0.1741,-0.5178,-0.1107,-0.3535,0.353l2.2682,6.5358c0.1868,0.4833,0.431,0.4844,0.7343,-0.01l1.1428,-1.87l2.3712,2.3492c0.2452,0.2449,1.1074,-0.6417,0.8622,-0.8866l-2.348,-2.347l1.872,-1.1416C16.0183,11.2341,16.0183,11.0356,15.4906,10.8488z" fill-rule="evenodd" fill="#529FBE"/>
    </g>
  </g>
</svg>
